<?xml version="1.0" encoding="UTF-8" standalone="no"?>
<!DOCTYPE svg PUBLIC "-//W3C//DTD SVG 1.1//EN"
 "http://www.w3.org/Graphics/SVG/1.1/DTD/svg11.dtd">
<!-- Generated by graphviz version 12.0.0 (20240704.0754)
 -->
<!-- Title: advanceEnum Pages: 1 -->
<svg width="356pt" height="137pt"
 viewBox="0.00 0.00 356.00 136.50" xmlns="http://www.w3.org/2000/svg" xmlns:xlink="http://www.w3.org/1999/xlink">
<g id="graph0" class="graph" transform="scale(1 1) rotate(0) translate(4 132.5)">
<title>advanceEnum</title>
<!-- Node1 -->
<g id="Node000001" class="node">
<title>Node1</title>
<g id="a_Node000001"><a xlink:title="Cycle through (advance) an enum.">
<polygon fill="#999999" stroke="#666666" points="348,-73.88 270.5,-73.88 270.5,-54.62 348,-54.62 348,-73.88"/>
<text text-anchor="middle" x="309.25" y="-60.38" font-family="Helvetica,sans-Serif" font-size="10.00">advanceEnum</text>
</a>
</g>
</g>
<!-- Node2 -->
<g id="Node000002" class="node">
<title>Node2</title>
<g id="a_Node000002"><a xlink:href="classGraphicalDisplayUI.html#a17cd12ba983e77b6f766bac994b09f49" target="_top" xlink:title="Handle input on the Config tab.">
<polygon fill="white" stroke="#666666" points="234.5,-128.5 135.25,-128.5 135.25,-98 234.5,-98 234.5,-128.5"/>
<text text-anchor="start" x="143.25" y="-115" font-family="Helvetica,sans-Serif" font-size="10.00">GraphicalDisplayUI</text>
<text text-anchor="middle" x="184.88" y="-103.75" font-family="Helvetica,sans-Serif" font-size="10.00">::handleInputConfig</text>
</a>
</g>
</g>
<!-- Node1&#45;&gt;Node2 -->
<g id="edge1_Node000001_Node000002" class="edge">
<title>Node1&#45;&gt;Node2</title>
<g id="a_edge1_Node000001_Node000002"><a xlink:title=" ">
<path fill="none" stroke="#63b8ff" d="M272.78,-78.45C257.77,-84.46 240.25,-91.48 224.88,-97.63"/>
<polygon fill="#63b8ff" stroke="#63b8ff" points="273.8,-81.81 281.79,-74.85 271.2,-75.31 273.8,-81.81"/>
</a>
</g>
</g>
<!-- Node4 -->
<g id="Node000004" class="node">
<title>Node4</title>
<g id="a_Node000004"><a xlink:href="classGraphicalDisplayUI.html#a8f0f20c1ddf3b647f42ed92492fc959c" target="_top" xlink:title="Handle input on the Info tab.">
<polygon fill="white" stroke="#666666" points="234.5,-79.5 135.25,-79.5 135.25,-49 234.5,-49 234.5,-79.5"/>
<text text-anchor="start" x="143.25" y="-66" font-family="Helvetica,sans-Serif" font-size="10.00">GraphicalDisplayUI</text>
<text text-anchor="middle" x="184.88" y="-54.75" font-family="Helvetica,sans-Serif" font-size="10.00">::handleInputInfo</text>
</a>
</g>
</g>
<!-- Node1&#45;&gt;Node4 -->
<g id="edge3_Node000001_Node000004" class="edge">
<title>Node1&#45;&gt;Node4</title>
<g id="a_edge3_Node000001_Node000004"><a xlink:title=" ">
<path fill="none" stroke="#63b8ff" d="M258.82,-64.25C250.88,-64.25 242.66,-64.25 234.72,-64.25"/>
<polygon fill="#63b8ff" stroke="#63b8ff" points="258.69,-67.75 268.69,-64.25 258.69,-60.75 258.69,-67.75"/>
</a>
</g>
</g>
<!-- Node5 -->
<g id="Node000005" class="node">
<title>Node5</title>
<g id="a_Node000005"><a xlink:href="classGraphicalDisplayUI.html#a948cf32243a585b1a88c0989efd9d474" target="_top" xlink:title="Handle input on the Main tab.">
<polygon fill="white" stroke="#666666" points="234.5,-30.5 135.25,-30.5 135.25,0 234.5,0 234.5,-30.5"/>
<text text-anchor="start" x="143.25" y="-17" font-family="Helvetica,sans-Serif" font-size="10.00">GraphicalDisplayUI</text>
<text text-anchor="middle" x="184.88" y="-5.75" font-family="Helvetica,sans-Serif" font-size="10.00">::handleInputMain</text>
</a>
</g>
</g>
<!-- Node1&#45;&gt;Node5 -->
<g id="edge5_Node000001_Node000005" class="edge">
<title>Node1&#45;&gt;Node5</title>
<g id="a_edge5_Node000001_Node000005"><a xlink:title=" ">
<path fill="none" stroke="#63b8ff" d="M272.78,-50.05C257.77,-44.04 240.25,-37.02 224.88,-30.87"/>
<polygon fill="#63b8ff" stroke="#63b8ff" points="271.2,-53.19 281.79,-53.65 273.8,-46.69 271.2,-53.19"/>
</a>
</g>
</g>
<!-- Node3 -->
<g id="Node000003" class="node">
<title>Node3</title>
<g id="a_Node000003"><a xlink:href="classGraphicalDisplayUI.html#a3e340b5f072ed6a4251069f4a408e4b0" target="_top" xlink:title="Handle input.">
<polygon fill="white" stroke="#666666" points="99.25,-79.5 0,-79.5 0,-49 99.25,-49 99.25,-79.5"/>
<text text-anchor="start" x="8" y="-66" font-family="Helvetica,sans-Serif" font-size="10.00">GraphicalDisplayUI</text>
<text text-anchor="middle" x="49.62" y="-54.75" font-family="Helvetica,sans-Serif" font-size="10.00">::handleInput</text>
</a>
</g>
</g>
<!-- Node2&#45;&gt;Node3 -->
<g id="edge2_Node000002_Node000003" class="edge">
<title>Node2&#45;&gt;Node3</title>
<g id="a_edge2_Node000002_Node000003"><a xlink:title=" ">
<path fill="none" stroke="#63b8ff" d="M130.63,-93.67C118.19,-89.1 105.11,-84.29 93.21,-79.91"/>
<polygon fill="#63b8ff" stroke="#63b8ff" points="129.33,-96.92 139.93,-97.09 131.75,-90.35 129.33,-96.92"/>
</a>
</g>
</g>
<!-- Node4&#45;&gt;Node3 -->
<g id="edge4_Node000004_Node000003" class="edge">
<title>Node4&#45;&gt;Node3</title>
<g id="a_edge4_Node000004_Node000003"><a xlink:title=" ">
<path fill="none" stroke="#63b8ff" d="M123.69,-64.25C115.59,-64.25 107.36,-64.25 99.48,-64.25"/>
<polygon fill="#63b8ff" stroke="#63b8ff" points="123.5,-67.75 133.5,-64.25 123.5,-60.75 123.5,-67.75"/>
</a>
</g>
</g>
<!-- Node5&#45;&gt;Node3 -->
<g id="edge6_Node000005_Node000003" class="edge">
<title>Node5&#45;&gt;Node3</title>
<g id="a_edge6_Node000005_Node000003"><a xlink:title=" ">
<path fill="none" stroke="#63b8ff" d="M130.63,-34.83C118.19,-39.4 105.11,-44.21 93.21,-48.59"/>
<polygon fill="#63b8ff" stroke="#63b8ff" points="131.75,-38.15 139.93,-31.41 129.33,-31.58 131.75,-38.15"/>
</a>
</g>
</g>
</g>
</svg>
