<?xml version="1.0" encoding="UTF-8" standalone="no"?>
<!DOCTYPE svg PUBLIC "-//W3C//DTD SVG 1.1//EN"
 "http://www.w3.org/Graphics/SVG/1.1/DTD/svg11.dtd">
<!-- Generated by graphviz version 12.0.0 (20240704.0754)
 -->
<!-- Title: src/aliases.h Pages: 1 -->
<svg width="1109pt" height="248pt"
 viewBox="0.00 0.00 1109.05 248.25" xmlns="http://www.w3.org/2000/svg" xmlns:xlink="http://www.w3.org/1999/xlink">
<g id="graph0" class="graph" transform="scale(1 1) rotate(0) translate(4 244.25)">
<title>src/aliases.h</title>
<!-- Node1 -->
<g id="Node000001" class="node">
<title>Node1</title>
<g id="a_Node000001"><a xlink:title=" ">
<polygon fill="#999999" stroke="#666666" points="489.55,-240.25 418.8,-240.25 418.8,-221 489.55,-221 489.55,-240.25"/>
<text text-anchor="middle" x="454.18" y="-226.75" font-family="Helvetica,sans-Serif" font-size="10.00">src/aliases.h</text>
</a>
</g>
</g>
<!-- Node2 -->
<g id="Node000002" class="node">
<title>Node2</title>
<g id="a_Node000002"><a xlink:href="CascadeHumidistat_8h.html" target="_top" xlink:title=" ">
<polygon fill="white" stroke="#666666" points="500.05,-129.75 342.3,-129.75 342.3,-110.5 500.05,-110.5 500.05,-129.75"/>
<text text-anchor="middle" x="421.18" y="-116.25" font-family="Helvetica,sans-Serif" font-size="10.00">src/control/CascadeHumidistat.h</text>
</a>
</g>
</g>
<!-- Node1&#45;&gt;Node2 -->
<g id="edge1_Node000001_Node000002" class="edge">
<title>Node1&#45;&gt;Node2</title>
<g id="a_edge1_Node000001_Node000002"><a xlink:title=" ">
<path fill="none" stroke="#63b8ff" d="M448.38,-209.86C444.66,-197.23 439.69,-180.51 435.18,-165.75 431.38,-153.33 426.86,-139 424.01,-130"/>
<polygon fill="#63b8ff" stroke="#63b8ff" points="444.91,-210.46 451.09,-219.06 451.62,-208.48 444.91,-210.46"/>
</a>
</g>
</g>
<!-- Node4 -->
<g id="Node000004" class="node">
<title>Node4</title>
<g id="a_Node000004"><a xlink:href="main_8cpp.html" target="_top" xlink:title=" ">
<polygon fill="white" stroke="#666666" points="316.93,-19.25 245.43,-19.25 245.43,0 316.93,0 316.93,-19.25"/>
<text text-anchor="middle" x="281.18" y="-5.75" font-family="Helvetica,sans-Serif" font-size="10.00">src/main.cpp</text>
</a>
</g>
</g>
<!-- Node1&#45;&gt;Node4 -->
<g id="edge27_Node000001_Node000004" class="edge">
<title>Node1&#45;&gt;Node4</title>
<g id="a_edge27_Node000001_Node000004"><a xlink:title=" ">
<path fill="none" stroke="#63b8ff" d="M407.16,-224.2C308.17,-211.92 82.62,-179.15 25.18,-129.75 5.14,-112.52 8.16,-100.46 3.18,-74.5 1.57,-66.1 -2.37,-61.76 3.18,-55.25 33.85,-19.26 176.98,-12.18 245.04,-10.87"/>
<polygon fill="#63b8ff" stroke="#63b8ff" points="406.46,-227.64 416.81,-225.38 407.31,-220.69 406.46,-227.64"/>
</a>
</g>
</g>
<!-- Node7 -->
<g id="Node000007" class="node">
<title>Node7</title>
<g id="a_Node000007"><a xlink:href="Humidistat_8h.html" target="_top" xlink:title=" ">
<polygon fill="white" stroke="#666666" points="425.93,-185 306.43,-185 306.43,-165.75 425.93,-165.75 425.93,-185"/>
<text text-anchor="middle" x="366.18" y="-171.5" font-family="Helvetica,sans-Serif" font-size="10.00">src/control/Humidistat.h</text>
</a>
</g>
</g>
<!-- Node1&#45;&gt;Node7 -->
<g id="edge6_Node000001_Node000007" class="edge">
<title>Node1&#45;&gt;Node7</title>
<g id="a_edge6_Node000001_Node000007"><a xlink:title=" ">
<path fill="none" stroke="#63b8ff" d="M429.72,-214.82C414.15,-205.4 394.48,-193.5 381.18,-185.45"/>
<polygon fill="#63b8ff" stroke="#63b8ff" points="427.59,-217.63 437.95,-219.81 431.21,-211.64 427.59,-217.63"/>
</a>
</g>
</g>
<!-- Node11 -->
<g id="Node000011" class="node">
<title>Node11</title>
<g id="a_Node000011"><a xlink:href="SingleHumidistat_8h.html" target="_top" xlink:title=" ">
<polygon fill="white" stroke="#666666" points="664.43,-129.75 517.93,-129.75 517.93,-110.5 664.43,-110.5 664.43,-129.75"/>
<text text-anchor="middle" x="591.18" y="-116.25" font-family="Helvetica,sans-Serif" font-size="10.00">src/control/SingleHumidistat.h</text>
</a>
</g>
</g>
<!-- Node1&#45;&gt;Node11 -->
<g id="edge19_Node000001_Node000011" class="edge">
<title>Node1&#45;&gt;Node11</title>
<g id="a_edge19_Node000001_Node000011"><a xlink:title=" ">
<path fill="none" stroke="#63b8ff" d="M474.29,-213.7C503.47,-190.59 556.6,-148.51 579.81,-130.13"/>
<polygon fill="#63b8ff" stroke="#63b8ff" points="472.24,-210.85 466.58,-219.81 476.59,-216.34 472.24,-210.85"/>
</a>
</g>
</g>
<!-- Node15 -->
<g id="Node000015" class="node">
<title>Node15</title>
<g id="a_Node000015"><a xlink:href="ButtonReader_8h.html" target="_top" xlink:title=" ">
<polygon fill="white" stroke="#666666" points="919.8,-185 796.55,-185 796.55,-165.75 919.8,-165.75 919.8,-185"/>
<text text-anchor="middle" x="858.18" y="-171.5" font-family="Helvetica,sans-Serif" font-size="10.00">src/input/ButtonReader.h</text>
</a>
</g>
</g>
<!-- Node1&#45;&gt;Node15 -->
<g id="edge20_Node000001_Node000015" class="edge">
<title>Node1&#45;&gt;Node15</title>
<g id="a_edge20_Node000001_Node000015"><a xlink:title=" ">
<path fill="none" stroke="#63b8ff" d="M501.15,-223.43C574.22,-213.8 715.1,-195.23 796.34,-184.53"/>
<polygon fill="#63b8ff" stroke="#63b8ff" points="500.99,-219.92 491.53,-224.7 501.9,-226.86 500.99,-219.92"/>
</a>
</g>
</g>
<!-- Node3 -->
<g id="Node000003" class="node">
<title>Node3</title>
<g id="a_Node000003"><a xlink:href="SerialLogger_8h.html" target="_top" xlink:title=" ">
<polygon fill="white" stroke="#666666" points="615.55,-74.5 520.8,-74.5 520.8,-55.25 615.55,-55.25 615.55,-74.5"/>
<text text-anchor="middle" x="568.18" y="-61" font-family="Helvetica,sans-Serif" font-size="10.00">src/SerialLogger.h</text>
</a>
</g>
</g>
<!-- Node2&#45;&gt;Node3 -->
<g id="edge2_Node000002_Node000003" class="edge">
<title>Node2&#45;&gt;Node3</title>
<g id="a_edge2_Node000002_Node000003"><a xlink:title=" ">
<path fill="none" stroke="#63b8ff" d="M456.93,-106.17C483.62,-96.5 519.42,-83.54 543.12,-74.95"/>
<polygon fill="#63b8ff" stroke="#63b8ff" points="455.75,-102.88 447.54,-109.58 458.13,-109.46 455.75,-102.88"/>
</a>
</g>
</g>
<!-- Node5 -->
<g id="Node000005" class="node">
<title>Node5</title>
<g id="a_Node000005"><a xlink:href="CascadeHumidistat_8cpp.html" target="_top" xlink:title=" ">
<polygon fill="white" stroke="#666666" points="351.3,-74.5 183.05,-74.5 183.05,-55.25 351.3,-55.25 351.3,-74.5"/>
<text text-anchor="middle" x="267.18" y="-61" font-family="Helvetica,sans-Serif" font-size="10.00">src/control/CascadeHumidistat.cpp</text>
</a>
</g>
</g>
<!-- Node2&#45;&gt;Node5 -->
<g id="edge4_Node000002_Node000005" class="edge">
<title>Node2&#45;&gt;Node5</title>
<g id="a_edge4_Node000002_Node000005"><a xlink:title=" ">
<path fill="none" stroke="#63b8ff" d="M384.47,-106.43C356.43,-96.74 318.47,-83.61 293.43,-74.95"/>
<polygon fill="#63b8ff" stroke="#63b8ff" points="383.03,-109.64 393.62,-109.6 385.32,-103.02 383.03,-109.64"/>
</a>
</g>
</g>
<!-- Node6 -->
<g id="Node000006" class="node">
<title>Node6</title>
<g id="a_Node000006"><a xlink:href="GraphicalDisplayUI_8h.html" target="_top" xlink:title=" ">
<polygon fill="white" stroke="#666666" points="503.05,-74.5 369.3,-74.5 369.3,-55.25 503.05,-55.25 503.05,-74.5"/>
<text text-anchor="middle" x="436.18" y="-61" font-family="Helvetica,sans-Serif" font-size="10.00">src/ui/GraphicalDisplayUI.h</text>
</a>
</g>
</g>
<!-- Node2&#45;&gt;Node6 -->
<g id="edge5_Node000002_Node000006" class="edge">
<title>Node2&#45;&gt;Node6</title>
<g id="a_edge5_Node000002_Node000006"><a xlink:title=" ">
<path fill="none" stroke="#63b8ff" d="M426.72,-99.46C429.09,-91.02 431.75,-81.58 433.65,-74.86"/>
<polygon fill="#63b8ff" stroke="#63b8ff" points="423.41,-98.3 424.06,-108.88 430.15,-100.2 423.41,-98.3"/>
</a>
</g>
</g>
<!-- Node3&#45;&gt;Node4 -->
<g id="edge3_Node000003_Node000004" class="edge">
<title>Node3&#45;&gt;Node4</title>
<g id="a_edge3_Node000003_Node000004"><a xlink:title=" ">
<path fill="none" stroke="#63b8ff" d="M509.32,-52.95C451.58,-42.24 365.41,-26.25 317.18,-17.31"/>
<polygon fill="#63b8ff" stroke="#63b8ff" points="508.5,-56.36 518.98,-54.75 509.78,-49.48 508.5,-56.36"/>
</a>
</g>
</g>
<!-- Node7&#45;&gt;Node2 -->
<g id="edge11_Node000007_Node000002" class="edge">
<title>Node7&#45;&gt;Node2</title>
<g id="a_edge11_Node000007_Node000002"><a xlink:title=" ">
<path fill="none" stroke="#63b8ff" d="M383.53,-157.57C392.93,-148.48 404.16,-137.6 411.9,-130.11"/>
<polygon fill="#63b8ff" stroke="#63b8ff" points="381.1,-155.06 376.35,-164.53 385.97,-160.09 381.1,-155.06"/>
</a>
</g>
</g>
<!-- Node8 -->
<g id="Node000008" class="node">
<title>Node8</title>
<g id="a_Node000008"><a xlink:href="SetpointProfileRunner_8h.html" target="_top" xlink:title=" ">
<polygon fill="white" stroke="#666666" points="168.05,-129.75 34.3,-129.75 34.3,-110.5 168.05,-110.5 168.05,-129.75"/>
<text text-anchor="middle" x="101.18" y="-116.25" font-family="Helvetica,sans-Serif" font-size="10.00">src/SetpointProfileRunner.h</text>
</a>
</g>
</g>
<!-- Node7&#45;&gt;Node8 -->
<g id="edge7_Node000007_Node000008" class="edge">
<title>Node7&#45;&gt;Node8</title>
<g id="a_edge7_Node000007_Node000008"><a xlink:title=" ">
<path fill="none" stroke="#63b8ff" d="M309.92,-163.07C261.13,-153.27 191.44,-139.26 146.25,-130.18"/>
<polygon fill="#63b8ff" stroke="#63b8ff" points="308.95,-166.44 319.44,-164.98 310.33,-159.58 308.95,-166.44"/>
</a>
</g>
</g>
<!-- Node10 -->
<g id="Node000010" class="node">
<title>Node10</title>
<g id="a_Node000010"><a xlink:href="Humidistat_8cpp.html" target="_top" xlink:title=" ">
<polygon fill="white" stroke="#666666" points="324.18,-129.75 194.18,-129.75 194.18,-110.5 324.18,-110.5 324.18,-129.75"/>
<text text-anchor="middle" x="259.18" y="-116.25" font-family="Helvetica,sans-Serif" font-size="10.00">src/control/Humidistat.cpp</text>
</a>
</g>
</g>
<!-- Node7&#45;&gt;Node10 -->
<g id="edge12_Node000007_Node000010" class="edge">
<title>Node7&#45;&gt;Node10</title>
<g id="a_edge12_Node000007_Node000010"><a xlink:title=" ">
<path fill="none" stroke="#63b8ff" d="M337.78,-160.24C318.65,-150.72 293.97,-138.44 277.42,-130.2"/>
<polygon fill="#63b8ff" stroke="#63b8ff" points="336.16,-163.35 346.67,-164.67 339.28,-157.08 336.16,-163.35"/>
</a>
</g>
</g>
<!-- Node7&#45;&gt;Node11 -->
<g id="edge13_Node000007_Node000011" class="edge">
<title>Node7&#45;&gt;Node11</title>
<g id="a_edge13_Node000007_Node000011"><a xlink:title=" ">
<path fill="none" stroke="#63b8ff" d="M415.78,-162.64C457.11,-152.86 515.11,-139.13 552.91,-130.18"/>
<polygon fill="#63b8ff" stroke="#63b8ff" points="415,-159.22 406.07,-164.93 416.61,-166.04 415,-159.22"/>
</a>
</g>
</g>
<!-- Node8&#45;&gt;Node4 -->
<g id="edge9_Node000008_Node000004" class="edge">
<title>Node8&#45;&gt;Node4</title>
<g id="a_edge9_Node000008_Node000004"><a xlink:title=" ">
<path fill="none" stroke="#63b8ff" d="M57.89,-106.29C26.98,-94.94 -6.14,-76.86 12.18,-55.25 41.64,-20.49 178.9,-12.78 245.17,-11.08"/>
<polygon fill="#63b8ff" stroke="#63b8ff" points="56.62,-109.55 67.21,-109.52 58.91,-102.94 56.62,-109.55"/>
</a>
</g>
</g>
<!-- Node8&#45;&gt;Node6 -->
<g id="edge10_Node000008_Node000006" class="edge">
<title>Node8&#45;&gt;Node6</title>
<g id="a_edge10_Node000008_Node000006"><a xlink:title=" ">
<path fill="none" stroke="#63b8ff" d="M169.56,-108.25C231.25,-98.45 320.94,-84.19 378.93,-74.98"/>
<polygon fill="#63b8ff" stroke="#63b8ff" points="169.21,-104.77 159.88,-109.79 170.31,-111.68 169.21,-104.77"/>
</a>
</g>
</g>
<!-- Node9 -->
<g id="Node000009" class="node">
<title>Node9</title>
<g id="a_Node000009"><a xlink:href="SetpointProfileRunner_8cpp.html" target="_top" xlink:title=" ">
<polygon fill="white" stroke="#666666" points="165.3,-74.5 21.05,-74.5 21.05,-55.25 165.3,-55.25 165.3,-74.5"/>
<text text-anchor="middle" x="93.18" y="-61" font-family="Helvetica,sans-Serif" font-size="10.00">src/SetpointProfileRunner.cpp</text>
</a>
</g>
</g>
<!-- Node8&#45;&gt;Node9 -->
<g id="edge8_Node000008_Node000009" class="edge">
<title>Node8&#45;&gt;Node9</title>
<g id="a_edge8_Node000008_Node000009"><a xlink:title=" ">
<path fill="none" stroke="#63b8ff" d="M98.18,-99.17C96.92,-90.8 95.53,-81.5 94.53,-74.86"/>
<polygon fill="#63b8ff" stroke="#63b8ff" points="94.68,-99.47 99.63,-108.84 101.61,-98.43 94.68,-99.47"/>
</a>
</g>
</g>
<!-- Node11&#45;&gt;Node3 -->
<g id="edge14_Node000011_Node000003" class="edge">
<title>Node11&#45;&gt;Node3</title>
<g id="a_edge14_Node000011_Node000003"><a xlink:title=" ">
<path fill="none" stroke="#63b8ff" d="M582.93,-100.04C579.23,-91.46 575.03,-81.73 572.06,-74.86"/>
<polygon fill="#63b8ff" stroke="#63b8ff" points="579.6,-101.15 586.78,-108.94 586.03,-98.37 579.6,-101.15"/>
</a>
</g>
</g>
<!-- Node11&#45;&gt;Node6 -->
<g id="edge18_Node000011_Node000006" class="edge">
<title>Node11&#45;&gt;Node6</title>
<g id="a_edge18_Node000011_Node000006"><a xlink:title=" ">
<path fill="none" stroke="#63b8ff" d="M554.23,-106.43C526.01,-96.74 487.81,-83.61 462.6,-74.95"/>
<polygon fill="#63b8ff" stroke="#63b8ff" points="552.86,-109.66 563.45,-109.6 555.13,-103.04 552.86,-109.66"/>
</a>
</g>
</g>
<!-- Node12 -->
<g id="Node000012" class="node">
<title>Node12</title>
<g id="a_Node000012"><a xlink:href="SingleHumidistat_8cpp.html" target="_top" xlink:title=" ">
<polygon fill="white" stroke="#666666" points="790.68,-74.5 633.68,-74.5 633.68,-55.25 790.68,-55.25 790.68,-74.5"/>
<text text-anchor="middle" x="712.18" y="-61" font-family="Helvetica,sans-Serif" font-size="10.00">src/control/SingleHumidistat.cpp</text>
</a>
</g>
</g>
<!-- Node11&#45;&gt;Node12 -->
<g id="edge15_Node000011_Node000012" class="edge">
<title>Node11&#45;&gt;Node12</title>
<g id="a_edge15_Node000011_Node000012"><a xlink:title=" ">
<path fill="none" stroke="#63b8ff" d="M622.09,-105.52C643.89,-95.93 672.48,-83.34 691.55,-74.95"/>
<polygon fill="#63b8ff" stroke="#63b8ff" points="620.83,-102.25 613.09,-109.48 623.65,-108.66 620.83,-102.25"/>
</a>
</g>
</g>
<!-- Node13 -->
<g id="Node000013" class="node">
<title>Node13</title>
<g id="a_Node000013"><a xlink:href="CharDisplayUI_8h.html" target="_top" xlink:title=" ">
<polygon fill="white" stroke="#666666" points="959.55,-74.5 846.8,-74.5 846.8,-55.25 959.55,-55.25 959.55,-74.5"/>
<text text-anchor="middle" x="903.18" y="-61" font-family="Helvetica,sans-Serif" font-size="10.00">src/ui/CharDisplayUI.h</text>
</a>
</g>
</g>
<!-- Node11&#45;&gt;Node13 -->
<g id="edge16_Node000011_Node000013" class="edge">
<title>Node11&#45;&gt;Node13</title>
<g id="a_edge16_Node000011_Node000013"><a xlink:title=" ">
<path fill="none" stroke="#63b8ff" d="M655.58,-108.13C713.01,-98.33 796.08,-84.15 849.86,-74.98"/>
<polygon fill="#63b8ff" stroke="#63b8ff" points="655.22,-104.64 645.95,-109.78 656.4,-111.54 655.22,-104.64"/>
</a>
</g>
</g>
<!-- Node14 -->
<g id="Node000014" class="node">
<title>Node14</title>
<g id="a_Node000014"><a xlink:href="CharDisplayUI_8cpp.html" target="_top" xlink:title=" ">
<polygon fill="white" stroke="#666666" points="964.8,-19.25 841.55,-19.25 841.55,0 964.8,0 964.8,-19.25"/>
<text text-anchor="middle" x="903.18" y="-5.75" font-family="Helvetica,sans-Serif" font-size="10.00">src/ui/CharDisplayUI.cpp</text>
</a>
</g>
</g>
<!-- Node13&#45;&gt;Node14 -->
<g id="edge17_Node000013_Node000014" class="edge">
<title>Node13&#45;&gt;Node14</title>
<g id="a_edge17_Node000013_Node000014"><a xlink:title=" ">
<path fill="none" stroke="#63b8ff" d="M903.18,-43.63C903.18,-35.34 903.18,-26.17 903.18,-19.61"/>
<polygon fill="#63b8ff" stroke="#63b8ff" points="899.68,-43.57 903.18,-53.57 906.68,-43.57 899.68,-43.57"/>
</a>
</g>
</g>
<!-- Node15&#45;&gt;Node4 -->
<g id="edge22_Node000015_Node000004" class="edge">
<title>Node15&#45;&gt;Node4</title>
<g id="a_edge22_Node000015_Node000004"><a xlink:title=" ">
<path fill="none" stroke="#63b8ff" d="M849.41,-155.13C834.34,-122.22 804.67,-58.34 800.18,-55.25 760.53,-28.02 428.33,-15.23 317.22,-11.68"/>
<polygon fill="#63b8ff" stroke="#63b8ff" points="846.1,-156.31 853.44,-163.96 852.47,-153.41 846.1,-156.31"/>
</a>
</g>
</g>
<!-- Node16 -->
<g id="Node000016" class="node">
<title>Node16</title>
<g id="a_Node000016"><a xlink:href="ButtonReader_8cpp.html" target="_top" xlink:title=" ">
<polygon fill="white" stroke="#666666" points="1101.05,-129.75 967.3,-129.75 967.3,-110.5 1101.05,-110.5 1101.05,-129.75"/>
<text text-anchor="middle" x="1034.18" y="-116.25" font-family="Helvetica,sans-Serif" font-size="10.00">src/input/ButtonReader.cpp</text>
</a>
</g>
</g>
<!-- Node15&#45;&gt;Node16 -->
<g id="edge21_Node000015_Node000016" class="edge">
<title>Node15&#45;&gt;Node16</title>
<g id="a_edge21_Node000015_Node000016"><a xlink:title=" ">
<path fill="none" stroke="#63b8ff" d="M898.86,-162.07C931.02,-152.34 975.17,-138.98 1004.18,-130.2"/>
<polygon fill="#63b8ff" stroke="#63b8ff" points="898.04,-158.66 889.48,-164.9 900.07,-165.36 898.04,-158.66"/>
</a>
</g>
</g>
<!-- Node17 -->
<g id="Node000017" class="node">
<title>Node17</title>
<g id="a_Node000017"><a xlink:href="ControllerUI_8h.html" target="_top" xlink:title=" ">
<polygon fill="white" stroke="#666666" points="949.3,-129.75 847.05,-129.75 847.05,-110.5 949.3,-110.5 949.3,-129.75"/>
<text text-anchor="middle" x="898.18" y="-116.25" font-family="Helvetica,sans-Serif" font-size="10.00">src/ui/ControllerUI.h</text>
</a>
</g>
</g>
<!-- Node15&#45;&gt;Node17 -->
<g id="edge23_Node000015_Node000017" class="edge">
<title>Node15&#45;&gt;Node17</title>
<g id="a_edge23_Node000015_Node000017"><a xlink:title=" ">
<path fill="none" stroke="#63b8ff" d="M871.65,-156.44C878.3,-147.59 886.03,-137.29 891.43,-130.11"/>
<polygon fill="#63b8ff" stroke="#63b8ff" points="868.9,-154.27 865.69,-164.37 874.5,-158.48 868.9,-154.27"/>
</a>
</g>
</g>
<!-- Node17&#45;&gt;Node6 -->
<g id="edge26_Node000017_Node000006" class="edge">
<title>Node17&#45;&gt;Node6</title>
<g id="a_edge26_Node000017_Node000006"><a xlink:title=" ">
<path fill="none" stroke="#63b8ff" d="M835.71,-111.93C748.91,-101.92 592.46,-83.89 503.27,-73.61"/>
<polygon fill="#63b8ff" stroke="#63b8ff" points="835.13,-115.38 845.47,-113.05 835.93,-108.43 835.13,-115.38"/>
</a>
</g>
</g>
<!-- Node17&#45;&gt;Node13 -->
<g id="edge24_Node000017_Node000013" class="edge">
<title>Node17&#45;&gt;Node13</title>
<g id="a_edge24_Node000017_Node000013"><a xlink:title=" ">
<path fill="none" stroke="#63b8ff" d="M900.08,-98.88C900.86,-90.59 901.72,-81.42 902.33,-74.86"/>
<polygon fill="#63b8ff" stroke="#63b8ff" points="896.6,-98.54 899.14,-108.82 903.56,-99.2 896.6,-98.54"/>
</a>
</g>
</g>
<!-- Node18 -->
<g id="Node000018" class="node">
<title>Node18</title>
<g id="a_Node000018"><a xlink:href="ControllerUI_8cpp.html" target="_top" xlink:title=" ">
<polygon fill="white" stroke="#666666" points="1090.55,-74.5 977.8,-74.5 977.8,-55.25 1090.55,-55.25 1090.55,-74.5"/>
<text text-anchor="middle" x="1034.18" y="-61" font-family="Helvetica,sans-Serif" font-size="10.00">src/ui/ControllerUI.cpp</text>
</a>
</g>
</g>
<!-- Node17&#45;&gt;Node18 -->
<g id="edge25_Node000017_Node000018" class="edge">
<title>Node17&#45;&gt;Node18</title>
<g id="a_edge25_Node000017_Node000018"><a xlink:title=" ">
<path fill="none" stroke="#63b8ff" d="M931.92,-105.91C956.54,-96.27 989.27,-83.46 1010.99,-74.95"/>
<polygon fill="#63b8ff" stroke="#63b8ff" points="930.69,-102.63 922.66,-109.54 933.25,-109.15 930.69,-102.63"/>
</a>
</g>
</g>
</g>
</svg>
