<?xml version="1.0" encoding="UTF-8" standalone="no"?>
<!DOCTYPE svg PUBLIC "-//W3C//DTD SVG 1.1//EN"
 "http://www.w3.org/Graphics/SVG/1.1/DTD/svg11.dtd">
<!-- Generated by graphviz version 12.0.0 (20240704.0754)
 -->
<!-- Title: asprintf Pages: 1 -->
<svg width="618pt" height="249pt"
 viewBox="0.00 0.00 617.50 249.16" xmlns="http://www.w3.org/2000/svg" xmlns:xlink="http://www.w3.org/1999/xlink">
<g id="graph0" class="graph" transform="scale(1 1) rotate(0) translate(4 245.16)">
<title>asprintf</title>
<!-- Node1 -->
<g id="Node000001" class="node">
<title>Node1</title>
<g id="a_Node000001"><a xlink:title="Print formatted data to string. Automatically allocates string on the heap. Make sure to delete it im...">
<polygon fill="#999999" stroke="#666666" points="609.5,-184.16 561.25,-184.16 561.25,-164.91 609.5,-164.91 609.5,-184.16"/>
<text text-anchor="middle" x="585.38" y="-170.66" font-family="Helvetica,sans-Serif" font-size="10.00">asprintf</text>
</a>
</g>
</g>
<!-- Node2 -->
<g id="Node000002" class="node">
<title>Node2</title>
<g id="a_Node000002"><a xlink:href="classConfigPar.html#a0bece1a8613c7c8ba8d87e28acf2cb34" target="_top" xlink:title="Print &quot;label: value&quot; to string. Automatically allocates string on the heap. Make sure to delete it im...">
<polygon fill="white" stroke="#666666" points="524.12,-241.16 432.38,-241.16 432.38,-221.91 524.12,-221.91 524.12,-241.16"/>
<text text-anchor="middle" x="478.25" y="-227.66" font-family="Helvetica,sans-Serif" font-size="10.00">ConfigPar::asprint</text>
</a>
</g>
</g>
<!-- Node1&#45;&gt;Node2 -->
<g id="edge1_Node000001_Node000002" class="edge">
<title>Node1&#45;&gt;Node2</title>
<g id="a_edge1_Node000001_Node000002"><a xlink:title=" ">
<path fill="none" stroke="#63b8ff" d="M556.85,-190.11C546.92,-195.67 535.61,-201.94 525.25,-207.54 516.53,-212.24 506.81,-217.34 498.56,-221.61"/>
<polygon fill="#63b8ff" stroke="#63b8ff" points="558.27,-193.32 565.28,-185.37 554.84,-187.22 558.27,-193.32"/>
</a>
</g>
</g>
<!-- Node5 -->
<g id="Node000005" class="node">
<title>Node5</title>
<g id="a_Node000005"><a xlink:href="classCharDisplayUI.html#aef739ad8856b975fdd25ffdf9fa86601" target="_top" xlink:title="Draw main interface (main loop).">
<polygon fill="white" stroke="#666666" points="239,-165.16 135.25,-165.16 135.25,-145.91 239,-145.91 239,-165.16"/>
<text text-anchor="middle" x="187.12" y="-151.66" font-family="Helvetica,sans-Serif" font-size="10.00">CharDisplayUI::draw</text>
</a>
</g>
</g>
<!-- Node1&#45;&gt;Node5 -->
<g id="edge4_Node000001_Node000005" class="edge">
<title>Node1&#45;&gt;Node5</title>
<g id="a_edge4_Node000001_Node000005"><a xlink:title=" ">
<path fill="none" stroke="#63b8ff" d="M549.26,-175.31C518.21,-175.81 471.7,-176.11 431.25,-174.54 364.83,-171.94 288.44,-165.39 239.28,-160.7"/>
<polygon fill="#63b8ff" stroke="#63b8ff" points="549.31,-178.81 559.24,-175.13 549.18,-171.81 549.31,-178.81"/>
</a>
</g>
</g>
<!-- Node6 -->
<g id="Node000006" class="node">
<title>Node6</title>
<g id="a_Node000006"><a xlink:href="classSerialLogger.html#a19892d82447f8504faf4ddace7a56877" target="_top" xlink:title=" ">
<polygon fill="white" stroke="#666666" points="522.25,-165.16 434.25,-165.16 434.25,-145.91 522.25,-145.91 522.25,-165.16"/>
<text text-anchor="middle" x="478.25" y="-151.66" font-family="Helvetica,sans-Serif" font-size="10.00">SerialLogger::log</text>
</a>
</g>
</g>
<!-- Node1&#45;&gt;Node6 -->
<g id="edge5_Node000001_Node000006" class="edge">
<title>Node1&#45;&gt;Node6</title>
<g id="a_edge5_Node000001_Node000006"><a xlink:title=" ">
<path fill="none" stroke="#63b8ff" d="M549.57,-168.25C540.95,-166.69 531.6,-165 522.63,-163.38"/>
<polygon fill="#63b8ff" stroke="#63b8ff" points="548.83,-171.67 559.29,-170 550.08,-164.78 548.83,-171.67"/>
</a>
</g>
</g>
<!-- Node7 -->
<g id="Node000007" class="node">
<title>Node7</title>
<g id="a_Node000007"><a xlink:href="classControllerUI.html#aa14a64631f7993d6e22ac9e6f5bf4b44" target="_top" xlink:title="Print formatted data to display, at (col, row). Calculates lengths and creates appropriate buffer int...">
<polygon fill="white" stroke="#666666" points="525.25,-106.16 431.25,-106.16 431.25,-86.91 525.25,-86.91 525.25,-106.16"/>
<text text-anchor="middle" x="478.25" y="-92.66" font-family="Helvetica,sans-Serif" font-size="10.00">ControllerUI::printf</text>
</a>
</g>
</g>
<!-- Node1&#45;&gt;Node7 -->
<g id="edge6_Node000001_Node000007" class="edge">
<title>Node1&#45;&gt;Node7</title>
<g id="a_edge6_Node000001_Node000007"><a xlink:title=" ">
<path fill="none" stroke="#63b8ff" d="M561.9,-157.86C540.91,-142.29 510.26,-119.55 492.79,-106.58"/>
<polygon fill="#63b8ff" stroke="#63b8ff" points="559.73,-160.61 569.85,-163.75 563.9,-154.99 559.73,-160.61"/>
</a>
</g>
</g>
<!-- Node3 -->
<g id="Node000003" class="node">
<title>Node3</title>
<g id="a_Node000003"><a xlink:href="classGraphicalDisplayUI.html#aa1797798b407f534ccaddf6304ce1a7d" target="_top" xlink:title="Draw the Config tab.">
<polygon fill="white" stroke="#666666" points="236.75,-229.79 137.5,-229.79 137.5,-199.29 236.75,-199.29 236.75,-229.79"/>
<text text-anchor="start" x="145.5" y="-216.29" font-family="Helvetica,sans-Serif" font-size="10.00">GraphicalDisplayUI</text>
<text text-anchor="middle" x="187.12" y="-205.04" font-family="Helvetica,sans-Serif" font-size="10.00">::drawConfig</text>
</a>
</g>
</g>
<!-- Node2&#45;&gt;Node3 -->
<g id="edge2_Node000002_Node000003" class="edge">
<title>Node2&#45;&gt;Node3</title>
<g id="a_edge2_Node000002_Node000003"><a xlink:title=" ">
<path fill="none" stroke="#63b8ff" d="M420.73,-228.21C367.2,-225.06 287.65,-220.39 236.84,-217.4"/>
<polygon fill="#63b8ff" stroke="#63b8ff" points="420.38,-231.7 430.56,-228.79 420.79,-224.71 420.38,-231.7"/>
</a>
</g>
</g>
<!-- Node4 -->
<g id="Node000004" class="node">
<title>Node4</title>
<g id="a_Node000004"><a xlink:href="classGraphicalDisplayUI.html#aa73a9c30736b609bcef2b75c7aed1970" target="_top" xlink:title="Draw main interface (main loop).">
<polygon fill="white" stroke="#666666" points="99.25,-129.79 0,-129.79 0,-99.29 99.25,-99.29 99.25,-129.79"/>
<text text-anchor="start" x="8" y="-116.29" font-family="Helvetica,sans-Serif" font-size="10.00">GraphicalDisplayUI</text>
<text text-anchor="middle" x="49.62" y="-105.04" font-family="Helvetica,sans-Serif" font-size="10.00">::draw</text>
</a>
</g>
</g>
<!-- Node3&#45;&gt;Node4 -->
<g id="edge3_Node000003_Node000004" class="edge">
<title>Node3&#45;&gt;Node4</title>
<g id="a_edge3_Node000003_Node000004"><a xlink:title=" ">
<path fill="none" stroke="#63b8ff" d="M155.7,-192.08C130.1,-173.19 94.16,-146.67 71.65,-130.05"/>
<polygon fill="#63b8ff" stroke="#63b8ff" points="153.61,-194.89 163.74,-198.01 157.77,-189.26 153.61,-194.89"/>
</a>
</g>
</g>
<!-- Node7&#45;&gt;Node5 -->
<g id="edge7_Node000007_Node000005" class="edge">
<title>Node7&#45;&gt;Node5</title>
<g id="a_edge7_Node000007_Node000005"><a xlink:title=" ">
<path fill="none" stroke="#63b8ff" d="M451.33,-112.2C435.66,-120.89 414.96,-131.03 395.25,-136.54 343.43,-151.02 281.77,-155.08 239.27,-155.95"/>
<polygon fill="#63b8ff" stroke="#63b8ff" points="453.05,-115.25 459.99,-107.24 449.57,-109.17 453.05,-115.25"/>
</a>
</g>
</g>
<!-- Node8 -->
<g id="Node000008" class="node">
<title>Node8</title>
<g id="a_Node000008"><a xlink:href="classCharDisplayUI.html#ae63b61a0868ed1e42d48567a0621a13a" target="_top" xlink:title="Draw info screen.">
<polygon fill="white" stroke="#666666" points="395.25,-127.16 275,-127.16 275,-107.91 395.25,-107.91 395.25,-127.16"/>
<text text-anchor="middle" x="335.12" y="-113.66" font-family="Helvetica,sans-Serif" font-size="10.00">CharDisplayUI::drawInfo</text>
</a>
</g>
</g>
<!-- Node7&#45;&gt;Node8 -->
<g id="edge8_Node000007_Node000008" class="edge">
<title>Node7&#45;&gt;Node8</title>
<g id="a_edge8_Node000007_Node000008"><a xlink:title=" ">
<path fill="none" stroke="#63b8ff" d="M419.9,-105.07C411.88,-106.26 403.62,-107.49 395.56,-108.69"/>
<polygon fill="#63b8ff" stroke="#63b8ff" points="420.17,-108.57 429.54,-103.63 419.14,-101.64 420.17,-108.57"/>
</a>
</g>
</g>
<!-- Node9 -->
<g id="Node000009" class="node">
<title>Node9</title>
<g id="a_Node000009"><a xlink:href="classGraphicalDisplayUI.html#af69808890fcfb2bd088ac73aa6f7563c" target="_top" xlink:title="Draw common elements in Main tab.">
<polygon fill="white" stroke="#666666" points="386.62,-89.79 283.62,-89.79 283.62,-59.29 386.62,-59.29 386.62,-89.79"/>
<text text-anchor="start" x="291.62" y="-76.29" font-family="Helvetica,sans-Serif" font-size="10.00">GraphicalDisplayUI</text>
<text text-anchor="middle" x="335.12" y="-65.04" font-family="Helvetica,sans-Serif" font-size="10.00">::DrawMainCommon</text>
</a>
</g>
</g>
<!-- Node7&#45;&gt;Node9 -->
<g id="edge9_Node000007_Node000009" class="edge">
<title>Node7&#45;&gt;Node9</title>
<g id="a_edge9_Node000007_Node000009"><a xlink:title=" ">
<path fill="none" stroke="#63b8ff" d="M419.85,-87.59C408.91,-85.88 397.54,-84.11 386.83,-82.44"/>
<polygon fill="#63b8ff" stroke="#63b8ff" points="419.13,-91.02 429.54,-89.1 420.2,-84.1 419.13,-91.02"/>
</a>
</g>
</g>
<!-- Node10 -->
<g id="Node000010" class="node">
<title>Node10</title>
<g id="a_Node000010"><a xlink:href="classGraphicalDisplayUI.html#a41ae47f8e4d0bd909b6d2be9765cdbc4" target="_top" xlink:title=" ">
<polygon fill="white" stroke="#666666" points="236.75,-46.79 137.5,-46.79 137.5,-16.29 236.75,-16.29 236.75,-46.79"/>
<text text-anchor="start" x="145.5" y="-33.29" font-family="Helvetica,sans-Serif" font-size="10.00">GraphicalDisplayUI</text>
<text text-anchor="middle" x="187.12" y="-22.04" font-family="Helvetica,sans-Serif" font-size="10.00">::drawTabInfo</text>
</a>
</g>
</g>
<!-- Node7&#45;&gt;Node10 -->
<g id="edge10_Node000007_Node000010" class="edge">
<title>Node7&#45;&gt;Node10</title>
<g id="a_edge10_Node000007_Node000010"><a xlink:title=" ">
<path fill="none" stroke="#63b8ff" d="M465.11,-76.95C451.15,-56.47 426.12,-25.54 395.25,-12.54 342.34,9.76 275.25,-2.97 232.01,-15.82"/>
<polygon fill="#63b8ff" stroke="#63b8ff" points="462.16,-78.82 470.55,-85.28 468.02,-75 462.16,-78.82"/>
</a>
</g>
</g>
<!-- Node11 -->
<g id="Node000011" class="node">
<title>Node11</title>
<g id="a_Node000011"><a xlink:href="classControllerUI.html#abfabf4c49c12dcb8ee5e8b5a899cc920" target="_top" xlink:title="Print temperature read from thermistors. Handles NaN values as 0.">
<polygon fill="white" stroke="#666666" points="390.75,-41.16 279.5,-41.16 279.5,-21.91 390.75,-21.91 390.75,-41.16"/>
<text text-anchor="middle" x="335.12" y="-27.66" font-family="Helvetica,sans-Serif" font-size="10.00">ControllerUI::printNTC</text>
</a>
</g>
</g>
<!-- Node7&#45;&gt;Node11 -->
<g id="edge12_Node000007_Node000011" class="edge">
<title>Node7&#45;&gt;Node11</title>
<g id="a_edge12_Node000007_Node000011"><a xlink:title=" ">
<path fill="none" stroke="#63b8ff" d="M452.1,-80.69C436.21,-71.12 415.01,-59.15 395.25,-50.54 387.74,-47.26 379.48,-44.26 371.57,-41.65"/>
<polygon fill="#63b8ff" stroke="#63b8ff" points="450.06,-83.54 460.42,-85.78 453.72,-77.57 450.06,-83.54"/>
</a>
</g>
</g>
<!-- Node10&#45;&gt;Node4 -->
<g id="edge11_Node000010_Node000004" class="edge">
<title>Node10&#45;&gt;Node4</title>
<g id="a_edge11_Node000010_Node000004"><a xlink:title=" ">
<path fill="none" stroke="#63b8ff" d="M151.04,-53.03C127.54,-67.42 97.16,-86.03 76,-98.99"/>
<polygon fill="#63b8ff" stroke="#63b8ff" points="152.65,-56.15 159.35,-47.94 148.99,-50.18 152.65,-56.15"/>
</a>
</g>
</g>
<!-- Node11&#45;&gt;Node5 -->
<g id="edge13_Node000011_Node000005" class="edge">
<title>Node11&#45;&gt;Node5</title>
<g id="a_edge13_Node000011_Node000005"><a xlink:title=" ">
<path fill="none" stroke="#63b8ff" d="M282,-46.35C279.57,-47.64 277.22,-49.03 275,-50.54 236.41,-76.67 205.77,-124.76 193.69,-145.54"/>
<polygon fill="#63b8ff" stroke="#63b8ff" points="283.31,-49.6 290.95,-42.27 280.4,-43.23 283.31,-49.6"/>
</a>
</g>
</g>
<!-- Node11&#45;&gt;Node10 -->
<g id="edge14_Node000011_Node000010" class="edge">
<title>Node11&#45;&gt;Node10</title>
<g id="a_edge14_Node000011_Node000010"><a xlink:title=" ">
<path fill="none" stroke="#63b8ff" d="M268.1,-31.54C257.62,-31.54 246.95,-31.54 236.97,-31.54"/>
<polygon fill="#63b8ff" stroke="#63b8ff" points="267.83,-35.04 277.83,-31.54 267.83,-28.04 267.83,-35.04"/>
</a>
</g>
</g>
</g>
</svg>
