<?xml version="1.0" encoding="UTF-8" standalone="no"?>
<!DOCTYPE svg PUBLIC "-//W3C//DTD SVG 1.1//EN"
 "http://www.w3.org/Graphics/SVG/1.1/DTD/svg11.dtd">
<!-- Generated by graphviz version 12.0.0 (20240704.0754)
 -->
<!-- Title: src/asprintf.h Pages: 1 -->
<svg width="118pt" height="83pt"
 viewBox="0.00 0.00 117.62 82.50" xmlns="http://www.w3.org/2000/svg" xmlns:xlink="http://www.w3.org/1999/xlink">
<g id="graph0" class="graph" transform="scale(1 1) rotate(0) translate(4 78.5)">
<title>src/asprintf.h</title>
<!-- Node1 -->
<g id="Node000001" class="node">
<title>Node1</title>
<g id="a_Node000001"><a xlink:title=" ">
<polygon fill="#999999" stroke="#666666" points="91.5,-74.5 19.25,-74.5 19.25,-55.25 91.5,-55.25 91.5,-74.5"/>
<text text-anchor="middle" x="55.38" y="-61" font-family="Helvetica,sans-Serif" font-size="10.00">src/asprintf.h</text>
</a>
</g>
</g>
<!-- Node2 -->
<g id="Node000002" class="node">
<title>Node2</title>
<g id="a_Node000002"><a xlink:title=" ">
<polygon fill="#e0e0e0" stroke="#999999" points="46.75,-19.25 0,-19.25 0,0 46.75,0 46.75,-19.25"/>
<text text-anchor="middle" x="23.38" y="-5.75" font-family="Helvetica,sans-Serif" font-size="10.00">stdlib.h</text>
</a>
</g>
</g>
<!-- Node1&#45;&gt;Node2 -->
<g id="edge1_Node000001_Node000002" class="edge">
<title>Node1&#45;&gt;Node2</title>
<g id="a_edge1_Node000001_Node000002"><a xlink:title=" ">
<path fill="none" stroke="#63b8ff" d="M50.09,-55.08C45.9,-48.11 39.9,-38.12 34.64,-29.37"/>
<polygon fill="#63b8ff" stroke="#63b8ff" points="37.7,-27.68 29.55,-20.91 31.7,-31.28 37.7,-27.68"/>
</a>
</g>
</g>
<!-- Node3 -->
<g id="Node000003" class="node">
<title>Node3</title>
<g id="a_Node000003"><a xlink:title=" ">
<polygon fill="#e0e0e0" stroke="#999999" points="109.62,-19.25 65.12,-19.25 65.12,0 109.62,0 109.62,-19.25"/>
<text text-anchor="middle" x="87.38" y="-5.75" font-family="Helvetica,sans-Serif" font-size="10.00">stdio.h</text>
</a>
</g>
</g>
<!-- Node1&#45;&gt;Node3 -->
<g id="edge2_Node000001_Node000003" class="edge">
<title>Node1&#45;&gt;Node3</title>
<g id="a_edge2_Node000001_Node000003"><a xlink:title=" ">
<path fill="none" stroke="#63b8ff" d="M60.66,-55.08C64.85,-48.11 70.85,-38.12 76.11,-29.37"/>
<polygon fill="#63b8ff" stroke="#63b8ff" points="79.05,-31.28 81.2,-20.91 73.05,-27.68 79.05,-31.28"/>
</a>
</g>
</g>
</g>
</svg>
