<?xml version="1.0" encoding="UTF-8" standalone="no"?>
<!DOCTYPE svg PUBLIC "-//W3C//DTD SVG 1.1//EN"
 "http://www.w3.org/Graphics/SVG/1.1/DTD/svg11.dtd">
<!-- Generated by graphviz version 12.0.0 (20240704.0754)
 -->
<!-- Title: src/asprintf.h Pages: 1 -->
<svg width="503pt" height="193pt"
 viewBox="0.00 0.00 503.25 193.00" xmlns="http://www.w3.org/2000/svg" xmlns:xlink="http://www.w3.org/1999/xlink">
<g id="graph0" class="graph" transform="scale(1 1) rotate(0) translate(4 189)">
<title>src/asprintf.h</title>
<!-- Node1 -->
<g id="Node000001" class="node">
<title>Node1</title>
<g id="a_Node000001"><a xlink:title=" ">
<polygon fill="#999999" stroke="#666666" points="201.5,-185 129.25,-185 129.25,-165.75 201.5,-165.75 201.5,-185"/>
<text text-anchor="middle" x="165.38" y="-171.5" font-family="Helvetica,sans-Serif" font-size="10.00">src/asprintf.h</text>
</a>
</g>
</g>
<!-- Node2 -->
<g id="Node000002" class="node">
<title>Node2</title>
<g id="a_Node000002"><a xlink:href="SerialLogger_8h.html" target="_top" xlink:title=" ">
<polygon fill="white" stroke="#666666" points="94.75,-129.75 0,-129.75 0,-110.5 94.75,-110.5 94.75,-129.75"/>
<text text-anchor="middle" x="47.38" y="-116.25" font-family="Helvetica,sans-Serif" font-size="10.00">src/SerialLogger.h</text>
</a>
</g>
</g>
<!-- Node1&#45;&gt;Node2 -->
<g id="edge1_Node000001_Node000002" class="edge">
<title>Node1&#45;&gt;Node2</title>
<g id="a_edge1_Node000001_Node000002"><a xlink:title=" ">
<path fill="none" stroke="#63b8ff" d="M134.94,-160.64C113.72,-151.06 86,-138.56 67.49,-130.2"/>
<polygon fill="#63b8ff" stroke="#63b8ff" points="133.42,-163.8 143.98,-164.72 136.3,-157.42 133.42,-163.8"/>
</a>
</g>
</g>
<!-- Node4 -->
<g id="Node000004" class="node">
<title>Node4</title>
<g id="a_Node000004"><a xlink:href="ConfigPar_8cpp.html" target="_top" xlink:title=" ">
<polygon fill="white" stroke="#666666" points="216.88,-129.75 113.88,-129.75 113.88,-110.5 216.88,-110.5 216.88,-129.75"/>
<text text-anchor="middle" x="165.38" y="-116.25" font-family="Helvetica,sans-Serif" font-size="10.00">src/ui/ConfigPar.cpp</text>
</a>
</g>
</g>
<!-- Node1&#45;&gt;Node4 -->
<g id="edge3_Node000001_Node000004" class="edge">
<title>Node1&#45;&gt;Node4</title>
<g id="a_edge3_Node000001_Node000004"><a xlink:title=" ">
<path fill="none" stroke="#63b8ff" d="M165.38,-154.13C165.38,-145.84 165.38,-136.67 165.38,-130.11"/>
<polygon fill="#63b8ff" stroke="#63b8ff" points="161.88,-154.07 165.38,-164.07 168.88,-154.07 161.88,-154.07"/>
</a>
</g>
</g>
<!-- Node5 -->
<g id="Node000005" class="node">
<title>Node5</title>
<g id="a_Node000005"><a xlink:href="ControllerUI_8h.html" target="_top" xlink:title=" ">
<polygon fill="white" stroke="#666666" points="337.5,-129.75 235.25,-129.75 235.25,-110.5 337.5,-110.5 337.5,-129.75"/>
<text text-anchor="middle" x="286.38" y="-116.25" font-family="Helvetica,sans-Serif" font-size="10.00">src/ui/ControllerUI.h</text>
</a>
</g>
</g>
<!-- Node1&#45;&gt;Node5 -->
<g id="edge4_Node000001_Node000005" class="edge">
<title>Node1&#45;&gt;Node5</title>
<g id="a_edge4_Node000001_Node000005"><a xlink:title=" ">
<path fill="none" stroke="#63b8ff" d="M196.29,-160.77C218.09,-151.18 246.68,-138.59 265.75,-130.2"/>
<polygon fill="#63b8ff" stroke="#63b8ff" points="195.03,-157.5 187.29,-164.73 197.85,-163.91 195.03,-157.5"/>
</a>
</g>
</g>
<!-- Node3 -->
<g id="Node000003" class="node">
<title>Node3</title>
<g id="a_Node000003"><a xlink:href="main_8cpp.html" target="_top" xlink:title=" ">
<polygon fill="white" stroke="#666666" points="82.12,-74.5 10.62,-74.5 10.62,-55.25 82.12,-55.25 82.12,-74.5"/>
<text text-anchor="middle" x="46.38" y="-61" font-family="Helvetica,sans-Serif" font-size="10.00">src/main.cpp</text>
</a>
</g>
</g>
<!-- Node2&#45;&gt;Node3 -->
<g id="edge2_Node000002_Node000003" class="edge">
<title>Node2&#45;&gt;Node3</title>
<g id="a_edge2_Node000002_Node000003"><a xlink:title=" ">
<path fill="none" stroke="#63b8ff" d="M46.99,-98.88C46.84,-90.59 46.67,-81.42 46.54,-74.86"/>
<polygon fill="#63b8ff" stroke="#63b8ff" points="43.49,-98.89 47.18,-108.82 50.49,-98.75 43.49,-98.89"/>
</a>
</g>
</g>
<!-- Node6 -->
<g id="Node000006" class="node">
<title>Node6</title>
<g id="a_Node000006"><a xlink:href="CharDisplayUI_8h.html" target="_top" xlink:title=" ">
<polygon fill="white" stroke="#666666" points="212.75,-74.5 100,-74.5 100,-55.25 212.75,-55.25 212.75,-74.5"/>
<text text-anchor="middle" x="156.38" y="-61" font-family="Helvetica,sans-Serif" font-size="10.00">src/ui/CharDisplayUI.h</text>
</a>
</g>
</g>
<!-- Node5&#45;&gt;Node6 -->
<g id="edge5_Node000005_Node000006" class="edge">
<title>Node5&#45;&gt;Node6</title>
<g id="a_edge5_Node000005_Node000006"><a xlink:title=" ">
<path fill="none" stroke="#63b8ff" d="M253.8,-105.78C230.31,-96.16 199.21,-83.42 178.54,-74.95"/>
<polygon fill="#63b8ff" stroke="#63b8ff" points="252.34,-108.97 262.92,-109.52 254.99,-102.49 252.34,-108.97"/>
</a>
</g>
</g>
<!-- Node8 -->
<g id="Node000008" class="node">
<title>Node8</title>
<g id="a_Node000008"><a xlink:href="ControllerUI_8cpp.html" target="_top" xlink:title=" ">
<polygon fill="white" stroke="#666666" points="343.75,-74.5 231,-74.5 231,-55.25 343.75,-55.25 343.75,-74.5"/>
<text text-anchor="middle" x="287.38" y="-61" font-family="Helvetica,sans-Serif" font-size="10.00">src/ui/ControllerUI.cpp</text>
</a>
</g>
</g>
<!-- Node5&#45;&gt;Node8 -->
<g id="edge7_Node000005_Node000008" class="edge">
<title>Node5&#45;&gt;Node8</title>
<g id="a_edge7_Node000005_Node000008"><a xlink:title=" ">
<path fill="none" stroke="#63b8ff" d="M286.76,-98.88C286.91,-90.59 287.08,-81.42 287.21,-74.86"/>
<polygon fill="#63b8ff" stroke="#63b8ff" points="283.26,-98.75 286.57,-108.82 290.26,-98.89 283.26,-98.75"/>
</a>
</g>
</g>
<!-- Node9 -->
<g id="Node000009" class="node">
<title>Node9</title>
<g id="a_Node000009"><a xlink:href="GraphicalDisplayUI_8h.html" target="_top" xlink:title=" ">
<polygon fill="white" stroke="#666666" points="495.25,-74.5 361.5,-74.5 361.5,-55.25 495.25,-55.25 495.25,-74.5"/>
<text text-anchor="middle" x="428.38" y="-61" font-family="Helvetica,sans-Serif" font-size="10.00">src/ui/GraphicalDisplayUI.h</text>
</a>
</g>
</g>
<!-- Node5&#45;&gt;Node9 -->
<g id="edge8_Node000005_Node000009" class="edge">
<title>Node5&#45;&gt;Node9</title>
<g id="a_edge8_Node000005_Node000009"><a xlink:title=" ">
<path fill="none" stroke="#63b8ff" d="M320.91,-106.17C346.7,-96.5 381.28,-83.54 404.17,-74.95"/>
<polygon fill="#63b8ff" stroke="#63b8ff" points="320.01,-102.77 311.88,-109.56 322.47,-109.33 320.01,-102.77"/>
</a>
</g>
</g>
<!-- Node7 -->
<g id="Node000007" class="node">
<title>Node7</title>
<g id="a_Node000007"><a xlink:href="CharDisplayUI_8cpp.html" target="_top" xlink:title=" ">
<polygon fill="white" stroke="#666666" points="218,-19.25 94.75,-19.25 94.75,0 218,0 218,-19.25"/>
<text text-anchor="middle" x="156.38" y="-5.75" font-family="Helvetica,sans-Serif" font-size="10.00">src/ui/CharDisplayUI.cpp</text>
</a>
</g>
</g>
<!-- Node6&#45;&gt;Node7 -->
<g id="edge6_Node000006_Node000007" class="edge">
<title>Node6&#45;&gt;Node7</title>
<g id="a_edge6_Node000006_Node000007"><a xlink:title=" ">
<path fill="none" stroke="#63b8ff" d="M156.38,-43.63C156.38,-35.34 156.38,-26.17 156.38,-19.61"/>
<polygon fill="#63b8ff" stroke="#63b8ff" points="152.88,-43.57 156.38,-53.57 159.88,-43.57 152.88,-43.57"/>
</a>
</g>
</g>
</g>
</svg>
