<?xml version="1.0" encoding="UTF-8" standalone="no"?>
<!DOCTYPE svg PUBLIC "-//W3C//DTD SVG 1.1//EN"
 "http://www.w3.org/Graphics/SVG/1.1/DTD/svg11.dtd">
<!-- Generated by graphviz version 12.0.0 (20240704.0754)
 -->
<!-- Title: src/input/ButtonReader.cpp Pages: 1 -->
<svg width="227pt" height="138pt"
 viewBox="0.00 0.00 226.88 137.75" xmlns="http://www.w3.org/2000/svg" xmlns:xlink="http://www.w3.org/1999/xlink">
<g id="graph0" class="graph" transform="scale(1 1) rotate(0) translate(4 133.75)">
<title>src/input/ButtonReader.cpp</title>
<!-- Node1 -->
<g id="Node000001" class="node">
<title>Node1</title>
<g id="a_Node000001"><a xlink:title=" ">
<polygon fill="#999999" stroke="#666666" points="139.12,-129.75 5.38,-129.75 5.38,-110.5 139.12,-110.5 139.12,-129.75"/>
<text text-anchor="middle" x="72.25" y="-116.25" font-family="Helvetica,sans-Serif" font-size="10.00">src/input/ButtonReader.cpp</text>
</a>
</g>
</g>
<!-- Node2 -->
<g id="Node000002" class="node">
<title>Node2</title>
<g id="a_Node000002"><a xlink:title=" ">
<polygon fill="#e0e0e0" stroke="#999999" points="56.5,-74.5 0,-74.5 0,-55.25 56.5,-55.25 56.5,-74.5"/>
<text text-anchor="middle" x="28.25" y="-61" font-family="Helvetica,sans-Serif" font-size="10.00">Arduino.h</text>
</a>
</g>
</g>
<!-- Node1&#45;&gt;Node2 -->
<g id="edge1_Node000001_Node000002" class="edge">
<title>Node1&#45;&gt;Node2</title>
<g id="a_edge1_Node000001_Node000002"><a xlink:title=" ">
<path fill="none" stroke="#63b8ff" d="M64.98,-110.33C58.97,-103.05 50.24,-92.48 42.79,-83.48"/>
<polygon fill="#63b8ff" stroke="#63b8ff" points="45.71,-81.51 36.64,-76.03 40.31,-85.96 45.71,-81.51"/>
</a>
</g>
</g>
<!-- Node3 -->
<g id="Node000003" class="node">
<title>Node3</title>
<g id="a_Node000003"><a xlink:href="ButtonReader_8h.html" target="_top" xlink:title=" ">
<polygon fill="white" stroke="#666666" points="157.62,-74.5 74.88,-74.5 74.88,-55.25 157.62,-55.25 157.62,-74.5"/>
<text text-anchor="middle" x="116.25" y="-61" font-family="Helvetica,sans-Serif" font-size="10.00">ButtonReader.h</text>
</a>
</g>
</g>
<!-- Node1&#45;&gt;Node3 -->
<g id="edge2_Node000001_Node000003" class="edge">
<title>Node1&#45;&gt;Node3</title>
<g id="a_edge2_Node000001_Node000003"><a xlink:title=" ">
<path fill="none" stroke="#63b8ff" d="M79.52,-110.33C85.53,-103.05 94.26,-92.48 101.71,-83.48"/>
<polygon fill="#63b8ff" stroke="#63b8ff" points="104.19,-85.96 107.86,-76.03 98.79,-81.51 104.19,-85.96"/>
</a>
</g>
</g>
<!-- Node4 -->
<g id="Node000004" class="node">
<title>Node4</title>
<g id="a_Node000004"><a xlink:title=" ">
<polygon fill="#e0e0e0" stroke="#999999" points="71,-19.25 23.5,-19.25 23.5,0 71,0 71,-19.25"/>
<text text-anchor="middle" x="47.25" y="-5.75" font-family="Helvetica,sans-Serif" font-size="10.00">stdint.h</text>
</a>
</g>
</g>
<!-- Node3&#45;&gt;Node4 -->
<g id="edge3_Node000003_Node000004" class="edge">
<title>Node3&#45;&gt;Node4</title>
<g id="a_edge3_Node000003_Node000004"><a xlink:title=" ">
<path fill="none" stroke="#63b8ff" d="M104.55,-54.84C94.47,-47.07 79.71,-35.67 67.69,-26.4"/>
<polygon fill="#63b8ff" stroke="#63b8ff" points="70.04,-23.79 59.98,-20.45 65.76,-29.33 70.04,-23.79"/>
</a>
</g>
</g>
<!-- Node5 -->
<g id="Node000005" class="node">
<title>Node5</title>
<g id="a_Node000005"><a xlink:href="aliases_8h.html" target="_top" xlink:title=" ">
<polygon fill="white" stroke="#666666" points="143.38,-19.25 89.12,-19.25 89.12,0 143.38,0 143.38,-19.25"/>
<text text-anchor="middle" x="116.25" y="-5.75" font-family="Helvetica,sans-Serif" font-size="10.00">aliases.h</text>
</a>
</g>
</g>
<!-- Node3&#45;&gt;Node5 -->
<g id="edge4_Node000003_Node000005" class="edge">
<title>Node3&#45;&gt;Node5</title>
<g id="a_edge4_Node000003_Node000005"><a xlink:title=" ">
<path fill="none" stroke="#63b8ff" d="M116.25,-55.08C116.25,-48.57 116.25,-39.42 116.25,-31.12"/>
<polygon fill="#63b8ff" stroke="#63b8ff" points="119.75,-31.12 116.25,-21.12 112.75,-31.12 119.75,-31.12"/>
</a>
</g>
</g>
<!-- Node6 -->
<g id="Node000006" class="node">
<title>Node6</title>
<g id="a_Node000006"><a xlink:href="Buttons_8h.html" target="_top" xlink:title=" ">
<polygon fill="white" stroke="#666666" points="218.88,-19.25 161.62,-19.25 161.62,0 218.88,0 218.88,-19.25"/>
<text text-anchor="middle" x="190.25" y="-5.75" font-family="Helvetica,sans-Serif" font-size="10.00">Buttons.h</text>
</a>
</g>
</g>
<!-- Node3&#45;&gt;Node6 -->
<g id="edge5_Node000003_Node000006" class="edge">
<title>Node3&#45;&gt;Node6</title>
<g id="a_edge5_Node000003_Node000006"><a xlink:title=" ">
<path fill="none" stroke="#63b8ff" d="M128.8,-54.84C139.71,-46.99 155.75,-35.45 168.71,-26.12"/>
<polygon fill="#63b8ff" stroke="#63b8ff" points="170.58,-29.09 176.65,-20.41 166.49,-23.41 170.58,-29.09"/>
</a>
</g>
</g>
</g>
</svg>
