<?xml version="1.0" encoding="UTF-8" standalone="no"?>
<!DOCTYPE svg PUBLIC "-//W3C//DTD SVG 1.1//EN"
 "http://www.w3.org/Graphics/SVG/1.1/DTD/svg11.dtd">
<!-- Generated by graphviz version 12.0.0 (20240704.0754)
 -->
<!-- Title: src/input/Buttons.h Pages: 1 -->
<svg width="698pt" height="248pt"
 viewBox="0.00 0.00 698.25 248.25" xmlns="http://www.w3.org/2000/svg" xmlns:xlink="http://www.w3.org/1999/xlink">
<g id="graph0" class="graph" transform="scale(1 1) rotate(0) translate(4 244.25)">
<title>src/input/Buttons.h</title>
<!-- Node1 -->
<g id="Node000001" class="node">
<title>Node1</title>
<g id="a_Node000001"><a xlink:title=" ">
<polygon fill="#999999" stroke="#666666" points="488.75,-240.25 391,-240.25 391,-221 488.75,-221 488.75,-240.25"/>
<text text-anchor="middle" x="439.88" y="-226.75" font-family="Helvetica,sans-Serif" font-size="10.00">src/input/Buttons.h</text>
</a>
</g>
</g>
<!-- Node2 -->
<g id="Node000002" class="node">
<title>Node2</title>
<g id="a_Node000002"><a xlink:href="ButtonReader_8h.html" target="_top" xlink:title=" ">
<polygon fill="white" stroke="#666666" points="299.5,-185 176.25,-185 176.25,-165.75 299.5,-165.75 299.5,-185"/>
<text text-anchor="middle" x="237.88" y="-171.5" font-family="Helvetica,sans-Serif" font-size="10.00">src/input/ButtonReader.h</text>
</a>
</g>
</g>
<!-- Node1&#45;&gt;Node2 -->
<g id="edge1_Node000001_Node000002" class="edge">
<title>Node1&#45;&gt;Node2</title>
<g id="a_edge1_Node000001_Node000002"><a xlink:title=" ">
<path fill="none" stroke="#63b8ff" d="M394.62,-217.7C357.6,-207.94 306.03,-194.34 272.31,-185.45"/>
<polygon fill="#63b8ff" stroke="#63b8ff" points="393.58,-221.04 404.14,-220.21 395.37,-214.27 393.58,-221.04"/>
</a>
</g>
</g>
<!-- Node10 -->
<g id="Node000010" class="node">
<title>Node10</title>
<g id="a_Node000010"><a xlink:href="Ks0256VoltLadder_8h.html" target="_top" xlink:title=" ">
<polygon fill="white" stroke="#666666" points="512,-185 367.75,-185 367.75,-165.75 512,-165.75 512,-185"/>
<text text-anchor="middle" x="439.88" y="-171.5" font-family="Helvetica,sans-Serif" font-size="10.00">src/input/Ks0256VoltLadder.h</text>
</a>
</g>
</g>
<!-- Node1&#45;&gt;Node10 -->
<g id="edge9_Node000001_Node000010" class="edge">
<title>Node1&#45;&gt;Node10</title>
<g id="a_edge9_Node000001_Node000010"><a xlink:title=" ">
<path fill="none" stroke="#63b8ff" d="M439.88,-209.38C439.88,-201.09 439.88,-191.92 439.88,-185.36"/>
<polygon fill="#63b8ff" stroke="#63b8ff" points="436.38,-209.32 439.88,-219.32 443.38,-209.32 436.38,-209.32"/>
</a>
</g>
</g>
<!-- Node12 -->
<g id="Node000012" class="node">
<title>Node12</title>
<g id="a_Node000012"><a xlink:href="Ks0466VoltLadder_8h.html" target="_top" xlink:title=" ">
<polygon fill="white" stroke="#666666" points="679,-185 534.75,-185 534.75,-165.75 679,-165.75 679,-185"/>
<text text-anchor="middle" x="606.88" y="-171.5" font-family="Helvetica,sans-Serif" font-size="10.00">src/input/Ks0466VoltLadder.h</text>
</a>
</g>
</g>
<!-- Node1&#45;&gt;Node12 -->
<g id="edge11_Node000001_Node000012" class="edge">
<title>Node1&#45;&gt;Node12</title>
<g id="a_edge11_Node000001_Node000012"><a xlink:title=" ">
<path fill="none" stroke="#63b8ff" d="M478.88,-217.19C509.36,-207.47 551.01,-194.19 578.41,-185.45"/>
<polygon fill="#63b8ff" stroke="#63b8ff" points="478.11,-213.76 469.65,-220.13 480.24,-220.43 478.11,-213.76"/>
</a>
</g>
</g>
<!-- Node3 -->
<g id="Node000003" class="node">
<title>Node3</title>
<g id="a_Node000003"><a xlink:href="ButtonReader_8cpp.html" target="_top" xlink:title=" ">
<polygon fill="white" stroke="#666666" points="133.75,-129.75 0,-129.75 0,-110.5 133.75,-110.5 133.75,-129.75"/>
<text text-anchor="middle" x="66.88" y="-116.25" font-family="Helvetica,sans-Serif" font-size="10.00">src/input/ButtonReader.cpp</text>
</a>
</g>
</g>
<!-- Node2&#45;&gt;Node3 -->
<g id="edge2_Node000002_Node000003" class="edge">
<title>Node2&#45;&gt;Node3</title>
<g id="a_edge2_Node000002_Node000003"><a xlink:title=" ">
<path fill="none" stroke="#63b8ff" d="M197.94,-161.94C166.73,-152.22 124.08,-138.94 96.03,-130.2"/>
<polygon fill="#63b8ff" stroke="#63b8ff" points="196.83,-165.26 207.42,-164.89 198.91,-158.58 196.83,-165.26"/>
</a>
</g>
</g>
<!-- Node4 -->
<g id="Node000004" class="node">
<title>Node4</title>
<g id="a_Node000004"><a xlink:href="main_8cpp.html" target="_top" xlink:title=" ">
<polygon fill="white" stroke="#666666" points="223.62,-129.75 152.12,-129.75 152.12,-110.5 223.62,-110.5 223.62,-129.75"/>
<text text-anchor="middle" x="187.88" y="-116.25" font-family="Helvetica,sans-Serif" font-size="10.00">src/main.cpp</text>
</a>
</g>
</g>
<!-- Node2&#45;&gt;Node4 -->
<g id="edge3_Node000002_Node000004" class="edge">
<title>Node2&#45;&gt;Node4</title>
<g id="a_edge3_Node000002_Node000004"><a xlink:title=" ">
<path fill="none" stroke="#63b8ff" d="M221.83,-157.29C213.35,-148.25 203.27,-137.52 196.31,-130.11"/>
<polygon fill="#63b8ff" stroke="#63b8ff" points="219.19,-159.58 228.58,-164.48 224.29,-154.79 219.19,-159.58"/>
</a>
</g>
</g>
<!-- Node5 -->
<g id="Node000005" class="node">
<title>Node5</title>
<g id="a_Node000005"><a xlink:href="ControllerUI_8h.html" target="_top" xlink:title=" ">
<polygon fill="white" stroke="#666666" points="344,-129.75 241.75,-129.75 241.75,-110.5 344,-110.5 344,-129.75"/>
<text text-anchor="middle" x="292.88" y="-116.25" font-family="Helvetica,sans-Serif" font-size="10.00">src/ui/ControllerUI.h</text>
</a>
</g>
</g>
<!-- Node2&#45;&gt;Node5 -->
<g id="edge4_Node000002_Node000005" class="edge">
<title>Node2&#45;&gt;Node5</title>
<g id="a_edge4_Node000002_Node000005"><a xlink:title=" ">
<path fill="none" stroke="#63b8ff" d="M255.23,-157.57C264.62,-148.48 275.86,-137.6 283.6,-130.11"/>
<polygon fill="#63b8ff" stroke="#63b8ff" points="252.79,-155.06 248.04,-164.53 257.66,-160.09 252.79,-155.06"/>
</a>
</g>
</g>
<!-- Node6 -->
<g id="Node000006" class="node">
<title>Node6</title>
<g id="a_Node000006"><a xlink:href="CharDisplayUI_8h.html" target="_top" xlink:title=" ">
<polygon fill="white" stroke="#666666" points="218.25,-74.5 105.5,-74.5 105.5,-55.25 218.25,-55.25 218.25,-74.5"/>
<text text-anchor="middle" x="161.88" y="-61" font-family="Helvetica,sans-Serif" font-size="10.00">src/ui/CharDisplayUI.h</text>
</a>
</g>
</g>
<!-- Node5&#45;&gt;Node6 -->
<g id="edge5_Node000005_Node000006" class="edge">
<title>Node5&#45;&gt;Node6</title>
<g id="a_edge5_Node000005_Node000006"><a xlink:title=" ">
<path fill="none" stroke="#63b8ff" d="M260.05,-105.78C236.37,-96.16 205.04,-83.42 184.21,-74.95"/>
<polygon fill="#63b8ff" stroke="#63b8ff" points="258.67,-109 269.25,-109.52 261.3,-102.51 258.67,-109"/>
</a>
</g>
</g>
<!-- Node8 -->
<g id="Node000008" class="node">
<title>Node8</title>
<g id="a_Node000008"><a xlink:href="ControllerUI_8cpp.html" target="_top" xlink:title=" ">
<polygon fill="white" stroke="#666666" points="349.25,-74.5 236.5,-74.5 236.5,-55.25 349.25,-55.25 349.25,-74.5"/>
<text text-anchor="middle" x="292.88" y="-61" font-family="Helvetica,sans-Serif" font-size="10.00">src/ui/ControllerUI.cpp</text>
</a>
</g>
</g>
<!-- Node5&#45;&gt;Node8 -->
<g id="edge7_Node000005_Node000008" class="edge">
<title>Node5&#45;&gt;Node8</title>
<g id="a_edge7_Node000005_Node000008"><a xlink:title=" ">
<path fill="none" stroke="#63b8ff" d="M292.88,-98.88C292.88,-90.59 292.88,-81.42 292.88,-74.86"/>
<polygon fill="#63b8ff" stroke="#63b8ff" points="289.38,-98.82 292.88,-108.82 296.38,-98.82 289.38,-98.82"/>
</a>
</g>
</g>
<!-- Node9 -->
<g id="Node000009" class="node">
<title>Node9</title>
<g id="a_Node000009"><a xlink:href="GraphicalDisplayUI_8h.html" target="_top" xlink:title=" ">
<polygon fill="white" stroke="#666666" points="500.75,-74.5 367,-74.5 367,-55.25 500.75,-55.25 500.75,-74.5"/>
<text text-anchor="middle" x="433.88" y="-61" font-family="Helvetica,sans-Serif" font-size="10.00">src/ui/GraphicalDisplayUI.h</text>
</a>
</g>
</g>
<!-- Node5&#45;&gt;Node9 -->
<g id="edge8_Node000005_Node000009" class="edge">
<title>Node5&#45;&gt;Node9</title>
<g id="a_edge8_Node000005_Node000009"><a xlink:title=" ">
<path fill="none" stroke="#63b8ff" d="M327.51,-106.04C353.08,-96.39 387.21,-83.5 409.84,-74.95"/>
<polygon fill="#63b8ff" stroke="#63b8ff" points="326.33,-102.75 318.21,-109.56 328.8,-109.3 326.33,-102.75"/>
</a>
</g>
</g>
<!-- Node7 -->
<g id="Node000007" class="node">
<title>Node7</title>
<g id="a_Node000007"><a xlink:href="CharDisplayUI_8cpp.html" target="_top" xlink:title=" ">
<polygon fill="white" stroke="#666666" points="223.5,-19.25 100.25,-19.25 100.25,0 223.5,0 223.5,-19.25"/>
<text text-anchor="middle" x="161.88" y="-5.75" font-family="Helvetica,sans-Serif" font-size="10.00">src/ui/CharDisplayUI.cpp</text>
</a>
</g>
</g>
<!-- Node6&#45;&gt;Node7 -->
<g id="edge6_Node000006_Node000007" class="edge">
<title>Node6&#45;&gt;Node7</title>
<g id="a_edge6_Node000006_Node000007"><a xlink:title=" ">
<path fill="none" stroke="#63b8ff" d="M161.88,-43.63C161.88,-35.34 161.88,-26.17 161.88,-19.61"/>
<polygon fill="#63b8ff" stroke="#63b8ff" points="158.38,-43.57 161.88,-53.57 165.38,-43.57 158.38,-43.57"/>
</a>
</g>
</g>
<!-- Node11 -->
<g id="Node000011" class="node">
<title>Node11</title>
<g id="a_Node000011"><a xlink:href="Ks0256VoltLadder_8cpp.html" target="_top" xlink:title=" ">
<polygon fill="white" stroke="#666666" points="517.25,-129.75 362.5,-129.75 362.5,-110.5 517.25,-110.5 517.25,-129.75"/>
<text text-anchor="middle" x="439.88" y="-116.25" font-family="Helvetica,sans-Serif" font-size="10.00">src/input/Ks0256VoltLadder.cpp</text>
</a>
</g>
</g>
<!-- Node10&#45;&gt;Node11 -->
<g id="edge10_Node000010_Node000011" class="edge">
<title>Node10&#45;&gt;Node11</title>
<g id="a_edge10_Node000010_Node000011"><a xlink:title=" ">
<path fill="none" stroke="#63b8ff" d="M439.88,-154.13C439.88,-145.84 439.88,-136.67 439.88,-130.11"/>
<polygon fill="#63b8ff" stroke="#63b8ff" points="436.38,-154.07 439.88,-164.07 443.38,-154.07 436.38,-154.07"/>
</a>
</g>
</g>
<!-- Node13 -->
<g id="Node000013" class="node">
<title>Node13</title>
<g id="a_Node000013"><a xlink:href="Ks0466VoltLadder_8cpp.html" target="_top" xlink:title=" ">
<polygon fill="white" stroke="#666666" points="690.25,-129.75 535.5,-129.75 535.5,-110.5 690.25,-110.5 690.25,-129.75"/>
<text text-anchor="middle" x="612.88" y="-116.25" font-family="Helvetica,sans-Serif" font-size="10.00">src/input/Ks0466VoltLadder.cpp</text>
</a>
</g>
</g>
<!-- Node12&#45;&gt;Node13 -->
<g id="edge12_Node000012_Node000013" class="edge">
<title>Node12&#45;&gt;Node13</title>
<g id="a_edge12_Node000012_Node000013"><a xlink:title=" ">
<path fill="none" stroke="#63b8ff" d="M609.12,-154.42C610.07,-146.05 611.11,-136.75 611.86,-130.11"/>
<polygon fill="#63b8ff" stroke="#63b8ff" points="605.68,-153.75 608.04,-164.08 612.63,-154.53 605.68,-153.75"/>
</a>
</g>
</g>
</g>
</svg>
