<?xml version="1.0" encoding="UTF-8" standalone="no"?>
<!DOCTYPE svg PUBLIC "-//W3C//DTD SVG 1.1//EN"
 "http://www.w3.org/Graphics/SVG/1.1/DTD/svg11.dtd">
<!-- Generated by graphviz version 12.0.0 (20240704.0754)
 -->
<!-- Title: src/input/ButtonReader.h Pages: 1 -->
<svg width="509pt" height="193pt"
 viewBox="0.00 0.00 508.75 193.00" xmlns="http://www.w3.org/2000/svg" xmlns:xlink="http://www.w3.org/1999/xlink">
<g id="graph0" class="graph" transform="scale(1 1) rotate(0) translate(4 189)">
<title>src/input/ButtonReader.h</title>
<!-- Node1 -->
<g id="Node000001" class="node">
<title>Node1</title>
<g id="a_Node000001"><a xlink:title=" ">
<polygon fill="#999999" stroke="#666666" points="249.5,-185 126.25,-185 126.25,-165.75 249.5,-165.75 249.5,-185"/>
<text text-anchor="middle" x="187.88" y="-171.5" font-family="Helvetica,sans-Serif" font-size="10.00">src/input/ButtonReader.h</text>
</a>
</g>
</g>
<!-- Node2 -->
<g id="Node000002" class="node">
<title>Node2</title>
<g id="a_Node000002"><a xlink:href="ButtonReader_8cpp.html" target="_top" xlink:title=" ">
<polygon fill="white" stroke="#666666" points="133.75,-129.75 0,-129.75 0,-110.5 133.75,-110.5 133.75,-129.75"/>
<text text-anchor="middle" x="66.88" y="-116.25" font-family="Helvetica,sans-Serif" font-size="10.00">src/input/ButtonReader.cpp</text>
</a>
</g>
</g>
<!-- Node1&#45;&gt;Node2 -->
<g id="edge1_Node000001_Node000002" class="edge">
<title>Node1&#45;&gt;Node2</title>
<g id="a_edge1_Node000001_Node000002"><a xlink:title=" ">
<path fill="none" stroke="#63b8ff" d="M156.96,-160.77C135.16,-151.18 106.57,-138.59 87.5,-130.2"/>
<polygon fill="#63b8ff" stroke="#63b8ff" points="155.4,-163.91 165.96,-164.73 158.22,-157.5 155.4,-163.91"/>
</a>
</g>
</g>
<!-- Node3 -->
<g id="Node000003" class="node">
<title>Node3</title>
<g id="a_Node000003"><a xlink:href="main_8cpp.html" target="_top" xlink:title=" ">
<polygon fill="white" stroke="#666666" points="223.62,-129.75 152.12,-129.75 152.12,-110.5 223.62,-110.5 223.62,-129.75"/>
<text text-anchor="middle" x="187.88" y="-116.25" font-family="Helvetica,sans-Serif" font-size="10.00">src/main.cpp</text>
</a>
</g>
</g>
<!-- Node1&#45;&gt;Node3 -->
<g id="edge2_Node000001_Node000003" class="edge">
<title>Node1&#45;&gt;Node3</title>
<g id="a_edge2_Node000001_Node000003"><a xlink:title=" ">
<path fill="none" stroke="#63b8ff" d="M187.88,-154.13C187.88,-145.84 187.88,-136.67 187.88,-130.11"/>
<polygon fill="#63b8ff" stroke="#63b8ff" points="184.38,-154.07 187.88,-164.07 191.38,-154.07 184.38,-154.07"/>
</a>
</g>
</g>
<!-- Node4 -->
<g id="Node000004" class="node">
<title>Node4</title>
<g id="a_Node000004"><a xlink:href="ControllerUI_8h.html" target="_top" xlink:title=" ">
<polygon fill="white" stroke="#666666" points="344,-129.75 241.75,-129.75 241.75,-110.5 344,-110.5 344,-129.75"/>
<text text-anchor="middle" x="292.88" y="-116.25" font-family="Helvetica,sans-Serif" font-size="10.00">src/ui/ControllerUI.h</text>
</a>
</g>
</g>
<!-- Node1&#45;&gt;Node4 -->
<g id="edge3_Node000001_Node000004" class="edge">
<title>Node1&#45;&gt;Node4</title>
<g id="a_edge3_Node000001_Node000004"><a xlink:title=" ">
<path fill="none" stroke="#63b8ff" d="M215.74,-160.24C234.52,-150.72 258.73,-138.44 274.98,-130.2"/>
<polygon fill="#63b8ff" stroke="#63b8ff" points="214.37,-157.01 207.04,-164.66 217.54,-163.26 214.37,-157.01"/>
</a>
</g>
</g>
<!-- Node5 -->
<g id="Node000005" class="node">
<title>Node5</title>
<g id="a_Node000005"><a xlink:href="CharDisplayUI_8h.html" target="_top" xlink:title=" ">
<polygon fill="white" stroke="#666666" points="218.25,-74.5 105.5,-74.5 105.5,-55.25 218.25,-55.25 218.25,-74.5"/>
<text text-anchor="middle" x="161.88" y="-61" font-family="Helvetica,sans-Serif" font-size="10.00">src/ui/CharDisplayUI.h</text>
</a>
</g>
</g>
<!-- Node4&#45;&gt;Node5 -->
<g id="edge4_Node000004_Node000005" class="edge">
<title>Node4&#45;&gt;Node5</title>
<g id="a_edge4_Node000004_Node000005"><a xlink:title=" ">
<path fill="none" stroke="#63b8ff" d="M260.05,-105.78C236.37,-96.16 205.04,-83.42 184.21,-74.95"/>
<polygon fill="#63b8ff" stroke="#63b8ff" points="258.67,-109 269.25,-109.52 261.3,-102.51 258.67,-109"/>
</a>
</g>
</g>
<!-- Node7 -->
<g id="Node000007" class="node">
<title>Node7</title>
<g id="a_Node000007"><a xlink:href="ControllerUI_8cpp.html" target="_top" xlink:title=" ">
<polygon fill="white" stroke="#666666" points="349.25,-74.5 236.5,-74.5 236.5,-55.25 349.25,-55.25 349.25,-74.5"/>
<text text-anchor="middle" x="292.88" y="-61" font-family="Helvetica,sans-Serif" font-size="10.00">src/ui/ControllerUI.cpp</text>
</a>
</g>
</g>
<!-- Node4&#45;&gt;Node7 -->
<g id="edge6_Node000004_Node000007" class="edge">
<title>Node4&#45;&gt;Node7</title>
<g id="a_edge6_Node000004_Node000007"><a xlink:title=" ">
<path fill="none" stroke="#63b8ff" d="M292.88,-98.88C292.88,-90.59 292.88,-81.42 292.88,-74.86"/>
<polygon fill="#63b8ff" stroke="#63b8ff" points="289.38,-98.82 292.88,-108.82 296.38,-98.82 289.38,-98.82"/>
</a>
</g>
</g>
<!-- Node8 -->
<g id="Node000008" class="node">
<title>Node8</title>
<g id="a_Node000008"><a xlink:href="GraphicalDisplayUI_8h.html" target="_top" xlink:title=" ">
<polygon fill="white" stroke="#666666" points="500.75,-74.5 367,-74.5 367,-55.25 500.75,-55.25 500.75,-74.5"/>
<text text-anchor="middle" x="433.88" y="-61" font-family="Helvetica,sans-Serif" font-size="10.00">src/ui/GraphicalDisplayUI.h</text>
</a>
</g>
</g>
<!-- Node4&#45;&gt;Node8 -->
<g id="edge7_Node000004_Node000008" class="edge">
<title>Node4&#45;&gt;Node8</title>
<g id="a_edge7_Node000004_Node000008"><a xlink:title=" ">
<path fill="none" stroke="#63b8ff" d="M327.51,-106.04C353.08,-96.39 387.21,-83.5 409.84,-74.95"/>
<polygon fill="#63b8ff" stroke="#63b8ff" points="326.33,-102.75 318.21,-109.56 328.8,-109.3 326.33,-102.75"/>
</a>
</g>
</g>
<!-- Node6 -->
<g id="Node000006" class="node">
<title>Node6</title>
<g id="a_Node000006"><a xlink:href="CharDisplayUI_8cpp.html" target="_top" xlink:title=" ">
<polygon fill="white" stroke="#666666" points="223.5,-19.25 100.25,-19.25 100.25,0 223.5,0 223.5,-19.25"/>
<text text-anchor="middle" x="161.88" y="-5.75" font-family="Helvetica,sans-Serif" font-size="10.00">src/ui/CharDisplayUI.cpp</text>
</a>
</g>
</g>
<!-- Node5&#45;&gt;Node6 -->
<g id="edge5_Node000005_Node000006" class="edge">
<title>Node5&#45;&gt;Node6</title>
<g id="a_edge5_Node000005_Node000006"><a xlink:title=" ">
<path fill="none" stroke="#63b8ff" d="M161.88,-43.63C161.88,-35.34 161.88,-26.17 161.88,-19.61"/>
<polygon fill="#63b8ff" stroke="#63b8ff" points="158.38,-43.57 161.88,-53.57 165.38,-43.57 158.38,-43.57"/>
</a>
</g>
</g>
</g>
</svg>
