<?xml version="1.0" encoding="UTF-8" standalone="no"?>
<!DOCTYPE svg PUBLIC "-//W3C//DTD SVG 1.1//EN"
 "http://www.w3.org/Graphics/SVG/1.1/DTD/svg11.dtd">
<!-- Generated by graphviz version 12.0.0 (20240704.0754)
 -->
<!-- Title: src/control/CascadeHumidistat.cpp Pages: 1 -->
<svg width="527pt" height="304pt"
 viewBox="0.00 0.00 526.50 303.50" xmlns="http://www.w3.org/2000/svg" xmlns:xlink="http://www.w3.org/1999/xlink">
<g id="graph0" class="graph" transform="scale(1 1) rotate(0) translate(4 299.5)">
<title>src/control/CascadeHumidistat.cpp</title>
<!-- Node1 -->
<g id="Node000001" class="node">
<title>Node1</title>
<g id="a_Node000001"><a xlink:title=" ">
<polygon fill="#999999" stroke="#666666" points="277.12,-295.5 108.88,-295.5 108.88,-276.25 277.12,-276.25 277.12,-295.5"/>
<text text-anchor="middle" x="193" y="-282" font-family="Helvetica,sans-Serif" font-size="10.00">src/control/CascadeHumidistat.cpp</text>
</a>
</g>
</g>
<!-- Node2 -->
<g id="Node000002" class="node">
<title>Node2</title>
<g id="a_Node000002"><a xlink:href="CascadeHumidistat_8h.html" target="_top" xlink:title=" ">
<polygon fill="white" stroke="#666666" points="247.5,-240.25 138.5,-240.25 138.5,-221 247.5,-221 247.5,-240.25"/>
<text text-anchor="middle" x="193" y="-226.75" font-family="Helvetica,sans-Serif" font-size="10.00">CascadeHumidistat.h</text>
</a>
</g>
</g>
<!-- Node1&#45;&gt;Node2 -->
<g id="edge1_Node000001_Node000002" class="edge">
<title>Node1&#45;&gt;Node2</title>
<g id="a_edge1_Node000001_Node000002"><a xlink:title=" ">
<path fill="none" stroke="#63b8ff" d="M193,-276.08C193,-269.57 193,-260.42 193,-252.12"/>
<polygon fill="#63b8ff" stroke="#63b8ff" points="196.5,-252.12 193,-242.12 189.5,-252.12 196.5,-252.12"/>
</a>
</g>
</g>
<!-- Node3 -->
<g id="Node000003" class="node">
<title>Node3</title>
<g id="a_Node000003"><a xlink:title=" ">
<polygon fill="#e0e0e0" stroke="#999999" points="58,-185 0,-185 0,-165.75 58,-165.75 58,-185"/>
<text text-anchor="middle" x="29" y="-171.5" font-family="Helvetica,sans-Serif" font-size="10.00">etl/span.h</text>
</a>
</g>
</g>
<!-- Node2&#45;&gt;Node3 -->
<g id="edge2_Node000002_Node000003" class="edge">
<title>Node2&#45;&gt;Node3</title>
<g id="a_edge2_Node000002_Node000003"><a xlink:title=" ">
<path fill="none" stroke="#63b8ff" d="M165.18,-220.59C138.44,-211.91 97.78,-198.71 67.85,-188.99"/>
<polygon fill="#63b8ff" stroke="#63b8ff" points="68.99,-185.68 58.4,-185.92 66.83,-192.34 68.99,-185.68"/>
</a>
</g>
</g>
<!-- Node4 -->
<g id="Node000004" class="node">
<title>Node4</title>
<g id="a_Node000004"><a xlink:title=" ">
<polygon fill="#e0e0e0" stroke="#999999" points="134,-185 76,-185 76,-165.75 134,-165.75 134,-185"/>
<text text-anchor="middle" x="105" y="-171.5" font-family="Helvetica,sans-Serif" font-size="10.00">etl/array.h</text>
</a>
</g>
</g>
<!-- Node2&#45;&gt;Node4 -->
<g id="edge3_Node000002_Node000004" class="edge">
<title>Node2&#45;&gt;Node4</title>
<g id="a_edge3_Node000002_Node000004"><a xlink:title=" ">
<path fill="none" stroke="#63b8ff" d="M178.07,-220.59C164.8,-212.56 145.13,-200.66 129.55,-191.23"/>
<polygon fill="#63b8ff" stroke="#63b8ff" points="131.66,-188.42 121.3,-186.24 128.04,-194.41 131.66,-188.42"/>
</a>
</g>
</g>
<!-- Node5 -->
<g id="Node000005" class="node">
<title>Node5</title>
<g id="a_Node000005"><a xlink:href="aliases_8h.html" target="_top" xlink:title=" ">
<polygon fill="white" stroke="#666666" points="189.12,-129.75 134.88,-129.75 134.88,-110.5 189.12,-110.5 189.12,-129.75"/>
<text text-anchor="middle" x="162" y="-116.25" font-family="Helvetica,sans-Serif" font-size="10.00">aliases.h</text>
</a>
</g>
</g>
<!-- Node2&#45;&gt;Node5 -->
<g id="edge4_Node000002_Node000005" class="edge">
<title>Node2&#45;&gt;Node5</title>
<g id="a_edge4_Node000002_Node000005"><a xlink:title=" ">
<path fill="none" stroke="#63b8ff" d="M190.46,-220.75C185.51,-203.42 174.46,-164.73 167.67,-140.99"/>
<polygon fill="#63b8ff" stroke="#63b8ff" points="171.1,-140.24 164.99,-131.58 164.37,-142.16 171.1,-140.24"/>
</a>
</g>
</g>
<!-- Node6 -->
<g id="Node000006" class="node">
<title>Node6</title>
<g id="a_Node000006"><a xlink:href="Humidistat_8h.html" target="_top" xlink:title=" ">
<polygon fill="white" stroke="#666666" points="260.38,-185 189.62,-185 189.62,-165.75 260.38,-165.75 260.38,-185"/>
<text text-anchor="middle" x="225" y="-171.5" font-family="Helvetica,sans-Serif" font-size="10.00">Humidistat.h</text>
</a>
</g>
</g>
<!-- Node2&#45;&gt;Node6 -->
<g id="edge5_Node000002_Node000006" class="edge">
<title>Node2&#45;&gt;Node6</title>
<g id="a_edge5_Node000002_Node000006"><a xlink:title=" ">
<path fill="none" stroke="#63b8ff" d="M198.28,-220.83C202.47,-213.86 208.48,-203.87 213.73,-195.12"/>
<polygon fill="#63b8ff" stroke="#63b8ff" points="216.67,-197.03 218.82,-186.66 210.67,-193.43 216.67,-197.03"/>
</a>
</g>
</g>
<!-- Node11 -->
<g id="Node000011" class="node">
<title>Node11</title>
<g id="a_Node000011"><a xlink:href="FlowSensor_8h.html" target="_top" xlink:title=" ">
<polygon fill="white" stroke="#666666" points="518.5,-129.75 403.5,-129.75 403.5,-110.5 518.5,-110.5 518.5,-129.75"/>
<text text-anchor="middle" x="461" y="-116.25" font-family="Helvetica,sans-Serif" font-size="10.00">../sensor/FlowSensor.h</text>
</a>
</g>
</g>
<!-- Node2&#45;&gt;Node11 -->
<g id="edge13_Node000002_Node000011" class="edge">
<title>Node2&#45;&gt;Node11</title>
<g id="a_edge13_Node000002_Node000011"><a xlink:title=" ">
<path fill="none" stroke="#63b8ff" d="M247.6,-221.72C284.27,-215.08 333.01,-203.61 373,-185 399.43,-172.7 425.99,-152 442.91,-137.51"/>
<polygon fill="#63b8ff" stroke="#63b8ff" points="444.91,-140.41 450.12,-131.19 440.29,-135.15 444.91,-140.41"/>
</a>
</g>
</g>
<!-- Node13 -->
<g id="Node000013" class="node">
<title>Node13</title>
<g id="a_Node000013"><a xlink:href="FlowController_8h.html" target="_top" xlink:title=" ">
<polygon fill="white" stroke="#666666" points="363.88,-185 278.12,-185 278.12,-165.75 363.88,-165.75 363.88,-185"/>
<text text-anchor="middle" x="321" y="-171.5" font-family="Helvetica,sans-Serif" font-size="10.00">FlowController.h</text>
</a>
</g>
</g>
<!-- Node2&#45;&gt;Node13 -->
<g id="edge16_Node000002_Node000013" class="edge">
<title>Node2&#45;&gt;Node13</title>
<g id="a_edge16_Node000002_Node000013"><a xlink:title=" ">
<path fill="none" stroke="#63b8ff" d="M214.71,-220.59C235.03,-212.14 265.65,-199.4 288.81,-189.77"/>
<polygon fill="#63b8ff" stroke="#63b8ff" points="289.89,-193.11 297.78,-186.03 287.21,-186.64 289.89,-193.11"/>
</a>
</g>
</g>
<!-- Node6&#45;&gt;Node5 -->
<g id="edge6_Node000006_Node000005" class="edge">
<title>Node6&#45;&gt;Node5</title>
<g id="a_edge6_Node000006_Node000005"><a xlink:title=" ">
<path fill="none" stroke="#63b8ff" d="M214.31,-165.34C205.3,-157.72 192.17,-146.62 181.32,-137.45"/>
<polygon fill="#63b8ff" stroke="#63b8ff" points="183.58,-134.78 173.69,-131 179.06,-140.13 183.58,-134.78"/>
</a>
</g>
</g>
<!-- Node7 -->
<g id="Node000007" class="node">
<title>Node7</title>
<g id="a_Node000007"><a xlink:href="Controller_8h.html" target="_top" xlink:title=" ">
<polygon fill="white" stroke="#666666" points="347.38,-129.75 282.62,-129.75 282.62,-110.5 347.38,-110.5 347.38,-129.75"/>
<text text-anchor="middle" x="315" y="-116.25" font-family="Helvetica,sans-Serif" font-size="10.00">Controller.h</text>
</a>
</g>
</g>
<!-- Node6&#45;&gt;Node7 -->
<g id="edge7_Node000006_Node000007" class="edge">
<title>Node6&#45;&gt;Node7</title>
<g id="a_edge7_Node000006_Node000007"><a xlink:title=" ">
<path fill="none" stroke="#63b8ff" d="M240.27,-165.34C253.84,-157.31 273.95,-145.41 289.9,-135.98"/>
<polygon fill="#63b8ff" stroke="#63b8ff" points="291.53,-139.08 298.36,-130.97 287.97,-133.05 291.53,-139.08"/>
</a>
</g>
</g>
<!-- Node10 -->
<g id="Node000010" class="node">
<title>Node10</title>
<g id="a_Node000010"><a xlink:href="EEPROMConfig_8h.html" target="_top" xlink:title=" ">
<polygon fill="white" stroke="#666666" points="292.62,-74.5 193.38,-74.5 193.38,-55.25 292.62,-55.25 292.62,-74.5"/>
<text text-anchor="middle" x="243" y="-61" font-family="Helvetica,sans-Serif" font-size="10.00">../EEPROMConfig.h</text>
</a>
</g>
</g>
<!-- Node6&#45;&gt;Node10 -->
<g id="edge12_Node000006_Node000010" class="edge">
<title>Node6&#45;&gt;Node10</title>
<g id="a_edge12_Node000006_Node000010"><a xlink:title=" ">
<path fill="none" stroke="#63b8ff" d="M226.47,-165.5C229.33,-148.25 235.71,-109.83 239.65,-86.06"/>
<polygon fill="#63b8ff" stroke="#63b8ff" points="243.08,-86.81 241.26,-76.37 236.17,-85.66 243.08,-86.81"/>
</a>
</g>
</g>
<!-- Node8 -->
<g id="Node000008" class="node">
<title>Node8</title>
<g id="a_Node000008"><a xlink:title=" ">
<polygon fill="#e0e0e0" stroke="#999999" points="392.75,-19.25 345.25,-19.25 345.25,0 392.75,0 392.75,-19.25"/>
<text text-anchor="middle" x="369" y="-5.75" font-family="Helvetica,sans-Serif" font-size="10.00">stdint.h</text>
</a>
</g>
</g>
<!-- Node7&#45;&gt;Node8 -->
<g id="edge8_Node000007_Node000008" class="edge">
<title>Node7&#45;&gt;Node8</title>
<g id="a_edge8_Node000007_Node000008"><a xlink:title=" ">
<path fill="none" stroke="#63b8ff" d="M317.85,-110.2C322.01,-97.62 330.31,-74.1 340,-55.25 344.64,-46.22 350.64,-36.72 355.97,-28.82"/>
<polygon fill="#63b8ff" stroke="#63b8ff" points="358.74,-30.98 361.57,-20.77 352.99,-26.98 358.74,-30.98"/>
</a>
</g>
</g>
<!-- Node9 -->
<g id="Node000009" class="node">
<title>Node9</title>
<g id="a_Node000009"><a xlink:href="PID_8h.html" target="_top" xlink:title=" ">
<polygon fill="white" stroke="#666666" points="389,-74.5 349,-74.5 349,-55.25 389,-55.25 389,-74.5"/>
<text text-anchor="middle" x="369" y="-61" font-family="Helvetica,sans-Serif" font-size="10.00">PID.h</text>
</a>
</g>
</g>
<!-- Node7&#45;&gt;Node9 -->
<g id="edge9_Node000007_Node000009" class="edge">
<title>Node7&#45;&gt;Node9</title>
<g id="a_edge9_Node000007_Node000009"><a xlink:title=" ">
<path fill="none" stroke="#63b8ff" d="M323.92,-110.33C331.45,-102.9 342.47,-92.04 351.73,-82.91"/>
<polygon fill="#63b8ff" stroke="#63b8ff" points="354.15,-85.44 358.81,-75.92 349.23,-80.45 354.15,-85.44"/>
</a>
</g>
</g>
<!-- Node7&#45;&gt;Node10 -->
<g id="edge11_Node000007_Node000010" class="edge">
<title>Node7&#45;&gt;Node10</title>
<g id="a_edge11_Node000007_Node000010"><a xlink:title=" ">
<path fill="none" stroke="#63b8ff" d="M302.79,-110.09C292.17,-102.24 276.56,-90.7 263.96,-81.37"/>
<polygon fill="#63b8ff" stroke="#63b8ff" points="266.37,-78.81 256.25,-75.67 262.21,-84.44 266.37,-78.81"/>
</a>
</g>
</g>
<!-- Node9&#45;&gt;Node8 -->
<g id="edge10_Node000009_Node000008" class="edge">
<title>Node9&#45;&gt;Node8</title>
<g id="a_edge10_Node000009_Node000008"><a xlink:title=" ">
<path fill="none" stroke="#63b8ff" d="M369,-55.08C369,-48.57 369,-39.42 369,-31.12"/>
<polygon fill="#63b8ff" stroke="#63b8ff" points="372.5,-31.12 369,-21.12 365.5,-31.12 372.5,-31.12"/>
</a>
</g>
</g>
<!-- Node11&#45;&gt;Node8 -->
<g id="edge14_Node000011_Node000008" class="edge">
<title>Node11&#45;&gt;Node8</title>
<g id="a_edge14_Node000011_Node000008"><a xlink:title=" ">
<path fill="none" stroke="#63b8ff" d="M453.47,-110.25C438.31,-92.36 403.85,-51.72 383.94,-28.25"/>
<polygon fill="#63b8ff" stroke="#63b8ff" points="386.75,-26.14 377.61,-20.78 381.41,-30.67 386.75,-26.14"/>
</a>
</g>
</g>
<!-- Node12 -->
<g id="Node000012" class="node">
<title>Node12</title>
<g id="a_Node000012"><a xlink:href="imath_8h.html" target="_top" xlink:title=" ">
<polygon fill="white" stroke="#666666" points="492.75,-74.5 445.25,-74.5 445.25,-55.25 492.75,-55.25 492.75,-74.5"/>
<text text-anchor="middle" x="469" y="-61" font-family="Helvetica,sans-Serif" font-size="10.00">imath.h</text>
</a>
</g>
</g>
<!-- Node11&#45;&gt;Node12 -->
<g id="edge15_Node000011_Node000012" class="edge">
<title>Node11&#45;&gt;Node12</title>
<g id="a_edge15_Node000011_Node000012"><a xlink:title=" ">
<path fill="none" stroke="#63b8ff" d="M462.32,-110.33C463.31,-103.74 464.71,-94.46 465.97,-86.07"/>
<polygon fill="#63b8ff" stroke="#63b8ff" points="469.4,-86.76 467.43,-76.36 462.48,-85.72 469.4,-86.76"/>
</a>
</g>
</g>
<!-- Node13&#45;&gt;Node7 -->
<g id="edge17_Node000013_Node000007" class="edge">
<title>Node13&#45;&gt;Node7</title>
<g id="a_edge17_Node000013_Node000007"><a xlink:title=" ">
<path fill="none" stroke="#63b8ff" d="M320.01,-165.58C319.27,-158.99 318.22,-149.71 317.28,-141.32"/>
<polygon fill="#63b8ff" stroke="#63b8ff" points="320.78,-141.16 316.18,-131.61 313.82,-141.94 320.78,-141.16"/>
</a>
</g>
</g>
<!-- Node13&#45;&gt;Node9 -->
<g id="edge18_Node000013_Node000009" class="edge">
<title>Node13&#45;&gt;Node9</title>
<g id="a_edge18_Node000013_Node000009"><a xlink:title=" ">
<path fill="none" stroke="#63b8ff" d="M330.21,-165.32C338.26,-156.87 349.64,-143.51 356,-129.75 362.34,-116.04 365.6,-99.25 367.27,-86.33"/>
<polygon fill="#63b8ff" stroke="#63b8ff" points="370.75,-86.77 368.31,-76.46 363.78,-86.04 370.75,-86.77"/>
</a>
</g>
</g>
<!-- Node13&#45;&gt;Node10 -->
<g id="edge20_Node000013_Node000010" class="edge">
<title>Node13&#45;&gt;Node10</title>
<g id="a_edge20_Node000013_Node000010"><a xlink:title=" ">
<path fill="none" stroke="#63b8ff" d="M309.43,-165.43C299.16,-157.04 284.23,-143.74 274,-129.75 263.97,-116.04 255.76,-98.58 250.31,-85.38"/>
<polygon fill="#63b8ff" stroke="#63b8ff" points="253.58,-84.13 246.66,-76.1 247.06,-86.68 253.58,-84.13"/>
</a>
</g>
</g>
<!-- Node13&#45;&gt;Node11 -->
<g id="edge19_Node000013_Node000011" class="edge">
<title>Node13&#45;&gt;Node11</title>
<g id="a_edge19_Node000013_Node000011"><a xlink:title=" ">
<path fill="none" stroke="#63b8ff" d="M344.75,-165.34C367.17,-156.81 401.06,-143.92 426.47,-134.26"/>
<polygon fill="#63b8ff" stroke="#63b8ff" points="427.62,-137.57 435.72,-130.74 425.13,-131.02 427.62,-137.57"/>
</a>
</g>
</g>
</g>
</svg>
