<?xml version="1.0" encoding="UTF-8" standalone="no"?>
<!DOCTYPE svg PUBLIC "-//W3C//DTD SVG 1.1//EN"
 "http://www.w3.org/Graphics/SVG/1.1/DTD/svg11.dtd">
<!-- Generated by graphviz version 12.0.0 (20240704.0754)
 -->
<!-- Title: src/control/CascadeHumidistat.h Pages: 1 -->
<svg width="441pt" height="138pt"
 viewBox="0.00 0.00 441.25 137.75" xmlns="http://www.w3.org/2000/svg" xmlns:xlink="http://www.w3.org/1999/xlink">
<g id="graph0" class="graph" transform="scale(1 1) rotate(0) translate(4 133.75)">
<title>src/control/CascadeHumidistat.h</title>
<!-- Node1 -->
<g id="Node000001" class="node">
<title>Node1</title>
<g id="a_Node000001"><a xlink:title=" ">
<polygon fill="#999999" stroke="#666666" points="276.25,-129.75 118.5,-129.75 118.5,-110.5 276.25,-110.5 276.25,-129.75"/>
<text text-anchor="middle" x="197.38" y="-116.25" font-family="Helvetica,sans-Serif" font-size="10.00">src/control/CascadeHumidistat.h</text>
</a>
</g>
</g>
<!-- Node2 -->
<g id="Node000002" class="node">
<title>Node2</title>
<g id="a_Node000002"><a xlink:href="SerialLogger_8h.html" target="_top" xlink:title=" ">
<polygon fill="white" stroke="#666666" points="94.75,-74.5 0,-74.5 0,-55.25 94.75,-55.25 94.75,-74.5"/>
<text text-anchor="middle" x="47.38" y="-61" font-family="Helvetica,sans-Serif" font-size="10.00">src/SerialLogger.h</text>
</a>
</g>
</g>
<!-- Node1&#45;&gt;Node2 -->
<g id="edge1_Node000001_Node000002" class="edge">
<title>Node1&#45;&gt;Node2</title>
<g id="a_edge1_Node000001_Node000002"><a xlink:title=" ">
<path fill="none" stroke="#63b8ff" d="M161.25,-106.3C133.98,-96.62 97.23,-83.57 72.95,-74.95"/>
<polygon fill="#63b8ff" stroke="#63b8ff" points="159.91,-109.54 170.5,-109.59 162.25,-102.94 159.91,-109.54"/>
</a>
</g>
</g>
<!-- Node4 -->
<g id="Node000004" class="node">
<title>Node4</title>
<g id="a_Node000004"><a xlink:href="CascadeHumidistat_8cpp.html" target="_top" xlink:title=" ">
<polygon fill="white" stroke="#666666" points="281.5,-74.5 113.25,-74.5 113.25,-55.25 281.5,-55.25 281.5,-74.5"/>
<text text-anchor="middle" x="197.38" y="-61" font-family="Helvetica,sans-Serif" font-size="10.00">src/control/CascadeHumidistat.cpp</text>
</a>
</g>
</g>
<!-- Node1&#45;&gt;Node4 -->
<g id="edge3_Node000001_Node000004" class="edge">
<title>Node1&#45;&gt;Node4</title>
<g id="a_edge3_Node000001_Node000004"><a xlink:title=" ">
<path fill="none" stroke="#63b8ff" d="M197.38,-98.88C197.38,-90.59 197.38,-81.42 197.38,-74.86"/>
<polygon fill="#63b8ff" stroke="#63b8ff" points="193.88,-98.82 197.38,-108.82 200.88,-98.82 193.88,-98.82"/>
</a>
</g>
</g>
<!-- Node5 -->
<g id="Node000005" class="node">
<title>Node5</title>
<g id="a_Node000005"><a xlink:href="GraphicalDisplayUI_8h.html" target="_top" xlink:title=" ">
<polygon fill="white" stroke="#666666" points="433.25,-74.5 299.5,-74.5 299.5,-55.25 433.25,-55.25 433.25,-74.5"/>
<text text-anchor="middle" x="366.38" y="-61" font-family="Helvetica,sans-Serif" font-size="10.00">src/ui/GraphicalDisplayUI.h</text>
</a>
</g>
</g>
<!-- Node1&#45;&gt;Node5 -->
<g id="edge4_Node000001_Node000005" class="edge">
<title>Node1&#45;&gt;Node5</title>
<g id="a_edge4_Node000001_Node000005"><a xlink:title=" ">
<path fill="none" stroke="#63b8ff" d="M236.85,-106.69C267.69,-96.97 309.84,-83.69 337.57,-74.95"/>
<polygon fill="#63b8ff" stroke="#63b8ff" points="235.97,-103.29 227.49,-109.64 238.08,-109.97 235.97,-103.29"/>
</a>
</g>
</g>
<!-- Node3 -->
<g id="Node000003" class="node">
<title>Node3</title>
<g id="a_Node000003"><a xlink:href="main_8cpp.html" target="_top" xlink:title=" ">
<polygon fill="white" stroke="#666666" points="83.12,-19.25 11.62,-19.25 11.62,0 83.12,0 83.12,-19.25"/>
<text text-anchor="middle" x="47.38" y="-5.75" font-family="Helvetica,sans-Serif" font-size="10.00">src/main.cpp</text>
</a>
</g>
</g>
<!-- Node2&#45;&gt;Node3 -->
<g id="edge2_Node000002_Node000003" class="edge">
<title>Node2&#45;&gt;Node3</title>
<g id="a_edge2_Node000002_Node000003"><a xlink:title=" ">
<path fill="none" stroke="#63b8ff" d="M47.38,-43.63C47.38,-35.34 47.38,-26.17 47.38,-19.61"/>
<polygon fill="#63b8ff" stroke="#63b8ff" points="43.88,-43.57 47.38,-53.57 50.88,-43.57 43.88,-43.57"/>
</a>
</g>
</g>
</g>
</svg>
