<?xml version="1.0" encoding="UTF-8" standalone="no"?>
<!DOCTYPE svg PUBLIC "-//W3C//DTD SVG 1.1//EN"
 "http://www.w3.org/Graphics/SVG/1.1/DTD/svg11.dtd">
<!-- Generated by graphviz version 12.0.0 (20240704.0754)
 -->
<!-- Title: src/ui/CharDisplayUI.h Pages: 1 -->
<svg width="718pt" height="304pt"
 viewBox="0.00 0.00 718.15 303.50" xmlns="http://www.w3.org/2000/svg" xmlns:xlink="http://www.w3.org/1999/xlink">
<g id="graph0" class="graph" transform="scale(1 1) rotate(0) translate(4 299.5)">
<title>src/ui/CharDisplayUI.h</title>
<!-- Node1 -->
<g id="Node000001" class="node">
<title>Node1</title>
<g id="a_Node000001"><a xlink:title=" ">
<polygon fill="#999999" stroke="#666666" points="197.25,-295.5 84.5,-295.5 84.5,-276.25 197.25,-276.25 197.25,-295.5"/>
<text text-anchor="middle" x="140.88" y="-282" font-family="Helvetica,sans-Serif" font-size="10.00">src/ui/CharDisplayUI.h</text>
</a>
</g>
</g>
<!-- Node2 -->
<g id="Node000002" class="node">
<title>Node2</title>
<g id="a_Node000002"><a xlink:title=" ">
<polygon fill="#e0e0e0" stroke="#999999" points="79.75,-240.25 0,-240.25 0,-221 79.75,-221 79.75,-240.25"/>
<text text-anchor="middle" x="39.88" y="-226.75" font-family="Helvetica,sans-Serif" font-size="10.00">LiquidCrystal.h</text>
</a>
</g>
</g>
<!-- Node1&#45;&gt;Node2 -->
<g id="edge1_Node000001_Node000002" class="edge">
<title>Node1&#45;&gt;Node2</title>
<g id="a_edge1_Node000001_Node000002"><a xlink:title=" ">
<path fill="none" stroke="#63b8ff" d="M123.74,-275.84C108.22,-267.66 85.07,-255.46 67.03,-245.94"/>
<polygon fill="#63b8ff" stroke="#63b8ff" points="68.91,-242.98 58.43,-241.41 65.64,-249.17 68.91,-242.98"/>
</a>
</g>
</g>
<!-- Node3 -->
<g id="Node000003" class="node">
<title>Node3</title>
<g id="a_Node000003"><a xlink:title=" ">
<polygon fill="#e0e0e0" stroke="#999999" points="70.88,-185 12.88,-185 12.88,-165.75 70.88,-165.75 70.88,-185"/>
<text text-anchor="middle" x="41.88" y="-171.5" font-family="Helvetica,sans-Serif" font-size="10.00">etl/span.h</text>
</a>
</g>
</g>
<!-- Node1&#45;&gt;Node3 -->
<g id="edge2_Node000001_Node000003" class="edge">
<title>Node1&#45;&gt;Node3</title>
<g id="a_edge2_Node000001_Node000003"><a xlink:title=" ">
<path fill="none" stroke="#63b8ff" d="M134.15,-275.9C124.56,-263.26 106.17,-239.67 88.88,-221 79.91,-211.32 69.29,-201.15 60.42,-192.96"/>
<polygon fill="#63b8ff" stroke="#63b8ff" points="62.82,-190.41 53.07,-186.27 58.11,-195.59 62.82,-190.41"/>
</a>
</g>
</g>
<!-- Node4 -->
<g id="Node000004" class="node">
<title>Node4</title>
<g id="a_Node000004"><a xlink:href="ControllerUI_8h.html" target="_top" xlink:title=" ">
<polygon fill="white" stroke="#666666" points="211.5,-240.25 136.25,-240.25 136.25,-221 211.5,-221 211.5,-240.25"/>
<text text-anchor="middle" x="173.88" y="-226.75" font-family="Helvetica,sans-Serif" font-size="10.00">ControllerUI.h</text>
</a>
</g>
</g>
<!-- Node1&#45;&gt;Node4 -->
<g id="edge3_Node000001_Node000004" class="edge">
<title>Node1&#45;&gt;Node4</title>
<g id="a_edge3_Node000001_Node000004"><a xlink:title=" ">
<path fill="none" stroke="#63b8ff" d="M146.32,-276.08C150.65,-269.11 156.84,-259.12 162.26,-250.37"/>
<polygon fill="#63b8ff" stroke="#63b8ff" points="165.22,-252.24 167.51,-241.9 159.27,-248.55 165.22,-252.24"/>
</a>
</g>
</g>
<!-- Node14 -->
<g id="Node000014" class="node">
<title>Node14</title>
<g id="a_Node000014"><a xlink:href="SingleHumidistat_8h.html" target="_top" xlink:title=" ">
<polygon fill="white" stroke="#666666" points="638.88,-240.25 508.88,-240.25 508.88,-221 638.88,-221 638.88,-240.25"/>
<text text-anchor="middle" x="573.88" y="-226.75" font-family="Helvetica,sans-Serif" font-size="10.00">control/SingleHumidistat.h</text>
</a>
</g>
</g>
<!-- Node1&#45;&gt;Node14 -->
<g id="edge16_Node000001_Node000014" class="edge">
<title>Node1&#45;&gt;Node14</title>
<g id="a_edge16_Node000001_Node000014"><a xlink:title=" ">
<path fill="none" stroke="#63b8ff" d="M197.48,-277.91C274.16,-268.48 411.29,-251.62 497.16,-241.06"/>
<polygon fill="#63b8ff" stroke="#63b8ff" points="497.41,-244.56 506.91,-239.86 496.55,-237.61 497.41,-244.56"/>
</a>
</g>
</g>
<!-- Node4&#45;&gt;Node3 -->
<g id="edge5_Node000004_Node000003" class="edge">
<title>Node4&#45;&gt;Node3</title>
<g id="a_edge5_Node000004_Node000003"><a xlink:title=" ">
<path fill="none" stroke="#63b8ff" d="M151.48,-220.59C130.43,-212.1 98.67,-199.29 74.75,-189.64"/>
<polygon fill="#63b8ff" stroke="#63b8ff" points="76.36,-186.51 65.78,-186.02 73.74,-193.01 76.36,-186.51"/>
</a>
</g>
</g>
<!-- Node5 -->
<g id="Node000005" class="node">
<title>Node5</title>
<g id="a_Node000005"><a xlink:title=" ">
<polygon fill="#e0e0e0" stroke="#999999" points="484.62,-19.25 437.12,-19.25 437.12,0 484.62,0 484.62,-19.25"/>
<text text-anchor="middle" x="460.88" y="-5.75" font-family="Helvetica,sans-Serif" font-size="10.00">stdint.h</text>
</a>
</g>
</g>
<!-- Node4&#45;&gt;Node5 -->
<g id="edge4_Node000004_Node000005" class="edge">
<title>Node4&#45;&gt;Node5</title>
<g id="a_edge4_Node000004_Node000005"><a xlink:title=" ">
<path fill="none" stroke="#63b8ff" d="M155.28,-220.58C142.16,-213.06 125.59,-201.02 117.88,-185 114.16,-177.29 115.26,-173.9 117.88,-165.75 136.31,-108.26 145.69,-87.26 196.88,-55.25 234.46,-31.75 362.55,-18.5 425.45,-13.27"/>
<polygon fill="#63b8ff" stroke="#63b8ff" points="425.56,-16.77 435.25,-12.48 425,-9.79 425.56,-16.77"/>
</a>
</g>
</g>
<!-- Node6 -->
<g id="Node000006" class="node">
<title>Node6</title>
<g id="a_Node000006"><a xlink:title=" ">
<polygon fill="#e0e0e0" stroke="#999999" points="170.75,-185 127,-185 127,-165.75 170.75,-165.75 170.75,-185"/>
<text text-anchor="middle" x="148.88" y="-171.5" font-family="Helvetica,sans-Serif" font-size="10.00">Print.h</text>
</a>
</g>
</g>
<!-- Node4&#45;&gt;Node6 -->
<g id="edge6_Node000004_Node000006" class="edge">
<title>Node4&#45;&gt;Node6</title>
<g id="a_edge6_Node000004_Node000006"><a xlink:title=" ">
<path fill="none" stroke="#63b8ff" d="M169.75,-220.83C166.55,-214.01 161.99,-204.31 157.95,-195.7"/>
<polygon fill="#63b8ff" stroke="#63b8ff" points="161.15,-194.29 153.74,-186.73 154.82,-197.27 161.15,-194.29"/>
</a>
</g>
</g>
<!-- Node7 -->
<g id="Node000007" class="node">
<title>Node7</title>
<g id="a_Node000007"><a xlink:href="ButtonReader_8h.html" target="_top" xlink:title=" ">
<polygon fill="white" stroke="#666666" points="439.25,-185 332.5,-185 332.5,-165.75 439.25,-165.75 439.25,-185"/>
<text text-anchor="middle" x="385.88" y="-171.5" font-family="Helvetica,sans-Serif" font-size="10.00">input/ButtonReader.h</text>
</a>
</g>
</g>
<!-- Node4&#45;&gt;Node7 -->
<g id="edge7_Node000004_Node000007" class="edge">
<title>Node4&#45;&gt;Node7</title>
<g id="a_edge7_Node000004_Node000007"><a xlink:title=" ">
<path fill="none" stroke="#63b8ff" d="M209.84,-220.59C245.32,-211.68 299.75,-198.01 338.69,-188.23"/>
<polygon fill="#63b8ff" stroke="#63b8ff" points="339.42,-191.65 348.27,-185.82 337.72,-184.86 339.42,-191.65"/>
</a>
</g>
</g>
<!-- Node10 -->
<g id="Node000010" class="node">
<title>Node10</title>
<g id="a_Node000010"><a xlink:href="ThermistorReader_8h.html" target="_top" xlink:title=" ">
<polygon fill="white" stroke="#666666" points="338.38,-74.5 205.38,-74.5 205.38,-55.25 338.38,-55.25 338.38,-74.5"/>
<text text-anchor="middle" x="271.88" y="-61" font-family="Helvetica,sans-Serif" font-size="10.00">sensor/ThermistorReader.h</text>
</a>
</g>
</g>
<!-- Node4&#45;&gt;Node10 -->
<g id="edge11_Node000004_Node000010" class="edge">
<title>Node4&#45;&gt;Node10</title>
<g id="a_edge11_Node000004_Node000010"><a xlink:title=" ">
<path fill="none" stroke="#63b8ff" d="M175.48,-220.81C179.61,-199.99 192.11,-146.82 217.88,-110.5 225.96,-99.11 237.65,-88.96 248.1,-81.22"/>
<polygon fill="#63b8ff" stroke="#63b8ff" points="249.78,-84.32 255.96,-75.71 245.76,-78.59 249.78,-84.32"/>
</a>
</g>
</g>
<!-- Node11 -->
<g id="Node000011" class="node">
<title>Node11</title>
<g id="a_Node000011"><a xlink:href="asprintf_8h.html" target="_top" xlink:title=" ">
<polygon fill="white" stroke="#666666" points="282.75,-185 227,-185 227,-165.75 282.75,-165.75 282.75,-185"/>
<text text-anchor="middle" x="254.88" y="-171.5" font-family="Helvetica,sans-Serif" font-size="10.00">asprintf.h</text>
</a>
</g>
</g>
<!-- Node4&#45;&gt;Node11 -->
<g id="edge13_Node000004_Node000011" class="edge">
<title>Node4&#45;&gt;Node11</title>
<g id="a_edge13_Node000004_Node000011"><a xlink:title=" ">
<path fill="none" stroke="#63b8ff" d="M187.62,-220.59C199.6,-212.71 217.25,-201.11 231.46,-191.77"/>
<polygon fill="#63b8ff" stroke="#63b8ff" points="233.37,-194.7 239.8,-186.28 229.52,-188.85 233.37,-194.7"/>
</a>
</g>
</g>
<!-- Node7&#45;&gt;Node5 -->
<g id="edge8_Node000007_Node000005" class="edge">
<title>Node7&#45;&gt;Node5</title>
<g id="a_edge8_Node000007_Node000005"><a xlink:title=" ">
<path fill="none" stroke="#63b8ff" d="M394.39,-165.46C402.18,-156.88 413.58,-143.27 420.88,-129.75 438.51,-97.05 450.38,-55.13 456.36,-30.74"/>
<polygon fill="#63b8ff" stroke="#63b8ff" points="459.72,-31.73 458.6,-21.19 452.91,-30.13 459.72,-31.73"/>
</a>
</g>
</g>
<!-- Node8 -->
<g id="Node000008" class="node">
<title>Node8</title>
<g id="a_Node000008"><a xlink:href="aliases_8h.html" target="_top" xlink:title=" ">
<polygon fill="white" stroke="#666666" points="522,-129.75 467.75,-129.75 467.75,-110.5 522,-110.5 522,-129.75"/>
<text text-anchor="middle" x="494.88" y="-116.25" font-family="Helvetica,sans-Serif" font-size="10.00">aliases.h</text>
</a>
</g>
</g>
<!-- Node7&#45;&gt;Node8 -->
<g id="edge9_Node000007_Node000008" class="edge">
<title>Node7&#45;&gt;Node8</title>
<g id="a_edge9_Node000007_Node000008"><a xlink:title=" ">
<path fill="none" stroke="#63b8ff" d="M404.37,-165.34C421.28,-157.08 446.56,-144.73 466.11,-135.18"/>
<polygon fill="#63b8ff" stroke="#63b8ff" points="467.49,-138.4 474.93,-130.87 464.41,-132.11 467.49,-138.4"/>
</a>
</g>
</g>
<!-- Node9 -->
<g id="Node000009" class="node">
<title>Node9</title>
<g id="a_Node000009"><a xlink:href="Buttons_8h.html" target="_top" xlink:title=" ">
<polygon fill="white" stroke="#666666" points="411.5,-129.75 354.25,-129.75 354.25,-110.5 411.5,-110.5 411.5,-129.75"/>
<text text-anchor="middle" x="382.88" y="-116.25" font-family="Helvetica,sans-Serif" font-size="10.00">Buttons.h</text>
</a>
</g>
</g>
<!-- Node7&#45;&gt;Node9 -->
<g id="edge10_Node000007_Node000009" class="edge">
<title>Node7&#45;&gt;Node9</title>
<g id="a_edge10_Node000007_Node000009"><a xlink:title=" ">
<path fill="none" stroke="#63b8ff" d="M385.38,-165.58C385.01,-158.99 384.49,-149.71 384.01,-141.32"/>
<polygon fill="#63b8ff" stroke="#63b8ff" points="387.52,-141.41 383.47,-131.62 380.53,-141.8 387.52,-141.41"/>
</a>
</g>
</g>
<!-- Node10&#45;&gt;Node5 -->
<g id="edge12_Node000010_Node000005" class="edge">
<title>Node10&#45;&gt;Node5</title>
<g id="a_edge12_Node000010_Node000005"><a xlink:title=" ">
<path fill="none" stroke="#63b8ff" d="M303.94,-54.84C337.86,-45.28 391.22,-30.25 426.13,-20.41"/>
<polygon fill="#63b8ff" stroke="#63b8ff" points="426.64,-23.91 435.31,-17.83 424.74,-17.17 426.64,-23.91"/>
</a>
</g>
</g>
<!-- Node12 -->
<g id="Node000012" class="node">
<title>Node12</title>
<g id="a_Node000012"><a xlink:title=" ">
<polygon fill="#e0e0e0" stroke="#999999" points="336.25,-129.75 289.5,-129.75 289.5,-110.5 336.25,-110.5 336.25,-129.75"/>
<text text-anchor="middle" x="312.88" y="-116.25" font-family="Helvetica,sans-Serif" font-size="10.00">stdlib.h</text>
</a>
</g>
</g>
<!-- Node11&#45;&gt;Node12 -->
<g id="edge14_Node000011_Node000012" class="edge">
<title>Node11&#45;&gt;Node12</title>
<g id="a_edge14_Node000011_Node000012"><a xlink:title=" ">
<path fill="none" stroke="#63b8ff" d="M264.71,-165.34C272.93,-157.8 284.86,-146.85 294.79,-137.73"/>
<polygon fill="#63b8ff" stroke="#63b8ff" points="297.07,-140.39 302.07,-131.05 292.33,-135.23 297.07,-140.39"/>
</a>
</g>
</g>
<!-- Node13 -->
<g id="Node000013" class="node">
<title>Node13</title>
<g id="a_Node000013"><a xlink:title=" ">
<polygon fill="#e0e0e0" stroke="#999999" points="271.12,-129.75 226.62,-129.75 226.62,-110.5 271.12,-110.5 271.12,-129.75"/>
<text text-anchor="middle" x="248.88" y="-116.25" font-family="Helvetica,sans-Serif" font-size="10.00">stdio.h</text>
</a>
</g>
</g>
<!-- Node11&#45;&gt;Node13 -->
<g id="edge15_Node000011_Node000013" class="edge">
<title>Node11&#45;&gt;Node13</title>
<g id="a_edge15_Node000011_Node000013"><a xlink:title=" ">
<path fill="none" stroke="#63b8ff" d="M253.88,-165.58C253.14,-158.99 252.1,-149.71 251.15,-141.32"/>
<polygon fill="#63b8ff" stroke="#63b8ff" points="254.65,-141.16 250.06,-131.61 247.7,-141.94 254.65,-141.16"/>
</a>
</g>
</g>
<!-- Node14&#45;&gt;Node5 -->
<g id="edge17_Node000014_Node000005" class="edge">
<title>Node14&#45;&gt;Node5</title>
<g id="a_edge17_Node000014_Node000005"><a xlink:title=" ">
<path fill="none" stroke="#63b8ff" d="M612.95,-220.61C632.91,-214.01 655.87,-202.98 669.88,-185 705.77,-138.91 728.04,-100.32 690.88,-55.25 666.6,-25.82 554.42,-15.56 496.18,-12.18"/>
<polygon fill="#63b8ff" stroke="#63b8ff" points="496.65,-8.7 486.47,-11.65 496.27,-15.69 496.65,-8.7"/>
</a>
</g>
</g>
<!-- Node14&#45;&gt;Node8 -->
<g id="edge19_Node000014_Node000008" class="edge">
<title>Node14&#45;&gt;Node8</title>
<g id="a_edge19_Node000014_Node000008"><a xlink:title=" ">
<path fill="none" stroke="#63b8ff" d="M538.35,-220.53C520.17,-213.89 499.65,-202.83 488.88,-185 480.93,-171.86 483.28,-154.36 487.14,-141"/>
<polygon fill="#63b8ff" stroke="#63b8ff" points="490.44,-142.16 490.37,-131.57 483.82,-139.89 490.44,-142.16"/>
</a>
</g>
</g>
<!-- Node15 -->
<g id="Node000015" class="node">
<title>Node15</title>
<g id="a_Node000015"><a xlink:title=" ">
<polygon fill="#e0e0e0" stroke="#999999" points="643.88,-185 585.88,-185 585.88,-165.75 643.88,-165.75 643.88,-185"/>
<text text-anchor="middle" x="614.88" y="-171.5" font-family="Helvetica,sans-Serif" font-size="10.00">etl/array.h</text>
</a>
</g>
</g>
<!-- Node14&#45;&gt;Node15 -->
<g id="edge18_Node000014_Node000015" class="edge">
<title>Node14&#45;&gt;Node15</title>
<g id="a_edge18_Node000014_Node000015"><a xlink:title=" ">
<path fill="none" stroke="#63b8ff" d="M580.65,-220.83C586.19,-213.63 594.22,-203.21 601.1,-194.26"/>
<polygon fill="#63b8ff" stroke="#63b8ff" points="603.71,-196.62 607.03,-186.56 598.16,-192.35 603.71,-196.62"/>
</a>
</g>
</g>
<!-- Node16 -->
<g id="Node000016" class="node">
<title>Node16</title>
<g id="a_Node000016"><a xlink:href="Humidistat_8h.html" target="_top" xlink:title=" ">
<polygon fill="white" stroke="#666666" points="568.25,-185 497.5,-185 497.5,-165.75 568.25,-165.75 568.25,-185"/>
<text text-anchor="middle" x="532.88" y="-171.5" font-family="Helvetica,sans-Serif" font-size="10.00">Humidistat.h</text>
</a>
</g>
</g>
<!-- Node14&#45;&gt;Node16 -->
<g id="edge20_Node000014_Node000016" class="edge">
<title>Node14&#45;&gt;Node16</title>
<g id="a_edge20_Node000014_Node000016"><a xlink:title=" ">
<path fill="none" stroke="#63b8ff" d="M567.1,-220.83C561.56,-213.63 553.53,-203.21 546.65,-194.26"/>
<polygon fill="#63b8ff" stroke="#63b8ff" points="549.59,-192.35 540.72,-186.56 544.04,-196.62 549.59,-192.35"/>
</a>
</g>
</g>
<!-- Node19 -->
<g id="Node000019" class="node">
<title>Node19</title>
<g id="a_Node000019"><a xlink:href="EEPROMConfig_8h.html" target="_top" xlink:title=" ">
<polygon fill="white" stroke="#666666" points="681.5,-74.5 582.25,-74.5 582.25,-55.25 681.5,-55.25 681.5,-74.5"/>
<text text-anchor="middle" x="631.88" y="-61" font-family="Helvetica,sans-Serif" font-size="10.00">../EEPROMConfig.h</text>
</a>
</g>
</g>
<!-- Node14&#45;&gt;Node19 -->
<g id="edge28_Node000014_Node000019" class="edge">
<title>Node14&#45;&gt;Node19</title>
<g id="a_edge28_Node000014_Node000019"><a xlink:title=" ">
<path fill="none" stroke="#63b8ff" d="M605.35,-220.53C622.65,-213.74 642.63,-202.55 652.88,-185 671.33,-153.39 654.92,-109.6 642.56,-84.87"/>
<polygon fill="#63b8ff" stroke="#63b8ff" points="645.8,-83.49 638.02,-76.3 639.61,-86.77 645.8,-83.49"/>
</a>
</g>
</g>
<!-- Node16&#45;&gt;Node8 -->
<g id="edge21_Node000016_Node000008" class="edge">
<title>Node16&#45;&gt;Node8</title>
<g id="a_edge21_Node000016_Node000008"><a xlink:title=" ">
<path fill="none" stroke="#63b8ff" d="M526.6,-165.58C521.52,-158.46 514.18,-148.18 507.84,-139.3"/>
<polygon fill="#63b8ff" stroke="#63b8ff" points="510.82,-137.45 502.17,-131.34 505.13,-141.51 510.82,-137.45"/>
</a>
</g>
</g>
<!-- Node17 -->
<g id="Node000017" class="node">
<title>Node17</title>
<g id="a_Node000017"><a xlink:href="Controller_8h.html" target="_top" xlink:title=" ">
<polygon fill="white" stroke="#666666" points="605.25,-129.75 540.5,-129.75 540.5,-110.5 605.25,-110.5 605.25,-129.75"/>
<text text-anchor="middle" x="572.88" y="-116.25" font-family="Helvetica,sans-Serif" font-size="10.00">Controller.h</text>
</a>
</g>
</g>
<!-- Node16&#45;&gt;Node17 -->
<g id="edge22_Node000016_Node000017" class="edge">
<title>Node16&#45;&gt;Node17</title>
<g id="a_edge22_Node000016_Node000017"><a xlink:title=" ">
<path fill="none" stroke="#63b8ff" d="M539.48,-165.58C544.83,-158.46 552.55,-148.18 559.22,-139.3"/>
<polygon fill="#63b8ff" stroke="#63b8ff" points="562.01,-141.42 565.22,-131.32 556.41,-137.21 562.01,-141.42"/>
</a>
</g>
</g>
<!-- Node16&#45;&gt;Node19 -->
<g id="edge27_Node000016_Node000019" class="edge">
<title>Node16&#45;&gt;Node19</title>
<g id="a_edge27_Node000016_Node000019"><a xlink:title=" ">
<path fill="none" stroke="#63b8ff" d="M561.02,-165.27C578.61,-158.21 600.4,-146.73 613.88,-129.75 623.86,-117.18 628.3,-99.37 630.29,-85.74"/>
<polygon fill="#63b8ff" stroke="#63b8ff" points="633.72,-86.51 631.34,-76.19 626.76,-85.75 633.72,-86.51"/>
</a>
</g>
</g>
<!-- Node17&#45;&gt;Node5 -->
<g id="edge23_Node000017_Node000005" class="edge">
<title>Node17&#45;&gt;Node5</title>
<g id="a_edge23_Node000017_Node000005"><a xlink:title=" ">
<path fill="none" stroke="#63b8ff" d="M557.95,-110.09C544.8,-101.75 525.51,-88.56 510.88,-74.5 496.31,-60.51 482.37,-42.14 472.92,-28.7"/>
<polygon fill="#63b8ff" stroke="#63b8ff" points="476.04,-27.05 467.5,-20.78 470.26,-31.01 476.04,-27.05"/>
</a>
</g>
</g>
<!-- Node18 -->
<g id="Node000018" class="node">
<title>Node18</title>
<g id="a_Node000018"><a xlink:href="PID_8h.html" target="_top" xlink:title=" ">
<polygon fill="white" stroke="#666666" points="559.88,-74.5 519.88,-74.5 519.88,-55.25 559.88,-55.25 559.88,-74.5"/>
<text text-anchor="middle" x="539.88" y="-61" font-family="Helvetica,sans-Serif" font-size="10.00">PID.h</text>
</a>
</g>
</g>
<!-- Node17&#45;&gt;Node18 -->
<g id="edge24_Node000017_Node000018" class="edge">
<title>Node17&#45;&gt;Node18</title>
<g id="a_edge24_Node000017_Node000018"><a xlink:title=" ">
<path fill="none" stroke="#63b8ff" d="M567.43,-110.33C563.1,-103.36 556.91,-93.37 551.49,-84.62"/>
<polygon fill="#63b8ff" stroke="#63b8ff" points="554.48,-82.8 546.24,-76.15 548.53,-86.49 554.48,-82.8"/>
</a>
</g>
</g>
<!-- Node17&#45;&gt;Node19 -->
<g id="edge26_Node000017_Node000019" class="edge">
<title>Node17&#45;&gt;Node19</title>
<g id="a_edge26_Node000017_Node000019"><a xlink:title=" ">
<path fill="none" stroke="#63b8ff" d="M582.88,-110.09C591.24,-102.55 603.37,-91.6 613.48,-82.48"/>
<polygon fill="#63b8ff" stroke="#63b8ff" points="615.81,-85.09 620.89,-75.79 611.12,-79.89 615.81,-85.09"/>
</a>
</g>
</g>
<!-- Node18&#45;&gt;Node5 -->
<g id="edge25_Node000018_Node000005" class="edge">
<title>Node18&#45;&gt;Node5</title>
<g id="a_edge25_Node000018_Node000005"><a xlink:title=" ">
<path fill="none" stroke="#63b8ff" d="M526.47,-54.84C514.78,-46.96 497.57,-35.36 483.71,-26.02"/>
<polygon fill="#63b8ff" stroke="#63b8ff" points="485.85,-23.24 475.6,-20.55 481.93,-29.04 485.85,-23.24"/>
</a>
</g>
</g>
</g>
</svg>
