<?xml version="1.0" encoding="UTF-8" standalone="no"?>
<!DOCTYPE svg PUBLIC "-//W3C//DTD SVG 1.1//EN"
 "http://www.w3.org/Graphics/SVG/1.1/DTD/svg11.dtd">
<!-- Generated by graphviz version 12.0.0 (20240704.0754)
 -->
<!-- Title: EEPROMConfig::reset Pages: 1 -->
<svg width="454pt" height="76pt"
 viewBox="0.00 0.00 454.25 75.88" xmlns="http://www.w3.org/2000/svg" xmlns:xlink="http://www.w3.org/1999/xlink">
<g id="graph0" class="graph" transform="scale(1 1) rotate(0) translate(4 71.88)">
<title>EEPROMConfig::reset</title>
<!-- Node1 -->
<g id="Node000001" class="node">
<title>Node1</title>
<g id="a_Node000001"><a xlink:title="Reset the config store: overwrite the configStore with the default values.">
<polygon fill="#999999" stroke="#666666" points="446.25,-40.25 335.75,-40.25 335.75,-21 446.25,-21 446.25,-40.25"/>
<text text-anchor="middle" x="391" y="-26.75" font-family="Helvetica,sans-Serif" font-size="10.00">EEPROMConfig::reset</text>
</a>
</g>
</g>
<!-- Node2 -->
<g id="Node000002" class="node">
<title>Node2</title>
<g id="a_Node000002"><a xlink:href="classGraphicalDisplayUI.html#a17cd12ba983e77b6f766bac994b09f49" target="_top" xlink:title="Handle input on the Config tab.">
<polygon fill="white" stroke="#666666" points="296,-67.88 196.75,-67.88 196.75,-37.38 296,-37.38 296,-67.88"/>
<text text-anchor="start" x="204.75" y="-54.38" font-family="Helvetica,sans-Serif" font-size="10.00">GraphicalDisplayUI</text>
<text text-anchor="middle" x="246.38" y="-43.12" font-family="Helvetica,sans-Serif" font-size="10.00">::handleInputConfig</text>
</a>
</g>
</g>
<!-- Node1&#45;&gt;Node2 -->
<g id="edge1_Node000001_Node000002" class="edge">
<title>Node1&#45;&gt;Node2</title>
<g id="a_edge1_Node000001_Node000002"><a xlink:title=" ">
<path fill="none" stroke="#63b8ff" d="M323.95,-40.81C314.58,-42.26 305.09,-43.72 296.13,-45.1"/>
<polygon fill="#63b8ff" stroke="#63b8ff" points="324.42,-44.28 333.77,-39.3 323.35,-37.36 324.42,-44.28"/>
</a>
</g>
</g>
<!-- Node4 -->
<g id="Node000004" class="node">
<title>Node4</title>
<g id="a_Node000004"><a xlink:href="classEEPROMConfig.html#a88ca7504a4c1d8ed44e3c37ed2764ba3" target="_top" xlink:title="Load config values from EEPROM into configStore.">
<polygon fill="white" stroke="#666666" points="299.75,-19.25 193,-19.25 193,0 299.75,0 299.75,-19.25"/>
<text text-anchor="middle" x="246.38" y="-5.75" font-family="Helvetica,sans-Serif" font-size="10.00">EEPROMConfig::load</text>
</a>
</g>
</g>
<!-- Node1&#45;&gt;Node4 -->
<g id="edge3_Node000001_Node000004" class="edge">
<title>Node1&#45;&gt;Node4</title>
<g id="a_edge3_Node000001_Node000004"><a xlink:title=" ">
<path fill="none" stroke="#63b8ff" d="M323.95,-20.9C315.86,-19.71 307.69,-18.51 299.85,-17.35"/>
<polygon fill="#63b8ff" stroke="#63b8ff" points="323.36,-24.35 333.77,-22.35 324.38,-17.43 323.36,-24.35"/>
</a>
</g>
</g>
<!-- Node3 -->
<g id="Node000003" class="node">
<title>Node3</title>
<g id="a_Node000003"><a xlink:href="classGraphicalDisplayUI.html#a3e340b5f072ed6a4251069f4a408e4b0" target="_top" xlink:title="Handle input.">
<polygon fill="white" stroke="#666666" points="128.12,-67.88 28.88,-67.88 28.88,-37.38 128.12,-37.38 128.12,-67.88"/>
<text text-anchor="start" x="36.88" y="-54.38" font-family="Helvetica,sans-Serif" font-size="10.00">GraphicalDisplayUI</text>
<text text-anchor="middle" x="78.5" y="-43.12" font-family="Helvetica,sans-Serif" font-size="10.00">::handleInput</text>
</a>
</g>
</g>
<!-- Node2&#45;&gt;Node3 -->
<g id="edge2_Node000002_Node000003" class="edge">
<title>Node2&#45;&gt;Node3</title>
<g id="a_edge2_Node000002_Node000003"><a xlink:title=" ">
<path fill="none" stroke="#63b8ff" d="M185.18,-52.62C166.59,-52.62 146.34,-52.62 128.59,-52.62"/>
<polygon fill="#63b8ff" stroke="#63b8ff" points="184.99,-56.13 194.99,-52.63 184.99,-49.13 184.99,-56.13"/>
</a>
</g>
</g>
<!-- Node5 -->
<g id="Node000005" class="node">
<title>Node5</title>
<g id="a_Node000005"><a xlink:href="classEEPROMConfig.html#af870a201def01a3ac797f240a8e96188" target="_top" xlink:title="Constructor.">
<polygon fill="white" stroke="#666666" points="157,-19.25 0,-19.25 0,0 157,0 157,-19.25"/>
<text text-anchor="middle" x="78.5" y="-5.75" font-family="Helvetica,sans-Serif" font-size="10.00">EEPROMConfig::EEPROMConfig</text>
</a>
</g>
</g>
<!-- Node4&#45;&gt;Node5 -->
<g id="edge4_Node000004_Node000005" class="edge">
<title>Node4&#45;&gt;Node5</title>
<g id="a_edge4_Node000004_Node000005"><a xlink:title=" ">
<path fill="none" stroke="#63b8ff" d="M181.53,-9.62C173.63,-9.62 165.48,-9.62 157.4,-9.62"/>
<polygon fill="#63b8ff" stroke="#63b8ff" points="181.38,-13.13 191.38,-9.63 181.38,-6.13 181.38,-13.13"/>
</a>
</g>
</g>
</g>
</svg>
