<?xml version="1.0" encoding="UTF-8" standalone="no"?>
<!DOCTYPE svg PUBLIC "-//W3C//DTD SVG 1.1//EN"
 "http://www.w3.org/Graphics/SVG/1.1/DTD/svg11.dtd">
<!-- Generated by graphviz version 12.0.0 (20240704.0754)
 -->
<!-- Title: GraphicalDisplayUI::drawTabInfo Pages: 1 -->
<svg width="535pt" height="65pt"
 viewBox="0.00 0.00 534.75 65.25" xmlns="http://www.w3.org/2000/svg" xmlns:xlink="http://www.w3.org/1999/xlink">
<g id="graph0" class="graph" transform="scale(1 1) rotate(0) translate(4 61.25)">
<title>GraphicalDisplayUI::drawTabInfo</title>
<!-- Node1 -->
<g id="Node000001" class="node">
<title>Node1</title>
<g id="a_Node000001"><a xlink:title=" ">
<polygon fill="#999999" stroke="#666666" points="99.25,-43.88 0,-43.88 0,-13.37 99.25,-13.37 99.25,-43.88"/>
<text text-anchor="start" x="8" y="-30.38" font-family="Helvetica,sans-Serif" font-size="10.00">GraphicalDisplayUI</text>
<text text-anchor="middle" x="49.62" y="-19.12" font-family="Helvetica,sans-Serif" font-size="10.00">::drawTabInfo</text>
</a>
</g>
</g>
<!-- Node2 -->
<g id="Node000002" class="node">
<title>Node2</title>
<g id="a_Node000002"><a xlink:href="classControllerUI.html#aa14a64631f7993d6e22ac9e6f5bf4b44" target="_top" xlink:title="Print formatted data to display, at (col, row). Calculates lengths and creates appropriate buffer int...">
<polygon fill="white" stroke="#666666" points="376.5,-38.25 282.5,-38.25 282.5,-19 376.5,-19 376.5,-38.25"/>
<text text-anchor="middle" x="329.5" y="-24.75" font-family="Helvetica,sans-Serif" font-size="10.00">ControllerUI::printf</text>
</a>
</g>
</g>
<!-- Node1&#45;&gt;Node2 -->
<g id="edge1_Node000001_Node000002" class="edge">
<title>Node1&#45;&gt;Node2</title>
<g id="a_edge1_Node000001_Node000002"><a xlink:title=" ">
<path fill="none" stroke="#63b8ff" d="M99.66,-28.62C147.51,-28.62 220.28,-28.62 270.86,-28.62"/>
<polygon fill="#63b8ff" stroke="#63b8ff" points="270.75,-32.13 280.75,-28.63 270.75,-25.13 270.75,-32.13"/>
</a>
</g>
</g>
<!-- Node5 -->
<g id="Node000005" class="node">
<title>Node5</title>
<g id="a_Node000005"><a xlink:href="classControllerUI.html#abfabf4c49c12dcb8ee5e8b5a899cc920" target="_top" xlink:title="Print temperature read from thermistors. Handles NaN values as 0.">
<polygon fill="white" stroke="#666666" points="246.5,-19.25 135.25,-19.25 135.25,0 246.5,0 246.5,-19.25"/>
<text text-anchor="middle" x="190.88" y="-5.75" font-family="Helvetica,sans-Serif" font-size="10.00">ControllerUI::printNTC</text>
</a>
</g>
</g>
<!-- Node1&#45;&gt;Node5 -->
<g id="edge4_Node000001_Node000005" class="edge">
<title>Node1&#45;&gt;Node5</title>
<g id="a_edge4_Node000001_Node000005"><a xlink:title=" ">
<path fill="none" stroke="#63b8ff" d="M99.72,-21.93C107.49,-20.87 115.63,-19.75 123.72,-18.65"/>
<polygon fill="#63b8ff" stroke="#63b8ff" points="124.12,-22.13 133.56,-17.31 123.18,-15.19 124.12,-22.13"/>
</a>
</g>
</g>
<!-- Node3 -->
<g id="Node000003" class="node">
<title>Node3</title>
<g id="a_Node000003"><a xlink:href="asprintf_8h.html#a8e2a40be4816c793857112b1960e912b" target="_top" xlink:title="Print formatted data to string. Automatically allocates string on the heap. Make sure to delete it im...">
<polygon fill="white" stroke="#666666" points="493.75,-57.25 445.5,-57.25 445.5,-38 493.75,-38 493.75,-57.25"/>
<text text-anchor="middle" x="469.62" y="-43.75" font-family="Helvetica,sans-Serif" font-size="10.00">asprintf</text>
</a>
</g>
</g>
<!-- Node2&#45;&gt;Node3 -->
<g id="edge2_Node000002_Node000003" class="edge">
<title>Node2&#45;&gt;Node3</title>
<g id="a_edge2_Node000002_Node000003"><a xlink:title=" ">
<path fill="none" stroke="#63b8ff" d="M376.88,-35C395.47,-37.56 416.53,-40.46 433.78,-42.83"/>
<polygon fill="#63b8ff" stroke="#63b8ff" points="433.16,-46.28 443.54,-44.17 434.11,-39.34 433.16,-46.28"/>
</a>
</g>
</g>
<!-- Node4 -->
<g id="Node000004" class="node">
<title>Node4</title>
<g id="a_Node000004"><a xlink:href="classControllerUI.html#a94aed853c67197d32434244f8941c21e" target="_top" xlink:title="Set cursor to coordinates.">
<polygon fill="white" stroke="#666666" points="526.75,-20.25 412.5,-20.25 412.5,-1 526.75,-1 526.75,-20.25"/>
<text text-anchor="middle" x="469.62" y="-6.75" font-family="Helvetica,sans-Serif" font-size="10.00">ControllerUI::setCursor</text>
</a>
</g>
</g>
<!-- Node2&#45;&gt;Node4 -->
<g id="edge3_Node000002_Node000004" class="edge">
<title>Node2&#45;&gt;Node4</title>
<g id="a_edge3_Node000002_Node000004"><a xlink:title=" ">
<path fill="none" stroke="#63b8ff" d="M376.88,-22.58C384.55,-21.58 392.64,-20.53 400.71,-19.48"/>
<polygon fill="#63b8ff" stroke="#63b8ff" points="401.09,-22.96 410.56,-18.19 400.19,-16.01 401.09,-22.96"/>
</a>
</g>
</g>
<!-- Node5&#45;&gt;Node2 -->
<g id="edge5_Node000005_Node000002" class="edge">
<title>Node5&#45;&gt;Node2</title>
<g id="a_edge5_Node000005_Node000002"><a xlink:title=" ">
<path fill="none" stroke="#63b8ff" d="M246.66,-17.24C254.63,-18.35 262.86,-19.5 270.89,-20.61"/>
<polygon fill="#63b8ff" stroke="#63b8ff" points="270.17,-24.05 280.55,-21.96 271.13,-17.11 270.17,-24.05"/>
</a>
</g>
</g>
</g>
</svg>
