<?xml version="1.0" encoding="UTF-8" standalone="no"?>
<!DOCTYPE svg PUBLIC "-//W3C//DTD SVG 1.1//EN"
 "http://www.w3.org/Graphics/SVG/1.1/DTD/svg11.dtd">
<!-- Generated by graphviz version 12.0.0 (20240704.0754)
 -->
<!-- Title: CharDisplayUI::handleInput Pages: 1 -->
<svg width="300pt" height="101pt"
 viewBox="0.00 0.00 300.25 101.25" xmlns="http://www.w3.org/2000/svg" xmlns:xlink="http://www.w3.org/1999/xlink">
<g id="graph0" class="graph" transform="scale(1 1) rotate(0) translate(4 97.25)">
<title>CharDisplayUI::handleInput</title>
<!-- Node1 -->
<g id="Node000001" class="node">
<title>Node1</title>
<g id="a_Node000001"><a xlink:title="Handle input.">
<polygon fill="#999999" stroke="#666666" points="133,-56.25 0,-56.25 0,-37 133,-37 133,-56.25"/>
<text text-anchor="middle" x="66.5" y="-42.75" font-family="Helvetica,sans-Serif" font-size="10.00">CharDisplayUI::handleInput</text>
</a>
</g>
</g>
<!-- Node2 -->
<g id="Node000002" class="node">
<title>Node2</title>
<g id="a_Node000002"><a xlink:href="classControllerUI.html#a227e9eb131da08502bf707ac33bccab3" target="_top" xlink:title="In&#45;/de&#45;crement a variable, while clipping it to [min, max].">
<polygon fill="white" stroke="#666666" points="292.25,-93.25 169,-93.25 169,-74 292.25,-74 292.25,-93.25"/>
<text text-anchor="middle" x="230.62" y="-79.75" font-family="Helvetica,sans-Serif" font-size="10.00">ControllerUI::adjustValue</text>
</a>
</g>
</g>
<!-- Node1&#45;&gt;Node2 -->
<g id="edge1_Node000001_Node000002" class="edge">
<title>Node1&#45;&gt;Node2</title>
<g id="a_edge1_Node000001_Node000002"><a xlink:title=" ">
<path fill="none" stroke="#63b8ff" d="M111.8,-56.74C131.1,-61.14 153.93,-66.35 174.33,-71.01"/>
<polygon fill="#63b8ff" stroke="#63b8ff" points="173.37,-74.38 183.9,-73.19 174.93,-67.55 173.37,-74.38"/>
</a>
</g>
</g>
<!-- Node3 -->
<g id="Node000003" class="node">
<title>Node3</title>
<g id="a_Node000003"><a xlink:href="classHumidistat.html#a4bf25f4c2465e52423379ff99aae2960" target="_top" xlink:title=" ">
<polygon fill="white" stroke="#666666" points="286.25,-56.25 175,-56.25 175,-37 286.25,-37 286.25,-56.25"/>
<text text-anchor="middle" x="230.62" y="-42.75" font-family="Helvetica,sans-Serif" font-size="10.00">Humidistat::getCvMax</text>
</a>
</g>
</g>
<!-- Node1&#45;&gt;Node3 -->
<g id="edge2_Node000001_Node000003" class="edge">
<title>Node1&#45;&gt;Node3</title>
<g id="a_edge2_Node000001_Node000003"><a xlink:title=" ">
<path fill="none" stroke="#63b8ff" d="M133.44,-46.62C143.27,-46.62 153.41,-46.62 163.25,-46.62"/>
<polygon fill="#63b8ff" stroke="#63b8ff" points="163.11,-50.13 173.11,-46.63 163.11,-43.13 163.11,-50.13"/>
</a>
</g>
</g>
<!-- Node4 -->
<g id="Node000004" class="node">
<title>Node4</title>
<g id="a_Node000004"><a xlink:href="classHumidistat.html#a14b5fa1effc029cfb6afc43de5a44712" target="_top" xlink:title=" ">
<polygon fill="white" stroke="#666666" points="285.12,-19.25 176.12,-19.25 176.12,0 285.12,0 285.12,-19.25"/>
<text text-anchor="middle" x="230.62" y="-5.75" font-family="Helvetica,sans-Serif" font-size="10.00">Humidistat::getCvMin</text>
</a>
</g>
</g>
<!-- Node1&#45;&gt;Node4 -->
<g id="edge3_Node000001_Node000004" class="edge">
<title>Node1&#45;&gt;Node4</title>
<g id="a_edge3_Node000001_Node000004"><a xlink:title=" ">
<path fill="none" stroke="#63b8ff" d="M111.8,-36.51C131.1,-32.11 153.93,-26.9 174.33,-22.24"/>
<polygon fill="#63b8ff" stroke="#63b8ff" points="174.93,-25.7 183.9,-20.06 173.37,-18.87 174.93,-25.7"/>
</a>
</g>
</g>
</g>
</svg>
