<?xml version="1.0" encoding="UTF-8" standalone="no"?>
<!DOCTYPE svg PUBLIC "-//W3C//DTD SVG 1.1//EN"
 "http://www.w3.org/Graphics/SVG/1.1/DTD/svg11.dtd">
<!-- Generated by graphviz version 12.0.0 (20240704.0754)
 -->
<!-- Title: GraphicalDisplayUI::handleInputMain Pages: 1 -->
<svg width="267pt" height="162pt"
 viewBox="0.00 0.00 266.50 161.88" xmlns="http://www.w3.org/2000/svg" xmlns:xlink="http://www.w3.org/1999/xlink">
<g id="graph0" class="graph" transform="scale(1 1) rotate(0) translate(4 157.88)">
<title>GraphicalDisplayUI::handleInputMain</title>
<!-- Node1 -->
<g id="Node000001" class="node">
<title>Node1</title>
<g id="a_Node000001"><a xlink:title="Handle input on the Main tab.">
<polygon fill="#999999" stroke="#666666" points="99.25,-100.5 0,-100.5 0,-70 99.25,-70 99.25,-100.5"/>
<text text-anchor="start" x="8" y="-87" font-family="Helvetica,sans-Serif" font-size="10.00">GraphicalDisplayUI</text>
<text text-anchor="middle" x="49.62" y="-75.75" font-family="Helvetica,sans-Serif" font-size="10.00">::handleInputMain</text>
</a>
</g>
</g>
<!-- Node2 -->
<g id="Node000002" class="node">
<title>Node2</title>
<g id="a_Node000002"><a xlink:href="classControllerUI.html#a227e9eb131da08502bf707ac33bccab3" target="_top" xlink:title="In&#45;/de&#45;crement a variable, while clipping it to [min, max].">
<polygon fill="white" stroke="#666666" points="258.5,-153.88 135.25,-153.88 135.25,-134.62 258.5,-134.62 258.5,-153.88"/>
<text text-anchor="middle" x="196.88" y="-140.38" font-family="Helvetica,sans-Serif" font-size="10.00">ControllerUI::adjustValue</text>
</a>
</g>
</g>
<!-- Node1&#45;&gt;Node2 -->
<g id="edge1_Node000001_Node000002" class="edge">
<title>Node1&#45;&gt;Node2</title>
<g id="a_edge1_Node000001_Node000002"><a xlink:title=" ">
<path fill="none" stroke="#63b8ff" d="M79.87,-100.87C95.93,-109.08 116.38,-118.93 135.25,-126.25 139.17,-127.77 143.26,-129.23 147.4,-130.63"/>
<polygon fill="#63b8ff" stroke="#63b8ff" points="146.33,-133.96 156.92,-133.69 148.47,-127.3 146.33,-133.96"/>
</a>
</g>
</g>
<!-- Node3 -->
<g id="Node000003" class="node">
<title>Node3</title>
<g id="a_Node000003"><a xlink:href="advanceEnum_8h.html#a4c6cbb4b80fa575a2819ca1d5e7cc1a2" target="_top" xlink:title="Cycle through (advance) an enum.">
<polygon fill="white" stroke="#666666" points="235.62,-116.88 158.12,-116.88 158.12,-97.62 235.62,-97.62 235.62,-116.88"/>
<text text-anchor="middle" x="196.88" y="-103.38" font-family="Helvetica,sans-Serif" font-size="10.00">advanceEnum</text>
</a>
</g>
</g>
<!-- Node1&#45;&gt;Node3 -->
<g id="edge2_Node000001_Node000003" class="edge">
<title>Node1&#45;&gt;Node3</title>
<g id="a_edge2_Node000001_Node000003"><a xlink:title=" ">
<path fill="none" stroke="#63b8ff" d="M99.4,-92.64C114.63,-94.94 131.44,-97.49 146.71,-99.8"/>
<polygon fill="#63b8ff" stroke="#63b8ff" points="146.12,-103.25 156.53,-101.29 147.17,-96.33 146.12,-103.25"/>
</a>
</g>
</g>
<!-- Node4 -->
<g id="Node000004" class="node">
<title>Node4</title>
<g id="a_Node000004"><a xlink:href="classSetpointProfileRunner.html#a1c11d6fe1d34db313e8bc78cc08ab19f" target="_top" xlink:title="Set the profile.">
<polygon fill="white" stroke="#666666" points="251.75,-79.5 142,-79.5 142,-49 251.75,-49 251.75,-79.5"/>
<text text-anchor="start" x="150" y="-66" font-family="Helvetica,sans-Serif" font-size="10.00">SetpointProfileRunner</text>
<text text-anchor="middle" x="196.88" y="-54.75" font-family="Helvetica,sans-Serif" font-size="10.00">::setProfile</text>
</a>
</g>
</g>
<!-- Node1&#45;&gt;Node4 -->
<g id="edge3_Node000001_Node000004" class="edge">
<title>Node1&#45;&gt;Node4</title>
<g id="a_edge3_Node000001_Node000004"><a xlink:title=" ">
<path fill="none" stroke="#63b8ff" d="M99.4,-78.2C109.38,-76.76 120.05,-75.21 130.51,-73.7"/>
<polygon fill="#63b8ff" stroke="#63b8ff" points="130.84,-77.19 140.24,-72.29 129.84,-70.26 130.84,-77.19"/>
</a>
</g>
</g>
<!-- Node5 -->
<g id="Node000005" class="node">
<title>Node5</title>
<g id="a_Node000005"><a xlink:href="classSetpointProfileRunner.html#ace14da515f49645e5901523d0864dd23" target="_top" xlink:title="Toggle the run state.">
<polygon fill="white" stroke="#666666" points="251.75,-30.5 142,-30.5 142,0 251.75,0 251.75,-30.5"/>
<text text-anchor="start" x="150" y="-17" font-family="Helvetica,sans-Serif" font-size="10.00">SetpointProfileRunner</text>
<text text-anchor="middle" x="196.88" y="-5.75" font-family="Helvetica,sans-Serif" font-size="10.00">::toggle</text>
</a>
</g>
</g>
<!-- Node1&#45;&gt;Node5 -->
<g id="edge4_Node000001_Node000005" class="edge">
<title>Node1&#45;&gt;Node5</title>
<g id="a_edge4_Node000001_Node000005"><a xlink:title=" ">
<path fill="none" stroke="#63b8ff" d="M78.48,-69.55C94.82,-60.57 115.98,-49.32 135.25,-40.25 138.7,-38.62 142.29,-37 145.92,-35.39"/>
<polygon fill="#63b8ff" stroke="#63b8ff" points="146.99,-38.75 154.78,-31.57 144.21,-32.32 146.99,-38.75"/>
</a>
</g>
</g>
</g>
</svg>
