<?xml version="1.0" encoding="UTF-8" standalone="no"?>
<!DOCTYPE svg PUBLIC "-//W3C//DTD SVG 1.1//EN"
 "http://www.w3.org/Graphics/SVG/1.1/DTD/svg11.dtd">
<!-- Generated by graphviz version 12.0.0 (20240704.0754)
 -->
<!-- Title: CascadeHumidistat::update Pages: 1 -->
<svg width="515pt" height="140pt"
 viewBox="0.00 0.00 514.50 140.25" xmlns="http://www.w3.org/2000/svg" xmlns:xlink="http://www.w3.org/1999/xlink">
<g id="graph0" class="graph" transform="scale(1 1) rotate(0) translate(4 136.25)">
<title>CascadeHumidistat::update</title>
<!-- Node1 -->
<g id="Node000001" class="node">
<title>Node1</title>
<g id="a_Node000001"><a xlink:title=" ">
<polygon fill="#999999" stroke="#666666" points="106,-99.88 0,-99.88 0,-69.38 106,-69.38 106,-99.88"/>
<text text-anchor="start" x="8" y="-86.38" font-family="Helvetica,sans-Serif" font-size="10.00">CascadeHumidistat::</text>
<text text-anchor="middle" x="53" y="-75.12" font-family="Helvetica,sans-Serif" font-size="10.00">update</text>
</a>
</g>
</g>
<!-- Node2 -->
<g id="Node000002" class="node">
<title>Node2</title>
<g id="a_Node000002"><a xlink:href="classHumidistat.html#ae30511d6477f5996de05996bdf221730" target="_top" xlink:title="Run a cycle of the controller. Reads a sample from the humidity controller and runs PID.">
<polygon fill="white" stroke="#666666" points="250.62,-113.25 145.38,-113.25 145.38,-94 250.62,-94 250.62,-113.25"/>
<text text-anchor="middle" x="198" y="-99.75" font-family="Helvetica,sans-Serif" font-size="10.00">Humidistat::runCycle</text>
</a>
</g>
</g>
<!-- Node1&#45;&gt;Node2 -->
<g id="edge1_Node000001_Node000002" class="edge">
<title>Node1&#45;&gt;Node2</title>
<g id="a_edge1_Node000001_Node000002"><a xlink:title=" ">
<path fill="none" stroke="#63b8ff" d="M106.44,-91.59C115.29,-92.77 124.57,-94 133.67,-95.21"/>
<polygon fill="#63b8ff" stroke="#63b8ff" points="133.17,-98.68 143.55,-96.52 134.1,-91.74 133.17,-98.68"/>
</a>
</g>
</g>
<!-- Node7 -->
<g id="Node000007" class="node">
<title>Node7</title>
<g id="a_Node000007"><a xlink:href="classFlowController.html#a67e791323a0cd95c97266135ba2ecde2" target="_top" xlink:title=" ">
<polygon fill="white" stroke="#666666" points="254,-76.25 142,-76.25 142,-57 254,-57 254,-76.25"/>
<text text-anchor="middle" x="198" y="-62.75" font-family="Helvetica,sans-Serif" font-size="10.00">FlowController::update</text>
</a>
</g>
</g>
<!-- Node1&#45;&gt;Node7 -->
<g id="edge6_Node000001_Node000007" class="edge">
<title>Node1&#45;&gt;Node7</title>
<g id="a_edge6_Node000001_Node000007"><a xlink:title=" ">
<path fill="none" stroke="#63b8ff" d="M106.44,-78.02C114.24,-77.04 122.37,-76.02 130.41,-75.01"/>
<polygon fill="#63b8ff" stroke="#63b8ff" points="130.7,-78.5 140.19,-73.78 129.83,-71.55 130.7,-78.5"/>
</a>
</g>
</g>
<!-- Node3 -->
<g id="Node000003" class="node">
<title>Node3</title>
<g id="a_Node000003"><a xlink:href="classPID.html#a742098de1dc845731f9bc86ebf01fb01" target="_top" xlink:title="Run a cycle of the PID loop.">
<polygon fill="white" stroke="#666666" points="391.5,-132.25 317,-132.25 317,-113 391.5,-113 391.5,-132.25"/>
<text text-anchor="middle" x="354.25" y="-118.75" font-family="Helvetica,sans-Serif" font-size="10.00">PID::compute</text>
</a>
</g>
</g>
<!-- Node2&#45;&gt;Node3 -->
<g id="edge2_Node000002_Node000003" class="edge">
<title>Node2&#45;&gt;Node3</title>
<g id="a_edge2_Node000002_Node000003"><a xlink:title=" ">
<path fill="none" stroke="#63b8ff" d="M250.79,-110C268.6,-112.2 288.43,-114.64 305.87,-116.79"/>
<polygon fill="#63b8ff" stroke="#63b8ff" points="305.08,-120.22 315.43,-117.97 305.93,-113.27 305.08,-120.22"/>
</a>
</g>
</g>
<!-- Node5 -->
<g id="Node000005" class="node">
<title>Node5</title>
<g id="a_Node000005"><a xlink:href="classPID.html#a05e62644ef9b7c0f3b1bb34631150ab4" target="_top" xlink:title="Set the mode of the controller.">
<polygon fill="white" stroke="#666666" points="389.62,-95.25 318.88,-95.25 318.88,-76 389.62,-76 389.62,-95.25"/>
<text text-anchor="middle" x="354.25" y="-81.75" font-family="Helvetica,sans-Serif" font-size="10.00">PID::setAuto</text>
</a>
</g>
</g>
<!-- Node2&#45;&gt;Node5 -->
<g id="edge4_Node000002_Node000005" class="edge">
<title>Node2&#45;&gt;Node5</title>
<g id="a_edge4_Node000002_Node000005"><a xlink:title=" ">
<path fill="none" stroke="#63b8ff" d="M250.79,-97.58C269.17,-95.44 289.71,-93.04 307.55,-90.96"/>
<polygon fill="#63b8ff" stroke="#63b8ff" points="307.8,-94.45 317.32,-89.82 306.98,-87.5 307.8,-94.45"/>
</a>
</g>
</g>
<!-- Node4 -->
<g id="Node000004" class="node">
<title>Node4</title>
<g id="a_Node000004"><a xlink:href="classPID.html#a0e64deb10d189ef873ec4e672a1c79f2" target="_top" xlink:title="Clip value to [cvMin, cvMax].">
<polygon fill="white" stroke="#666666" points="506.5,-132.25 454.5,-132.25 454.5,-113 506.5,-113 506.5,-132.25"/>
<text text-anchor="middle" x="480.5" y="-118.75" font-family="Helvetica,sans-Serif" font-size="10.00">PID::clip</text>
</a>
</g>
</g>
<!-- Node3&#45;&gt;Node4 -->
<g id="edge3_Node000003_Node000004" class="edge">
<title>Node3&#45;&gt;Node4</title>
<g id="a_edge3_Node000003_Node000004"><a xlink:title=" ">
<path fill="none" stroke="#63b8ff" d="M391.86,-122.62C407.99,-122.62 426.89,-122.62 443.01,-122.62"/>
<polygon fill="#63b8ff" stroke="#63b8ff" points="442.66,-126.13 452.66,-122.63 442.66,-119.13 442.66,-126.13"/>
</a>
</g>
</g>
<!-- Node6 -->
<g id="Node000006" class="node">
<title>Node6</title>
<g id="a_Node000006"><a xlink:href="classPID.html#a0ccd3a3e6e64a2560077ea76bf71e417" target="_top" xlink:title="Method to be called when the controller goes from manual to auto mode for proper bumpless transfer.">
<polygon fill="white" stroke="#666666" points="505.38,-95.25 455.62,-95.25 455.62,-76 505.38,-76 505.38,-95.25"/>
<text text-anchor="middle" x="480.5" y="-81.75" font-family="Helvetica,sans-Serif" font-size="10.00">PID::init</text>
</a>
</g>
</g>
<!-- Node5&#45;&gt;Node6 -->
<g id="edge5_Node000005_Node000006" class="edge">
<title>Node5&#45;&gt;Node6</title>
<g id="a_edge5_Node000005_Node000006"><a xlink:title=" ">
<path fill="none" stroke="#63b8ff" d="M389.86,-85.62C406.78,-85.62 427.11,-85.62 444.13,-85.62"/>
<polygon fill="#63b8ff" stroke="#63b8ff" points="443.79,-89.13 453.79,-85.63 443.79,-82.13 443.79,-89.13"/>
</a>
</g>
</g>
<!-- Node7&#45;&gt;Node3 -->
<g id="edge7_Node000007_Node000003" class="edge">
<title>Node7&#45;&gt;Node3</title>
<g id="a_edge7_Node000007_Node000003"><a xlink:title=" ">
<path fill="none" stroke="#63b8ff" d="M233.12,-76.67C240.12,-79.04 247.37,-81.73 254,-84.62 270.77,-91.95 273.09,-97.63 290,-104.62 295.01,-106.7 300.34,-108.62 305.7,-110.38"/>
<polygon fill="#63b8ff" stroke="#63b8ff" points="304.6,-113.7 315.19,-113.3 306.67,-107.01 304.6,-113.7"/>
</a>
</g>
</g>
<!-- Node7&#45;&gt;Node5 -->
<g id="edge12_Node000007_Node000005" class="edge">
<title>Node7&#45;&gt;Node5</title>
<g id="a_edge12_Node000007_Node000005"><a xlink:title=" ">
<path fill="none" stroke="#63b8ff" d="M254.25,-73.43C271.67,-75.58 290.71,-77.92 307.4,-79.98"/>
<polygon fill="#63b8ff" stroke="#63b8ff" points="306.68,-83.41 317.03,-81.16 307.53,-76.47 306.68,-83.41"/>
</a>
</g>
</g>
<!-- Node8 -->
<g id="Node000008" class="node">
<title>Node8</title>
<g id="a_Node000008"><a xlink:href="imath_8h.html#aa86632c19b4d57acb96ac9e9cd3e13e1" target="_top" xlink:title="Constexpr function for computing integer power.">
<polygon fill="white" stroke="#666666" points="498.62,-30.25 462.38,-30.25 462.38,-11 498.62,-11 498.62,-30.25"/>
<text text-anchor="middle" x="480.5" y="-16.75" font-family="Helvetica,sans-Serif" font-size="10.00">ipow</text>
</a>
</g>
</g>
<!-- Node7&#45;&gt;Node8 -->
<g id="edge8_Node000007_Node000008" class="edge">
<title>Node7&#45;&gt;Node8</title>
<g id="a_edge8_Node000007_Node000008"><a xlink:title=" ">
<path fill="none" stroke="#63b8ff" d="M254.42,-57.54C313.48,-47.85 404.7,-32.89 450.77,-25.34"/>
<polygon fill="#63b8ff" stroke="#63b8ff" points="451.19,-28.81 460.49,-23.74 450.06,-21.91 451.19,-28.81"/>
</a>
</g>
</g>
<!-- Node9 -->
<g id="Node000009" class="node">
<title>Node9</title>
<g id="a_Node000009"><a xlink:href="classFlowSensor.html#af13c74f7fd6fed9e163292e2b840ca8e" target="_top" xlink:title="Read the flow rate.">
<polygon fill="white" stroke="#666666" points="418.5,-19.25 290,-19.25 290,0 418.5,0 418.5,-19.25"/>
<text text-anchor="middle" x="354.25" y="-5.75" font-family="Helvetica,sans-Serif" font-size="10.00">FlowSensor::readFlowrate</text>
</a>
</g>
</g>
<!-- Node7&#45;&gt;Node9 -->
<g id="edge10_Node000007_Node000009" class="edge">
<title>Node7&#45;&gt;Node9</title>
<g id="a_edge10_Node000007_Node000009"><a xlink:title=" ">
<path fill="none" stroke="#63b8ff" d="M226.22,-56.57C251.04,-47.4 287.93,-33.76 315.57,-23.55"/>
<polygon fill="#63b8ff" stroke="#63b8ff" points="316.45,-26.95 324.62,-20.2 314.03,-20.39 316.45,-26.95"/>
</a>
</g>
</g>
<!-- Node8&#45;&gt;Node8 -->
<g id="edge9_Node000008_Node000008" class="edge">
<title>Node8&#45;&gt;Node8</title>
<g id="a_edge9_Node000008_Node000008"><a xlink:title=" ">
<path fill="none" stroke="#63b8ff" d="M462.03,-29.39C451.16,-38.32 457.32,-48.25 480.5,-48.25 494.62,-48.25 502.43,-44.56 503.91,-39.66"/>
<polygon fill="#63b8ff" stroke="#63b8ff" points="507.12,-38.25 499.63,-30.76 500.81,-41.29 507.12,-38.25"/>
</a>
</g>
</g>
<!-- Node9&#45;&gt;Node8 -->
<g id="edge11_Node000009_Node000008" class="edge">
<title>Node9&#45;&gt;Node8</title>
<g id="a_edge11_Node000009_Node000008"><a xlink:title=" ">
<path fill="none" stroke="#63b8ff" d="M418.83,-15.25C430,-16.24 441.1,-17.23 450.7,-18.08"/>
<polygon fill="#63b8ff" stroke="#63b8ff" points="450.16,-21.54 460.43,-18.94 450.78,-14.57 450.16,-21.54"/>
</a>
</g>
</g>
</g>
</svg>
