<?xml version="1.0" encoding="UTF-8" standalone="no"?>
<!DOCTYPE svg PUBLIC "-//W3C//DTD SVG 1.1//EN"
 "http://www.w3.org/Graphics/SVG/1.1/DTD/svg11.dtd">
<!-- Generated by graphviz version 12.0.0 (20240704.0754)
 -->
<!-- Title: Controller Pages: 1 -->
<svg width="124pt" height="94pt"
 viewBox="0.00 0.00 124.38 93.75" xmlns="http://www.w3.org/2000/svg" xmlns:xlink="http://www.w3.org/1999/xlink">
<g id="graph0" class="graph" transform="scale(1 1) rotate(0) translate(4 89.75)">
<title>Controller</title>
<!-- Node1 -->
<g id="Node000001" class="node">
<title>Node1</title>
<g id="a_Node000001"><a xlink:title="Base class for a controller. Owns a PID instance, and holds a reference to a ConfigStore instance.">
<polygon fill="#999999" stroke="#666666" points="77.88,-19.25 20.63,-19.25 20.63,0 77.88,0 77.88,-19.25"/>
<text text-anchor="middle" x="49.25" y="-5.75" font-family="Helvetica,sans-Serif" font-size="10.00">Controller</text>
</a>
</g>
</g>
<!-- Node2 -->
<g id="Node000002" class="node">
<title>Node2</title>
<g id="a_Node000002"><a xlink:href="classPID.html" target="_top" xlink:title="PID controller in parallel form implemented in floating&#45;point arithmetic. Features Derivative&#45;on&#45;Meas...">
<polygon fill="white" stroke="#666666" points="32.5,-85.75 0,-85.75 0,-66.5 32.5,-66.5 32.5,-85.75"/>
<text text-anchor="middle" x="16.25" y="-72.25" font-family="Helvetica,sans-Serif" font-size="10.00">PID</text>
</a>
</g>
</g>
<!-- Node2&#45;&gt;Node1 -->
<g id="edge1_Node000001_Node000002" class="edge">
<title>Node2&#45;&gt;Node1</title>
<g id="a_edge1_Node000001_Node000002"><a xlink:title=" ">
<path fill="none" stroke="#9a32cd" stroke-dasharray="5,2" d="M25.96,-56.14C32.15,-44.04 39.89,-28.92 44.7,-19.52"/>
<polygon fill="#9a32cd" stroke="#9a32cd" points="22.97,-54.31 21.53,-64.81 29.2,-57.5 22.97,-54.31"/>
</a>
</g>
<text text-anchor="middle" x="42.75" y="-39" font-family="Helvetica,sans-Serif" font-size="10.00" fill="grey"> pid</text>
</g>
<!-- Node3 -->
<g id="Node000003" class="node">
<title>Node3</title>
<g id="a_Node000003"><a xlink:href="structConfigStore.html" target="_top" xlink:title="Config store containing variables, which can be stored in EEPROM.">
<polygon fill="white" stroke="#666666" points="116.38,-85.75 50.12,-85.75 50.12,-66.5 116.38,-66.5 116.38,-85.75"/>
<text text-anchor="middle" x="83.25" y="-72.25" font-family="Helvetica,sans-Serif" font-size="10.00">ConfigStore</text>
</a>
</g>
</g>
<!-- Node3&#45;&gt;Node1 -->
<g id="edge2_Node000001_Node000003" class="edge">
<title>Node3&#45;&gt;Node1</title>
<g id="a_edge2_Node000001_Node000003"><a xlink:title=" ">
<path fill="none" stroke="#9a32cd" stroke-dasharray="5,2" d="M73.24,-56.14C66.86,-44.04 58.89,-28.92 53.94,-19.52"/>
<polygon fill="#9a32cd" stroke="#9a32cd" points="70.06,-57.6 77.82,-64.82 76.25,-54.34 70.06,-57.6"/>
</a>
</g>
<text text-anchor="middle" x="74.62" y="-39" font-family="Helvetica,sans-Serif" font-size="10.00" fill="grey"> cs</text>
</g>
</g>
</svg>
