<?xml version="1.0" encoding="UTF-8" standalone="no"?>
<!DOCTYPE svg PUBLIC "-//W3C//DTD SVG 1.1//EN"
 "http://www.w3.org/Graphics/SVG/1.1/DTD/svg11.dtd">
<!-- Generated by graphviz version 12.0.0 (20240704.0754)
 -->
<!-- Title: EEPROMConfig::load Pages: 1 -->
<svg width="261pt" height="64pt"
 viewBox="0.00 0.00 261.25 64.25" xmlns="http://www.w3.org/2000/svg" xmlns:xlink="http://www.w3.org/1999/xlink">
<g id="graph0" class="graph" transform="scale(1 1) rotate(0) translate(4 60.25)">
<title>EEPROMConfig::load</title>
<!-- Node1 -->
<g id="Node000001" class="node">
<title>Node1</title>
<g id="a_Node000001"><a xlink:title="Load config values from EEPROM into configStore.">
<polygon fill="#999999" stroke="#666666" points="106.75,-37.25 0,-37.25 0,-18 106.75,-18 106.75,-37.25"/>
<text text-anchor="middle" x="53.38" y="-23.75" font-family="Helvetica,sans-Serif" font-size="10.00">EEPROMConfig::load</text>
</a>
</g>
</g>
<!-- Node2 -->
<g id="Node000002" class="node">
<title>Node2</title>
<g id="a_Node000002"><a xlink:href="classEEPROMConfig.html#a389d1170c790427a9d5fb6643c340b21" target="_top" xlink:title="Reset the config store: overwrite the configStore with the default values.">
<polygon fill="white" stroke="#666666" points="253.25,-56.25 142.75,-56.25 142.75,-37 253.25,-37 253.25,-56.25"/>
<text text-anchor="middle" x="198" y="-42.75" font-family="Helvetica,sans-Serif" font-size="10.00">EEPROMConfig::reset</text>
</a>
</g>
</g>
<!-- Node1&#45;&gt;Node2 -->
<g id="edge1_Node000001_Node000002" class="edge">
<title>Node1&#45;&gt;Node2</title>
<g id="a_edge1_Node000001_Node000002"><a xlink:title=" ">
<path fill="none" stroke="#63b8ff" d="M107.08,-34.65C114.95,-35.69 123.15,-36.79 131.26,-37.87"/>
<polygon fill="#63b8ff" stroke="#63b8ff" points="130.73,-41.33 141.1,-39.18 131.65,-34.39 130.73,-41.33"/>
</a>
</g>
</g>
<!-- Node3 -->
<g id="Node000003" class="node">
<title>Node3</title>
<g id="a_Node000003"><a xlink:href="classEEPROMConfig.html#a3ccccd29dcfe0a56152c2d9382fa2f0d" target="_top" xlink:title="Saves current content of configStore into EEPROM.">
<polygon fill="white" stroke="#666666" points="252.88,-19.25 143.12,-19.25 143.12,0 252.88,0 252.88,-19.25"/>
<text text-anchor="middle" x="198" y="-5.75" font-family="Helvetica,sans-Serif" font-size="10.00">EEPROMConfig::save</text>
</a>
</g>
</g>
<!-- Node1&#45;&gt;Node3 -->
<g id="edge2_Node000001_Node000003" class="edge">
<title>Node1&#45;&gt;Node3</title>
<g id="a_edge2_Node000001_Node000003"><a xlink:title=" ">
<path fill="none" stroke="#63b8ff" d="M107.08,-20.97C115.15,-19.95 123.57,-18.89 131.87,-17.84"/>
<polygon fill="#63b8ff" stroke="#63b8ff" points="132.1,-21.34 141.58,-16.62 131.22,-14.4 132.1,-21.34"/>
</a>
</g>
</g>
</g>
</svg>
