<?xml version="1.0" encoding="UTF-8" standalone="no"?>
<!DOCTYPE svg PUBLIC "-//W3C//DTD SVG 1.1//EN"
 "http://www.w3.org/Graphics/SVG/1.1/DTD/svg11.dtd">
<!-- Generated by graphviz version 12.0.0 (20240704.0754)
 -->
<!-- Title: ControllerUI::setCursor Pages: 1 -->
<svg width="684pt" height="194pt"
 viewBox="0.00 0.00 683.50 193.51" xmlns="http://www.w3.org/2000/svg" xmlns:xlink="http://www.w3.org/1999/xlink">
<g id="graph0" class="graph" transform="scale(1 1) rotate(0) translate(4 189.51)">
<title>ControllerUI::setCursor</title>
<!-- Node1 -->
<g id="Node000001" class="node">
<title>Node1</title>
<g id="a_Node000001"><a xlink:title="Set cursor to coordinates.">
<polygon fill="#999999" stroke="#666666" points="675.5,-120.88 561.25,-120.88 561.25,-101.62 675.5,-101.62 675.5,-120.88"/>
<text text-anchor="middle" x="618.38" y="-107.38" font-family="Helvetica,sans-Serif" font-size="10.00">ControllerUI::setCursor</text>
</a>
</g>
</g>
<!-- Node2 -->
<g id="Node000002" class="node">
<title>Node2</title>
<g id="a_Node000002"><a xlink:href="classControllerUI.html#af385bdf29e1075733d91b845fb771506" target="_top" xlink:title="Print blinking text.">
<polygon fill="white" stroke="#666666" points="524.5,-161.88 432,-161.88 432,-142.62 524.5,-142.62 524.5,-161.88"/>
<text text-anchor="middle" x="478.25" y="-148.38" font-family="Helvetica,sans-Serif" font-size="10.00">ControllerUI::blink</text>
</a>
</g>
</g>
<!-- Node1&#45;&gt;Node2 -->
<g id="edge1_Node000001_Node000002" class="edge">
<title>Node1&#45;&gt;Node2</title>
<g id="a_edge1_Node000001_Node000002"><a xlink:title=" ">
<path fill="none" stroke="#63b8ff" d="M572.61,-124.54C553.3,-130.27 531.08,-136.86 513.17,-142.18"/>
<polygon fill="#63b8ff" stroke="#63b8ff" points="573.54,-127.91 582.13,-121.71 571.55,-121.2 573.54,-127.91"/>
</a>
</g>
</g>
<!-- Node5 -->
<g id="Node000005" class="node">
<title>Node5</title>
<g id="a_Node000005"><a xlink:href="classControllerUI.html#aa14a64631f7993d6e22ac9e6f5bf4b44" target="_top" xlink:title="Print formatted data to display, at (col, row). Calculates lengths and creates appropriate buffer int...">
<polygon fill="white" stroke="#666666" points="525.25,-99.88 431.25,-99.88 431.25,-80.62 525.25,-80.62 525.25,-99.88"/>
<text text-anchor="middle" x="478.25" y="-86.38" font-family="Helvetica,sans-Serif" font-size="10.00">ControllerUI::printf</text>
</a>
</g>
</g>
<!-- Node1&#45;&gt;Node5 -->
<g id="edge4_Node000001_Node000005" class="edge">
<title>Node1&#45;&gt;Node5</title>
<g id="a_edge4_Node000001_Node000005"><a xlink:title=" ">
<path fill="none" stroke="#63b8ff" d="M549.66,-100.95C541.45,-99.71 533.21,-98.45 525.41,-97.27"/>
<polygon fill="#63b8ff" stroke="#63b8ff" points="548.89,-104.38 559.3,-102.42 549.94,-97.46 548.89,-104.38"/>
</a>
</g>
</g>
<!-- Node3 -->
<g id="Node000003" class="node">
<title>Node3</title>
<g id="a_Node000003"><a xlink:href="classCharDisplayUI.html#aef739ad8856b975fdd25ffdf9fa86601" target="_top" xlink:title="Draw main interface (main loop).">
<polygon fill="white" stroke="#666666" points="239,-118.88 135.25,-118.88 135.25,-99.62 239,-99.62 239,-118.88"/>
<text text-anchor="middle" x="187.12" y="-105.38" font-family="Helvetica,sans-Serif" font-size="10.00">CharDisplayUI::draw</text>
</a>
</g>
</g>
<!-- Node2&#45;&gt;Node3 -->
<g id="edge2_Node000002_Node000003" class="edge">
<title>Node2&#45;&gt;Node3</title>
<g id="a_edge2_Node000002_Node000003"><a xlink:title=" ">
<path fill="none" stroke="#63b8ff" d="M440.7,-166C399.4,-179.4 330.68,-195.23 275,-176.25 241.47,-164.82 210.8,-134.63 196.54,-118.98"/>
<polygon fill="#63b8ff" stroke="#63b8ff" points="441.81,-169.32 450.16,-162.8 439.56,-162.69 441.81,-169.32"/>
</a>
</g>
</g>
<!-- Node4 -->
<g id="Node000004" class="node">
<title>Node4</title>
<g id="a_Node000004"><a xlink:href="classGraphicalDisplayUI.html#af69808890fcfb2bd088ac73aa6f7563c" target="_top" xlink:title="Draw common elements in Main tab.">
<polygon fill="white" stroke="#666666" points="386.62,-167.5 283.62,-167.5 283.62,-137 386.62,-137 386.62,-167.5"/>
<text text-anchor="start" x="291.62" y="-154" font-family="Helvetica,sans-Serif" font-size="10.00">GraphicalDisplayUI</text>
<text text-anchor="middle" x="335.12" y="-142.75" font-family="Helvetica,sans-Serif" font-size="10.00">::DrawMainCommon</text>
</a>
</g>
</g>
<!-- Node2&#45;&gt;Node4 -->
<g id="edge3_Node000002_Node000004" class="edge">
<title>Node2&#45;&gt;Node4</title>
<g id="a_edge3_Node000002_Node000004"><a xlink:title=" ">
<path fill="none" stroke="#63b8ff" d="M420.46,-152.25C409.34,-152.25 397.75,-152.25 386.85,-152.25"/>
<polygon fill="#63b8ff" stroke="#63b8ff" points="420.31,-155.75 430.31,-152.25 420.31,-148.75 420.31,-155.75"/>
</a>
</g>
</g>
<!-- Node5&#45;&gt;Node3 -->
<g id="edge5_Node000005_Node000003" class="edge">
<title>Node5&#45;&gt;Node3</title>
<g id="a_edge5_Node000005_Node000003"><a xlink:title=" ">
<path fill="none" stroke="#63b8ff" d="M419.62,-94.04C366.98,-97.5 289.86,-102.56 239.34,-105.88"/>
<polygon fill="#63b8ff" stroke="#63b8ff" points="419.54,-97.55 429.29,-93.4 419.08,-90.57 419.54,-97.55"/>
</a>
</g>
</g>
<!-- Node5&#45;&gt;Node4 -->
<g id="edge7_Node000005_Node000004" class="edge">
<title>Node5&#45;&gt;Node4</title>
<g id="a_edge7_Node000005_Node000004"><a xlink:title=" ">
<path fill="none" stroke="#63b8ff" d="M443.89,-104.91C422.2,-114.43 393.94,-126.85 371.8,-136.58"/>
<polygon fill="#63b8ff" stroke="#63b8ff" points="445.13,-108.18 452.88,-100.96 442.31,-101.78 445.13,-108.18"/>
</a>
</g>
</g>
<!-- Node6 -->
<g id="Node000006" class="node">
<title>Node6</title>
<g id="a_Node000006"><a xlink:href="classCharDisplayUI.html#ae63b61a0868ed1e42d48567a0621a13a" target="_top" xlink:title="Draw info screen.">
<polygon fill="white" stroke="#666666" points="395.25,-80.88 275,-80.88 275,-61.62 395.25,-61.62 395.25,-80.88"/>
<text text-anchor="middle" x="335.12" y="-67.38" font-family="Helvetica,sans-Serif" font-size="10.00">CharDisplayUI::drawInfo</text>
</a>
</g>
</g>
<!-- Node5&#45;&gt;Node6 -->
<g id="edge6_Node000005_Node000006" class="edge">
<title>Node5&#45;&gt;Node6</title>
<g id="a_edge6_Node000005_Node000006"><a xlink:title=" ">
<path fill="none" stroke="#63b8ff" d="M419.9,-82.53C411.88,-81.45 403.62,-80.34 395.56,-79.25"/>
<polygon fill="#63b8ff" stroke="#63b8ff" points="419.16,-85.96 429.54,-83.83 420.1,-79.02 419.16,-85.96"/>
</a>
</g>
</g>
<!-- Node7 -->
<g id="Node000007" class="node">
<title>Node7</title>
<g id="a_Node000007"><a xlink:href="classGraphicalDisplayUI.html#a41ae47f8e4d0bd909b6d2be9765cdbc4" target="_top" xlink:title=" ">
<polygon fill="white" stroke="#666666" points="236.75,-30.5 137.5,-30.5 137.5,0 236.75,0 236.75,-30.5"/>
<text text-anchor="start" x="145.5" y="-17" font-family="Helvetica,sans-Serif" font-size="10.00">GraphicalDisplayUI</text>
<text text-anchor="middle" x="187.12" y="-5.75" font-family="Helvetica,sans-Serif" font-size="10.00">::drawTabInfo</text>
</a>
</g>
</g>
<!-- Node5&#45;&gt;Node7 -->
<g id="edge8_Node000005_Node000007" class="edge">
<title>Node5&#45;&gt;Node7</title>
<g id="a_edge8_Node000005_Node000007"><a xlink:title=" ">
<path fill="none" stroke="#63b8ff" d="M463.5,-71.3C448.93,-53 424.06,-26.44 395.25,-15.25 343.96,4.67 280,0.78 236.83,-5.58"/>
<polygon fill="#63b8ff" stroke="#63b8ff" points="460.55,-73.21 469.41,-79.04 466.12,-68.97 460.55,-73.21"/>
</a>
</g>
</g>
<!-- Node9 -->
<g id="Node000009" class="node">
<title>Node9</title>
<g id="a_Node000009"><a xlink:href="classControllerUI.html#abfabf4c49c12dcb8ee5e8b5a899cc920" target="_top" xlink:title="Print temperature read from thermistors. Handles NaN values as 0.">
<polygon fill="white" stroke="#666666" points="390.75,-43.88 279.5,-43.88 279.5,-24.62 390.75,-24.62 390.75,-43.88"/>
<text text-anchor="middle" x="335.12" y="-30.38" font-family="Helvetica,sans-Serif" font-size="10.00">ControllerUI::printNTC</text>
</a>
</g>
</g>
<!-- Node5&#45;&gt;Node9 -->
<g id="edge10_Node000005_Node000009" class="edge">
<title>Node5&#45;&gt;Node9</title>
<g id="a_edge10_Node000005_Node000009"><a xlink:title=" ">
<path fill="none" stroke="#63b8ff" d="M447.71,-75.35C432.3,-67.89 413,-59.03 395.25,-52.25 387.83,-49.42 379.76,-46.72 372.04,-44.31"/>
<polygon fill="#63b8ff" stroke="#63b8ff" points="445.82,-78.32 456.34,-79.59 448.9,-72.04 445.82,-78.32"/>
</a>
</g>
</g>
<!-- Node8 -->
<g id="Node000008" class="node">
<title>Node8</title>
<g id="a_Node000008"><a xlink:href="classGraphicalDisplayUI.html#aa73a9c30736b609bcef2b75c7aed1970" target="_top" xlink:title="Draw main interface (main loop).">
<polygon fill="white" stroke="#666666" points="99.25,-30.5 0,-30.5 0,0 99.25,0 99.25,-30.5"/>
<text text-anchor="start" x="8" y="-17" font-family="Helvetica,sans-Serif" font-size="10.00">GraphicalDisplayUI</text>
<text text-anchor="middle" x="49.62" y="-5.75" font-family="Helvetica,sans-Serif" font-size="10.00">::draw</text>
</a>
</g>
</g>
<!-- Node7&#45;&gt;Node8 -->
<g id="edge9_Node000007_Node000008" class="edge">
<title>Node7&#45;&gt;Node8</title>
<g id="a_edge9_Node000007_Node000008"><a xlink:title=" ">
<path fill="none" stroke="#63b8ff" d="M125.78,-15.25C116.98,-15.25 108.01,-15.25 99.47,-15.25"/>
<polygon fill="#63b8ff" stroke="#63b8ff" points="125.69,-18.75 135.69,-15.25 125.69,-11.75 125.69,-18.75"/>
</a>
</g>
</g>
<!-- Node9&#45;&gt;Node3 -->
<g id="edge11_Node000009_Node000003" class="edge">
<title>Node9&#45;&gt;Node3</title>
<g id="a_edge11_Node000009_Node000003"><a xlink:title=" ">
<path fill="none" stroke="#63b8ff" d="M284.67,-48.13C281.36,-49.42 278.11,-50.79 275,-52.25 246.74,-65.49 217,-86.87 200.69,-99.33"/>
<polygon fill="#63b8ff" stroke="#63b8ff" points="285.7,-51.49 293.94,-44.82 283.34,-44.89 285.7,-51.49"/>
</a>
</g>
</g>
<!-- Node9&#45;&gt;Node7 -->
<g id="edge12_Node000009_Node000007" class="edge">
<title>Node9&#45;&gt;Node7</title>
<g id="a_edge12_Node000009_Node000007"><a xlink:title=" ">
<path fill="none" stroke="#63b8ff" d="M268.1,-25.66C257.62,-24.29 246.95,-22.91 236.97,-21.61"/>
<polygon fill="#63b8ff" stroke="#63b8ff" points="267.48,-29.11 277.84,-26.93 268.38,-22.16 267.48,-29.11"/>
</a>
</g>
</g>
</g>
</svg>
