<?xml version="1.0" encoding="UTF-8" standalone="no"?>
<!DOCTYPE svg PUBLIC "-//W3C//DTD SVG 1.1//EN"
 "http://www.w3.org/Graphics/SVG/1.1/DTD/svg11.dtd">
<!-- Generated by graphviz version 12.0.0 (20240704.0754)
 -->
<!-- Title: Humidistat::runCycle Pages: 1 -->
<svg width="273pt" height="76pt"
 viewBox="0.00 0.00 273.25 75.88" xmlns="http://www.w3.org/2000/svg" xmlns:xlink="http://www.w3.org/1999/xlink">
<g id="graph0" class="graph" transform="scale(1 1) rotate(0) translate(4 71.88)">
<title>Humidistat::runCycle</title>
<!-- Node1 -->
<g id="Node000001" class="node">
<title>Node1</title>
<g id="a_Node000001"><a xlink:title="Run a cycle of the controller. Reads a sample from the humidity controller and runs PID.">
<polygon fill="#999999" stroke="#666666" points="265.25,-40.25 160,-40.25 160,-21 265.25,-21 265.25,-40.25"/>
<text text-anchor="middle" x="212.62" y="-26.75" font-family="Helvetica,sans-Serif" font-size="10.00">Humidistat::runCycle</text>
</a>
</g>
</g>
<!-- Node2 -->
<g id="Node000002" class="node">
<title>Node2</title>
<g id="a_Node000002"><a xlink:href="classCascadeHumidistat.html#a5a4f6ad4f30f5f033462af46d47cf959" target="_top" xlink:title=" ">
<polygon fill="white" stroke="#666666" points="115,-67.88 9,-67.88 9,-37.38 115,-37.38 115,-67.88"/>
<text text-anchor="start" x="17" y="-54.38" font-family="Helvetica,sans-Serif" font-size="10.00">CascadeHumidistat::</text>
<text text-anchor="middle" x="62" y="-43.12" font-family="Helvetica,sans-Serif" font-size="10.00">update</text>
</a>
</g>
</g>
<!-- Node1&#45;&gt;Node2 -->
<g id="edge1_Node000001_Node000002" class="edge">
<title>Node1&#45;&gt;Node2</title>
<g id="a_edge1_Node000001_Node000002"><a xlink:title=" ">
<path fill="none" stroke="#63b8ff" d="M148.37,-39.99C137.4,-41.61 126.1,-43.28 115.46,-44.86"/>
<polygon fill="#63b8ff" stroke="#63b8ff" points="148.77,-43.47 158.15,-38.54 147.74,-36.54 148.77,-43.47"/>
</a>
</g>
</g>
<!-- Node3 -->
<g id="Node000003" class="node">
<title>Node3</title>
<g id="a_Node000003"><a xlink:href="classSingleHumidistat.html#af667a97d9c89b5801dab0956f88acd70" target="_top" xlink:title=" ">
<polygon fill="white" stroke="#666666" points="124,-19.25 0,-19.25 0,0 124,0 124,-19.25"/>
<text text-anchor="middle" x="62" y="-5.75" font-family="Helvetica,sans-Serif" font-size="10.00">SingleHumidistat::update</text>
</a>
</g>
</g>
<!-- Node1&#45;&gt;Node3 -->
<g id="edge2_Node000001_Node000003" class="edge">
<title>Node1&#45;&gt;Node3</title>
<g id="a_edge2_Node000001_Node000003"><a xlink:title=" ">
<path fill="none" stroke="#63b8ff" d="M148.51,-21.71C140.52,-20.58 132.35,-19.42 124.39,-18.3"/>
<polygon fill="#63b8ff" stroke="#63b8ff" points="147.75,-25.13 158.14,-23.07 148.73,-18.2 147.75,-25.13"/>
</a>
</g>
</g>
</g>
</svg>
