<?xml version="1.0" encoding="UTF-8" standalone="no"?>
<!DOCTYPE svg PUBLIC "-//W3C//DTD SVG 1.1//EN"
 "http://www.w3.org/Graphics/SVG/1.1/DTD/svg11.dtd">
<!-- Generated by graphviz version 12.0.0 (20240704.0754)
 -->
<!-- Title: SingleHumidistat Pages: 1 -->
<svg width="124pt" height="206pt"
 viewBox="0.00 0.00 124.38 206.25" xmlns="http://www.w3.org/2000/svg" xmlns:xlink="http://www.w3.org/1999/xlink">
<g id="graph0" class="graph" transform="scale(1 1) rotate(0) translate(4 202.25)">
<title>SingleHumidistat</title>
<!-- Node1 -->
<g id="Node000001" class="node">
<title>Node1</title>
<g id="a_Node000001"><a xlink:title="Control humidity using PID by driving two solenoid valves. Adjust the public setpoint variable and ca...">
<polygon fill="#999999" stroke="#666666" points="94.38,-19.25 4.12,-19.25 4.12,0 94.38,0 94.38,-19.25"/>
<text text-anchor="middle" x="49.25" y="-5.75" font-family="Helvetica,sans-Serif" font-size="10.00">SingleHumidistat</text>
</a>
</g>
</g>
<!-- Node2 -->
<g id="Node000002" class="node">
<title>Node2</title>
<g id="a_Node000002"><a xlink:href="classHumidistat.html" target="_top" xlink:title="Base class for a humidistat. Holds a reference to a HumiditySensor instance.">
<polygon fill="white" stroke="#666666" points="80.88,-75.5 17.62,-75.5 17.62,-56.25 80.88,-56.25 80.88,-75.5"/>
<text text-anchor="middle" x="49.25" y="-62" font-family="Helvetica,sans-Serif" font-size="10.00">Humidistat</text>
</a>
</g>
</g>
<!-- Node2&#45;&gt;Node1 -->
<g id="edge1_Node000001_Node000002" class="edge">
<title>Node2&#45;&gt;Node1</title>
<g id="a_edge1_Node000001_Node000002"><a xlink:title=" ">
<path fill="none" stroke="#63b8ff" d="M49.25,-44.69C49.25,-35.98 49.25,-26.24 49.25,-19.42"/>
<polygon fill="#63b8ff" stroke="#63b8ff" points="45.75,-44.4 49.25,-54.4 52.75,-44.4 45.75,-44.4"/>
</a>
</g>
</g>
<!-- Node3 -->
<g id="Node000003" class="node">
<title>Node3</title>
<g id="a_Node000003"><a xlink:href="classController.html" target="_top" xlink:title="Base class for a controller. Owns a PID instance, and holds a reference to a ConfigStore instance.">
<polygon fill="white" stroke="#666666" points="77.88,-131.75 20.63,-131.75 20.63,-112.5 77.88,-112.5 77.88,-131.75"/>
<text text-anchor="middle" x="49.25" y="-118.25" font-family="Helvetica,sans-Serif" font-size="10.00">Controller</text>
</a>
</g>
</g>
<!-- Node3&#45;&gt;Node2 -->
<g id="edge2_Node000002_Node000003" class="edge">
<title>Node3&#45;&gt;Node2</title>
<g id="a_edge2_Node000002_Node000003"><a xlink:title=" ">
<path fill="none" stroke="#63b8ff" d="M49.25,-100.94C49.25,-92.23 49.25,-82.49 49.25,-75.67"/>
<polygon fill="#63b8ff" stroke="#63b8ff" points="45.75,-100.65 49.25,-110.65 52.75,-100.65 45.75,-100.65"/>
</a>
</g>
</g>
<!-- Node4 -->
<g id="Node000004" class="node">
<title>Node4</title>
<g id="a_Node000004"><a xlink:href="classPID.html" target="_top" xlink:title="PID controller in parallel form implemented in floating&#45;point arithmetic. Features Derivative&#45;on&#45;Meas...">
<polygon fill="white" stroke="#666666" points="32.5,-198.25 0,-198.25 0,-179 32.5,-179 32.5,-198.25"/>
<text text-anchor="middle" x="16.25" y="-184.75" font-family="Helvetica,sans-Serif" font-size="10.00">PID</text>
</a>
</g>
</g>
<!-- Node4&#45;&gt;Node3 -->
<g id="edge3_Node000003_Node000004" class="edge">
<title>Node4&#45;&gt;Node3</title>
<g id="a_edge3_Node000003_Node000004"><a xlink:title=" ">
<path fill="none" stroke="#9a32cd" stroke-dasharray="5,2" d="M25.96,-168.64C32.15,-156.54 39.89,-141.42 44.7,-132.02"/>
<polygon fill="#9a32cd" stroke="#9a32cd" points="22.97,-166.81 21.53,-177.31 29.2,-170 22.97,-166.81"/>
</a>
</g>
<text text-anchor="middle" x="42.75" y="-151.5" font-family="Helvetica,sans-Serif" font-size="10.00" fill="grey"> pid</text>
</g>
<!-- Node5 -->
<g id="Node000005" class="node">
<title>Node5</title>
<g id="a_Node000005"><a xlink:href="structConfigStore.html" target="_top" xlink:title="Config store containing variables, which can be stored in EEPROM.">
<polygon fill="white" stroke="#666666" points="116.38,-198.25 50.12,-198.25 50.12,-179 116.38,-179 116.38,-198.25"/>
<text text-anchor="middle" x="83.25" y="-184.75" font-family="Helvetica,sans-Serif" font-size="10.00">ConfigStore</text>
</a>
</g>
</g>
<!-- Node5&#45;&gt;Node3 -->
<g id="edge4_Node000003_Node000005" class="edge">
<title>Node5&#45;&gt;Node3</title>
<g id="a_edge4_Node000003_Node000005"><a xlink:title=" ">
<path fill="none" stroke="#9a32cd" stroke-dasharray="5,2" d="M73.24,-168.64C66.86,-156.54 58.89,-141.42 53.94,-132.02"/>
<polygon fill="#9a32cd" stroke="#9a32cd" points="70.06,-170.1 77.82,-177.32 76.25,-166.84 70.06,-170.1"/>
</a>
</g>
<text text-anchor="middle" x="74.62" y="-151.5" font-family="Helvetica,sans-Serif" font-size="10.00" fill="grey"> cs</text>
</g>
</g>
</svg>
