<?xml version="1.0" encoding="UTF-8" standalone="no"?>
<!DOCTYPE svg PUBLIC "-//W3C//DTD SVG 1.1//EN"
 "http://www.w3.org/Graphics/SVG/1.1/DTD/svg11.dtd">
<!-- Generated by graphviz version 12.0.0 (20240704.0754)
 -->
<!-- Title: FlowController::update Pages: 1 -->
<svg width="373pt" height="140pt"
 viewBox="0.00 0.00 372.50 140.25" xmlns="http://www.w3.org/2000/svg" xmlns:xlink="http://www.w3.org/1999/xlink">
<g id="graph0" class="graph" transform="scale(1 1) rotate(0) translate(4 136.25)">
<title>FlowController::update</title>
<!-- Node1 -->
<g id="Node000001" class="node">
<title>Node1</title>
<g id="a_Node000001"><a xlink:title=" ">
<polygon fill="#999999" stroke="#666666" points="112,-75.25 0,-75.25 0,-56 112,-56 112,-75.25"/>
<text text-anchor="middle" x="56" y="-61.75" font-family="Helvetica,sans-Serif" font-size="10.00">FlowController::update</text>
</a>
</g>
</g>
<!-- Node2 -->
<g id="Node000002" class="node">
<title>Node2</title>
<g id="a_Node000002"><a xlink:href="classPID.html#a742098de1dc845731f9bc86ebf01fb01" target="_top" xlink:title="Run a cycle of the PID loop.">
<polygon fill="white" stroke="#666666" points="249.5,-132.25 175,-132.25 175,-113 249.5,-113 249.5,-132.25"/>
<text text-anchor="middle" x="212.25" y="-118.75" font-family="Helvetica,sans-Serif" font-size="10.00">PID::compute</text>
</a>
</g>
</g>
<!-- Node1&#45;&gt;Node2 -->
<g id="edge1_Node000001_Node000002" class="edge">
<title>Node1&#45;&gt;Node2</title>
<g id="a_edge1_Node000001_Node000002"><a xlink:title=" ">
<path fill="none" stroke="#63b8ff" d="M84.22,-75.68C109.04,-84.85 145.93,-98.49 173.57,-108.7"/>
<polygon fill="#63b8ff" stroke="#63b8ff" points="172.03,-111.86 182.62,-112.05 174.45,-105.3 172.03,-111.86"/>
</a>
</g>
</g>
<!-- Node4 -->
<g id="Node000004" class="node">
<title>Node4</title>
<g id="a_Node000004"><a xlink:href="imath_8h.html#aa86632c19b4d57acb96ac9e9cd3e13e1" target="_top" xlink:title="Constexpr function for computing integer power.">
<polygon fill="white" stroke="#666666" points="356.62,-67.25 320.38,-67.25 320.38,-48 356.62,-48 356.62,-67.25"/>
<text text-anchor="middle" x="338.5" y="-53.75" font-family="Helvetica,sans-Serif" font-size="10.00">ipow</text>
</a>
</g>
</g>
<!-- Node1&#45;&gt;Node4 -->
<g id="edge3_Node000001_Node000004" class="edge">
<title>Node1&#45;&gt;Node4</title>
<g id="a_edge3_Node000001_Node000004"><a xlink:title=" ">
<path fill="none" stroke="#63b8ff" d="M112.09,-67.61C156.52,-68.73 220.6,-69.27 276.5,-65.62 287.07,-64.93 298.61,-63.58 308.78,-62.18"/>
<polygon fill="#63b8ff" stroke="#63b8ff" points="309.06,-65.67 318.44,-60.76 308.04,-58.75 309.06,-65.67"/>
</a>
</g>
</g>
<!-- Node5 -->
<g id="Node000005" class="node">
<title>Node5</title>
<g id="a_Node000005"><a xlink:href="classFlowSensor.html#af13c74f7fd6fed9e163292e2b840ca8e" target="_top" xlink:title="Read the flow rate.">
<polygon fill="white" stroke="#666666" points="276.5,-56.25 148,-56.25 148,-37 276.5,-37 276.5,-56.25"/>
<text text-anchor="middle" x="212.25" y="-42.75" font-family="Helvetica,sans-Serif" font-size="10.00">FlowSensor::readFlowrate</text>
</a>
</g>
</g>
<!-- Node1&#45;&gt;Node5 -->
<g id="edge5_Node000001_Node000005" class="edge">
<title>Node1&#45;&gt;Node5</title>
<g id="a_edge5_Node000001_Node000005"><a xlink:title=" ">
<path fill="none" stroke="#63b8ff" d="M112.25,-58.82C120.07,-57.86 128.21,-56.85 136.32,-55.86"/>
<polygon fill="#63b8ff" stroke="#63b8ff" points="136.72,-59.33 146.22,-54.64 135.87,-52.38 136.72,-59.33"/>
</a>
</g>
</g>
<!-- Node6 -->
<g id="Node000006" class="node">
<title>Node6</title>
<g id="a_Node000006"><a xlink:href="classPID.html#a05e62644ef9b7c0f3b1bb34631150ab4" target="_top" xlink:title="Set the mode of the controller.">
<polygon fill="white" stroke="#666666" points="247.62,-19.25 176.88,-19.25 176.88,0 247.62,0 247.62,-19.25"/>
<text text-anchor="middle" x="212.25" y="-5.75" font-family="Helvetica,sans-Serif" font-size="10.00">PID::setAuto</text>
</a>
</g>
</g>
<!-- Node1&#45;&gt;Node6 -->
<g id="edge7_Node000001_Node000006" class="edge">
<title>Node1&#45;&gt;Node6</title>
<g id="a_edge7_Node000001_Node000006"><a xlink:title=" ">
<path fill="none" stroke="#63b8ff" d="M79.15,-55.51C97.4,-47.38 124.08,-35.99 148,-27.62 153.73,-25.62 159.8,-23.68 165.83,-21.85"/>
<polygon fill="#63b8ff" stroke="#63b8ff" points="166.49,-25.3 175.1,-19.13 164.52,-18.59 166.49,-25.3"/>
</a>
</g>
</g>
<!-- Node3 -->
<g id="Node000003" class="node">
<title>Node3</title>
<g id="a_Node000003"><a xlink:href="classPID.html#a0e64deb10d189ef873ec4e672a1c79f2" target="_top" xlink:title="Clip value to [cvMin, cvMax].">
<polygon fill="white" stroke="#666666" points="364.5,-132.25 312.5,-132.25 312.5,-113 364.5,-113 364.5,-132.25"/>
<text text-anchor="middle" x="338.5" y="-118.75" font-family="Helvetica,sans-Serif" font-size="10.00">PID::clip</text>
</a>
</g>
</g>
<!-- Node2&#45;&gt;Node3 -->
<g id="edge2_Node000002_Node000003" class="edge">
<title>Node2&#45;&gt;Node3</title>
<g id="a_edge2_Node000002_Node000003"><a xlink:title=" ">
<path fill="none" stroke="#63b8ff" d="M249.86,-122.62C265.99,-122.62 284.89,-122.62 301.01,-122.62"/>
<polygon fill="#63b8ff" stroke="#63b8ff" points="300.66,-126.13 310.66,-122.63 300.66,-119.13 300.66,-126.13"/>
</a>
</g>
</g>
<!-- Node4&#45;&gt;Node4 -->
<g id="edge4_Node000004_Node000004" class="edge">
<title>Node4&#45;&gt;Node4</title>
<g id="a_edge4_Node000004_Node000004"><a xlink:title=" ">
<path fill="none" stroke="#63b8ff" d="M320.03,-66.39C309.16,-75.32 315.32,-85.25 338.5,-85.25 352.62,-85.25 360.43,-81.56 361.91,-76.66"/>
<polygon fill="#63b8ff" stroke="#63b8ff" points="365.12,-75.25 357.63,-67.76 358.81,-78.29 365.12,-75.25"/>
</a>
</g>
</g>
<!-- Node5&#45;&gt;Node4 -->
<g id="edge6_Node000005_Node000004" class="edge">
<title>Node5&#45;&gt;Node4</title>
<g id="a_edge6_Node000005_Node000004"><a xlink:title=" ">
<path fill="none" stroke="#63b8ff" d="M276.83,-52.25C288,-53.24 299.1,-54.23 308.7,-55.08"/>
<polygon fill="#63b8ff" stroke="#63b8ff" points="308.16,-58.54 318.43,-55.94 308.78,-51.57 308.16,-58.54"/>
</a>
</g>
</g>
<!-- Node7 -->
<g id="Node000007" class="node">
<title>Node7</title>
<g id="a_Node000007"><a xlink:href="classPID.html#a0ccd3a3e6e64a2560077ea76bf71e417" target="_top" xlink:title="Method to be called when the controller goes from manual to auto mode for proper bumpless transfer.">
<polygon fill="white" stroke="#666666" points="363.38,-19.25 313.62,-19.25 313.62,0 363.38,0 363.38,-19.25"/>
<text text-anchor="middle" x="338.5" y="-5.75" font-family="Helvetica,sans-Serif" font-size="10.00">PID::init</text>
</a>
</g>
</g>
<!-- Node6&#45;&gt;Node7 -->
<g id="edge8_Node000006_Node000007" class="edge">
<title>Node6&#45;&gt;Node7</title>
<g id="a_edge8_Node000006_Node000007"><a xlink:title=" ">
<path fill="none" stroke="#63b8ff" d="M247.86,-9.62C264.78,-9.62 285.11,-9.62 302.13,-9.62"/>
<polygon fill="#63b8ff" stroke="#63b8ff" points="301.79,-13.13 311.79,-9.63 301.79,-6.13 301.79,-13.13"/>
</a>
</g>
</g>
</g>
</svg>
