<?xml version="1.0" encoding="UTF-8" standalone="no"?>
<!DOCTYPE svg PUBLIC "-//W3C//DTD SVG 1.1//EN"
 "http://www.w3.org/Graphics/SVG/1.1/DTD/svg11.dtd">
<!-- Generated by graphviz version 12.0.0 (20240704.0754)
 -->
<!-- Title: FlowController Pages: 1 -->
<svg width="172pt" height="160pt"
 viewBox="0.00 0.00 172.12 160.25" xmlns="http://www.w3.org/2000/svg" xmlns:xlink="http://www.w3.org/1999/xlink">
<g id="graph0" class="graph" transform="scale(1 1) rotate(0) translate(4 156.25)">
<title>FlowController</title>
<!-- Node1 -->
<g id="Node000001" class="node">
<title>Node1</title>
<g id="a_Node000001"><a xlink:title="Controls flow. Holds a reference to a FlowSensor instance.">
<polygon fill="#999999" stroke="#666666" points="128.38,-19.25 50.12,-19.25 50.12,0 128.38,0 128.38,-19.25"/>
<text text-anchor="middle" x="89.25" y="-5.75" font-family="Helvetica,sans-Serif" font-size="10.00">FlowController</text>
</a>
</g>
</g>
<!-- Node2 -->
<g id="Node000002" class="node">
<title>Node2</title>
<g id="a_Node000002"><a xlink:href="classController.html" target="_top" xlink:title="Base class for a controller. Owns a PID instance, and holds a reference to a ConfigStore instance.">
<polygon fill="white" stroke="#666666" points="77.88,-85.75 20.63,-85.75 20.63,-66.5 77.88,-66.5 77.88,-85.75"/>
<text text-anchor="middle" x="49.25" y="-72.25" font-family="Helvetica,sans-Serif" font-size="10.00">Controller</text>
</a>
</g>
</g>
<!-- Node2&#45;&gt;Node1 -->
<g id="edge1_Node000001_Node000002" class="edge">
<title>Node2&#45;&gt;Node1</title>
<g id="a_edge1_Node000001_Node000002"><a xlink:title=" ">
<path fill="none" stroke="#63b8ff" d="M60.79,-56.51C68.34,-44.35 77.84,-29.02 83.74,-19.52"/>
<polygon fill="#63b8ff" stroke="#63b8ff" points="57.91,-54.53 55.61,-64.87 63.85,-58.22 57.91,-54.53"/>
</a>
</g>
</g>
<!-- Node3 -->
<g id="Node000003" class="node">
<title>Node3</title>
<g id="a_Node000003"><a xlink:href="classPID.html" target="_top" xlink:title="PID controller in parallel form implemented in floating&#45;point arithmetic. Features Derivative&#45;on&#45;Meas...">
<polygon fill="white" stroke="#666666" points="32.5,-152.25 0,-152.25 0,-133 32.5,-133 32.5,-152.25"/>
<text text-anchor="middle" x="16.25" y="-138.75" font-family="Helvetica,sans-Serif" font-size="10.00">PID</text>
</a>
</g>
</g>
<!-- Node3&#45;&gt;Node2 -->
<g id="edge2_Node000002_Node000003" class="edge">
<title>Node3&#45;&gt;Node2</title>
<g id="a_edge2_Node000002_Node000003"><a xlink:title=" ">
<path fill="none" stroke="#9a32cd" stroke-dasharray="5,2" d="M25.96,-122.64C32.15,-110.54 39.89,-95.42 44.7,-86.02"/>
<polygon fill="#9a32cd" stroke="#9a32cd" points="22.97,-120.81 21.53,-131.31 29.2,-124 22.97,-120.81"/>
</a>
</g>
<text text-anchor="middle" x="42.75" y="-105.5" font-family="Helvetica,sans-Serif" font-size="10.00" fill="grey"> pid</text>
</g>
<!-- Node4 -->
<g id="Node000004" class="node">
<title>Node4</title>
<g id="a_Node000004"><a xlink:href="structConfigStore.html" target="_top" xlink:title="Config store containing variables, which can be stored in EEPROM.">
<polygon fill="white" stroke="#666666" points="116.38,-152.25 50.12,-152.25 50.12,-133 116.38,-133 116.38,-152.25"/>
<text text-anchor="middle" x="83.25" y="-138.75" font-family="Helvetica,sans-Serif" font-size="10.00">ConfigStore</text>
</a>
</g>
</g>
<!-- Node4&#45;&gt;Node2 -->
<g id="edge3_Node000002_Node000004" class="edge">
<title>Node4&#45;&gt;Node2</title>
<g id="a_edge3_Node000002_Node000004"><a xlink:title=" ">
<path fill="none" stroke="#9a32cd" stroke-dasharray="5,2" d="M73.24,-122.64C66.86,-110.54 58.89,-95.42 53.94,-86.02"/>
<polygon fill="#9a32cd" stroke="#9a32cd" points="70.06,-124.1 77.82,-131.32 76.25,-120.84 70.06,-124.1"/>
</a>
</g>
<text text-anchor="middle" x="75.62" y="-105.5" font-family="Helvetica,sans-Serif" font-size="10.00" fill="grey"> cs</text>
</g>
<!-- Node5 -->
<g id="Node000005" class="node">
<title>Node5</title>
<g id="a_Node000005"><a xlink:href="classFlowSensor.html" target="_top" xlink:title="Read flow rate using a Omron D6F&#45;P0010 MEMS flow sensor.">
<polygon fill="white" stroke="#666666" points="164.12,-85.75 96.38,-85.75 96.38,-66.5 164.12,-66.5 164.12,-85.75"/>
<text text-anchor="middle" x="130.25" y="-72.25" font-family="Helvetica,sans-Serif" font-size="10.00">FlowSensor</text>
</a>
</g>
</g>
<!-- Node5&#45;&gt;Node1 -->
<g id="edge4_Node000001_Node000005" class="edge">
<title>Node5&#45;&gt;Node1</title>
<g id="a_edge4_Node000001_Node000005"><a xlink:title=" ">
<path fill="none" stroke="#9a32cd" stroke-dasharray="5,2" d="M118.42,-56.51C110.69,-44.35 100.94,-29.02 94.9,-19.52"/>
<polygon fill="#9a32cd" stroke="#9a32cd" points="115.42,-58.32 123.74,-64.88 121.33,-54.56 115.42,-58.32"/>
</a>
</g>
<text text-anchor="middle" x="116.5" y="-39" font-family="Helvetica,sans-Serif" font-size="10.00" fill="grey"> fs</text>
</g>
</g>
</svg>
