<?xml version="1.0" encoding="UTF-8" standalone="no"?>
<!DOCTYPE svg PUBLIC "-//W3C//DTD SVG 1.1//EN"
 "http://www.w3.org/Graphics/SVG/1.1/DTD/svg11.dtd">
<!-- Generated by graphviz version 12.0.0 (20240704.0754)
 -->
<!-- Title: GraphicalDisplayUI::drawConfig Pages: 1 -->
<svg width="335pt" height="82pt"
 viewBox="0.00 0.00 335.00 82.25" xmlns="http://www.w3.org/2000/svg" xmlns:xlink="http://www.w3.org/1999/xlink">
<g id="graph0" class="graph" transform="scale(1 1) rotate(0) translate(4 78.25)">
<title>GraphicalDisplayUI::drawConfig</title>
<!-- Node1 -->
<g id="Node000001" class="node">
<title>Node1</title>
<g id="a_Node000001"><a xlink:title="Draw the Config tab.">
<polygon fill="#999999" stroke="#666666" points="99.25,-51.88 0,-51.88 0,-21.38 99.25,-21.38 99.25,-51.88"/>
<text text-anchor="start" x="8" y="-38.38" font-family="Helvetica,sans-Serif" font-size="10.00">GraphicalDisplayUI</text>
<text text-anchor="middle" x="49.62" y="-27.12" font-family="Helvetica,sans-Serif" font-size="10.00">::drawConfig</text>
</a>
</g>
</g>
<!-- Node2 -->
<g id="Node000002" class="node">
<title>Node2</title>
<g id="a_Node000002"><a xlink:href="classConfigPar.html#a0bece1a8613c7c8ba8d87e28acf2cb34" target="_top" xlink:title="Print &quot;label: value&quot; to string. Automatically allocates string on the heap. Make sure to delete it im...">
<polygon fill="white" stroke="#666666" points="234.88,-69.25 143.12,-69.25 143.12,-50 234.88,-50 234.88,-69.25"/>
<text text-anchor="middle" x="189" y="-55.75" font-family="Helvetica,sans-Serif" font-size="10.00">ConfigPar::asprint</text>
</a>
</g>
</g>
<!-- Node1&#45;&gt;Node2 -->
<g id="edge1_Node000001_Node000002" class="edge">
<title>Node1&#45;&gt;Node2</title>
<g id="a_edge1_Node000001_Node000002"><a xlink:title=" ">
<path fill="none" stroke="#63b8ff" d="M99.45,-44.8C109.98,-46.56 121.19,-48.44 131.97,-50.24"/>
<polygon fill="#63b8ff" stroke="#63b8ff" points="131.07,-53.64 141.51,-51.84 132.23,-46.74 131.07,-53.64"/>
</a>
</g>
</g>
<!-- Node4 -->
<g id="Node000004" class="node">
<title>Node4</title>
<g id="a_Node000004"><a xlink:href="classConfigPar.html#a099b55d3836247dc0ebbe2609d3809cd" target="_top" xlink:title="Get magnitude (number of digits before the decimal separator) of variable.">
<polygon fill="white" stroke="#666666" points="242.75,-28.25 135.25,-28.25 135.25,-9 242.75,-9 242.75,-28.25"/>
<text text-anchor="middle" x="189" y="-14.75" font-family="Helvetica,sans-Serif" font-size="10.00">ConfigPar::magnitude</text>
</a>
</g>
</g>
<!-- Node1&#45;&gt;Node4 -->
<g id="edge3_Node000001_Node000004" class="edge">
<title>Node1&#45;&gt;Node4</title>
<g id="a_edge3_Node000001_Node000004"><a xlink:title=" ">
<path fill="none" stroke="#63b8ff" d="M99.45,-30.23C107.4,-29.19 115.74,-28.09 123.99,-27.01"/>
<polygon fill="#63b8ff" stroke="#63b8ff" points="124.18,-30.52 133.64,-25.75 123.27,-23.58 124.18,-30.52"/>
</a>
</g>
</g>
<!-- Node3 -->
<g id="Node000003" class="node">
<title>Node3</title>
<g id="a_Node000003"><a xlink:href="asprintf_8h.html#a8e2a40be4816c793857112b1960e912b" target="_top" xlink:title="Print formatted data to string. Automatically allocates string on the heap. Make sure to delete it im...">
<polygon fill="white" stroke="#666666" points="327,-74.25 278.75,-74.25 278.75,-55 327,-55 327,-74.25"/>
<text text-anchor="middle" x="302.88" y="-60.75" font-family="Helvetica,sans-Serif" font-size="10.00">asprintf</text>
</a>
</g>
</g>
<!-- Node2&#45;&gt;Node3 -->
<g id="edge2_Node000002_Node000003" class="edge">
<title>Node2&#45;&gt;Node3</title>
<g id="a_edge2_Node000002_Node000003"><a xlink:title=" ">
<path fill="none" stroke="#63b8ff" d="M235.18,-61.64C245.82,-62.12 256.99,-62.62 267.09,-63.07"/>
<polygon fill="#63b8ff" stroke="#63b8ff" points="266.69,-66.56 276.84,-63.51 267,-59.56 266.69,-66.56"/>
</a>
</g>
</g>
<!-- Node5 -->
<g id="Node000005" class="node">
<title>Node5</title>
<g id="a_Node000005"><a xlink:href="imath_8h.html#a1b826c7311037e4e89052d8f5d59afe6" target="_top" xlink:title="Constexpr integer base&#45;10 logarithm.">
<polygon fill="white" stroke="#666666" points="323.62,-19.25 282.12,-19.25 282.12,0 323.62,0 323.62,-19.25"/>
<text text-anchor="middle" x="302.88" y="-5.75" font-family="Helvetica,sans-Serif" font-size="10.00">ilog10</text>
</a>
</g>
</g>
<!-- Node4&#45;&gt;Node5 -->
<g id="edge4_Node000004_Node000005" class="edge">
<title>Node4&#45;&gt;Node5</title>
<g id="a_edge4_Node000004_Node000005"><a xlink:title=" ">
<path fill="none" stroke="#63b8ff" d="M242.99,-14.36C252.36,-13.61 261.83,-12.85 270.37,-12.16"/>
<polygon fill="#63b8ff" stroke="#63b8ff" points="270.49,-15.66 280.18,-11.37 269.93,-8.68 270.49,-15.66"/>
</a>
</g>
</g>
<!-- Node5&#45;&gt;Node5 -->
<g id="edge5_Node000005_Node000005" class="edge">
<title>Node5&#45;&gt;Node5</title>
<g id="a_edge5_Node000005_Node000005"><a xlink:title=" ">
<path fill="none" stroke="#63b8ff" d="M285.05,-19.54C276.92,-28.15 282.86,-37.25 302.88,-37.25 313.82,-37.25 320.56,-34.53 323.09,-30.65"/>
<polygon fill="#63b8ff" stroke="#63b8ff" points="326.54,-30.06 321.02,-21.02 319.7,-31.53 326.54,-30.06"/>
</a>
</g>
</g>
</g>
</svg>
