<?xml version="1.0" encoding="UTF-8" standalone="no"?>
<!DOCTYPE svg PUBLIC "-//W3C//DTD SVG 1.1//EN"
 "http://www.w3.org/Graphics/SVG/1.1/DTD/svg11.dtd">
<!-- Generated by graphviz version 12.0.0 (20240704.0754)
 -->
<!-- Title: Humidistat Pages: 1 -->
<svg width="124pt" height="150pt"
 viewBox="0.00 0.00 124.38 150.00" xmlns="http://www.w3.org/2000/svg" xmlns:xlink="http://www.w3.org/1999/xlink">
<g id="graph0" class="graph" transform="scale(1 1) rotate(0) translate(4 146)">
<title>Humidistat</title>
<!-- Node1 -->
<g id="Node000001" class="node">
<title>Node1</title>
<g id="a_Node000001"><a xlink:title="Base class for a humidistat. Holds a reference to a HumiditySensor instance.">
<polygon fill="#999999" stroke="#666666" points="80.88,-19.25 17.62,-19.25 17.62,0 80.88,0 80.88,-19.25"/>
<text text-anchor="middle" x="49.25" y="-5.75" font-family="Helvetica,sans-Serif" font-size="10.00">Humidistat</text>
</a>
</g>
</g>
<!-- Node2 -->
<g id="Node000002" class="node">
<title>Node2</title>
<g id="a_Node000002"><a xlink:href="classController.html" target="_top" xlink:title="Base class for a controller. Owns a PID instance, and holds a reference to a ConfigStore instance.">
<polygon fill="white" stroke="#666666" points="77.88,-75.5 20.63,-75.5 20.63,-56.25 77.88,-56.25 77.88,-75.5"/>
<text text-anchor="middle" x="49.25" y="-62" font-family="Helvetica,sans-Serif" font-size="10.00">Controller</text>
</a>
</g>
</g>
<!-- Node2&#45;&gt;Node1 -->
<g id="edge1_Node000001_Node000002" class="edge">
<title>Node2&#45;&gt;Node1</title>
<g id="a_edge1_Node000001_Node000002"><a xlink:title=" ">
<path fill="none" stroke="#63b8ff" d="M49.25,-44.69C49.25,-35.98 49.25,-26.24 49.25,-19.42"/>
<polygon fill="#63b8ff" stroke="#63b8ff" points="45.75,-44.4 49.25,-54.4 52.75,-44.4 45.75,-44.4"/>
</a>
</g>
</g>
<!-- Node3 -->
<g id="Node000003" class="node">
<title>Node3</title>
<g id="a_Node000003"><a xlink:href="classPID.html" target="_top" xlink:title="PID controller in parallel form implemented in floating&#45;point arithmetic. Features Derivative&#45;on&#45;Meas...">
<polygon fill="white" stroke="#666666" points="32.5,-142 0,-142 0,-122.75 32.5,-122.75 32.5,-142"/>
<text text-anchor="middle" x="16.25" y="-128.5" font-family="Helvetica,sans-Serif" font-size="10.00">PID</text>
</a>
</g>
</g>
<!-- Node3&#45;&gt;Node2 -->
<g id="edge2_Node000002_Node000003" class="edge">
<title>Node3&#45;&gt;Node2</title>
<g id="a_edge2_Node000002_Node000003"><a xlink:title=" ">
<path fill="none" stroke="#9a32cd" stroke-dasharray="5,2" d="M25.96,-112.39C32.15,-100.29 39.89,-85.17 44.7,-75.77"/>
<polygon fill="#9a32cd" stroke="#9a32cd" points="22.97,-110.56 21.53,-121.06 29.2,-113.75 22.97,-110.56"/>
</a>
</g>
<text text-anchor="middle" x="42.75" y="-95.25" font-family="Helvetica,sans-Serif" font-size="10.00" fill="grey"> pid</text>
</g>
<!-- Node4 -->
<g id="Node000004" class="node">
<title>Node4</title>
<g id="a_Node000004"><a xlink:href="structConfigStore.html" target="_top" xlink:title="Config store containing variables, which can be stored in EEPROM.">
<polygon fill="white" stroke="#666666" points="116.38,-142 50.12,-142 50.12,-122.75 116.38,-122.75 116.38,-142"/>
<text text-anchor="middle" x="83.25" y="-128.5" font-family="Helvetica,sans-Serif" font-size="10.00">ConfigStore</text>
</a>
</g>
</g>
<!-- Node4&#45;&gt;Node2 -->
<g id="edge3_Node000002_Node000004" class="edge">
<title>Node4&#45;&gt;Node2</title>
<g id="a_edge3_Node000002_Node000004"><a xlink:title=" ">
<path fill="none" stroke="#9a32cd" stroke-dasharray="5,2" d="M73.24,-112.39C66.86,-100.29 58.89,-85.17 53.94,-75.77"/>
<polygon fill="#9a32cd" stroke="#9a32cd" points="70.06,-113.85 77.82,-121.07 76.25,-110.59 70.06,-113.85"/>
</a>
</g>
<text text-anchor="middle" x="74.62" y="-95.25" font-family="Helvetica,sans-Serif" font-size="10.00" fill="grey"> cs</text>
</g>
</g>
</svg>
