<?xml version="1.0" encoding="UTF-8" standalone="no"?>
<!DOCTYPE svg PUBLIC "-//W3C//DTD SVG 1.1//EN"
 "http://www.w3.org/Graphics/SVG/1.1/DTD/svg11.dtd">
<!-- Generated by graphviz version 12.0.0 (20240704.0754)
 -->
<!-- Title: ControllerUI::printNTC Pages: 1 -->
<svg width="400pt" height="64pt"
 viewBox="0.00 0.00 399.50 64.25" xmlns="http://www.w3.org/2000/svg" xmlns:xlink="http://www.w3.org/1999/xlink">
<g id="graph0" class="graph" transform="scale(1 1) rotate(0) translate(4 60.25)">
<title>ControllerUI::printNTC</title>
<!-- Node1 -->
<g id="Node000001" class="node">
<title>Node1</title>
<g id="a_Node000001"><a xlink:title="Print temperature read from thermistors. Handles NaN values as 0.">
<polygon fill="#999999" stroke="#666666" points="111.25,-37.25 0,-37.25 0,-18 111.25,-18 111.25,-37.25"/>
<text text-anchor="middle" x="55.62" y="-23.75" font-family="Helvetica,sans-Serif" font-size="10.00">ControllerUI::printNTC</text>
</a>
</g>
</g>
<!-- Node2 -->
<g id="Node000002" class="node">
<title>Node2</title>
<g id="a_Node000002"><a xlink:href="classControllerUI.html#aa14a64631f7993d6e22ac9e6f5bf4b44" target="_top" xlink:title="Print formatted data to display, at (col, row). Calculates lengths and creates appropriate buffer int...">
<polygon fill="white" stroke="#666666" points="241.25,-37.25 147.25,-37.25 147.25,-18 241.25,-18 241.25,-37.25"/>
<text text-anchor="middle" x="194.25" y="-23.75" font-family="Helvetica,sans-Serif" font-size="10.00">ControllerUI::printf</text>
</a>
</g>
</g>
<!-- Node1&#45;&gt;Node2 -->
<g id="edge1_Node000001_Node000002" class="edge">
<title>Node1&#45;&gt;Node2</title>
<g id="a_edge1_Node000001_Node000002"><a xlink:title=" ">
<path fill="none" stroke="#63b8ff" d="M111.41,-27.62C119.29,-27.62 127.42,-27.62 135.36,-27.62"/>
<polygon fill="#63b8ff" stroke="#63b8ff" points="135.29,-31.13 145.29,-27.63 135.29,-24.13 135.29,-31.13"/>
</a>
</g>
</g>
<!-- Node3 -->
<g id="Node000003" class="node">
<title>Node3</title>
<g id="a_Node000003"><a xlink:href="asprintf_8h.html#a8e2a40be4816c793857112b1960e912b" target="_top" xlink:title="Print formatted data to string. Automatically allocates string on the heap. Make sure to delete it im...">
<polygon fill="white" stroke="#666666" points="358.5,-56.25 310.25,-56.25 310.25,-37 358.5,-37 358.5,-56.25"/>
<text text-anchor="middle" x="334.38" y="-42.75" font-family="Helvetica,sans-Serif" font-size="10.00">asprintf</text>
</a>
</g>
</g>
<!-- Node2&#45;&gt;Node3 -->
<g id="edge2_Node000002_Node000003" class="edge">
<title>Node2&#45;&gt;Node3</title>
<g id="a_edge2_Node000002_Node000003"><a xlink:title=" ">
<path fill="none" stroke="#63b8ff" d="M241.63,-34C260.22,-36.56 281.28,-39.46 298.53,-41.83"/>
<polygon fill="#63b8ff" stroke="#63b8ff" points="297.91,-45.28 308.29,-43.17 298.86,-38.34 297.91,-45.28"/>
</a>
</g>
</g>
<!-- Node4 -->
<g id="Node000004" class="node">
<title>Node4</title>
<g id="a_Node000004"><a xlink:href="classControllerUI.html#a94aed853c67197d32434244f8941c21e" target="_top" xlink:title="Set cursor to coordinates.">
<polygon fill="white" stroke="#666666" points="391.5,-19.25 277.25,-19.25 277.25,0 391.5,0 391.5,-19.25"/>
<text text-anchor="middle" x="334.38" y="-5.75" font-family="Helvetica,sans-Serif" font-size="10.00">ControllerUI::setCursor</text>
</a>
</g>
</g>
<!-- Node2&#45;&gt;Node4 -->
<g id="edge3_Node000002_Node000004" class="edge">
<title>Node2&#45;&gt;Node4</title>
<g id="a_edge3_Node000002_Node000004"><a xlink:title=" ">
<path fill="none" stroke="#63b8ff" d="M241.63,-21.58C249.3,-20.58 257.39,-19.53 265.46,-18.48"/>
<polygon fill="#63b8ff" stroke="#63b8ff" points="265.84,-21.96 275.31,-17.19 264.94,-15.01 265.84,-21.96"/>
</a>
</g>
</g>
</g>
</svg>
