<?xml version="1.0" encoding="UTF-8" standalone="no"?>
<!DOCTYPE svg PUBLIC "-//W3C//DTD SVG 1.1//EN"
 "http://www.w3.org/Graphics/SVG/1.1/DTD/svg11.dtd">
<!-- Generated by graphviz version 12.0.0 (20240704.0754)
 -->
<!-- Title: SetpointProfileRunner Pages: 1 -->
<svg width="130pt" height="217pt"
 viewBox="0.00 0.00 130.00 216.50" xmlns="http://www.w3.org/2000/svg" xmlns:xlink="http://www.w3.org/1999/xlink">
<g id="graph0" class="graph" transform="scale(1 1) rotate(0) translate(4 212.5)">
<title>SetpointProfileRunner</title>
<!-- Node1 -->
<g id="Node000001" class="node">
<title>Node1</title>
<g id="a_Node000001"><a xlink:title="&#39;Runs&#39; a setpoint profile.">
<polygon fill="#999999" stroke="#666666" points="109.75,-19.25 0,-19.25 0,0 109.75,0 109.75,-19.25"/>
<text text-anchor="middle" x="54.88" y="-5.75" font-family="Helvetica,sans-Serif" font-size="10.00">SetpointProfileRunner</text>
</a>
</g>
</g>
<!-- Node2 -->
<g id="Node000002" class="node">
<title>Node2</title>
<g id="a_Node000002"><a xlink:href="classHumidistat.html" target="_top" xlink:title="Base class for a humidistat. Holds a reference to a HumiditySensor instance.">
<polygon fill="white" stroke="#666666" points="86.5,-85.75 23.25,-85.75 23.25,-66.5 86.5,-66.5 86.5,-85.75"/>
<text text-anchor="middle" x="54.88" y="-72.25" font-family="Helvetica,sans-Serif" font-size="10.00">Humidistat</text>
</a>
</g>
</g>
<!-- Node2&#45;&gt;Node1 -->
<g id="edge1_Node000001_Node000002" class="edge">
<title>Node2&#45;&gt;Node1</title>
<g id="a_edge1_Node000001_Node000002"><a xlink:title=" ">
<path fill="none" stroke="#9a32cd" stroke-dasharray="5,2" d="M54.88,-54.65C54.88,-42.82 54.88,-28.54 54.88,-19.52"/>
<polygon fill="#9a32cd" stroke="#9a32cd" points="51.38,-54.64 54.88,-64.64 58.38,-54.64 51.38,-54.64"/>
</a>
</g>
<text text-anchor="middle" x="78.5" y="-39" font-family="Helvetica,sans-Serif" font-size="10.00" fill="grey"> humidistat</text>
</g>
<!-- Node3 -->
<g id="Node000003" class="node">
<title>Node3</title>
<g id="a_Node000003"><a xlink:href="classController.html" target="_top" xlink:title="Base class for a controller. Owns a PID instance, and holds a reference to a ConfigStore instance.">
<polygon fill="white" stroke="#666666" points="83.5,-142 26.25,-142 26.25,-122.75 83.5,-122.75 83.5,-142"/>
<text text-anchor="middle" x="54.88" y="-128.5" font-family="Helvetica,sans-Serif" font-size="10.00">Controller</text>
</a>
</g>
</g>
<!-- Node3&#45;&gt;Node2 -->
<g id="edge2_Node000002_Node000003" class="edge">
<title>Node3&#45;&gt;Node2</title>
<g id="a_edge2_Node000002_Node000003"><a xlink:title=" ">
<path fill="none" stroke="#63b8ff" d="M54.88,-111.19C54.88,-102.48 54.88,-92.74 54.88,-85.92"/>
<polygon fill="#63b8ff" stroke="#63b8ff" points="51.38,-110.9 54.88,-120.9 58.38,-110.9 51.38,-110.9"/>
</a>
</g>
</g>
<!-- Node4 -->
<g id="Node000004" class="node">
<title>Node4</title>
<g id="a_Node000004"><a xlink:href="classPID.html" target="_top" xlink:title="PID controller in parallel form implemented in floating&#45;point arithmetic. Features Derivative&#45;on&#45;Meas...">
<polygon fill="white" stroke="#666666" points="38.12,-208.5 5.62,-208.5 5.62,-189.25 38.12,-189.25 38.12,-208.5"/>
<text text-anchor="middle" x="21.88" y="-195" font-family="Helvetica,sans-Serif" font-size="10.00">PID</text>
</a>
</g>
</g>
<!-- Node4&#45;&gt;Node3 -->
<g id="edge3_Node000003_Node000004" class="edge">
<title>Node4&#45;&gt;Node3</title>
<g id="a_edge3_Node000003_Node000004"><a xlink:title=" ">
<path fill="none" stroke="#9a32cd" stroke-dasharray="5,2" d="M31.59,-178.89C37.78,-166.79 45.51,-151.67 50.33,-142.27"/>
<polygon fill="#9a32cd" stroke="#9a32cd" points="28.59,-177.06 27.15,-187.56 34.82,-180.25 28.59,-177.06"/>
</a>
</g>
<text text-anchor="middle" x="48.38" y="-161.75" font-family="Helvetica,sans-Serif" font-size="10.00" fill="grey"> pid</text>
</g>
<!-- Node5 -->
<g id="Node000005" class="node">
<title>Node5</title>
<g id="a_Node000005"><a xlink:href="structConfigStore.html" target="_top" xlink:title="Config store containing variables, which can be stored in EEPROM.">
<polygon fill="white" stroke="#666666" points="122,-208.5 55.75,-208.5 55.75,-189.25 122,-189.25 122,-208.5"/>
<text text-anchor="middle" x="88.88" y="-195" font-family="Helvetica,sans-Serif" font-size="10.00">ConfigStore</text>
</a>
</g>
</g>
<!-- Node5&#45;&gt;Node3 -->
<g id="edge4_Node000003_Node000005" class="edge">
<title>Node5&#45;&gt;Node3</title>
<g id="a_edge4_Node000003_Node000005"><a xlink:title=" ">
<path fill="none" stroke="#9a32cd" stroke-dasharray="5,2" d="M78.87,-178.89C72.49,-166.79 64.52,-151.67 59.56,-142.27"/>
<polygon fill="#9a32cd" stroke="#9a32cd" points="75.68,-180.35 83.44,-187.57 81.87,-177.09 75.68,-180.35"/>
</a>
</g>
<text text-anchor="middle" x="80.25" y="-161.75" font-family="Helvetica,sans-Serif" font-size="10.00" fill="grey"> cs</text>
</g>
</g>
</svg>
