<?xml version="1.0" encoding="UTF-8" standalone="no"?>
<!DOCTYPE svg PUBLIC "-//W3C//DTD SVG 1.1//EN"
 "http://www.w3.org/Graphics/SVG/1.1/DTD/svg11.dtd">
<!-- Generated by graphviz version 12.0.0 (20240704.0754)
 -->
<!-- Title: GraphicalDisplayUI::handleInputConfig Pages: 1 -->
<svg width="327pt" height="177pt"
 viewBox="0.00 0.00 327.29 177.25" xmlns="http://www.w3.org/2000/svg" xmlns:xlink="http://www.w3.org/1999/xlink">
<g id="graph0" class="graph" transform="scale(1 1) rotate(0) translate(4 173.25)">
<title>GraphicalDisplayUI::handleInputConfig</title>
<!-- Node1 -->
<g id="Node000001" class="node">
<title>Node1</title>
<g id="a_Node000001"><a xlink:title="Handle input on the Config tab.">
<polygon fill="#999999" stroke="#666666" points="99.25,-98.88 0,-98.88 0,-68.38 99.25,-68.38 99.25,-98.88"/>
<text text-anchor="start" x="8" y="-85.38" font-family="Helvetica,sans-Serif" font-size="10.00">GraphicalDisplayUI</text>
<text text-anchor="middle" x="49.62" y="-74.12" font-family="Helvetica,sans-Serif" font-size="10.00">::handleInputConfig</text>
</a>
</g>
</g>
<!-- Node2 -->
<g id="Node000002" class="node">
<title>Node2</title>
<g id="a_Node000002"><a xlink:href="classConfigPar.html#aab5ed0b09b040eba98bc05d76e89c4ca" target="_top" xlink:title="Add delta to the variable.">
<polygon fill="white" stroke="#666666" points="234.88,-169.25 146.12,-169.25 146.12,-150 234.88,-150 234.88,-169.25"/>
<text text-anchor="middle" x="190.5" y="-155.75" font-family="Helvetica,sans-Serif" font-size="10.00">ConfigPar::adjust</text>
</a>
</g>
</g>
<!-- Node1&#45;&gt;Node2 -->
<g id="edge1_Node000001_Node000002" class="edge">
<title>Node1&#45;&gt;Node2</title>
<g id="a_edge1_Node000001_Node000002"><a xlink:title=" ">
<path fill="none" stroke="#63b8ff" d="M74.2,-99.3C90.91,-110.1 114.03,-124.48 135.25,-135.62 141.47,-138.89 148.23,-142.13 154.8,-145.11"/>
<polygon fill="#63b8ff" stroke="#63b8ff" points="152.92,-148.1 163.48,-148.95 155.75,-141.7 152.92,-148.1"/>
</a>
</g>
</g>
<!-- Node3 -->
<g id="Node000003" class="node">
<title>Node3</title>
<g id="a_Node000003"><a xlink:href="imath_8h.html#aa86632c19b4d57acb96ac9e9cd3e13e1" target="_top" xlink:title="Constexpr function for computing integer power.">
<polygon fill="white" stroke="#666666" points="318,-150.25 281.75,-150.25 281.75,-131 318,-131 318,-150.25"/>
<text text-anchor="middle" x="299.88" y="-136.75" font-family="Helvetica,sans-Serif" font-size="10.00">ipow</text>
</a>
</g>
</g>
<!-- Node1&#45;&gt;Node3 -->
<g id="edge5_Node000001_Node000003" class="edge">
<title>Node1&#45;&gt;Node3</title>
<g id="a_edge5_Node000001_Node000003"><a xlink:title=" ">
<path fill="none" stroke="#63b8ff" d="M99.67,-94.89C150.71,-106.61 228.88,-124.55 270.49,-134.11"/>
<polygon fill="#63b8ff" stroke="#63b8ff" points="269.44,-137.46 279.97,-136.29 271.01,-130.64 269.44,-137.46"/>
</a>
</g>
</g>
<!-- Node4 -->
<g id="Node000004" class="node">
<title>Node4</title>
<g id="a_Node000004"><a xlink:href="advanceEnum_8h.html#a4c6cbb4b80fa575a2819ca1d5e7cc1a2" target="_top" xlink:title="Cycle through (advance) an enum.">
<polygon fill="white" stroke="#666666" points="229.25,-93.25 151.75,-93.25 151.75,-74 229.25,-74 229.25,-93.25"/>
<text text-anchor="middle" x="190.5" y="-79.75" font-family="Helvetica,sans-Serif" font-size="10.00">advanceEnum</text>
</a>
</g>
</g>
<!-- Node1&#45;&gt;Node4 -->
<g id="edge4_Node000001_Node000004" class="edge">
<title>Node1&#45;&gt;Node4</title>
<g id="a_edge4_Node000001_Node000004"><a xlink:title=" ">
<path fill="none" stroke="#63b8ff" d="M99.59,-83.62C112.75,-83.62 127,-83.62 140.19,-83.62"/>
<polygon fill="#63b8ff" stroke="#63b8ff" points="139.93,-87.13 149.93,-83.63 139.93,-80.13 139.93,-87.13"/>
</a>
</g>
</g>
<!-- Node5 -->
<g id="Node000005" class="node">
<title>Node5</title>
<g id="a_Node000005"><a xlink:href="classEEPROMConfig.html#a389d1170c790427a9d5fb6643c340b21" target="_top" xlink:title="Reset the config store: overwrite the configStore with the default values.">
<polygon fill="white" stroke="#666666" points="245.75,-56.25 135.25,-56.25 135.25,-37 245.75,-37 245.75,-56.25"/>
<text text-anchor="middle" x="190.5" y="-42.75" font-family="Helvetica,sans-Serif" font-size="10.00">EEPROMConfig::reset</text>
</a>
</g>
</g>
<!-- Node1&#45;&gt;Node5 -->
<g id="edge6_Node000001_Node000005" class="edge">
<title>Node1&#45;&gt;Node5</title>
<g id="a_edge6_Node000001_Node000005"><a xlink:title=" ">
<path fill="none" stroke="#63b8ff" d="M99.59,-70.58C113.01,-67 127.55,-63.13 140.95,-59.56"/>
<polygon fill="#63b8ff" stroke="#63b8ff" points="141.66,-62.99 150.42,-57.04 139.86,-56.23 141.66,-62.99"/>
</a>
</g>
</g>
<!-- Node6 -->
<g id="Node000006" class="node">
<title>Node6</title>
<g id="a_Node000006"><a xlink:href="classEEPROMConfig.html#a3ccccd29dcfe0a56152c2d9382fa2f0d" target="_top" xlink:title="Saves current content of configStore into EEPROM.">
<polygon fill="white" stroke="#666666" points="245.38,-19.25 135.62,-19.25 135.62,0 245.38,0 245.38,-19.25"/>
<text text-anchor="middle" x="190.5" y="-5.75" font-family="Helvetica,sans-Serif" font-size="10.00">EEPROMConfig::save</text>
</a>
</g>
</g>
<!-- Node1&#45;&gt;Node6 -->
<g id="edge7_Node000001_Node000006" class="edge">
<title>Node1&#45;&gt;Node6</title>
<g id="a_edge7_Node000001_Node000006"><a xlink:title=" ">
<path fill="none" stroke="#63b8ff" d="M70.92,-67.97C87.51,-55.73 111.96,-38.95 135.25,-27.62 138,-26.29 140.87,-25.01 143.8,-23.8"/>
<polygon fill="#63b8ff" stroke="#63b8ff" points="145.01,-27.09 153.1,-20.26 142.51,-20.55 145.01,-27.09"/>
</a>
</g>
</g>
<!-- Node2&#45;&gt;Node3 -->
<g id="edge2_Node000002_Node000003" class="edge">
<title>Node2&#45;&gt;Node3</title>
<g id="a_edge2_Node000002_Node000003"><a xlink:title=" ">
<path fill="none" stroke="#63b8ff" d="M235.17,-151.9C246.99,-149.81 259.47,-147.6 270.22,-145.7"/>
<polygon fill="#63b8ff" stroke="#63b8ff" points="270.78,-149.15 280.01,-143.96 269.56,-142.26 270.78,-149.15"/>
</a>
</g>
</g>
<!-- Node3&#45;&gt;Node3 -->
<g id="edge3_Node000003_Node000003" class="edge">
<title>Node3&#45;&gt;Node3</title>
<g id="a_edge3_Node000003_Node000003"><a xlink:title=" ">
<path fill="none" stroke="#63b8ff" d="M282.75,-150.54C274.94,-159.15 280.65,-168.25 299.88,-168.25 310.39,-168.25 316.86,-165.53 319.29,-161.65"/>
<polygon fill="#63b8ff" stroke="#63b8ff" points="322.75,-161.11 317.3,-152.02 315.89,-162.52 322.75,-161.11"/>
</a>
</g>
</g>
</g>
</svg>
