<?xml version="1.0" encoding="UTF-8" standalone="no"?>
<!DOCTYPE svg PUBLIC "-//W3C//DTD SVG 1.1//EN"
 "http://www.w3.org/Graphics/SVG/1.1/DTD/svg11.dtd">
<!-- Generated by graphviz version 12.0.0 (20240704.0754)
 -->
<!-- Title: Controller Pages: 1 -->
<svg width="238pt" height="138pt"
 viewBox="0.00 0.00 238.25 137.75" xmlns="http://www.w3.org/2000/svg" xmlns:xlink="http://www.w3.org/1999/xlink">
<g id="graph0" class="graph" transform="scale(1 1) rotate(0) translate(4 133.75)">
<title>Controller</title>
<!-- Node1 -->
<g id="Node000001" class="node">
<title>Node1</title>
<g id="a_Node000001"><a xlink:title="Base class for a controller. Owns a PID instance, and holds a reference to a ConfigStore instance.">
<polygon fill="#999999" stroke="#666666" points="111.75,-129.75 54.5,-129.75 54.5,-110.5 111.75,-110.5 111.75,-129.75"/>
<text text-anchor="middle" x="83.12" y="-116.25" font-family="Helvetica,sans-Serif" font-size="10.00">Controller</text>
</a>
</g>
</g>
<!-- Node2 -->
<g id="Node000002" class="node">
<title>Node2</title>
<g id="a_Node000002"><a xlink:href="classFlowController.html" target="_top" xlink:title="Controls flow. Holds a reference to a FlowSensor instance.">
<polygon fill="white" stroke="#666666" points="78.25,-74.5 0,-74.5 0,-55.25 78.25,-55.25 78.25,-74.5"/>
<text text-anchor="middle" x="39.12" y="-61" font-family="Helvetica,sans-Serif" font-size="10.00">FlowController</text>
</a>
</g>
</g>
<!-- Node1&#45;&gt;Node2 -->
<g id="edge1_Node000001_Node000002" class="edge">
<title>Node1&#45;&gt;Node2</title>
<g id="a_edge1_Node000001_Node000002"><a xlink:title=" ">
<path fill="none" stroke="#63b8ff" d="M68.54,-101.47C61.17,-92.56 52.55,-82.12 46.55,-74.86"/>
<polygon fill="#63b8ff" stroke="#63b8ff" points="65.83,-103.69 74.9,-109.17 71.22,-99.23 65.83,-103.69"/>
</a>
</g>
</g>
<!-- Node3 -->
<g id="Node000003" class="node">
<title>Node3</title>
<g id="a_Node000003"><a xlink:href="classHumidistat.html" target="_top" xlink:title="Base class for a humidistat. Holds a reference to a HumiditySensor instance.">
<polygon fill="white" stroke="#666666" points="159.75,-74.5 96.5,-74.5 96.5,-55.25 159.75,-55.25 159.75,-74.5"/>
<text text-anchor="middle" x="128.12" y="-61" font-family="Helvetica,sans-Serif" font-size="10.00">Humidistat</text>
</a>
</g>
</g>
<!-- Node1&#45;&gt;Node3 -->
<g id="edge2_Node000001_Node000003" class="edge">
<title>Node1&#45;&gt;Node3</title>
<g id="a_edge2_Node000001_Node000003"><a xlink:title=" ">
<path fill="none" stroke="#63b8ff" d="M97.8,-101.76C105.39,-92.78 114.33,-82.2 120.53,-74.86"/>
<polygon fill="#63b8ff" stroke="#63b8ff" points="95.31,-99.28 91.53,-109.18 100.66,-103.8 95.31,-99.28"/>
</a>
</g>
</g>
<!-- Node4 -->
<g id="Node000004" class="node">
<title>Node4</title>
<g id="a_Node000004"><a xlink:href="classCascadeHumidistat.html" target="_top" xlink:title="Control humidity using cascade PID: outer PID loop sets setpoints of two inner flow controllers,...">
<polygon fill="white" stroke="#666666" points="121.88,-19.25 20.38,-19.25 20.38,0 121.88,0 121.88,-19.25"/>
<text text-anchor="middle" x="71.12" y="-5.75" font-family="Helvetica,sans-Serif" font-size="10.00">CascadeHumidistat</text>
</a>
</g>
</g>
<!-- Node3&#45;&gt;Node4 -->
<g id="edge3_Node000003_Node000004" class="edge">
<title>Node3&#45;&gt;Node4</title>
<g id="a_edge3_Node000003_Node000004"><a xlink:title=" ">
<path fill="none" stroke="#63b8ff" d="M110.18,-47.11C100.39,-37.97 88.68,-27.03 80.65,-19.52"/>
<polygon fill="#63b8ff" stroke="#63b8ff" points="107.65,-49.54 117.35,-53.81 112.43,-44.42 107.65,-49.54"/>
</a>
</g>
</g>
<!-- Node5 -->
<g id="Node000005" class="node">
<title>Node5</title>
<g id="a_Node000005"><a xlink:href="classSingleHumidistat.html" target="_top" xlink:title="Control humidity using PID by driving two solenoid valves. Adjust the public setpoint variable and ca...">
<polygon fill="white" stroke="#666666" points="230.25,-19.25 140,-19.25 140,0 230.25,0 230.25,-19.25"/>
<text text-anchor="middle" x="185.12" y="-5.75" font-family="Helvetica,sans-Serif" font-size="10.00">SingleHumidistat</text>
</a>
</g>
</g>
<!-- Node3&#45;&gt;Node5 -->
<g id="edge4_Node000003_Node000005" class="edge">
<title>Node3&#45;&gt;Node5</title>
<g id="a_edge4_Node000003_Node000005"><a xlink:title=" ">
<path fill="none" stroke="#63b8ff" d="M146.07,-47.11C155.86,-37.97 167.57,-27.03 175.6,-19.52"/>
<polygon fill="#63b8ff" stroke="#63b8ff" points="143.82,-44.42 138.9,-53.81 148.6,-49.54 143.82,-44.42"/>
</a>
</g>
</g>
</g>
</svg>
