<?xml version="1.0" encoding="UTF-8" standalone="no"?>
<!DOCTYPE svg PUBLIC "-//W3C//DTD SVG 1.1//EN"
 "http://www.w3.org/Graphics/SVG/1.1/DTD/svg11.dtd">
<!-- Generated by graphviz version 12.0.0 (20240704.0754)
 -->
<!-- Title: ControllerUI::printf Pages: 1 -->
<svg width="252pt" height="64pt"
 viewBox="0.00 0.00 252.25 64.25" xmlns="http://www.w3.org/2000/svg" xmlns:xlink="http://www.w3.org/1999/xlink">
<g id="graph0" class="graph" transform="scale(1 1) rotate(0) translate(4 60.25)">
<title>ControllerUI::printf</title>
<!-- Node1 -->
<g id="Node000001" class="node">
<title>Node1</title>
<g id="a_Node000001"><a xlink:title="Print formatted data to display, at (col, row). Calculates lengths and creates appropriate buffer int...">
<polygon fill="#999999" stroke="#666666" points="94,-37.25 0,-37.25 0,-18 94,-18 94,-37.25"/>
<text text-anchor="middle" x="47" y="-23.75" font-family="Helvetica,sans-Serif" font-size="10.00">ControllerUI::printf</text>
</a>
</g>
</g>
<!-- Node2 -->
<g id="Node000002" class="node">
<title>Node2</title>
<g id="a_Node000002"><a xlink:href="asprintf_8h.html#a8e2a40be4816c793857112b1960e912b" target="_top" xlink:title="Print formatted data to string. Automatically allocates string on the heap. Make sure to delete it im...">
<polygon fill="white" stroke="#666666" points="211.25,-56.25 163,-56.25 163,-37 211.25,-37 211.25,-56.25"/>
<text text-anchor="middle" x="187.12" y="-42.75" font-family="Helvetica,sans-Serif" font-size="10.00">asprintf</text>
</a>
</g>
</g>
<!-- Node1&#45;&gt;Node2 -->
<g id="edge1_Node000001_Node000002" class="edge">
<title>Node1&#45;&gt;Node2</title>
<g id="a_edge1_Node000001_Node000002"><a xlink:title=" ">
<path fill="none" stroke="#63b8ff" d="M94.38,-34C112.97,-36.56 134.03,-39.46 151.28,-41.83"/>
<polygon fill="#63b8ff" stroke="#63b8ff" points="150.66,-45.28 161.04,-43.17 151.61,-38.34 150.66,-45.28"/>
</a>
</g>
</g>
<!-- Node3 -->
<g id="Node000003" class="node">
<title>Node3</title>
<g id="a_Node000003"><a xlink:href="classControllerUI.html#a94aed853c67197d32434244f8941c21e" target="_top" xlink:title="Set cursor to coordinates.">
<polygon fill="white" stroke="#666666" points="244.25,-19.25 130,-19.25 130,0 244.25,0 244.25,-19.25"/>
<text text-anchor="middle" x="187.12" y="-5.75" font-family="Helvetica,sans-Serif" font-size="10.00">ControllerUI::setCursor</text>
</a>
</g>
</g>
<!-- Node1&#45;&gt;Node3 -->
<g id="edge2_Node000001_Node000003" class="edge">
<title>Node1&#45;&gt;Node3</title>
<g id="a_edge2_Node000001_Node000003"><a xlink:title=" ">
<path fill="none" stroke="#63b8ff" d="M94.38,-21.58C102.05,-20.58 110.14,-19.53 118.21,-18.48"/>
<polygon fill="#63b8ff" stroke="#63b8ff" points="118.59,-21.96 128.06,-17.19 117.69,-15.01 118.59,-21.96"/>
</a>
</g>
</g>
</g>
</svg>
