<?xml version="1.0" encoding="UTF-8" standalone="no"?>
<!DOCTYPE svg PUBLIC "-//W3C//DTD SVG 1.1//EN"
 "http://www.w3.org/Graphics/SVG/1.1/DTD/svg11.dtd">
<!-- Generated by graphviz version 12.0.0 (20240704.0754)
 -->
<!-- Title: GraphicalDisplayUI::draw Pages: 1 -->
<svg width="670pt" height="186pt"
 viewBox="0.00 0.00 670.00 185.50" xmlns="http://www.w3.org/2000/svg" xmlns:xlink="http://www.w3.org/1999/xlink">
<g id="graph0" class="graph" transform="scale(1 1) rotate(0) translate(4 181.5)">
<title>GraphicalDisplayUI::draw</title>
<!-- Node1 -->
<g id="Node000001" class="node">
<title>Node1</title>
<g id="a_Node000001"><a xlink:title="Draw main interface (main loop).">
<polygon fill="#999999" stroke="#666666" points="99.25,-103.5 0,-103.5 0,-73 99.25,-73 99.25,-103.5"/>
<text text-anchor="start" x="8" y="-90" font-family="Helvetica,sans-Serif" font-size="10.00">GraphicalDisplayUI</text>
<text text-anchor="middle" x="49.62" y="-78.75" font-family="Helvetica,sans-Serif" font-size="10.00">::draw</text>
</a>
</g>
</g>
<!-- Node2 -->
<g id="Node000002" class="node">
<title>Node2</title>
<g id="a_Node000002"><a xlink:href="classGraphicalDisplayUI.html#aa1797798b407f534ccaddf6304ce1a7d" target="_top" xlink:title="Draw the Config tab.">
<polygon fill="white" stroke="#666666" points="234.5,-177.5 135.25,-177.5 135.25,-147 234.5,-147 234.5,-177.5"/>
<text text-anchor="start" x="143.25" y="-164" font-family="Helvetica,sans-Serif" font-size="10.00">GraphicalDisplayUI</text>
<text text-anchor="middle" x="184.88" y="-152.75" font-family="Helvetica,sans-Serif" font-size="10.00">::drawConfig</text>
</a>
</g>
</g>
<!-- Node1&#45;&gt;Node2 -->
<g id="edge1_Node000001_Node000002" class="edge">
<title>Node1&#45;&gt;Node2</title>
<g id="a_edge1_Node000001_Node000002"><a xlink:title=" ">
<path fill="none" stroke="#63b8ff" d="M76.74,-103.82C93.37,-113.62 115.43,-126.43 135.25,-137.25 137.73,-138.6 140.29,-139.98 142.87,-141.36"/>
<polygon fill="#63b8ff" stroke="#63b8ff" points="141.06,-144.36 151.55,-145.91 144.32,-138.16 141.06,-144.36"/>
</a>
</g>
</g>
<!-- Node7 -->
<g id="Node000007" class="node">
<title>Node7</title>
<g id="a_Node000007"><a xlink:href="classGraphicalDisplayUI.html#a1c6ba21cf53a2ec496723904101fb05c" target="_top" xlink:title="Draw the Main tab.">
<polygon fill="white" stroke="#666666" points="234.5,-128.5 135.25,-128.5 135.25,-98 234.5,-98 234.5,-128.5"/>
<text text-anchor="start" x="143.25" y="-115" font-family="Helvetica,sans-Serif" font-size="10.00">GraphicalDisplayUI</text>
<text text-anchor="middle" x="184.88" y="-103.75" font-family="Helvetica,sans-Serif" font-size="10.00">::drawMain</text>
</a>
</g>
</g>
<!-- Node1&#45;&gt;Node7 -->
<g id="edge7_Node000001_Node000007" class="edge">
<title>Node1&#45;&gt;Node7</title>
<g id="a_edge7_Node000001_Node000007"><a xlink:title=" ">
<path fill="none" stroke="#63b8ff" d="M99.49,-97.42C107.45,-98.91 115.78,-100.47 123.98,-102.01"/>
<polygon fill="#63b8ff" stroke="#63b8ff" points="123.06,-105.4 133.53,-103.8 124.35,-98.52 123.06,-105.4"/>
</a>
</g>
</g>
<!-- Node8 -->
<g id="Node000008" class="node">
<title>Node8</title>
<g id="a_Node000008"><a xlink:href="classGraphicalDisplayUI.html#a85c871a16eaa3b27f170305ae0eb8ea1" target="_top" xlink:title="Draw the tab bar.">
<polygon fill="white" stroke="#666666" points="234.5,-79.5 135.25,-79.5 135.25,-49 234.5,-49 234.5,-79.5"/>
<text text-anchor="start" x="143.25" y="-66" font-family="Helvetica,sans-Serif" font-size="10.00">GraphicalDisplayUI</text>
<text text-anchor="middle" x="184.88" y="-54.75" font-family="Helvetica,sans-Serif" font-size="10.00">::drawTabBar</text>
</a>
</g>
</g>
<!-- Node1&#45;&gt;Node8 -->
<g id="edge8_Node000001_Node000008" class="edge">
<title>Node1&#45;&gt;Node8</title>
<g id="a_edge8_Node000001_Node000008"><a xlink:title=" ">
<path fill="none" stroke="#63b8ff" d="M99.49,-79.45C107.36,-78.03 115.59,-76.55 123.7,-75.09"/>
<polygon fill="#63b8ff" stroke="#63b8ff" points="124.31,-78.53 133.53,-73.32 123.07,-71.65 124.31,-78.53"/>
</a>
</g>
</g>
<!-- Node9 -->
<g id="Node000009" class="node">
<title>Node9</title>
<g id="a_Node000009"><a xlink:href="classGraphicalDisplayUI.html#a41ae47f8e4d0bd909b6d2be9765cdbc4" target="_top" xlink:title=" ">
<polygon fill="white" stroke="#666666" points="234.5,-30.5 135.25,-30.5 135.25,0 234.5,0 234.5,-30.5"/>
<text text-anchor="start" x="143.25" y="-17" font-family="Helvetica,sans-Serif" font-size="10.00">GraphicalDisplayUI</text>
<text text-anchor="middle" x="184.88" y="-5.75" font-family="Helvetica,sans-Serif" font-size="10.00">::drawTabInfo</text>
</a>
</g>
</g>
<!-- Node1&#45;&gt;Node9 -->
<g id="edge9_Node000001_Node000009" class="edge">
<title>Node1&#45;&gt;Node9</title>
<g id="a_edge9_Node000001_Node000009"><a xlink:title=" ">
<path fill="none" stroke="#63b8ff" d="M77.53,-72.62C94.08,-63.09 115.78,-50.77 135.25,-40.25 137.73,-38.91 140.3,-37.54 142.89,-36.17"/>
<polygon fill="#63b8ff" stroke="#63b8ff" points="144.33,-39.37 151.57,-31.63 141.08,-33.16 144.33,-39.37"/>
</a>
</g>
</g>
<!-- Node3 -->
<g id="Node000003" class="node">
<title>Node3</title>
<g id="a_Node000003"><a xlink:href="classConfigPar.html#a0bece1a8613c7c8ba8d87e28acf2cb34" target="_top" xlink:title="Print &quot;label: value&quot; to string. Automatically allocates string on the heap. Make sure to delete it im...">
<polygon fill="white" stroke="#666666" points="510.62,-171.88 418.88,-171.88 418.88,-152.62 510.62,-152.62 510.62,-171.88"/>
<text text-anchor="middle" x="464.75" y="-158.38" font-family="Helvetica,sans-Serif" font-size="10.00">ConfigPar::asprint</text>
</a>
</g>
</g>
<!-- Node2&#45;&gt;Node3 -->
<g id="edge2_Node000002_Node000003" class="edge">
<title>Node2&#45;&gt;Node3</title>
<g id="a_edge2_Node000002_Node000003"><a xlink:title=" ">
<path fill="none" stroke="#63b8ff" d="M234.91,-162.25C283.05,-162.25 356.41,-162.25 407.03,-162.25"/>
<polygon fill="#63b8ff" stroke="#63b8ff" points="406.91,-165.75 416.91,-162.25 406.91,-158.75 406.91,-165.75"/>
</a>
</g>
</g>
<!-- Node5 -->
<g id="Node000005" class="node">
<title>Node5</title>
<g id="a_Node000005"><a xlink:href="classConfigPar.html#a099b55d3836247dc0ebbe2609d3809cd" target="_top" xlink:title="Get magnitude (number of digits before the decimal separator) of variable.">
<polygon fill="white" stroke="#666666" points="379.88,-125.88 272.38,-125.88 272.38,-106.62 379.88,-106.62 379.88,-125.88"/>
<text text-anchor="middle" x="326.12" y="-112.38" font-family="Helvetica,sans-Serif" font-size="10.00">ConfigPar::magnitude</text>
</a>
</g>
</g>
<!-- Node2&#45;&gt;Node5 -->
<g id="edge4_Node000002_Node000005" class="edge">
<title>Node2&#45;&gt;Node5</title>
<g id="a_edge4_Node000002_Node000005"><a xlink:title=" ">
<path fill="none" stroke="#63b8ff" d="M233.41,-146.55C249.92,-141.09 268.29,-135.02 284.22,-129.76"/>
<polygon fill="#63b8ff" stroke="#63b8ff" points="284.98,-133.2 293.37,-126.74 282.78,-126.55 284.98,-133.2"/>
</a>
</g>
</g>
<!-- Node4 -->
<g id="Node000004" class="node">
<title>Node4</title>
<g id="a_Node000004"><a xlink:href="asprintf_8h.html#a8e2a40be4816c793857112b1960e912b" target="_top" xlink:title="Print formatted data to string. Automatically allocates string on the heap. Make sure to delete it im...">
<polygon fill="white" stroke="#666666" points="629,-135.88 580.75,-135.88 580.75,-116.62 629,-116.62 629,-135.88"/>
<text text-anchor="middle" x="604.88" y="-122.38" font-family="Helvetica,sans-Serif" font-size="10.00">asprintf</text>
</a>
</g>
</g>
<!-- Node3&#45;&gt;Node4 -->
<g id="edge3_Node000003_Node000004" class="edge">
<title>Node3&#45;&gt;Node4</title>
<g id="a_edge3_Node000003_Node000004"><a xlink:title=" ">
<path fill="none" stroke="#63b8ff" d="M504.59,-152.13C525,-146.81 549.8,-140.34 569.51,-135.21"/>
<polygon fill="#63b8ff" stroke="#63b8ff" points="570.19,-138.65 578.99,-132.74 568.43,-131.87 570.19,-138.65"/>
</a>
</g>
</g>
<!-- Node6 -->
<g id="Node000006" class="node">
<title>Node6</title>
<g id="a_Node000006"><a xlink:href="imath_8h.html#a1b826c7311037e4e89052d8f5d59afe6" target="_top" xlink:title="Constexpr integer base&#45;10 logarithm.">
<polygon fill="white" stroke="#666666" points="485.5,-116.88 444,-116.88 444,-97.62 485.5,-97.62 485.5,-116.88"/>
<text text-anchor="middle" x="464.75" y="-103.38" font-family="Helvetica,sans-Serif" font-size="10.00">ilog10</text>
</a>
</g>
</g>
<!-- Node5&#45;&gt;Node6 -->
<g id="edge5_Node000005_Node000006" class="edge">
<title>Node5&#45;&gt;Node6</title>
<g id="a_edge5_Node000005_Node000006"><a xlink:title=" ">
<path fill="none" stroke="#63b8ff" d="M380.34,-112.74C397.84,-111.59 416.73,-110.35 432.1,-109.33"/>
<polygon fill="#63b8ff" stroke="#63b8ff" points="432.32,-112.83 442.07,-108.68 431.86,-105.84 432.32,-112.83"/>
</a>
</g>
</g>
<!-- Node6&#45;&gt;Node6 -->
<g id="edge6_Node000006_Node000006" class="edge">
<title>Node6&#45;&gt;Node6</title>
<g id="a_edge6_Node000006_Node000006"><a xlink:title=" ">
<path fill="none" stroke="#63b8ff" d="M443.73,-116.59C432.84,-125.36 439.84,-134.88 464.75,-134.88 479.54,-134.88 488.02,-131.52 490.18,-126.96"/>
<polygon fill="#63b8ff" stroke="#63b8ff" points="493.5,-125.81 486.36,-117.98 487.06,-128.55 493.5,-125.81"/>
</a>
</g>
</g>
<!-- Node10 -->
<g id="Node000010" class="node">
<title>Node10</title>
<g id="a_Node000010"><a xlink:href="classControllerUI.html#aa14a64631f7993d6e22ac9e6f5bf4b44" target="_top" xlink:title="Print formatted data to display, at (col, row). Calculates lengths and creates appropriate buffer int...">
<polygon fill="white" stroke="#666666" points="511.75,-62.88 417.75,-62.88 417.75,-43.62 511.75,-43.62 511.75,-62.88"/>
<text text-anchor="middle" x="464.75" y="-49.38" font-family="Helvetica,sans-Serif" font-size="10.00">ControllerUI::printf</text>
</a>
</g>
</g>
<!-- Node9&#45;&gt;Node10 -->
<g id="edge10_Node000009_Node000010" class="edge">
<title>Node9&#45;&gt;Node10</title>
<g id="a_edge10_Node000009_Node000010"><a xlink:title=" ">
<path fill="none" stroke="#63b8ff" d="M234.9,-27.33C246.52,-29.89 258.9,-32.39 270.5,-34.25 315.94,-41.56 367.88,-46.47 406.46,-49.47"/>
<polygon fill="#63b8ff" stroke="#63b8ff" points="405.73,-52.93 415.96,-50.19 406.25,-45.95 405.73,-52.93"/>
</a>
</g>
</g>
<!-- Node12 -->
<g id="Node000012" class="node">
<title>Node12</title>
<g id="a_Node000012"><a xlink:href="classControllerUI.html#abfabf4c49c12dcb8ee5e8b5a899cc920" target="_top" xlink:title="Print temperature read from thermistors. Handles NaN values as 0.">
<polygon fill="white" stroke="#666666" points="381.75,-24.88 270.5,-24.88 270.5,-5.62 381.75,-5.62 381.75,-24.88"/>
<text text-anchor="middle" x="326.12" y="-11.38" font-family="Helvetica,sans-Serif" font-size="10.00">ControllerUI::printNTC</text>
</a>
</g>
</g>
<!-- Node9&#45;&gt;Node12 -->
<g id="edge13_Node000009_Node000012" class="edge">
<title>Node9&#45;&gt;Node12</title>
<g id="a_edge13_Node000009_Node000012"><a xlink:title=" ">
<path fill="none" stroke="#63b8ff" d="M234.97,-15.25C242.74,-15.25 250.88,-15.25 258.97,-15.25"/>
<polygon fill="#63b8ff" stroke="#63b8ff" points="258.79,-18.75 268.79,-15.25 258.79,-11.75 258.79,-18.75"/>
</a>
</g>
</g>
<!-- Node10&#45;&gt;Node4 -->
<g id="edge11_Node000010_Node000004" class="edge">
<title>Node10&#45;&gt;Node4</title>
<g id="a_edge11_Node000010_Node000004"><a xlink:title=" ">
<path fill="none" stroke="#63b8ff" d="M484.67,-63.25C507.89,-75.52 547.52,-96.46 574.66,-110.81"/>
<polygon fill="#63b8ff" stroke="#63b8ff" points="572.93,-113.85 583.41,-115.43 576.2,-107.66 572.93,-113.85"/>
</a>
</g>
</g>
<!-- Node11 -->
<g id="Node000011" class="node">
<title>Node11</title>
<g id="a_Node000011"><a xlink:href="classControllerUI.html#a94aed853c67197d32434244f8941c21e" target="_top" xlink:title="Set cursor to coordinates.">
<polygon fill="white" stroke="#666666" points="662,-62.88 547.75,-62.88 547.75,-43.62 662,-43.62 662,-62.88"/>
<text text-anchor="middle" x="604.88" y="-49.38" font-family="Helvetica,sans-Serif" font-size="10.00">ControllerUI::setCursor</text>
</a>
</g>
</g>
<!-- Node10&#45;&gt;Node11 -->
<g id="edge12_Node000010_Node000011" class="edge">
<title>Node10&#45;&gt;Node11</title>
<g id="a_edge12_Node000010_Node000011"><a xlink:title=" ">
<path fill="none" stroke="#63b8ff" d="M512.13,-53.25C519.8,-53.25 527.89,-53.25 535.96,-53.25"/>
<polygon fill="#63b8ff" stroke="#63b8ff" points="535.79,-56.75 545.79,-53.25 535.79,-49.75 535.79,-56.75"/>
</a>
</g>
</g>
<!-- Node12&#45;&gt;Node10 -->
<g id="edge14_Node000012_Node000010" class="edge">
<title>Node12&#45;&gt;Node10</title>
<g id="a_edge14_Node000012_Node000010"><a xlink:title=" ">
<path fill="none" stroke="#63b8ff" d="M363.38,-25.33C379.88,-29.92 399.6,-35.41 417.18,-40.3"/>
<polygon fill="#63b8ff" stroke="#63b8ff" points="415.77,-43.54 426.34,-42.85 417.65,-36.79 415.77,-43.54"/>
</a>
</g>
</g>
</g>
</svg>
