<?xml version="1.0" encoding="UTF-8" standalone="no"?>
<!DOCTYPE svg PUBLIC "-//W3C//DTD SVG 1.1//EN"
 "http://www.w3.org/Graphics/SVG/1.1/DTD/svg11.dtd">
<!-- Generated by graphviz version 12.0.0 (20240704.0754)
 -->
<!-- Title: PID::compute Pages: 1 -->
<svg width="391pt" height="76pt"
 viewBox="0.00 0.00 390.50 75.88" xmlns="http://www.w3.org/2000/svg" xmlns:xlink="http://www.w3.org/1999/xlink">
<g id="graph0" class="graph" transform="scale(1 1) rotate(0) translate(4 71.88)">
<title>PID::compute</title>
<!-- Node1 -->
<g id="Node000001" class="node">
<title>Node1</title>
<g id="a_Node000001"><a xlink:title="Run a cycle of the PID loop.">
<polygon fill="#999999" stroke="#666666" points="382.5,-43.25 308,-43.25 308,-24 382.5,-24 382.5,-43.25"/>
<text text-anchor="middle" x="345.25" y="-29.75" font-family="Helvetica,sans-Serif" font-size="10.00">PID::compute</text>
</a>
</g>
</g>
<!-- Node2 -->
<g id="Node000002" class="node">
<title>Node2</title>
<g id="a_Node000002"><a xlink:href="classHumidistat.html#ae30511d6477f5996de05996bdf221730" target="_top" xlink:title="Run a cycle of the controller. Reads a sample from the humidity controller and runs PID.">
<polygon fill="white" stroke="#666666" points="268.62,-25.25 163.38,-25.25 163.38,-6 268.62,-6 268.62,-25.25"/>
<text text-anchor="middle" x="216" y="-11.75" font-family="Helvetica,sans-Serif" font-size="10.00">Humidistat::runCycle</text>
</a>
</g>
</g>
<!-- Node1&#45;&gt;Node2 -->
<g id="edge1_Node000001_Node000002" class="edge">
<title>Node1&#45;&gt;Node2</title>
<g id="a_edge1_Node000001_Node000002"><a xlink:title=" ">
<path fill="none" stroke="#63b8ff" d="M296.39,-26.86C287.49,-25.6 278.14,-24.27 269.12,-23"/>
<polygon fill="#63b8ff" stroke="#63b8ff" points="295.89,-30.32 306.29,-28.25 296.88,-23.39 295.89,-30.32"/>
</a>
</g>
</g>
<!-- Node5 -->
<g id="Node000005" class="node">
<title>Node5</title>
<g id="a_Node000005"><a xlink:href="classFlowController.html#a67e791323a0cd95c97266135ba2ecde2" target="_top" xlink:title=" ">
<polygon fill="white" stroke="#666666" points="272,-62.25 160,-62.25 160,-43 272,-43 272,-62.25"/>
<text text-anchor="middle" x="216" y="-48.75" font-family="Helvetica,sans-Serif" font-size="10.00">FlowController::update</text>
</a>
</g>
</g>
<!-- Node1&#45;&gt;Node5 -->
<g id="edge4_Node000001_Node000005" class="edge">
<title>Node1&#45;&gt;Node5</title>
<g id="a_edge4_Node000001_Node000005"><a xlink:title=" ">
<path fill="none" stroke="#63b8ff" d="M296.57,-40.74C288.7,-41.92 280.49,-43.15 272.45,-44.35"/>
<polygon fill="#63b8ff" stroke="#63b8ff" points="296.91,-44.23 306.29,-39.29 295.88,-37.31 296.91,-44.23"/>
</a>
</g>
</g>
<!-- Node3 -->
<g id="Node000003" class="node">
<title>Node3</title>
<g id="a_Node000003"><a xlink:href="classCascadeHumidistat.html#a5a4f6ad4f30f5f033462af46d47cf959" target="_top" xlink:title=" ">
<polygon fill="white" stroke="#666666" points="115,-67.88 9,-67.88 9,-37.38 115,-37.38 115,-67.88"/>
<text text-anchor="start" x="17" y="-54.38" font-family="Helvetica,sans-Serif" font-size="10.00">CascadeHumidistat::</text>
<text text-anchor="middle" x="62" y="-43.12" font-family="Helvetica,sans-Serif" font-size="10.00">update</text>
</a>
</g>
</g>
<!-- Node2&#45;&gt;Node3 -->
<g id="edge2_Node000002_Node000003" class="edge">
<title>Node2&#45;&gt;Node3</title>
<g id="a_edge2_Node000002_Node000003"><a xlink:title=" ">
<path fill="none" stroke="#63b8ff" d="M162.63,-28.37C147.34,-32.09 130.65,-36.16 115.36,-39.88"/>
<polygon fill="#63b8ff" stroke="#63b8ff" points="163.11,-31.86 171.99,-26.09 161.45,-25.06 163.11,-31.86"/>
</a>
</g>
</g>
<!-- Node4 -->
<g id="Node000004" class="node">
<title>Node4</title>
<g id="a_Node000004"><a xlink:href="classSingleHumidistat.html#af667a97d9c89b5801dab0956f88acd70" target="_top" xlink:title=" ">
<polygon fill="white" stroke="#666666" points="124,-19.25 0,-19.25 0,0 124,0 124,-19.25"/>
<text text-anchor="middle" x="62" y="-5.75" font-family="Helvetica,sans-Serif" font-size="10.00">SingleHumidistat::update</text>
</a>
</g>
</g>
<!-- Node2&#45;&gt;Node4 -->
<g id="edge3_Node000002_Node000004" class="edge">
<title>Node2&#45;&gt;Node4</title>
<g id="a_edge3_Node000002_Node000004"><a xlink:title=" ">
<path fill="none" stroke="#63b8ff" d="M151.79,-13.13C142.72,-12.77 133.39,-12.4 124.35,-12.05"/>
<polygon fill="#63b8ff" stroke="#63b8ff" points="151.47,-16.62 161.6,-13.52 151.75,-9.63 151.47,-16.62"/>
</a>
</g>
</g>
<!-- Node5&#45;&gt;Node3 -->
<g id="edge5_Node000005_Node000003" class="edge">
<title>Node5&#45;&gt;Node3</title>
<g id="a_edge5_Node000005_Node000003"><a xlink:title=" ">
<path fill="none" stroke="#63b8ff" d="M148.36,-52.62C137.35,-52.62 126.08,-52.62 115.48,-52.62"/>
<polygon fill="#63b8ff" stroke="#63b8ff" points="148.18,-56.13 158.18,-52.63 148.18,-49.13 148.18,-56.13"/>
</a>
</g>
</g>
</g>
</svg>
