<?xml version="1.0" encoding="UTF-8" standalone="no"?>
<!DOCTYPE svg PUBLIC "-//W3C//DTD SVG 1.1//EN"
 "http://www.w3.org/Graphics/SVG/1.1/DTD/svg11.dtd">
<!-- Generated by graphviz version 12.0.0 (20240704.0754)
 -->
<!-- Title: ControllerUI::adjustValue Pages: 1 -->
<svg width="436pt" height="76pt"
 viewBox="0.00 0.00 435.50 75.88" xmlns="http://www.w3.org/2000/svg" xmlns:xlink="http://www.w3.org/1999/xlink">
<g id="graph0" class="graph" transform="scale(1 1) rotate(0) translate(4 71.88)">
<title>ControllerUI::adjustValue</title>
<!-- Node1 -->
<g id="Node000001" class="node">
<title>Node1</title>
<g id="a_Node000001"><a xlink:title="In&#45;/de&#45;crement a variable, while clipping it to [min, max].">
<polygon fill="#999999" stroke="#666666" points="427.5,-45.88 304.25,-45.88 304.25,-26.62 427.5,-26.62 427.5,-45.88"/>
<text text-anchor="middle" x="365.88" y="-32.38" font-family="Helvetica,sans-Serif" font-size="10.00">ControllerUI::adjustValue</text>
</a>
</g>
</g>
<!-- Node2 -->
<g id="Node000002" class="node">
<title>Node2</title>
<g id="a_Node000002"><a xlink:href="classCharDisplayUI.html#a4fef4976bbeb2197ab3d8bcedc25c2dc" target="_top" xlink:title="Handle input.">
<polygon fill="white" stroke="#666666" points="268.25,-67.88 135.25,-67.88 135.25,-48.62 268.25,-48.62 268.25,-67.88"/>
<text text-anchor="middle" x="201.75" y="-54.38" font-family="Helvetica,sans-Serif" font-size="10.00">CharDisplayUI::handleInput</text>
</a>
</g>
</g>
<!-- Node1&#45;&gt;Node2 -->
<g id="edge1_Node000001_Node000002" class="edge">
<title>Node1&#45;&gt;Node2</title>
<g id="a_edge1_Node000001_Node000002"><a xlink:title=" ">
<path fill="none" stroke="#63b8ff" d="M292.76,-46.04C284.7,-47.13 276.51,-48.24 268.54,-49.32"/>
<polygon fill="#63b8ff" stroke="#63b8ff" points="293.11,-49.52 302.54,-44.71 292.16,-42.58 293.11,-49.52"/>
</a>
</g>
</g>
<!-- Node3 -->
<g id="Node000003" class="node">
<title>Node3</title>
<g id="a_Node000003"><a xlink:href="classGraphicalDisplayUI.html#a948cf32243a585b1a88c0989efd9d474" target="_top" xlink:title="Handle input on the Main tab.">
<polygon fill="white" stroke="#666666" points="251.38,-30.5 152.12,-30.5 152.12,0 251.38,0 251.38,-30.5"/>
<text text-anchor="start" x="160.12" y="-17" font-family="Helvetica,sans-Serif" font-size="10.00">GraphicalDisplayUI</text>
<text text-anchor="middle" x="201.75" y="-5.75" font-family="Helvetica,sans-Serif" font-size="10.00">::handleInputMain</text>
</a>
</g>
</g>
<!-- Node1&#45;&gt;Node3 -->
<g id="edge2_Node000001_Node000003" class="edge">
<title>Node1&#45;&gt;Node3</title>
<g id="a_edge2_Node000001_Node000003"><a xlink:title=" ">
<path fill="none" stroke="#63b8ff" d="M292.99,-26.94C279.06,-25.13 264.76,-23.28 251.78,-21.6"/>
<polygon fill="#63b8ff" stroke="#63b8ff" points="292.18,-30.36 302.54,-28.18 293.08,-23.42 292.18,-30.36"/>
</a>
</g>
</g>
<!-- Node4 -->
<g id="Node000004" class="node">
<title>Node4</title>
<g id="a_Node000004"><a xlink:href="classGraphicalDisplayUI.html#a3e340b5f072ed6a4251069f4a408e4b0" target="_top" xlink:title="Handle input.">
<polygon fill="white" stroke="#666666" points="99.25,-30.5 0,-30.5 0,0 99.25,0 99.25,-30.5"/>
<text text-anchor="start" x="8" y="-17" font-family="Helvetica,sans-Serif" font-size="10.00">GraphicalDisplayUI</text>
<text text-anchor="middle" x="49.62" y="-5.75" font-family="Helvetica,sans-Serif" font-size="10.00">::handleInput</text>
</a>
</g>
</g>
<!-- Node3&#45;&gt;Node4 -->
<g id="edge3_Node000003_Node000004" class="edge">
<title>Node3&#45;&gt;Node4</title>
<g id="a_edge3_Node000003_Node000004"><a xlink:title=" ">
<path fill="none" stroke="#63b8ff" d="M140.75,-15.25C127.1,-15.25 112.76,-15.25 99.64,-15.25"/>
<polygon fill="#63b8ff" stroke="#63b8ff" points="140.5,-18.75 150.5,-15.25 140.5,-11.75 140.5,-18.75"/>
</a>
</g>
</g>
</g>
</svg>
