<?xml version="1.0" encoding="UTF-8" standalone="no"?>
<!DOCTYPE svg PUBLIC "-//W3C//DTD SVG 1.1//EN"
 "http://www.w3.org/Graphics/SVG/1.1/DTD/svg11.dtd">
<!-- Generated by graphviz version 12.0.0 (20240704.0754)
 -->
<!-- Title: SerialLogger::log Pages: 1 -->
<svg width="467pt" height="70pt"
 viewBox="0.00 0.00 467.00 69.88" xmlns="http://www.w3.org/2000/svg" xmlns:xlink="http://www.w3.org/1999/xlink">
<g id="graph0" class="graph" transform="scale(1 1) rotate(0) translate(4 65.88)">
<title>SerialLogger::log</title>
<!-- Node1 -->
<g id="Node000001" class="node">
<title>Node1</title>
<g id="a_Node000001"><a xlink:title=" ">
<polygon fill="#999999" stroke="#666666" points="88,-42.88 0,-42.88 0,-23.62 88,-23.62 88,-42.88"/>
<text text-anchor="middle" x="44" y="-29.38" font-family="Helvetica,sans-Serif" font-size="10.00">SerialLogger::log</text>
</a>
</g>
</g>
<!-- Node2 -->
<g id="Node000002" class="node">
<title>Node2</title>
<g id="a_Node000002"><a xlink:href="asprintf_8h.html#a8e2a40be4816c793857112b1960e912b" target="_top" xlink:title="Print formatted data to string. Automatically allocates string on the heap. Make sure to delete it im...">
<polygon fill="white" stroke="#666666" points="218.75,-61.88 170.5,-61.88 170.5,-42.62 218.75,-42.62 218.75,-61.88"/>
<text text-anchor="middle" x="194.62" y="-48.38" font-family="Helvetica,sans-Serif" font-size="10.00">asprintf</text>
</a>
</g>
</g>
<!-- Node1&#45;&gt;Node2 -->
<g id="edge1_Node000001_Node000002" class="edge">
<title>Node1&#45;&gt;Node2</title>
<g id="a_edge1_Node000001_Node000002"><a xlink:title=" ">
<path fill="none" stroke="#63b8ff" d="M88.39,-38.8C110.84,-41.67 137.87,-45.12 158.92,-47.81"/>
<polygon fill="#63b8ff" stroke="#63b8ff" points="158.37,-51.27 168.73,-49.07 159.26,-44.33 158.37,-51.27"/>
</a>
</g>
</g>
<!-- Node3 -->
<g id="Node000003" class="node">
<title>Node3</title>
<g id="a_Node000003"><a xlink:href="classThermistorReader.html#a61290269ed0011d84d4822d3a60f18cd" target="_top" xlink:title="Get the temperature of the thermistor.">
<polygon fill="white" stroke="#666666" points="265.25,-24.88 124,-24.88 124,-5.63 265.25,-5.63 265.25,-24.88"/>
<text text-anchor="middle" x="194.62" y="-11.38" font-family="Helvetica,sans-Serif" font-size="10.00">ThermistorReader::readTemp</text>
</a>
</g>
</g>
<!-- Node1&#45;&gt;Node3 -->
<g id="edge2_Node000001_Node000003" class="edge">
<title>Node1&#45;&gt;Node3</title>
<g id="a_edge2_Node000001_Node000003"><a xlink:title=" ">
<path fill="none" stroke="#63b8ff" d="M88.39,-28C95.99,-27.07 104.11,-26.09 112.35,-25.09"/>
<polygon fill="#63b8ff" stroke="#63b8ff" points="112.61,-28.59 122.12,-23.91 111.77,-21.64 112.61,-28.59"/>
</a>
</g>
</g>
<!-- Node4 -->
<g id="Node000004" class="node">
<title>Node4</title>
<g id="a_Node000004"><a xlink:href="classThermistorReader.html#a0670b7affeba1f06311c917b0d2fe6f4" target="_top" xlink:title="Calculate the resistance of the thermistor in the voltage divider.">
<polygon fill="white" stroke="#666666" points="459,-30.5 301.25,-30.5 301.25,0 459,0 459,-30.5"/>
<text text-anchor="start" x="309.25" y="-17" font-family="Helvetica,sans-Serif" font-size="10.00">ThermistorReader::getThermistor</text>
<text text-anchor="middle" x="380.12" y="-5.75" font-family="Helvetica,sans-Serif" font-size="10.00">Resistance</text>
</a>
</g>
</g>
<!-- Node3&#45;&gt;Node4 -->
<g id="edge3_Node000003_Node000004" class="edge">
<title>Node3&#45;&gt;Node4</title>
<g id="a_edge3_Node000003_Node000004"><a xlink:title=" ">
<path fill="none" stroke="#63b8ff" d="M265.52,-15.25C273.37,-15.25 281.44,-15.25 289.5,-15.25"/>
<polygon fill="#63b8ff" stroke="#63b8ff" points="289.33,-18.75 299.33,-15.25 289.33,-11.75 289.33,-18.75"/>
</a>
</g>
</g>
</g>
</svg>
