<?xml version="1.0" encoding="UTF-8" standalone="no"?>
<!DOCTYPE svg PUBLIC "-//W3C//DTD SVG 1.1//EN"
 "http://www.w3.org/Graphics/SVG/1.1/DTD/svg11.dtd">
<!-- Generated by graphviz version 12.0.0 (20240704.0754)
 -->
<!-- Title: CharDisplayUI Pages: 1 -->
<svg width="210pt" height="283pt"
 viewBox="0.00 0.00 209.75 283.00" xmlns="http://www.w3.org/2000/svg" xmlns:xlink="http://www.w3.org/1999/xlink">
<g id="graph0" class="graph" transform="scale(1 1) rotate(0) translate(4 279)">
<title>CharDisplayUI</title>
<!-- Node1 -->
<g id="Node000001" class="node">
<title>Node1</title>
<g id="a_Node000001"><a xlink:title="TUI for 16x2 character LCD. Holds a reference to a LiquidCrystal instance for writing to display....">
<polygon fill="#999999" stroke="#666666" points="124.75,-19.25 46.5,-19.25 46.5,0 124.75,0 124.75,-19.25"/>
<text text-anchor="middle" x="85.62" y="-5.75" font-family="Helvetica,sans-Serif" font-size="10.00">CharDisplayUI</text>
</a>
</g>
</g>
<!-- Node2 -->
<g id="Node000002" class="node">
<title>Node2</title>
<g id="a_Node000002"><a xlink:href="classControllerUI.html" target="_top" xlink:title="User interface (display and input) for humidistat. Hold references to ButtonReader for keypad input,...">
<polygon fill="white" stroke="#666666" points="71.5,-85.75 3.75,-85.75 3.75,-66.5 71.5,-66.5 71.5,-85.75"/>
<text text-anchor="middle" x="37.62" y="-72.25" font-family="Helvetica,sans-Serif" font-size="10.00">ControllerUI</text>
</a>
</g>
</g>
<!-- Node2&#45;&gt;Node1 -->
<g id="edge1_Node000001_Node000002" class="edge">
<title>Node2&#45;&gt;Node1</title>
<g id="a_edge1_Node000001_Node000002"><a xlink:title=" ">
<path fill="none" stroke="#63b8ff" d="M50.93,-57.24C60.06,-44.97 71.79,-29.21 79.01,-19.52"/>
<polygon fill="#63b8ff" stroke="#63b8ff" points="48.37,-54.83 45.2,-64.94 53.98,-59.01 48.37,-54.83"/>
</a>
</g>
</g>
<!-- Node3 -->
<g id="Node000003" class="node">
<title>Node3</title>
<g id="a_Node000003"><a xlink:href="classButtonReader.html" target="_top" xlink:title="Read button state from a voltage ladder&#45;style keypad.">
<polygon fill="white" stroke="#666666" points="75.25,-152.25 0,-152.25 0,-133 75.25,-133 75.25,-152.25"/>
<text text-anchor="middle" x="37.62" y="-138.75" font-family="Helvetica,sans-Serif" font-size="10.00">ButtonReader</text>
</a>
</g>
</g>
<!-- Node3&#45;&gt;Node2 -->
<g id="edge2_Node000002_Node000003" class="edge">
<title>Node3&#45;&gt;Node2</title>
<g id="a_edge2_Node000002_Node000003"><a xlink:title=" ">
<path fill="none" stroke="#9a32cd" stroke-dasharray="5,2" d="M37.62,-121.15C37.62,-109.32 37.62,-95.04 37.62,-86.02"/>
<polygon fill="#9a32cd" stroke="#9a32cd" points="34.13,-121.14 37.63,-131.14 41.13,-121.14 34.13,-121.14"/>
</a>
</g>
<text text-anchor="middle" x="67.62" y="-105.5" font-family="Helvetica,sans-Serif" font-size="10.00" fill="grey"> buttonReader</text>
</g>
<!-- Node4 -->
<g id="Node000004" class="node">
<title>Node4</title>
<g id="a_Node000004"><a xlink:href="classSingleHumidistat.html" target="_top" xlink:title="Control humidity using PID by driving two solenoid valves. Adjust the public setpoint variable and ca...">
<polygon fill="white" stroke="#666666" points="179.75,-85.75 89.5,-85.75 89.5,-66.5 179.75,-66.5 179.75,-85.75"/>
<text text-anchor="middle" x="134.62" y="-72.25" font-family="Helvetica,sans-Serif" font-size="10.00">SingleHumidistat</text>
</a>
</g>
</g>
<!-- Node4&#45;&gt;Node1 -->
<g id="edge3_Node000001_Node000004" class="edge">
<title>Node4&#45;&gt;Node1</title>
<g id="a_edge3_Node000001_Node000004"><a xlink:title=" ">
<path fill="none" stroke="#9a32cd" stroke-dasharray="5,2" d="M121.04,-57.24C111.72,-44.97 99.74,-29.21 92.38,-19.52"/>
<polygon fill="#9a32cd" stroke="#9a32cd" points="118.06,-59.11 126.9,-64.95 123.63,-54.87 118.06,-59.11"/>
</a>
</g>
<text text-anchor="middle" x="136.25" y="-39" font-family="Helvetica,sans-Serif" font-size="10.00" fill="grey"> humidistat</text>
</g>
<!-- Node5 -->
<g id="Node000005" class="node">
<title>Node5</title>
<g id="a_Node000005"><a xlink:href="classHumidistat.html" target="_top" xlink:title="Base class for a humidistat. Holds a reference to a HumiditySensor instance.">
<polygon fill="white" stroke="#666666" points="166.25,-152.25 103,-152.25 103,-133 166.25,-133 166.25,-152.25"/>
<text text-anchor="middle" x="134.62" y="-138.75" font-family="Helvetica,sans-Serif" font-size="10.00">Humidistat</text>
</a>
</g>
</g>
<!-- Node5&#45;&gt;Node4 -->
<g id="edge4_Node000004_Node000005" class="edge">
<title>Node5&#45;&gt;Node4</title>
<g id="a_edge4_Node000004_Node000005"><a xlink:title=" ">
<path fill="none" stroke="#63b8ff" d="M134.62,-121.15C134.62,-109.32 134.62,-95.04 134.62,-86.02"/>
<polygon fill="#63b8ff" stroke="#63b8ff" points="131.13,-121.14 134.63,-131.14 138.13,-121.14 131.13,-121.14"/>
</a>
</g>
</g>
<!-- Node6 -->
<g id="Node000006" class="node">
<title>Node6</title>
<g id="a_Node000006"><a xlink:href="classController.html" target="_top" xlink:title="Base class for a controller. Owns a PID instance, and holds a reference to a ConfigStore instance.">
<polygon fill="white" stroke="#666666" points="163.25,-208.5 106,-208.5 106,-189.25 163.25,-189.25 163.25,-208.5"/>
<text text-anchor="middle" x="134.62" y="-195" font-family="Helvetica,sans-Serif" font-size="10.00">Controller</text>
</a>
</g>
</g>
<!-- Node6&#45;&gt;Node5 -->
<g id="edge5_Node000005_Node000006" class="edge">
<title>Node6&#45;&gt;Node5</title>
<g id="a_edge5_Node000005_Node000006"><a xlink:title=" ">
<path fill="none" stroke="#63b8ff" d="M134.62,-177.69C134.62,-168.98 134.62,-159.24 134.62,-152.42"/>
<polygon fill="#63b8ff" stroke="#63b8ff" points="131.13,-177.4 134.63,-187.4 138.13,-177.4 131.13,-177.4"/>
</a>
</g>
</g>
<!-- Node7 -->
<g id="Node000007" class="node">
<title>Node7</title>
<g id="a_Node000007"><a xlink:href="classPID.html" target="_top" xlink:title="PID controller in parallel form implemented in floating&#45;point arithmetic. Features Derivative&#45;on&#45;Meas...">
<polygon fill="white" stroke="#666666" points="117.88,-275 85.38,-275 85.38,-255.75 117.88,-255.75 117.88,-275"/>
<text text-anchor="middle" x="101.62" y="-261.5" font-family="Helvetica,sans-Serif" font-size="10.00">PID</text>
</a>
</g>
</g>
<!-- Node7&#45;&gt;Node6 -->
<g id="edge6_Node000006_Node000007" class="edge">
<title>Node7&#45;&gt;Node6</title>
<g id="a_edge6_Node000006_Node000007"><a xlink:title=" ">
<path fill="none" stroke="#9a32cd" stroke-dasharray="5,2" d="M111.34,-245.39C117.53,-233.29 125.26,-218.17 130.08,-208.77"/>
<polygon fill="#9a32cd" stroke="#9a32cd" points="108.34,-243.56 106.9,-254.06 114.57,-246.75 108.34,-243.56"/>
</a>
</g>
<text text-anchor="middle" x="127.12" y="-228.25" font-family="Helvetica,sans-Serif" font-size="10.00" fill="grey"> pid</text>
</g>
<!-- Node8 -->
<g id="Node000008" class="node">
<title>Node8</title>
<g id="a_Node000008"><a xlink:href="structConfigStore.html" target="_top" xlink:title="Config store containing variables, which can be stored in EEPROM.">
<polygon fill="white" stroke="#666666" points="201.75,-275 135.5,-275 135.5,-255.75 201.75,-255.75 201.75,-275"/>
<text text-anchor="middle" x="168.62" y="-261.5" font-family="Helvetica,sans-Serif" font-size="10.00">ConfigStore</text>
</a>
</g>
</g>
<!-- Node8&#45;&gt;Node6 -->
<g id="edge7_Node000006_Node000008" class="edge">
<title>Node8&#45;&gt;Node6</title>
<g id="a_edge7_Node000006_Node000008"><a xlink:title=" ">
<path fill="none" stroke="#9a32cd" stroke-dasharray="5,2" d="M158.62,-245.39C152.24,-233.29 144.27,-218.17 139.31,-208.77"/>
<polygon fill="#9a32cd" stroke="#9a32cd" points="155.43,-246.85 163.19,-254.07 161.62,-243.59 155.43,-246.85"/>
</a>
</g>
<text text-anchor="middle" x="160" y="-228.25" font-family="Helvetica,sans-Serif" font-size="10.00" fill="grey"> cs</text>
</g>
</g>
</svg>
