<?xml version="1.0" encoding="UTF-8" standalone="no"?>
<!DOCTYPE svg PUBLIC "-//W3C//DTD SVG 1.1//EN"
 "http://www.w3.org/Graphics/SVG/1.1/DTD/svg11.dtd">
<!-- Generated by graphviz version 12.0.0 (20240704.0754)
 -->
<!-- Title: Humidistat Pages: 1 -->
<svg width="218pt" height="138pt"
 viewBox="0.00 0.00 217.88 137.75" xmlns="http://www.w3.org/2000/svg" xmlns:xlink="http://www.w3.org/1999/xlink">
<g id="graph0" class="graph" transform="scale(1 1) rotate(0) translate(4 133.75)">
<title>Humidistat</title>
<!-- Node1 -->
<g id="Node000001" class="node">
<title>Node1</title>
<g id="a_Node000001"><a xlink:title="Base class for a humidistat. Holds a reference to a HumiditySensor instance.">
<polygon fill="#999999" stroke="#666666" points="139.38,-74.5 76.12,-74.5 76.12,-55.25 139.38,-55.25 139.38,-74.5"/>
<text text-anchor="middle" x="107.75" y="-61" font-family="Helvetica,sans-Serif" font-size="10.00">Humidistat</text>
</a>
</g>
</g>
<!-- Node3 -->
<g id="Node000003" class="node">
<title>Node3</title>
<g id="a_Node000003"><a xlink:href="classCascadeHumidistat.html" target="_top" xlink:title="Control humidity using cascade PID: outer PID loop sets setpoints of two inner flow controllers,...">
<polygon fill="white" stroke="#666666" points="101.5,-19.25 0,-19.25 0,0 101.5,0 101.5,-19.25"/>
<text text-anchor="middle" x="50.75" y="-5.75" font-family="Helvetica,sans-Serif" font-size="10.00">CascadeHumidistat</text>
</a>
</g>
</g>
<!-- Node1&#45;&gt;Node3 -->
<g id="edge2_Node000001_Node000003" class="edge">
<title>Node1&#45;&gt;Node3</title>
<g id="a_edge2_Node000001_Node000003"><a xlink:title=" ">
<path fill="none" stroke="#63b8ff" d="M89.8,-47.11C80.02,-37.97 68.31,-27.03 60.28,-19.52"/>
<polygon fill="#63b8ff" stroke="#63b8ff" points="87.28,-49.54 96.97,-53.81 92.06,-44.42 87.28,-49.54"/>
</a>
</g>
</g>
<!-- Node4 -->
<g id="Node000004" class="node">
<title>Node4</title>
<g id="a_Node000004"><a xlink:href="classSingleHumidistat.html" target="_top" xlink:title="Control humidity using PID by driving two solenoid valves. Adjust the public setpoint variable and ca...">
<polygon fill="white" stroke="#666666" points="209.88,-19.25 119.62,-19.25 119.62,0 209.88,0 209.88,-19.25"/>
<text text-anchor="middle" x="164.75" y="-5.75" font-family="Helvetica,sans-Serif" font-size="10.00">SingleHumidistat</text>
</a>
</g>
</g>
<!-- Node1&#45;&gt;Node4 -->
<g id="edge3_Node000001_Node000004" class="edge">
<title>Node1&#45;&gt;Node4</title>
<g id="a_edge3_Node000001_Node000004"><a xlink:title=" ">
<path fill="none" stroke="#63b8ff" d="M125.7,-47.11C135.48,-37.97 147.19,-27.03 155.22,-19.52"/>
<polygon fill="#63b8ff" stroke="#63b8ff" points="123.44,-44.42 118.53,-53.81 128.22,-49.54 123.44,-44.42"/>
</a>
</g>
</g>
<!-- Node2 -->
<g id="Node000002" class="node">
<title>Node2</title>
<g id="a_Node000002"><a xlink:href="classController.html" target="_top" xlink:title="Base class for a controller. Owns a PID instance, and holds a reference to a ConfigStore instance.">
<polygon fill="white" stroke="#666666" points="136.38,-129.75 79.12,-129.75 79.12,-110.5 136.38,-110.5 136.38,-129.75"/>
<text text-anchor="middle" x="107.75" y="-116.25" font-family="Helvetica,sans-Serif" font-size="10.00">Controller</text>
</a>
</g>
</g>
<!-- Node2&#45;&gt;Node1 -->
<g id="edge1_Node000001_Node000002" class="edge">
<title>Node2&#45;&gt;Node1</title>
<g id="a_edge1_Node000001_Node000002"><a xlink:title=" ">
<path fill="none" stroke="#63b8ff" d="M107.75,-98.88C107.75,-90.59 107.75,-81.42 107.75,-74.86"/>
<polygon fill="#63b8ff" stroke="#63b8ff" points="104.25,-98.82 107.75,-108.82 111.25,-98.82 104.25,-98.82"/>
</a>
</g>
</g>
</g>
</svg>
