<?xml version="1.0" encoding="UTF-8" standalone="no"?>
<!DOCTYPE svg PUBLIC "-//W3C//DTD SVG 1.1//EN"
 "http://www.w3.org/Graphics/SVG/1.1/DTD/svg11.dtd">
<!-- Generated by graphviz version 12.0.0 (20240704.0754)
 -->
<!-- Title: CharDisplayUI::drawInfo Pages: 1 -->
<svg width="440pt" height="82pt"
 viewBox="0.00 0.00 440.00 82.25" xmlns="http://www.w3.org/2000/svg" xmlns:xlink="http://www.w3.org/1999/xlink">
<g id="graph0" class="graph" transform="scale(1 1) rotate(0) translate(4 78.25)">
<title>CharDisplayUI::drawInfo</title>
<!-- Node1 -->
<g id="Node000001" class="node">
<title>Node1</title>
<g id="a_Node000001"><a xlink:title="Draw info screen.">
<polygon fill="#999999" stroke="#666666" points="120.25,-55.25 0,-55.25 0,-36 120.25,-36 120.25,-55.25"/>
<text text-anchor="middle" x="60.12" y="-41.75" font-family="Helvetica,sans-Serif" font-size="10.00">CharDisplayUI::drawInfo</text>
</a>
</g>
</g>
<!-- Node2 -->
<g id="Node000002" class="node">
<title>Node2</title>
<g id="a_Node000002"><a xlink:href="classController.html#a097a40310e7beb937f7cdcabb2246877" target="_top" xlink:title="Get a pointer to the ConfigStore instance.">
<polygon fill="white" stroke="#666666" points="281.75,-74.25 156.25,-74.25 156.25,-55 281.75,-55 281.75,-74.25"/>
<text text-anchor="middle" x="219" y="-60.75" font-family="Helvetica,sans-Serif" font-size="10.00">Controller::getConfigStore</text>
</a>
</g>
</g>
<!-- Node1&#45;&gt;Node2 -->
<g id="edge1_Node000001_Node000002" class="edge">
<title>Node1&#45;&gt;Node2</title>
<g id="a_edge1_Node000001_Node000002"><a xlink:title=" ">
<path fill="none" stroke="#63b8ff" d="M120.43,-52.81C128.34,-53.77 136.51,-54.76 144.62,-55.74"/>
<polygon fill="#63b8ff" stroke="#63b8ff" points="144.14,-59.21 154.49,-56.93 144.99,-52.26 144.14,-59.21"/>
</a>
</g>
</g>
<!-- Node3 -->
<g id="Node000003" class="node">
<title>Node3</title>
<g id="a_Node000003"><a xlink:href="classControllerUI.html#aa14a64631f7993d6e22ac9e6f5bf4b44" target="_top" xlink:title="Print formatted data to display, at (col, row). Calculates lengths and creates appropriate buffer int...">
<polygon fill="white" stroke="#666666" points="266,-37.25 172,-37.25 172,-18 266,-18 266,-37.25"/>
<text text-anchor="middle" x="219" y="-23.75" font-family="Helvetica,sans-Serif" font-size="10.00">ControllerUI::printf</text>
</a>
</g>
</g>
<!-- Node1&#45;&gt;Node3 -->
<g id="edge2_Node000001_Node000003" class="edge">
<title>Node1&#45;&gt;Node3</title>
<g id="a_edge2_Node000001_Node000003"><a xlink:title=" ">
<path fill="none" stroke="#63b8ff" d="M120.43,-38.82C133.59,-37.31 147.5,-35.71 160.58,-34.21"/>
<polygon fill="#63b8ff" stroke="#63b8ff" points="160.77,-37.71 170.31,-33.1 159.98,-30.76 160.77,-37.71"/>
</a>
</g>
</g>
<!-- Node4 -->
<g id="Node000004" class="node">
<title>Node4</title>
<g id="a_Node000004"><a xlink:href="asprintf_8h.html#a8e2a40be4816c793857112b1960e912b" target="_top" xlink:title="Print formatted data to string. Automatically allocates string on the heap. Make sure to delete it im...">
<polygon fill="white" stroke="#666666" points="399,-56.25 350.75,-56.25 350.75,-37 399,-37 399,-56.25"/>
<text text-anchor="middle" x="374.88" y="-42.75" font-family="Helvetica,sans-Serif" font-size="10.00">asprintf</text>
</a>
</g>
</g>
<!-- Node3&#45;&gt;Node4 -->
<g id="edge3_Node000003_Node000004" class="edge">
<title>Node3&#45;&gt;Node4</title>
<g id="a_edge3_Node000003_Node000004"><a xlink:title=" ">
<path fill="none" stroke="#63b8ff" d="M266.17,-33.33C289.62,-36.22 317.64,-39.68 339.22,-42.35"/>
<polygon fill="#63b8ff" stroke="#63b8ff" points="338.63,-45.8 348.98,-43.55 339.48,-38.85 338.63,-45.8"/>
</a>
</g>
</g>
<!-- Node5 -->
<g id="Node000005" class="node">
<title>Node5</title>
<g id="a_Node000005"><a xlink:href="classControllerUI.html#a94aed853c67197d32434244f8941c21e" target="_top" xlink:title="Set cursor to coordinates.">
<polygon fill="white" stroke="#666666" points="432,-19.25 317.75,-19.25 317.75,0 432,0 432,-19.25"/>
<text text-anchor="middle" x="374.88" y="-5.75" font-family="Helvetica,sans-Serif" font-size="10.00">ControllerUI::setCursor</text>
</a>
</g>
</g>
<!-- Node3&#45;&gt;Node5 -->
<g id="edge4_Node000003_Node000005" class="edge">
<title>Node3&#45;&gt;Node5</title>
<g id="a_edge4_Node000003_Node000005"><a xlink:title=" ">
<path fill="none" stroke="#63b8ff" d="M266.17,-22.22C278.75,-20.75 292.66,-19.13 306.17,-17.54"/>
<polygon fill="#63b8ff" stroke="#63b8ff" points="306.37,-21.05 315.9,-16.41 305.56,-14.09 306.37,-21.05"/>
</a>
</g>
</g>
</g>
</svg>
