<?xml version="1.0" encoding="UTF-8" standalone="no"?>
<!DOCTYPE svg PUBLIC "-//W3C//DTD SVG 1.1//EN"
 "http://www.w3.org/Graphics/SVG/1.1/DTD/svg11.dtd">
<!-- Generated by graphviz version 12.0.0 (20240704.0754)
 -->
<!-- Title: ControllerUI Pages: 1 -->
<svg width="204pt" height="94pt"
 viewBox="0.00 0.00 203.75 93.75" xmlns="http://www.w3.org/2000/svg" xmlns:xlink="http://www.w3.org/1999/xlink">
<g id="graph0" class="graph" transform="scale(1 1) rotate(0) translate(4 89.75)">
<title>ControllerUI</title>
<!-- Node1 -->
<g id="Node000001" class="node">
<title>Node1</title>
<g id="a_Node000001"><a xlink:title="User interface (display and input) for humidistat. Hold references to ButtonReader for keypad input,...">
<polygon fill="#999999" stroke="#666666" points="126,-85.75 58.25,-85.75 58.25,-66.5 126,-66.5 126,-85.75"/>
<text text-anchor="middle" x="92.12" y="-72.25" font-family="Helvetica,sans-Serif" font-size="10.00">ControllerUI</text>
</a>
</g>
</g>
<!-- Node2 -->
<g id="Node000002" class="node">
<title>Node2</title>
<g id="a_Node000002"><a xlink:href="classCharDisplayUI.html" target="_top" xlink:title="TUI for 16x2 character LCD. Holds a reference to a LiquidCrystal instance for writing to display....">
<polygon fill="white" stroke="#666666" points="78.25,-24.88 0,-24.88 0,-5.63 78.25,-5.63 78.25,-24.88"/>
<text text-anchor="middle" x="39.12" y="-11.38" font-family="Helvetica,sans-Serif" font-size="10.00">CharDisplayUI</text>
</a>
</g>
</g>
<!-- Node1&#45;&gt;Node2 -->
<g id="edge1_Node000001_Node000002" class="edge">
<title>Node1&#45;&gt;Node2</title>
<g id="a_edge1_Node000001_Node000002"><a xlink:title=" ">
<path fill="none" stroke="#63b8ff" d="M76.4,-57.66C66.82,-47.02 54.98,-33.86 47.25,-25.28"/>
<polygon fill="#63b8ff" stroke="#63b8ff" points="73.77,-59.97 83.06,-65.06 78.97,-55.28 73.77,-59.97"/>
</a>
</g>
</g>
<!-- Node3 -->
<g id="Node000003" class="node">
<title>Node3</title>
<g id="a_Node000003"><a xlink:href="classGraphicalDisplayUI.html" target="_top" xlink:title="TUI for 128*64 px graphical display using U8g2. Holds references to a U8g2lib instance for writing to...">
<polygon fill="white" stroke="#666666" points="195.75,-30.5 96.5,-30.5 96.5,0 195.75,0 195.75,-30.5"/>
<text text-anchor="start" x="104.5" y="-17" font-family="Helvetica,sans-Serif" font-size="10.00">GraphicalDisplayUI</text>
<text text-anchor="middle" x="146.12" y="-5.75" font-family="Helvetica,sans-Serif" font-size="10.00">&lt; Humidistat_t &gt;</text>
</a>
</g>
</g>
<!-- Node1&#45;&gt;Node3 -->
<g id="edge2_Node000001_Node000003" class="edge">
<title>Node1&#45;&gt;Node3</title>
<g id="a_edge2_Node000001_Node000003"><a xlink:title=" ">
<path fill="none" stroke="#63b8ff" d="M108.1,-57.7C115.96,-49.13 125.33,-38.92 132.8,-30.78"/>
<polygon fill="#63b8ff" stroke="#63b8ff" points="105.53,-55.33 101.35,-65.07 110.69,-60.06 105.53,-55.33"/>
</a>
</g>
</g>
</g>
</svg>
