<?xml version="1.0" encoding="UTF-8" standalone="no"?>
<!DOCTYPE svg PUBLIC "-//W3C//DTD SVG 1.1//EN"
 "http://www.w3.org/Graphics/SVG/1.1/DTD/svg11.dtd">
<!-- Generated by graphviz version 12.0.0 (20240704.0754)
 -->
<!-- Title: GraphicalDisplayUI::DrawMainCommon Pages: 1 -->
<svg width="407pt" height="162pt"
 viewBox="0.00 0.00 407.00 162.25" xmlns="http://www.w3.org/2000/svg" xmlns:xlink="http://www.w3.org/1999/xlink">
<g id="graph0" class="graph" transform="scale(1 1) rotate(0) translate(4 158.25)">
<title>GraphicalDisplayUI::DrawMainCommon</title>
<!-- Node1 -->
<g id="Node000001" class="node">
<title>Node1</title>
<g id="a_Node000001"><a xlink:title="Draw common elements in Main tab.">
<polygon fill="#999999" stroke="#666666" points="103,-91.88 0,-91.88 0,-61.38 103,-61.38 103,-91.88"/>
<text text-anchor="start" x="8" y="-78.38" font-family="Helvetica,sans-Serif" font-size="10.00">GraphicalDisplayUI</text>
<text text-anchor="middle" x="51.5" y="-67.12" font-family="Helvetica,sans-Serif" font-size="10.00">::DrawMainCommon</text>
</a>
</g>
</g>
<!-- Node2 -->
<g id="Node000002" class="node">
<title>Node2</title>
<g id="a_Node000002"><a xlink:href="classControllerUI.html#af385bdf29e1075733d91b845fb771506" target="_top" xlink:title="Print blinking text.">
<polygon fill="white" stroke="#666666" points="240.12,-154.25 147.62,-154.25 147.62,-135 240.12,-135 240.12,-154.25"/>
<text text-anchor="middle" x="193.88" y="-140.75" font-family="Helvetica,sans-Serif" font-size="10.00">ControllerUI::blink</text>
</a>
</g>
</g>
<!-- Node1&#45;&gt;Node2 -->
<g id="edge1_Node000001_Node000002" class="edge">
<title>Node1&#45;&gt;Node2</title>
<g id="a_edge1_Node000001_Node000002"><a xlink:title=" ">
<path fill="none" stroke="#63b8ff" d="M77.25,-92.19C94.22,-102.48 117.48,-115.83 139,-125.62 142.79,-127.35 146.78,-129.02 150.81,-130.61"/>
<polygon fill="#63b8ff" stroke="#63b8ff" points="149.44,-133.83 160.03,-134.06 151.9,-127.28 149.44,-133.83"/>
</a>
</g>
</g>
<!-- Node4 -->
<g id="Node000004" class="node">
<title>Node4</title>
<g id="a_Node000004"><a xlink:href="classSetpointProfileRunner.html#a8806af9c619d794383b477693485858b" target="_top" xlink:title="Get the index of the current Point in the profile.">
<polygon fill="white" stroke="#666666" points="248.75,-116.88 139,-116.88 139,-86.38 248.75,-86.38 248.75,-116.88"/>
<text text-anchor="start" x="147" y="-103.38" font-family="Helvetica,sans-Serif" font-size="10.00">SetpointProfileRunner</text>
<text text-anchor="middle" x="193.88" y="-92.12" font-family="Helvetica,sans-Serif" font-size="10.00">::getCurrentPoint</text>
</a>
</g>
</g>
<!-- Node1&#45;&gt;Node4 -->
<g id="edge3_Node000001_Node000004" class="edge">
<title>Node1&#45;&gt;Node4</title>
<g id="a_edge3_Node000001_Node000004"><a xlink:title=" ">
<path fill="none" stroke="#63b8ff" d="M103.18,-85.65C111.17,-87.07 119.53,-88.56 127.79,-90.03"/>
<polygon fill="#63b8ff" stroke="#63b8ff" points="127,-93.45 137.46,-91.76 128.23,-86.56 127,-93.45"/>
</a>
</g>
</g>
<!-- Node5 -->
<g id="Node000005" class="node">
<title>Node5</title>
<g id="a_Node000005"><a xlink:href="classSetpointProfileRunner.html#a346e9b34c7c2e23b46bc51446ddd1947" target="_top" xlink:title="Get the run state.">
<polygon fill="white" stroke="#666666" points="248.75,-67.88 139,-67.88 139,-37.38 248.75,-37.38 248.75,-67.88"/>
<text text-anchor="start" x="147" y="-54.38" font-family="Helvetica,sans-Serif" font-size="10.00">SetpointProfileRunner</text>
<text text-anchor="middle" x="193.88" y="-43.12" font-family="Helvetica,sans-Serif" font-size="10.00">::isRunning</text>
</a>
</g>
</g>
<!-- Node1&#45;&gt;Node5 -->
<g id="edge4_Node000001_Node000005" class="edge">
<title>Node1&#45;&gt;Node5</title>
<g id="a_edge4_Node000001_Node000005"><a xlink:title=" ">
<path fill="none" stroke="#63b8ff" d="M103.18,-67.96C111.17,-66.59 119.53,-65.17 127.79,-63.75"/>
<polygon fill="#63b8ff" stroke="#63b8ff" points="128.19,-67.23 137.46,-62.1 127.01,-60.33 128.19,-67.23"/>
</a>
</g>
</g>
<!-- Node6 -->
<g id="Node000006" class="node">
<title>Node6</title>
<g id="a_Node000006"><a xlink:href="classControllerUI.html#aa14a64631f7993d6e22ac9e6f5bf4b44" target="_top" xlink:title="Print formatted data to display, at (col, row). Calculates lengths and creates appropriate buffer int...">
<polygon fill="white" stroke="#666666" points="240.88,-19.25 146.88,-19.25 146.88,0 240.88,0 240.88,-19.25"/>
<text text-anchor="middle" x="193.88" y="-5.75" font-family="Helvetica,sans-Serif" font-size="10.00">ControllerUI::printf</text>
</a>
</g>
</g>
<!-- Node1&#45;&gt;Node6 -->
<g id="edge5_Node000001_Node000006" class="edge">
<title>Node1&#45;&gt;Node6</title>
<g id="a_edge5_Node000001_Node000006"><a xlink:title=" ">
<path fill="none" stroke="#63b8ff" d="M78.03,-60.97C94.96,-50.97 117.86,-38.14 139,-28.62 142.8,-26.92 146.8,-25.26 150.83,-23.68"/>
<polygon fill="#63b8ff" stroke="#63b8ff" points="151.91,-27.01 160.05,-20.23 149.46,-20.45 151.91,-27.01"/>
</a>
</g>
</g>
<!-- Node3 -->
<g id="Node000003" class="node">
<title>Node3</title>
<g id="a_Node000003"><a xlink:href="classControllerUI.html#a94aed853c67197d32434244f8941c21e" target="_top" xlink:title="Set cursor to coordinates.">
<polygon fill="white" stroke="#666666" points="399,-105.25 284.75,-105.25 284.75,-86 399,-86 399,-105.25"/>
<text text-anchor="middle" x="341.88" y="-91.75" font-family="Helvetica,sans-Serif" font-size="10.00">ControllerUI::setCursor</text>
</a>
</g>
</g>
<!-- Node2&#45;&gt;Node3 -->
<g id="edge2_Node000002_Node000003" class="edge">
<title>Node2&#45;&gt;Node3</title>
<g id="a_edge2_Node000002_Node000003"><a xlink:title=" ">
<path fill="none" stroke="#63b8ff" d="M224.77,-134.59C246.45,-127.32 276.03,-117.39 299.91,-109.37"/>
<polygon fill="#63b8ff" stroke="#63b8ff" points="300.97,-112.71 309.33,-106.21 298.74,-106.08 300.97,-112.71"/>
</a>
</g>
</g>
<!-- Node6&#45;&gt;Node3 -->
<g id="edge7_Node000006_Node000003" class="edge">
<title>Node6&#45;&gt;Node3</title>
<g id="a_edge7_Node000006_Node000003"><a xlink:title=" ">
<path fill="none" stroke="#63b8ff" d="M228.28,-19.71C235.21,-22.26 242.34,-25.26 248.75,-28.62 275.43,-42.65 303,-63.73 320.94,-78.49"/>
<polygon fill="#63b8ff" stroke="#63b8ff" points="318.31,-80.85 328.23,-84.59 322.81,-75.48 318.31,-80.85"/>
</a>
</g>
</g>
<!-- Node7 -->
<g id="Node000007" class="node">
<title>Node7</title>
<g id="a_Node000007"><a xlink:href="asprintf_8h.html#a8e2a40be4816c793857112b1960e912b" target="_top" xlink:title="Print formatted data to string. Automatically allocates string on the heap. Make sure to delete it im...">
<polygon fill="white" stroke="#666666" points="366,-19.25 317.75,-19.25 317.75,0 366,0 366,-19.25"/>
<text text-anchor="middle" x="341.88" y="-5.75" font-family="Helvetica,sans-Serif" font-size="10.00">asprintf</text>
</a>
</g>
</g>
<!-- Node6&#45;&gt;Node7 -->
<g id="edge6_Node000006_Node000007" class="edge">
<title>Node6&#45;&gt;Node7</title>
<g id="a_edge6_Node000006_Node000007"><a xlink:title=" ">
<path fill="none" stroke="#63b8ff" d="M241.07,-9.62C262.1,-9.62 286.58,-9.62 306.03,-9.62"/>
<polygon fill="#63b8ff" stroke="#63b8ff" points="305.9,-13.13 315.9,-9.63 305.9,-6.13 305.9,-13.13"/>
</a>
</g>
</g>
</g>
</svg>
