<?xml version="1.0" encoding="UTF-8" standalone="no"?>
<!DOCTYPE svg PUBLIC "-//W3C//DTD SVG 1.1//EN"
 "http://www.w3.org/Graphics/SVG/1.1/DTD/svg11.dtd">
<!-- Generated by graphviz version 12.0.0 (20240704.0754)
 -->
<!-- Title: SingleHumidistat::updatePIDParameters Pages: 1 -->
<svg width="330pt" height="39pt"
 viewBox="0.00 0.00 329.75 38.50" xmlns="http://www.w3.org/2000/svg" xmlns:xlink="http://www.w3.org/1999/xlink">
<g id="graph0" class="graph" transform="scale(1 1) rotate(0) translate(4 34.5)">
<title>SingleHumidistat::updatePIDParameters</title>
<!-- Node1 -->
<g id="Node000001" class="node">
<title>Node1</title>
<g id="a_Node000001"><a xlink:title=" ">
<polygon fill="#999999" stroke="#666666" points="124,-30.5 0,-30.5 0,0 124,0 124,-30.5"/>
<text text-anchor="start" x="8" y="-17" font-family="Helvetica,sans-Serif" font-size="10.00">SingleHumidistat::update</text>
<text text-anchor="middle" x="62" y="-5.75" font-family="Helvetica,sans-Serif" font-size="10.00">PIDParameters</text>
</a>
</g>
</g>
<!-- Node2 -->
<g id="Node000002" class="node">
<title>Node2</title>
<g id="a_Node000002"><a xlink:href="classPID.html#ae3f4eed49d68435cc1b77e137ac31920" target="_top" xlink:title="Set the gains and timestep.">
<polygon fill="white" stroke="#666666" points="236,-24.88 160,-24.88 160,-5.63 236,-5.63 236,-24.88"/>
<text text-anchor="middle" x="198" y="-11.38" font-family="Helvetica,sans-Serif" font-size="10.00">PID::setGains</text>
</a>
</g>
</g>
<!-- Node1&#45;&gt;Node2 -->
<g id="edge1_Node000001_Node000002" class="edge">
<title>Node1&#45;&gt;Node2</title>
<g id="a_edge1_Node000001_Node000002"><a xlink:title=" ">
<path fill="none" stroke="#63b8ff" d="M124.12,-15.25C132.28,-15.25 140.56,-15.25 148.47,-15.25"/>
<polygon fill="#63b8ff" stroke="#63b8ff" points="148.22,-18.75 158.22,-15.25 148.22,-11.75 148.22,-18.75"/>
</a>
</g>
</g>
<!-- Node3 -->
<g id="Node000003" class="node">
<title>Node3</title>
<g id="a_Node000003"><a xlink:href="classPID.html#a0ccd3a3e6e64a2560077ea76bf71e417" target="_top" xlink:title="Method to be called when the controller goes from manual to auto mode for proper bumpless transfer.">
<polygon fill="white" stroke="#666666" points="321.75,-24.88 272,-24.88 272,-5.63 321.75,-5.63 321.75,-24.88"/>
<text text-anchor="middle" x="296.88" y="-11.38" font-family="Helvetica,sans-Serif" font-size="10.00">PID::init</text>
</a>
</g>
</g>
<!-- Node2&#45;&gt;Node3 -->
<g id="edge2_Node000002_Node000003" class="edge">
<title>Node2&#45;&gt;Node3</title>
<g id="a_edge2_Node000002_Node000003"><a xlink:title=" ">
<path fill="none" stroke="#63b8ff" d="M236.45,-15.25C244.3,-15.25 252.56,-15.25 260.34,-15.25"/>
<polygon fill="#63b8ff" stroke="#63b8ff" points="260.14,-18.75 270.14,-15.25 260.14,-11.75 260.14,-18.75"/>
</a>
</g>
</g>
</g>
</svg>
