<?xml version="1.0" encoding="UTF-8" standalone="no"?>
<!DOCTYPE svg PUBLIC "-//W3C//DTD SVG 1.1//EN"
 "http://www.w3.org/Graphics/SVG/1.1/DTD/svg11.dtd">
<!-- Generated by graphviz version 12.0.0 (20240704.0754)
 -->
<!-- Title: PID::init Pages: 1 -->
<svg width="545pt" height="232pt"
 viewBox="0.00 0.00 544.50 231.50" xmlns="http://www.w3.org/2000/svg" xmlns:xlink="http://www.w3.org/1999/xlink">
<g id="graph0" class="graph" transform="scale(1 1) rotate(0) translate(4 227.5)">
<title>PID::init</title>
<!-- Node1 -->
<g id="Node000001" class="node">
<title>Node1</title>
<g id="a_Node000001"><a xlink:title="Method to be called when the controller goes from manual to auto mode for proper bumpless transfer.">
<polygon fill="#999999" stroke="#666666" points="536.5,-142.88 486.75,-142.88 486.75,-123.62 536.5,-123.62 536.5,-142.88"/>
<text text-anchor="middle" x="511.62" y="-129.38" font-family="Helvetica,sans-Serif" font-size="10.00">PID::init</text>
</a>
</g>
</g>
<!-- Node2 -->
<g id="Node000002" class="node">
<title>Node2</title>
<g id="a_Node000002"><a xlink:href="classPID.html#a05e62644ef9b7c0f3b1bb34631150ab4" target="_top" xlink:title="Set the mode of the controller.">
<polygon fill="white" stroke="#666666" points="448.12,-180.88 377.38,-180.88 377.38,-161.62 448.12,-161.62 448.12,-180.88"/>
<text text-anchor="middle" x="412.75" y="-167.38" font-family="Helvetica,sans-Serif" font-size="10.00">PID::setAuto</text>
</a>
</g>
</g>
<!-- Node1&#45;&gt;Node2 -->
<g id="edge1_Node000001_Node000002" class="edge">
<title>Node1&#45;&gt;Node2</title>
<g id="a_edge1_Node000001_Node000002"><a xlink:title=" ">
<path fill="none" stroke="#63b8ff" d="M476.05,-146.81C463.99,-151.54 450.67,-156.77 439.46,-161.17"/>
<polygon fill="#63b8ff" stroke="#63b8ff" points="477.24,-150.11 485.27,-143.2 474.68,-143.59 477.24,-150.11"/>
</a>
</g>
</g>
<!-- Node7 -->
<g id="Node000007" class="node">
<title>Node7</title>
<g id="a_Node000007"><a xlink:href="classPID.html#ae3f4eed49d68435cc1b77e137ac31920" target="_top" xlink:title="Set the gains and timestep.">
<polygon fill="white" stroke="#666666" points="450.75,-105.88 374.75,-105.88 374.75,-86.62 450.75,-86.62 450.75,-105.88"/>
<text text-anchor="middle" x="412.75" y="-92.38" font-family="Helvetica,sans-Serif" font-size="10.00">PID::setGains</text>
</a>
</g>
</g>
<!-- Node1&#45;&gt;Node7 -->
<g id="edge7_Node000001_Node000007" class="edge">
<title>Node1&#45;&gt;Node7</title>
<g id="a_edge7_Node000001_Node000007"><a xlink:title=" ">
<path fill="none" stroke="#63b8ff" d="M476.22,-120.11C464.36,-115.58 451.27,-110.58 440.15,-106.33"/>
<polygon fill="#63b8ff" stroke="#63b8ff" points="474.67,-123.27 485.26,-123.56 477.17,-116.73 474.67,-123.27"/>
</a>
</g>
</g>
<!-- Node3 -->
<g id="Node000003" class="node">
<title>Node3</title>
<g id="a_Node000003"><a xlink:href="classHumidistat.html#ae30511d6477f5996de05996bdf221730" target="_top" xlink:title="Run a cycle of the controller. Reads a sample from the humidity controller and runs PID.">
<polygon fill="white" stroke="#666666" points="302,-180.88 196.75,-180.88 196.75,-161.62 302,-161.62 302,-180.88"/>
<text text-anchor="middle" x="249.38" y="-167.38" font-family="Helvetica,sans-Serif" font-size="10.00">Humidistat::runCycle</text>
</a>
</g>
</g>
<!-- Node2&#45;&gt;Node3 -->
<g id="edge2_Node000002_Node000003" class="edge">
<title>Node2&#45;&gt;Node3</title>
<g id="a_edge2_Node000002_Node000003"><a xlink:title=" ">
<path fill="none" stroke="#63b8ff" d="M365.65,-171.25C345.91,-171.25 322.77,-171.25 302.42,-171.25"/>
<polygon fill="#63b8ff" stroke="#63b8ff" points="365.62,-174.75 375.62,-171.25 365.62,-167.75 365.62,-174.75"/>
</a>
</g>
</g>
<!-- Node6 -->
<g id="Node000006" class="node">
<title>Node6</title>
<g id="a_Node000006"><a xlink:href="classFlowController.html#a67e791323a0cd95c97266135ba2ecde2" target="_top" xlink:title=" ">
<polygon fill="white" stroke="#666666" points="305.38,-217.88 193.38,-217.88 193.38,-198.62 305.38,-198.62 305.38,-217.88"/>
<text text-anchor="middle" x="249.38" y="-204.38" font-family="Helvetica,sans-Serif" font-size="10.00">FlowController::update</text>
</a>
</g>
</g>
<!-- Node2&#45;&gt;Node6 -->
<g id="edge5_Node000002_Node000006" class="edge">
<title>Node2&#45;&gt;Node6</title>
<g id="a_edge5_Node000002_Node000006"><a xlink:title=" ">
<path fill="none" stroke="#63b8ff" d="M365.86,-183.6C356.89,-185.9 347.54,-188.21 338.75,-190.25 327,-192.97 314.33,-195.69 302.35,-198.15"/>
<polygon fill="#63b8ff" stroke="#63b8ff" points="366.68,-187 375.48,-181.1 364.92,-180.22 366.68,-187"/>
</a>
</g>
</g>
<!-- Node4 -->
<g id="Node000004" class="node">
<title>Node4</title>
<g id="a_Node000004"><a xlink:href="classCascadeHumidistat.html#a5a4f6ad4f30f5f033462af46d47cf959" target="_top" xlink:title=" ">
<polygon fill="white" stroke="#666666" points="115,-223.5 9,-223.5 9,-193 115,-193 115,-223.5"/>
<text text-anchor="start" x="17" y="-210" font-family="Helvetica,sans-Serif" font-size="10.00">CascadeHumidistat::</text>
<text text-anchor="middle" x="62" y="-198.75" font-family="Helvetica,sans-Serif" font-size="10.00">update</text>
</a>
</g>
</g>
<!-- Node3&#45;&gt;Node4 -->
<g id="edge3_Node000003_Node000004" class="edge">
<title>Node3&#45;&gt;Node4</title>
<g id="a_edge3_Node000003_Node000004"><a xlink:title=" ">
<path fill="none" stroke="#63b8ff" d="M186.62,-183.58C163.47,-188.2 137.41,-193.4 115.21,-197.83"/>
<polygon fill="#63b8ff" stroke="#63b8ff" points="187.11,-187.05 196.24,-181.66 185.74,-180.18 187.11,-187.05"/>
</a>
</g>
</g>
<!-- Node5 -->
<g id="Node000005" class="node">
<title>Node5</title>
<g id="a_Node000005"><a xlink:href="classSingleHumidistat.html#af667a97d9c89b5801dab0956f88acd70" target="_top" xlink:title=" ">
<polygon fill="white" stroke="#666666" points="124,-174.88 0,-174.88 0,-155.62 124,-155.62 124,-174.88"/>
<text text-anchor="middle" x="62" y="-161.38" font-family="Helvetica,sans-Serif" font-size="10.00">SingleHumidistat::update</text>
</a>
</g>
</g>
<!-- Node3&#45;&gt;Node5 -->
<g id="edge4_Node000003_Node000005" class="edge">
<title>Node3&#45;&gt;Node5</title>
<g id="a_edge4_Node000003_Node000005"><a xlink:title=" ">
<path fill="none" stroke="#63b8ff" d="M185.37,-169.21C165.61,-168.57 143.85,-167.87 124.22,-167.23"/>
<polygon fill="#63b8ff" stroke="#63b8ff" points="185.12,-172.7 195.22,-169.53 185.34,-165.71 185.12,-172.7"/>
</a>
</g>
</g>
<!-- Node6&#45;&gt;Node4 -->
<g id="edge6_Node000006_Node000004" class="edge">
<title>Node6&#45;&gt;Node4</title>
<g id="a_edge6_Node000006_Node000004"><a xlink:title=" ">
<path fill="none" stroke="#63b8ff" d="M181.78,-208.25C159.89,-208.25 135.89,-208.25 115.23,-208.25"/>
<polygon fill="#63b8ff" stroke="#63b8ff" points="181.49,-211.75 191.49,-208.25 181.49,-204.75 181.49,-211.75"/>
</a>
</g>
</g>
<!-- Node8 -->
<g id="Node000008" class="node">
<title>Node8</title>
<g id="a_Node000008"><a xlink:href="classPID.html#a5cc06605b7c3778f132838314136f292" target="_top" xlink:title="Constructor.">
<polygon fill="white" stroke="#666666" points="276.12,-143.88 222.62,-143.88 222.62,-124.62 276.12,-124.62 276.12,-143.88"/>
<text text-anchor="middle" x="249.38" y="-130.38" font-family="Helvetica,sans-Serif" font-size="10.00">PID::PID</text>
</a>
</g>
</g>
<!-- Node7&#45;&gt;Node8 -->
<g id="edge8_Node000007_Node000008" class="edge">
<title>Node7&#45;&gt;Node8</title>
<g id="a_edge8_Node000007_Node000008"><a xlink:title=" ">
<path fill="none" stroke="#63b8ff" d="M363.36,-107.65C334.87,-114.35 299.94,-122.58 276.53,-128.09"/>
<polygon fill="#63b8ff" stroke="#63b8ff" points="363.92,-111.11 372.85,-105.41 362.31,-104.3 363.92,-111.11"/>
</a>
</g>
</g>
<!-- Node9 -->
<g id="Node000009" class="node">
<title>Node9</title>
<g id="a_Node000009"><a xlink:href="classCascadeHumidistat.html#ad3b4c342c985955ba465a1ee85249eee" target="_top" xlink:title=" ">
<polygon fill="white" stroke="#666666" points="118,-92.5 6,-92.5 6,-62 118,-62 118,-92.5"/>
<text text-anchor="start" x="14" y="-79" font-family="Helvetica,sans-Serif" font-size="10.00">CascadeHumidistat::</text>
<text text-anchor="middle" x="62" y="-67.75" font-family="Helvetica,sans-Serif" font-size="10.00">updatePIDParameters</text>
</a>
</g>
</g>
<!-- Node7&#45;&gt;Node9 -->
<g id="edge9_Node000007_Node000009" class="edge">
<title>Node7&#45;&gt;Node9</title>
<g id="a_edge9_Node000007_Node000009"><a xlink:title=" ">
<path fill="none" stroke="#63b8ff" d="M363.01,-93.59C298.69,-90.09 185.78,-83.94 118.33,-80.26"/>
<polygon fill="#63b8ff" stroke="#63b8ff" points="362.74,-97.09 372.92,-94.13 363.12,-90.1 362.74,-97.09"/>
</a>
</g>
</g>
<!-- Node10 -->
<g id="Node000010" class="node">
<title>Node10</title>
<g id="a_Node000010"><a xlink:href="classFlowController.html#a20a5cb870095042fc47e60866675bc07" target="_top" xlink:title=" ">
<polygon fill="white" stroke="#666666" points="338.75,-67.88 160,-67.88 160,-48.62 338.75,-48.62 338.75,-67.88"/>
<text text-anchor="middle" x="249.38" y="-54.38" font-family="Helvetica,sans-Serif" font-size="10.00">FlowController::updatePIDParameters</text>
</a>
</g>
</g>
<!-- Node7&#45;&gt;Node10 -->
<g id="edge10_Node000007_Node000010" class="edge">
<title>Node7&#45;&gt;Node10</title>
<g id="a_edge10_Node000007_Node000010"><a xlink:title=" ">
<path fill="none" stroke="#63b8ff" d="M363.4,-84.87C341.12,-79.62 314.88,-73.44 293.3,-68.36"/>
<polygon fill="#63b8ff" stroke="#63b8ff" points="362.31,-88.2 372.85,-87.09 363.92,-81.39 362.31,-88.2"/>
</a>
</g>
</g>
<!-- Node11 -->
<g id="Node000011" class="node">
<title>Node11</title>
<g id="a_Node000011"><a xlink:href="classSingleHumidistat.html#ae8f19856e617b83e1cf21e72e5b9f1d9" target="_top" xlink:title=" ">
<polygon fill="white" stroke="#666666" points="311.38,-30.5 187.38,-30.5 187.38,0 311.38,0 311.38,-30.5"/>
<text text-anchor="start" x="195.38" y="-17" font-family="Helvetica,sans-Serif" font-size="10.00">SingleHumidistat::update</text>
<text text-anchor="middle" x="249.38" y="-5.75" font-family="Helvetica,sans-Serif" font-size="10.00">PIDParameters</text>
</a>
</g>
</g>
<!-- Node7&#45;&gt;Node11 -->
<g id="edge12_Node000007_Node000011" class="edge">
<title>Node7&#45;&gt;Node11</title>
<g id="a_edge12_Node000007_Node000011"><a xlink:title=" ">
<path fill="none" stroke="#63b8ff" d="M393.58,-78.68C379.6,-66.06 359.27,-49.52 338.75,-39.25 330.22,-34.98 320.83,-31.39 311.46,-28.4"/>
<polygon fill="#63b8ff" stroke="#63b8ff" points="390.96,-81.03 400.67,-85.28 395.73,-75.9 390.96,-81.03"/>
</a>
</g>
</g>
<!-- Node10&#45;&gt;Node9 -->
<g id="edge11_Node000010_Node000009" class="edge">
<title>Node10&#45;&gt;Node9</title>
<g id="a_edge11_Node000010_Node000009"><a xlink:title=" ">
<path fill="none" stroke="#63b8ff" d="M148.48,-68.49C138.11,-69.55 127.86,-70.6 118.25,-71.59"/>
<polygon fill="#63b8ff" stroke="#63b8ff" points="148.66,-71.99 158.25,-67.49 147.95,-65.02 148.66,-71.99"/>
</a>
</g>
</g>
</g>
</svg>
