<?xml version="1.0" encoding="UTF-8" standalone="no"?>
<!DOCTYPE svg PUBLIC "-//W3C//DTD SVG 1.1//EN"
 "http://www.w3.org/Graphics/SVG/1.1/DTD/svg11.dtd">
<!-- Generated by graphviz version 12.0.0 (20240704.0754)
 -->
<!-- Title: SetpointProfileRunner::getCurrentPoint Pages: 1 -->
<svg width="264pt" height="88pt"
 viewBox="0.00 0.00 263.50 87.50" xmlns="http://www.w3.org/2000/svg" xmlns:xlink="http://www.w3.org/1999/xlink">
<g id="graph0" class="graph" transform="scale(1 1) rotate(0) translate(4 83.5)">
<title>SetpointProfileRunner::getCurrentPoint</title>
<!-- Node1 -->
<g id="Node000001" class="node">
<title>Node1</title>
<g id="a_Node000001"><a xlink:title="Get the index of the current Point in the profile.">
<polygon fill="#999999" stroke="#666666" points="255.5,-54.5 145.75,-54.5 145.75,-24 255.5,-24 255.5,-54.5"/>
<text text-anchor="start" x="153.75" y="-41" font-family="Helvetica,sans-Serif" font-size="10.00">SetpointProfileRunner</text>
<text text-anchor="middle" x="200.62" y="-29.75" font-family="Helvetica,sans-Serif" font-size="10.00">::getCurrentPoint</text>
</a>
</g>
</g>
<!-- Node2 -->
<g id="Node000002" class="node">
<title>Node2</title>
<g id="a_Node000002"><a xlink:href="classGraphicalDisplayUI.html#af69808890fcfb2bd088ac73aa6f7563c" target="_top" xlink:title="Draw common elements in Main tab.">
<polygon fill="white" stroke="#666666" points="106.38,-79.5 3.38,-79.5 3.38,-49 106.38,-49 106.38,-79.5"/>
<text text-anchor="start" x="11.38" y="-66" font-family="Helvetica,sans-Serif" font-size="10.00">GraphicalDisplayUI</text>
<text text-anchor="middle" x="54.88" y="-54.75" font-family="Helvetica,sans-Serif" font-size="10.00">::DrawMainCommon</text>
</a>
</g>
</g>
<!-- Node1&#45;&gt;Node2 -->
<g id="edge1_Node000001_Node000002" class="edge">
<title>Node1&#45;&gt;Node2</title>
<g id="a_edge1_Node000001_Node000002"><a xlink:title=" ">
<path fill="none" stroke="#63b8ff" d="M134.09,-50.65C124.83,-52.26 115.43,-53.89 106.51,-55.44"/>
<polygon fill="#63b8ff" stroke="#63b8ff" points="134.54,-54.12 143.79,-48.96 133.34,-47.23 134.54,-54.12"/>
</a>
</g>
</g>
<!-- Node3 -->
<g id="Node000003" class="node">
<title>Node3</title>
<g id="a_Node000003"><a xlink:href="classSetpointProfileRunner.html#a076b63e4aea6e1ba45c7b28ff714d6b6" target="_top" xlink:title="Run the profile (if running). Call this periodically.">
<polygon fill="white" stroke="#666666" points="109.75,-30.5 0,-30.5 0,0 109.75,0 109.75,-30.5"/>
<text text-anchor="start" x="8" y="-17" font-family="Helvetica,sans-Serif" font-size="10.00">SetpointProfileRunner</text>
<text text-anchor="middle" x="54.88" y="-5.75" font-family="Helvetica,sans-Serif" font-size="10.00">::update</text>
</a>
</g>
</g>
<!-- Node1&#45;&gt;Node3 -->
<g id="edge2_Node000001_Node000003" class="edge">
<title>Node1&#45;&gt;Node3</title>
<g id="a_edge2_Node000001_Node000003"><a xlink:title=" ">
<path fill="none" stroke="#63b8ff" d="M133.97,-28.29C125.89,-26.94 117.7,-25.57 109.82,-24.26"/>
<polygon fill="#63b8ff" stroke="#63b8ff" points="133.35,-31.73 143.79,-29.93 134.5,-24.83 133.35,-31.73"/>
</a>
</g>
</g>
</g>
</svg>
