<?xml version="1.0" encoding="UTF-8" standalone="no"?>
<!DOCTYPE svg PUBLIC "-//W3C//DTD SVG 1.1//EN"
 "http://www.w3.org/Graphics/SVG/1.1/DTD/svg11.dtd">
<!-- Generated by graphviz version 12.0.0 (20240704.0754)
 -->
<!-- Title: GraphicalDisplayUI::handleInput Pages: 1 -->
<svg width="476pt" height="312pt"
 viewBox="0.00 0.00 476.42 311.88" xmlns="http://www.w3.org/2000/svg" xmlns:xlink="http://www.w3.org/1999/xlink">
<g id="graph0" class="graph" transform="scale(1 1) rotate(0) translate(4 307.88)">
<title>GraphicalDisplayUI::handleInput</title>
<!-- Node1 -->
<g id="Node000001" class="node">
<title>Node1</title>
<g id="a_Node000001"><a xlink:title="Handle input.">
<polygon fill="#999999" stroke="#666666" points="99.25,-165.5 0,-165.5 0,-135 99.25,-135 99.25,-165.5"/>
<text text-anchor="start" x="8" y="-152" font-family="Helvetica,sans-Serif" font-size="10.00">GraphicalDisplayUI</text>
<text text-anchor="middle" x="49.62" y="-140.75" font-family="Helvetica,sans-Serif" font-size="10.00">::handleInput</text>
</a>
</g>
</g>
<!-- Node2 -->
<g id="Node000002" class="node">
<title>Node2</title>
<g id="a_Node000002"><a xlink:href="classGraphicalDisplayUI.html#a17cd12ba983e77b6f766bac994b09f49" target="_top" xlink:title="Handle input on the Config tab.">
<polygon fill="white" stroke="#666666" points="234.5,-226.5 135.25,-226.5 135.25,-196 234.5,-196 234.5,-226.5"/>
<text text-anchor="start" x="143.25" y="-213" font-family="Helvetica,sans-Serif" font-size="10.00">GraphicalDisplayUI</text>
<text text-anchor="middle" x="184.88" y="-201.75" font-family="Helvetica,sans-Serif" font-size="10.00">::handleInputConfig</text>
</a>
</g>
</g>
<!-- Node1&#45;&gt;Node2 -->
<g id="edge1_Node000001_Node000002" class="edge">
<title>Node1&#45;&gt;Node2</title>
<g id="a_edge1_Node000001_Node000002"><a xlink:title=" ">
<path fill="none" stroke="#63b8ff" d="M84.94,-165.96C101.57,-173.57 121.75,-182.81 139.53,-190.95"/>
<polygon fill="#63b8ff" stroke="#63b8ff" points="137.75,-193.98 148.3,-194.96 140.66,-187.62 137.75,-193.98"/>
</a>
</g>
</g>
<!-- Node8 -->
<g id="Node000008" class="node">
<title>Node8</title>
<g id="a_Node000008"><a xlink:href="classGraphicalDisplayUI.html#a8f0f20c1ddf3b647f42ed92492fc959c" target="_top" xlink:title="Handle input on the Info tab.">
<polygon fill="white" stroke="#666666" points="234.5,-165.5 135.25,-165.5 135.25,-135 234.5,-135 234.5,-165.5"/>
<text text-anchor="start" x="143.25" y="-152" font-family="Helvetica,sans-Serif" font-size="10.00">GraphicalDisplayUI</text>
<text text-anchor="middle" x="184.88" y="-140.75" font-family="Helvetica,sans-Serif" font-size="10.00">::handleInputInfo</text>
</a>
</g>
</g>
<!-- Node1&#45;&gt;Node8 -->
<g id="edge9_Node000001_Node000008" class="edge">
<title>Node1&#45;&gt;Node8</title>
<g id="a_edge9_Node000001_Node000008"><a xlink:title=" ">
<path fill="none" stroke="#63b8ff" d="M99.49,-150.25C107.36,-150.25 115.59,-150.25 123.7,-150.25"/>
<polygon fill="#63b8ff" stroke="#63b8ff" points="123.51,-153.75 133.51,-150.25 123.51,-146.75 123.51,-153.75"/>
</a>
</g>
</g>
<!-- Node9 -->
<g id="Node000009" class="node">
<title>Node9</title>
<g id="a_Node000009"><a xlink:href="classGraphicalDisplayUI.html#a948cf32243a585b1a88c0989efd9d474" target="_top" xlink:title="Handle input on the Main tab.">
<polygon fill="white" stroke="#666666" points="234.5,-116.5 135.25,-116.5 135.25,-86 234.5,-86 234.5,-116.5"/>
<text text-anchor="start" x="143.25" y="-103" font-family="Helvetica,sans-Serif" font-size="10.00">GraphicalDisplayUI</text>
<text text-anchor="middle" x="184.88" y="-91.75" font-family="Helvetica,sans-Serif" font-size="10.00">::handleInputMain</text>
</a>
</g>
</g>
<!-- Node1&#45;&gt;Node9 -->
<g id="edge11_Node000001_Node000009" class="edge">
<title>Node1&#45;&gt;Node9</title>
<g id="a_edge11_Node000001_Node000009"><a xlink:title=" ">
<path fill="none" stroke="#63b8ff" d="M93.15,-134.61C105.05,-130.24 118.14,-125.42 130.58,-120.85"/>
<polygon fill="#63b8ff" stroke="#63b8ff" points="131.7,-124.17 139.87,-117.43 129.28,-117.6 131.7,-124.17"/>
</a>
</g>
</g>
<!-- Node3 -->
<g id="Node000003" class="node">
<title>Node3</title>
<g id="a_Node000003"><a xlink:href="classConfigPar.html#aab5ed0b09b040eba98bc05d76e89c4ca" target="_top" xlink:title="Add delta to the variable.">
<polygon fill="white" stroke="#666666" points="376.5,-303.88 287.75,-303.88 287.75,-284.62 376.5,-284.62 376.5,-303.88"/>
<text text-anchor="middle" x="332.12" y="-290.38" font-family="Helvetica,sans-Serif" font-size="10.00">ConfigPar::adjust</text>
</a>
</g>
</g>
<!-- Node2&#45;&gt;Node3 -->
<g id="edge2_Node000002_Node000003" class="edge">
<title>Node2&#45;&gt;Node3</title>
<g id="a_edge2_Node000002_Node000003"><a xlink:title=" ">
<path fill="none" stroke="#63b8ff" d="M205.55,-226.94C222.18,-239.71 246.99,-257.62 270.5,-270.25 277.13,-273.81 284.41,-277.14 291.55,-280.12"/>
<polygon fill="#63b8ff" stroke="#63b8ff" points="289.84,-283.21 300.42,-283.66 292.43,-276.71 289.84,-283.21"/>
</a>
</g>
</g>
<!-- Node4 -->
<g id="Node000004" class="node">
<title>Node4</title>
<g id="a_Node000004"><a xlink:href="imath_8h.html#aa86632c19b4d57acb96ac9e9cd3e13e1" target="_top" xlink:title="Constexpr function for computing integer power.">
<polygon fill="white" stroke="#666666" points="466,-284.88 429.75,-284.88 429.75,-265.62 466,-265.62 466,-284.88"/>
<text text-anchor="middle" x="447.88" y="-271.38" font-family="Helvetica,sans-Serif" font-size="10.00">ipow</text>
</a>
</g>
</g>
<!-- Node2&#45;&gt;Node4 -->
<g id="edge6_Node000002_Node000004" class="edge">
<title>Node2&#45;&gt;Node4</title>
<g id="a_edge6_Node000002_Node000004"><a xlink:title=" ">
<path fill="none" stroke="#63b8ff" d="M234.45,-226.96C246.19,-230.54 258.75,-234.19 270.5,-237.25 322.15,-250.72 383.19,-263.1 418.23,-269.86"/>
<polygon fill="#63b8ff" stroke="#63b8ff" points="417.52,-273.29 428,-271.73 418.83,-266.42 417.52,-273.29"/>
</a>
</g>
</g>
<!-- Node5 -->
<g id="Node000005" class="node">
<title>Node5</title>
<g id="a_Node000005"><a xlink:href="advanceEnum_8h.html#a4c6cbb4b80fa575a2819ca1d5e7cc1a2" target="_top" xlink:title="Cycle through (advance) an enum.">
<polygon fill="white" stroke="#666666" points="370.88,-153.88 293.38,-153.88 293.38,-134.62 370.88,-134.62 370.88,-153.88"/>
<text text-anchor="middle" x="332.12" y="-140.38" font-family="Helvetica,sans-Serif" font-size="10.00">advanceEnum</text>
</a>
</g>
</g>
<!-- Node2&#45;&gt;Node5 -->
<g id="edge5_Node000002_Node000005" class="edge">
<title>Node2&#45;&gt;Node5</title>
<g id="a_edge5_Node000002_Node000005"><a xlink:title=" ">
<path fill="none" stroke="#63b8ff" d="M209.52,-195.52C226.07,-185.03 248.98,-171.52 270.5,-162.25 274.3,-160.61 278.3,-159.07 282.36,-157.62"/>
<polygon fill="#63b8ff" stroke="#63b8ff" points="283.3,-160.99 291.68,-154.51 281.09,-154.35 283.3,-160.99"/>
</a>
</g>
</g>
<!-- Node6 -->
<g id="Node000006" class="node">
<title>Node6</title>
<g id="a_Node000006"><a xlink:href="classEEPROMConfig.html#a389d1170c790427a9d5fb6643c340b21" target="_top" xlink:title="Reset the config store: overwrite the configStore with the default values.">
<polygon fill="white" stroke="#666666" points="387.38,-227.88 276.88,-227.88 276.88,-208.62 387.38,-208.62 387.38,-227.88"/>
<text text-anchor="middle" x="332.12" y="-214.38" font-family="Helvetica,sans-Serif" font-size="10.00">EEPROMConfig::reset</text>
</a>
</g>
</g>
<!-- Node2&#45;&gt;Node6 -->
<g id="edge7_Node000002_Node000006" class="edge">
<title>Node2&#45;&gt;Node6</title>
<g id="a_edge7_Node000002_Node000006"><a xlink:title=" ">
<path fill="none" stroke="#63b8ff" d="M234.65,-213.6C244.41,-214.07 254.81,-214.57 265.05,-215.07"/>
<polygon fill="#63b8ff" stroke="#63b8ff" points="264.81,-218.56 274.97,-215.54 265.15,-211.57 264.81,-218.56"/>
</a>
</g>
</g>
<!-- Node7 -->
<g id="Node000007" class="node">
<title>Node7</title>
<g id="a_Node000007"><a xlink:href="classEEPROMConfig.html#a3ccccd29dcfe0a56152c2d9382fa2f0d" target="_top" xlink:title="Saves current content of configStore into EEPROM.">
<polygon fill="white" stroke="#666666" points="387,-190.88 277.25,-190.88 277.25,-171.62 387,-171.62 387,-190.88"/>
<text text-anchor="middle" x="332.12" y="-177.38" font-family="Helvetica,sans-Serif" font-size="10.00">EEPROMConfig::save</text>
</a>
</g>
</g>
<!-- Node2&#45;&gt;Node7 -->
<g id="edge8_Node000002_Node000007" class="edge">
<title>Node2&#45;&gt;Node7</title>
<g id="a_edge8_Node000002_Node000007"><a xlink:title=" ">
<path fill="none" stroke="#63b8ff" d="M234.65,-201.18C246.38,-198.75 259.05,-196.14 271.23,-193.62"/>
<polygon fill="#63b8ff" stroke="#63b8ff" points="271.67,-197.1 280.75,-191.65 270.25,-190.25 271.67,-197.1"/>
</a>
</g>
</g>
<!-- Node3&#45;&gt;Node4 -->
<g id="edge3_Node000003_Node000004" class="edge">
<title>Node3&#45;&gt;Node4</title>
<g id="a_edge3_Node000003_Node000004"><a xlink:title=" ">
<path fill="none" stroke="#63b8ff" d="M376.78,-286.96C390.64,-284.64 405.62,-282.14 418.15,-280.05"/>
<polygon fill="#63b8ff" stroke="#63b8ff" points="418.52,-283.53 427.81,-278.43 417.37,-276.63 418.52,-283.53"/>
</a>
</g>
</g>
<!-- Node4&#45;&gt;Node4 -->
<g id="edge4_Node000004_Node000004" class="edge">
<title>Node4&#45;&gt;Node4</title>
<g id="a_edge4_Node000004_Node000004"><a xlink:title=" ">
<path fill="none" stroke="#63b8ff" d="M429.75,-285.16C421.49,-293.77 427.53,-302.88 447.88,-302.88 459,-302.88 465.85,-300.15 468.42,-296.28"/>
<polygon fill="#63b8ff" stroke="#63b8ff" points="471.87,-295.67 466.32,-286.64 465.03,-297.16 471.87,-295.67"/>
</a>
</g>
</g>
<!-- Node8&#45;&gt;Node5 -->
<g id="edge10_Node000008_Node000005" class="edge">
<title>Node8&#45;&gt;Node5</title>
<g id="a_edge10_Node000008_Node000005"><a xlink:title=" ">
<path fill="none" stroke="#63b8ff" d="M234.65,-148.24C249.88,-147.61 266.69,-146.91 281.96,-146.28"/>
<polygon fill="#63b8ff" stroke="#63b8ff" points="281.92,-149.79 291.76,-145.88 281.63,-142.79 281.92,-149.79"/>
</a>
</g>
</g>
<!-- Node9&#45;&gt;Node5 -->
<g id="edge13_Node000009_Node000005" class="edge">
<title>Node9&#45;&gt;Node5</title>
<g id="a_edge13_Node000009_Node000005"><a xlink:title=" ">
<path fill="none" stroke="#63b8ff" d="M234.65,-115.69C251.25,-120.6 269.73,-126.07 286.04,-130.9"/>
<polygon fill="#63b8ff" stroke="#63b8ff" points="284.89,-134.21 295.48,-133.7 286.88,-127.5 284.89,-134.21"/>
</a>
</g>
</g>
<!-- Node10 -->
<g id="Node000010" class="node">
<title>Node10</title>
<g id="a_Node000010"><a xlink:href="classControllerUI.html#a227e9eb131da08502bf707ac33bccab3" target="_top" xlink:title="In&#45;/de&#45;crement a variable, while clipping it to [min, max].">
<polygon fill="white" stroke="#666666" points="393.75,-116.88 270.5,-116.88 270.5,-97.62 393.75,-97.62 393.75,-116.88"/>
<text text-anchor="middle" x="332.12" y="-103.38" font-family="Helvetica,sans-Serif" font-size="10.00">ControllerUI::adjustValue</text>
</a>
</g>
</g>
<!-- Node9&#45;&gt;Node10 -->
<g id="edge12_Node000009_Node000010" class="edge">
<title>Node9&#45;&gt;Node10</title>
<g id="a_edge12_Node000009_Node000010"><a xlink:title=" ">
<path fill="none" stroke="#63b8ff" d="M234.65,-103.26C242.38,-103.58 250.51,-103.92 258.64,-104.26"/>
<polygon fill="#63b8ff" stroke="#63b8ff" points="258.45,-107.75 268.59,-104.67 258.74,-100.76 258.45,-107.75"/>
</a>
</g>
</g>
<!-- Node11 -->
<g id="Node000011" class="node">
<title>Node11</title>
<g id="a_Node000011"><a xlink:href="classSetpointProfileRunner.html#a1c11d6fe1d34db313e8bc78cc08ab19f" target="_top" xlink:title="Set the profile.">
<polygon fill="white" stroke="#666666" points="387,-79.5 277.25,-79.5 277.25,-49 387,-49 387,-79.5"/>
<text text-anchor="start" x="285.25" y="-66" font-family="Helvetica,sans-Serif" font-size="10.00">SetpointProfileRunner</text>
<text text-anchor="middle" x="332.12" y="-54.75" font-family="Helvetica,sans-Serif" font-size="10.00">::setProfile</text>
</a>
</g>
</g>
<!-- Node9&#45;&gt;Node11 -->
<g id="edge14_Node000009_Node000011" class="edge">
<title>Node9&#45;&gt;Node11</title>
<g id="a_edge14_Node000009_Node000011"><a xlink:title=" ">
<path fill="none" stroke="#63b8ff" d="M234.65,-88.83C244.74,-86.26 255.52,-83.51 266.09,-80.82"/>
<polygon fill="#63b8ff" stroke="#63b8ff" points="266.69,-84.28 275.52,-78.41 264.96,-77.49 266.69,-84.28"/>
</a>
</g>
</g>
<!-- Node12 -->
<g id="Node000012" class="node">
<title>Node12</title>
<g id="a_Node000012"><a xlink:href="classSetpointProfileRunner.html#ace14da515f49645e5901523d0864dd23" target="_top" xlink:title="Toggle the run state.">
<polygon fill="white" stroke="#666666" points="387,-30.5 277.25,-30.5 277.25,0 387,0 387,-30.5"/>
<text text-anchor="start" x="285.25" y="-17" font-family="Helvetica,sans-Serif" font-size="10.00">SetpointProfileRunner</text>
<text text-anchor="middle" x="332.12" y="-5.75" font-family="Helvetica,sans-Serif" font-size="10.00">::toggle</text>
</a>
</g>
</g>
<!-- Node9&#45;&gt;Node12 -->
<g id="edge15_Node000009_Node000012" class="edge">
<title>Node9&#45;&gt;Node12</title>
<g id="a_edge15_Node000009_Node000012"><a xlink:title=" ">
<path fill="none" stroke="#63b8ff" d="M204.85,-85.59C221.46,-72.38 246.6,-53.55 270.5,-40.25 273.3,-38.69 276.21,-37.18 279.19,-35.71"/>
<polygon fill="#63b8ff" stroke="#63b8ff" points="280.47,-38.97 288.05,-31.57 277.51,-32.63 280.47,-38.97"/>
</a>
</g>
</g>
</g>
</svg>
