<?xml version="1.0" encoding="UTF-8" standalone="no"?>
<!DOCTYPE svg PUBLIC "-//W3C//DTD SVG 1.1//EN"
 "http://www.w3.org/Graphics/SVG/1.1/DTD/svg11.dtd">
<!-- Generated by graphviz version 12.0.0 (20240704.0754)
 -->
<!-- Title: CharDisplayUI::draw Pages: 1 -->
<svg width="564pt" height="173pt"
 viewBox="0.00 0.00 564.00 173.49" xmlns="http://www.w3.org/2000/svg" xmlns:xlink="http://www.w3.org/1999/xlink">
<g id="graph0" class="graph" transform="scale(1 1) rotate(0) translate(4 169.49)">
<title>CharDisplayUI::draw</title>
<!-- Node1 -->
<g id="Node000001" class="node">
<title>Node1</title>
<g id="a_Node000001"><a xlink:title="Draw main interface (main loop).">
<polygon fill="#999999" stroke="#666666" points="103.75,-95.8 0,-95.8 0,-76.55 103.75,-76.55 103.75,-95.8"/>
<text text-anchor="middle" x="51.88" y="-82.3" font-family="Helvetica,sans-Serif" font-size="10.00">CharDisplayUI::draw</text>
</a>
</g>
</g>
<!-- Node2 -->
<g id="Node000002" class="node">
<title>Node2</title>
<g id="a_Node000002"><a xlink:href="asprintf_8h.html#a8e2a40be4816c793857112b1960e912b" target="_top" xlink:title="Print formatted data to string. Automatically allocates string on the heap. Make sure to delete it im...">
<polygon fill="white" stroke="#666666" points="523,-157.8 474.75,-157.8 474.75,-138.55 523,-138.55 523,-157.8"/>
<text text-anchor="middle" x="498.88" y="-144.3" font-family="Helvetica,sans-Serif" font-size="10.00">asprintf</text>
</a>
</g>
</g>
<!-- Node1&#45;&gt;Node2 -->
<g id="edge1_Node000001_Node000002" class="edge">
<title>Node1&#45;&gt;Node2</title>
<g id="a_edge1_Node000001_Node000002"><a xlink:title=" ">
<path fill="none" stroke="#63b8ff" d="M63.61,-96.2C79.04,-109.88 109.05,-133.76 139.75,-143.17 253.93,-178.15 398.34,-163.46 463.37,-153.94"/>
<polygon fill="#63b8ff" stroke="#63b8ff" points="463.71,-157.43 473.07,-152.46 462.65,-150.51 463.71,-157.43"/>
</a>
</g>
</g>
<!-- Node3 -->
<g id="Node000003" class="node">
<title>Node3</title>
<g id="a_Node000003"><a xlink:href="classControllerUI.html#af385bdf29e1075733d91b845fb771506" target="_top" xlink:title="Print blinking text.">
<polygon fill="white" stroke="#666666" points="405,-36.8 312.5,-36.8 312.5,-17.55 405,-17.55 405,-36.8"/>
<text text-anchor="middle" x="358.75" y="-23.3" font-family="Helvetica,sans-Serif" font-size="10.00">ControllerUI::blink</text>
</a>
</g>
</g>
<!-- Node1&#45;&gt;Node3 -->
<g id="edge2_Node000001_Node000003" class="edge">
<title>Node1&#45;&gt;Node3</title>
<g id="a_edge2_Node000001_Node000003"><a xlink:title=" ">
<path fill="none" stroke="#63b8ff" d="M60.39,-76.28C74,-59.28 104.61,-25.11 139.75,-12.17 197.72,9.17 270.14,-2.7 315.17,-14.17"/>
<polygon fill="#63b8ff" stroke="#63b8ff" points="314.26,-17.55 324.82,-16.75 316.06,-10.79 314.26,-17.55"/>
</a>
</g>
</g>
<!-- Node5 -->
<g id="Node000005" class="node">
<title>Node5</title>
<g id="a_Node000005"><a xlink:href="classHumidistat.html#a12c137dcc4218eabce1c78b328bc48b0" target="_top" xlink:title="Read the humidity.">
<polygon fill="white" stroke="#666666" points="267.5,-114.8 148,-114.8 148,-95.55 267.5,-95.55 267.5,-114.8"/>
<text text-anchor="middle" x="207.75" y="-101.3" font-family="Helvetica,sans-Serif" font-size="10.00">Humidistat::getHumidity</text>
</a>
</g>
</g>
<!-- Node1&#45;&gt;Node5 -->
<g id="edge4_Node000001_Node000005" class="edge">
<title>Node1&#45;&gt;Node5</title>
<g id="a_edge4_Node000001_Node000005"><a xlink:title=" ">
<path fill="none" stroke="#63b8ff" d="M104.11,-92.5C114.5,-93.78 125.58,-95.15 136.49,-96.49"/>
<polygon fill="#63b8ff" stroke="#63b8ff" points="135.9,-99.95 146.25,-97.7 136.76,-93 135.9,-99.95"/>
</a>
</g>
</g>
<!-- Node6 -->
<g id="Node000006" class="node">
<title>Node6</title>
<g id="a_Node000006"><a xlink:href="classHumidistat.html#add5923a18abdee988d59e3411d12ba04" target="_top" xlink:title="Read the temperature.">
<polygon fill="white" stroke="#666666" points="275.75,-77.8 139.75,-77.8 139.75,-58.55 275.75,-58.55 275.75,-77.8"/>
<text text-anchor="middle" x="207.75" y="-64.3" font-family="Helvetica,sans-Serif" font-size="10.00">Humidistat::getTemperature</text>
</a>
</g>
</g>
<!-- Node1&#45;&gt;Node6 -->
<g id="edge5_Node000001_Node000006" class="edge">
<title>Node1&#45;&gt;Node6</title>
<g id="a_edge5_Node000001_Node000006"><a xlink:title=" ">
<path fill="none" stroke="#63b8ff" d="M104.11,-80.18C111.78,-79.28 119.83,-78.34 127.91,-77.39"/>
<polygon fill="#63b8ff" stroke="#63b8ff" points="128.28,-80.87 137.81,-76.24 127.47,-73.92 128.28,-80.87"/>
</a>
</g>
</g>
<!-- Node7 -->
<g id="Node000007" class="node">
<title>Node7</title>
<g id="a_Node000007"><a xlink:href="classControllerUI.html#aa14a64631f7993d6e22ac9e6f5bf4b44" target="_top" xlink:title="Print formatted data to display, at (col, row). Calculates lengths and creates appropriate buffer int...">
<polygon fill="white" stroke="#666666" points="405.75,-73.8 311.75,-73.8 311.75,-54.55 405.75,-54.55 405.75,-73.8"/>
<text text-anchor="middle" x="358.75" y="-60.3" font-family="Helvetica,sans-Serif" font-size="10.00">ControllerUI::printf</text>
</a>
</g>
</g>
<!-- Node1&#45;&gt;Node7 -->
<g id="edge6_Node000001_Node000007" class="edge">
<title>Node1&#45;&gt;Node7</title>
<g id="a_edge6_Node000001_Node000007"><a xlink:title=" ">
<path fill="none" stroke="#63b8ff" d="M70.13,-96.27C87.17,-105.62 114.29,-118.85 139.75,-124.17 198.91,-136.54 218.3,-142.95 275.75,-124.17 300.98,-115.93 324.88,-96.64 340.3,-82.15"/>
<polygon fill="#63b8ff" stroke="#63b8ff" points="342.55,-84.84 347.26,-75.34 337.66,-79.83 342.55,-84.84"/>
</a>
</g>
</g>
<!-- Node8 -->
<g id="Node000008" class="node">
<title>Node8</title>
<g id="a_Node000008"><a xlink:href="classControllerUI.html#abfabf4c49c12dcb8ee5e8b5a899cc920" target="_top" xlink:title="Print temperature read from thermistors. Handles NaN values as 0.">
<polygon fill="white" stroke="#666666" points="263.38,-40.8 152.12,-40.8 152.12,-21.55 263.38,-21.55 263.38,-40.8"/>
<text text-anchor="middle" x="207.75" y="-27.3" font-family="Helvetica,sans-Serif" font-size="10.00">ControllerUI::printNTC</text>
</a>
</g>
</g>
<!-- Node1&#45;&gt;Node8 -->
<g id="edge9_Node000001_Node000008" class="edge">
<title>Node1&#45;&gt;Node8</title>
<g id="a_edge9_Node000001_Node000008"><a xlink:title=" ">
<path fill="none" stroke="#63b8ff" d="M73.97,-76.2C91.36,-68.22 116.82,-57.09 139.75,-49.17 144.55,-47.51 149.6,-45.91 154.67,-44.39"/>
<polygon fill="#63b8ff" stroke="#63b8ff" points="155.63,-47.76 164.27,-41.63 153.7,-41.03 155.63,-47.76"/>
</a>
</g>
</g>
<!-- Node4 -->
<g id="Node000004" class="node">
<title>Node4</title>
<g id="a_Node000004"><a xlink:href="classControllerUI.html#a94aed853c67197d32434244f8941c21e" target="_top" xlink:title="Set cursor to coordinates.">
<polygon fill="white" stroke="#666666" points="556,-54.8 441.75,-54.8 441.75,-35.55 556,-35.55 556,-54.8"/>
<text text-anchor="middle" x="498.88" y="-41.3" font-family="Helvetica,sans-Serif" font-size="10.00">ControllerUI::setCursor</text>
</a>
</g>
</g>
<!-- Node3&#45;&gt;Node4 -->
<g id="edge3_Node000003_Node000004" class="edge">
<title>Node3&#45;&gt;Node4</title>
<g id="a_edge3_Node000003_Node000004"><a xlink:title=" ">
<path fill="none" stroke="#63b8ff" d="M405.36,-33.11C413.45,-34.17 422.02,-35.28 430.56,-36.4"/>
<polygon fill="#63b8ff" stroke="#63b8ff" points="429.85,-39.83 440.22,-37.66 430.75,-32.89 429.85,-39.83"/>
</a>
</g>
</g>
<!-- Node7&#45;&gt;Node2 -->
<g id="edge7_Node000007_Node000002" class="edge">
<title>Node7&#45;&gt;Node2</title>
<g id="a_edge7_Node000007_Node000002"><a xlink:title=" ">
<path fill="none" stroke="#63b8ff" d="M376.14,-74.14C399.81,-88.53 443.82,-115.3 471.94,-132.4"/>
<polygon fill="#63b8ff" stroke="#63b8ff" points="469.85,-135.23 480.22,-137.43 473.49,-129.24 469.85,-135.23"/>
</a>
</g>
</g>
<!-- Node7&#45;&gt;Node4 -->
<g id="edge8_Node000007_Node000004" class="edge">
<title>Node7&#45;&gt;Node4</title>
<g id="a_edge8_Node000007_Node000004"><a xlink:title=" ">
<path fill="none" stroke="#63b8ff" d="M406.13,-57.79C413.8,-56.74 421.89,-55.62 429.96,-54.51"/>
<polygon fill="#63b8ff" stroke="#63b8ff" points="430.38,-57.99 439.81,-53.16 429.43,-51.05 430.38,-57.99"/>
</a>
</g>
</g>
<!-- Node8&#45;&gt;Node7 -->
<g id="edge10_Node000008_Node000007" class="edge">
<title>Node8&#45;&gt;Node7</title>
<g id="a_edge10_Node000008_Node000007"><a xlink:title=" ">
<path fill="none" stroke="#63b8ff" d="M254.26,-41.25C269.07,-44.53 285.69,-48.21 301.2,-51.65"/>
<polygon fill="#63b8ff" stroke="#63b8ff" points="300.26,-55.02 310.78,-53.77 301.77,-48.19 300.26,-55.02"/>
</a>
</g>
</g>
</g>
</svg>
