<?xml version="1.0" encoding="UTF-8" standalone="no"?>
<!DOCTYPE svg PUBLIC "-//W3C//DTD SVG 1.1//EN"
 "http://www.w3.org/Graphics/SVG/1.1/DTD/svg11.dtd">
<!-- Generated by graphviz version 12.0.0 (20240704.0754)
 -->
<!-- Title: ControllerUI::printNTC Pages: 1 -->
<svg width="394pt" height="76pt"
 viewBox="0.00 0.00 394.25 75.88" xmlns="http://www.w3.org/2000/svg" xmlns:xlink="http://www.w3.org/1999/xlink">
<g id="graph0" class="graph" transform="scale(1 1) rotate(0) translate(4 71.88)">
<title>ControllerUI::printNTC</title>
<!-- Node1 -->
<g id="Node000001" class="node">
<title>Node1</title>
<g id="a_Node000001"><a xlink:title="Print temperature read from thermistors. Handles NaN values as 0.">
<polygon fill="#999999" stroke="#666666" points="386.25,-45.88 275,-45.88 275,-26.62 386.25,-26.62 386.25,-45.88"/>
<text text-anchor="middle" x="330.62" y="-32.38" font-family="Helvetica,sans-Serif" font-size="10.00">ControllerUI::printNTC</text>
</a>
</g>
</g>
<!-- Node2 -->
<g id="Node000002" class="node">
<title>Node2</title>
<g id="a_Node000002"><a xlink:href="classCharDisplayUI.html#aef739ad8856b975fdd25ffdf9fa86601" target="_top" xlink:title="Draw main interface (main loop).">
<polygon fill="white" stroke="#666666" points="239,-67.88 135.25,-67.88 135.25,-48.62 239,-48.62 239,-67.88"/>
<text text-anchor="middle" x="187.12" y="-54.38" font-family="Helvetica,sans-Serif" font-size="10.00">CharDisplayUI::draw</text>
</a>
</g>
</g>
<!-- Node1&#45;&gt;Node2 -->
<g id="edge1_Node000001_Node000002" class="edge">
<title>Node1&#45;&gt;Node2</title>
<g id="a_edge1_Node000001_Node000002"><a xlink:title=" ">
<path fill="none" stroke="#63b8ff" d="M263.19,-46.58C255.11,-47.84 246.96,-49.1 239.16,-50.32"/>
<polygon fill="#63b8ff" stroke="#63b8ff" points="263.67,-50.05 273.02,-45.05 262.6,-43.13 263.67,-50.05"/>
</a>
</g>
</g>
<!-- Node3 -->
<g id="Node000003" class="node">
<title>Node3</title>
<g id="a_Node000003"><a xlink:href="classGraphicalDisplayUI.html#a41ae47f8e4d0bd909b6d2be9765cdbc4" target="_top" xlink:title=" ">
<polygon fill="white" stroke="#666666" points="236.75,-30.5 137.5,-30.5 137.5,0 236.75,0 236.75,-30.5"/>
<text text-anchor="start" x="145.5" y="-17" font-family="Helvetica,sans-Serif" font-size="10.00">GraphicalDisplayUI</text>
<text text-anchor="middle" x="187.12" y="-5.75" font-family="Helvetica,sans-Serif" font-size="10.00">::drawTabInfo</text>
</a>
</g>
</g>
<!-- Node1&#45;&gt;Node3 -->
<g id="edge2_Node000001_Node000003" class="edge">
<title>Node1&#45;&gt;Node3</title>
<g id="a_edge2_Node000001_Node000003"><a xlink:title=" ">
<path fill="none" stroke="#63b8ff" d="M263.32,-26.41C254.41,-25.09 245.4,-23.75 236.87,-22.48"/>
<polygon fill="#63b8ff" stroke="#63b8ff" points="262.61,-29.84 273.02,-27.85 263.64,-22.92 262.61,-29.84"/>
</a>
</g>
</g>
<!-- Node4 -->
<g id="Node000004" class="node">
<title>Node4</title>
<g id="a_Node000004"><a xlink:href="classGraphicalDisplayUI.html#aa73a9c30736b609bcef2b75c7aed1970" target="_top" xlink:title="Draw main interface (main loop).">
<polygon fill="white" stroke="#666666" points="99.25,-30.5 0,-30.5 0,0 99.25,0 99.25,-30.5"/>
<text text-anchor="start" x="8" y="-17" font-family="Helvetica,sans-Serif" font-size="10.00">GraphicalDisplayUI</text>
<text text-anchor="middle" x="49.62" y="-5.75" font-family="Helvetica,sans-Serif" font-size="10.00">::draw</text>
</a>
</g>
</g>
<!-- Node3&#45;&gt;Node4 -->
<g id="edge3_Node000003_Node000004" class="edge">
<title>Node3&#45;&gt;Node4</title>
<g id="a_edge3_Node000003_Node000004"><a xlink:title=" ">
<path fill="none" stroke="#63b8ff" d="M125.78,-15.25C116.98,-15.25 108.01,-15.25 99.47,-15.25"/>
<polygon fill="#63b8ff" stroke="#63b8ff" points="125.69,-18.75 135.69,-15.25 125.69,-11.75 125.69,-18.75"/>
</a>
</g>
</g>
</g>
</svg>
