<?xml version="1.0" encoding="UTF-8" standalone="no"?>
<!DOCTYPE svg PUBLIC "-//W3C//DTD SVG 1.1//EN"
 "http://www.w3.org/Graphics/SVG/1.1/DTD/svg11.dtd">
<!-- Generated by graphviz version 12.0.0 (20240704.0754)
 -->
<!-- Title: ControllerUI::update Pages: 1 -->
<svg width="289pt" height="249pt"
 viewBox="0.00 0.00 289.00 249.25" xmlns="http://www.w3.org/2000/svg" xmlns:xlink="http://www.w3.org/1999/xlink">
<g id="graph0" class="graph" transform="scale(1 1) rotate(0) translate(4 245.25)">
<title>ControllerUI::update</title>
<!-- Node1 -->
<g id="Node000001" class="node">
<title>Node1</title>
<g id="a_Node000001"><a xlink:title="Update the display and handle input: set Humidistat&#39;s setpoint.">
<polygon fill="#999999" stroke="#666666" points="101.5,-130.25 0,-130.25 0,-111 101.5,-111 101.5,-130.25"/>
<text text-anchor="middle" x="50.75" y="-116.75" font-family="Helvetica,sans-Serif" font-size="10.00">ControllerUI::update</text>
</a>
</g>
</g>
<!-- Node2 -->
<g id="Node000002" class="node">
<title>Node2</title>
<g id="a_Node000002"><a xlink:href="classControllerUI.html#af0365e8a34ddcc4b00985fa0c95a5d65" target="_top" xlink:title="Clear screen.">
<polygon fill="white" stroke="#666666" points="255.88,-241.25 162.62,-241.25 162.62,-222 255.88,-222 255.88,-241.25"/>
<text text-anchor="middle" x="209.25" y="-227.75" font-family="Helvetica,sans-Serif" font-size="10.00">ControllerUI::clear</text>
</a>
</g>
</g>
<!-- Node1&#45;&gt;Node2 -->
<g id="edge1_Node000001_Node000002" class="edge">
<title>Node1&#45;&gt;Node2</title>
<g id="a_edge1_Node000001_Node000002"><a xlink:title=" ">
<path fill="none" stroke="#63b8ff" d="M57.96,-130.51C70.53,-149.65 100.9,-191.81 137.5,-213.62 141.84,-216.21 146.55,-218.43 151.4,-220.33"/>
<polygon fill="#63b8ff" stroke="#63b8ff" points="150.15,-223.6 160.74,-223.52 152.41,-216.98 150.15,-223.6"/>
</a>
</g>
</g>
<!-- Node3 -->
<g id="Node000003" class="node">
<title>Node3</title>
<g id="a_Node000003"><a xlink:href="classControllerUI.html#ad4f4f22b7282e9aacf04f7847f543f04" target="_top" xlink:title="Draw main interface (main loop).">
<polygon fill="white" stroke="#666666" points="255.88,-204.25 162.62,-204.25 162.62,-185 255.88,-185 255.88,-204.25"/>
<text text-anchor="middle" x="209.25" y="-190.75" font-family="Helvetica,sans-Serif" font-size="10.00">ControllerUI::draw</text>
</a>
</g>
</g>
<!-- Node1&#45;&gt;Node3 -->
<g id="edge2_Node000001_Node000003" class="edge">
<title>Node1&#45;&gt;Node3</title>
<g id="a_edge2_Node000001_Node000003"><a xlink:title=" ">
<path fill="none" stroke="#63b8ff" d="M64.07,-130.57C80.08,-143.03 109.34,-164.26 137.5,-176.62 141.99,-178.6 146.75,-180.39 151.58,-182"/>
<polygon fill="#63b8ff" stroke="#63b8ff" points="150.18,-185.23 160.77,-184.82 152.23,-178.54 150.18,-185.23"/>
</a>
</g>
</g>
<!-- Node4 -->
<g id="Node000004" class="node">
<title>Node4</title>
<g id="a_Node000004"><a xlink:href="classControllerUI.html#acb114d7cbe1d691028fa3d349728c91e" target="_top" xlink:title="Draw info screen.">
<polygon fill="white" stroke="#666666" points="264.12,-167.25 154.38,-167.25 154.38,-148 264.12,-148 264.12,-167.25"/>
<text text-anchor="middle" x="209.25" y="-153.75" font-family="Helvetica,sans-Serif" font-size="10.00">ControllerUI::drawInfo</text>
</a>
</g>
</g>
<!-- Node1&#45;&gt;Node4 -->
<g id="edge3_Node000001_Node000004" class="edge">
<title>Node1&#45;&gt;Node4</title>
<g id="a_edge3_Node000001_Node000004"><a xlink:title=" ">
<path fill="none" stroke="#63b8ff" d="M94.51,-130.74C113.06,-135.12 134.98,-140.3 154.6,-144.94"/>
<polygon fill="#63b8ff" stroke="#63b8ff" points="153.53,-148.28 164.06,-147.18 155.14,-141.47 153.53,-148.28"/>
</a>
</g>
</g>
<!-- Node5 -->
<g id="Node000005" class="node">
<title>Node5</title>
<g id="a_Node000005"><a xlink:href="classControllerUI.html#a79527907045a0ac131fb7e1044c4eca4" target="_top" xlink:title="Draw splash screen.">
<polygon fill="white" stroke="#666666" points="270.88,-130.25 147.62,-130.25 147.62,-111 270.88,-111 270.88,-130.25"/>
<text text-anchor="middle" x="209.25" y="-116.75" font-family="Helvetica,sans-Serif" font-size="10.00">ControllerUI::drawSplash</text>
</a>
</g>
</g>
<!-- Node1&#45;&gt;Node5 -->
<g id="edge4_Node000001_Node000005" class="edge">
<title>Node1&#45;&gt;Node5</title>
<g id="a_edge4_Node000001_Node000005"><a xlink:title=" ">
<path fill="none" stroke="#63b8ff" d="M101.7,-120.62C112.57,-120.62 124.28,-120.62 135.82,-120.62"/>
<polygon fill="#63b8ff" stroke="#63b8ff" points="135.75,-124.13 145.75,-120.63 135.75,-117.13 135.75,-124.13"/>
</a>
</g>
</g>
<!-- Node6 -->
<g id="Node000006" class="node">
<title>Node6</title>
<g id="a_Node000006"><a xlink:href="classButtonReader.html#a2e169071482d9544ae92156fc5c0d087" target="_top" xlink:title="Get the duration the key has been pressed. This can be used for debouncing using a stable interval.">
<polygon fill="white" stroke="#666666" points="281,-93.25 137.5,-93.25 137.5,-74 281,-74 281,-93.25"/>
<text text-anchor="middle" x="209.25" y="-79.75" font-family="Helvetica,sans-Serif" font-size="10.00">ButtonReader::getPressedFor</text>
</a>
</g>
</g>
<!-- Node1&#45;&gt;Node6 -->
<g id="edge5_Node000001_Node000006" class="edge">
<title>Node1&#45;&gt;Node6</title>
<g id="a_edge5_Node000001_Node000006"><a xlink:title=" ">
<path fill="none" stroke="#63b8ff" d="M94.51,-110.51C113.06,-106.13 134.98,-100.95 154.6,-96.31"/>
<polygon fill="#63b8ff" stroke="#63b8ff" points="155.14,-99.78 164.06,-94.07 153.53,-92.97 155.14,-99.78"/>
</a>
</g>
</g>
<!-- Node7 -->
<g id="Node000007" class="node">
<title>Node7</title>
<g id="a_Node000007"><a xlink:href="classControllerUI.html#ab101f4fc3a16ccdac7fb80e3af1a22ac" target="_top" xlink:title="Handle input.">
<polygon fill="white" stroke="#666666" points="270.5,-56.25 148,-56.25 148,-37 270.5,-37 270.5,-56.25"/>
<text text-anchor="middle" x="209.25" y="-42.75" font-family="Helvetica,sans-Serif" font-size="10.00">ControllerUI::handleInput</text>
</a>
</g>
</g>
<!-- Node1&#45;&gt;Node7 -->
<g id="edge6_Node000001_Node000007" class="edge">
<title>Node1&#45;&gt;Node7</title>
<g id="a_edge6_Node000001_Node000007"><a xlink:title=" ">
<path fill="none" stroke="#63b8ff" d="M64.07,-110.68C80.08,-98.22 109.34,-76.99 137.5,-64.62 141.09,-63.05 144.85,-61.59 148.67,-60.24"/>
<polygon fill="#63b8ff" stroke="#63b8ff" points="149.69,-63.59 158.14,-57.21 147.55,-56.93 149.69,-63.59"/>
</a>
</g>
</g>
<!-- Node8 -->
<g id="Node000008" class="node">
<title>Node8</title>
<g id="a_Node000008"><a xlink:href="classButtonReader.html#a3ced9ddb05791cb1b9d29175f39d91fd" target="_top" xlink:title="Get the button state.">
<polygon fill="white" stroke="#666666" points="270.88,-19.25 147.62,-19.25 147.62,0 270.88,0 270.88,-19.25"/>
<text text-anchor="middle" x="209.25" y="-5.75" font-family="Helvetica,sans-Serif" font-size="10.00">ButtonReader::isPressed</text>
</a>
</g>
</g>
<!-- Node1&#45;&gt;Node8 -->
<g id="edge7_Node000001_Node000008" class="edge">
<title>Node1&#45;&gt;Node8</title>
<g id="a_edge7_Node000001_Node000008"><a xlink:title=" ">
<path fill="none" stroke="#63b8ff" d="M57.96,-110.74C70.53,-91.6 100.9,-49.44 137.5,-27.62 139.67,-26.33 141.93,-25.13 144.25,-24.02"/>
<polygon fill="#63b8ff" stroke="#63b8ff" points="145.45,-27.31 153.35,-20.24 142.77,-20.84 145.45,-27.31"/>
</a>
</g>
</g>
</g>
</svg>
