<?xml version="1.0" encoding="UTF-8" standalone="no"?>
<!DOCTYPE svg PUBLIC "-//W3C//DTD SVG 1.1//EN"
 "http://www.w3.org/Graphics/SVG/1.1/DTD/svg11.dtd">
<!-- Generated by graphviz version 12.0.0 (20240704.0754)
 -->
<!-- Title: ConfigPar::magnitude Pages: 1 -->
<svg width="193pt" height="45pt"
 viewBox="0.00 0.00 193.00 45.25" xmlns="http://www.w3.org/2000/svg" xmlns:xlink="http://www.w3.org/1999/xlink">
<g id="graph0" class="graph" transform="scale(1 1) rotate(0) translate(4 41.25)">
<title>ConfigPar::magnitude</title>
<!-- Node1 -->
<g id="Node000001" class="node">
<title>Node1</title>
<g id="a_Node000001"><a xlink:title="Get magnitude (number of digits before the decimal separator) of variable.">
<polygon fill="#999999" stroke="#666666" points="107.5,-19.25 0,-19.25 0,0 107.5,0 107.5,-19.25"/>
<text text-anchor="middle" x="53.75" y="-5.75" font-family="Helvetica,sans-Serif" font-size="10.00">ConfigPar::magnitude</text>
</a>
</g>
</g>
<!-- Node2 -->
<g id="Node000002" class="node">
<title>Node2</title>
<g id="a_Node000002"><a xlink:href="imath_8h.html#a1b826c7311037e4e89052d8f5d59afe6" target="_top" xlink:title="Constexpr integer base&#45;10 logarithm.">
<polygon fill="white" stroke="#666666" points="185,-19.25 143.5,-19.25 143.5,0 185,0 185,-19.25"/>
<text text-anchor="middle" x="164.25" y="-5.75" font-family="Helvetica,sans-Serif" font-size="10.00">ilog10</text>
</a>
</g>
</g>
<!-- Node1&#45;&gt;Node2 -->
<g id="edge1_Node000001_Node000002" class="edge">
<title>Node1&#45;&gt;Node2</title>
<g id="a_edge1_Node000001_Node000002"><a xlink:title=" ">
<path fill="none" stroke="#63b8ff" d="M107.73,-9.62C115.89,-9.62 124.09,-9.62 131.59,-9.62"/>
<polygon fill="#63b8ff" stroke="#63b8ff" points="131.54,-13.13 141.54,-9.63 131.54,-6.13 131.54,-13.13"/>
</a>
</g>
</g>
<!-- Node2&#45;&gt;Node2 -->
<g id="edge2_Node000002_Node000002" class="edge">
<title>Node2&#45;&gt;Node2</title>
<g id="a_edge2_Node000002_Node000002"><a xlink:title=" ">
<path fill="none" stroke="#63b8ff" d="M146.95,-19.54C139.06,-28.15 144.83,-37.25 164.25,-37.25 174.87,-37.25 181.41,-34.53 183.86,-30.65"/>
<polygon fill="#63b8ff" stroke="#63b8ff" points="187.32,-30.1 181.86,-21.02 180.47,-31.52 187.32,-30.1"/>
</a>
</g>
</g>
</g>
</svg>
