<?xml version="1.0" encoding="UTF-8" standalone="no"?>
<!DOCTYPE svg PUBLIC "-//W3C//DTD SVG 1.1//EN"
 "http://www.w3.org/Graphics/SVG/1.1/DTD/svg11.dtd">
<!-- Generated by graphviz version 12.0.0 (20240704.0754)
 -->
<!-- Title: ControllerUI::blink Pages: 1 -->
<svg width="240pt" height="76pt"
 viewBox="0.00 0.00 240.25 75.88" xmlns="http://www.w3.org/2000/svg" xmlns:xlink="http://www.w3.org/1999/xlink">
<g id="graph0" class="graph" transform="scale(1 1) rotate(0) translate(4 71.88)">
<title>ControllerUI::blink</title>
<!-- Node1 -->
<g id="Node000001" class="node">
<title>Node1</title>
<g id="a_Node000001"><a xlink:title="Print blinking text.">
<polygon fill="#999999" stroke="#666666" points="232.25,-45.88 139.75,-45.88 139.75,-26.62 232.25,-26.62 232.25,-45.88"/>
<text text-anchor="middle" x="186" y="-32.38" font-family="Helvetica,sans-Serif" font-size="10.00">ControllerUI::blink</text>
</a>
</g>
</g>
<!-- Node2 -->
<g id="Node000002" class="node">
<title>Node2</title>
<g id="a_Node000002"><a xlink:href="classCharDisplayUI.html#aef739ad8856b975fdd25ffdf9fa86601" target="_top" xlink:title="Draw main interface (main loop).">
<polygon fill="white" stroke="#666666" points="103.75,-67.88 0,-67.88 0,-48.62 103.75,-48.62 103.75,-67.88"/>
<text text-anchor="middle" x="51.88" y="-54.38" font-family="Helvetica,sans-Serif" font-size="10.00">CharDisplayUI::draw</text>
</a>
</g>
</g>
<!-- Node1&#45;&gt;Node2 -->
<g id="edge1_Node000001_Node000002" class="edge">
<title>Node1&#45;&gt;Node2</title>
<g id="a_edge1_Node000001_Node000002"><a xlink:title=" ">
<path fill="none" stroke="#63b8ff" d="M128.25,-45.7C120.15,-47.05 111.85,-48.43 103.87,-49.76"/>
<polygon fill="#63b8ff" stroke="#63b8ff" points="128.75,-49.16 138.04,-44.07 127.6,-42.26 128.75,-49.16"/>
</a>
</g>
</g>
<!-- Node3 -->
<g id="Node000003" class="node">
<title>Node3</title>
<g id="a_Node000003"><a xlink:href="classGraphicalDisplayUI.html#af69808890fcfb2bd088ac73aa6f7563c" target="_top" xlink:title="Draw common elements in Main tab.">
<polygon fill="white" stroke="#666666" points="103.38,-30.5 0.38,-30.5 0.38,0 103.38,0 103.38,-30.5"/>
<text text-anchor="start" x="8.38" y="-17" font-family="Helvetica,sans-Serif" font-size="10.00">GraphicalDisplayUI</text>
<text text-anchor="middle" x="51.88" y="-5.75" font-family="Helvetica,sans-Serif" font-size="10.00">::DrawMainCommon</text>
</a>
</g>
</g>
<!-- Node1&#45;&gt;Node3 -->
<g id="edge2_Node000001_Node000003" class="edge">
<title>Node1&#45;&gt;Node3</title>
<g id="a_edge2_Node000001_Node000003"><a xlink:title=" ">
<path fill="none" stroke="#63b8ff" d="M128.25,-27.23C120.15,-25.94 111.85,-24.62 103.87,-23.35"/>
<polygon fill="#63b8ff" stroke="#63b8ff" points="127.61,-30.67 138.04,-28.79 128.71,-23.76 127.61,-30.67"/>
</a>
</g>
</g>
</g>
</svg>
