<?xml version="1.0" encoding="UTF-8" standalone="no"?>
<!DOCTYPE svg PUBLIC "-//W3C//DTD SVG 1.1//EN"
 "http://www.w3.org/Graphics/SVG/1.1/DTD/svg11.dtd">
<!-- Generated by graphviz version 12.0.0 (20240704.0754)
 -->
<!-- Title: SingleHumidistat::update Pages: 1 -->
<svg width="472pt" height="100pt"
 viewBox="0.00 0.00 471.75 100.25" xmlns="http://www.w3.org/2000/svg" xmlns:xlink="http://www.w3.org/1999/xlink">
<g id="graph0" class="graph" transform="scale(1 1) rotate(0) translate(4 96.25)">
<title>SingleHumidistat::update</title>
<!-- Node1 -->
<g id="Node000001" class="node">
<title>Node1</title>
<g id="a_Node000001"><a xlink:title=" ">
<polygon fill="#999999" stroke="#666666" points="124,-55.25 0,-55.25 0,-36 124,-36 124,-55.25"/>
<text text-anchor="middle" x="62" y="-41.75" font-family="Helvetica,sans-Serif" font-size="10.00">SingleHumidistat::update</text>
</a>
</g>
</g>
<!-- Node2 -->
<g id="Node000002" class="node">
<title>Node2</title>
<g id="a_Node000002"><a xlink:href="imath_8h.html#aa86632c19b4d57acb96ac9e9cd3e13e1" target="_top" xlink:title="Constexpr function for computing integer power.">
<polygon fill="white" stroke="#666666" points="230.75,-74.25 194.5,-74.25 194.5,-55 230.75,-55 230.75,-74.25"/>
<text text-anchor="middle" x="212.62" y="-60.75" font-family="Helvetica,sans-Serif" font-size="10.00">ipow</text>
</a>
</g>
</g>
<!-- Node1&#45;&gt;Node2 -->
<g id="edge1_Node000001_Node000002" class="edge">
<title>Node1&#45;&gt;Node2</title>
<g id="a_edge1_Node000001_Node000002"><a xlink:title=" ">
<path fill="none" stroke="#63b8ff" d="M124.31,-53.46C144.64,-56.06 166.32,-58.83 182.98,-60.96"/>
<polygon fill="#63b8ff" stroke="#63b8ff" points="182.28,-64.4 192.64,-62.2 183.17,-57.46 182.28,-64.4"/>
</a>
</g>
</g>
<!-- Node3 -->
<g id="Node000003" class="node">
<title>Node3</title>
<g id="a_Node000003"><a xlink:href="classHumidistat.html#ae30511d6477f5996de05996bdf221730" target="_top" xlink:title="Run a cycle of the controller. Reads a sample from the humidity controller and runs PID.">
<polygon fill="white" stroke="#666666" points="265.25,-37.25 160,-37.25 160,-18 265.25,-18 265.25,-37.25"/>
<text text-anchor="middle" x="212.62" y="-23.75" font-family="Helvetica,sans-Serif" font-size="10.00">Humidistat::runCycle</text>
</a>
</g>
</g>
<!-- Node1&#45;&gt;Node3 -->
<g id="edge3_Node000001_Node000003" class="edge">
<title>Node1&#45;&gt;Node3</title>
<g id="a_edge3_Node000001_Node000003"><a xlink:title=" ">
<path fill="none" stroke="#63b8ff" d="M124.31,-38.2C132.35,-37.23 140.61,-36.23 148.68,-35.25"/>
<polygon fill="#63b8ff" stroke="#63b8ff" points="148.91,-38.75 158.42,-34.07 148.07,-31.8 148.91,-38.75"/>
</a>
</g>
</g>
<!-- Node2&#45;&gt;Node2 -->
<g id="edge2_Node000002_Node000002" class="edge">
<title>Node2&#45;&gt;Node2</title>
<g id="a_edge2_Node000002_Node000002"><a xlink:title=" ">
<path fill="none" stroke="#63b8ff" d="M194.21,-73.39C183.38,-82.32 189.52,-92.25 212.62,-92.25 226.71,-92.25 234.49,-88.56 235.97,-83.66"/>
<polygon fill="#63b8ff" stroke="#63b8ff" points="239.18,-82.26 231.7,-74.76 232.87,-85.29 239.18,-82.26"/>
</a>
</g>
</g>
<!-- Node4 -->
<g id="Node000004" class="node">
<title>Node4</title>
<g id="a_Node000004"><a xlink:href="classPID.html#a742098de1dc845731f9bc86ebf01fb01" target="_top" xlink:title="Run a cycle of the PID loop.">
<polygon fill="white" stroke="#666666" points="375.75,-56.25 301.25,-56.25 301.25,-37 375.75,-37 375.75,-56.25"/>
<text text-anchor="middle" x="338.5" y="-42.75" font-family="Helvetica,sans-Serif" font-size="10.00">PID::compute</text>
</a>
</g>
</g>
<!-- Node3&#45;&gt;Node4 -->
<g id="edge4_Node000003_Node000004" class="edge">
<title>Node3&#45;&gt;Node4</title>
<g id="a_edge4_Node000003_Node000004"><a xlink:title=" ">
<path fill="none" stroke="#63b8ff" d="M265.44,-35.57C273.46,-36.8 281.71,-38.07 289.64,-39.28"/>
<polygon fill="#63b8ff" stroke="#63b8ff" points="289.04,-42.73 299.46,-40.79 290.1,-35.81 289.04,-42.73"/>
</a>
</g>
</g>
<!-- Node6 -->
<g id="Node000006" class="node">
<title>Node6</title>
<g id="a_Node000006"><a xlink:href="classPID.html#a05e62644ef9b7c0f3b1bb34631150ab4" target="_top" xlink:title="Set the mode of the controller.">
<polygon fill="white" stroke="#666666" points="373.88,-19.25 303.12,-19.25 303.12,0 373.88,0 373.88,-19.25"/>
<text text-anchor="middle" x="338.5" y="-5.75" font-family="Helvetica,sans-Serif" font-size="10.00">PID::setAuto</text>
</a>
</g>
</g>
<!-- Node3&#45;&gt;Node6 -->
<g id="edge6_Node000003_Node000006" class="edge">
<title>Node3&#45;&gt;Node6</title>
<g id="a_edge6_Node000003_Node000006"><a xlink:title=" ">
<path fill="none" stroke="#63b8ff" d="M265.44,-20.1C274.1,-18.84 283.03,-17.54 291.53,-16.3"/>
<polygon fill="#63b8ff" stroke="#63b8ff" points="291.9,-19.79 301.3,-14.89 290.9,-12.86 291.9,-19.79"/>
</a>
</g>
</g>
<!-- Node5 -->
<g id="Node000005" class="node">
<title>Node5</title>
<g id="a_Node000005"><a xlink:href="classPID.html#a0e64deb10d189ef873ec4e672a1c79f2" target="_top" xlink:title="Clip value to [cvMin, cvMax].">
<polygon fill="white" stroke="#666666" points="463.75,-56.25 411.75,-56.25 411.75,-37 463.75,-37 463.75,-56.25"/>
<text text-anchor="middle" x="437.75" y="-42.75" font-family="Helvetica,sans-Serif" font-size="10.00">PID::clip</text>
</a>
</g>
</g>
<!-- Node4&#45;&gt;Node5 -->
<g id="edge5_Node000004_Node000005" class="edge">
<title>Node4&#45;&gt;Node5</title>
<g id="a_edge5_Node000004_Node000005"><a xlink:title=" ">
<path fill="none" stroke="#63b8ff" d="M375.99,-46.62C383.79,-46.62 392.04,-46.62 399.86,-46.62"/>
<polygon fill="#63b8ff" stroke="#63b8ff" points="399.76,-50.13 409.76,-46.63 399.76,-43.13 399.76,-50.13"/>
</a>
</g>
</g>
<!-- Node7 -->
<g id="Node000007" class="node">
<title>Node7</title>
<g id="a_Node000007"><a xlink:href="classPID.html#a0ccd3a3e6e64a2560077ea76bf71e417" target="_top" xlink:title="Method to be called when the controller goes from manual to auto mode for proper bumpless transfer.">
<polygon fill="white" stroke="#666666" points="462.62,-19.25 412.88,-19.25 412.88,0 462.62,0 462.62,-19.25"/>
<text text-anchor="middle" x="437.75" y="-5.75" font-family="Helvetica,sans-Serif" font-size="10.00">PID::init</text>
</a>
</g>
</g>
<!-- Node6&#45;&gt;Node7 -->
<g id="edge7_Node000006_Node000007" class="edge">
<title>Node6&#45;&gt;Node7</title>
<g id="a_edge7_Node000006_Node000007"><a xlink:title=" ">
<path fill="none" stroke="#63b8ff" d="M374.33,-9.62C383.03,-9.62 392.36,-9.62 401.09,-9.62"/>
<polygon fill="#63b8ff" stroke="#63b8ff" points="401,-13.13 411,-9.63 401,-6.13 401,-13.13"/>
</a>
</g>
</g>
</g>
</svg>
