<?xml version="1.0" encoding="UTF-8" standalone="no"?>
<!DOCTYPE svg PUBLIC "-//W3C//DTD SVG 1.1//EN"
 "http://www.w3.org/Graphics/SVG/1.1/DTD/svg11.dtd">
<!-- Generated by graphviz version 12.0.0 (20240704.0754)
 -->
<!-- Title: CascadeHumidistat Pages: 1 -->
<svg width="198pt" height="227pt"
 viewBox="0.00 0.00 198.25 226.75" xmlns="http://www.w3.org/2000/svg" xmlns:xlink="http://www.w3.org/1999/xlink">
<g id="graph0" class="graph" transform="scale(1 1) rotate(0) translate(4 222.75)">
<title>CascadeHumidistat</title>
<!-- Node1 -->
<g id="Node000001" class="node">
<title>Node1</title>
<g id="a_Node000001"><a xlink:title="Control humidity using cascade PID: outer PID loop sets setpoints of two inner flow controllers,...">
<polygon fill="#999999" stroke="#666666" points="133.88,-19.25 32.38,-19.25 32.38,0 133.88,0 133.88,-19.25"/>
<text text-anchor="middle" x="83.12" y="-5.75" font-family="Helvetica,sans-Serif" font-size="10.00">CascadeHumidistat</text>
</a>
</g>
</g>
<!-- Node2 -->
<g id="Node000002" class="node">
<title>Node2</title>
<g id="a_Node000002"><a xlink:href="classHumidistat.html" target="_top" xlink:title="Base class for a humidistat. Holds a reference to a HumiditySensor instance.">
<polygon fill="white" stroke="#666666" points="159.75,-85.75 96.5,-85.75 96.5,-66.5 159.75,-66.5 159.75,-85.75"/>
<text text-anchor="middle" x="128.12" y="-72.25" font-family="Helvetica,sans-Serif" font-size="10.00">Humidistat</text>
</a>
</g>
</g>
<!-- Node2&#45;&gt;Node1 -->
<g id="edge1_Node000001_Node000002" class="edge">
<title>Node2&#45;&gt;Node1</title>
<g id="a_edge1_Node000001_Node000002"><a xlink:title=" ">
<path fill="none" stroke="#63b8ff" d="M115.4,-56.88C106.87,-44.66 96.02,-29.11 89.33,-19.52"/>
<polygon fill="#63b8ff" stroke="#63b8ff" points="112.41,-58.72 121,-64.92 118.15,-54.71 112.41,-58.72"/>
</a>
</g>
</g>
<!-- Node3 -->
<g id="Node000003" class="node">
<title>Node3</title>
<g id="a_Node000003"><a xlink:href="classController.html" target="_top" xlink:title="Base class for a controller. Owns a PID instance, and holds a reference to a ConfigStore instance.">
<polygon fill="white" stroke="#666666" points="152.75,-152.25 95.5,-152.25 95.5,-133 152.75,-133 152.75,-152.25"/>
<text text-anchor="middle" x="124.12" y="-138.75" font-family="Helvetica,sans-Serif" font-size="10.00">Controller</text>
</a>
</g>
</g>
<!-- Node3&#45;&gt;Node2 -->
<g id="edge2_Node000002_Node000003" class="edge">
<title>Node3&#45;&gt;Node2</title>
<g id="a_edge2_Node000002_Node000003"><a xlink:title=" ">
<path fill="none" stroke="#63b8ff" d="M125.37,-121.52C126.11,-109.62 127.01,-95.13 127.57,-86.02"/>
<polygon fill="#63b8ff" stroke="#63b8ff" points="121.9,-120.95 124.77,-131.15 128.89,-121.38 121.9,-120.95"/>
</a>
</g>
</g>
<!-- Node6 -->
<g id="Node000006" class="node">
<title>Node6</title>
<g id="a_Node000006"><a xlink:href="classFlowController.html" target="_top" xlink:title="Controls flow. Holds a reference to a FlowSensor instance.">
<polygon fill="white" stroke="#666666" points="78.25,-85.75 0,-85.75 0,-66.5 78.25,-66.5 78.25,-85.75"/>
<text text-anchor="middle" x="39.12" y="-72.25" font-family="Helvetica,sans-Serif" font-size="10.00">FlowController</text>
</a>
</g>
</g>
<!-- Node3&#45;&gt;Node6 -->
<g id="edge6_Node000006_Node000003" class="edge">
<title>Node3&#45;&gt;Node6</title>
<g id="a_edge6_Node000006_Node000003"><a xlink:title=" ">
<path fill="none" stroke="#63b8ff" d="M103.45,-125.93C87.05,-113.49 64.69,-96.53 51.12,-86.23"/>
<polygon fill="#63b8ff" stroke="#63b8ff" points="101.02,-128.48 111.1,-131.74 105.25,-122.91 101.02,-128.48"/>
</a>
</g>
</g>
<!-- Node4 -->
<g id="Node000004" class="node">
<title>Node4</title>
<g id="a_Node000004"><a xlink:href="classPID.html" target="_top" xlink:title="PID controller in parallel form implemented in floating&#45;point arithmetic. Features Derivative&#45;on&#45;Meas...">
<polygon fill="white" stroke="#666666" points="106.38,-218.75 73.88,-218.75 73.88,-199.5 106.38,-199.5 106.38,-218.75"/>
<text text-anchor="middle" x="90.12" y="-205.25" font-family="Helvetica,sans-Serif" font-size="10.00">PID</text>
</a>
</g>
</g>
<!-- Node4&#45;&gt;Node3 -->
<g id="edge3_Node000003_Node000004" class="edge">
<title>Node4&#45;&gt;Node3</title>
<g id="a_edge3_Node000003_Node000004"><a xlink:title=" ">
<path fill="none" stroke="#9a32cd" stroke-dasharray="5,2" d="M100.13,-189.14C106.51,-177.04 114.48,-161.92 119.44,-152.52"/>
<polygon fill="#9a32cd" stroke="#9a32cd" points="97.13,-187.34 95.56,-197.82 103.32,-190.6 97.13,-187.34"/>
</a>
</g>
<text text-anchor="middle" x="116.62" y="-172" font-family="Helvetica,sans-Serif" font-size="10.00" fill="grey"> pid</text>
</g>
<!-- Node5 -->
<g id="Node000005" class="node">
<title>Node5</title>
<g id="a_Node000005"><a xlink:href="structConfigStore.html" target="_top" xlink:title="Config store containing variables, which can be stored in EEPROM.">
<polygon fill="white" stroke="#666666" points="190.25,-218.75 124,-218.75 124,-199.5 190.25,-199.5 190.25,-218.75"/>
<text text-anchor="middle" x="157.12" y="-205.25" font-family="Helvetica,sans-Serif" font-size="10.00">ConfigStore</text>
</a>
</g>
</g>
<!-- Node5&#45;&gt;Node3 -->
<g id="edge4_Node000003_Node000005" class="edge">
<title>Node5&#45;&gt;Node3</title>
<g id="a_edge4_Node000003_Node000005"><a xlink:title=" ">
<path fill="none" stroke="#9a32cd" stroke-dasharray="5,2" d="M147.41,-189.14C141.22,-177.04 133.49,-161.92 128.67,-152.52"/>
<polygon fill="#9a32cd" stroke="#9a32cd" points="144.18,-190.5 151.85,-197.81 150.41,-187.31 144.18,-190.5"/>
</a>
</g>
<text text-anchor="middle" x="148.5" y="-172" font-family="Helvetica,sans-Serif" font-size="10.00" fill="grey"> cs</text>
</g>
<!-- Node6&#45;&gt;Node1 -->
<g id="edge5_Node000001_Node000006" class="edge">
<title>Node6&#45;&gt;Node1</title>
<g id="a_edge5_Node000001_Node000006"><a xlink:title=" ">
<path fill="none" stroke="#9a32cd" stroke-dasharray="5,2" d="M51.57,-56.88C59.91,-44.66 70.51,-29.11 77.06,-19.52"/>
<polygon fill="#9a32cd" stroke="#9a32cd" points="48.84,-54.67 46.1,-64.91 54.62,-58.62 48.84,-54.67"/>
</a>
</g>
<text text-anchor="middle" x="72" y="-39" font-family="Helvetica,sans-Serif" font-size="10.00" fill="grey"> fcs</text>
</g>
<!-- Node7 -->
<g id="Node000007" class="node">
<title>Node7</title>
<g id="a_Node000007"><a xlink:href="classFlowSensor.html" target="_top" xlink:title="Read flow rate using a Omron D6F&#45;P0010 MEMS flow sensor.">
<polygon fill="white" stroke="#666666" points="73,-152.25 5.25,-152.25 5.25,-133 73,-133 73,-152.25"/>
<text text-anchor="middle" x="39.12" y="-138.75" font-family="Helvetica,sans-Serif" font-size="10.00">FlowSensor</text>
</a>
</g>
</g>
<!-- Node7&#45;&gt;Node6 -->
<g id="edge7_Node000006_Node000007" class="edge">
<title>Node7&#45;&gt;Node6</title>
<g id="a_edge7_Node000006_Node000007"><a xlink:title=" ">
<path fill="none" stroke="#9a32cd" stroke-dasharray="5,2" d="M39.12,-121.15C39.12,-109.32 39.12,-95.04 39.12,-86.02"/>
<polygon fill="#9a32cd" stroke="#9a32cd" points="35.63,-121.14 39.13,-131.14 42.63,-121.14 35.63,-121.14"/>
</a>
</g>
<text text-anchor="middle" x="44.38" y="-105.5" font-family="Helvetica,sans-Serif" font-size="10.00" fill="grey"> fs</text>
</g>
</g>
</svg>
