<?xml version="1.0" encoding="UTF-8" standalone="no"?>
<!DOCTYPE svg PUBLIC "-//W3C//DTD SVG 1.1//EN"
 "http://www.w3.org/Graphics/SVG/1.1/DTD/svg11.dtd">
<!-- Generated by graphviz version 12.0.0 (20240704.0754)
 -->
<!-- Title: GraphicalDisplayUI&lt; Humidistat_t &gt; Pages: 1 -->
<svg width="352pt" height="313pt"
 viewBox="0.00 0.00 352.38 312.50" xmlns="http://www.w3.org/2000/svg" xmlns:xlink="http://www.w3.org/1999/xlink">
<g id="graph0" class="graph" transform="scale(1 1) rotate(0) translate(4 308.5)">
<title>GraphicalDisplayUI&lt; Humidistat_t &gt;</title>
<!-- Node1 -->
<g id="Node000001" class="node">
<title>Node1</title>
<g id="a_Node000001"><a xlink:title="TUI for 128*64 px graphical display using U8g2. Holds references to a U8g2lib instance for writing to...">
<polygon fill="#999999" stroke="#666666" points="199.25,-30.5 100,-30.5 100,0 199.25,0 199.25,-30.5"/>
<text text-anchor="start" x="108" y="-17" font-family="Helvetica,sans-Serif" font-size="10.00">GraphicalDisplayUI</text>
<text text-anchor="middle" x="149.62" y="-5.75" font-family="Helvetica,sans-Serif" font-size="10.00">&lt; Humidistat_t &gt;</text>
</a>
</g>
</g>
<!-- Node2 -->
<g id="Node000002" class="node">
<title>Node2</title>
<g id="a_Node000002"><a xlink:href="classControllerUI.html" target="_top" xlink:title="User interface (display and input) for humidistat. Hold references to ButtonReader for keypad input,...">
<polygon fill="white" stroke="#666666" points="82.5,-97 14.75,-97 14.75,-77.75 82.5,-77.75 82.5,-97"/>
<text text-anchor="middle" x="48.62" y="-83.5" font-family="Helvetica,sans-Serif" font-size="10.00">ControllerUI</text>
</a>
</g>
</g>
<!-- Node2&#45;&gt;Node1 -->
<g id="edge1_Node000001_Node000002" class="edge">
<title>Node2&#45;&gt;Node1</title>
<g id="a_edge1_Node000001_Node000002"><a xlink:title=" ">
<path fill="none" stroke="#63b8ff" d="M70.68,-71.06C87.86,-59.13 111.56,-42.68 128.5,-30.92"/>
<polygon fill="#63b8ff" stroke="#63b8ff" points="68.88,-68.05 62.66,-76.63 72.87,-73.8 68.88,-68.05"/>
</a>
</g>
</g>
<!-- Node3 -->
<g id="Node000003" class="node">
<title>Node3</title>
<g id="a_Node000003"><a xlink:href="classButtonReader.html" target="_top" xlink:title="Read button state from a voltage ladder&#45;style keypad.">
<polygon fill="white" stroke="#666666" points="75.25,-163.5 0,-163.5 0,-144.25 75.25,-144.25 75.25,-163.5"/>
<text text-anchor="middle" x="37.62" y="-150" font-family="Helvetica,sans-Serif" font-size="10.00">ButtonReader</text>
</a>
</g>
</g>
<!-- Node3&#45;&gt;Node2 -->
<g id="edge2_Node000002_Node000003" class="edge">
<title>Node3&#45;&gt;Node2</title>
<g id="a_edge2_Node000002_Node000003"><a xlink:title=" ">
<path fill="none" stroke="#9a32cd" stroke-dasharray="5,2" d="M36.92,-132.44C37.06,-126.75 37.53,-120.6 38.62,-115 39.84,-108.8 42.34,-102.14 44.53,-97.04"/>
<polygon fill="#9a32cd" stroke="#9a32cd" points="33.42,-132.27 37.01,-142.24 40.42,-132.21 33.42,-132.27"/>
</a>
</g>
<text text-anchor="middle" x="68.62" y="-116.75" font-family="Helvetica,sans-Serif" font-size="10.00" fill="grey"> buttonReader</text>
</g>
<!-- Node4 -->
<g id="Node000004" class="node">
<title>Node4</title>
<g id="a_Node000004"><a xlink:href="classEEPROMConfig.html" target="_top" xlink:title="Load/save an (internal) ConfigStore in EEPROM.">
<polygon fill="white" stroke="#666666" points="162.75,-200.75 78.5,-200.75 78.5,-181.5 162.75,-181.5 162.75,-200.75"/>
<text text-anchor="middle" x="120.62" y="-187.25" font-family="Helvetica,sans-Serif" font-size="10.00">EEPROMConfig</text>
</a>
</g>
</g>
<!-- Node4&#45;&gt;Node1 -->
<g id="edge3_Node000001_Node000004" class="edge">
<title>Node4&#45;&gt;Node1</title>
<g id="a_edge3_Node000001_Node000004"><a xlink:title=" ">
<path fill="none" stroke="#9a32cd" stroke-dasharray="5,2" d="M123.97,-170.07C129.87,-134.7 141.99,-62.05 147.18,-30.93"/>
<polygon fill="#9a32cd" stroke="#9a32cd" points="120.54,-169.33 122.35,-179.77 127.45,-170.48 120.54,-169.33"/>
</a>
</g>
<text text-anchor="middle" x="163.38" y="-116.75" font-family="Helvetica,sans-Serif" font-size="10.00" fill="grey"> eepromConfig</text>
</g>
<!-- Node5 -->
<g id="Node000005" class="node">
<title>Node5</title>
<g id="a_Node000005"><a xlink:href="structConfigStore.html" target="_top" xlink:title="Config store containing variables, which can be stored in EEPROM.">
<polygon fill="white" stroke="#666666" points="175.75,-304.5 109.5,-304.5 109.5,-285.25 175.75,-285.25 175.75,-304.5"/>
<text text-anchor="middle" x="142.62" y="-291" font-family="Helvetica,sans-Serif" font-size="10.00">ConfigStore</text>
</a>
</g>
</g>
<!-- Node5&#45;&gt;Node4 -->
<g id="edge4_Node000004_Node000005" class="edge">
<title>Node5&#45;&gt;Node4</title>
<g id="a_edge4_Node000004_Node000005"><a xlink:title=" ">
<path fill="none" stroke="#9a32cd" stroke-dasharray="5,2" d="M123.11,-276.59C120.88,-273.7 118.94,-270.56 117.62,-267.25 108.69,-244.68 114.32,-215.25 118.07,-200.84"/>
<polygon fill="#9a32cd" stroke="#9a32cd" points="120.39,-278.8 129.77,-283.73 125.5,-274.03 120.39,-278.8"/>
</a>
</g>
<text text-anchor="middle" x="143.12" y="-257.75" font-family="Helvetica,sans-Serif" font-size="10.00" fill="grey"> configStore</text>
</g>
<!-- Node8 -->
<g id="Node000008" class="node">
<title>Node8</title>
<g id="a_Node000008"><a xlink:href="classController.html" target="_top" xlink:title="Base class for a controller. Owns a PID instance, and holds a reference to a ConfigStore instance.">
<polygon fill="white" stroke="#666666" points="234.25,-238 177,-238 177,-218.75 234.25,-218.75 234.25,-238"/>
<text text-anchor="middle" x="205.62" y="-224.5" font-family="Helvetica,sans-Serif" font-size="10.00">Controller</text>
</a>
</g>
</g>
<!-- Node5&#45;&gt;Node8 -->
<g id="edge9_Node000008_Node000005" class="edge">
<title>Node5&#45;&gt;Node8</title>
<g id="a_edge9_Node000008_Node000005"><a xlink:title=" ">
<path fill="none" stroke="#9a32cd" stroke-dasharray="5,2" d="M162.04,-277.3C165.63,-274.05 169.3,-270.6 172.62,-267.25 181.96,-257.83 191.84,-246.25 198.33,-238.39"/>
<polygon fill="#9a32cd" stroke="#9a32cd" points="159.81,-274.6 154.62,-283.83 164.44,-279.85 159.81,-274.6"/>
</a>
</g>
<text text-anchor="middle" x="189" y="-257.75" font-family="Helvetica,sans-Serif" font-size="10.00" fill="grey"> cs</text>
</g>
<!-- Node6 -->
<g id="Node000006" class="node">
<title>Node6</title>
<g id="a_Node000006"><a xlink:href="classSetpointProfileRunner.html" target="_top" xlink:title="&#39;Runs&#39; a setpoint profile.">
<polygon fill="white" stroke="#666666" points="258.5,-97 148.75,-97 148.75,-77.75 258.5,-77.75 258.5,-97"/>
<text text-anchor="middle" x="203.62" y="-83.5" font-family="Helvetica,sans-Serif" font-size="10.00">SetpointProfileRunner</text>
</a>
</g>
</g>
<!-- Node6&#45;&gt;Node1 -->
<g id="edge5_Node000001_Node000006" class="edge">
<title>Node6&#45;&gt;Node1</title>
<g id="a_edge5_Node000001_Node000006"><a xlink:title=" ">
<path fill="none" stroke="#9a32cd" stroke-dasharray="5,2" d="M189.99,-68.67C181.01,-57 169.38,-41.91 160.92,-30.92"/>
<polygon fill="#9a32cd" stroke="#9a32cd" points="186.99,-70.51 195.86,-76.29 192.53,-66.24 186.99,-70.51"/>
</a>
</g>
<text text-anchor="middle" x="190.5" y="-50.25" font-family="Helvetica,sans-Serif" font-size="10.00" fill="grey"> spr</text>
</g>
<!-- Node7 -->
<g id="Node000007" class="node">
<title>Node7</title>
<g id="a_Node000007"><a xlink:href="classHumidistat.html" target="_top" xlink:title="Base class for a humidistat. Holds a reference to a HumiditySensor instance.">
<polygon fill="white" stroke="#666666" points="237.25,-163.5 174,-163.5 174,-144.25 237.25,-144.25 237.25,-163.5"/>
<text text-anchor="middle" x="205.62" y="-150" font-family="Helvetica,sans-Serif" font-size="10.00">Humidistat</text>
</a>
</g>
</g>
<!-- Node7&#45;&gt;Node6 -->
<g id="edge6_Node000006_Node000007" class="edge">
<title>Node7&#45;&gt;Node6</title>
<g id="a_edge6_Node000006_Node000007"><a xlink:title=" ">
<path fill="none" stroke="#9a32cd" stroke-dasharray="5,2" d="M205,-132.77C204.63,-120.87 204.18,-106.38 203.9,-97.27"/>
<polygon fill="#9a32cd" stroke="#9a32cd" points="201.49,-132.51 205.3,-142.39 208.49,-132.29 201.49,-132.51"/>
</a>
</g>
<text text-anchor="middle" x="228.25" y="-116.75" font-family="Helvetica,sans-Serif" font-size="10.00" fill="grey"> humidistat</text>
</g>
<!-- Node8&#45;&gt;Node7 -->
<g id="edge7_Node000007_Node000008" class="edge">
<title>Node8&#45;&gt;Node7</title>
<g id="a_edge7_Node000007_Node000008"><a xlink:title=" ">
<path fill="none" stroke="#63b8ff" d="M205.62,-207.35C205.62,-193.1 205.62,-174.63 205.62,-163.84"/>
<polygon fill="#63b8ff" stroke="#63b8ff" points="202.13,-206.97 205.63,-216.97 209.13,-206.97 202.13,-206.97"/>
</a>
</g>
</g>
<!-- Node9 -->
<g id="Node000009" class="node">
<title>Node9</title>
<g id="a_Node000009"><a xlink:href="classPID.html" target="_top" xlink:title="PID controller in parallel form implemented in floating&#45;point arithmetic. Features Derivative&#45;on&#45;Meas...">
<polygon fill="white" stroke="#666666" points="246.88,-304.5 214.38,-304.5 214.38,-285.25 246.88,-285.25 246.88,-304.5"/>
<text text-anchor="middle" x="230.62" y="-291" font-family="Helvetica,sans-Serif" font-size="10.00">PID</text>
</a>
</g>
</g>
<!-- Node9&#45;&gt;Node8 -->
<g id="edge8_Node000008_Node000009" class="edge">
<title>Node9&#45;&gt;Node8</title>
<g id="a_edge8_Node000008_Node000009"><a xlink:title=" ">
<path fill="none" stroke="#9a32cd" stroke-dasharray="5,2" d="M223.12,-274.52C218.46,-262.48 212.68,-247.58 209.07,-238.27"/>
<polygon fill="#9a32cd" stroke="#9a32cd" points="219.72,-275.44 226.6,-283.5 226.25,-272.91 219.72,-275.44"/>
</a>
</g>
<text text-anchor="middle" x="226.12" y="-257.75" font-family="Helvetica,sans-Serif" font-size="10.00" fill="grey"> pid</text>
</g>
<!-- Node10 -->
<g id="Node000010" class="node">
<title>Node10</title>
<g id="a_Node000010"><a xlink:href="classConfigPar.html" target="_top" xlink:title="A class for storing references to variables of various types (uint8_t, uint16_t, or double).">
<polygon fill="white" stroke="#666666" points="334.62,-97 276.62,-97 276.62,-77.75 334.62,-77.75 334.62,-97"/>
<text text-anchor="middle" x="305.62" y="-83.5" font-family="Helvetica,sans-Serif" font-size="10.00">ConfigPar</text>
</a>
</g>
</g>
<!-- Node10&#45;&gt;Node1 -->
<g id="edge10_Node000001_Node000010" class="edge">
<title>Node10&#45;&gt;Node1</title>
<g id="a_edge10_Node000001_Node000010"><a xlink:title=" ">
<path fill="none" stroke="#9a32cd" stroke-dasharray="5,2" d="M275.26,-72.73C248.57,-60.73 209.8,-43.3 182.4,-30.98"/>
<polygon fill="#9a32cd" stroke="#9a32cd" points="273.61,-75.82 284.17,-76.73 276.48,-69.44 273.61,-75.82"/>
</a>
</g>
<text text-anchor="middle" x="269.62" y="-50.25" font-family="Helvetica,sans-Serif" font-size="10.00" fill="grey"> configPars</text>
</g>
<!-- Node11 -->
<g id="Node000011" class="node">
<title>Node11</title>
<g id="a_Node000011"><a xlink:href="structConfigPar_1_1Var.html" target="_top" xlink:title=" ">
<polygon fill="white" stroke="#666666" points="344.38,-163.5 266.88,-163.5 266.88,-144.25 344.38,-144.25 344.38,-163.5"/>
<text text-anchor="middle" x="305.62" y="-150" font-family="Helvetica,sans-Serif" font-size="10.00">ConfigPar::Var</text>
</a>
</g>
</g>
<!-- Node11&#45;&gt;Node10 -->
<g id="edge11_Node000010_Node000011" class="edge">
<title>Node11&#45;&gt;Node10</title>
<g id="a_edge11_Node000010_Node000011"><a xlink:title=" ">
<path fill="none" stroke="#9a32cd" stroke-dasharray="5,2" d="M305.62,-132.4C305.62,-120.57 305.62,-106.29 305.62,-97.27"/>
<polygon fill="#9a32cd" stroke="#9a32cd" points="302.13,-132.39 305.63,-142.39 309.13,-132.39 302.13,-132.39"/>
</a>
</g>
<text text-anchor="middle" x="313.5" y="-116.75" font-family="Helvetica,sans-Serif" font-size="10.00" fill="grey"> var</text>
</g>
</g>
</svg>
