<?xml version="1.0" encoding="UTF-8" standalone="no"?>
<!DOCTYPE svg PUBLIC "-//W3C//DTD SVG 1.1//EN"
 "http://www.w3.org/Graphics/SVG/1.1/DTD/svg11.dtd">
<!-- Generated by graphviz version 12.0.0 (20240704.0754)
 -->
<!-- Title: CascadeHumidistat::updatePIDParameters Pages: 1 -->
<svg width="533pt" height="52pt"
 viewBox="0.00 0.00 532.50 51.88" xmlns="http://www.w3.org/2000/svg" xmlns:xlink="http://www.w3.org/1999/xlink">
<g id="graph0" class="graph" transform="scale(1 1) rotate(0) translate(4 47.88)">
<title>CascadeHumidistat::updatePIDParameters</title>
<!-- Node1 -->
<g id="Node000001" class="node">
<title>Node1</title>
<g id="a_Node000001"><a xlink:title=" ">
<polygon fill="#999999" stroke="#666666" points="112,-43.88 0,-43.88 0,-13.37 112,-13.37 112,-43.88"/>
<text text-anchor="start" x="8" y="-30.38" font-family="Helvetica,sans-Serif" font-size="10.00">CascadeHumidistat::</text>
<text text-anchor="middle" x="56" y="-19.12" font-family="Helvetica,sans-Serif" font-size="10.00">updatePIDParameters</text>
</a>
</g>
</g>
<!-- Node2 -->
<g id="Node000002" class="node">
<title>Node2</title>
<g id="a_Node000002"><a xlink:href="classPID.html#ae3f4eed49d68435cc1b77e137ac31920" target="_top" xlink:title="Set the gains and timestep.">
<polygon fill="white" stroke="#666666" points="438.75,-38.25 362.75,-38.25 362.75,-19 438.75,-19 438.75,-38.25"/>
<text text-anchor="middle" x="400.75" y="-24.75" font-family="Helvetica,sans-Serif" font-size="10.00">PID::setGains</text>
</a>
</g>
</g>
<!-- Node1&#45;&gt;Node2 -->
<g id="edge1_Node000001_Node000002" class="edge">
<title>Node1&#45;&gt;Node2</title>
<g id="a_edge1_Node000001_Node000002"><a xlink:title=" ">
<path fill="none" stroke="#63b8ff" d="M112.45,-28.62C178.62,-28.62 288.21,-28.62 351.18,-28.62"/>
<polygon fill="#63b8ff" stroke="#63b8ff" points="350.86,-32.13 360.86,-28.63 350.86,-25.13 350.86,-32.13"/>
</a>
</g>
</g>
<!-- Node4 -->
<g id="Node000004" class="node">
<title>Node4</title>
<g id="a_Node000004"><a xlink:href="classFlowController.html#a20a5cb870095042fc47e60866675bc07" target="_top" xlink:title=" ">
<polygon fill="white" stroke="#666666" points="326.75,-19.25 148,-19.25 148,0 326.75,0 326.75,-19.25"/>
<text text-anchor="middle" x="237.38" y="-5.75" font-family="Helvetica,sans-Serif" font-size="10.00">FlowController::updatePIDParameters</text>
</a>
</g>
</g>
<!-- Node1&#45;&gt;Node4 -->
<g id="edge3_Node000001_Node000004" class="edge">
<title>Node1&#45;&gt;Node4</title>
<g id="a_edge3_Node000001_Node000004"><a xlink:title=" ">
<path fill="none" stroke="#63b8ff" d="M112.28,-22.77C120,-21.95 128.11,-21.09 136.34,-20.22"/>
<polygon fill="#63b8ff" stroke="#63b8ff" points="136.53,-23.72 146.11,-19.19 135.8,-16.76 136.53,-23.72"/>
</a>
</g>
</g>
<!-- Node3 -->
<g id="Node000003" class="node">
<title>Node3</title>
<g id="a_Node000003"><a xlink:href="classPID.html#a0ccd3a3e6e64a2560077ea76bf71e417" target="_top" xlink:title="Method to be called when the controller goes from manual to auto mode for proper bumpless transfer.">
<polygon fill="white" stroke="#666666" points="524.5,-38.25 474.75,-38.25 474.75,-19 524.5,-19 524.5,-38.25"/>
<text text-anchor="middle" x="499.62" y="-24.75" font-family="Helvetica,sans-Serif" font-size="10.00">PID::init</text>
</a>
</g>
</g>
<!-- Node2&#45;&gt;Node3 -->
<g id="edge2_Node000002_Node000003" class="edge">
<title>Node2&#45;&gt;Node3</title>
<g id="a_edge2_Node000002_Node000003"><a xlink:title=" ">
<path fill="none" stroke="#63b8ff" d="M439.2,-28.62C447.05,-28.62 455.31,-28.62 463.09,-28.62"/>
<polygon fill="#63b8ff" stroke="#63b8ff" points="462.89,-32.13 472.89,-28.63 462.89,-25.13 462.89,-32.13"/>
</a>
</g>
</g>
<!-- Node4&#45;&gt;Node2 -->
<g id="edge4_Node000004_Node000002" class="edge">
<title>Node4&#45;&gt;Node2</title>
<g id="a_edge4_Node000004_Node000002"><a xlink:title=" ">
<path fill="none" stroke="#63b8ff" d="M324.26,-19.74C333.47,-20.82 342.59,-21.9 351.14,-22.9"/>
<polygon fill="#63b8ff" stroke="#63b8ff" points="350.55,-26.36 360.89,-24.05 351.37,-19.4 350.55,-26.36"/>
</a>
</g>
</g>
</g>
</svg>
