<?xml version="1.0" encoding="UTF-8" standalone="no"?>
<!DOCTYPE svg PUBLIC "-//W3C//DTD SVG 1.1//EN"
 "http://www.w3.org/Graphics/SVG/1.1/DTD/svg11.dtd">
<!-- Generated by graphviz version 12.0.0 (20240704.0754)
 -->
<!-- Title: EEPROMConfig::EEPROMConfig Pages: 1 -->
<svg width="454pt" height="64pt"
 viewBox="0.00 0.00 454.25 64.25" xmlns="http://www.w3.org/2000/svg" xmlns:xlink="http://www.w3.org/1999/xlink">
<g id="graph0" class="graph" transform="scale(1 1) rotate(0) translate(4 60.25)">
<title>EEPROMConfig::EEPROMConfig</title>
<!-- Node1 -->
<g id="Node000001" class="node">
<title>Node1</title>
<g id="a_Node000001"><a xlink:title="Constructor.">
<polygon fill="#999999" stroke="#666666" points="157,-37.25 0,-37.25 0,-18 157,-18 157,-37.25"/>
<text text-anchor="middle" x="78.5" y="-23.75" font-family="Helvetica,sans-Serif" font-size="10.00">EEPROMConfig::EEPROMConfig</text>
</a>
</g>
</g>
<!-- Node2 -->
<g id="Node000002" class="node">
<title>Node2</title>
<g id="a_Node000002"><a xlink:href="classEEPROMConfig.html#a88ca7504a4c1d8ed44e3c37ed2764ba3" target="_top" xlink:title="Load config values from EEPROM into configStore.">
<polygon fill="white" stroke="#666666" points="299.75,-37.25 193,-37.25 193,-18 299.75,-18 299.75,-37.25"/>
<text text-anchor="middle" x="246.38" y="-23.75" font-family="Helvetica,sans-Serif" font-size="10.00">EEPROMConfig::load</text>
</a>
</g>
</g>
<!-- Node1&#45;&gt;Node2 -->
<g id="edge1_Node000001_Node000002" class="edge">
<title>Node1&#45;&gt;Node2</title>
<g id="a_edge1_Node000001_Node000002"><a xlink:title=" ">
<path fill="none" stroke="#63b8ff" d="M157.1,-27.62C165.25,-27.62 173.48,-27.62 181.46,-27.62"/>
<polygon fill="#63b8ff" stroke="#63b8ff" points="181.42,-31.13 191.42,-27.63 181.42,-24.13 181.42,-31.13"/>
</a>
</g>
</g>
<!-- Node3 -->
<g id="Node000003" class="node">
<title>Node3</title>
<g id="a_Node000003"><a xlink:href="classEEPROMConfig.html#a389d1170c790427a9d5fb6643c340b21" target="_top" xlink:title="Reset the config store: overwrite the configStore with the default values.">
<polygon fill="white" stroke="#666666" points="446.25,-56.25 335.75,-56.25 335.75,-37 446.25,-37 446.25,-56.25"/>
<text text-anchor="middle" x="391" y="-42.75" font-family="Helvetica,sans-Serif" font-size="10.00">EEPROMConfig::reset</text>
</a>
</g>
</g>
<!-- Node2&#45;&gt;Node3 -->
<g id="edge2_Node000002_Node000003" class="edge">
<title>Node2&#45;&gt;Node3</title>
<g id="a_edge2_Node000002_Node000003"><a xlink:title=" ">
<path fill="none" stroke="#63b8ff" d="M300.08,-34.65C307.95,-35.69 316.15,-36.79 324.26,-37.87"/>
<polygon fill="#63b8ff" stroke="#63b8ff" points="323.73,-41.33 334.1,-39.18 324.65,-34.39 323.73,-41.33"/>
</a>
</g>
</g>
<!-- Node4 -->
<g id="Node000004" class="node">
<title>Node4</title>
<g id="a_Node000004"><a xlink:href="classEEPROMConfig.html#a3ccccd29dcfe0a56152c2d9382fa2f0d" target="_top" xlink:title="Saves current content of configStore into EEPROM.">
<polygon fill="white" stroke="#666666" points="445.88,-19.25 336.12,-19.25 336.12,0 445.88,0 445.88,-19.25"/>
<text text-anchor="middle" x="391" y="-5.75" font-family="Helvetica,sans-Serif" font-size="10.00">EEPROMConfig::save</text>
</a>
</g>
</g>
<!-- Node2&#45;&gt;Node4 -->
<g id="edge3_Node000002_Node000004" class="edge">
<title>Node2&#45;&gt;Node4</title>
<g id="a_edge3_Node000002_Node000004"><a xlink:title=" ">
<path fill="none" stroke="#63b8ff" d="M300.08,-20.97C308.15,-19.95 316.57,-18.89 324.87,-17.84"/>
<polygon fill="#63b8ff" stroke="#63b8ff" points="325.1,-21.34 334.58,-16.62 324.22,-14.4 325.1,-21.34"/>
</a>
</g>
</g>
</g>
</svg>
