<?xml version="1.0" encoding="UTF-8" standalone="no"?>
<!DOCTYPE svg PUBLIC "-//W3C//DTD SVG 1.1//EN"
 "http://www.w3.org/Graphics/SVG/1.1/DTD/svg11.dtd">
<!-- Generated by graphviz version 12.0.0 (20240704.0754)
 -->
<!-- Title: SetpointProfileRunner::toggle Pages: 1 -->
<svg width="388pt" height="39pt"
 viewBox="0.00 0.00 388.25 38.50" xmlns="http://www.w3.org/2000/svg" xmlns:xlink="http://www.w3.org/1999/xlink">
<g id="graph0" class="graph" transform="scale(1 1) rotate(0) translate(4 34.5)">
<title>SetpointProfileRunner::toggle</title>
<!-- Node1 -->
<g id="Node000001" class="node">
<title>Node1</title>
<g id="a_Node000001"><a xlink:title="Toggle the run state.">
<polygon fill="#999999" stroke="#666666" points="380.25,-30.5 270.5,-30.5 270.5,0 380.25,0 380.25,-30.5"/>
<text text-anchor="start" x="278.5" y="-17" font-family="Helvetica,sans-Serif" font-size="10.00">SetpointProfileRunner</text>
<text text-anchor="middle" x="325.38" y="-5.75" font-family="Helvetica,sans-Serif" font-size="10.00">::toggle</text>
</a>
</g>
</g>
<!-- Node2 -->
<g id="Node000002" class="node">
<title>Node2</title>
<g id="a_Node000002"><a xlink:href="classGraphicalDisplayUI.html#a948cf32243a585b1a88c0989efd9d474" target="_top" xlink:title="Handle input on the Main tab.">
<polygon fill="white" stroke="#666666" points="234.5,-30.5 135.25,-30.5 135.25,0 234.5,0 234.5,-30.5"/>
<text text-anchor="start" x="143.25" y="-17" font-family="Helvetica,sans-Serif" font-size="10.00">GraphicalDisplayUI</text>
<text text-anchor="middle" x="184.88" y="-5.75" font-family="Helvetica,sans-Serif" font-size="10.00">::handleInputMain</text>
</a>
</g>
</g>
<!-- Node1&#45;&gt;Node2 -->
<g id="edge1_Node000001_Node000002" class="edge">
<title>Node1&#45;&gt;Node2</title>
<g id="a_edge1_Node000001_Node000002"><a xlink:title=" ">
<path fill="none" stroke="#63b8ff" d="M258.68,-15.25C250.59,-15.25 242.43,-15.25 234.65,-15.25"/>
<polygon fill="#63b8ff" stroke="#63b8ff" points="258.52,-18.75 268.52,-15.25 258.52,-11.75 258.52,-18.75"/>
</a>
</g>
</g>
<!-- Node3 -->
<g id="Node000003" class="node">
<title>Node3</title>
<g id="a_Node000003"><a xlink:href="classGraphicalDisplayUI.html#a3e340b5f072ed6a4251069f4a408e4b0" target="_top" xlink:title="Handle input.">
<polygon fill="white" stroke="#666666" points="99.25,-30.5 0,-30.5 0,0 99.25,0 99.25,-30.5"/>
<text text-anchor="start" x="8" y="-17" font-family="Helvetica,sans-Serif" font-size="10.00">GraphicalDisplayUI</text>
<text text-anchor="middle" x="49.62" y="-5.75" font-family="Helvetica,sans-Serif" font-size="10.00">::handleInput</text>
</a>
</g>
</g>
<!-- Node2&#45;&gt;Node3 -->
<g id="edge2_Node000002_Node000003" class="edge">
<title>Node2&#45;&gt;Node3</title>
<g id="a_edge2_Node000002_Node000003"><a xlink:title=" ">
<path fill="none" stroke="#63b8ff" d="M123.69,-15.25C115.59,-15.25 107.36,-15.25 99.48,-15.25"/>
<polygon fill="#63b8ff" stroke="#63b8ff" points="123.5,-18.75 133.5,-15.25 123.5,-11.75 123.5,-18.75"/>
</a>
</g>
</g>
</g>
</svg>
