<?xml version="1.0" encoding="UTF-8" standalone="no"?>
<!DOCTYPE svg PUBLIC "-//W3C//DTD SVG 1.1//EN"
 "http://www.w3.org/Graphics/SVG/1.1/DTD/svg11.dtd">
<!-- Generated by graphviz version 12.0.0 (20240704.0754)
 -->
<!-- Title: ControllerUI::printf Pages: 1 -->
<svg width="533pt" height="158pt"
 viewBox="0.00 0.00 533.25 157.54" xmlns="http://www.w3.org/2000/svg" xmlns:xlink="http://www.w3.org/1999/xlink">
<g id="graph0" class="graph" transform="scale(1 1) rotate(0) translate(4 153.54)">
<title>ControllerUI::printf</title>
<!-- Node1 -->
<g id="Node000001" class="node">
<title>Node1</title>
<g id="a_Node000001"><a xlink:title="Print formatted data to display, at (col, row). Calculates lengths and creates appropriate buffer int...">
<polygon fill="#999999" stroke="#666666" points="525.25,-86.88 431.25,-86.88 431.25,-67.62 525.25,-67.62 525.25,-86.88"/>
<text text-anchor="middle" x="478.25" y="-73.38" font-family="Helvetica,sans-Serif" font-size="10.00">ControllerUI::printf</text>
</a>
</g>
</g>
<!-- Node2 -->
<g id="Node000002" class="node">
<title>Node2</title>
<g id="a_Node000002"><a xlink:href="classCharDisplayUI.html#aef739ad8856b975fdd25ffdf9fa86601" target="_top" xlink:title="Draw main interface (main loop).">
<polygon fill="white" stroke="#666666" points="239,-117.88 135.25,-117.88 135.25,-98.62 239,-98.62 239,-117.88"/>
<text text-anchor="middle" x="187.12" y="-104.38" font-family="Helvetica,sans-Serif" font-size="10.00">CharDisplayUI::draw</text>
</a>
</g>
</g>
<!-- Node1&#45;&gt;Node2 -->
<g id="edge1_Node000001_Node000002" class="edge">
<title>Node1&#45;&gt;Node2</title>
<g id="a_edge1_Node000001_Node000002"><a xlink:title=" ">
<path fill="none" stroke="#63b8ff" d="M460.42,-95.32C445.1,-110.34 420.99,-130.61 395.25,-139.25 344.58,-156.25 327.66,-148.36 275,-139.25 251.96,-135.26 226.95,-125.74 209.7,-118.29"/>
<polygon fill="#63b8ff" stroke="#63b8ff" points="462.82,-97.88 467.32,-88.29 457.82,-92.98 462.82,-97.88"/>
</a>
</g>
</g>
<!-- Node3 -->
<g id="Node000003" class="node">
<title>Node3</title>
<g id="a_Node000003"><a xlink:href="classCharDisplayUI.html#ae63b61a0868ed1e42d48567a0621a13a" target="_top" xlink:title="Draw info screen.">
<polygon fill="white" stroke="#666666" points="395.25,-129.88 275,-129.88 275,-110.62 395.25,-110.62 395.25,-129.88"/>
<text text-anchor="middle" x="335.12" y="-116.38" font-family="Helvetica,sans-Serif" font-size="10.00">CharDisplayUI::drawInfo</text>
</a>
</g>
</g>
<!-- Node1&#45;&gt;Node3 -->
<g id="edge2_Node000001_Node000003" class="edge">
<title>Node1&#45;&gt;Node3</title>
<g id="a_edge2_Node000001_Node000003"><a xlink:title=" ">
<path fill="none" stroke="#63b8ff" d="M433.36,-90.62C412.57,-96.96 388.17,-104.39 369.01,-110.23"/>
<polygon fill="#63b8ff" stroke="#63b8ff" points="434.17,-94.04 442.71,-87.77 432.13,-87.34 434.17,-94.04"/>
</a>
</g>
</g>
<!-- Node4 -->
<g id="Node000004" class="node">
<title>Node4</title>
<g id="a_Node000004"><a xlink:href="classGraphicalDisplayUI.html#af69808890fcfb2bd088ac73aa6f7563c" target="_top" xlink:title="Draw common elements in Main tab.">
<polygon fill="white" stroke="#666666" points="386.62,-92.5 283.62,-92.5 283.62,-62 386.62,-62 386.62,-92.5"/>
<text text-anchor="start" x="291.62" y="-79" font-family="Helvetica,sans-Serif" font-size="10.00">GraphicalDisplayUI</text>
<text text-anchor="middle" x="335.12" y="-67.75" font-family="Helvetica,sans-Serif" font-size="10.00">::DrawMainCommon</text>
</a>
</g>
</g>
<!-- Node1&#45;&gt;Node4 -->
<g id="edge3_Node000001_Node000004" class="edge">
<title>Node1&#45;&gt;Node4</title>
<g id="a_edge3_Node000001_Node000004"><a xlink:title=" ">
<path fill="none" stroke="#63b8ff" d="M419.85,-77.25C408.91,-77.25 397.54,-77.25 386.83,-77.25"/>
<polygon fill="#63b8ff" stroke="#63b8ff" points="419.53,-80.75 429.53,-77.25 419.53,-73.75 419.53,-80.75"/>
</a>
</g>
</g>
<!-- Node5 -->
<g id="Node000005" class="node">
<title>Node5</title>
<g id="a_Node000005"><a xlink:href="classGraphicalDisplayUI.html#a41ae47f8e4d0bd909b6d2be9765cdbc4" target="_top" xlink:title=" ">
<polygon fill="white" stroke="#666666" points="236.75,-30.5 137.5,-30.5 137.5,0 236.75,0 236.75,-30.5"/>
<text text-anchor="start" x="145.5" y="-17" font-family="Helvetica,sans-Serif" font-size="10.00">GraphicalDisplayUI</text>
<text text-anchor="middle" x="187.12" y="-5.75" font-family="Helvetica,sans-Serif" font-size="10.00">::drawTabInfo</text>
</a>
</g>
</g>
<!-- Node1&#45;&gt;Node5 -->
<g id="edge4_Node000001_Node000005" class="edge">
<title>Node1&#45;&gt;Node5</title>
<g id="a_edge4_Node000001_Node000005"><a xlink:title=" ">
<path fill="none" stroke="#63b8ff" d="M460.42,-59.18C445.1,-44.16 420.99,-23.89 395.25,-15.25 343.43,2.14 280.13,-1.12 237.25,-6.64"/>
<polygon fill="#63b8ff" stroke="#63b8ff" points="457.82,-61.52 467.32,-66.21 462.82,-56.62 457.82,-61.52"/>
</a>
</g>
</g>
<!-- Node7 -->
<g id="Node000007" class="node">
<title>Node7</title>
<g id="a_Node000007"><a xlink:href="classControllerUI.html#abfabf4c49c12dcb8ee5e8b5a899cc920" target="_top" xlink:title="Print temperature read from thermistors. Handles NaN values as 0.">
<polygon fill="white" stroke="#666666" points="390.75,-43.88 279.5,-43.88 279.5,-24.62 390.75,-24.62 390.75,-43.88"/>
<text text-anchor="middle" x="335.12" y="-30.38" font-family="Helvetica,sans-Serif" font-size="10.00">ControllerUI::printNTC</text>
</a>
</g>
</g>
<!-- Node1&#45;&gt;Node7 -->
<g id="edge6_Node000001_Node000007" class="edge">
<title>Node1&#45;&gt;Node7</title>
<g id="a_edge6_Node000001_Node000007"><a xlink:title=" ">
<path fill="none" stroke="#63b8ff" d="M433.36,-63.88C412.57,-57.54 388.17,-50.11 369.01,-44.27"/>
<polygon fill="#63b8ff" stroke="#63b8ff" points="432.13,-67.16 442.71,-66.73 434.17,-60.46 432.13,-67.16"/>
</a>
</g>
</g>
<!-- Node6 -->
<g id="Node000006" class="node">
<title>Node6</title>
<g id="a_Node000006"><a xlink:href="classGraphicalDisplayUI.html#aa73a9c30736b609bcef2b75c7aed1970" target="_top" xlink:title="Draw main interface (main loop).">
<polygon fill="white" stroke="#666666" points="99.25,-30.5 0,-30.5 0,0 99.25,0 99.25,-30.5"/>
<text text-anchor="start" x="8" y="-17" font-family="Helvetica,sans-Serif" font-size="10.00">GraphicalDisplayUI</text>
<text text-anchor="middle" x="49.62" y="-5.75" font-family="Helvetica,sans-Serif" font-size="10.00">::draw</text>
</a>
</g>
</g>
<!-- Node5&#45;&gt;Node6 -->
<g id="edge5_Node000005_Node000006" class="edge">
<title>Node5&#45;&gt;Node6</title>
<g id="a_edge5_Node000005_Node000006"><a xlink:title=" ">
<path fill="none" stroke="#63b8ff" d="M125.78,-15.25C116.98,-15.25 108.01,-15.25 99.47,-15.25"/>
<polygon fill="#63b8ff" stroke="#63b8ff" points="125.69,-18.75 135.69,-15.25 125.69,-11.75 125.69,-18.75"/>
</a>
</g>
</g>
<!-- Node7&#45;&gt;Node2 -->
<g id="edge7_Node000007_Node000002" class="edge">
<title>Node7&#45;&gt;Node2</title>
<g id="a_edge7_Node000007_Node000002"><a xlink:title=" ">
<path fill="none" stroke="#63b8ff" d="M287.37,-48.04C283.13,-49.66 278.95,-51.4 275,-53.25 247.51,-66.11 218.22,-86.15 201.64,-98.15"/>
<polygon fill="#63b8ff" stroke="#63b8ff" points="288.25,-51.44 296.5,-44.79 285.9,-44.85 288.25,-51.44"/>
</a>
</g>
</g>
<!-- Node7&#45;&gt;Node5 -->
<g id="edge8_Node000007_Node000005" class="edge">
<title>Node7&#45;&gt;Node5</title>
<g id="a_edge8_Node000007_Node000005"><a xlink:title=" ">
<path fill="none" stroke="#63b8ff" d="M268.1,-25.66C257.62,-24.29 246.95,-22.91 236.97,-21.61"/>
<polygon fill="#63b8ff" stroke="#63b8ff" points="267.48,-29.11 277.84,-26.93 268.38,-22.16 267.48,-29.11"/>
</a>
</g>
</g>
</g>
</svg>
