<?xml version="1.0" encoding="UTF-8" standalone="no"?>
<!DOCTYPE svg PUBLIC "-//W3C//DTD SVG 1.1//EN"
 "http://www.w3.org/Graphics/SVG/1.1/DTD/svg11.dtd">
<!-- Generated by graphviz version 12.0.0 (20240704.0754)
 -->
<!-- Title: FlowController::updatePIDParameters Pages: 1 -->
<svg width="385pt" height="27pt"
 viewBox="0.00 0.00 384.50 27.25" xmlns="http://www.w3.org/2000/svg" xmlns:xlink="http://www.w3.org/1999/xlink">
<g id="graph0" class="graph" transform="scale(1 1) rotate(0) translate(4 23.25)">
<title>FlowController::updatePIDParameters</title>
<!-- Node1 -->
<g id="Node000001" class="node">
<title>Node1</title>
<g id="a_Node000001"><a xlink:title=" ">
<polygon fill="#999999" stroke="#666666" points="178.75,-19.25 0,-19.25 0,0 178.75,0 178.75,-19.25"/>
<text text-anchor="middle" x="89.38" y="-5.75" font-family="Helvetica,sans-Serif" font-size="10.00">FlowController::updatePIDParameters</text>
</a>
</g>
</g>
<!-- Node2 -->
<g id="Node000002" class="node">
<title>Node2</title>
<g id="a_Node000002"><a xlink:href="classPID.html#ae3f4eed49d68435cc1b77e137ac31920" target="_top" xlink:title="Set the gains and timestep.">
<polygon fill="white" stroke="#666666" points="290.75,-19.25 214.75,-19.25 214.75,0 290.75,0 290.75,-19.25"/>
<text text-anchor="middle" x="252.75" y="-5.75" font-family="Helvetica,sans-Serif" font-size="10.00">PID::setGains</text>
</a>
</g>
</g>
<!-- Node1&#45;&gt;Node2 -->
<g id="edge1_Node000001_Node000002" class="edge">
<title>Node1&#45;&gt;Node2</title>
<g id="a_edge1_Node000001_Node000002"><a xlink:title=" ">
<path fill="none" stroke="#63b8ff" d="M179.09,-9.62C187.36,-9.62 195.51,-9.62 203.2,-9.62"/>
<polygon fill="#63b8ff" stroke="#63b8ff" points="202.95,-13.13 212.95,-9.63 202.95,-6.13 202.95,-13.13"/>
</a>
</g>
</g>
<!-- Node3 -->
<g id="Node000003" class="node">
<title>Node3</title>
<g id="a_Node000003"><a xlink:href="classPID.html#a0ccd3a3e6e64a2560077ea76bf71e417" target="_top" xlink:title="Method to be called when the controller goes from manual to auto mode for proper bumpless transfer.">
<polygon fill="white" stroke="#666666" points="376.5,-19.25 326.75,-19.25 326.75,0 376.5,0 376.5,-19.25"/>
<text text-anchor="middle" x="351.62" y="-5.75" font-family="Helvetica,sans-Serif" font-size="10.00">PID::init</text>
</a>
</g>
</g>
<!-- Node2&#45;&gt;Node3 -->
<g id="edge2_Node000002_Node000003" class="edge">
<title>Node2&#45;&gt;Node3</title>
<g id="a_edge2_Node000002_Node000003"><a xlink:title=" ">
<path fill="none" stroke="#63b8ff" d="M291.2,-9.62C299.05,-9.62 307.31,-9.62 315.09,-9.62"/>
<polygon fill="#63b8ff" stroke="#63b8ff" points="314.89,-13.13 324.89,-9.63 314.89,-6.13 314.89,-13.13"/>
</a>
</g>
</g>
</g>
</svg>
