<?xml version="1.0" encoding="UTF-8" standalone="no"?>
<!DOCTYPE svg PUBLIC "-//W3C//DTD SVG 1.1//EN"
 "http://www.w3.org/Graphics/SVG/1.1/DTD/svg11.dtd">
<!-- Generated by graphviz version 12.0.0 (20240704.0754)
 -->
<!-- Title: PID::setGains Pages: 1 -->
<svg width="447pt" height="152pt"
 viewBox="0.00 0.00 446.75 151.88" xmlns="http://www.w3.org/2000/svg" xmlns:xlink="http://www.w3.org/1999/xlink">
<g id="graph0" class="graph" transform="scale(1 1) rotate(0) translate(4 147.88)">
<title>PID::setGains</title>
<!-- Node1 -->
<g id="Node000001" class="node">
<title>Node1</title>
<g id="a_Node000001"><a xlink:title="Set the gains and timestep.">
<polygon fill="#999999" stroke="#666666" points="438.75,-86.88 362.75,-86.88 362.75,-67.62 438.75,-67.62 438.75,-86.88"/>
<text text-anchor="middle" x="400.75" y="-73.38" font-family="Helvetica,sans-Serif" font-size="10.00">PID::setGains</text>
</a>
</g>
</g>
<!-- Node2 -->
<g id="Node000002" class="node">
<title>Node2</title>
<g id="a_Node000002"><a xlink:href="classPID.html#a5cc06605b7c3778f132838314136f292" target="_top" xlink:title="Constructor.">
<polygon fill="white" stroke="#666666" points="264.12,-143.88 210.62,-143.88 210.62,-124.62 264.12,-124.62 264.12,-143.88"/>
<text text-anchor="middle" x="237.38" y="-130.38" font-family="Helvetica,sans-Serif" font-size="10.00">PID::PID</text>
</a>
</g>
</g>
<!-- Node1&#45;&gt;Node2 -->
<g id="edge1_Node000001_Node000002" class="edge">
<title>Node1&#45;&gt;Node2</title>
<g id="a_edge1_Node000001_Node000002"><a xlink:title=" ">
<path fill="none" stroke="#63b8ff" d="M369.71,-92.13C356.7,-98.24 341.17,-105.07 326.75,-110.25 306.25,-117.61 282.38,-123.97 264.62,-128.29"/>
<polygon fill="#63b8ff" stroke="#63b8ff" points="371.09,-95.35 378.6,-87.88 368.07,-89.04 371.09,-95.35"/>
</a>
</g>
</g>
<!-- Node3 -->
<g id="Node000003" class="node">
<title>Node3</title>
<g id="a_Node000003"><a xlink:href="classCascadeHumidistat.html#ad3b4c342c985955ba465a1ee85249eee" target="_top" xlink:title=" ">
<polygon fill="white" stroke="#666666" points="112,-92.5 0,-92.5 0,-62 112,-62 112,-92.5"/>
<text text-anchor="start" x="8" y="-79" font-family="Helvetica,sans-Serif" font-size="10.00">CascadeHumidistat::</text>
<text text-anchor="middle" x="56" y="-67.75" font-family="Helvetica,sans-Serif" font-size="10.00">updatePIDParameters</text>
</a>
</g>
</g>
<!-- Node1&#45;&gt;Node3 -->
<g id="edge2_Node000001_Node000003" class="edge">
<title>Node1&#45;&gt;Node3</title>
<g id="a_edge2_Node000001_Node000003"><a xlink:title=" ">
<path fill="none" stroke="#63b8ff" d="M351.22,-77.25C288.22,-77.25 178.52,-77.25 112.35,-77.25"/>
<polygon fill="#63b8ff" stroke="#63b8ff" points="350.9,-80.75 360.9,-77.25 350.9,-73.75 350.9,-80.75"/>
</a>
</g>
</g>
<!-- Node4 -->
<g id="Node000004" class="node">
<title>Node4</title>
<g id="a_Node000004"><a xlink:href="classFlowController.html#a20a5cb870095042fc47e60866675bc07" target="_top" xlink:title=" ">
<polygon fill="white" stroke="#666666" points="326.75,-67.88 148,-67.88 148,-48.62 326.75,-48.62 326.75,-67.88"/>
<text text-anchor="middle" x="237.38" y="-54.38" font-family="Helvetica,sans-Serif" font-size="10.00">FlowController::updatePIDParameters</text>
</a>
</g>
</g>
<!-- Node1&#45;&gt;Node4 -->
<g id="edge3_Node000001_Node000004" class="edge">
<title>Node1&#45;&gt;Node4</title>
<g id="a_edge3_Node000001_Node000004"><a xlink:title=" ">
<path fill="none" stroke="#63b8ff" d="M351.05,-71.52C342.49,-70.51 333.36,-69.43 324.14,-68.35"/>
<polygon fill="#63b8ff" stroke="#63b8ff" points="350.48,-74.97 360.82,-72.67 351.3,-68.02 350.48,-74.97"/>
</a>
</g>
</g>
<!-- Node5 -->
<g id="Node000005" class="node">
<title>Node5</title>
<g id="a_Node000005"><a xlink:href="classSingleHumidistat.html#ae8f19856e617b83e1cf21e72e5b9f1d9" target="_top" xlink:title=" ">
<polygon fill="white" stroke="#666666" points="299.38,-30.5 175.38,-30.5 175.38,0 299.38,0 299.38,-30.5"/>
<text text-anchor="start" x="183.38" y="-17" font-family="Helvetica,sans-Serif" font-size="10.00">SingleHumidistat::update</text>
<text text-anchor="middle" x="237.38" y="-5.75" font-family="Helvetica,sans-Serif" font-size="10.00">PIDParameters</text>
</a>
</g>
</g>
<!-- Node1&#45;&gt;Node5 -->
<g id="edge5_Node000001_Node000005" class="edge">
<title>Node1&#45;&gt;Node5</title>
<g id="a_edge5_Node000001_Node000005"><a xlink:title=" ">
<path fill="none" stroke="#63b8ff" d="M373.46,-61.82C359.85,-54.28 342.76,-45.51 326.75,-39.25 318.16,-35.89 308.93,-32.83 299.78,-30.09"/>
<polygon fill="#63b8ff" stroke="#63b8ff" points="371.38,-64.66 381.81,-66.53 374.82,-58.56 371.38,-64.66"/>
</a>
</g>
</g>
<!-- Node4&#45;&gt;Node3 -->
<g id="edge4_Node000004_Node000003" class="edge">
<title>Node4&#45;&gt;Node3</title>
<g id="a_edge4_Node000004_Node000003"><a xlink:title=" ">
<path fill="none" stroke="#63b8ff" d="M136.34,-68.85C128.01,-69.73 119.81,-70.6 112.02,-71.42"/>
<polygon fill="#63b8ff" stroke="#63b8ff" points="136.66,-72.33 146.23,-67.8 135.92,-65.37 136.66,-72.33"/>
</a>
</g>
</g>
</g>
</svg>
