<?xml version="1.0" encoding="UTF-8" standalone="no"?>
<!DOCTYPE svg PUBLIC "-//W3C//DTD SVG 1.1//EN"
 "http://www.w3.org/Graphics/SVG/1.1/DTD/svg11.dtd">
<!-- Generated by graphviz version 12.0.0 (20240704.0754)
 -->
<!-- Title: Humidistat::runCycle Pages: 1 -->
<svg width="312pt" height="64pt"
 viewBox="0.00 0.00 311.75 64.25" xmlns="http://www.w3.org/2000/svg" xmlns:xlink="http://www.w3.org/1999/xlink">
<g id="graph0" class="graph" transform="scale(1 1) rotate(0) translate(4 60.25)">
<title>Humidistat::runCycle</title>
<!-- Node1 -->
<g id="Node000001" class="node">
<title>Node1</title>
<g id="a_Node000001"><a xlink:title="Run a cycle of the controller. Reads a sample from the humidity controller and runs PID.">
<polygon fill="#999999" stroke="#666666" points="105.25,-37.25 0,-37.25 0,-18 105.25,-18 105.25,-37.25"/>
<text text-anchor="middle" x="52.62" y="-23.75" font-family="Helvetica,sans-Serif" font-size="10.00">Humidistat::runCycle</text>
</a>
</g>
</g>
<!-- Node2 -->
<g id="Node000002" class="node">
<title>Node2</title>
<g id="a_Node000002"><a xlink:href="classPID.html#a742098de1dc845731f9bc86ebf01fb01" target="_top" xlink:title="Run a cycle of the PID loop.">
<polygon fill="white" stroke="#666666" points="215.75,-56.25 141.25,-56.25 141.25,-37 215.75,-37 215.75,-56.25"/>
<text text-anchor="middle" x="178.5" y="-42.75" font-family="Helvetica,sans-Serif" font-size="10.00">PID::compute</text>
</a>
</g>
</g>
<!-- Node1&#45;&gt;Node2 -->
<g id="edge1_Node000001_Node000002" class="edge">
<title>Node1&#45;&gt;Node2</title>
<g id="a_edge1_Node000001_Node000002"><a xlink:title=" ">
<path fill="none" stroke="#63b8ff" d="M105.44,-35.57C113.46,-36.8 121.71,-38.07 129.64,-39.28"/>
<polygon fill="#63b8ff" stroke="#63b8ff" points="129.04,-42.73 139.46,-40.79 130.1,-35.81 129.04,-42.73"/>
</a>
</g>
</g>
<!-- Node4 -->
<g id="Node000004" class="node">
<title>Node4</title>
<g id="a_Node000004"><a xlink:href="classPID.html#a05e62644ef9b7c0f3b1bb34631150ab4" target="_top" xlink:title="Set the mode of the controller.">
<polygon fill="white" stroke="#666666" points="213.88,-19.25 143.12,-19.25 143.12,0 213.88,0 213.88,-19.25"/>
<text text-anchor="middle" x="178.5" y="-5.75" font-family="Helvetica,sans-Serif" font-size="10.00">PID::setAuto</text>
</a>
</g>
</g>
<!-- Node1&#45;&gt;Node4 -->
<g id="edge3_Node000001_Node000004" class="edge">
<title>Node1&#45;&gt;Node4</title>
<g id="a_edge3_Node000001_Node000004"><a xlink:title=" ">
<path fill="none" stroke="#63b8ff" d="M105.44,-20.1C114.1,-18.84 123.03,-17.54 131.53,-16.3"/>
<polygon fill="#63b8ff" stroke="#63b8ff" points="131.9,-19.79 141.3,-14.89 130.9,-12.86 131.9,-19.79"/>
</a>
</g>
</g>
<!-- Node3 -->
<g id="Node000003" class="node">
<title>Node3</title>
<g id="a_Node000003"><a xlink:href="classPID.html#a0e64deb10d189ef873ec4e672a1c79f2" target="_top" xlink:title="Clip value to [cvMin, cvMax].">
<polygon fill="white" stroke="#666666" points="303.75,-56.25 251.75,-56.25 251.75,-37 303.75,-37 303.75,-56.25"/>
<text text-anchor="middle" x="277.75" y="-42.75" font-family="Helvetica,sans-Serif" font-size="10.00">PID::clip</text>
</a>
</g>
</g>
<!-- Node2&#45;&gt;Node3 -->
<g id="edge2_Node000002_Node000003" class="edge">
<title>Node2&#45;&gt;Node3</title>
<g id="a_edge2_Node000002_Node000003"><a xlink:title=" ">
<path fill="none" stroke="#63b8ff" d="M215.99,-46.62C223.79,-46.62 232.04,-46.62 239.86,-46.62"/>
<polygon fill="#63b8ff" stroke="#63b8ff" points="239.76,-50.13 249.76,-46.63 239.76,-43.13 239.76,-50.13"/>
</a>
</g>
</g>
<!-- Node5 -->
<g id="Node000005" class="node">
<title>Node5</title>
<g id="a_Node000005"><a xlink:href="classPID.html#a0ccd3a3e6e64a2560077ea76bf71e417" target="_top" xlink:title="Method to be called when the controller goes from manual to auto mode for proper bumpless transfer.">
<polygon fill="white" stroke="#666666" points="302.62,-19.25 252.88,-19.25 252.88,0 302.62,0 302.62,-19.25"/>
<text text-anchor="middle" x="277.75" y="-5.75" font-family="Helvetica,sans-Serif" font-size="10.00">PID::init</text>
</a>
</g>
</g>
<!-- Node4&#45;&gt;Node5 -->
<g id="edge4_Node000004_Node000005" class="edge">
<title>Node4&#45;&gt;Node5</title>
<g id="a_edge4_Node000004_Node000005"><a xlink:title=" ">
<path fill="none" stroke="#63b8ff" d="M214.33,-9.62C223.03,-9.62 232.36,-9.62 241.09,-9.62"/>
<polygon fill="#63b8ff" stroke="#63b8ff" points="241,-13.13 251,-9.63 241,-6.13 241,-13.13"/>
</a>
</g>
</g>
</g>
</svg>
