<?xml version="1.0" encoding="UTF-8" standalone="no"?>
<!DOCTYPE svg PUBLIC "-//W3C//DTD SVG 1.1//EN"
 "http://www.w3.org/Graphics/SVG/1.1/DTD/svg11.dtd">
<!-- Generated by graphviz version 12.0.0 (20240704.0754)
 -->
<!-- Title: src/ui/ConfigPar.cpp Pages: 1 -->
<svg width="342pt" height="138pt"
 viewBox="0.00 0.00 341.50 137.75" xmlns="http://www.w3.org/2000/svg" xmlns:xlink="http://www.w3.org/1999/xlink">
<g id="graph0" class="graph" transform="scale(1 1) rotate(0) translate(4 133.75)">
<title>src/ui/ConfigPar.cpp</title>
<!-- Node1 -->
<g id="Node000001" class="node">
<title>Node1</title>
<g id="a_Node000001"><a xlink:title=" ">
<polygon fill="#999999" stroke="#666666" points="212.25,-129.75 109.25,-129.75 109.25,-110.5 212.25,-110.5 212.25,-129.75"/>
<text text-anchor="middle" x="160.75" y="-116.25" font-family="Helvetica,sans-Serif" font-size="10.00">src/ui/ConfigPar.cpp</text>
</a>
</g>
</g>
<!-- Node2 -->
<g id="Node000002" class="node">
<title>Node2</title>
<g id="a_Node000002"><a xlink:title=" ">
<polygon fill="#e0e0e0" stroke="#999999" points="47.5,-74.5 0,-74.5 0,-55.25 47.5,-55.25 47.5,-74.5"/>
<text text-anchor="middle" x="23.75" y="-61" font-family="Helvetica,sans-Serif" font-size="10.00">stdint.h</text>
</a>
</g>
</g>
<!-- Node1&#45;&gt;Node2 -->
<g id="edge1_Node000001_Node000002" class="edge">
<title>Node1&#45;&gt;Node2</title>
<g id="a_edge1_Node000001_Node000002"><a xlink:title=" ">
<path fill="none" stroke="#63b8ff" d="M137.51,-110.09C115.56,-101.56 82.4,-88.67 57.54,-79.01"/>
<polygon fill="#63b8ff" stroke="#63b8ff" points="59.1,-75.86 48.51,-75.5 56.57,-82.39 59.1,-75.86"/>
</a>
</g>
</g>
<!-- Node3 -->
<g id="Node000003" class="node">
<title>Node3</title>
<g id="a_Node000003"><a xlink:title=" ">
<polygon fill="#e0e0e0" stroke="#999999" points="110.38,-74.5 65.12,-74.5 65.12,-55.25 110.38,-55.25 110.38,-74.5"/>
<text text-anchor="middle" x="87.75" y="-61" font-family="Helvetica,sans-Serif" font-size="10.00">math.h</text>
</a>
</g>
</g>
<!-- Node1&#45;&gt;Node3 -->
<g id="edge2_Node000001_Node000003" class="edge">
<title>Node1&#45;&gt;Node3</title>
<g id="a_edge2_Node000001_Node000003"><a xlink:title=" ">
<path fill="none" stroke="#63b8ff" d="M148.37,-110.09C137.6,-102.24 121.78,-90.7 109,-81.37"/>
<polygon fill="#63b8ff" stroke="#63b8ff" points="111.31,-78.73 101.17,-75.67 107.19,-84.39 111.31,-78.73"/>
</a>
</g>
</g>
<!-- Node4 -->
<g id="Node000004" class="node">
<title>Node4</title>
<g id="a_Node000004"><a xlink:href="ConfigPar_8h.html" target="_top" xlink:title=" ">
<polygon fill="white" stroke="#666666" points="193.5,-74.5 128,-74.5 128,-55.25 193.5,-55.25 193.5,-74.5"/>
<text text-anchor="middle" x="160.75" y="-61" font-family="Helvetica,sans-Serif" font-size="10.00">ConfigPar.h</text>
</a>
</g>
</g>
<!-- Node1&#45;&gt;Node4 -->
<g id="edge3_Node000001_Node000004" class="edge">
<title>Node1&#45;&gt;Node4</title>
<g id="a_edge3_Node000001_Node000004"><a xlink:title=" ">
<path fill="none" stroke="#63b8ff" d="M160.75,-110.33C160.75,-103.82 160.75,-94.67 160.75,-86.37"/>
<polygon fill="#63b8ff" stroke="#63b8ff" points="164.25,-86.37 160.75,-76.37 157.25,-86.37 164.25,-86.37"/>
</a>
</g>
</g>
<!-- Node5 -->
<g id="Node000005" class="node">
<title>Node5</title>
<g id="a_Node000005"><a xlink:href="asprintf_8h.html" target="_top" xlink:title=" ">
<polygon fill="white" stroke="#666666" points="267.62,-74.5 211.88,-74.5 211.88,-55.25 267.62,-55.25 267.62,-74.5"/>
<text text-anchor="middle" x="239.75" y="-61" font-family="Helvetica,sans-Serif" font-size="10.00">asprintf.h</text>
</a>
</g>
</g>
<!-- Node1&#45;&gt;Node5 -->
<g id="edge4_Node000001_Node000005" class="edge">
<title>Node1&#45;&gt;Node5</title>
<g id="a_edge4_Node000001_Node000005"><a xlink:title=" ">
<path fill="none" stroke="#63b8ff" d="M174.15,-110.09C185.84,-102.21 203.05,-90.61 216.91,-81.27"/>
<polygon fill="#63b8ff" stroke="#63b8ff" points="218.69,-84.29 225.03,-75.8 214.78,-78.49 218.69,-84.29"/>
</a>
</g>
</g>
<!-- Node8 -->
<g id="Node000008" class="node">
<title>Node8</title>
<g id="a_Node000008"><a xlink:href="imath_8h.html" target="_top" xlink:title=" ">
<polygon fill="white" stroke="#666666" points="333.5,-74.5 286,-74.5 286,-55.25 333.5,-55.25 333.5,-74.5"/>
<text text-anchor="middle" x="309.75" y="-61" font-family="Helvetica,sans-Serif" font-size="10.00">imath.h</text>
</a>
</g>
</g>
<!-- Node1&#45;&gt;Node8 -->
<g id="edge7_Node000001_Node000008" class="edge">
<title>Node1&#45;&gt;Node8</title>
<g id="a_edge7_Node000001_Node000008"><a xlink:title=" ">
<path fill="none" stroke="#63b8ff" d="M186.03,-110.09C210.55,-101.33 247.94,-87.96 275.2,-78.22"/>
<polygon fill="#63b8ff" stroke="#63b8ff" points="276.17,-81.59 284.41,-74.93 273.81,-75 276.17,-81.59"/>
</a>
</g>
</g>
<!-- Node6 -->
<g id="Node000006" class="node">
<title>Node6</title>
<g id="a_Node000006"><a xlink:title=" ">
<polygon fill="#e0e0e0" stroke="#999999" points="231.12,-19.25 184.38,-19.25 184.38,0 231.12,0 231.12,-19.25"/>
<text text-anchor="middle" x="207.75" y="-5.75" font-family="Helvetica,sans-Serif" font-size="10.00">stdlib.h</text>
</a>
</g>
</g>
<!-- Node5&#45;&gt;Node6 -->
<g id="edge5_Node000005_Node000006" class="edge">
<title>Node5&#45;&gt;Node6</title>
<g id="a_edge5_Node000005_Node000006"><a xlink:title=" ">
<path fill="none" stroke="#63b8ff" d="M234.47,-55.08C230.28,-48.11 224.27,-38.12 219.02,-29.37"/>
<polygon fill="#63b8ff" stroke="#63b8ff" points="222.08,-27.68 213.93,-20.91 216.08,-31.28 222.08,-27.68"/>
</a>
</g>
</g>
<!-- Node7 -->
<g id="Node000007" class="node">
<title>Node7</title>
<g id="a_Node000007"><a xlink:title=" ">
<polygon fill="#e0e0e0" stroke="#999999" points="294,-19.25 249.5,-19.25 249.5,0 294,0 294,-19.25"/>
<text text-anchor="middle" x="271.75" y="-5.75" font-family="Helvetica,sans-Serif" font-size="10.00">stdio.h</text>
</a>
</g>
</g>
<!-- Node5&#45;&gt;Node7 -->
<g id="edge6_Node000005_Node000007" class="edge">
<title>Node5&#45;&gt;Node7</title>
<g id="a_edge6_Node000005_Node000007"><a xlink:title=" ">
<path fill="none" stroke="#63b8ff" d="M245.03,-55.08C249.22,-48.11 255.23,-38.12 260.48,-29.37"/>
<polygon fill="#63b8ff" stroke="#63b8ff" points="263.42,-31.28 265.57,-20.91 257.42,-27.68 263.42,-31.28"/>
</a>
</g>
</g>
</g>
</svg>
