<?xml version="1.0" encoding="UTF-8" standalone="no"?>
<!DOCTYPE svg PUBLIC "-//W3C//DTD SVG 1.1//EN"
 "http://www.w3.org/Graphics/SVG/1.1/DTD/svg11.dtd">
<!-- Generated by graphviz version 12.0.0 (20240704.0754)
 -->
<!-- Title: src/config.h Pages: 1 -->
<svg width="266pt" height="138pt"
 viewBox="0.00 0.00 265.88 137.75" xmlns="http://www.w3.org/2000/svg" xmlns:xlink="http://www.w3.org/1999/xlink">
<g id="graph0" class="graph" transform="scale(1 1) rotate(0) translate(4 133.75)">
<title>src/config.h</title>
<!-- Node1 -->
<g id="Node000001" class="node">
<title>Node1</title>
<g id="a_Node000001"><a xlink:title=" ">
<polygon fill="#999999" stroke="#666666" points="142,-129.75 76.5,-129.75 76.5,-110.5 142,-110.5 142,-129.75"/>
<text text-anchor="middle" x="109.25" y="-116.25" font-family="Helvetica,sans-Serif" font-size="10.00">src/config.h</text>
</a>
</g>
</g>
<!-- Node2 -->
<g id="Node000002" class="node">
<title>Node2</title>
<g id="a_Node000002"><a xlink:title=" ">
<polygon fill="#e0e0e0" stroke="#999999" points="56.5,-74.5 0,-74.5 0,-55.25 56.5,-55.25 56.5,-74.5"/>
<text text-anchor="middle" x="28.25" y="-61" font-family="Helvetica,sans-Serif" font-size="10.00">Arduino.h</text>
</a>
</g>
</g>
<!-- Node1&#45;&gt;Node2 -->
<g id="edge1_Node000001_Node000002" class="edge">
<title>Node1&#45;&gt;Node2</title>
<g id="a_edge1_Node000001_Node000002"><a xlink:title=" ">
<path fill="none" stroke="#63b8ff" d="M95.51,-110.09C83.52,-102.21 65.88,-90.61 51.67,-81.27"/>
<polygon fill="#63b8ff" stroke="#63b8ff" points="53.6,-78.35 43.32,-75.78 49.76,-84.2 53.6,-78.35"/>
</a>
</g>
</g>
<!-- Node3 -->
<g id="Node000003" class="node">
<title>Node3</title>
<g id="a_Node000003"><a xlink:title=" ">
<polygon fill="#e0e0e0" stroke="#999999" points="113.25,-19.25 55.25,-19.25 55.25,0 113.25,0 113.25,-19.25"/>
<text text-anchor="middle" x="84.25" y="-5.75" font-family="Helvetica,sans-Serif" font-size="10.00">etl/span.h</text>
</a>
</g>
</g>
<!-- Node1&#45;&gt;Node3 -->
<g id="edge2_Node000001_Node000003" class="edge">
<title>Node1&#45;&gt;Node3</title>
<g id="a_edge2_Node000001_Node000003"><a xlink:title=" ">
<path fill="none" stroke="#63b8ff" d="M107.2,-110.25C103.23,-93 94.38,-54.58 88.9,-30.81"/>
<polygon fill="#63b8ff" stroke="#63b8ff" points="92.32,-30.06 86.66,-21.1 85.5,-31.63 92.32,-30.06"/>
</a>
</g>
</g>
<!-- Node4 -->
<g id="Node000004" class="node">
<title>Node4</title>
<g id="a_Node000004"><a xlink:href="Point_8h.html" target="_top" xlink:title=" ">
<polygon fill="white" stroke="#666666" points="158.25,-74.5 112.25,-74.5 112.25,-55.25 158.25,-55.25 158.25,-74.5"/>
<text text-anchor="middle" x="135.25" y="-61" font-family="Helvetica,sans-Serif" font-size="10.00">Point.h</text>
</a>
</g>
</g>
<!-- Node1&#45;&gt;Node4 -->
<g id="edge3_Node000001_Node000004" class="edge">
<title>Node1&#45;&gt;Node4</title>
<g id="a_edge3_Node000001_Node000004"><a xlink:title=" ">
<path fill="none" stroke="#63b8ff" d="M113.54,-110.33C116.87,-103.51 121.61,-93.81 125.81,-85.2"/>
<polygon fill="#63b8ff" stroke="#63b8ff" points="128.96,-86.74 130.2,-76.22 122.67,-83.67 128.96,-86.74"/>
</a>
</g>
</g>
<!-- Node6 -->
<g id="Node000006" class="node">
<title>Node6</title>
<g id="a_Node000006"><a xlink:href="config__assert_8h.html" target="_top" xlink:title=" ">
<polygon fill="white" stroke="#666666" points="257.88,-74.5 176.62,-74.5 176.62,-55.25 257.88,-55.25 257.88,-74.5"/>
<text text-anchor="middle" x="217.25" y="-61" font-family="Helvetica,sans-Serif" font-size="10.00">config_assert.h</text>
</a>
</g>
</g>
<!-- Node1&#45;&gt;Node6 -->
<g id="edge6_Node000001_Node000006" class="edge">
<title>Node1&#45;&gt;Node6</title>
<g id="a_edge6_Node000001_Node000006"><a xlink:title=" ">
<path fill="none" stroke="#63b8ff" d="M127.57,-110.09C144.33,-101.83 169.38,-89.48 188.75,-79.93"/>
<polygon fill="#63b8ff" stroke="#63b8ff" points="190.06,-83.18 197.48,-75.62 186.97,-76.9 190.06,-83.18"/>
</a>
</g>
</g>
<!-- Node4&#45;&gt;Node3 -->
<g id="edge5_Node000004_Node000003" class="edge">
<title>Node4&#45;&gt;Node3</title>
<g id="a_edge5_Node000004_Node000003"><a xlink:title=" ">
<path fill="none" stroke="#63b8ff" d="M126.83,-55.08C119.71,-47.65 109.31,-36.79 100.56,-27.66"/>
<polygon fill="#63b8ff" stroke="#63b8ff" points="103.35,-25.5 93.9,-20.7 98.29,-30.35 103.35,-25.5"/>
</a>
</g>
</g>
<!-- Node5 -->
<g id="Node000005" class="node">
<title>Node5</title>
<g id="a_Node000005"><a xlink:title=" ">
<polygon fill="#e0e0e0" stroke="#999999" points="179,-19.25 131.5,-19.25 131.5,0 179,0 179,-19.25"/>
<text text-anchor="middle" x="155.25" y="-5.75" font-family="Helvetica,sans-Serif" font-size="10.00">stdint.h</text>
</a>
</g>
</g>
<!-- Node4&#45;&gt;Node5 -->
<g id="edge4_Node000004_Node000005" class="edge">
<title>Node4&#45;&gt;Node5</title>
<g id="a_edge4_Node000004_Node000005"><a xlink:title=" ">
<path fill="none" stroke="#63b8ff" d="M138.55,-55.08C141.08,-48.34 144.68,-38.77 147.88,-30.24"/>
<polygon fill="#63b8ff" stroke="#63b8ff" points="151.1,-31.62 151.34,-21.03 144.55,-29.16 151.1,-31.62"/>
</a>
</g>
</g>
</g>
</svg>
