<?xml version="1.0" encoding="UTF-8" standalone="no"?>
<!DOCTYPE svg PUBLIC "-//W3C//DTD SVG 1.1//EN"
 "http://www.w3.org/Graphics/SVG/1.1/DTD/svg11.dtd">
<!-- Generated by graphviz version 12.0.0 (20240704.0754)
 -->
<!-- Title: src/ui/ControllerUI.h Pages: 1 -->
<svg width="409pt" height="138pt"
 viewBox="0.00 0.00 408.50 137.75" xmlns="http://www.w3.org/2000/svg" xmlns:xlink="http://www.w3.org/1999/xlink">
<g id="graph0" class="graph" transform="scale(1 1) rotate(0) translate(4 133.75)">
<title>src/ui/ControllerUI.h</title>
<!-- Node1 -->
<g id="Node000001" class="node">
<title>Node1</title>
<g id="a_Node000001"><a xlink:title=" ">
<polygon fill="#999999" stroke="#666666" points="243.75,-129.75 141.5,-129.75 141.5,-110.5 243.75,-110.5 243.75,-129.75"/>
<text text-anchor="middle" x="192.62" y="-116.25" font-family="Helvetica,sans-Serif" font-size="10.00">src/ui/ControllerUI.h</text>
</a>
</g>
</g>
<!-- Node2 -->
<g id="Node000002" class="node">
<title>Node2</title>
<g id="a_Node000002"><a xlink:href="CharDisplayUI_8h.html" target="_top" xlink:title=" ">
<polygon fill="white" stroke="#666666" points="118,-74.5 5.25,-74.5 5.25,-55.25 118,-55.25 118,-74.5"/>
<text text-anchor="middle" x="61.62" y="-61" font-family="Helvetica,sans-Serif" font-size="10.00">src/ui/CharDisplayUI.h</text>
</a>
</g>
</g>
<!-- Node1&#45;&gt;Node2 -->
<g id="edge1_Node000001_Node000002" class="edge">
<title>Node1&#45;&gt;Node2</title>
<g id="a_edge1_Node000001_Node000002"><a xlink:title=" ">
<path fill="none" stroke="#63b8ff" d="M159.8,-105.78C136.12,-96.16 104.79,-83.42 83.96,-74.95"/>
<polygon fill="#63b8ff" stroke="#63b8ff" points="158.42,-109 169,-109.52 161.05,-102.51 158.42,-109"/>
</a>
</g>
</g>
<!-- Node4 -->
<g id="Node000004" class="node">
<title>Node4</title>
<g id="a_Node000004"><a xlink:href="ControllerUI_8cpp.html" target="_top" xlink:title=" ">
<polygon fill="white" stroke="#666666" points="249,-74.5 136.25,-74.5 136.25,-55.25 249,-55.25 249,-74.5"/>
<text text-anchor="middle" x="192.62" y="-61" font-family="Helvetica,sans-Serif" font-size="10.00">src/ui/ControllerUI.cpp</text>
</a>
</g>
</g>
<!-- Node1&#45;&gt;Node4 -->
<g id="edge3_Node000001_Node000004" class="edge">
<title>Node1&#45;&gt;Node4</title>
<g id="a_edge3_Node000001_Node000004"><a xlink:title=" ">
<path fill="none" stroke="#63b8ff" d="M192.62,-98.88C192.62,-90.59 192.62,-81.42 192.62,-74.86"/>
<polygon fill="#63b8ff" stroke="#63b8ff" points="189.13,-98.82 192.63,-108.82 196.13,-98.82 189.13,-98.82"/>
</a>
</g>
</g>
<!-- Node5 -->
<g id="Node000005" class="node">
<title>Node5</title>
<g id="a_Node000005"><a xlink:href="GraphicalDisplayUI_8h.html" target="_top" xlink:title=" ">
<polygon fill="white" stroke="#666666" points="400.5,-74.5 266.75,-74.5 266.75,-55.25 400.5,-55.25 400.5,-74.5"/>
<text text-anchor="middle" x="333.62" y="-61" font-family="Helvetica,sans-Serif" font-size="10.00">src/ui/GraphicalDisplayUI.h</text>
</a>
</g>
</g>
<!-- Node1&#45;&gt;Node5 -->
<g id="edge4_Node000001_Node000005" class="edge">
<title>Node1&#45;&gt;Node5</title>
<g id="a_edge4_Node000001_Node000005"><a xlink:title=" ">
<path fill="none" stroke="#63b8ff" d="M227.26,-106.04C252.83,-96.39 286.96,-83.5 309.59,-74.95"/>
<polygon fill="#63b8ff" stroke="#63b8ff" points="226.08,-102.75 217.96,-109.56 228.55,-109.3 226.08,-102.75"/>
</a>
</g>
</g>
<!-- Node3 -->
<g id="Node000003" class="node">
<title>Node3</title>
<g id="a_Node000003"><a xlink:href="CharDisplayUI_8cpp.html" target="_top" xlink:title=" ">
<polygon fill="white" stroke="#666666" points="123.25,-19.25 0,-19.25 0,0 123.25,0 123.25,-19.25"/>
<text text-anchor="middle" x="61.62" y="-5.75" font-family="Helvetica,sans-Serif" font-size="10.00">src/ui/CharDisplayUI.cpp</text>
</a>
</g>
</g>
<!-- Node2&#45;&gt;Node3 -->
<g id="edge2_Node000002_Node000003" class="edge">
<title>Node2&#45;&gt;Node3</title>
<g id="a_edge2_Node000002_Node000003"><a xlink:title=" ">
<path fill="none" stroke="#63b8ff" d="M61.62,-43.63C61.62,-35.34 61.62,-26.17 61.62,-19.61"/>
<polygon fill="#63b8ff" stroke="#63b8ff" points="58.13,-43.57 61.63,-53.57 65.13,-43.57 58.13,-43.57"/>
</a>
</g>
</g>
</g>
</svg>
