<?xml version="1.0" encoding="UTF-8" standalone="no"?>
<!DOCTYPE svg PUBLIC "-//W3C//DTD SVG 1.1//EN"
 "http://www.w3.org/Graphics/SVG/1.1/DTD/svg11.dtd">
<!-- Generated by graphviz version 12.0.0 (20240704.0754)
 -->
<!-- Title: src/control/Controller.h Pages: 1 -->
<svg width="1043pt" height="248pt"
 viewBox="0.00 0.00 1042.50 248.25" xmlns="http://www.w3.org/2000/svg" xmlns:xlink="http://www.w3.org/1999/xlink">
<g id="graph0" class="graph" transform="scale(1 1) rotate(0) translate(4 244.25)">
<title>src/control/Controller.h</title>
<!-- Node1 -->
<g id="Node000001" class="node">
<title>Node1</title>
<g id="a_Node000001"><a xlink:title=" ">
<polygon fill="#999999" stroke="#666666" points="255.75,-240.25 142.25,-240.25 142.25,-221 255.75,-221 255.75,-240.25"/>
<text text-anchor="middle" x="199" y="-226.75" font-family="Helvetica,sans-Serif" font-size="10.00">src/control/Controller.h</text>
</a>
</g>
</g>
<!-- Node2 -->
<g id="Node000002" class="node">
<title>Node2</title>
<g id="a_Node000002"><a xlink:href="Controller_8cpp.html" target="_top" xlink:title=" ">
<polygon fill="white" stroke="#666666" points="124,-185 0,-185 0,-165.75 124,-165.75 124,-185"/>
<text text-anchor="middle" x="62" y="-171.5" font-family="Helvetica,sans-Serif" font-size="10.00">src/control/Controller.cpp</text>
</a>
</g>
</g>
<!-- Node1&#45;&gt;Node2 -->
<g id="edge1_Node000001_Node000002" class="edge">
<title>Node1&#45;&gt;Node2</title>
<g id="a_edge1_Node000001_Node000002"><a xlink:title=" ">
<path fill="none" stroke="#63b8ff" d="M165.34,-216.54C140.51,-206.89 107.34,-194 85.35,-185.45"/>
<polygon fill="#63b8ff" stroke="#63b8ff" points="163.76,-219.68 174.35,-220.04 166.3,-213.16 163.76,-219.68"/>
</a>
</g>
</g>
<!-- Node3 -->
<g id="Node000003" class="node">
<title>Node3</title>
<g id="a_Node000003"><a xlink:href="FlowController_8cpp.html" target="_top" xlink:title=" ">
<polygon fill="white" stroke="#666666" points="183.5,-129.75 38.5,-129.75 38.5,-110.5 183.5,-110.5 183.5,-129.75"/>
<text text-anchor="middle" x="111" y="-116.25" font-family="Helvetica,sans-Serif" font-size="10.00">src/control/FlowController.cpp</text>
</a>
</g>
</g>
<!-- Node1&#45;&gt;Node3 -->
<g id="edge2_Node000001_Node000003" class="edge">
<title>Node1&#45;&gt;Node3</title>
<g id="a_edge2_Node000001_Node000003"><a xlink:title=" ">
<path fill="none" stroke="#63b8ff" d="M184.58,-211.85C165.57,-188.41 132.82,-148.03 118.3,-130.13"/>
<polygon fill="#63b8ff" stroke="#63b8ff" points="181.83,-214.01 190.85,-219.57 187.26,-209.6 181.83,-214.01"/>
</a>
</g>
</g>
<!-- Node4 -->
<g id="Node000004" class="node">
<title>Node4</title>
<g id="a_Node000004"><a xlink:href="FlowController_8h.html" target="_top" xlink:title=" ">
<polygon fill="white" stroke="#666666" points="314.25,-185 179.75,-185 179.75,-165.75 314.25,-165.75 314.25,-185"/>
<text text-anchor="middle" x="247" y="-171.5" font-family="Helvetica,sans-Serif" font-size="10.00">src/control/FlowController.h</text>
</a>
</g>
</g>
<!-- Node1&#45;&gt;Node4 -->
<g id="edge3_Node000001_Node000004" class="edge">
<title>Node1&#45;&gt;Node4</title>
<g id="a_edge3_Node000001_Node000004"><a xlink:title=" ">
<path fill="none" stroke="#63b8ff" d="M214.4,-212.54C222.55,-203.5 232.22,-192.77 238.9,-185.36"/>
<polygon fill="#63b8ff" stroke="#63b8ff" points="212.04,-209.94 207.94,-219.71 217.23,-214.62 212.04,-209.94"/>
</a>
</g>
</g>
<!-- Node10 -->
<g id="Node000010" class="node">
<title>Node10</title>
<g id="a_Node000010"><a xlink:href="Humidistat_8h.html" target="_top" xlink:title=" ">
<polygon fill="white" stroke="#666666" points="491.75,-185 372.25,-185 372.25,-165.75 491.75,-165.75 491.75,-185"/>
<text text-anchor="middle" x="432" y="-171.5" font-family="Helvetica,sans-Serif" font-size="10.00">src/control/Humidistat.h</text>
</a>
</g>
</g>
<!-- Node1&#45;&gt;Node10 -->
<g id="edge10_Node000001_Node000010" class="edge">
<title>Node1&#45;&gt;Node10</title>
<g id="a_edge10_Node000001_Node000010"><a xlink:title=" ">
<path fill="none" stroke="#63b8ff" d="M249.82,-218.01C292.65,-208.22 353.06,-194.42 392.37,-185.43"/>
<polygon fill="#63b8ff" stroke="#63b8ff" points="249.23,-214.55 240.26,-220.19 250.79,-221.38 249.23,-214.55"/>
</a>
</g>
</g>
<!-- Node4&#45;&gt;Node3 -->
<g id="edge9_Node000004_Node000003" class="edge">
<title>Node4&#45;&gt;Node3</title>
<g id="a_edge9_Node000004_Node000003"><a xlink:title=" ">
<path fill="none" stroke="#63b8ff" d="M213.26,-161.16C188.64,-151.52 155.91,-138.71 134.18,-130.2"/>
<polygon fill="#63b8ff" stroke="#63b8ff" points="211.93,-164.4 222.52,-164.79 214.48,-157.88 211.93,-164.4"/>
</a>
</g>
</g>
<!-- Node5 -->
<g id="Node000005" class="node">
<title>Node5</title>
<g id="a_Node000005"><a xlink:href="CascadeHumidistat_8h.html" target="_top" xlink:title=" ">
<polygon fill="white" stroke="#666666" points="510.88,-129.75 353.12,-129.75 353.12,-110.5 510.88,-110.5 510.88,-129.75"/>
<text text-anchor="middle" x="432" y="-116.25" font-family="Helvetica,sans-Serif" font-size="10.00">src/control/CascadeHumidistat.h</text>
</a>
</g>
</g>
<!-- Node4&#45;&gt;Node5 -->
<g id="edge4_Node000004_Node000005" class="edge">
<title>Node4&#45;&gt;Node5</title>
<g id="a_edge4_Node000004_Node000005"><a xlink:title=" ">
<path fill="none" stroke="#63b8ff" d="M289.32,-162.19C323.16,-152.45 369.85,-139.02 400.46,-130.2"/>
<polygon fill="#63b8ff" stroke="#63b8ff" points="288.48,-158.79 279.84,-164.92 290.42,-165.52 288.48,-158.79"/>
</a>
</g>
</g>
<!-- Node6 -->
<g id="Node000006" class="node">
<title>Node6</title>
<g id="a_Node000006"><a xlink:href="SerialLogger_8h.html" target="_top" xlink:title=" ">
<polygon fill="white" stroke="#666666" points="728.38,-74.5 633.62,-74.5 633.62,-55.25 728.38,-55.25 728.38,-74.5"/>
<text text-anchor="middle" x="681" y="-61" font-family="Helvetica,sans-Serif" font-size="10.00">src/SerialLogger.h</text>
</a>
</g>
</g>
<!-- Node5&#45;&gt;Node6 -->
<g id="edge5_Node000005_Node000006" class="edge">
<title>Node5&#45;&gt;Node6</title>
<g id="a_edge5_Node000005_Node000006"><a xlink:title=" ">
<path fill="none" stroke="#63b8ff" d="M485.73,-107.63C531.53,-97.84 596.46,-83.95 638.65,-74.93"/>
<polygon fill="#63b8ff" stroke="#63b8ff" points="485.05,-104.2 476,-109.71 486.51,-111.05 485.05,-104.2"/>
</a>
</g>
</g>
<!-- Node8 -->
<g id="Node000008" class="node">
<title>Node8</title>
<g id="a_Node000008"><a xlink:href="CascadeHumidistat_8cpp.html" target="_top" xlink:title=" ">
<polygon fill="white" stroke="#666666" points="464.12,-74.5 295.88,-74.5 295.88,-55.25 464.12,-55.25 464.12,-74.5"/>
<text text-anchor="middle" x="380" y="-61" font-family="Helvetica,sans-Serif" font-size="10.00">src/control/CascadeHumidistat.cpp</text>
</a>
</g>
</g>
<!-- Node5&#45;&gt;Node8 -->
<g id="edge7_Node000005_Node000008" class="edge">
<title>Node5&#45;&gt;Node8</title>
<g id="a_edge7_Node000005_Node000008"><a xlink:title=" ">
<path fill="none" stroke="#63b8ff" d="M415.59,-102.32C406.71,-93.23 396.09,-82.35 388.77,-74.86"/>
<polygon fill="#63b8ff" stroke="#63b8ff" points="412.87,-104.54 422.36,-109.25 417.87,-99.65 412.87,-104.54"/>
</a>
</g>
</g>
<!-- Node9 -->
<g id="Node000009" class="node">
<title>Node9</title>
<g id="a_Node000009"><a xlink:href="GraphicalDisplayUI_8h.html" target="_top" xlink:title=" ">
<polygon fill="white" stroke="#666666" points="615.88,-74.5 482.12,-74.5 482.12,-55.25 615.88,-55.25 615.88,-74.5"/>
<text text-anchor="middle" x="549" y="-61" font-family="Helvetica,sans-Serif" font-size="10.00">src/ui/GraphicalDisplayUI.h</text>
</a>
</g>
</g>
<!-- Node5&#45;&gt;Node9 -->
<g id="edge8_Node000005_Node000009" class="edge">
<title>Node5&#45;&gt;Node9</title>
<g id="a_edge8_Node000005_Node000009"><a xlink:title=" ">
<path fill="none" stroke="#63b8ff" d="M462.18,-105.39C483.22,-95.81 510.7,-83.31 529.06,-74.95"/>
<polygon fill="#63b8ff" stroke="#63b8ff" points="460.88,-102.14 453.23,-109.46 463.78,-108.51 460.88,-102.14"/>
</a>
</g>
</g>
<!-- Node7 -->
<g id="Node000007" class="node">
<title>Node7</title>
<g id="a_Node000007"><a xlink:href="main_8cpp.html" target="_top" xlink:title=" ">
<polygon fill="white" stroke="#666666" points="429.75,-19.25 358.25,-19.25 358.25,0 429.75,0 429.75,-19.25"/>
<text text-anchor="middle" x="394" y="-5.75" font-family="Helvetica,sans-Serif" font-size="10.00">src/main.cpp</text>
</a>
</g>
</g>
<!-- Node6&#45;&gt;Node7 -->
<g id="edge6_Node000006_Node000007" class="edge">
<title>Node6&#45;&gt;Node7</title>
<g id="a_edge6_Node000006_Node000007"><a xlink:title=" ">
<path fill="none" stroke="#63b8ff" d="M622.14,-52.95C564.4,-42.24 478.23,-26.25 430,-17.31"/>
<polygon fill="#63b8ff" stroke="#63b8ff" points="621.33,-56.36 631.8,-54.75 622.6,-49.48 621.33,-56.36"/>
</a>
</g>
</g>
<!-- Node10&#45;&gt;Node5 -->
<g id="edge15_Node000010_Node000005" class="edge">
<title>Node10&#45;&gt;Node5</title>
<g id="a_edge15_Node000010_Node000005"><a xlink:title=" ">
<path fill="none" stroke="#63b8ff" d="M432,-154.13C432,-145.84 432,-136.67 432,-130.11"/>
<polygon fill="#63b8ff" stroke="#63b8ff" points="428.5,-154.07 432,-164.07 435.5,-154.07 428.5,-154.07"/>
</a>
</g>
</g>
<!-- Node11 -->
<g id="Node000011" class="node">
<title>Node11</title>
<g id="a_Node000011"><a xlink:href="SetpointProfileRunner_8h.html" target="_top" xlink:title=" ">
<polygon fill="white" stroke="#666666" points="334.88,-129.75 201.12,-129.75 201.12,-110.5 334.88,-110.5 334.88,-129.75"/>
<text text-anchor="middle" x="268" y="-116.25" font-family="Helvetica,sans-Serif" font-size="10.00">src/SetpointProfileRunner.h</text>
</a>
</g>
</g>
<!-- Node10&#45;&gt;Node11 -->
<g id="edge11_Node000010_Node000011" class="edge">
<title>Node10&#45;&gt;Node11</title>
<g id="a_edge11_Node000010_Node000011"><a xlink:title=" ">
<path fill="none" stroke="#63b8ff" d="M393.3,-161.81C363.41,-152.1 322.75,-138.9 295.96,-130.2"/>
<polygon fill="#63b8ff" stroke="#63b8ff" points="392.15,-165.12 402.74,-164.87 394.31,-158.46 392.15,-165.12"/>
</a>
</g>
</g>
<!-- Node13 -->
<g id="Node000013" class="node">
<title>Node13</title>
<g id="a_Node000013"><a xlink:href="Humidistat_8cpp.html" target="_top" xlink:title=" ">
<polygon fill="white" stroke="#666666" points="659,-129.75 529,-129.75 529,-110.5 659,-110.5 659,-129.75"/>
<text text-anchor="middle" x="594" y="-116.25" font-family="Helvetica,sans-Serif" font-size="10.00">src/control/Humidistat.cpp</text>
</a>
</g>
</g>
<!-- Node10&#45;&gt;Node13 -->
<g id="edge16_Node000010_Node000013" class="edge">
<title>Node10&#45;&gt;Node13</title>
<g id="a_edge16_Node000010_Node000013"><a xlink:title=" ">
<path fill="none" stroke="#63b8ff" d="M470.23,-161.81C499.76,-152.1 539.92,-138.9 566.38,-130.2"/>
<polygon fill="#63b8ff" stroke="#63b8ff" points="469.33,-158.42 460.92,-164.87 471.51,-165.07 469.33,-158.42"/>
</a>
</g>
</g>
<!-- Node14 -->
<g id="Node000014" class="node">
<title>Node14</title>
<g id="a_Node000014"><a xlink:href="SingleHumidistat_8h.html" target="_top" xlink:title=" ">
<polygon fill="white" stroke="#666666" points="823.25,-129.75 676.75,-129.75 676.75,-110.5 823.25,-110.5 823.25,-129.75"/>
<text text-anchor="middle" x="750" y="-116.25" font-family="Helvetica,sans-Serif" font-size="10.00">src/control/SingleHumidistat.h</text>
</a>
</g>
</g>
<!-- Node10&#45;&gt;Node14 -->
<g id="edge17_Node000010_Node000014" class="edge">
<title>Node10&#45;&gt;Node14</title>
<g id="a_edge17_Node000010_Node000014"><a xlink:title=" ">
<path fill="none" stroke="#63b8ff" d="M497.65,-163.38C556.18,-153.58 640.84,-139.4 695.65,-130.23"/>
<polygon fill="#63b8ff" stroke="#63b8ff" points="497.08,-159.93 487.8,-165.03 498.24,-166.83 497.08,-159.93"/>
</a>
</g>
</g>
<!-- Node11&#45;&gt;Node7 -->
<g id="edge13_Node000011_Node000007" class="edge">
<title>Node11&#45;&gt;Node7</title>
<g id="a_edge13_Node000011_Node000007"><a xlink:title=" ">
<path fill="none" stroke="#63b8ff" d="M189.51,-109.19C144.26,-100.22 100.72,-83.89 125,-55.25 154.46,-20.49 291.72,-12.78 358,-11.08"/>
<polygon fill="#63b8ff" stroke="#63b8ff" points="188.74,-112.6 199.21,-110.98 190.01,-105.72 188.74,-112.6"/>
</a>
</g>
</g>
<!-- Node11&#45;&gt;Node9 -->
<g id="edge14_Node000011_Node000009" class="edge">
<title>Node11&#45;&gt;Node9</title>
<g id="a_edge14_Node000011_Node000009"><a xlink:title=" ">
<path fill="none" stroke="#63b8ff" d="M327,-107.94C378.76,-98.14 453.09,-84.05 501.21,-74.93"/>
<polygon fill="#63b8ff" stroke="#63b8ff" points="326.65,-104.45 317.47,-109.75 327.95,-111.33 326.65,-104.45"/>
</a>
</g>
</g>
<!-- Node12 -->
<g id="Node000012" class="node">
<title>Node12</title>
<g id="a_Node000012"><a xlink:href="SetpointProfileRunner_8cpp.html" target="_top" xlink:title=" ">
<polygon fill="white" stroke="#666666" points="278.12,-74.5 133.88,-74.5 133.88,-55.25 278.12,-55.25 278.12,-74.5"/>
<text text-anchor="middle" x="206" y="-61" font-family="Helvetica,sans-Serif" font-size="10.00">src/SetpointProfileRunner.cpp</text>
</a>
</g>
</g>
<!-- Node11&#45;&gt;Node12 -->
<g id="edge12_Node000011_Node000012" class="edge">
<title>Node11&#45;&gt;Node12</title>
<g id="a_edge12_Node000011_Node000012"><a xlink:title=" ">
<path fill="none" stroke="#63b8ff" d="M248.8,-102.64C238.1,-93.44 225.19,-82.35 216.36,-74.77"/>
<polygon fill="#63b8ff" stroke="#63b8ff" points="246.47,-105.25 256.33,-109.11 251.03,-99.94 246.47,-105.25"/>
</a>
</g>
</g>
<!-- Node14&#45;&gt;Node6 -->
<g id="edge18_Node000014_Node000006" class="edge">
<title>Node14&#45;&gt;Node6</title>
<g id="a_edge18_Node000014_Node000006"><a xlink:title=" ">
<path fill="none" stroke="#63b8ff" d="M729.35,-103.19C717.3,-93.89 702.55,-82.51 692.53,-74.77"/>
<polygon fill="#63b8ff" stroke="#63b8ff" points="727.04,-105.83 737.1,-109.17 731.32,-100.29 727.04,-105.83"/>
</a>
</g>
</g>
<!-- Node14&#45;&gt;Node9 -->
<g id="edge22_Node000014_Node000009" class="edge">
<title>Node14&#45;&gt;Node9</title>
<g id="a_edge22_Node000014_Node000009"><a xlink:title=" ">
<path fill="none" stroke="#63b8ff" d="M704.97,-107.2C668.13,-97.44 616.82,-83.84 583.26,-74.95"/>
<polygon fill="#63b8ff" stroke="#63b8ff" points="703.88,-110.53 714.44,-109.7 705.67,-103.76 703.88,-110.53"/>
</a>
</g>
</g>
<!-- Node15 -->
<g id="Node000015" class="node">
<title>Node15</title>
<g id="a_Node000015"><a xlink:href="SingleHumidistat_8cpp.html" target="_top" xlink:title=" ">
<polygon fill="white" stroke="#666666" points="1034.5,-74.5 877.5,-74.5 877.5,-55.25 1034.5,-55.25 1034.5,-74.5"/>
<text text-anchor="middle" x="956" y="-61" font-family="Helvetica,sans-Serif" font-size="10.00">src/control/SingleHumidistat.cpp</text>
</a>
</g>
</g>
<!-- Node14&#45;&gt;Node15 -->
<g id="edge19_Node000014_Node000015" class="edge">
<title>Node14&#45;&gt;Node15</title>
<g id="a_edge19_Node000014_Node000015"><a xlink:title=" ">
<path fill="none" stroke="#63b8ff" d="M795.66,-107.32C833.45,-97.55 886.35,-83.88 920.88,-74.95"/>
<polygon fill="#63b8ff" stroke="#63b8ff" points="795.22,-103.82 786.41,-109.71 796.97,-110.6 795.22,-103.82"/>
</a>
</g>
</g>
<!-- Node16 -->
<g id="Node000016" class="node">
<title>Node16</title>
<g id="a_Node000016"><a xlink:href="CharDisplayUI_8h.html" target="_top" xlink:title=" ">
<polygon fill="white" stroke="#666666" points="859.38,-74.5 746.62,-74.5 746.62,-55.25 859.38,-55.25 859.38,-74.5"/>
<text text-anchor="middle" x="803" y="-61" font-family="Helvetica,sans-Serif" font-size="10.00">src/ui/CharDisplayUI.h</text>
</a>
</g>
</g>
<!-- Node14&#45;&gt;Node16 -->
<g id="edge20_Node000014_Node000016" class="edge">
<title>Node14&#45;&gt;Node16</title>
<g id="a_edge20_Node000014_Node000016"><a xlink:title=" ">
<path fill="none" stroke="#63b8ff" d="M766.72,-102.32C775.78,-93.23 786.6,-82.35 794.06,-74.86"/>
<polygon fill="#63b8ff" stroke="#63b8ff" points="764.39,-99.7 759.82,-109.26 769.35,-104.64 764.39,-99.7"/>
</a>
</g>
</g>
<!-- Node17 -->
<g id="Node000017" class="node">
<title>Node17</title>
<g id="a_Node000017"><a xlink:href="CharDisplayUI_8cpp.html" target="_top" xlink:title=" ">
<polygon fill="white" stroke="#666666" points="864.62,-19.25 741.38,-19.25 741.38,0 864.62,0 864.62,-19.25"/>
<text text-anchor="middle" x="803" y="-5.75" font-family="Helvetica,sans-Serif" font-size="10.00">src/ui/CharDisplayUI.cpp</text>
</a>
</g>
</g>
<!-- Node16&#45;&gt;Node17 -->
<g id="edge21_Node000016_Node000017" class="edge">
<title>Node16&#45;&gt;Node17</title>
<g id="a_edge21_Node000016_Node000017"><a xlink:title=" ">
<path fill="none" stroke="#63b8ff" d="M803,-43.63C803,-35.34 803,-26.17 803,-19.61"/>
<polygon fill="#63b8ff" stroke="#63b8ff" points="799.5,-43.57 803,-53.57 806.5,-43.57 799.5,-43.57"/>
</a>
</g>
</g>
</g>
</svg>
