<?xml version="1.0" encoding="UTF-8" standalone="no"?>
<!DOCTYPE svg PUBLIC "-//W3C//DTD SVG 1.1//EN"
 "http://www.w3.org/Graphics/SVG/1.1/DTD/svg11.dtd">
<!-- Generated by graphviz version 12.0.0 (20240704.0754)
 -->
<!-- Title: src/ui/ControllerUI.h Pages: 1 -->
<svg width="546pt" height="138pt"
 viewBox="0.00 0.00 545.97 137.75" xmlns="http://www.w3.org/2000/svg" xmlns:xlink="http://www.w3.org/1999/xlink">
<g id="graph0" class="graph" transform="scale(1 1) rotate(0) translate(4 133.75)">
<title>src/ui/ControllerUI.h</title>
<!-- Node1 -->
<g id="Node000001" class="node">
<title>Node1</title>
<g id="a_Node000001"><a xlink:title=" ">
<polygon fill="#999999" stroke="#666666" points="218.85,-129.75 116.6,-129.75 116.6,-110.5 218.85,-110.5 218.85,-129.75"/>
<text text-anchor="middle" x="167.72" y="-116.25" font-family="Helvetica,sans-Serif" font-size="10.00">src/ui/ControllerUI.h</text>
</a>
</g>
</g>
<!-- Node2 -->
<g id="Node000002" class="node">
<title>Node2</title>
<g id="a_Node000002"><a xlink:title=" ">
<polygon fill="#e0e0e0" stroke="#999999" points="244.47,-19.25 196.97,-19.25 196.97,0 244.47,0 244.47,-19.25"/>
<text text-anchor="middle" x="220.72" y="-5.75" font-family="Helvetica,sans-Serif" font-size="10.00">stdint.h</text>
</a>
</g>
</g>
<!-- Node1&#45;&gt;Node2 -->
<g id="edge1_Node000001_Node000002" class="edge">
<title>Node1&#45;&gt;Node2</title>
<g id="a_edge1_Node000001_Node000002"><a xlink:title=" ">
<path fill="none" stroke="#63b8ff" d="M116.11,-115.83C57.94,-110.16 -24.57,-95.01 7.72,-55.25 29.69,-28.2 130.59,-16.96 185.27,-12.79"/>
<polygon fill="#63b8ff" stroke="#63b8ff" points="185.27,-16.3 195,-12.1 184.77,-9.32 185.27,-16.3"/>
</a>
</g>
</g>
<!-- Node3 -->
<g id="Node000003" class="node">
<title>Node3</title>
<g id="a_Node000003"><a xlink:title=" ">
<polygon fill="#e0e0e0" stroke="#999999" points="74.72,-74.5 16.72,-74.5 16.72,-55.25 74.72,-55.25 74.72,-74.5"/>
<text text-anchor="middle" x="45.72" y="-61" font-family="Helvetica,sans-Serif" font-size="10.00">etl/span.h</text>
</a>
</g>
</g>
<!-- Node1&#45;&gt;Node3 -->
<g id="edge2_Node000001_Node000003" class="edge">
<title>Node1&#45;&gt;Node3</title>
<g id="a_edge2_Node000001_Node000003"><a xlink:title=" ">
<path fill="none" stroke="#63b8ff" d="M147.03,-110.09C127.83,-101.72 99.01,-89.13 77.01,-79.53"/>
<polygon fill="#63b8ff" stroke="#63b8ff" points="78.47,-76.35 67.9,-75.56 75.67,-82.77 78.47,-76.35"/>
</a>
</g>
</g>
<!-- Node4 -->
<g id="Node000004" class="node">
<title>Node4</title>
<g id="a_Node000004"><a xlink:title=" ">
<polygon fill="#e0e0e0" stroke="#999999" points="136.6,-74.5 92.85,-74.5 92.85,-55.25 136.6,-55.25 136.6,-74.5"/>
<text text-anchor="middle" x="114.72" y="-61" font-family="Helvetica,sans-Serif" font-size="10.00">Print.h</text>
</a>
</g>
</g>
<!-- Node1&#45;&gt;Node4 -->
<g id="edge3_Node000001_Node000004" class="edge">
<title>Node1&#45;&gt;Node4</title>
<g id="a_edge3_Node000001_Node000004"><a xlink:title=" ">
<path fill="none" stroke="#63b8ff" d="M158.97,-110.33C151.57,-102.9 140.76,-92.04 131.68,-82.91"/>
<polygon fill="#63b8ff" stroke="#63b8ff" points="134.27,-80.55 124.73,-75.93 129.3,-85.49 134.27,-80.55"/>
</a>
</g>
</g>
<!-- Node5 -->
<g id="Node000005" class="node">
<title>Node5</title>
<g id="a_Node000005"><a xlink:href="ButtonReader_8h.html" target="_top" xlink:title=" ">
<polygon fill="white" stroke="#666666" points="412.1,-74.5 305.35,-74.5 305.35,-55.25 412.1,-55.25 412.1,-74.5"/>
<text text-anchor="middle" x="358.72" y="-61" font-family="Helvetica,sans-Serif" font-size="10.00">input/ButtonReader.h</text>
</a>
</g>
</g>
<!-- Node1&#45;&gt;Node5 -->
<g id="edge4_Node000001_Node000005" class="edge">
<title>Node1&#45;&gt;Node5</title>
<g id="a_edge4_Node000001_Node000005"><a xlink:title=" ">
<path fill="none" stroke="#63b8ff" d="M200.12,-110.09C231.81,-101.26 280.29,-87.74 315.3,-77.98"/>
<polygon fill="#63b8ff" stroke="#63b8ff" points="316.01,-81.42 324.7,-75.36 314.13,-74.67 316.01,-81.42"/>
</a>
</g>
</g>
<!-- Node8 -->
<g id="Node000008" class="node">
<title>Node8</title>
<g id="a_Node000008"><a xlink:href="ThermistorReader_8h.html" target="_top" xlink:title=" ">
<polygon fill="white" stroke="#666666" points="287.22,-74.5 154.22,-74.5 154.22,-55.25 287.22,-55.25 287.22,-74.5"/>
<text text-anchor="middle" x="220.72" y="-61" font-family="Helvetica,sans-Serif" font-size="10.00">sensor/ThermistorReader.h</text>
</a>
</g>
</g>
<!-- Node1&#45;&gt;Node8 -->
<g id="edge8_Node000001_Node000008" class="edge">
<title>Node1&#45;&gt;Node8</title>
<g id="a_edge8_Node000001_Node000008"><a xlink:title=" ">
<path fill="none" stroke="#63b8ff" d="M176.47,-110.33C183.87,-102.9 194.68,-92.04 203.77,-82.91"/>
<polygon fill="#63b8ff" stroke="#63b8ff" points="206.14,-85.49 210.71,-75.93 201.18,-80.55 206.14,-85.49"/>
</a>
</g>
</g>
<!-- Node9 -->
<g id="Node000009" class="node">
<title>Node9</title>
<g id="a_Node000009"><a xlink:href="asprintf_8h.html" target="_top" xlink:title=" ">
<polygon fill="white" stroke="#666666" points="485.6,-74.5 429.85,-74.5 429.85,-55.25 485.6,-55.25 485.6,-74.5"/>
<text text-anchor="middle" x="457.72" y="-61" font-family="Helvetica,sans-Serif" font-size="10.00">asprintf.h</text>
</a>
</g>
</g>
<!-- Node1&#45;&gt;Node9 -->
<g id="edge10_Node000001_Node000009" class="edge">
<title>Node1&#45;&gt;Node9</title>
<g id="a_edge10_Node000001_Node000009"><a xlink:title=" ">
<path fill="none" stroke="#63b8ff" d="M219.24,-110.88C268.07,-102.88 343.74,-89.99 418.46,-74.87"/>
<polygon fill="#63b8ff" stroke="#63b8ff" points="418.89,-78.36 427.99,-72.93 417.49,-71.5 418.89,-78.36"/>
</a>
</g>
</g>
<!-- Node5&#45;&gt;Node2 -->
<g id="edge5_Node000005_Node000002" class="edge">
<title>Node5&#45;&gt;Node2</title>
<g id="a_edge5_Node000005_Node000002"><a xlink:title=" ">
<path fill="none" stroke="#63b8ff" d="M335.31,-54.84C313.21,-46.31 279.8,-33.42 254.75,-23.76"/>
<polygon fill="#63b8ff" stroke="#63b8ff" points="256.25,-20.58 245.66,-20.25 253.73,-27.11 256.25,-20.58"/>
</a>
</g>
</g>
<!-- Node6 -->
<g id="Node000006" class="node">
<title>Node6</title>
<g id="a_Node000006"><a xlink:href="aliases_8h.html" target="_top" xlink:title=" ">
<polygon fill="white" stroke="#666666" points="328.85,-19.25 274.6,-19.25 274.6,0 328.85,0 328.85,-19.25"/>
<text text-anchor="middle" x="301.72" y="-5.75" font-family="Helvetica,sans-Serif" font-size="10.00">aliases.h</text>
</a>
</g>
</g>
<!-- Node5&#45;&gt;Node6 -->
<g id="edge6_Node000005_Node000006" class="edge">
<title>Node5&#45;&gt;Node6</title>
<g id="a_edge6_Node000005_Node000006"><a xlink:title=" ">
<path fill="none" stroke="#63b8ff" d="M349.05,-54.84C340.98,-47.3 329.25,-36.35 319.5,-27.23"/>
<polygon fill="#63b8ff" stroke="#63b8ff" points="322.05,-24.83 312.35,-20.56 317.27,-29.94 322.05,-24.83"/>
</a>
</g>
</g>
<!-- Node7 -->
<g id="Node000007" class="node">
<title>Node7</title>
<g id="a_Node000007"><a xlink:href="Buttons_8h.html" target="_top" xlink:title=" ">
<polygon fill="white" stroke="#666666" points="404.35,-19.25 347.1,-19.25 347.1,0 404.35,0 404.35,-19.25"/>
<text text-anchor="middle" x="375.72" y="-5.75" font-family="Helvetica,sans-Serif" font-size="10.00">Buttons.h</text>
</a>
</g>
</g>
<!-- Node5&#45;&gt;Node7 -->
<g id="edge7_Node000005_Node000007" class="edge">
<title>Node5&#45;&gt;Node7</title>
<g id="a_edge7_Node000005_Node000007"><a xlink:title=" ">
<path fill="none" stroke="#63b8ff" d="M361.53,-55.08C363.66,-48.42 366.67,-38.99 369.37,-30.53"/>
<polygon fill="#63b8ff" stroke="#63b8ff" points="372.69,-31.64 372.39,-21.05 366.02,-29.51 372.69,-31.64"/>
</a>
</g>
</g>
<!-- Node8&#45;&gt;Node2 -->
<g id="edge9_Node000008_Node000002" class="edge">
<title>Node8&#45;&gt;Node2</title>
<g id="a_edge9_Node000008_Node000002"><a xlink:title=" ">
<path fill="none" stroke="#63b8ff" d="M220.72,-55.08C220.72,-48.57 220.72,-39.42 220.72,-31.12"/>
<polygon fill="#63b8ff" stroke="#63b8ff" points="224.22,-31.12 220.72,-21.12 217.22,-31.12 224.22,-31.12"/>
</a>
</g>
</g>
<!-- Node10 -->
<g id="Node000010" class="node">
<title>Node10</title>
<g id="a_Node000010"><a xlink:title=" ">
<polygon fill="#e0e0e0" stroke="#999999" points="475.1,-19.25 428.35,-19.25 428.35,0 475.1,0 475.1,-19.25"/>
<text text-anchor="middle" x="451.72" y="-5.75" font-family="Helvetica,sans-Serif" font-size="10.00">stdlib.h</text>
</a>
</g>
</g>
<!-- Node9&#45;&gt;Node10 -->
<g id="edge11_Node000009_Node000010" class="edge">
<title>Node9&#45;&gt;Node10</title>
<g id="a_edge11_Node000009_Node000010"><a xlink:title=" ">
<path fill="none" stroke="#63b8ff" d="M456.73,-55.08C455.99,-48.49 454.94,-39.21 454,-30.82"/>
<polygon fill="#63b8ff" stroke="#63b8ff" points="457.5,-30.66 452.9,-21.11 450.54,-31.44 457.5,-30.66"/>
</a>
</g>
</g>
<!-- Node11 -->
<g id="Node000011" class="node">
<title>Node11</title>
<g id="a_Node000011"><a xlink:title=" ">
<polygon fill="#e0e0e0" stroke="#999999" points="537.97,-19.25 493.47,-19.25 493.47,0 537.97,0 537.97,-19.25"/>
<text text-anchor="middle" x="515.72" y="-5.75" font-family="Helvetica,sans-Serif" font-size="10.00">stdio.h</text>
</a>
</g>
</g>
<!-- Node9&#45;&gt;Node11 -->
<g id="edge12_Node000009_Node000011" class="edge">
<title>Node9&#45;&gt;Node11</title>
<g id="a_edge12_Node000009_Node000011"><a xlink:title=" ">
<path fill="none" stroke="#63b8ff" d="M467.56,-54.84C475.77,-47.3 487.7,-36.35 497.63,-27.23"/>
<polygon fill="#63b8ff" stroke="#63b8ff" points="499.91,-29.89 504.91,-20.55 495.18,-24.73 499.91,-29.89"/>
</a>
</g>
</g>
</g>
</svg>
