<?xml version="1.0" encoding="UTF-8" standalone="no"?>
<!DOCTYPE svg PUBLIC "-//W3C//DTD SVG 1.1//EN"
 "http://www.w3.org/Graphics/SVG/1.1/DTD/svg11.dtd">
<!-- Generated by graphviz version 12.0.0 (20240704.0754)
 -->
<!-- Title: src/ui/ControllerUI.cpp Pages: 1 -->
<svg width="546pt" height="193pt"
 viewBox="0.00 0.00 545.91 193.00" xmlns="http://www.w3.org/2000/svg" xmlns:xlink="http://www.w3.org/1999/xlink">
<g id="graph0" class="graph" transform="scale(1 1) rotate(0) translate(4 189)">
<title>src/ui/ControllerUI.cpp</title>
<!-- Node1 -->
<g id="Node000001" class="node">
<title>Node1</title>
<g id="a_Node000001"><a xlink:title=" ">
<polygon fill="#999999" stroke="#666666" points="224.03,-185 111.28,-185 111.28,-165.75 224.03,-165.75 224.03,-185"/>
<text text-anchor="middle" x="167.66" y="-171.5" font-family="Helvetica,sans-Serif" font-size="10.00">src/ui/ControllerUI.cpp</text>
</a>
</g>
</g>
<!-- Node2 -->
<g id="Node000002" class="node">
<title>Node2</title>
<g id="a_Node000002"><a xlink:href="ControllerUI_8h.html" target="_top" xlink:title=" ">
<polygon fill="white" stroke="#666666" points="205.28,-129.75 130.03,-129.75 130.03,-110.5 205.28,-110.5 205.28,-129.75"/>
<text text-anchor="middle" x="167.66" y="-116.25" font-family="Helvetica,sans-Serif" font-size="10.00">ControllerUI.h</text>
</a>
</g>
</g>
<!-- Node1&#45;&gt;Node2 -->
<g id="edge1_Node000001_Node000002" class="edge">
<title>Node1&#45;&gt;Node2</title>
<g id="a_edge1_Node000001_Node000002"><a xlink:title=" ">
<path fill="none" stroke="#63b8ff" d="M167.66,-165.58C167.66,-159.07 167.66,-149.92 167.66,-141.62"/>
<polygon fill="#63b8ff" stroke="#63b8ff" points="171.16,-141.62 167.66,-131.62 164.16,-141.62 171.16,-141.62"/>
</a>
</g>
</g>
<!-- Node3 -->
<g id="Node000003" class="node">
<title>Node3</title>
<g id="a_Node000003"><a xlink:title=" ">
<polygon fill="#e0e0e0" stroke="#999999" points="244.41,-19.25 196.91,-19.25 196.91,0 244.41,0 244.41,-19.25"/>
<text text-anchor="middle" x="220.66" y="-5.75" font-family="Helvetica,sans-Serif" font-size="10.00">stdint.h</text>
</a>
</g>
</g>
<!-- Node2&#45;&gt;Node3 -->
<g id="edge2_Node000002_Node000003" class="edge">
<title>Node2&#45;&gt;Node3</title>
<g id="a_edge2_Node000002_Node000003"><a xlink:title=" ">
<path fill="none" stroke="#63b8ff" d="M129.98,-117.06C72.4,-112.51 -27.32,-98.32 7.66,-55.25 29.63,-28.2 130.53,-16.96 185.2,-12.79"/>
<polygon fill="#63b8ff" stroke="#63b8ff" points="185.21,-16.3 194.93,-12.1 184.71,-9.32 185.21,-16.3"/>
</a>
</g>
</g>
<!-- Node4 -->
<g id="Node000004" class="node">
<title>Node4</title>
<g id="a_Node000004"><a xlink:title=" ">
<polygon fill="#e0e0e0" stroke="#999999" points="74.66,-74.5 16.66,-74.5 16.66,-55.25 74.66,-55.25 74.66,-74.5"/>
<text text-anchor="middle" x="45.66" y="-61" font-family="Helvetica,sans-Serif" font-size="10.00">etl/span.h</text>
</a>
</g>
</g>
<!-- Node2&#45;&gt;Node4 -->
<g id="edge3_Node000002_Node000004" class="edge">
<title>Node2&#45;&gt;Node4</title>
<g id="a_edge3_Node000002_Node000004"><a xlink:title=" ">
<path fill="none" stroke="#63b8ff" d="M146.96,-110.09C127.77,-101.72 98.94,-89.13 76.94,-79.53"/>
<polygon fill="#63b8ff" stroke="#63b8ff" points="78.41,-76.35 67.84,-75.56 75.61,-82.77 78.41,-76.35"/>
</a>
</g>
</g>
<!-- Node5 -->
<g id="Node000005" class="node">
<title>Node5</title>
<g id="a_Node000005"><a xlink:title=" ">
<polygon fill="#e0e0e0" stroke="#999999" points="136.53,-74.5 92.78,-74.5 92.78,-55.25 136.53,-55.25 136.53,-74.5"/>
<text text-anchor="middle" x="114.66" y="-61" font-family="Helvetica,sans-Serif" font-size="10.00">Print.h</text>
</a>
</g>
</g>
<!-- Node2&#45;&gt;Node5 -->
<g id="edge4_Node000002_Node000005" class="edge">
<title>Node2&#45;&gt;Node5</title>
<g id="a_edge4_Node000002_Node000005"><a xlink:title=" ">
<path fill="none" stroke="#63b8ff" d="M158.9,-110.33C151.51,-102.9 140.7,-92.04 131.61,-82.91"/>
<polygon fill="#63b8ff" stroke="#63b8ff" points="134.2,-80.55 124.67,-75.93 129.24,-85.49 134.2,-80.55"/>
</a>
</g>
</g>
<!-- Node6 -->
<g id="Node000006" class="node">
<title>Node6</title>
<g id="a_Node000006"><a xlink:href="ButtonReader_8h.html" target="_top" xlink:title=" ">
<polygon fill="white" stroke="#666666" points="412.03,-74.5 305.28,-74.5 305.28,-55.25 412.03,-55.25 412.03,-74.5"/>
<text text-anchor="middle" x="358.66" y="-61" font-family="Helvetica,sans-Serif" font-size="10.00">input/ButtonReader.h</text>
</a>
</g>
</g>
<!-- Node2&#45;&gt;Node6 -->
<g id="edge5_Node000002_Node000006" class="edge">
<title>Node2&#45;&gt;Node6</title>
<g id="a_edge5_Node000002_Node000006"><a xlink:title=" ">
<path fill="none" stroke="#63b8ff" d="M200.06,-110.09C231.75,-101.26 280.22,-87.74 315.24,-77.98"/>
<polygon fill="#63b8ff" stroke="#63b8ff" points="315.95,-81.42 324.64,-75.36 314.07,-74.67 315.95,-81.42"/>
</a>
</g>
</g>
<!-- Node9 -->
<g id="Node000009" class="node">
<title>Node9</title>
<g id="a_Node000009"><a xlink:href="ThermistorReader_8h.html" target="_top" xlink:title=" ">
<polygon fill="white" stroke="#666666" points="287.16,-74.5 154.16,-74.5 154.16,-55.25 287.16,-55.25 287.16,-74.5"/>
<text text-anchor="middle" x="220.66" y="-61" font-family="Helvetica,sans-Serif" font-size="10.00">sensor/ThermistorReader.h</text>
</a>
</g>
</g>
<!-- Node2&#45;&gt;Node9 -->
<g id="edge9_Node000002_Node000009" class="edge">
<title>Node2&#45;&gt;Node9</title>
<g id="a_edge9_Node000002_Node000009"><a xlink:title=" ">
<path fill="none" stroke="#63b8ff" d="M176.41,-110.33C183.81,-102.9 194.62,-92.04 203.7,-82.91"/>
<polygon fill="#63b8ff" stroke="#63b8ff" points="206.07,-85.49 210.65,-75.93 201.11,-80.55 206.07,-85.49"/>
</a>
</g>
</g>
<!-- Node10 -->
<g id="Node000010" class="node">
<title>Node10</title>
<g id="a_Node000010"><a xlink:href="asprintf_8h.html" target="_top" xlink:title=" ">
<polygon fill="white" stroke="#666666" points="485.53,-74.5 429.78,-74.5 429.78,-55.25 485.53,-55.25 485.53,-74.5"/>
<text text-anchor="middle" x="457.66" y="-61" font-family="Helvetica,sans-Serif" font-size="10.00">asprintf.h</text>
</a>
</g>
</g>
<!-- Node2&#45;&gt;Node10 -->
<g id="edge11_Node000002_Node000010" class="edge">
<title>Node2&#45;&gt;Node10</title>
<g id="a_edge11_Node000002_Node000010"><a xlink:title=" ">
<path fill="none" stroke="#63b8ff" d="M205.5,-113.11C252.94,-105.43 337,-91.33 418.46,-74.86"/>
<polygon fill="#63b8ff" stroke="#63b8ff" points="418.83,-78.36 427.93,-72.93 417.43,-71.5 418.83,-78.36"/>
</a>
</g>
</g>
<!-- Node6&#45;&gt;Node3 -->
<g id="edge6_Node000006_Node000003" class="edge">
<title>Node6&#45;&gt;Node3</title>
<g id="a_edge6_Node000006_Node000003"><a xlink:title=" ">
<path fill="none" stroke="#63b8ff" d="M335.25,-54.84C313.14,-46.31 279.74,-33.42 254.69,-23.76"/>
<polygon fill="#63b8ff" stroke="#63b8ff" points="256.18,-20.58 245.59,-20.25 253.66,-27.11 256.18,-20.58"/>
</a>
</g>
</g>
<!-- Node7 -->
<g id="Node000007" class="node">
<title>Node7</title>
<g id="a_Node000007"><a xlink:href="aliases_8h.html" target="_top" xlink:title=" ">
<polygon fill="white" stroke="#666666" points="328.78,-19.25 274.53,-19.25 274.53,0 328.78,0 328.78,-19.25"/>
<text text-anchor="middle" x="301.66" y="-5.75" font-family="Helvetica,sans-Serif" font-size="10.00">aliases.h</text>
</a>
</g>
</g>
<!-- Node6&#45;&gt;Node7 -->
<g id="edge7_Node000006_Node000007" class="edge">
<title>Node6&#45;&gt;Node7</title>
<g id="a_edge7_Node000006_Node000007"><a xlink:title=" ">
<path fill="none" stroke="#63b8ff" d="M348.99,-54.84C340.91,-47.3 329.19,-36.35 319.43,-27.23"/>
<polygon fill="#63b8ff" stroke="#63b8ff" points="321.99,-24.83 312.29,-20.56 317.21,-29.94 321.99,-24.83"/>
</a>
</g>
</g>
<!-- Node8 -->
<g id="Node000008" class="node">
<title>Node8</title>
<g id="a_Node000008"><a xlink:href="Buttons_8h.html" target="_top" xlink:title=" ">
<polygon fill="white" stroke="#666666" points="404.28,-19.25 347.03,-19.25 347.03,0 404.28,0 404.28,-19.25"/>
<text text-anchor="middle" x="375.66" y="-5.75" font-family="Helvetica,sans-Serif" font-size="10.00">Buttons.h</text>
</a>
</g>
</g>
<!-- Node6&#45;&gt;Node8 -->
<g id="edge8_Node000006_Node000008" class="edge">
<title>Node6&#45;&gt;Node8</title>
<g id="a_edge8_Node000006_Node000008"><a xlink:title=" ">
<path fill="none" stroke="#63b8ff" d="M361.46,-55.08C363.59,-48.42 366.6,-38.99 369.3,-30.53"/>
<polygon fill="#63b8ff" stroke="#63b8ff" points="372.62,-31.64 372.33,-21.05 365.95,-29.51 372.62,-31.64"/>
</a>
</g>
</g>
<!-- Node9&#45;&gt;Node3 -->
<g id="edge10_Node000009_Node000003" class="edge">
<title>Node9&#45;&gt;Node3</title>
<g id="a_edge10_Node000009_Node000003"><a xlink:title=" ">
<path fill="none" stroke="#63b8ff" d="M220.66,-55.08C220.66,-48.57 220.66,-39.42 220.66,-31.12"/>
<polygon fill="#63b8ff" stroke="#63b8ff" points="224.16,-31.12 220.66,-21.12 217.16,-31.12 224.16,-31.12"/>
</a>
</g>
</g>
<!-- Node11 -->
<g id="Node000011" class="node">
<title>Node11</title>
<g id="a_Node000011"><a xlink:title=" ">
<polygon fill="#e0e0e0" stroke="#999999" points="475.03,-19.25 428.28,-19.25 428.28,0 475.03,0 475.03,-19.25"/>
<text text-anchor="middle" x="451.66" y="-5.75" font-family="Helvetica,sans-Serif" font-size="10.00">stdlib.h</text>
</a>
</g>
</g>
<!-- Node10&#45;&gt;Node11 -->
<g id="edge12_Node000010_Node000011" class="edge">
<title>Node10&#45;&gt;Node11</title>
<g id="a_edge12_Node000010_Node000011"><a xlink:title=" ">
<path fill="none" stroke="#63b8ff" d="M456.67,-55.08C455.92,-48.49 454.88,-39.21 453.93,-30.82"/>
<polygon fill="#63b8ff" stroke="#63b8ff" points="457.44,-30.66 452.84,-21.11 450.48,-31.44 457.44,-30.66"/>
</a>
</g>
</g>
<!-- Node12 -->
<g id="Node000012" class="node">
<title>Node12</title>
<g id="a_Node000012"><a xlink:title=" ">
<polygon fill="#e0e0e0" stroke="#999999" points="537.91,-19.25 493.41,-19.25 493.41,0 537.91,0 537.91,-19.25"/>
<text text-anchor="middle" x="515.66" y="-5.75" font-family="Helvetica,sans-Serif" font-size="10.00">stdio.h</text>
</a>
</g>
</g>
<!-- Node10&#45;&gt;Node12 -->
<g id="edge13_Node000010_Node000012" class="edge">
<title>Node10&#45;&gt;Node12</title>
<g id="a_edge13_Node000010_Node000012"><a xlink:title=" ">
<path fill="none" stroke="#63b8ff" d="M467.5,-54.84C475.71,-47.3 487.64,-36.35 497.57,-27.23"/>
<polygon fill="#63b8ff" stroke="#63b8ff" points="499.85,-29.89 504.85,-20.55 495.11,-24.73 499.85,-29.89"/>
</a>
</g>
</g>
</g>
</svg>
