<?xml version="1.0" encoding="UTF-8" standalone="no"?>
<!DOCTYPE svg PUBLIC "-//W3C//DTD SVG 1.1//EN"
 "http://www.w3.org/Graphics/SVG/1.1/DTD/svg11.dtd">
<!-- Generated by graphviz version 9.0.0 (20230911.1827)
 -->
<!-- Title: src/control/Controller.h Pages: 1 -->
<svg width="1044pt" height="248pt"
 viewBox="0.00 0.00 1043.50 248.25" xmlns="http://www.w3.org/2000/svg" xmlns:xlink="http://www.w3.org/1999/xlink">
<g id="graph0" class="graph" transform="scale(1 1) rotate(0) translate(4 244.25)">
<title>src/control/Controller.h</title>
<!-- Node1 -->
<g id="Node000001" class="node">
<title>Node1</title>
<g id="a_Node000001"><a xlink:title=" ">
<polygon fill="#999999" stroke="#666666" points="255.75,-240.25 142.25,-240.25 142.25,-221 255.75,-221 255.75,-240.25"/>
<text text-anchor="middle" x="199" y="-226.75" font-family="Helvetica,sans-Serif" font-size="10.00">src/control/Controller.h</text>
</a>
</g>
</g>
<!-- Node2 -->
<g id="Node000002" class="node">
<title>Node2</title>
<g id="a_Node000002"><a xlink:href="Controller_8cpp.html" target="_top" xlink:title=" ">
<polygon fill="white" stroke="#666666" points="124,-185 0,-185 0,-165.75 124,-165.75 124,-185"/>
<text text-anchor="middle" x="62" y="-171.5" font-family="Helvetica,sans-Serif" font-size="10.00">src/control/Controller.cpp</text>
</a>
</g>
</g>
<!-- Node1&#45;&gt;Node2 -->
<g id="edge1_Node000001_Node000002" class="edge">
<title>Node1&#45;&gt;Node2</title>
<g id="a_edge1_Node000001_Node000002"><a xlink:title=" ">
<path fill="none" stroke="#63b8ff" d="M165.34,-216.54C140.51,-206.89 107.34,-194 85.35,-185.45"/>
<polygon fill="#63b8ff" stroke="#63b8ff" points="163.76,-219.68 174.35,-220.04 166.3,-213.16 163.76,-219.68"/>
</a>
</g>
</g>
<!-- Node3 -->
<g id="Node000003" class="node">
<title>Node3</title>
<g id="a_Node000003"><a xlink:href="FlowController_8cpp.html" target="_top" xlink:title=" ">
<polygon fill="white" stroke="#666666" points="184.5,-129.75 39.5,-129.75 39.5,-110.5 184.5,-110.5 184.5,-129.75"/>
<text text-anchor="middle" x="112" y="-116.25" font-family="Helvetica,sans-Serif" font-size="10.00">src/control/FlowController.cpp</text>
</a>
</g>
</g>
<!-- Node1&#45;&gt;Node3 -->
<g id="edge2_Node000001_Node000003" class="edge">
<title>Node1&#45;&gt;Node3</title>
<g id="a_edge2_Node000001_Node000003"><a xlink:title=" ">
<path fill="none" stroke="#63b8ff" d="M184.75,-211.85C165.95,-188.41 133.58,-148.03 119.22,-130.13"/>
<polygon fill="#63b8ff" stroke="#63b8ff" points="181.95,-213.95 190.93,-219.57 187.41,-209.57 181.95,-213.95"/>
</a>
</g>
</g>
<!-- Node4 -->
<g id="Node000004" class="node">
<title>Node4</title>
<g id="a_Node000004"><a xlink:href="FlowController_8h.html" target="_top" xlink:title=" ">
<polygon fill="white" stroke="#666666" points="314.25,-185 179.75,-185 179.75,-165.75 314.25,-165.75 314.25,-185"/>
<text text-anchor="middle" x="247" y="-171.5" font-family="Helvetica,sans-Serif" font-size="10.00">src/control/FlowController.h</text>
</a>
</g>
</g>
<!-- Node1&#45;&gt;Node4 -->
<g id="edge3_Node000001_Node000004" class="edge">
<title>Node1&#45;&gt;Node4</title>
<g id="a_edge3_Node000001_Node000004"><a xlink:title=" ">
<path fill="none" stroke="#63b8ff" d="M214.4,-212.54C222.55,-203.5 232.22,-192.77 238.9,-185.36"/>
<polygon fill="#63b8ff" stroke="#63b8ff" points="212.04,-209.94 207.94,-219.71 217.23,-214.62 212.04,-209.94"/>
</a>
</g>
</g>
<!-- Node10 -->
<g id="Node000010" class="node">
<title>Node10</title>
<g id="a_Node000010"><a xlink:href="Humidistat_8h.html" target="_top" xlink:title=" ">
<polygon fill="white" stroke="#666666" points="492.75,-185 373.25,-185 373.25,-165.75 492.75,-165.75 492.75,-185"/>
<text text-anchor="middle" x="433" y="-171.5" font-family="Helvetica,sans-Serif" font-size="10.00">src/control/Humidistat.h</text>
</a>
</g>
</g>
<!-- Node1&#45;&gt;Node10 -->
<g id="edge10_Node000001_Node000010" class="edge">
<title>Node1&#45;&gt;Node10</title>
<g id="a_edge10_Node000001_Node000010"><a xlink:title=" ">
<path fill="none" stroke="#63b8ff" d="M250.04,-218.01C293.05,-208.22 353.72,-194.42 393.2,-185.43"/>
<polygon fill="#63b8ff" stroke="#63b8ff" points="249.41,-214.56 240.44,-220.2 250.96,-221.39 249.41,-214.56"/>
</a>
</g>
</g>
<!-- Node4&#45;&gt;Node3 -->
<g id="edge9_Node000004_Node000003" class="edge">
<title>Node4&#45;&gt;Node3</title>
<g id="a_edge9_Node000004_Node000003"><a xlink:title=" ">
<path fill="none" stroke="#63b8ff" d="M213.51,-161.16C189.07,-151.52 156.58,-138.71 135.01,-130.2"/>
<polygon fill="#63b8ff" stroke="#63b8ff" points="212.1,-164.37 222.69,-164.79 214.67,-157.86 212.1,-164.37"/>
</a>
</g>
</g>
<!-- Node5 -->
<g id="Node000005" class="node">
<title>Node5</title>
<g id="a_Node000005"><a xlink:href="CascadeHumidistat_8h.html" target="_top" xlink:title=" ">
<polygon fill="white" stroke="#666666" points="511.88,-129.75 354.12,-129.75 354.12,-110.5 511.88,-110.5 511.88,-129.75"/>
<text text-anchor="middle" x="433" y="-116.25" font-family="Helvetica,sans-Serif" font-size="10.00">src/control/CascadeHumidistat.h</text>
</a>
</g>
</g>
<!-- Node4&#45;&gt;Node5 -->
<g id="edge4_Node000004_Node000005" class="edge">
<title>Node4&#45;&gt;Node5</title>
<g id="a_edge4_Node000004_Node000005"><a xlink:title=" ">
<path fill="none" stroke="#63b8ff" d="M289.55,-162.19C323.57,-152.45 370.51,-139.02 401.29,-130.2"/>
<polygon fill="#63b8ff" stroke="#63b8ff" points="288.66,-158.81 280.01,-164.93 290.58,-165.54 288.66,-158.81"/>
</a>
</g>
</g>
<!-- Node6 -->
<g id="Node000006" class="node">
<title>Node6</title>
<g id="a_Node000006"><a xlink:href="SerialLogger_8h.html" target="_top" xlink:title=" ">
<polygon fill="white" stroke="#666666" points="729.38,-74.5 634.62,-74.5 634.62,-55.25 729.38,-55.25 729.38,-74.5"/>
<text text-anchor="middle" x="682" y="-61" font-family="Helvetica,sans-Serif" font-size="10.00">src/SerialLogger.h</text>
</a>
</g>
</g>
<!-- Node5&#45;&gt;Node6 -->
<g id="edge5_Node000005_Node000006" class="edge">
<title>Node5&#45;&gt;Node6</title>
<g id="a_edge5_Node000005_Node000006"><a xlink:title=" ">
<path fill="none" stroke="#63b8ff" d="M486.73,-107.63C532.53,-97.84 597.46,-83.95 639.65,-74.93"/>
<polygon fill="#63b8ff" stroke="#63b8ff" points="486.05,-104.2 477,-109.71 487.51,-111.05 486.05,-104.2"/>
</a>
</g>
</g>
<!-- Node8 -->
<g id="Node000008" class="node">
<title>Node8</title>
<g id="a_Node000008"><a xlink:href="CascadeHumidistat_8cpp.html" target="_top" xlink:title=" ">
<polygon fill="white" stroke="#666666" points="465.12,-74.5 296.88,-74.5 296.88,-55.25 465.12,-55.25 465.12,-74.5"/>
<text text-anchor="middle" x="381" y="-61" font-family="Helvetica,sans-Serif" font-size="10.00">src/control/CascadeHumidistat.cpp</text>
</a>
</g>
</g>
<!-- Node5&#45;&gt;Node8 -->
<g id="edge7_Node000005_Node000008" class="edge">
<title>Node5&#45;&gt;Node8</title>
<g id="a_edge7_Node000005_Node000008"><a xlink:title=" ">
<path fill="none" stroke="#63b8ff" d="M416.59,-102.32C407.71,-93.23 397.09,-82.35 389.77,-74.86"/>
<polygon fill="#63b8ff" stroke="#63b8ff" points="413.87,-104.54 423.36,-109.25 418.87,-99.65 413.87,-104.54"/>
</a>
</g>
</g>
<!-- Node9 -->
<g id="Node000009" class="node">
<title>Node9</title>
<g id="a_Node000009"><a xlink:href="GraphicalDisplayUI_8h.html" target="_top" xlink:title=" ">
<polygon fill="white" stroke="#666666" points="616.88,-74.5 483.12,-74.5 483.12,-55.25 616.88,-55.25 616.88,-74.5"/>
<text text-anchor="middle" x="550" y="-61" font-family="Helvetica,sans-Serif" font-size="10.00">src/ui/GraphicalDisplayUI.h</text>
</a>
</g>
</g>
<!-- Node5&#45;&gt;Node9 -->
<g id="edge8_Node000005_Node000009" class="edge">
<title>Node5&#45;&gt;Node9</title>
<g id="a_edge8_Node000005_Node000009"><a xlink:title=" ">
<path fill="none" stroke="#63b8ff" d="M463.18,-105.39C484.22,-95.81 511.7,-83.31 530.06,-74.95"/>
<polygon fill="#63b8ff" stroke="#63b8ff" points="461.88,-102.14 454.23,-109.46 464.78,-108.51 461.88,-102.14"/>
</a>
</g>
</g>
<!-- Node7 -->
<g id="Node000007" class="node">
<title>Node7</title>
<g id="a_Node000007"><a xlink:href="main_8cpp.html" target="_top" xlink:title=" ">
<polygon fill="white" stroke="#666666" points="430.75,-19.25 359.25,-19.25 359.25,0 430.75,0 430.75,-19.25"/>
<text text-anchor="middle" x="395" y="-5.75" font-family="Helvetica,sans-Serif" font-size="10.00">src/main.cpp</text>
</a>
</g>
</g>
<!-- Node6&#45;&gt;Node7 -->
<g id="edge6_Node000006_Node000007" class="edge">
<title>Node6&#45;&gt;Node7</title>
<g id="a_edge6_Node000006_Node000007"><a xlink:title=" ">
<path fill="none" stroke="#63b8ff" d="M623.14,-52.95C565.4,-42.24 479.23,-26.25 431,-17.31"/>
<polygon fill="#63b8ff" stroke="#63b8ff" points="622.33,-56.36 632.8,-54.75 623.6,-49.48 622.33,-56.36"/>
</a>
</g>
</g>
<!-- Node10&#45;&gt;Node5 -->
<g id="edge15_Node000010_Node000005" class="edge">
<title>Node10&#45;&gt;Node5</title>
<g id="a_edge15_Node000010_Node000005"><a xlink:title=" ">
<path fill="none" stroke="#63b8ff" d="M433,-154.13C433,-145.84 433,-136.67 433,-130.11"/>
<polygon fill="#63b8ff" stroke="#63b8ff" points="429.5,-154.07 433,-164.07 436.5,-154.07 429.5,-154.07"/>
</a>
</g>
</g>
<!-- Node11 -->
<g id="Node000011" class="node">
<title>Node11</title>
<g id="a_Node000011"><a xlink:href="SetpointProfileRunner_8h.html" target="_top" xlink:title=" ">
<polygon fill="white" stroke="#666666" points="335.88,-129.75 202.12,-129.75 202.12,-110.5 335.88,-110.5 335.88,-129.75"/>
<text text-anchor="middle" x="269" y="-116.25" font-family="Helvetica,sans-Serif" font-size="10.00">src/SetpointProfileRunner.h</text>
</a>
</g>
</g>
<!-- Node10&#45;&gt;Node11 -->
<g id="edge11_Node000010_Node000011" class="edge">
<title>Node10&#45;&gt;Node11</title>
<g id="a_edge11_Node000010_Node000011"><a xlink:title=" ">
<path fill="none" stroke="#63b8ff" d="M394.3,-161.81C364.41,-152.1 323.75,-138.9 296.96,-130.2"/>
<polygon fill="#63b8ff" stroke="#63b8ff" points="393.15,-165.12 403.74,-164.87 395.31,-158.46 393.15,-165.12"/>
</a>
</g>
</g>
<!-- Node13 -->
<g id="Node000013" class="node">
<title>Node13</title>
<g id="a_Node000013"><a xlink:href="Humidistat_8cpp.html" target="_top" xlink:title=" ">
<polygon fill="white" stroke="#666666" points="660,-129.75 530,-129.75 530,-110.5 660,-110.5 660,-129.75"/>
<text text-anchor="middle" x="595" y="-116.25" font-family="Helvetica,sans-Serif" font-size="10.00">src/control/Humidistat.cpp</text>
</a>
</g>
</g>
<!-- Node10&#45;&gt;Node13 -->
<g id="edge16_Node000010_Node000013" class="edge">
<title>Node10&#45;&gt;Node13</title>
<g id="a_edge16_Node000010_Node000013"><a xlink:title=" ">
<path fill="none" stroke="#63b8ff" d="M471.23,-161.81C500.76,-152.1 540.92,-138.9 567.38,-130.2"/>
<polygon fill="#63b8ff" stroke="#63b8ff" points="470.33,-158.42 461.92,-164.87 472.51,-165.07 470.33,-158.42"/>
</a>
</g>
</g>
<!-- Node14 -->
<g id="Node000014" class="node">
<title>Node14</title>
<g id="a_Node000014"><a xlink:href="SingleHumidistat_8h.html" target="_top" xlink:title=" ">
<polygon fill="white" stroke="#666666" points="824.25,-129.75 677.75,-129.75 677.75,-110.5 824.25,-110.5 824.25,-129.75"/>
<text text-anchor="middle" x="751" y="-116.25" font-family="Helvetica,sans-Serif" font-size="10.00">src/control/SingleHumidistat.h</text>
</a>
</g>
</g>
<!-- Node10&#45;&gt;Node14 -->
<g id="edge17_Node000010_Node000014" class="edge">
<title>Node10&#45;&gt;Node14</title>
<g id="a_edge17_Node000010_Node000014"><a xlink:title=" ">
<path fill="none" stroke="#63b8ff" d="M498.65,-163.38C557.18,-153.58 641.84,-139.4 696.65,-130.23"/>
<polygon fill="#63b8ff" stroke="#63b8ff" points="498.08,-159.93 488.8,-165.03 499.24,-166.83 498.08,-159.93"/>
</a>
</g>
</g>
<!-- Node11&#45;&gt;Node7 -->
<g id="edge13_Node000011_Node000007" class="edge">
<title>Node11&#45;&gt;Node7</title>
<g id="a_edge13_Node000011_Node000007"><a xlink:title=" ">
<path fill="none" stroke="#63b8ff" d="M190.51,-109.19C145.26,-100.22 101.72,-83.89 126,-55.25 155.46,-20.49 292.72,-12.78 359,-11.08"/>
<polygon fill="#63b8ff" stroke="#63b8ff" points="189.74,-112.6 200.21,-110.98 191.01,-105.72 189.74,-112.6"/>
</a>
</g>
</g>
<!-- Node11&#45;&gt;Node9 -->
<g id="edge14_Node000011_Node000009" class="edge">
<title>Node11&#45;&gt;Node9</title>
<g id="a_edge14_Node000011_Node000009"><a xlink:title=" ">
<path fill="none" stroke="#63b8ff" d="M328,-107.94C379.76,-98.14 454.09,-84.05 502.21,-74.93"/>
<polygon fill="#63b8ff" stroke="#63b8ff" points="327.65,-104.45 318.47,-109.75 328.95,-111.33 327.65,-104.45"/>
</a>
</g>
</g>
<!-- Node12 -->
<g id="Node000012" class="node">
<title>Node12</title>
<g id="a_Node000012"><a xlink:href="SetpointProfileRunner_8cpp.html" target="_top" xlink:title=" ">
<polygon fill="white" stroke="#666666" points="279.12,-74.5 134.88,-74.5 134.88,-55.25 279.12,-55.25 279.12,-74.5"/>
<text text-anchor="middle" x="207" y="-61" font-family="Helvetica,sans-Serif" font-size="10.00">src/SetpointProfileRunner.cpp</text>
</a>
</g>
</g>
<!-- Node11&#45;&gt;Node12 -->
<g id="edge12_Node000011_Node000012" class="edge">
<title>Node11&#45;&gt;Node12</title>
<g id="a_edge12_Node000011_Node000012"><a xlink:title=" ">
<path fill="none" stroke="#63b8ff" d="M249.8,-102.64C239.1,-93.44 226.19,-82.35 217.36,-74.77"/>
<polygon fill="#63b8ff" stroke="#63b8ff" points="247.47,-105.25 257.33,-109.11 252.03,-99.94 247.47,-105.25"/>
</a>
</g>
</g>
<!-- Node14&#45;&gt;Node6 -->
<g id="edge18_Node000014_Node000006" class="edge">
<title>Node14&#45;&gt;Node6</title>
<g id="a_edge18_Node000014_Node000006"><a xlink:title=" ">
<path fill="none" stroke="#63b8ff" d="M730.35,-103.19C718.3,-93.89 703.55,-82.51 693.53,-74.77"/>
<polygon fill="#63b8ff" stroke="#63b8ff" points="728.04,-105.83 738.1,-109.17 732.32,-100.29 728.04,-105.83"/>
</a>
</g>
</g>
<!-- Node14&#45;&gt;Node9 -->
<g id="edge22_Node000014_Node000009" class="edge">
<title>Node14&#45;&gt;Node9</title>
<g id="a_edge22_Node000014_Node000009"><a xlink:title=" ">
<path fill="none" stroke="#63b8ff" d="M705.97,-107.2C669.13,-97.44 617.82,-83.84 584.26,-74.95"/>
<polygon fill="#63b8ff" stroke="#63b8ff" points="704.88,-110.53 715.44,-109.7 706.67,-103.76 704.88,-110.53"/>
</a>
</g>
</g>
<!-- Node15 -->
<g id="Node000015" class="node">
<title>Node15</title>
<g id="a_Node000015"><a xlink:href="SingleHumidistat_8cpp.html" target="_top" xlink:title=" ">
<polygon fill="white" stroke="#666666" points="1035.5,-74.5 878.5,-74.5 878.5,-55.25 1035.5,-55.25 1035.5,-74.5"/>
<text text-anchor="middle" x="957" y="-61" font-family="Helvetica,sans-Serif" font-size="10.00">src/control/SingleHumidistat.cpp</text>
</a>
</g>
</g>
<!-- Node14&#45;&gt;Node15 -->
<g id="edge19_Node000014_Node000015" class="edge">
<title>Node14&#45;&gt;Node15</title>
<g id="a_edge19_Node000014_Node000015"><a xlink:title=" ">
<path fill="none" stroke="#63b8ff" d="M796.66,-107.32C834.45,-97.55 887.35,-83.88 921.88,-74.95"/>
<polygon fill="#63b8ff" stroke="#63b8ff" points="796.22,-103.82 787.41,-109.71 797.97,-110.6 796.22,-103.82"/>
</a>
</g>
</g>
<!-- Node16 -->
<g id="Node000016" class="node">
<title>Node16</title>
<g id="a_Node000016"><a xlink:href="CharDisplayUI_8h.html" target="_top" xlink:title=" ">
<polygon fill="white" stroke="#666666" points="860.38,-74.5 747.62,-74.5 747.62,-55.25 860.38,-55.25 860.38,-74.5"/>
<text text-anchor="middle" x="804" y="-61" font-family="Helvetica,sans-Serif" font-size="10.00">src/ui/CharDisplayUI.h</text>
</a>
</g>
</g>
<!-- Node14&#45;&gt;Node16 -->
<g id="edge20_Node000014_Node000016" class="edge">
<title>Node14&#45;&gt;Node16</title>
<g id="a_edge20_Node000014_Node000016"><a xlink:title=" ">
<path fill="none" stroke="#63b8ff" d="M767.72,-102.32C776.78,-93.23 787.6,-82.35 795.06,-74.86"/>
<polygon fill="#63b8ff" stroke="#63b8ff" points="765.39,-99.7 760.82,-109.26 770.35,-104.64 765.39,-99.7"/>
</a>
</g>
</g>
<!-- Node17 -->
<g id="Node000017" class="node">
<title>Node17</title>
<g id="a_Node000017"><a xlink:href="CharDisplayUI_8cpp.html" target="_top" xlink:title=" ">
<polygon fill="white" stroke="#666666" points="865.62,-19.25 742.38,-19.25 742.38,0 865.62,0 865.62,-19.25"/>
<text text-anchor="middle" x="804" y="-5.75" font-family="Helvetica,sans-Serif" font-size="10.00">src/ui/CharDisplayUI.cpp</text>
</a>
</g>
</g>
<!-- Node16&#45;&gt;Node17 -->
<g id="edge21_Node000016_Node000017" class="edge">
<title>Node16&#45;&gt;Node17</title>
<g id="a_edge21_Node000016_Node000017"><a xlink:title=" ">
<path fill="none" stroke="#63b8ff" d="M804,-43.63C804,-35.34 804,-26.17 804,-19.61"/>
<polygon fill="#63b8ff" stroke="#63b8ff" points="800.5,-43.57 804,-53.57 807.5,-43.57 800.5,-43.57"/>
</a>
</g>
</g>
</g>
</svg>
