<?xml version="1.0" encoding="UTF-8" standalone="no"?>
<!DOCTYPE svg PUBLIC "-//W3C//DTD SVG 1.1//EN"
 "http://www.w3.org/Graphics/SVG/1.1/DTD/svg11.dtd">
<!-- Generated by graphviz version 12.0.0 (20240704.0754)
 -->
<!-- Title: src/control/Controller.cpp Pages: 1 -->
<svg width="208pt" height="193pt"
 viewBox="0.00 0.00 207.62 193.00" xmlns="http://www.w3.org/2000/svg" xmlns:xlink="http://www.w3.org/1999/xlink">
<g id="graph0" class="graph" transform="scale(1 1) rotate(0) translate(4 189)">
<title>src/control/Controller.cpp</title>
<!-- Node1 -->
<g id="Node000001" class="node">
<title>Node1</title>
<g id="a_Node000001"><a xlink:title=" ">
<polygon fill="#999999" stroke="#666666" points="124,-185 0,-185 0,-165.75 124,-165.75 124,-185"/>
<text text-anchor="middle" x="62" y="-171.5" font-family="Helvetica,sans-Serif" font-size="10.00">src/control/Controller.cpp</text>
</a>
</g>
</g>
<!-- Node2 -->
<g id="Node000002" class="node">
<title>Node2</title>
<g id="a_Node000002"><a xlink:href="Controller_8h.html" target="_top" xlink:title=" ">
<polygon fill="white" stroke="#666666" points="94.38,-129.75 29.62,-129.75 29.62,-110.5 94.38,-110.5 94.38,-129.75"/>
<text text-anchor="middle" x="62" y="-116.25" font-family="Helvetica,sans-Serif" font-size="10.00">Controller.h</text>
</a>
</g>
</g>
<!-- Node1&#45;&gt;Node2 -->
<g id="edge1_Node000001_Node000002" class="edge">
<title>Node1&#45;&gt;Node2</title>
<g id="a_edge1_Node000001_Node000002"><a xlink:title=" ">
<path fill="none" stroke="#63b8ff" d="M62,-165.58C62,-159.07 62,-149.92 62,-141.62"/>
<polygon fill="#63b8ff" stroke="#63b8ff" points="65.5,-141.62 62,-131.62 58.5,-141.62 65.5,-141.62"/>
</a>
</g>
</g>
<!-- Node3 -->
<g id="Node000003" class="node">
<title>Node3</title>
<g id="a_Node000003"><a xlink:title=" ">
<polygon fill="#e0e0e0" stroke="#999999" points="61.75,-19.25 14.25,-19.25 14.25,0 61.75,0 61.75,-19.25"/>
<text text-anchor="middle" x="38" y="-5.75" font-family="Helvetica,sans-Serif" font-size="10.00">stdint.h</text>
</a>
</g>
</g>
<!-- Node2&#45;&gt;Node3 -->
<g id="edge2_Node000002_Node000003" class="edge">
<title>Node2&#45;&gt;Node3</title>
<g id="a_edge2_Node000002_Node000003"><a xlink:title=" ">
<path fill="none" stroke="#63b8ff" d="M53.78,-110.01C46.72,-101.52 37.04,-88.14 33,-74.5 28.78,-60.26 30.32,-43.5 32.76,-30.73"/>
<polygon fill="#63b8ff" stroke="#63b8ff" points="36.17,-31.52 34.99,-20.99 29.35,-29.96 36.17,-31.52"/>
</a>
</g>
</g>
<!-- Node4 -->
<g id="Node000004" class="node">
<title>Node4</title>
<g id="a_Node000004"><a xlink:href="PID_8h.html" target="_top" xlink:title=" ">
<polygon fill="white" stroke="#666666" points="82,-74.5 42,-74.5 42,-55.25 82,-55.25 82,-74.5"/>
<text text-anchor="middle" x="62" y="-61" font-family="Helvetica,sans-Serif" font-size="10.00">PID.h</text>
</a>
</g>
</g>
<!-- Node2&#45;&gt;Node4 -->
<g id="edge3_Node000002_Node000004" class="edge">
<title>Node2&#45;&gt;Node4</title>
<g id="a_edge3_Node000002_Node000004"><a xlink:title=" ">
<path fill="none" stroke="#63b8ff" d="M62,-110.33C62,-103.82 62,-94.67 62,-86.37"/>
<polygon fill="#63b8ff" stroke="#63b8ff" points="65.5,-86.37 62,-76.37 58.5,-86.37 65.5,-86.37"/>
</a>
</g>
</g>
<!-- Node5 -->
<g id="Node000005" class="node">
<title>Node5</title>
<g id="a_Node000005"><a xlink:href="EEPROMConfig_8h.html" target="_top" xlink:title=" ">
<polygon fill="white" stroke="#666666" points="199.62,-74.5 100.38,-74.5 100.38,-55.25 199.62,-55.25 199.62,-74.5"/>
<text text-anchor="middle" x="150" y="-61" font-family="Helvetica,sans-Serif" font-size="10.00">../EEPROMConfig.h</text>
</a>
</g>
</g>
<!-- Node2&#45;&gt;Node5 -->
<g id="edge5_Node000002_Node000005" class="edge">
<title>Node2&#45;&gt;Node5</title>
<g id="a_edge5_Node000002_Node000005"><a xlink:title=" ">
<path fill="none" stroke="#63b8ff" d="M76.93,-110.09C90.2,-102.06 109.87,-90.16 125.45,-80.73"/>
<polygon fill="#63b8ff" stroke="#63b8ff" points="126.96,-83.91 133.7,-75.74 123.34,-77.92 126.96,-83.91"/>
</a>
</g>
</g>
<!-- Node4&#45;&gt;Node3 -->
<g id="edge4_Node000004_Node000003" class="edge">
<title>Node4&#45;&gt;Node3</title>
<g id="a_edge4_Node000004_Node000003"><a xlink:title=" ">
<path fill="none" stroke="#63b8ff" d="M58.04,-55.08C54.96,-48.26 50.59,-38.56 46.71,-29.95"/>
<polygon fill="#63b8ff" stroke="#63b8ff" points="49.97,-28.67 42.67,-20.99 43.59,-31.54 49.97,-28.67"/>
</a>
</g>
</g>
</g>
</svg>
