<?xml version="1.0" encoding="UTF-8" standalone="no"?>
<!DOCTYPE svg PUBLIC "-//W3C//DTD SVG 1.1//EN"
 "http://www.w3.org/Graphics/SVG/1.1/DTD/svg11.dtd">
<!-- Generated by graphviz version 12.0.0 (20240704.0754)
 -->
<!-- Title: src/control/Controller.h Pages: 1 -->
<svg width="202pt" height="138pt"
 viewBox="0.00 0.00 202.38 137.75" xmlns="http://www.w3.org/2000/svg" xmlns:xlink="http://www.w3.org/1999/xlink">
<g id="graph0" class="graph" transform="scale(1 1) rotate(0) translate(4 133.75)">
<title>src/control/Controller.h</title>
<!-- Node1 -->
<g id="Node000001" class="node">
<title>Node1</title>
<g id="a_Node000001"><a xlink:title=" ">
<polygon fill="#999999" stroke="#666666" points="113.5,-129.75 0,-129.75 0,-110.5 113.5,-110.5 113.5,-129.75"/>
<text text-anchor="middle" x="56.75" y="-116.25" font-family="Helvetica,sans-Serif" font-size="10.00">src/control/Controller.h</text>
</a>
</g>
</g>
<!-- Node2 -->
<g id="Node000002" class="node">
<title>Node2</title>
<g id="a_Node000002"><a xlink:title=" ">
<polygon fill="#e0e0e0" stroke="#999999" points="56.5,-19.25 9,-19.25 9,0 56.5,0 56.5,-19.25"/>
<text text-anchor="middle" x="32.75" y="-5.75" font-family="Helvetica,sans-Serif" font-size="10.00">stdint.h</text>
</a>
</g>
</g>
<!-- Node1&#45;&gt;Node2 -->
<g id="edge1_Node000001_Node000002" class="edge">
<title>Node1&#45;&gt;Node2</title>
<g id="a_edge1_Node000001_Node000002"><a xlink:title=" ">
<path fill="none" stroke="#63b8ff" d="M48.53,-110.01C41.47,-101.52 31.79,-88.14 27.75,-74.5 23.53,-60.26 25.07,-43.5 27.51,-30.73"/>
<polygon fill="#63b8ff" stroke="#63b8ff" points="30.92,-31.52 29.74,-20.99 24.1,-29.96 30.92,-31.52"/>
</a>
</g>
</g>
<!-- Node3 -->
<g id="Node000003" class="node">
<title>Node3</title>
<g id="a_Node000003"><a xlink:href="PID_8h.html" target="_top" xlink:title=" ">
<polygon fill="white" stroke="#666666" points="76.75,-74.5 36.75,-74.5 36.75,-55.25 76.75,-55.25 76.75,-74.5"/>
<text text-anchor="middle" x="56.75" y="-61" font-family="Helvetica,sans-Serif" font-size="10.00">PID.h</text>
</a>
</g>
</g>
<!-- Node1&#45;&gt;Node3 -->
<g id="edge2_Node000001_Node000003" class="edge">
<title>Node1&#45;&gt;Node3</title>
<g id="a_edge2_Node000001_Node000003"><a xlink:title=" ">
<path fill="none" stroke="#63b8ff" d="M56.75,-110.33C56.75,-103.82 56.75,-94.67 56.75,-86.37"/>
<polygon fill="#63b8ff" stroke="#63b8ff" points="60.25,-86.37 56.75,-76.37 53.25,-86.37 60.25,-86.37"/>
</a>
</g>
</g>
<!-- Node4 -->
<g id="Node000004" class="node">
<title>Node4</title>
<g id="a_Node000004"><a xlink:href="EEPROMConfig_8h.html" target="_top" xlink:title=" ">
<polygon fill="white" stroke="#666666" points="194.38,-74.5 95.12,-74.5 95.12,-55.25 194.38,-55.25 194.38,-74.5"/>
<text text-anchor="middle" x="144.75" y="-61" font-family="Helvetica,sans-Serif" font-size="10.00">../EEPROMConfig.h</text>
</a>
</g>
</g>
<!-- Node1&#45;&gt;Node4 -->
<g id="edge4_Node000001_Node000004" class="edge">
<title>Node1&#45;&gt;Node4</title>
<g id="a_edge4_Node000001_Node000004"><a xlink:title=" ">
<path fill="none" stroke="#63b8ff" d="M71.68,-110.09C84.95,-102.06 104.62,-90.16 120.2,-80.73"/>
<polygon fill="#63b8ff" stroke="#63b8ff" points="121.71,-83.91 128.45,-75.74 118.09,-77.92 121.71,-83.91"/>
</a>
</g>
</g>
<!-- Node3&#45;&gt;Node2 -->
<g id="edge3_Node000003_Node000002" class="edge">
<title>Node3&#45;&gt;Node2</title>
<g id="a_edge3_Node000003_Node000002"><a xlink:title=" ">
<path fill="none" stroke="#63b8ff" d="M52.79,-55.08C49.71,-48.26 45.34,-38.56 41.46,-29.95"/>
<polygon fill="#63b8ff" stroke="#63b8ff" points="44.72,-28.67 37.42,-20.99 38.34,-31.54 44.72,-28.67"/>
</a>
</g>
</g>
</g>
</svg>
