<?xml version="1.0" encoding="UTF-8" standalone="no"?>
<!DOCTYPE svg PUBLIC "-//W3C//DTD SVG 1.1//EN"
 "http://www.w3.org/Graphics/SVG/1.1/DTD/svg11.dtd">
<!-- Generated by graphviz version 12.0.0 (20240704.0754)
 -->
<!-- Title: src Pages: 1 -->
<svg width="181pt" height="170pt"
 viewBox="0.00 0.00 181.00 169.75" xmlns="http://www.w3.org/2000/svg" xmlns:xlink="http://www.w3.org/1999/xlink">
<g id="graph0" class="graph" transform="scale(1 1) rotate(0) translate(4 165.75)">
<title>src</title>
<g id="clust1" class="cluster">
<title>clusterdir_68267d1309a1af8e8297ef4c3efbcdba</title>
<g id="a_clust1"><a xlink:href="dir_68267d1309a1af8e8297ef4c3efbcdba.html" target="_top">
<polygon fill="#edf0f7" stroke="#404040" stroke-width="2" points="8,-8 8,-153.75 165,-153.75 165,-8 8,-8"/>
</a>
</g>
</g>
<!-- dir_68267d1309a1af8e8297ef4c3efbcdba -->
<g id="node1" class="node">
<title>dir_68267d1309a1af8e8297ef4c3efbcdba</title>
<text text-anchor="middle" x="59" y="-132.25" font-family="Helvetica,sans-Serif" font-size="10.00">src</text>
</g>
<!-- dir_b81b067251166617f9d0a8c0cfc3a4a9 -->
<g id="node2" class="node">
<title>dir_b81b067251166617f9d0a8c0cfc3a4a9</title>
<g id="a_node2"><a xlink:href="dir_b81b067251166617f9d0a8c0cfc3a4a9.html" target="_top" xlink:title="control">
<polygon fill="#a2b4d6" stroke="#404040" points="81.62,-90.5 36.38,-90.5 36.38,-71.25 81.62,-71.25 81.62,-90.5"/>
<text text-anchor="middle" x="59" y="-77" font-family="Helvetica,sans-Serif" font-size="10.00">control</text>
</a>
</g>
</g>
<!-- dir_68267d1309a1af8e8297ef4c3efbcdba&#45;&gt;dir_b81b067251166617f9d0a8c0cfc3a4a9 -->
<g id="edge2" class="edge">
<title>dir_68267d1309a1af8e8297ef4c3efbcdba&#45;&gt;dir_b81b067251166617f9d0a8c0cfc3a4a9</title>
<g id="a_edge2"><a xlink:href="dir_000003_000000.html" target="_top">
<path fill="none" stroke="#63b8ff" d="M59,-126.8C59,-120.2 59,-110.69 59,-102.11"/>
<polygon fill="#63b8ff" stroke="#63b8ff" points="62.5,-102.18 59,-92.18 55.5,-102.18 62.5,-102.18"/>
</a>
</g>
<g id="a_edge2&#45;headlabel"><a xlink:href="dir_000003_000000.html" target="_top" xlink:title="6">
<text text-anchor="middle" x="65.34" y="-100.39" font-family="Helvetica,sans-Serif" font-size="10.00" fill="#63b8ff">6</text>
</a>
</g>
</g>
<!-- dir_d365e15d984c8d0205117ee0c40d6716 -->
<g id="node3" class="node">
<title>dir_d365e15d984c8d0205117ee0c40d6716</title>
<g id="a_node3"><a xlink:href="dir_d365e15d984c8d0205117ee0c40d6716.html" target="_top" xlink:title="input">
<polygon fill="#a2b4d6" stroke="#404040" points="136.5,-90.5 99.5,-90.5 99.5,-71.25 136.5,-71.25 136.5,-90.5"/>
<text text-anchor="middle" x="118" y="-77" font-family="Helvetica,sans-Serif" font-size="10.00">input</text>
</a>
</g>
</g>
<!-- dir_68267d1309a1af8e8297ef4c3efbcdba&#45;&gt;dir_d365e15d984c8d0205117ee0c40d6716 -->
<g id="edge3" class="edge">
<title>dir_68267d1309a1af8e8297ef4c3efbcdba&#45;&gt;dir_d365e15d984c8d0205117ee0c40d6716</title>
<g id="a_edge3"><a xlink:href="dir_000003_000001.html" target="_top">
<path fill="none" stroke="#63b8ff" d="M68.48,-126.57C76.84,-119.02 89.27,-107.8 99.59,-98.49"/>
<polygon fill="#63b8ff" stroke="#63b8ff" points="101.75,-101.26 106.83,-91.96 97.06,-96.06 101.75,-101.26"/>
</a>
</g>
<g id="a_edge3&#45;headlabel"><a xlink:href="dir_000003_000001.html" target="_top" xlink:title="2">
<text text-anchor="middle" x="102.11" y="-100.88" font-family="Helvetica,sans-Serif" font-size="10.00" fill="#63b8ff">2</text>
</a>
</g>
</g>
<!-- dir_919653a6098570dc99a63e645d1b29db -->
<g id="node4" class="node">
<title>dir_919653a6098570dc99a63e645d1b29db</title>
<g id="a_node4"><a xlink:href="dir_919653a6098570dc99a63e645d1b29db.html" target="_top" xlink:title="sensor">
<polygon fill="#a2b4d6" stroke="#404040" points="81.62,-35.25 36.38,-35.25 36.38,-16 81.62,-16 81.62,-35.25"/>
<text text-anchor="middle" x="59" y="-21.75" font-family="Helvetica,sans-Serif" font-size="10.00">sensor</text>
</a>
</g>
</g>
<!-- dir_68267d1309a1af8e8297ef4c3efbcdba&#45;&gt;dir_919653a6098570dc99a63e645d1b29db -->
<g id="edge1" class="edge">
<title>dir_68267d1309a1af8e8297ef4c3efbcdba&#45;&gt;dir_919653a6098570dc99a63e645d1b29db</title>
<g id="a_edge1"><a xlink:href="dir_000003_000002.html" target="_top">
<path fill="none" stroke="#63b8ff" d="M50.55,-126.82C42.72,-118.48 31.61,-104.84 27,-90.5 21.68,-73.94 31.79,-56.35 42.02,-43.83"/>
<polygon fill="#63b8ff" stroke="#63b8ff" points="44.55,-46.26 48.61,-36.48 39.33,-41.59 44.55,-46.26"/>
</a>
</g>
<g id="a_edge1&#45;headlabel"><a xlink:href="dir_000003_000002.html" target="_top" xlink:title="5">
<text text-anchor="middle" x="45.27" y="-45.83" font-family="Helvetica,sans-Serif" font-size="10.00" fill="#63b8ff">5</text>
</a>
</g>
</g>
<!-- dir_b81b067251166617f9d0a8c0cfc3a4a9&#45;&gt;dir_919653a6098570dc99a63e645d1b29db -->
<g id="edge4" class="edge">
<title>dir_b81b067251166617f9d0a8c0cfc3a4a9&#45;&gt;dir_919653a6098570dc99a63e645d1b29db</title>
<g id="a_edge4"><a xlink:href="dir_000000_000002.html" target="_top">
<path fill="none" stroke="#63b8ff" d="M59,-71.08C59,-64.57 59,-55.42 59,-47.12"/>
<polygon fill="#63b8ff" stroke="#63b8ff" points="62.5,-47.12 59,-37.12 55.5,-47.12 62.5,-47.12"/>
</a>
</g>
<g id="a_edge4&#45;headlabel"><a xlink:href="dir_000000_000002.html" target="_top" xlink:title="2">
<text text-anchor="middle" x="65.34" y="-45.33" font-family="Helvetica,sans-Serif" font-size="10.00" fill="#63b8ff">2</text>
</a>
</g>
</g>
<!-- dir_da5c6b39c0a2f54e57df6799511cd3ab -->
<g id="node5" class="node">
<title>dir_da5c6b39c0a2f54e57df6799511cd3ab</title>
<g id="a_node5"><a xlink:href="dir_da5c6b39c0a2f54e57df6799511cd3ab.html" target="_top" xlink:title="ui">
<polygon fill="#a2b4d6" stroke="#404040" points="132.4,-145.75 103.6,-145.75 103.6,-126.5 132.4,-126.5 132.4,-145.75"/>
<text text-anchor="middle" x="118" y="-132.25" font-family="Helvetica,sans-Serif" font-size="10.00">ui</text>
</a>
</g>
</g>
<!-- dir_da5c6b39c0a2f54e57df6799511cd3ab&#45;&gt;dir_b81b067251166617f9d0a8c0cfc3a4a9 -->
<g id="edge6" class="edge">
<title>dir_da5c6b39c0a2f54e57df6799511cd3ab&#45;&gt;dir_b81b067251166617f9d0a8c0cfc3a4a9</title>
<g id="a_edge6"><a xlink:href="dir_000004_000000.html" target="_top">
<path fill="none" stroke="#63b8ff" d="M107.99,-126.09C99.63,-118.55 87.5,-107.6 77.4,-98.48"/>
<polygon fill="#63b8ff" stroke="#63b8ff" points="79.75,-95.89 69.98,-91.79 75.06,-101.09 79.75,-95.89"/>
</a>
</g>
<g id="a_edge6&#45;headlabel"><a xlink:href="dir_000004_000000.html" target="_top" xlink:title="3">
<text text-anchor="middle" x="83.2" y="-91.3" font-family="Helvetica,sans-Serif" font-size="10.00" fill="#63b8ff">3</text>
</a>
</g>
</g>
<!-- dir_da5c6b39c0a2f54e57df6799511cd3ab&#45;&gt;dir_d365e15d984c8d0205117ee0c40d6716 -->
<g id="edge7" class="edge">
<title>dir_da5c6b39c0a2f54e57df6799511cd3ab&#45;&gt;dir_d365e15d984c8d0205117ee0c40d6716</title>
<g id="a_edge7"><a xlink:href="dir_000004_000001.html" target="_top">
<path fill="none" stroke="#63b8ff" d="M118,-126.33C118,-119.82 118,-110.67 118,-102.37"/>
<polygon fill="#63b8ff" stroke="#63b8ff" points="121.5,-102.37 118,-92.37 114.5,-102.37 121.5,-102.37"/>
</a>
</g>
<g id="a_edge7&#45;headlabel"><a xlink:href="dir_000004_000001.html" target="_top" xlink:title="1">
<text text-anchor="middle" x="124.34" y="-100.58" font-family="Helvetica,sans-Serif" font-size="10.00" fill="#63b8ff">1</text>
</a>
</g>
</g>
<!-- dir_da5c6b39c0a2f54e57df6799511cd3ab&#45;&gt;dir_919653a6098570dc99a63e645d1b29db -->
<g id="edge5" class="edge">
<title>dir_da5c6b39c0a2f54e57df6799511cd3ab&#45;&gt;dir_919653a6098570dc99a63e645d1b29db</title>
<g id="a_edge5"><a xlink:href="dir_000004_000002.html" target="_top">
<path fill="none" stroke="#63b8ff" d="M127.34,-126.07C139.31,-113.34 157.24,-89.64 146,-71.25 134.39,-52.24 111.81,-40.99 92.57,-34.54"/>
<polygon fill="#63b8ff" stroke="#63b8ff" points="93.77,-31.25 83.19,-31.72 91.75,-37.95 93.77,-31.25"/>
</a>
</g>
<g id="a_edge5&#45;headlabel"><a xlink:href="dir_000004_000002.html" target="_top" xlink:title="1">
<text text-anchor="middle" x="96.58" y="-25.26" font-family="Helvetica,sans-Serif" font-size="10.00" fill="#63b8ff">1</text>
</a>
</g>
</g>
</g>
</svg>
