<?xml version="1.0" encoding="UTF-8" standalone="no"?>
<!DOCTYPE svg PUBLIC "-//W3C//DTD SVG 1.1//EN"
 "http://www.w3.org/Graphics/SVG/1.1/DTD/svg11.dtd">
<!-- Generated by graphviz version 12.0.0 (20240704.0754)
 -->
<!-- Title: src/EEPROMConfig.h Pages: 1 -->
<svg width="1160pt" height="304pt"
 viewBox="0.00 0.00 1160.00 303.50" xmlns="http://www.w3.org/2000/svg" xmlns:xlink="http://www.w3.org/1999/xlink">
<g id="graph0" class="graph" transform="scale(1 1) rotate(0) translate(4 299.5)">
<title>src/EEPROMConfig.h</title>
<!-- Node1 -->
<g id="Node000001" class="node">
<title>Node1</title>
<g id="a_Node000001"><a xlink:title=" ">
<polygon fill="#999999" stroke="#666666" points="516.5,-295.5 408.25,-295.5 408.25,-276.25 516.5,-276.25 516.5,-295.5"/>
<text text-anchor="middle" x="462.38" y="-282" font-family="Helvetica,sans-Serif" font-size="10.00">src/EEPROMConfig.h</text>
</a>
</g>
</g>
<!-- Node2 -->
<g id="Node000002" class="node">
<title>Node2</title>
<g id="a_Node000002"><a xlink:href="EEPROMConfig_8cpp.html" target="_top" xlink:title=" ">
<polygon fill="white" stroke="#666666" points="118.75,-240.25 0,-240.25 0,-221 118.75,-221 118.75,-240.25"/>
<text text-anchor="middle" x="59.38" y="-226.75" font-family="Helvetica,sans-Serif" font-size="10.00">src/EEPROMConfig.cpp</text>
</a>
</g>
</g>
<!-- Node1&#45;&gt;Node2 -->
<g id="edge1_Node000001_Node000002" class="edge">
<title>Node1&#45;&gt;Node2</title>
<g id="a_edge1_Node000001_Node000002"><a xlink:title=" ">
<path fill="none" stroke="#63b8ff" d="M397.05,-276.24C320.14,-266.08 193.47,-249.34 119.08,-239.51"/>
<polygon fill="#63b8ff" stroke="#63b8ff" points="396.15,-279.65 406.52,-277.5 397.07,-272.72 396.15,-279.65"/>
</a>
</g>
</g>
<!-- Node3 -->
<g id="Node000003" class="node">
<title>Node3</title>
<g id="a_Node000003"><a xlink:href="Controller_8h.html" target="_top" xlink:title=" ">
<polygon fill="white" stroke="#666666" points="434.12,-240.25 320.62,-240.25 320.62,-221 434.12,-221 434.12,-240.25"/>
<text text-anchor="middle" x="377.38" y="-226.75" font-family="Helvetica,sans-Serif" font-size="10.00">src/control/Controller.h</text>
</a>
</g>
</g>
<!-- Node1&#45;&gt;Node3 -->
<g id="edge2_Node000001_Node000003" class="edge">
<title>Node1&#45;&gt;Node3</title>
<g id="a_edge2_Node000001_Node000003"><a xlink:title=" ">
<path fill="none" stroke="#63b8ff" d="M438.32,-269.8C423.35,-260.42 404.59,-248.67 391.86,-240.7"/>
<polygon fill="#63b8ff" stroke="#63b8ff" points="436.34,-272.7 446.67,-275.04 440.06,-266.76 436.34,-272.7"/>
</a>
</g>
</g>
<!-- Node6 -->
<g id="Node000006" class="node">
<title>Node6</title>
<g id="a_Node000006"><a xlink:href="FlowController_8h.html" target="_top" xlink:title=" ">
<polygon fill="white" stroke="#666666" points="502.62,-185 368.12,-185 368.12,-165.75 502.62,-165.75 502.62,-185"/>
<text text-anchor="middle" x="435.38" y="-171.5" font-family="Helvetica,sans-Serif" font-size="10.00">src/control/FlowController.h</text>
</a>
</g>
</g>
<!-- Node1&#45;&gt;Node6 -->
<g id="edge25_Node000001_Node000006" class="edge">
<title>Node1&#45;&gt;Node6</title>
<g id="a_edge25_Node000001_Node000006"><a xlink:title=" ">
<path fill="none" stroke="#63b8ff" d="M457.39,-264.85C451.5,-241.15 441.93,-202.72 437.62,-185.38"/>
<polygon fill="#63b8ff" stroke="#63b8ff" points="453.99,-265.67 459.8,-274.53 460.78,-263.98 453.99,-265.67"/>
</a>
</g>
</g>
<!-- Node9 -->
<g id="Node000009" class="node">
<title>Node9</title>
<g id="a_Node000009"><a xlink:href="main_8cpp.html" target="_top" xlink:title=" ">
<polygon fill="white" stroke="#666666" points="603.12,-19.25 531.62,-19.25 531.62,0 603.12,0 603.12,-19.25"/>
<text text-anchor="middle" x="567.38" y="-5.75" font-family="Helvetica,sans-Serif" font-size="10.00">src/main.cpp</text>
</a>
</g>
</g>
<!-- Node1&#45;&gt;Node9 -->
<g id="edge28_Node000001_Node000009" class="edge">
<title>Node1&#45;&gt;Node9</title>
<g id="a_edge28_Node000001_Node000009"><a xlink:title=" ">
<path fill="none" stroke="#63b8ff" d="M396.83,-275.9C304.26,-261.35 146.38,-228.86 146.38,-176.38 146.38,-176.38 146.38,-176.38 146.38,-119.12 146.38,-81.95 167.66,-72.91 200.38,-55.25 257.07,-24.65 450.53,-14.6 531.39,-11.69"/>
<polygon fill="#63b8ff" stroke="#63b8ff" points="396.14,-279.33 406.56,-277.4 397.2,-272.42 396.14,-279.33"/>
</a>
</g>
</g>
<!-- Node11 -->
<g id="Node000011" class="node">
<title>Node11</title>
<g id="a_Node000011"><a xlink:href="GraphicalDisplayUI_8h.html" target="_top" xlink:title=" ">
<polygon fill="white" stroke="#666666" points="841.25,-74.5 707.5,-74.5 707.5,-55.25 841.25,-55.25 841.25,-74.5"/>
<text text-anchor="middle" x="774.38" y="-61" font-family="Helvetica,sans-Serif" font-size="10.00">src/ui/GraphicalDisplayUI.h</text>
</a>
</g>
</g>
<!-- Node1&#45;&gt;Node11 -->
<g id="edge29_Node000001_Node000011" class="edge">
<title>Node1&#45;&gt;Node11</title>
<g id="a_edge29_Node000001_Node000011"><a xlink:title=" ">
<path fill="none" stroke="#63b8ff" d="M527.83,-276.39C608.77,-262.01 743.32,-224.49 804.38,-129.75 816.19,-111.42 797.07,-87.7 784.32,-74.95"/>
<polygon fill="#63b8ff" stroke="#63b8ff" points="527.54,-272.89 518.27,-278.02 528.71,-279.79 527.54,-272.89"/>
</a>
</g>
</g>
<!-- Node12 -->
<g id="Node000012" class="node">
<title>Node12</title>
<g id="a_Node000012"><a xlink:href="Humidistat_8h.html" target="_top" xlink:title=" ">
<polygon fill="white" stroke="#666666" points="640.12,-185 520.62,-185 520.62,-165.75 640.12,-165.75 640.12,-185"/>
<text text-anchor="middle" x="580.38" y="-171.5" font-family="Helvetica,sans-Serif" font-size="10.00">src/control/Humidistat.h</text>
</a>
</g>
</g>
<!-- Node1&#45;&gt;Node12 -->
<g id="edge26_Node000001_Node000012" class="edge">
<title>Node1&#45;&gt;Node12</title>
<g id="a_edge26_Node000001_Node000012"><a xlink:title=" ">
<path fill="none" stroke="#63b8ff" d="M480.36,-268.34C505.63,-245.11 550.76,-203.6 570.59,-185.38"/>
<polygon fill="#63b8ff" stroke="#63b8ff" points="478.14,-265.63 473.15,-274.97 482.88,-270.78 478.14,-265.63"/>
</a>
</g>
</g>
<!-- Node16 -->
<g id="Node000016" class="node">
<title>Node16</title>
<g id="a_Node000016"><a xlink:href="SingleHumidistat_8h.html" target="_top" xlink:title=" ">
<polygon fill="white" stroke="#666666" points="997.62,-129.75 851.12,-129.75 851.12,-110.5 997.62,-110.5 997.62,-129.75"/>
<text text-anchor="middle" x="924.38" y="-116.25" font-family="Helvetica,sans-Serif" font-size="10.00">src/control/SingleHumidistat.h</text>
</a>
</g>
</g>
<!-- Node1&#45;&gt;Node16 -->
<g id="edge27_Node000001_Node000016" class="edge">
<title>Node1&#45;&gt;Node16</title>
<g id="a_edge27_Node000001_Node000016"><a xlink:title=" ">
<path fill="none" stroke="#63b8ff" d="M528.07,-283.3C621.31,-280.03 786.37,-270.08 837.38,-240.25 882.91,-213.62 911.5,-152.71 920.93,-129.93"/>
<polygon fill="#63b8ff" stroke="#63b8ff" points="528.19,-279.79 518.31,-283.63 528.42,-286.79 528.19,-279.79"/>
</a>
</g>
</g>
<!-- Node4 -->
<g id="Node000004" class="node">
<title>Node4</title>
<g id="a_Node000004"><a xlink:href="Controller_8cpp.html" target="_top" xlink:title=" ">
<polygon fill="white" stroke="#666666" points="350.38,-185 226.38,-185 226.38,-165.75 350.38,-165.75 350.38,-185"/>
<text text-anchor="middle" x="288.38" y="-171.5" font-family="Helvetica,sans-Serif" font-size="10.00">src/control/Controller.cpp</text>
</a>
</g>
</g>
<!-- Node3&#45;&gt;Node4 -->
<g id="edge3_Node000003_Node000004" class="edge">
<title>Node3&#45;&gt;Node4</title>
<g id="a_edge3_Node000003_Node000004"><a xlink:title=" ">
<path fill="none" stroke="#63b8ff" d="M352.64,-214.82C336.89,-205.4 317,-193.5 303.55,-185.45"/>
<polygon fill="#63b8ff" stroke="#63b8ff" points="350.6,-217.68 360.98,-219.81 354.19,-211.68 350.6,-217.68"/>
</a>
</g>
</g>
<!-- Node5 -->
<g id="Node000005" class="node">
<title>Node5</title>
<g id="a_Node000005"><a xlink:href="FlowController_8cpp.html" target="_top" xlink:title=" ">
<polygon fill="white" stroke="#666666" points="319.88,-129.75 174.88,-129.75 174.88,-110.5 319.88,-110.5 319.88,-129.75"/>
<text text-anchor="middle" x="247.38" y="-116.25" font-family="Helvetica,sans-Serif" font-size="10.00">src/control/FlowController.cpp</text>
</a>
</g>
</g>
<!-- Node3&#45;&gt;Node5 -->
<g id="edge4_Node000003_Node000005" class="edge">
<title>Node3&#45;&gt;Node5</title>
<g id="a_edge4_Node000003_Node000005"><a xlink:title=" ">
<path fill="none" stroke="#63b8ff" d="M309.2,-219.02C271.05,-211.54 228.88,-200.16 217.38,-185 204.04,-167.44 224.29,-142.99 237.49,-130.03"/>
<polygon fill="#63b8ff" stroke="#63b8ff" points="308.39,-222.43 318.86,-220.84 309.68,-215.55 308.39,-222.43"/>
</a>
</g>
</g>
<!-- Node3&#45;&gt;Node6 -->
<g id="edge5_Node000003_Node000006" class="edge">
<title>Node3&#45;&gt;Node6</title>
<g id="a_edge5_Node000003_Node000006"><a xlink:title=" ">
<path fill="none" stroke="#63b8ff" d="M395.64,-212.86C405.59,-203.72 417.51,-192.78 425.68,-185.27"/>
<polygon fill="#63b8ff" stroke="#63b8ff" points="393.33,-210.23 388.33,-219.57 398.06,-215.38 393.33,-210.23"/>
</a>
</g>
</g>
<!-- Node3&#45;&gt;Node12 -->
<g id="edge12_Node000003_Node000012" class="edge">
<title>Node3&#45;&gt;Node12</title>
<g id="a_edge12_Node000003_Node000012"><a xlink:title=" ">
<path fill="none" stroke="#63b8ff" d="M422.85,-217.7C460.05,-207.94 511.88,-194.34 545.77,-185.45"/>
<polygon fill="#63b8ff" stroke="#63b8ff" points="422.06,-214.28 413.28,-220.21 423.84,-221.06 422.06,-214.28"/>
</a>
</g>
</g>
<!-- Node6&#45;&gt;Node5 -->
<g id="edge11_Node000006_Node000005" class="edge">
<title>Node6&#45;&gt;Node5</title>
<g id="a_edge11_Node000006_Node000005"><a xlink:title=" ">
<path fill="none" stroke="#63b8ff" d="M392.81,-162.32C358.39,-152.57 310.67,-139.05 279.42,-130.2"/>
<polygon fill="#63b8ff" stroke="#63b8ff" points="391.45,-165.57 402.03,-164.93 393.36,-158.84 391.45,-165.57"/>
</a>
</g>
</g>
<!-- Node7 -->
<g id="Node000007" class="node">
<title>Node7</title>
<g id="a_Node000007"><a xlink:href="CascadeHumidistat_8h.html" target="_top" xlink:title=" ">
<polygon fill="white" stroke="#666666" points="495.25,-129.75 337.5,-129.75 337.5,-110.5 495.25,-110.5 495.25,-129.75"/>
<text text-anchor="middle" x="416.38" y="-116.25" font-family="Helvetica,sans-Serif" font-size="10.00">src/control/CascadeHumidistat.h</text>
</a>
</g>
</g>
<!-- Node6&#45;&gt;Node7 -->
<g id="edge6_Node000006_Node000007" class="edge">
<title>Node6&#45;&gt;Node7</title>
<g id="a_edge6_Node000006_Node000007"><a xlink:title=" ">
<path fill="none" stroke="#63b8ff" d="M428.46,-155C425.42,-146.49 422.01,-136.9 419.58,-130.11"/>
<polygon fill="#63b8ff" stroke="#63b8ff" points="425.07,-155.91 431.73,-164.16 431.66,-153.56 425.07,-155.91"/>
</a>
</g>
</g>
<!-- Node8 -->
<g id="Node000008" class="node">
<title>Node8</title>
<g id="a_Node000008"><a xlink:href="SerialLogger_8h.html" target="_top" xlink:title=" ">
<polygon fill="white" stroke="#666666" points="689.75,-74.5 595,-74.5 595,-55.25 689.75,-55.25 689.75,-74.5"/>
<text text-anchor="middle" x="642.38" y="-61" font-family="Helvetica,sans-Serif" font-size="10.00">src/SerialLogger.h</text>
</a>
</g>
</g>
<!-- Node7&#45;&gt;Node8 -->
<g id="edge7_Node000007_Node000008" class="edge">
<title>Node7&#45;&gt;Node8</title>
<g id="a_edge7_Node000007_Node000008"><a xlink:title=" ">
<path fill="none" stroke="#63b8ff" d="M465.93,-107.45C507.46,-97.66 565.89,-83.9 603.94,-74.93"/>
<polygon fill="#63b8ff" stroke="#63b8ff" points="465.37,-103.98 456.44,-109.68 466.98,-110.8 465.37,-103.98"/>
</a>
</g>
</g>
<!-- Node10 -->
<g id="Node000010" class="node">
<title>Node10</title>
<g id="a_Node000010"><a xlink:href="CascadeHumidistat_8cpp.html" target="_top" xlink:title=" ">
<polygon fill="white" stroke="#666666" points="377.5,-74.5 209.25,-74.5 209.25,-55.25 377.5,-55.25 377.5,-74.5"/>
<text text-anchor="middle" x="293.38" y="-61" font-family="Helvetica,sans-Serif" font-size="10.00">src/control/CascadeHumidistat.cpp</text>
</a>
</g>
</g>
<!-- Node7&#45;&gt;Node10 -->
<g id="edge9_Node000007_Node000010" class="edge">
<title>Node7&#45;&gt;Node10</title>
<g id="a_edge9_Node000007_Node000010"><a xlink:title=" ">
<path fill="none" stroke="#63b8ff" d="M384.95,-105.52C362.79,-95.93 333.73,-83.34 314.34,-74.95"/>
<polygon fill="#63b8ff" stroke="#63b8ff" points="383.55,-108.73 394.12,-109.49 386.33,-102.31 383.55,-108.73"/>
</a>
</g>
</g>
<!-- Node7&#45;&gt;Node11 -->
<g id="edge10_Node000007_Node000011" class="edge">
<title>Node7&#45;&gt;Node11</title>
<g id="a_edge10_Node000007_Node000011"><a xlink:title=" ">
<path fill="none" stroke="#63b8ff" d="M488.64,-108.38C554.58,-98.57 650.97,-84.23 713.19,-74.98"/>
<polygon fill="#63b8ff" stroke="#63b8ff" points="488.38,-104.88 479.01,-109.81 489.41,-111.8 488.38,-104.88"/>
</a>
</g>
</g>
<!-- Node8&#45;&gt;Node9 -->
<g id="edge8_Node000008_Node000009" class="edge">
<title>Node8&#45;&gt;Node9</title>
<g id="a_edge8_Node000008_Node000009"><a xlink:title=" ">
<path fill="none" stroke="#63b8ff" d="M620.38,-48.26C607.3,-38.97 591.17,-27.52 580.16,-19.7"/>
<polygon fill="#63b8ff" stroke="#63b8ff" points="618.24,-51.03 628.42,-53.97 622.29,-45.32 618.24,-51.03"/>
</a>
</g>
</g>
<!-- Node12&#45;&gt;Node7 -->
<g id="edge17_Node000012_Node000007" class="edge">
<title>Node12&#45;&gt;Node7</title>
<g id="a_edge17_Node000012_Node000007"><a xlink:title=" ">
<path fill="none" stroke="#63b8ff" d="M541.68,-161.81C511.78,-152.1 471.12,-138.9 444.33,-130.2"/>
<polygon fill="#63b8ff" stroke="#63b8ff" points="540.52,-165.12 551.12,-164.87 542.68,-158.46 540.52,-165.12"/>
</a>
</g>
</g>
<!-- Node13 -->
<g id="Node000013" class="node">
<title>Node13</title>
<g id="a_Node000013"><a xlink:href="SetpointProfileRunner_8h.html" target="_top" xlink:title=" ">
<polygon fill="white" stroke="#666666" points="647.25,-129.75 513.5,-129.75 513.5,-110.5 647.25,-110.5 647.25,-129.75"/>
<text text-anchor="middle" x="580.38" y="-116.25" font-family="Helvetica,sans-Serif" font-size="10.00">src/SetpointProfileRunner.h</text>
</a>
</g>
</g>
<!-- Node12&#45;&gt;Node13 -->
<g id="edge13_Node000012_Node000013" class="edge">
<title>Node12&#45;&gt;Node13</title>
<g id="a_edge13_Node000012_Node000013"><a xlink:title=" ">
<path fill="none" stroke="#63b8ff" d="M580.38,-154.13C580.38,-145.84 580.38,-136.67 580.38,-130.11"/>
<polygon fill="#63b8ff" stroke="#63b8ff" points="576.88,-154.07 580.38,-164.07 583.88,-154.07 576.88,-154.07"/>
</a>
</g>
</g>
<!-- Node15 -->
<g id="Node000015" class="node">
<title>Node15</title>
<g id="a_Node000015"><a xlink:href="Humidistat_8cpp.html" target="_top" xlink:title=" ">
<polygon fill="white" stroke="#666666" points="795.38,-129.75 665.38,-129.75 665.38,-110.5 795.38,-110.5 795.38,-129.75"/>
<text text-anchor="middle" x="730.38" y="-116.25" font-family="Helvetica,sans-Serif" font-size="10.00">src/control/Humidistat.cpp</text>
</a>
</g>
</g>
<!-- Node12&#45;&gt;Node15 -->
<g id="edge18_Node000012_Node000015" class="edge">
<title>Node12&#45;&gt;Node15</title>
<g id="a_edge18_Node000012_Node000015"><a xlink:title=" ">
<path fill="none" stroke="#63b8ff" d="M616.5,-161.55C643.77,-151.87 680.52,-138.82 704.8,-130.2"/>
<polygon fill="#63b8ff" stroke="#63b8ff" points="615.5,-158.19 607.25,-164.84 617.84,-164.79 615.5,-158.19"/>
</a>
</g>
</g>
<!-- Node12&#45;&gt;Node16 -->
<g id="edge19_Node000012_Node000016" class="edge">
<title>Node12&#45;&gt;Node16</title>
<g id="a_edge19_Node000012_Node000016"><a xlink:title=" ">
<path fill="none" stroke="#63b8ff" d="M650.2,-163.57C713.56,-153.76 805.92,-139.46 865.58,-130.23"/>
<polygon fill="#63b8ff" stroke="#63b8ff" points="649.96,-160.06 640.62,-165.05 651.03,-166.98 649.96,-160.06"/>
</a>
</g>
</g>
<!-- Node13&#45;&gt;Node9 -->
<g id="edge15_Node000013_Node000009" class="edge">
<title>Node13&#45;&gt;Node9</title>
<g id="a_edge15_Node000013_Node000009"><a xlink:title=" ">
<path fill="none" stroke="#63b8ff" d="M577.98,-99.1C575.14,-75.4 570.53,-36.97 568.45,-19.63"/>
<polygon fill="#63b8ff" stroke="#63b8ff" points="574.47,-99.23 579.13,-108.74 581.42,-98.4 574.47,-99.23"/>
</a>
</g>
</g>
<!-- Node13&#45;&gt;Node11 -->
<g id="edge16_Node000013_Node000011" class="edge">
<title>Node13&#45;&gt;Node11</title>
<g id="a_edge16_Node000013_Node000011"><a xlink:title=" ">
<path fill="none" stroke="#63b8ff" d="M624.3,-107.07C659.82,-97.32 709.06,-83.8 741.3,-74.95"/>
<polygon fill="#63b8ff" stroke="#63b8ff" points="623.46,-103.67 614.74,-109.69 625.31,-110.42 623.46,-103.67"/>
</a>
</g>
</g>
<!-- Node14 -->
<g id="Node000014" class="node">
<title>Node14</title>
<g id="a_Node000014"><a xlink:href="SetpointProfileRunner_8cpp.html" target="_top" xlink:title=" ">
<polygon fill="white" stroke="#666666" points="539.5,-74.5 395.25,-74.5 395.25,-55.25 539.5,-55.25 539.5,-74.5"/>
<text text-anchor="middle" x="467.38" y="-61" font-family="Helvetica,sans-Serif" font-size="10.00">src/SetpointProfileRunner.cpp</text>
</a>
</g>
</g>
<!-- Node13&#45;&gt;Node14 -->
<g id="edge14_Node000013_Node000014" class="edge">
<title>Node13&#45;&gt;Node14</title>
<g id="a_edge14_Node000013_Node000014"><a xlink:title=" ">
<path fill="none" stroke="#63b8ff" d="M550.95,-105.26C530.66,-95.7 504.28,-83.27 486.64,-74.95"/>
<polygon fill="#63b8ff" stroke="#63b8ff" points="549.3,-108.35 559.84,-109.45 552.28,-102.02 549.3,-108.35"/>
</a>
</g>
</g>
<!-- Node16&#45;&gt;Node8 -->
<g id="edge20_Node000016_Node000008" class="edge">
<title>Node16&#45;&gt;Node8</title>
<g id="a_edge20_Node000016_Node000008"><a xlink:title=" ">
<path fill="none" stroke="#63b8ff" d="M865.13,-107.94C813.02,-98.1 738.13,-83.96 689.86,-74.84"/>
<polygon fill="#63b8ff" stroke="#63b8ff" points="864.25,-111.33 874.73,-109.75 865.55,-104.46 864.25,-111.33"/>
</a>
</g>
</g>
<!-- Node16&#45;&gt;Node11 -->
<g id="edge24_Node000016_Node000011" class="edge">
<title>Node16&#45;&gt;Node11</title>
<g id="a_edge24_Node000016_Node000011"><a xlink:title=" ">
<path fill="none" stroke="#63b8ff" d="M888.25,-106.3C860.98,-96.62 824.23,-83.57 799.95,-74.95"/>
<polygon fill="#63b8ff" stroke="#63b8ff" points="886.91,-109.54 897.5,-109.59 889.25,-102.94 886.91,-109.54"/>
</a>
</g>
</g>
<!-- Node17 -->
<g id="Node000017" class="node">
<title>Node17</title>
<g id="a_Node000017"><a xlink:href="SingleHumidistat_8cpp.html" target="_top" xlink:title=" ">
<polygon fill="white" stroke="#666666" points="1015.88,-74.5 858.88,-74.5 858.88,-55.25 1015.88,-55.25 1015.88,-74.5"/>
<text text-anchor="middle" x="937.38" y="-61" font-family="Helvetica,sans-Serif" font-size="10.00">src/control/SingleHumidistat.cpp</text>
</a>
</g>
</g>
<!-- Node16&#45;&gt;Node17 -->
<g id="edge21_Node000016_Node000017" class="edge">
<title>Node16&#45;&gt;Node17</title>
<g id="a_edge21_Node000016_Node000017"><a xlink:title=" ">
<path fill="none" stroke="#63b8ff" d="M929.25,-99.17C931.29,-90.8 933.56,-81.5 935.18,-74.86"/>
<polygon fill="#63b8ff" stroke="#63b8ff" points="925.85,-98.32 926.88,-108.86 932.65,-99.98 925.85,-98.32"/>
</a>
</g>
</g>
<!-- Node18 -->
<g id="Node000018" class="node">
<title>Node18</title>
<g id="a_Node000018"><a xlink:href="CharDisplayUI_8h.html" target="_top" xlink:title=" ">
<polygon fill="white" stroke="#666666" points="1146.75,-74.5 1034,-74.5 1034,-55.25 1146.75,-55.25 1146.75,-74.5"/>
<text text-anchor="middle" x="1090.38" y="-61" font-family="Helvetica,sans-Serif" font-size="10.00">src/ui/CharDisplayUI.h</text>
</a>
</g>
</g>
<!-- Node16&#45;&gt;Node18 -->
<g id="edge22_Node000016_Node000018" class="edge">
<title>Node16&#45;&gt;Node18</title>
<g id="a_edge22_Node000016_Node000018"><a xlink:title=" ">
<path fill="none" stroke="#63b8ff" d="M963.15,-106.69C993.44,-96.97 1034.84,-83.69 1062.08,-74.95"/>
<polygon fill="#63b8ff" stroke="#63b8ff" points="962.43,-103.24 953.98,-109.63 964.57,-109.91 962.43,-103.24"/>
</a>
</g>
</g>
<!-- Node19 -->
<g id="Node000019" class="node">
<title>Node19</title>
<g id="a_Node000019"><a xlink:href="CharDisplayUI_8cpp.html" target="_top" xlink:title=" ">
<polygon fill="white" stroke="#666666" points="1152,-19.25 1028.75,-19.25 1028.75,0 1152,0 1152,-19.25"/>
<text text-anchor="middle" x="1090.38" y="-5.75" font-family="Helvetica,sans-Serif" font-size="10.00">src/ui/CharDisplayUI.cpp</text>
</a>
</g>
</g>
<!-- Node18&#45;&gt;Node19 -->
<g id="edge23_Node000018_Node000019" class="edge">
<title>Node18&#45;&gt;Node19</title>
<g id="a_edge23_Node000018_Node000019"><a xlink:title=" ">
<path fill="none" stroke="#63b8ff" d="M1090.38,-43.63C1090.38,-35.34 1090.38,-26.17 1090.38,-19.61"/>
<polygon fill="#63b8ff" stroke="#63b8ff" points="1086.88,-43.57 1090.38,-53.57 1093.88,-43.57 1086.88,-43.57"/>
</a>
</g>
</g>
</g>
</svg>
