<?xml version="1.0" encoding="UTF-8" standalone="no"?>
<!DOCTYPE svg PUBLIC "-//W3C//DTD SVG 1.1//EN"
 "http://www.w3.org/Graphics/SVG/1.1/DTD/svg11.dtd">
<!-- Generated by graphviz version 12.0.0 (20240704.0754)
 -->
<!-- Title: src/EEPROMConfig.cpp Pages: 1 -->
<svg width="192pt" height="83pt"
 viewBox="0.00 0.00 192.12 82.50" xmlns="http://www.w3.org/2000/svg" xmlns:xlink="http://www.w3.org/1999/xlink">
<g id="graph0" class="graph" transform="scale(1 1) rotate(0) translate(4 78.5)">
<title>src/EEPROMConfig.cpp</title>
<!-- Node1 -->
<g id="Node000001" class="node">
<title>Node1</title>
<g id="a_Node000001"><a xlink:title=" ">
<polygon fill="#999999" stroke="#666666" points="146.62,-74.5 27.88,-74.5 27.88,-55.25 146.62,-55.25 146.62,-74.5"/>
<text text-anchor="middle" x="87.25" y="-61" font-family="Helvetica,sans-Serif" font-size="10.00">src/EEPROMConfig.cpp</text>
</a>
</g>
</g>
<!-- Node2 -->
<g id="Node000002" class="node">
<title>Node2</title>
<g id="a_Node000002"><a xlink:title=" ">
<polygon fill="#e0e0e0" stroke="#999999" points="74.5,-19.25 0,-19.25 0,0 74.5,0 74.5,-19.25"/>
<text text-anchor="middle" x="37.25" y="-5.75" font-family="Helvetica,sans-Serif" font-size="10.00">EEPROMex.h</text>
</a>
</g>
</g>
<!-- Node1&#45;&gt;Node2 -->
<g id="edge1_Node000001_Node000002" class="edge">
<title>Node1&#45;&gt;Node2</title>
<g id="a_edge1_Node000001_Node000002"><a xlink:title=" ">
<path fill="none" stroke="#63b8ff" d="M78.99,-55.08C72.09,-47.73 62.03,-37.01 53.51,-27.94"/>
<polygon fill="#63b8ff" stroke="#63b8ff" points="56.12,-25.61 46.72,-20.71 51.02,-30.4 56.12,-25.61"/>
</a>
</g>
</g>
<!-- Node3 -->
<g id="Node000003" class="node">
<title>Node3</title>
<g id="a_Node000003"><a xlink:href="EEPROMConfig_8h.html" target="_top" xlink:title=" ">
<polygon fill="white" stroke="#666666" points="184.12,-19.25 92.38,-19.25 92.38,0 184.12,0 184.12,-19.25"/>
<text text-anchor="middle" x="138.25" y="-5.75" font-family="Helvetica,sans-Serif" font-size="10.00">EEPROMConfig.h</text>
</a>
</g>
</g>
<!-- Node1&#45;&gt;Node3 -->
<g id="edge2_Node000001_Node000003" class="edge">
<title>Node1&#45;&gt;Node3</title>
<g id="a_edge2_Node000001_Node000003"><a xlink:title=" ">
<path fill="none" stroke="#63b8ff" d="M95.67,-55.08C102.79,-47.65 113.19,-36.79 121.94,-27.66"/>
<polygon fill="#63b8ff" stroke="#63b8ff" points="124.21,-30.35 128.6,-20.7 119.15,-25.5 124.21,-30.35"/>
</a>
</g>
</g>
</g>
</svg>
