<?xml version="1.0" encoding="UTF-8" standalone="no"?>
<!DOCTYPE svg PUBLIC "-//W3C//DTD SVG 1.1//EN"
 "http://www.w3.org/Graphics/SVG/1.1/DTD/svg11.dtd">
<!-- Generated by graphviz version 12.0.0 (20240704.0754)
 -->
<!-- Title: src/sensor/FlowSensor.h Pages: 1 -->
<svg width="521pt" height="248pt"
 viewBox="0.00 0.00 520.62 248.25" xmlns="http://www.w3.org/2000/svg" xmlns:xlink="http://www.w3.org/1999/xlink">
<g id="graph0" class="graph" transform="scale(1 1) rotate(0) translate(4 244.25)">
<title>src/sensor/FlowSensor.h</title>
<!-- Node1 -->
<g id="Node000001" class="node">
<title>Node1</title>
<g id="a_Node000001"><a xlink:title=" ">
<polygon fill="#999999" stroke="#666666" points="354.38,-240.25 230.38,-240.25 230.38,-221 354.38,-221 354.38,-240.25"/>
<text text-anchor="middle" x="292.38" y="-226.75" font-family="Helvetica,sans-Serif" font-size="10.00">src/sensor/FlowSensor.h</text>
</a>
</g>
</g>
<!-- Node2 -->
<g id="Node000002" class="node">
<title>Node2</title>
<g id="a_Node000002"><a xlink:href="CascadeHumidistat_8h.html" target="_top" xlink:title=" ">
<polygon fill="white" stroke="#666666" points="276.25,-129.75 118.5,-129.75 118.5,-110.5 276.25,-110.5 276.25,-129.75"/>
<text text-anchor="middle" x="197.38" y="-116.25" font-family="Helvetica,sans-Serif" font-size="10.00">src/control/CascadeHumidistat.h</text>
</a>
</g>
</g>
<!-- Node1&#45;&gt;Node2 -->
<g id="edge1_Node000001_Node000002" class="edge">
<title>Node1&#45;&gt;Node2</title>
<g id="a_edge1_Node000001_Node000002"><a xlink:title=" ">
<path fill="none" stroke="#63b8ff" d="M256.95,-215.77C242.54,-208.54 226.85,-198.38 216.38,-185 203.39,-168.42 199.26,-143.13 197.97,-129.9"/>
<polygon fill="#63b8ff" stroke="#63b8ff" points="255.2,-218.82 265.75,-219.88 258.16,-212.48 255.2,-218.82"/>
</a>
</g>
</g>
<!-- Node7 -->
<g id="Node000007" class="node">
<title>Node7</title>
<g id="a_Node000007"><a xlink:href="FlowController_8h.html" target="_top" xlink:title=" ">
<polygon fill="white" stroke="#666666" points="359.62,-185 225.12,-185 225.12,-165.75 359.62,-165.75 359.62,-185"/>
<text text-anchor="middle" x="292.38" y="-171.5" font-family="Helvetica,sans-Serif" font-size="10.00">src/control/FlowController.h</text>
</a>
</g>
</g>
<!-- Node1&#45;&gt;Node7 -->
<g id="edge6_Node000001_Node000007" class="edge">
<title>Node1&#45;&gt;Node7</title>
<g id="a_edge6_Node000001_Node000007"><a xlink:title=" ">
<path fill="none" stroke="#63b8ff" d="M292.38,-209.38C292.38,-201.09 292.38,-191.92 292.38,-185.36"/>
<polygon fill="#63b8ff" stroke="#63b8ff" points="288.88,-209.32 292.38,-219.32 295.88,-209.32 288.88,-209.32"/>
</a>
</g>
</g>
<!-- Node9 -->
<g id="Node000009" class="node">
<title>Node9</title>
<g id="a_Node000009"><a xlink:href="FlowSensor_8cpp.html" target="_top" xlink:title=" ">
<polygon fill="white" stroke="#666666" points="512.62,-185 378.12,-185 378.12,-165.75 512.62,-165.75 512.62,-185"/>
<text text-anchor="middle" x="445.38" y="-171.5" font-family="Helvetica,sans-Serif" font-size="10.00">src/sensor/FlowSensor.cpp</text>
</a>
</g>
</g>
<!-- Node1&#45;&gt;Node9 -->
<g id="edge9_Node000001_Node000009" class="edge">
<title>Node1&#45;&gt;Node9</title>
<g id="a_edge9_Node000001_Node000009"><a xlink:title=" ">
<path fill="none" stroke="#63b8ff" d="M328.85,-216.93C356.7,-207.24 394.41,-194.11 419.29,-185.45"/>
<polygon fill="#63b8ff" stroke="#63b8ff" points="328.05,-213.5 319.76,-220.09 330.35,-220.11 328.05,-213.5"/>
</a>
</g>
</g>
<!-- Node3 -->
<g id="Node000003" class="node">
<title>Node3</title>
<g id="a_Node000003"><a xlink:href="SerialLogger_8h.html" target="_top" xlink:title=" ">
<polygon fill="white" stroke="#666666" points="94.75,-74.5 0,-74.5 0,-55.25 94.75,-55.25 94.75,-74.5"/>
<text text-anchor="middle" x="47.38" y="-61" font-family="Helvetica,sans-Serif" font-size="10.00">src/SerialLogger.h</text>
</a>
</g>
</g>
<!-- Node2&#45;&gt;Node3 -->
<g id="edge2_Node000002_Node000003" class="edge">
<title>Node2&#45;&gt;Node3</title>
<g id="a_edge2_Node000002_Node000003"><a xlink:title=" ">
<path fill="none" stroke="#63b8ff" d="M161.25,-106.3C133.98,-96.62 97.23,-83.57 72.95,-74.95"/>
<polygon fill="#63b8ff" stroke="#63b8ff" points="159.91,-109.54 170.5,-109.59 162.25,-102.94 159.91,-109.54"/>
</a>
</g>
</g>
<!-- Node5 -->
<g id="Node000005" class="node">
<title>Node5</title>
<g id="a_Node000005"><a xlink:href="CascadeHumidistat_8cpp.html" target="_top" xlink:title=" ">
<polygon fill="white" stroke="#666666" points="281.5,-74.5 113.25,-74.5 113.25,-55.25 281.5,-55.25 281.5,-74.5"/>
<text text-anchor="middle" x="197.38" y="-61" font-family="Helvetica,sans-Serif" font-size="10.00">src/control/CascadeHumidistat.cpp</text>
</a>
</g>
</g>
<!-- Node2&#45;&gt;Node5 -->
<g id="edge4_Node000002_Node000005" class="edge">
<title>Node2&#45;&gt;Node5</title>
<g id="a_edge4_Node000002_Node000005"><a xlink:title=" ">
<path fill="none" stroke="#63b8ff" d="M197.38,-98.88C197.38,-90.59 197.38,-81.42 197.38,-74.86"/>
<polygon fill="#63b8ff" stroke="#63b8ff" points="193.88,-98.82 197.38,-108.82 200.88,-98.82 193.88,-98.82"/>
</a>
</g>
</g>
<!-- Node6 -->
<g id="Node000006" class="node">
<title>Node6</title>
<g id="a_Node000006"><a xlink:href="GraphicalDisplayUI_8h.html" target="_top" xlink:title=" ">
<polygon fill="white" stroke="#666666" points="433.25,-74.5 299.5,-74.5 299.5,-55.25 433.25,-55.25 433.25,-74.5"/>
<text text-anchor="middle" x="366.38" y="-61" font-family="Helvetica,sans-Serif" font-size="10.00">src/ui/GraphicalDisplayUI.h</text>
</a>
</g>
</g>
<!-- Node2&#45;&gt;Node6 -->
<g id="edge5_Node000002_Node000006" class="edge">
<title>Node2&#45;&gt;Node6</title>
<g id="a_edge5_Node000002_Node000006"><a xlink:title=" ">
<path fill="none" stroke="#63b8ff" d="M236.85,-106.69C267.69,-96.97 309.84,-83.69 337.57,-74.95"/>
<polygon fill="#63b8ff" stroke="#63b8ff" points="235.97,-103.29 227.49,-109.64 238.08,-109.97 235.97,-103.29"/>
</a>
</g>
</g>
<!-- Node4 -->
<g id="Node000004" class="node">
<title>Node4</title>
<g id="a_Node000004"><a xlink:href="main_8cpp.html" target="_top" xlink:title=" ">
<polygon fill="white" stroke="#666666" points="83.12,-19.25 11.62,-19.25 11.62,0 83.12,0 83.12,-19.25"/>
<text text-anchor="middle" x="47.38" y="-5.75" font-family="Helvetica,sans-Serif" font-size="10.00">src/main.cpp</text>
</a>
</g>
</g>
<!-- Node3&#45;&gt;Node4 -->
<g id="edge3_Node000003_Node000004" class="edge">
<title>Node3&#45;&gt;Node4</title>
<g id="a_edge3_Node000003_Node000004"><a xlink:title=" ">
<path fill="none" stroke="#63b8ff" d="M47.38,-43.63C47.38,-35.34 47.38,-26.17 47.38,-19.61"/>
<polygon fill="#63b8ff" stroke="#63b8ff" points="43.88,-43.57 47.38,-53.57 50.88,-43.57 43.88,-43.57"/>
</a>
</g>
</g>
<!-- Node7&#45;&gt;Node2 -->
<g id="edge7_Node000007_Node000002" class="edge">
<title>Node7&#45;&gt;Node2</title>
<g id="a_edge7_Node000007_Node000002"><a xlink:title=" ">
<path fill="none" stroke="#63b8ff" d="M266.45,-159.84C249.56,-150.38 228.06,-138.33 213.57,-130.2"/>
<polygon fill="#63b8ff" stroke="#63b8ff" points="264.5,-162.77 274.94,-164.6 267.93,-156.66 264.5,-162.77"/>
</a>
</g>
</g>
<!-- Node8 -->
<g id="Node000008" class="node">
<title>Node8</title>
<g id="a_Node000008"><a xlink:href="FlowController_8cpp.html" target="_top" xlink:title=" ">
<polygon fill="white" stroke="#666666" points="438.88,-129.75 293.88,-129.75 293.88,-110.5 438.88,-110.5 438.88,-129.75"/>
<text text-anchor="middle" x="366.38" y="-116.25" font-family="Helvetica,sans-Serif" font-size="10.00">src/control/FlowController.cpp</text>
</a>
</g>
</g>
<!-- Node7&#45;&gt;Node8 -->
<g id="edge8_Node000007_Node000008" class="edge">
<title>Node7&#45;&gt;Node8</title>
<g id="a_edge8_Node000007_Node000008"><a xlink:title=" ">
<path fill="none" stroke="#63b8ff" d="M314.13,-158.72C327.13,-149.37 343.16,-137.83 354.01,-130.02"/>
<polygon fill="#63b8ff" stroke="#63b8ff" points="312.23,-155.78 306.16,-164.46 316.32,-161.46 312.23,-155.78"/>
</a>
</g>
</g>
</g>
</svg>
