<?xml version="1.0" encoding="UTF-8" standalone="no"?>
<!DOCTYPE svg PUBLIC "-//W3C//DTD SVG 1.1//EN"
 "http://www.w3.org/Graphics/SVG/1.1/DTD/svg11.dtd">
<!-- Generated by graphviz version 12.0.0 (20240704.0754)
 -->
<!-- Title: src/control/FlowController.cpp Pages: 1 -->
<svg width="337pt" height="248pt"
 viewBox="0.00 0.00 336.75 248.25" xmlns="http://www.w3.org/2000/svg" xmlns:xlink="http://www.w3.org/1999/xlink">
<g id="graph0" class="graph" transform="scale(1 1) rotate(0) translate(4 244.25)">
<title>src/control/FlowController.cpp</title>
<!-- Node1 -->
<g id="Node000001" class="node">
<title>Node1</title>
<g id="a_Node000001"><a xlink:title=" ">
<polygon fill="#999999" stroke="#666666" points="156.75,-240.25 11.75,-240.25 11.75,-221 156.75,-221 156.75,-240.25"/>
<text text-anchor="middle" x="84.25" y="-226.75" font-family="Helvetica,sans-Serif" font-size="10.00">src/control/FlowController.cpp</text>
</a>
</g>
</g>
<!-- Node2 -->
<g id="Node000002" class="node">
<title>Node2</title>
<g id="a_Node000002"><a xlink:title=" ">
<polygon fill="#e0e0e0" stroke="#999999" points="56.5,-185 0,-185 0,-165.75 56.5,-165.75 56.5,-185"/>
<text text-anchor="middle" x="28.25" y="-171.5" font-family="Helvetica,sans-Serif" font-size="10.00">Arduino.h</text>
</a>
</g>
</g>
<!-- Node1&#45;&gt;Node2 -->
<g id="edge1_Node000001_Node000002" class="edge">
<title>Node1&#45;&gt;Node2</title>
<g id="a_edge1_Node000001_Node000002"><a xlink:title=" ">
<path fill="none" stroke="#63b8ff" d="M74.75,-220.59C66.82,-213.05 55.3,-202.1 45.71,-192.98"/>
<polygon fill="#63b8ff" stroke="#63b8ff" points="48.36,-190.67 38.71,-186.32 43.54,-195.74 48.36,-190.67"/>
</a>
</g>
</g>
<!-- Node3 -->
<g id="Node000003" class="node">
<title>Node3</title>
<g id="a_Node000003"><a xlink:href="FlowController_8h.html" target="_top" xlink:title=" ">
<polygon fill="white" stroke="#666666" points="198.12,-185 112.38,-185 112.38,-165.75 198.12,-165.75 198.12,-185"/>
<text text-anchor="middle" x="155.25" y="-171.5" font-family="Helvetica,sans-Serif" font-size="10.00">FlowController.h</text>
</a>
</g>
</g>
<!-- Node1&#45;&gt;Node3 -->
<g id="edge2_Node000001_Node000003" class="edge">
<title>Node1&#45;&gt;Node3</title>
<g id="a_edge2_Node000001_Node000003"><a xlink:title=" ">
<path fill="none" stroke="#63b8ff" d="M96.29,-220.59C106.66,-212.82 121.85,-201.42 134.22,-192.15"/>
<polygon fill="#63b8ff" stroke="#63b8ff" points="136.27,-194.98 142.17,-186.18 132.07,-189.38 136.27,-194.98"/>
</a>
</g>
</g>
<!-- Node4 -->
<g id="Node000004" class="node">
<title>Node4</title>
<g id="a_Node000004"><a xlink:href="Controller_8h.html" target="_top" xlink:title=" ">
<polygon fill="white" stroke="#666666" points="116.62,-129.75 51.88,-129.75 51.88,-110.5 116.62,-110.5 116.62,-129.75"/>
<text text-anchor="middle" x="84.25" y="-116.25" font-family="Helvetica,sans-Serif" font-size="10.00">Controller.h</text>
</a>
</g>
</g>
<!-- Node1&#45;&gt;Node4 -->
<g id="edge13_Node000001_Node000004" class="edge">
<title>Node1&#45;&gt;Node4</title>
<g id="a_edge13_Node000001_Node000004"><a xlink:title=" ">
<path fill="none" stroke="#63b8ff" d="M84.25,-220.75C84.25,-203.5 84.25,-165.08 84.25,-141.31"/>
<polygon fill="#63b8ff" stroke="#63b8ff" points="87.75,-141.64 84.25,-131.64 80.75,-141.64 87.75,-141.64"/>
</a>
</g>
</g>
<!-- Node3&#45;&gt;Node4 -->
<g id="edge3_Node000003_Node000004" class="edge">
<title>Node3&#45;&gt;Node4</title>
<g id="a_edge3_Node000003_Node000004"><a xlink:title=" ">
<path fill="none" stroke="#63b8ff" d="M143.21,-165.34C132.84,-157.57 117.65,-146.17 105.28,-136.9"/>
<polygon fill="#63b8ff" stroke="#63b8ff" points="107.43,-134.13 97.33,-130.93 103.23,-139.73 107.43,-134.13"/>
</a>
</g>
</g>
<!-- Node6 -->
<g id="Node000006" class="node">
<title>Node6</title>
<g id="a_Node000006"><a xlink:href="PID_8h.html" target="_top" xlink:title=" ">
<polygon fill="white" stroke="#666666" points="112.25,-74.5 72.25,-74.5 72.25,-55.25 112.25,-55.25 112.25,-74.5"/>
<text text-anchor="middle" x="92.25" y="-61" font-family="Helvetica,sans-Serif" font-size="10.00">PID.h</text>
</a>
</g>
</g>
<!-- Node3&#45;&gt;Node6 -->
<g id="edge8_Node000003_Node000006" class="edge">
<title>Node3&#45;&gt;Node6</title>
<g id="a_edge8_Node000003_Node000006"><a xlink:title=" ">
<path fill="none" stroke="#63b8ff" d="M151.7,-165.41C146.56,-152.79 136.42,-129.23 125.25,-110.5 119.77,-101.31 112.83,-91.69 106.73,-83.75"/>
<polygon fill="#63b8ff" stroke="#63b8ff" points="109.5,-81.61 100.56,-75.93 104.01,-85.95 109.5,-81.61"/>
</a>
</g>
</g>
<!-- Node7 -->
<g id="Node000007" class="node">
<title>Node7</title>
<g id="a_Node000007"><a xlink:href="EEPROMConfig_8h.html" target="_top" xlink:title=" ">
<polygon fill="white" stroke="#666666" points="229.88,-74.5 130.62,-74.5 130.62,-55.25 229.88,-55.25 229.88,-74.5"/>
<text text-anchor="middle" x="180.25" y="-61" font-family="Helvetica,sans-Serif" font-size="10.00">../EEPROMConfig.h</text>
</a>
</g>
</g>
<!-- Node3&#45;&gt;Node7 -->
<g id="edge12_Node000003_Node000007" class="edge">
<title>Node3&#45;&gt;Node7</title>
<g id="a_edge12_Node000003_Node000007"><a xlink:title=" ">
<path fill="none" stroke="#63b8ff" d="M157.3,-165.5C161.27,-148.25 170.12,-109.83 175.6,-86.06"/>
<polygon fill="#63b8ff" stroke="#63b8ff" points="179,-86.88 177.84,-76.35 172.18,-85.31 179,-86.88"/>
</a>
</g>
</g>
<!-- Node8 -->
<g id="Node000008" class="node">
<title>Node8</title>
<g id="a_Node000008"><a xlink:href="FlowSensor_8h.html" target="_top" xlink:title=" ">
<polygon fill="white" stroke="#666666" points="328.75,-129.75 213.75,-129.75 213.75,-110.5 328.75,-110.5 328.75,-129.75"/>
<text text-anchor="middle" x="271.25" y="-116.25" font-family="Helvetica,sans-Serif" font-size="10.00">../sensor/FlowSensor.h</text>
</a>
</g>
</g>
<!-- Node3&#45;&gt;Node8 -->
<g id="edge9_Node000003_Node000008" class="edge">
<title>Node3&#45;&gt;Node8</title>
<g id="a_edge9_Node000003_Node000008"><a xlink:title=" ">
<path fill="none" stroke="#63b8ff" d="M174.93,-165.34C193.09,-157 220.33,-144.5 241.22,-134.91"/>
<polygon fill="#63b8ff" stroke="#63b8ff" points="242.47,-138.19 250.1,-130.83 239.55,-131.83 242.47,-138.19"/>
</a>
</g>
</g>
<!-- Node5 -->
<g id="Node000005" class="node">
<title>Node5</title>
<g id="a_Node000005"><a xlink:title=" ">
<polygon fill="#e0e0e0" stroke="#999999" points="116,-19.25 68.5,-19.25 68.5,0 116,0 116,-19.25"/>
<text text-anchor="middle" x="92.25" y="-5.75" font-family="Helvetica,sans-Serif" font-size="10.00">stdint.h</text>
</a>
</g>
</g>
<!-- Node4&#45;&gt;Node5 -->
<g id="edge4_Node000004_Node000005" class="edge">
<title>Node4&#45;&gt;Node5</title>
<g id="a_edge4_Node000004_Node000005"><a xlink:title=" ">
<path fill="none" stroke="#63b8ff" d="M77.67,-110.08C69.53,-97.75 57.41,-74.95 63.25,-55.25 66.06,-45.76 71.59,-36.41 77.08,-28.73"/>
<polygon fill="#63b8ff" stroke="#63b8ff" points="79.76,-30.99 83.11,-20.93 74.22,-26.7 79.76,-30.99"/>
</a>
</g>
</g>
<!-- Node4&#45;&gt;Node6 -->
<g id="edge5_Node000004_Node000006" class="edge">
<title>Node4&#45;&gt;Node6</title>
<g id="a_edge5_Node000004_Node000006"><a xlink:title=" ">
<path fill="none" stroke="#63b8ff" d="M85.57,-110.33C86.56,-103.74 87.96,-94.46 89.22,-86.07"/>
<polygon fill="#63b8ff" stroke="#63b8ff" points="92.65,-86.76 90.68,-76.36 85.73,-85.72 92.65,-86.76"/>
</a>
</g>
</g>
<!-- Node4&#45;&gt;Node7 -->
<g id="edge7_Node000004_Node000007" class="edge">
<title>Node4&#45;&gt;Node7</title>
<g id="a_edge7_Node000004_Node000007"><a xlink:title=" ">
<path fill="none" stroke="#63b8ff" d="M100.54,-110.09C115.15,-101.98 136.88,-89.93 153.96,-80.46"/>
<polygon fill="#63b8ff" stroke="#63b8ff" points="155.51,-83.6 162.56,-75.69 152.12,-77.48 155.51,-83.6"/>
</a>
</g>
</g>
<!-- Node6&#45;&gt;Node5 -->
<g id="edge6_Node000006_Node000005" class="edge">
<title>Node6&#45;&gt;Node5</title>
<g id="a_edge6_Node000006_Node000005"><a xlink:title=" ">
<path fill="none" stroke="#63b8ff" d="M92.25,-55.08C92.25,-48.57 92.25,-39.42 92.25,-31.12"/>
<polygon fill="#63b8ff" stroke="#63b8ff" points="95.75,-31.12 92.25,-21.12 88.75,-31.12 95.75,-31.12"/>
</a>
</g>
</g>
<!-- Node8&#45;&gt;Node5 -->
<g id="edge10_Node000008_Node000005" class="edge">
<title>Node8&#45;&gt;Node5</title>
<g id="a_edge10_Node000008_Node000005"><a xlink:title=" ">
<path fill="none" stroke="#63b8ff" d="M281.99,-110.19C296.34,-97.19 318.41,-72.7 304.25,-55.25 282.39,-28.31 181.96,-17.03 127.54,-12.82"/>
<polygon fill="#63b8ff" stroke="#63b8ff" points="128.09,-9.35 117.86,-12.12 127.58,-16.33 128.09,-9.35"/>
</a>
</g>
</g>
<!-- Node9 -->
<g id="Node000009" class="node">
<title>Node9</title>
<g id="a_Node000009"><a xlink:href="imath_8h.html" target="_top" xlink:title=" ">
<polygon fill="white" stroke="#666666" points="295,-74.5 247.5,-74.5 247.5,-55.25 295,-55.25 295,-74.5"/>
<text text-anchor="middle" x="271.25" y="-61" font-family="Helvetica,sans-Serif" font-size="10.00">imath.h</text>
</a>
</g>
</g>
<!-- Node8&#45;&gt;Node9 -->
<g id="edge11_Node000008_Node000009" class="edge">
<title>Node8&#45;&gt;Node9</title>
<g id="a_edge11_Node000008_Node000009"><a xlink:title=" ">
<path fill="none" stroke="#63b8ff" d="M271.25,-110.33C271.25,-103.82 271.25,-94.67 271.25,-86.37"/>
<polygon fill="#63b8ff" stroke="#63b8ff" points="274.75,-86.37 271.25,-76.37 267.75,-86.37 274.75,-86.37"/>
</a>
</g>
</g>
</g>
</svg>
