<?xml version="1.0" encoding="UTF-8" standalone="no"?>
<!DOCTYPE svg PUBLIC "-//W3C//DTD SVG 1.1//EN"
 "http://www.w3.org/Graphics/SVG/1.1/DTD/svg11.dtd">
<!-- Generated by graphviz version 12.0.0 (20240704.0754)
 -->
<!-- Title: src/sensor/FlowSensor.cpp Pages: 1 -->
<svg width="210pt" height="138pt"
 viewBox="0.00 0.00 210.00 137.75" xmlns="http://www.w3.org/2000/svg" xmlns:xlink="http://www.w3.org/1999/xlink">
<g id="graph0" class="graph" transform="scale(1 1) rotate(0) translate(4 133.75)">
<title>src/sensor/FlowSensor.cpp</title>
<!-- Node1 -->
<g id="Node000001" class="node">
<title>Node1</title>
<g id="a_Node000001"><a xlink:title=" ">
<polygon fill="#999999" stroke="#666666" points="179.5,-129.75 45,-129.75 45,-110.5 179.5,-110.5 179.5,-129.75"/>
<text text-anchor="middle" x="112.25" y="-116.25" font-family="Helvetica,sans-Serif" font-size="10.00">src/sensor/FlowSensor.cpp</text>
</a>
</g>
</g>
<!-- Node2 -->
<g id="Node000002" class="node">
<title>Node2</title>
<g id="a_Node000002"><a xlink:title=" ">
<polygon fill="#e0e0e0" stroke="#999999" points="56.5,-74.5 0,-74.5 0,-55.25 56.5,-55.25 56.5,-74.5"/>
<text text-anchor="middle" x="28.25" y="-61" font-family="Helvetica,sans-Serif" font-size="10.00">Arduino.h</text>
</a>
</g>
</g>
<!-- Node1&#45;&gt;Node2 -->
<g id="edge1_Node000001_Node000002" class="edge">
<title>Node1&#45;&gt;Node2</title>
<g id="a_edge1_Node000001_Node000002"><a xlink:title=" ">
<path fill="none" stroke="#63b8ff" d="M98,-110.09C85.45,-102.14 66.92,-90.39 52.11,-81"/>
<polygon fill="#63b8ff" stroke="#63b8ff" points="54.17,-78.16 43.85,-75.76 50.42,-84.07 54.17,-78.16"/>
</a>
</g>
</g>
<!-- Node3 -->
<g id="Node000003" class="node">
<title>Node3</title>
<g id="a_Node000003"><a xlink:href="FlowSensor_8h.html" target="_top" xlink:title=" ">
<polygon fill="white" stroke="#666666" points="149.88,-74.5 74.62,-74.5 74.62,-55.25 149.88,-55.25 149.88,-74.5"/>
<text text-anchor="middle" x="112.25" y="-61" font-family="Helvetica,sans-Serif" font-size="10.00">FlowSensor.h</text>
</a>
</g>
</g>
<!-- Node1&#45;&gt;Node3 -->
<g id="edge2_Node000001_Node000003" class="edge">
<title>Node1&#45;&gt;Node3</title>
<g id="a_edge2_Node000001_Node000003"><a xlink:title=" ">
<path fill="none" stroke="#63b8ff" d="M112.25,-110.33C112.25,-103.82 112.25,-94.67 112.25,-86.37"/>
<polygon fill="#63b8ff" stroke="#63b8ff" points="115.75,-86.37 112.25,-76.37 108.75,-86.37 115.75,-86.37"/>
</a>
</g>
</g>
<!-- Node5 -->
<g id="Node000005" class="node">
<title>Node5</title>
<g id="a_Node000005"><a xlink:href="imath_8h.html" target="_top" xlink:title=" ">
<polygon fill="white" stroke="#666666" points="202,-19.25 154.5,-19.25 154.5,0 202,0 202,-19.25"/>
<text text-anchor="middle" x="178.25" y="-5.75" font-family="Helvetica,sans-Serif" font-size="10.00">imath.h</text>
</a>
</g>
</g>
<!-- Node1&#45;&gt;Node5 -->
<g id="edge5_Node000001_Node000005" class="edge">
<title>Node1&#45;&gt;Node5</title>
<g id="a_edge5_Node000001_Node000005"><a xlink:title=" ">
<path fill="none" stroke="#63b8ff" d="M124.79,-110.23C135.41,-102.08 150.31,-89.08 159.25,-74.5 167.5,-61.05 172.35,-43.8 175.09,-30.61"/>
<polygon fill="#63b8ff" stroke="#63b8ff" points="178.5,-31.43 176.83,-20.97 171.61,-30.19 178.5,-31.43"/>
</a>
</g>
</g>
<!-- Node4 -->
<g id="Node000004" class="node">
<title>Node4</title>
<g id="a_Node000004"><a xlink:title=" ">
<polygon fill="#e0e0e0" stroke="#999999" points="136,-19.25 88.5,-19.25 88.5,0 136,0 136,-19.25"/>
<text text-anchor="middle" x="112.25" y="-5.75" font-family="Helvetica,sans-Serif" font-size="10.00">stdint.h</text>
</a>
</g>
</g>
<!-- Node3&#45;&gt;Node4 -->
<g id="edge3_Node000003_Node000004" class="edge">
<title>Node3&#45;&gt;Node4</title>
<g id="a_edge3_Node000003_Node000004"><a xlink:title=" ">
<path fill="none" stroke="#63b8ff" d="M112.25,-55.08C112.25,-48.57 112.25,-39.42 112.25,-31.12"/>
<polygon fill="#63b8ff" stroke="#63b8ff" points="115.75,-31.12 112.25,-21.12 108.75,-31.12 115.75,-31.12"/>
</a>
</g>
</g>
<!-- Node3&#45;&gt;Node5 -->
<g id="edge4_Node000003_Node000005" class="edge">
<title>Node3&#45;&gt;Node5</title>
<g id="a_edge4_Node000003_Node000005"><a xlink:title=" ">
<path fill="none" stroke="#63b8ff" d="M123.45,-54.84C132.99,-47.15 146.92,-35.9 158.36,-26.68"/>
<polygon fill="#63b8ff" stroke="#63b8ff" points="160.46,-29.48 166.04,-20.48 156.06,-24.03 160.46,-29.48"/>
</a>
</g>
</g>
</g>
</svg>
