<?xml version="1.0" encoding="UTF-8" standalone="no"?>
<!DOCTYPE svg PUBLIC "-//W3C//DTD SVG 1.1//EN"
 "http://www.w3.org/Graphics/SVG/1.1/DTD/svg11.dtd">
<!-- Generated by graphviz version 12.0.0 (20240704.0754)
 -->
<!-- Title: src/control/FlowController.h Pages: 1 -->
<svg width="303pt" height="193pt"
 viewBox="0.00 0.00 302.50 193.00" xmlns="http://www.w3.org/2000/svg" xmlns:xlink="http://www.w3.org/1999/xlink">
<g id="graph0" class="graph" transform="scale(1 1) rotate(0) translate(4 189)">
<title>src/control/FlowController.h</title>
<!-- Node1 -->
<g id="Node000001" class="node">
<title>Node1</title>
<g id="a_Node000001"><a xlink:title=" ">
<polygon fill="#999999" stroke="#666666" points="246.75,-185 112.25,-185 112.25,-165.75 246.75,-165.75 246.75,-185"/>
<text text-anchor="middle" x="179.5" y="-171.5" font-family="Helvetica,sans-Serif" font-size="10.00">src/control/FlowController.h</text>
</a>
</g>
</g>
<!-- Node2 -->
<g id="Node000002" class="node">
<title>Node2</title>
<g id="a_Node000002"><a xlink:href="Controller_8h.html" target="_top" xlink:title=" ">
<polygon fill="white" stroke="#666666" points="244.88,-129.75 180.12,-129.75 180.12,-110.5 244.88,-110.5 244.88,-129.75"/>
<text text-anchor="middle" x="212.5" y="-116.25" font-family="Helvetica,sans-Serif" font-size="10.00">Controller.h</text>
</a>
</g>
</g>
<!-- Node1&#45;&gt;Node2 -->
<g id="edge1_Node000001_Node000002" class="edge">
<title>Node1&#45;&gt;Node2</title>
<g id="a_edge1_Node000001_Node000002"><a xlink:title=" ">
<path fill="none" stroke="#63b8ff" d="M184.95,-165.58C189.27,-158.61 195.46,-148.62 200.88,-139.87"/>
<polygon fill="#63b8ff" stroke="#63b8ff" points="203.84,-141.74 206.14,-131.4 197.89,-138.05 203.84,-141.74"/>
</a>
</g>
</g>
<!-- Node4 -->
<g id="Node000004" class="node">
<title>Node4</title>
<g id="a_Node000004"><a xlink:href="PID_8h.html" target="_top" xlink:title=" ">
<polygon fill="white" stroke="#666666" points="294.5,-74.5 254.5,-74.5 254.5,-55.25 294.5,-55.25 294.5,-74.5"/>
<text text-anchor="middle" x="274.5" y="-61" font-family="Helvetica,sans-Serif" font-size="10.00">PID.h</text>
</a>
</g>
</g>
<!-- Node1&#45;&gt;Node4 -->
<g id="edge6_Node000001_Node000004" class="edge">
<title>Node1&#45;&gt;Node4</title>
<g id="a_edge6_Node000001_Node000004"><a xlink:title=" ">
<path fill="none" stroke="#63b8ff" d="M203.25,-165.31C219.51,-157.98 240.41,-146.18 253.5,-129.75 263.64,-117.03 268.96,-99.23 271.71,-85.65"/>
<polygon fill="#63b8ff" stroke="#63b8ff" points="275.1,-86.57 273.32,-76.13 268.2,-85.41 275.1,-86.57"/>
</a>
</g>
</g>
<!-- Node5 -->
<g id="Node000005" class="node">
<title>Node5</title>
<g id="a_Node000005"><a xlink:href="EEPROMConfig_8h.html" target="_top" xlink:title=" ">
<polygon fill="white" stroke="#666666" points="198.12,-74.5 98.88,-74.5 98.88,-55.25 198.12,-55.25 198.12,-74.5"/>
<text text-anchor="middle" x="148.5" y="-61" font-family="Helvetica,sans-Serif" font-size="10.00">../EEPROMConfig.h</text>
</a>
</g>
</g>
<!-- Node1&#45;&gt;Node5 -->
<g id="edge10_Node000001_Node000005" class="edge">
<title>Node1&#45;&gt;Node5</title>
<g id="a_edge10_Node000001_Node000005"><a xlink:title=" ">
<path fill="none" stroke="#63b8ff" d="M176.96,-165.5C172.01,-148.17 160.96,-109.48 154.17,-85.74"/>
<polygon fill="#63b8ff" stroke="#63b8ff" points="157.6,-84.99 151.49,-76.33 150.87,-86.91 157.6,-84.99"/>
</a>
</g>
</g>
<!-- Node6 -->
<g id="Node000006" class="node">
<title>Node6</title>
<g id="a_Node000006"><a xlink:href="FlowSensor_8h.html" target="_top" xlink:title=" ">
<polygon fill="white" stroke="#666666" points="115,-129.75 0,-129.75 0,-110.5 115,-110.5 115,-129.75"/>
<text text-anchor="middle" x="57.5" y="-116.25" font-family="Helvetica,sans-Serif" font-size="10.00">../sensor/FlowSensor.h</text>
</a>
</g>
</g>
<!-- Node1&#45;&gt;Node6 -->
<g id="edge7_Node000001_Node000006" class="edge">
<title>Node1&#45;&gt;Node6</title>
<g id="a_edge7_Node000001_Node000006"><a xlink:title=" ">
<path fill="none" stroke="#63b8ff" d="M158.8,-165.34C139.61,-156.97 110.79,-144.38 88.78,-134.78"/>
<polygon fill="#63b8ff" stroke="#63b8ff" points="90.25,-131.6 79.68,-130.81 87.45,-138.02 90.25,-131.6"/>
</a>
</g>
</g>
<!-- Node3 -->
<g id="Node000003" class="node">
<title>Node3</title>
<g id="a_Node000003"><a xlink:title=" ">
<polygon fill="#e0e0e0" stroke="#999999" points="250.25,-19.25 202.75,-19.25 202.75,0 250.25,0 250.25,-19.25"/>
<text text-anchor="middle" x="226.5" y="-5.75" font-family="Helvetica,sans-Serif" font-size="10.00">stdint.h</text>
</a>
</g>
</g>
<!-- Node2&#45;&gt;Node3 -->
<g id="edge2_Node000002_Node000003" class="edge">
<title>Node2&#45;&gt;Node3</title>
<g id="a_edge2_Node000002_Node000003"><a xlink:title=" ">
<path fill="none" stroke="#63b8ff" d="M213.65,-110.25C215.87,-93 220.83,-54.58 223.89,-30.81"/>
<polygon fill="#63b8ff" stroke="#63b8ff" points="227.34,-31.49 225.14,-21.13 220.39,-30.6 227.34,-31.49"/>
</a>
</g>
</g>
<!-- Node2&#45;&gt;Node4 -->
<g id="edge3_Node000002_Node000004" class="edge">
<title>Node2&#45;&gt;Node4</title>
<g id="a_edge3_Node000002_Node000004"><a xlink:title=" ">
<path fill="none" stroke="#63b8ff" d="M223.02,-110.09C231.89,-102.47 244.81,-91.37 255.49,-82.2"/>
<polygon fill="#63b8ff" stroke="#63b8ff" points="257.68,-84.93 262.99,-75.76 253.12,-79.62 257.68,-84.93"/>
</a>
</g>
</g>
<!-- Node2&#45;&gt;Node5 -->
<g id="edge5_Node000002_Node000005" class="edge">
<title>Node2&#45;&gt;Node5</title>
<g id="a_edge5_Node000002_Node000005"><a xlink:title=" ">
<path fill="none" stroke="#63b8ff" d="M201.64,-110.09C192.39,-102.4 178.88,-91.15 167.79,-81.93"/>
<polygon fill="#63b8ff" stroke="#63b8ff" points="170.29,-79.45 160.36,-75.74 165.81,-84.83 170.29,-79.45"/>
</a>
</g>
</g>
<!-- Node4&#45;&gt;Node3 -->
<g id="edge4_Node000004_Node000003" class="edge">
<title>Node4&#45;&gt;Node3</title>
<g id="a_edge4_Node000004_Node000003"><a xlink:title=" ">
<path fill="none" stroke="#63b8ff" d="M266.57,-55.08C259.94,-47.73 250.28,-37.01 242.11,-27.94"/>
<polygon fill="#63b8ff" stroke="#63b8ff" points="244.91,-25.82 235.61,-20.73 239.71,-30.5 244.91,-25.82"/>
</a>
</g>
</g>
<!-- Node6&#45;&gt;Node3 -->
<g id="edge8_Node000006_Node000003" class="edge">
<title>Node6&#45;&gt;Node3</title>
<g id="a_edge8_Node000006_Node000003"><a xlink:title=" ">
<path fill="none" stroke="#63b8ff" d="M46.78,-110.21C32.46,-97.23 10.43,-72.77 24.5,-55.25 45,-29.73 138.74,-17.92 191.01,-13.25"/>
<polygon fill="#63b8ff" stroke="#63b8ff" points="191.24,-16.74 200.91,-12.41 190.65,-9.76 191.24,-16.74"/>
</a>
</g>
</g>
<!-- Node7 -->
<g id="Node000007" class="node">
<title>Node7</title>
<g id="a_Node000007"><a xlink:href="imath_8h.html" target="_top" xlink:title=" ">
<polygon fill="white" stroke="#666666" points="81.25,-74.5 33.75,-74.5 33.75,-55.25 81.25,-55.25 81.25,-74.5"/>
<text text-anchor="middle" x="57.5" y="-61" font-family="Helvetica,sans-Serif" font-size="10.00">imath.h</text>
</a>
</g>
</g>
<!-- Node6&#45;&gt;Node7 -->
<g id="edge9_Node000006_Node000007" class="edge">
<title>Node6&#45;&gt;Node7</title>
<g id="a_edge9_Node000006_Node000007"><a xlink:title=" ">
<path fill="none" stroke="#63b8ff" d="M57.5,-110.33C57.5,-103.82 57.5,-94.67 57.5,-86.37"/>
<polygon fill="#63b8ff" stroke="#63b8ff" points="61,-86.37 57.5,-76.37 54,-86.37 61,-86.37"/>
</a>
</g>
</g>
</g>
</svg>
