<?xml version="1.0" encoding="UTF-8" standalone="no"?>
<!DOCTYPE svg PUBLIC "-//W3C//DTD SVG 1.1//EN"
 "http://www.w3.org/Graphics/SVG/1.1/DTD/svg11.dtd">
<!-- Generated by graphviz version 12.0.0 (20240704.0754)
 -->
<!-- Title: src/sensor/FlowSensor.h Pages: 1 -->
<svg width="132pt" height="83pt"
 viewBox="0.00 0.00 132.00 82.50" xmlns="http://www.w3.org/2000/svg" xmlns:xlink="http://www.w3.org/1999/xlink">
<g id="graph0" class="graph" transform="scale(1 1) rotate(0) translate(4 78.5)">
<title>src/sensor/FlowSensor.h</title>
<!-- Node1 -->
<g id="Node000001" class="node">
<title>Node1</title>
<g id="a_Node000001"><a xlink:title=" ">
<polygon fill="#999999" stroke="#666666" points="124,-74.5 0,-74.5 0,-55.25 124,-55.25 124,-74.5"/>
<text text-anchor="middle" x="62" y="-61" font-family="Helvetica,sans-Serif" font-size="10.00">src/sensor/FlowSensor.h</text>
</a>
</g>
</g>
<!-- Node2 -->
<g id="Node000002" class="node">
<title>Node2</title>
<g id="a_Node000002"><a xlink:title=" ">
<polygon fill="#e0e0e0" stroke="#999999" points="52.75,-19.25 5.25,-19.25 5.25,0 52.75,0 52.75,-19.25"/>
<text text-anchor="middle" x="29" y="-5.75" font-family="Helvetica,sans-Serif" font-size="10.00">stdint.h</text>
</a>
</g>
</g>
<!-- Node1&#45;&gt;Node2 -->
<g id="edge1_Node000001_Node000002" class="edge">
<title>Node1&#45;&gt;Node2</title>
<g id="a_edge1_Node000001_Node000002"><a xlink:title=" ">
<path fill="none" stroke="#63b8ff" d="M56.55,-55.08C52.23,-48.11 46.04,-38.12 40.62,-29.37"/>
<polygon fill="#63b8ff" stroke="#63b8ff" points="43.61,-27.55 35.36,-20.9 37.66,-31.24 43.61,-27.55"/>
</a>
</g>
</g>
<!-- Node3 -->
<g id="Node000003" class="node">
<title>Node3</title>
<g id="a_Node000003"><a xlink:href="imath_8h.html" target="_top" xlink:title=" ">
<polygon fill="white" stroke="#666666" points="118.75,-19.25 71.25,-19.25 71.25,0 118.75,0 118.75,-19.25"/>
<text text-anchor="middle" x="95" y="-5.75" font-family="Helvetica,sans-Serif" font-size="10.00">imath.h</text>
</a>
</g>
</g>
<!-- Node1&#45;&gt;Node3 -->
<g id="edge2_Node000001_Node000003" class="edge">
<title>Node1&#45;&gt;Node3</title>
<g id="a_edge2_Node000001_Node000003"><a xlink:title=" ">
<path fill="none" stroke="#63b8ff" d="M67.45,-55.08C71.77,-48.11 77.96,-38.12 83.38,-29.37"/>
<polygon fill="#63b8ff" stroke="#63b8ff" points="86.34,-31.24 88.64,-20.9 80.39,-27.55 86.34,-31.24"/>
</a>
</g>
</g>
</g>
</svg>
