<?xml version="1.0" encoding="UTF-8" standalone="no"?>
<!DOCTYPE svg PUBLIC "-//W3C//DTD SVG 1.1//EN"
 "http://www.w3.org/Graphics/SVG/1.1/DTD/svg11.dtd">
<!-- Generated by graphviz version 12.0.0 (20240704.0754)
 -->
<!-- Title: src/ui/GraphicalDisplayUI.h Pages: 1 -->
<svg width="1251pt" height="304pt"
 viewBox="0.00 0.00 1251.40 303.50" xmlns="http://www.w3.org/2000/svg" xmlns:xlink="http://www.w3.org/1999/xlink">
<g id="graph0" class="graph" transform="scale(1 1) rotate(0) translate(4 299.5)">
<title>src/ui/GraphicalDisplayUI.h</title>
<!-- Node1 -->
<g id="Node000001" class="node">
<title>Node1</title>
<g id="a_Node000001"><a xlink:title=" ">
<polygon fill="#999999" stroke="#666666" points="771.52,-295.5 637.77,-295.5 637.77,-276.25 771.52,-276.25 771.52,-295.5"/>
<text text-anchor="middle" x="704.65" y="-282" font-family="Helvetica,sans-Serif" font-size="10.00">src/ui/GraphicalDisplayUI.h</text>
</a>
</g>
</g>
<!-- Node2 -->
<g id="Node000002" class="node">
<title>Node2</title>
<g id="a_Node000002"><a xlink:title=" ">
<polygon fill="#e0e0e0" stroke="#999999" points="181.9,-240.25 125.4,-240.25 125.4,-221 181.9,-221 181.9,-240.25"/>
<text text-anchor="middle" x="153.65" y="-226.75" font-family="Helvetica,sans-Serif" font-size="10.00">U8g2lib.h</text>
</a>
</g>
</g>
<!-- Node1&#45;&gt;Node2 -->
<g id="edge1_Node000001_Node000002" class="edge">
<title>Node1&#45;&gt;Node2</title>
<g id="a_edge1_Node000001_Node000002"><a xlink:title=" ">
<path fill="none" stroke="#63b8ff" d="M637.33,-282.09C540.99,-277.43 358.1,-266.08 193.56,-240.5"/>
<polygon fill="#63b8ff" stroke="#63b8ff" points="194.17,-237.06 183.75,-238.95 193.08,-243.97 194.17,-237.06"/>
</a>
</g>
</g>
<!-- Node3 -->
<g id="Node000003" class="node">
<title>Node3</title>
<g id="a_Node000003"><a xlink:title=" ">
<polygon fill="#e0e0e0" stroke="#999999" points="239.65,-240.25 199.65,-240.25 199.65,-221 239.65,-221 239.65,-240.25"/>
<text text-anchor="middle" x="219.65" y="-226.75" font-family="Helvetica,sans-Serif" font-size="10.00">SPI.h</text>
</a>
</g>
</g>
<!-- Node1&#45;&gt;Node3 -->
<g id="edge2_Node000001_Node000003" class="edge">
<title>Node1&#45;&gt;Node3</title>
<g id="a_edge2_Node000001_Node000003"><a xlink:title=" ">
<path fill="none" stroke="#63b8ff" d="M637.61,-282.33C550.46,-278.14 393.48,-267.55 251.21,-240.4"/>
<polygon fill="#63b8ff" stroke="#63b8ff" points="252.09,-237 241.61,-238.53 250.76,-243.88 252.09,-237"/>
</a>
</g>
</g>
<!-- Node4 -->
<g id="Node000004" class="node">
<title>Node4</title>
<g id="a_Node000004"><a xlink:title=" ">
<polygon fill="#e0e0e0" stroke="#999999" points="495.65,-129.75 437.65,-129.75 437.65,-110.5 495.65,-110.5 495.65,-129.75"/>
<text text-anchor="middle" x="466.65" y="-116.25" font-family="Helvetica,sans-Serif" font-size="10.00">etl/span.h</text>
</a>
</g>
</g>
<!-- Node1&#45;&gt;Node4 -->
<g id="edge3_Node000001_Node000004" class="edge">
<title>Node1&#45;&gt;Node4</title>
<g id="a_edge3_Node000001_Node000004"><a xlink:title=" ">
<path fill="none" stroke="#63b8ff" d="M686.07,-275.88C668.95,-267.36 643.03,-253.88 621.65,-240.25 569.96,-207.31 514.07,-161.57 485.62,-137.47"/>
<polygon fill="#63b8ff" stroke="#63b8ff" points="488.1,-134.99 478.22,-131.16 483.56,-140.32 488.1,-134.99"/>
</a>
</g>
</g>
<!-- Node5 -->
<g id="Node000005" class="node">
<title>Node5</title>
<g id="a_Node000005"><a xlink:title=" ">
<polygon fill="#e0e0e0" stroke="#999999" points="1160.15,-240.25 1117.15,-240.25 1117.15,-221 1160.15,-221 1160.15,-240.25"/>
<text text-anchor="middle" x="1138.65" y="-226.75" font-family="Helvetica,sans-Serif" font-size="10.00">cmath</text>
</a>
</g>
</g>
<!-- Node1&#45;&gt;Node5 -->
<g id="edge4_Node000001_Node000005" class="edge">
<title>Node1&#45;&gt;Node5</title>
<g id="a_edge4_Node000001_Node000005"><a xlink:title=" ">
<path fill="none" stroke="#63b8ff" d="M771.91,-279.88C851.33,-273.4 987.25,-260.46 1102.65,-240.25 1103.64,-240.08 1104.66,-239.89 1105.67,-239.69"/>
<polygon fill="#63b8ff" stroke="#63b8ff" points="1106.12,-243.18 1115.17,-237.67 1104.66,-236.33 1106.12,-243.18"/>
</a>
</g>
</g>
<!-- Node6 -->
<g id="Node000006" class="node">
<title>Node6</title>
<g id="a_Node000006"><a xlink:href="ConfigPar_8h.html" target="_top" xlink:title=" ">
<polygon fill="white" stroke="#666666" points="1243.4,-240.25 1177.9,-240.25 1177.9,-221 1243.4,-221 1243.4,-240.25"/>
<text text-anchor="middle" x="1210.65" y="-226.75" font-family="Helvetica,sans-Serif" font-size="10.00">ConfigPar.h</text>
</a>
</g>
</g>
<!-- Node1&#45;&gt;Node6 -->
<g id="edge5_Node000001_Node000006" class="edge">
<title>Node1&#45;&gt;Node6</title>
<g id="a_edge5_Node000001_Node000006"><a xlink:title=" ">
<path fill="none" stroke="#63b8ff" d="M771.93,-280.78C860.32,-274.89 1020.55,-262.39 1166.23,-240.63"/>
<polygon fill="#63b8ff" stroke="#63b8ff" points="1166.73,-244.1 1176.09,-239.14 1165.68,-237.17 1166.73,-244.1"/>
</a>
</g>
</g>
<!-- Node7 -->
<g id="Node000007" class="node">
<title>Node7</title>
<g id="a_Node000007"><a xlink:href="advanceEnum_8h.html" target="_top" xlink:title=" ">
<polygon fill="white" stroke="#666666" points="1128.15,-74.5 1043.15,-74.5 1043.15,-55.25 1128.15,-55.25 1128.15,-74.5"/>
<text text-anchor="middle" x="1085.65" y="-61" font-family="Helvetica,sans-Serif" font-size="10.00">advanceEnum.h</text>
</a>
</g>
</g>
<!-- Node1&#45;&gt;Node7 -->
<g id="edge6_Node000001_Node000007" class="edge">
<title>Node1&#45;&gt;Node7</title>
<g id="a_edge6_Node000001_Node000007"><a xlink:title=" ">
<path fill="none" stroke="#63b8ff" d="M771.75,-282.61C850.3,-278.69 974.29,-268.16 1010.65,-240.25 1060.69,-201.84 1077.83,-123.37 1083.29,-86.23"/>
<polygon fill="#63b8ff" stroke="#63b8ff" points="1086.74,-86.82 1084.57,-76.45 1079.8,-85.91 1086.74,-86.82"/>
</a>
</g>
</g>
<!-- Node9 -->
<g id="Node000009" class="node">
<title>Node9</title>
<g id="a_Node000009"><a xlink:href="ControllerUI_8h.html" target="_top" xlink:title=" ">
<polygon fill="white" stroke="#666666" points="333.27,-240.25 258.02,-240.25 258.02,-221 333.27,-221 333.27,-240.25"/>
<text text-anchor="middle" x="295.65" y="-226.75" font-family="Helvetica,sans-Serif" font-size="10.00">ControllerUI.h</text>
</a>
</g>
</g>
<!-- Node1&#45;&gt;Node9 -->
<g id="edge8_Node000001_Node000009" class="edge">
<title>Node1&#45;&gt;Node9</title>
<g id="a_edge8_Node000001_Node000009"><a xlink:title=" ">
<path fill="none" stroke="#63b8ff" d="M637.29,-276.12C568.12,-267.13 457.37,-252.73 361.65,-240.25 356.27,-239.55 350.65,-238.82 345.06,-238.08"/>
<polygon fill="#63b8ff" stroke="#63b8ff" points="345.56,-234.62 335.19,-236.8 344.65,-241.56 345.56,-234.62"/>
</a>
</g>
</g>
<!-- Node18 -->
<g id="Node000018" class="node">
<title>Node18</title>
<g id="a_Node000018"><a xlink:href="EEPROMConfig_8h.html" target="_top" xlink:title=" ">
<polygon fill="white" stroke="#666666" points="861.52,-74.5 769.77,-74.5 769.77,-55.25 861.52,-55.25 861.52,-74.5"/>
<text text-anchor="middle" x="815.65" y="-61" font-family="Helvetica,sans-Serif" font-size="10.00">EEPROMConfig.h</text>
</a>
</g>
</g>
<!-- Node1&#45;&gt;Node18 -->
<g id="edge21_Node000001_Node000018" class="edge">
<title>Node1&#45;&gt;Node18</title>
<g id="a_edge21_Node000001_Node000018"><a xlink:title=" ">
<path fill="none" stroke="#63b8ff" d="M771.88,-283.87C846.11,-281.16 958.71,-271.81 985.65,-240.25 1018.47,-201.81 1060.71,-229.96 928.65,-110.5 912.01,-95.45 889.68,-85.2 869.27,-78.36"/>
<polygon fill="#63b8ff" stroke="#63b8ff" points="870.53,-75.09 859.94,-75.45 868.45,-81.77 870.53,-75.09"/>
</a>
</g>
</g>
<!-- Node19 -->
<g id="Node000019" class="node">
<title>Node19</title>
<g id="a_Node000019"><a xlink:href="SingleHumidistat_8h.html" target="_top" xlink:title=" ">
<polygon fill="white" stroke="#666666" points="976.4,-240.25 838.9,-240.25 838.9,-221 976.4,-221 976.4,-240.25"/>
<text text-anchor="middle" x="907.65" y="-226.75" font-family="Helvetica,sans-Serif" font-size="10.00">../control/SingleHumidistat.h</text>
</a>
</g>
</g>
<!-- Node1&#45;&gt;Node19 -->
<g id="edge22_Node000001_Node000019" class="edge">
<title>Node1&#45;&gt;Node19</title>
<g id="a_edge22_Node000001_Node000019"><a xlink:title=" ">
<path fill="none" stroke="#63b8ff" d="M739.08,-275.84C772.91,-266.97 824.73,-253.37 861.99,-243.6"/>
<polygon fill="#63b8ff" stroke="#63b8ff" points="862.79,-247.01 871.58,-241.09 861.02,-240.24 862.79,-247.01"/>
</a>
</g>
</g>
<!-- Node24 -->
<g id="Node000024" class="node">
<title>Node24</title>
<g id="a_Node000024"><a xlink:href="CascadeHumidistat_8h.html" target="_top" xlink:title=" ">
<polygon fill="white" stroke="#666666" points="779.02,-240.25 630.27,-240.25 630.27,-221 779.02,-221 779.02,-240.25"/>
<text text-anchor="middle" x="704.65" y="-226.75" font-family="Helvetica,sans-Serif" font-size="10.00">../control/CascadeHumidistat.h</text>
</a>
</g>
</g>
<!-- Node1&#45;&gt;Node24 -->
<g id="edge35_Node000001_Node000024" class="edge">
<title>Node1&#45;&gt;Node24</title>
<g id="a_edge35_Node000001_Node000024"><a xlink:title=" ">
<path fill="none" stroke="#63b8ff" d="M704.65,-276.08C704.65,-269.57 704.65,-260.42 704.65,-252.12"/>
<polygon fill="#63b8ff" stroke="#63b8ff" points="708.15,-252.12 704.65,-242.12 701.15,-252.12 708.15,-252.12"/>
</a>
</g>
</g>
<!-- Node28 -->
<g id="Node000028" class="node">
<title>Node28</title>
<g id="a_Node000028"><a xlink:href="SetpointProfileRunner_8h.html" target="_top" xlink:title=" ">
<polygon fill="white" stroke="#666666" points="488.27,-240.25 371.02,-240.25 371.02,-221 488.27,-221 488.27,-240.25"/>
<text text-anchor="middle" x="429.65" y="-226.75" font-family="Helvetica,sans-Serif" font-size="10.00">SetpointProfileRunner.h</text>
</a>
</g>
</g>
<!-- Node1&#45;&gt;Node28 -->
<g id="edge48_Node000001_Node000028" class="edge">
<title>Node1&#45;&gt;Node28</title>
<g id="a_edge48_Node000001_Node000028"><a xlink:title=" ">
<path fill="none" stroke="#63b8ff" d="M657.69,-275.78C610.62,-266.67 538.08,-252.62 487.5,-242.83"/>
<polygon fill="#63b8ff" stroke="#63b8ff" points="488.38,-239.43 477.9,-240.97 487.05,-246.31 488.38,-239.43"/>
</a>
</g>
</g>
<!-- Node8 -->
<g id="Node000008" class="node">
<title>Node8</title>
<g id="a_Node000008"><a xlink:title=" ">
<polygon fill="#e0e0e0" stroke="#999999" points="555.4,-19.25 507.9,-19.25 507.9,0 555.4,0 555.4,-19.25"/>
<text text-anchor="middle" x="531.65" y="-5.75" font-family="Helvetica,sans-Serif" font-size="10.00">stdint.h</text>
</a>
</g>
</g>
<!-- Node7&#45;&gt;Node8 -->
<g id="edge7_Node000007_Node000008" class="edge">
<title>Node7&#45;&gt;Node8</title>
<g id="a_edge7_Node000007_Node000008"><a xlink:title=" ">
<path fill="none" stroke="#63b8ff" d="M1042.83,-57.33C1037.39,-56.58 1031.89,-55.87 1026.65,-55.25 854.7,-34.95 648.18,-19.05 566.93,-13.13"/>
<polygon fill="#63b8ff" stroke="#63b8ff" points="567.39,-9.66 557.16,-12.43 566.88,-16.64 567.39,-9.66"/>
</a>
</g>
</g>
<!-- Node9&#45;&gt;Node4 -->
<g id="edge10_Node000009_Node000004" class="edge">
<title>Node9&#45;&gt;Node4</title>
<g id="a_edge10_Node000009_Node000004"><a xlink:title=" ">
<path fill="none" stroke="#63b8ff" d="M333.58,-222.6C360.25,-216.22 395.67,-204.7 421.65,-185 437.34,-173.1 449.71,-154.15 457.47,-139.98"/>
<polygon fill="#63b8ff" stroke="#63b8ff" points="460.53,-141.7 462,-131.21 454.3,-138.49 460.53,-141.7"/>
</a>
</g>
</g>
<!-- Node9&#45;&gt;Node8 -->
<g id="edge9_Node000009_Node000008" class="edge">
<title>Node9&#45;&gt;Node8</title>
<g id="a_edge9_Node000009_Node000008"><a xlink:title=" ">
<path fill="none" stroke="#63b8ff" d="M257.63,-222.59C191.45,-210.32 61.83,-186.18 59.65,-185 23.92,-165.64 -15.48,-144.58 6.65,-110.5 60.4,-27.71 387.47,-13.55 496.39,-11.12"/>
<polygon fill="#63b8ff" stroke="#63b8ff" points="496.26,-14.63 506.19,-10.93 496.12,-7.63 496.26,-14.63"/>
</a>
</g>
</g>
<!-- Node10 -->
<g id="Node000010" class="node">
<title>Node10</title>
<g id="a_Node000010"><a xlink:title=" ">
<polygon fill="#e0e0e0" stroke="#999999" points="224.52,-185 180.77,-185 180.77,-165.75 224.52,-165.75 224.52,-185"/>
<text text-anchor="middle" x="202.65" y="-171.5" font-family="Helvetica,sans-Serif" font-size="10.00">Print.h</text>
</a>
</g>
</g>
<!-- Node9&#45;&gt;Node10 -->
<g id="edge11_Node000009_Node000010" class="edge">
<title>Node9&#45;&gt;Node10</title>
<g id="a_edge11_Node000009_Node000010"><a xlink:title=" ">
<path fill="none" stroke="#63b8ff" d="M279.87,-220.59C265.71,-212.48 244.67,-200.43 228.12,-190.96"/>
<polygon fill="#63b8ff" stroke="#63b8ff" points="230.23,-188.14 219.81,-186.2 226.75,-194.21 230.23,-188.14"/>
</a>
</g>
</g>
<!-- Node11 -->
<g id="Node000011" class="node">
<title>Node11</title>
<g id="a_Node000011"><a xlink:href="ButtonReader_8h.html" target="_top" xlink:title=" ">
<polygon fill="white" stroke="#666666" points="349.02,-185 242.27,-185 242.27,-165.75 349.02,-165.75 349.02,-185"/>
<text text-anchor="middle" x="295.65" y="-171.5" font-family="Helvetica,sans-Serif" font-size="10.00">input/ButtonReader.h</text>
</a>
</g>
</g>
<!-- Node9&#45;&gt;Node11 -->
<g id="edge12_Node000009_Node000011" class="edge">
<title>Node9&#45;&gt;Node11</title>
<g id="a_edge12_Node000009_Node000011"><a xlink:title=" ">
<path fill="none" stroke="#63b8ff" d="M295.65,-220.83C295.65,-214.32 295.65,-205.17 295.65,-196.87"/>
<polygon fill="#63b8ff" stroke="#63b8ff" points="299.15,-196.87 295.65,-186.87 292.15,-196.87 299.15,-196.87"/>
</a>
</g>
</g>
<!-- Node14 -->
<g id="Node000014" class="node">
<title>Node14</title>
<g id="a_Node000014"><a xlink:href="ThermistorReader_8h.html" target="_top" xlink:title=" ">
<polygon fill="white" stroke="#666666" points="272.15,-74.5 139.15,-74.5 139.15,-55.25 272.15,-55.25 272.15,-74.5"/>
<text text-anchor="middle" x="205.65" y="-61" font-family="Helvetica,sans-Serif" font-size="10.00">sensor/ThermistorReader.h</text>
</a>
</g>
</g>
<!-- Node9&#45;&gt;Node14 -->
<g id="edge16_Node000009_Node000014" class="edge">
<title>Node9&#45;&gt;Node14</title>
<g id="a_edge16_Node000009_Node000014"><a xlink:title=" ">
<path fill="none" stroke="#63b8ff" d="M257.74,-221.04C225.15,-212.81 181.84,-199.51 171.65,-185 149.69,-153.76 174.54,-108.56 191.84,-83.78"/>
<polygon fill="#63b8ff" stroke="#63b8ff" points="194.44,-86.15 197.52,-76.02 188.79,-82.02 194.44,-86.15"/>
</a>
</g>
</g>
<!-- Node15 -->
<g id="Node000015" class="node">
<title>Node15</title>
<g id="a_Node000015"><a xlink:href="asprintf_8h.html" target="_top" xlink:title=" ">
<polygon fill="white" stroke="#666666" points="124.52,-185 68.77,-185 68.77,-165.75 124.52,-165.75 124.52,-185"/>
<text text-anchor="middle" x="96.65" y="-171.5" font-family="Helvetica,sans-Serif" font-size="10.00">asprintf.h</text>
</a>
</g>
</g>
<!-- Node9&#45;&gt;Node15 -->
<g id="edge18_Node000009_Node000015" class="edge">
<title>Node9&#45;&gt;Node15</title>
<g id="a_edge18_Node000009_Node000015"><a xlink:title=" ">
<path fill="none" stroke="#63b8ff" d="M261.89,-220.59C226.92,-211.23 172.33,-196.63 135.57,-186.79"/>
<polygon fill="#63b8ff" stroke="#63b8ff" points="136.8,-183.5 126.23,-184.29 134.99,-190.26 136.8,-183.5"/>
</a>
</g>
</g>
<!-- Node11&#45;&gt;Node8 -->
<g id="edge13_Node000011_Node000008" class="edge">
<title>Node11&#45;&gt;Node8</title>
<g id="a_edge13_Node000011_Node000008"><a xlink:title=" ">
<path fill="none" stroke="#63b8ff" d="M307.17,-165.33C333.36,-144.91 399.57,-94 457.65,-55.25 473.41,-44.73 491.64,-33.73 506.06,-25.28"/>
<polygon fill="#63b8ff" stroke="#63b8ff" points="507.6,-28.43 514.49,-20.38 504.08,-22.38 507.6,-28.43"/>
</a>
</g>
</g>
<!-- Node12 -->
<g id="Node000012" class="node">
<title>Node12</title>
<g id="a_Node000012"><a xlink:href="aliases_8h.html" target="_top" xlink:title=" ">
<polygon fill="white" stroke="#666666" points="897.77,-129.75 843.52,-129.75 843.52,-110.5 897.77,-110.5 897.77,-129.75"/>
<text text-anchor="middle" x="870.65" y="-116.25" font-family="Helvetica,sans-Serif" font-size="10.00">aliases.h</text>
</a>
</g>
</g>
<!-- Node11&#45;&gt;Node12 -->
<g id="edge14_Node000011_Node000012" class="edge">
<title>Node11&#45;&gt;Node12</title>
<g id="a_edge14_Node000011_Node000012"><a xlink:title=" ">
<path fill="none" stroke="#63b8ff" d="M349.39,-166.73C352.18,-166.38 354.95,-166.05 357.65,-165.75 449.61,-155.36 728.4,-132.59 831.64,-124.26"/>
<polygon fill="#63b8ff" stroke="#63b8ff" points="831.86,-127.75 841.55,-123.46 831.3,-120.77 831.86,-127.75"/>
</a>
</g>
</g>
<!-- Node13 -->
<g id="Node000013" class="node">
<title>Node13</title>
<g id="a_Node000013"><a xlink:href="Buttons_8h.html" target="_top" xlink:title=" ">
<polygon fill="white" stroke="#666666" points="324.27,-129.75 267.02,-129.75 267.02,-110.5 324.27,-110.5 324.27,-129.75"/>
<text text-anchor="middle" x="295.65" y="-116.25" font-family="Helvetica,sans-Serif" font-size="10.00">Buttons.h</text>
</a>
</g>
</g>
<!-- Node11&#45;&gt;Node13 -->
<g id="edge15_Node000011_Node000013" class="edge">
<title>Node11&#45;&gt;Node13</title>
<g id="a_edge15_Node000011_Node000013"><a xlink:title=" ">
<path fill="none" stroke="#63b8ff" d="M295.65,-165.58C295.65,-159.07 295.65,-149.92 295.65,-141.62"/>
<polygon fill="#63b8ff" stroke="#63b8ff" points="299.15,-141.62 295.65,-131.62 292.15,-141.62 299.15,-141.62"/>
</a>
</g>
</g>
<!-- Node14&#45;&gt;Node8 -->
<g id="edge17_Node000014_Node000008" class="edge">
<title>Node14&#45;&gt;Node8</title>
<g id="a_edge17_Node000014_Node000008"><a xlink:title=" ">
<path fill="none" stroke="#63b8ff" d="M261.32,-54.78C328.72,-43.77 440.2,-25.56 496.62,-16.35"/>
<polygon fill="#63b8ff" stroke="#63b8ff" points="496.99,-19.83 506.29,-14.77 495.86,-12.92 496.99,-19.83"/>
</a>
</g>
</g>
<!-- Node16 -->
<g id="Node000016" class="node">
<title>Node16</title>
<g id="a_Node000016"><a xlink:title=" ">
<polygon fill="#e0e0e0" stroke="#999999" points="62.02,-129.75 15.27,-129.75 15.27,-110.5 62.02,-110.5 62.02,-129.75"/>
<text text-anchor="middle" x="38.65" y="-116.25" font-family="Helvetica,sans-Serif" font-size="10.00">stdlib.h</text>
</a>
</g>
</g>
<!-- Node15&#45;&gt;Node16 -->
<g id="edge19_Node000015_Node000016" class="edge">
<title>Node15&#45;&gt;Node16</title>
<g id="a_edge19_Node000015_Node000016"><a xlink:title=" ">
<path fill="none" stroke="#63b8ff" d="M86.81,-165.34C78.59,-157.8 66.67,-146.85 56.74,-137.73"/>
<polygon fill="#63b8ff" stroke="#63b8ff" points="59.19,-135.23 49.46,-131.05 54.46,-140.39 59.19,-135.23"/>
</a>
</g>
</g>
<!-- Node17 -->
<g id="Node000017" class="node">
<title>Node17</title>
<g id="a_Node000017"><a xlink:title=" ">
<polygon fill="#e0e0e0" stroke="#999999" points="124.9,-129.75 80.4,-129.75 80.4,-110.5 124.9,-110.5 124.9,-129.75"/>
<text text-anchor="middle" x="102.65" y="-116.25" font-family="Helvetica,sans-Serif" font-size="10.00">stdio.h</text>
</a>
</g>
</g>
<!-- Node15&#45;&gt;Node17 -->
<g id="edge20_Node000015_Node000017" class="edge">
<title>Node15&#45;&gt;Node17</title>
<g id="a_edge20_Node000015_Node000017"><a xlink:title=" ">
<path fill="none" stroke="#63b8ff" d="M97.64,-165.58C98.38,-158.99 99.43,-149.71 100.37,-141.32"/>
<polygon fill="#63b8ff" stroke="#63b8ff" points="103.82,-141.94 101.47,-131.61 96.87,-141.16 103.82,-141.94"/>
</a>
</g>
</g>
<!-- Node19&#45;&gt;Node8 -->
<g id="edge23_Node000019_Node000008" class="edge">
<title>Node19&#45;&gt;Node8</title>
<g id="a_edge23_Node000019_Node000008"><a xlink:title=" ">
<path fill="none" stroke="#63b8ff" d="M919.67,-220.51C929.3,-212.39 942.07,-199.58 947.65,-185 950.7,-177.01 949.06,-174.19 947.65,-165.75 937.78,-106.71 924.65,-81.07 870.65,-55.25 817.4,-29.79 642.32,-16.96 566.81,-12.5"/>
<polygon fill="#63b8ff" stroke="#63b8ff" points="567.28,-9.02 557.1,-11.94 566.88,-16.01 567.28,-9.02"/>
</a>
</g>
</g>
<!-- Node19&#45;&gt;Node12 -->
<g id="edge25_Node000019_Node000012" class="edge">
<title>Node19&#45;&gt;Node12</title>
<g id="a_edge25_Node000019_Node000012"><a xlink:title=" ">
<path fill="none" stroke="#63b8ff" d="M912.06,-220.56C917.62,-207.82 925.53,-184.11 917.65,-165.75 912.72,-154.27 903.23,-144.36 894.06,-136.81"/>
<polygon fill="#63b8ff" stroke="#63b8ff" points="896.47,-134.24 886.38,-130.99 892.24,-139.82 896.47,-134.24"/>
</a>
</g>
</g>
<!-- Node19&#45;&gt;Node18 -->
<g id="edge34_Node000019_Node000018" class="edge">
<title>Node19&#45;&gt;Node18</title>
<g id="a_edge34_Node000019_Node000018"><a xlink:title=" ">
<path fill="none" stroke="#63b8ff" d="M914.51,-220.65C920.63,-212.04 929.15,-198.4 932.65,-185 941.51,-151.07 931.25,-135.5 906.65,-110.5 892.75,-96.37 873.47,-86.04 856.23,-78.9"/>
<polygon fill="#63b8ff" stroke="#63b8ff" points="857.82,-75.76 847.23,-75.4 855.29,-82.29 857.82,-75.76"/>
</a>
</g>
</g>
<!-- Node20 -->
<g id="Node000020" class="node">
<title>Node20</title>
<g id="a_Node000020"><a xlink:title=" ">
<polygon fill="#e0e0e0" stroke="#999999" points="908.65,-185 850.65,-185 850.65,-165.75 908.65,-165.75 908.65,-185"/>
<text text-anchor="middle" x="879.65" y="-171.5" font-family="Helvetica,sans-Serif" font-size="10.00">etl/array.h</text>
</a>
</g>
</g>
<!-- Node19&#45;&gt;Node20 -->
<g id="edge24_Node000019_Node000020" class="edge">
<title>Node19&#45;&gt;Node20</title>
<g id="a_edge24_Node000019_Node000020"><a xlink:title=" ">
<path fill="none" stroke="#63b8ff" d="M903.02,-220.83C899.4,-213.94 894.22,-204.09 889.66,-195.41"/>
<polygon fill="#63b8ff" stroke="#63b8ff" points="892.83,-193.92 885.08,-186.7 886.63,-197.18 892.83,-193.92"/>
</a>
</g>
</g>
<!-- Node21 -->
<g id="Node000021" class="node">
<title>Node21</title>
<g id="a_Node000021"><a xlink:href="Humidistat_8h.html" target="_top" xlink:title=" ">
<polygon fill="white" stroke="#666666" points="795.02,-185 724.27,-185 724.27,-165.75 795.02,-165.75 795.02,-185"/>
<text text-anchor="middle" x="759.65" y="-171.5" font-family="Helvetica,sans-Serif" font-size="10.00">Humidistat.h</text>
</a>
</g>
</g>
<!-- Node19&#45;&gt;Node21 -->
<g id="edge26_Node000019_Node000021" class="edge">
<title>Node19&#45;&gt;Node21</title>
<g id="a_edge26_Node000019_Node000021"><a xlink:title=" ">
<path fill="none" stroke="#63b8ff" d="M882.54,-220.59C858.62,-211.99 822.37,-198.94 795.43,-189.25"/>
<polygon fill="#63b8ff" stroke="#63b8ff" points="796.9,-186.06 786.3,-185.96 794.53,-192.64 796.9,-186.06"/>
</a>
</g>
</g>
<!-- Node21&#45;&gt;Node12 -->
<g id="edge27_Node000021_Node000012" class="edge">
<title>Node21&#45;&gt;Node12</title>
<g id="a_edge27_Node000021_Node000012"><a xlink:title=" ">
<path fill="none" stroke="#63b8ff" d="M778.48,-165.34C795.7,-157.08 821.45,-144.73 841.36,-135.18"/>
<polygon fill="#63b8ff" stroke="#63b8ff" points="842.86,-138.34 850.36,-130.86 839.83,-132.03 842.86,-138.34"/>
</a>
</g>
</g>
<!-- Node21&#45;&gt;Node18 -->
<g id="edge33_Node000021_Node000018" class="edge">
<title>Node21&#45;&gt;Node18</title>
<g id="a_edge33_Node000021_Node000018"><a xlink:title=" ">
<path fill="none" stroke="#63b8ff" d="M767.27,-165.27C774.29,-156.57 784.64,-142.87 791.65,-129.75 799.18,-115.66 805.44,-98.68 809.67,-85.77"/>
<polygon fill="#63b8ff" stroke="#63b8ff" points="812.99,-86.9 812.64,-76.32 806.31,-84.81 812.99,-86.9"/>
</a>
</g>
</g>
<!-- Node22 -->
<g id="Node000022" class="node">
<title>Node22</title>
<g id="a_Node000022"><a xlink:href="Controller_8h.html" target="_top" xlink:title=" ">
<polygon fill="white" stroke="#666666" points="750.02,-129.75 685.27,-129.75 685.27,-110.5 750.02,-110.5 750.02,-129.75"/>
<text text-anchor="middle" x="717.65" y="-116.25" font-family="Helvetica,sans-Serif" font-size="10.00">Controller.h</text>
</a>
</g>
</g>
<!-- Node21&#45;&gt;Node22 -->
<g id="edge28_Node000021_Node000022" class="edge">
<title>Node21&#45;&gt;Node22</title>
<g id="a_edge28_Node000021_Node000022"><a xlink:title=" ">
<path fill="none" stroke="#63b8ff" d="M752.71,-165.58C747.03,-158.38 738.81,-147.96 731.76,-139.01"/>
<polygon fill="#63b8ff" stroke="#63b8ff" points="734.61,-136.98 725.67,-131.3 729.12,-141.32 734.61,-136.98"/>
</a>
</g>
</g>
<!-- Node22&#45;&gt;Node8 -->
<g id="edge29_Node000022_Node000008" class="edge">
<title>Node22&#45;&gt;Node8</title>
<g id="a_edge29_Node000022_Node000008"><a xlink:title=" ">
<path fill="none" stroke="#63b8ff" d="M715.79,-110.28C712.42,-96.46 704,-69.86 686.65,-55.25 652.63,-26.62 601.18,-16.34 567.01,-12.66"/>
<polygon fill="#63b8ff" stroke="#63b8ff" points="567.49,-9.19 557.21,-11.75 566.85,-16.16 567.49,-9.19"/>
</a>
</g>
</g>
<!-- Node22&#45;&gt;Node18 -->
<g id="edge32_Node000022_Node000018" class="edge">
<title>Node22&#45;&gt;Node18</title>
<g id="a_edge32_Node000022_Node000018"><a xlink:title=" ">
<path fill="none" stroke="#63b8ff" d="M734.27,-110.09C749.34,-101.91 771.79,-89.71 789.3,-80.19"/>
<polygon fill="#63b8ff" stroke="#63b8ff" points="790.5,-83.52 797.61,-75.68 787.15,-77.37 790.5,-83.52"/>
</a>
</g>
</g>
<!-- Node23 -->
<g id="Node000023" class="node">
<title>Node23</title>
<g id="a_Node000023"><a xlink:href="PID_8h.html" target="_top" xlink:title=" ">
<polygon fill="white" stroke="#666666" points="677.65,-74.5 637.65,-74.5 637.65,-55.25 677.65,-55.25 677.65,-74.5"/>
<text text-anchor="middle" x="657.65" y="-61" font-family="Helvetica,sans-Serif" font-size="10.00">PID.h</text>
</a>
</g>
</g>
<!-- Node22&#45;&gt;Node23 -->
<g id="edge30_Node000022_Node000023" class="edge">
<title>Node22&#45;&gt;Node23</title>
<g id="a_edge30_Node000022_Node000023"><a xlink:title=" ">
<path fill="none" stroke="#63b8ff" d="M707.47,-110.09C698.88,-102.47 686.38,-91.37 676.05,-82.2"/>
<polygon fill="#63b8ff" stroke="#63b8ff" points="678.61,-79.8 668.81,-75.78 673.96,-85.04 678.61,-79.8"/>
</a>
</g>
</g>
<!-- Node23&#45;&gt;Node8 -->
<g id="edge31_Node000023_Node000008" class="edge">
<title>Node23&#45;&gt;Node8</title>
<g id="a_edge31_Node000023_Node000008"><a xlink:title=" ">
<path fill="none" stroke="#63b8ff" d="M637.4,-55.32C617.47,-46.89 586.71,-33.9 563.5,-24.08"/>
<polygon fill="#63b8ff" stroke="#63b8ff" points="565.07,-20.95 554.5,-20.28 562.35,-27.4 565.07,-20.95"/>
</a>
</g>
</g>
<!-- Node24&#45;&gt;Node4 -->
<g id="edge36_Node000024_Node000004" class="edge">
<title>Node24&#45;&gt;Node4</title>
<g id="a_edge36_Node000024_Node000004"><a xlink:title=" ">
<path fill="none" stroke="#63b8ff" d="M679.43,-220.6C656.13,-212.06 620.67,-198.57 590.65,-185 556.24,-169.45 517.74,-149.15 492.91,-135.65"/>
<polygon fill="#63b8ff" stroke="#63b8ff" points="494.61,-132.59 484.16,-130.87 491.26,-138.74 494.61,-132.59"/>
</a>
</g>
</g>
<!-- Node24&#45;&gt;Node12 -->
<g id="edge38_Node000024_Node000012" class="edge">
<title>Node24&#45;&gt;Node12</title>
<g id="a_edge38_Node000024_Node000012"><a xlink:title=" ">
<path fill="none" stroke="#63b8ff" d="M731.13,-220.5C751.82,-212.72 780.81,-200.37 803.65,-185 823.55,-171.6 843.03,-152.11 855.8,-138.18"/>
<polygon fill="#63b8ff" stroke="#63b8ff" points="858.1,-140.87 862.16,-131.08 852.88,-136.2 858.1,-140.87"/>
</a>
</g>
</g>
<!-- Node24&#45;&gt;Node20 -->
<g id="edge37_Node000024_Node000020" class="edge">
<title>Node24&#45;&gt;Node20</title>
<g id="a_edge37_Node000024_Node000020"><a xlink:title=" ">
<path fill="none" stroke="#63b8ff" d="M734.33,-220.59C763.29,-211.78 807.55,-198.31 839.61,-188.56"/>
<polygon fill="#63b8ff" stroke="#63b8ff" points="840.4,-191.97 848.95,-185.72 838.37,-185.28 840.4,-191.97"/>
</a>
</g>
</g>
<!-- Node24&#45;&gt;Node21 -->
<g id="edge39_Node000024_Node000021" class="edge">
<title>Node24&#45;&gt;Node21</title>
<g id="a_edge39_Node000024_Node000021"><a xlink:title=" ">
<path fill="none" stroke="#63b8ff" d="M713.73,-220.83C721.49,-213.32 732.86,-202.31 742.34,-193.13"/>
<polygon fill="#63b8ff" stroke="#63b8ff" points="744.53,-195.88 749.28,-186.41 739.66,-190.85 744.53,-195.88"/>
</a>
</g>
</g>
<!-- Node25 -->
<g id="Node000025" class="node">
<title>Node25</title>
<g id="a_Node000025"><a xlink:href="FlowSensor_8h.html" target="_top" xlink:title=" ">
<polygon fill="white" stroke="#666666" points="629.15,-129.75 514.15,-129.75 514.15,-110.5 629.15,-110.5 629.15,-129.75"/>
<text text-anchor="middle" x="571.65" y="-116.25" font-family="Helvetica,sans-Serif" font-size="10.00">../sensor/FlowSensor.h</text>
</a>
</g>
</g>
<!-- Node24&#45;&gt;Node25 -->
<g id="edge40_Node000024_Node000025" class="edge">
<title>Node24&#45;&gt;Node25</title>
<g id="a_edge40_Node000024_Node000025"><a xlink:title=" ">
<path fill="none" stroke="#63b8ff" d="M675.76,-220.58C656.03,-213.32 630.21,-201.59 611.65,-185 597.78,-172.6 586.97,-154.27 580.11,-140.42"/>
<polygon fill="#63b8ff" stroke="#63b8ff" points="583.32,-139.03 575.93,-131.45 576.98,-141.99 583.32,-139.03"/>
</a>
</g>
</g>
<!-- Node27 -->
<g id="Node000027" class="node">
<title>Node27</title>
<g id="a_Node000027"><a xlink:href="FlowController_8h.html" target="_top" xlink:title=" ">
<polygon fill="white" stroke="#666666" points="706.52,-185 620.77,-185 620.77,-165.75 706.52,-165.75 706.52,-185"/>
<text text-anchor="middle" x="663.65" y="-171.5" font-family="Helvetica,sans-Serif" font-size="10.00">FlowController.h</text>
</a>
</g>
</g>
<!-- Node24&#45;&gt;Node27 -->
<g id="edge43_Node000024_Node000027" class="edge">
<title>Node24&#45;&gt;Node27</title>
<g id="a_edge43_Node000024_Node000027"><a xlink:title=" ">
<path fill="none" stroke="#63b8ff" d="M697.88,-220.83C692.33,-213.63 684.31,-203.21 677.42,-194.26"/>
<polygon fill="#63b8ff" stroke="#63b8ff" points="680.36,-192.35 671.49,-186.56 674.82,-196.62 680.36,-192.35"/>
</a>
</g>
</g>
<!-- Node25&#45;&gt;Node8 -->
<g id="edge41_Node000025_Node000008" class="edge">
<title>Node25&#45;&gt;Node8</title>
<g id="a_edge41_Node000025_Node000008"><a xlink:title=" ">
<path fill="none" stroke="#63b8ff" d="M566.89,-110.07C562.34,-101.18 555.47,-87.14 550.65,-74.5 545.08,-59.92 540.11,-42.97 536.65,-30.2"/>
<polygon fill="#63b8ff" stroke="#63b8ff" points="540.13,-29.69 534.2,-20.91 533.36,-31.47 540.13,-29.69"/>
</a>
</g>
</g>
<!-- Node26 -->
<g id="Node000026" class="node">
<title>Node26</title>
<g id="a_Node000026"><a xlink:href="imath_8h.html" target="_top" xlink:title=" ">
<polygon fill="white" stroke="#666666" points="607.4,-74.5 559.9,-74.5 559.9,-55.25 607.4,-55.25 607.4,-74.5"/>
<text text-anchor="middle" x="583.65" y="-61" font-family="Helvetica,sans-Serif" font-size="10.00">imath.h</text>
</a>
</g>
</g>
<!-- Node25&#45;&gt;Node26 -->
<g id="edge42_Node000025_Node000026" class="edge">
<title>Node25&#45;&gt;Node26</title>
<g id="a_edge42_Node000025_Node000026"><a xlink:title=" ">
<path fill="none" stroke="#63b8ff" d="M573.63,-110.33C575.11,-103.74 577.21,-94.46 579.1,-86.07"/>
<polygon fill="#63b8ff" stroke="#63b8ff" points="582.51,-86.86 581.29,-76.34 575.68,-85.32 582.51,-86.86"/>
</a>
</g>
</g>
<!-- Node27&#45;&gt;Node18 -->
<g id="edge47_Node000027_Node000018" class="edge">
<title>Node27&#45;&gt;Node18</title>
<g id="a_edge47_Node000027_Node000018"><a xlink:title=" ">
<path fill="none" stroke="#63b8ff" d="M689.79,-165.39C709.8,-157.76 737.47,-145.54 758.65,-129.75 776.1,-116.74 792.24,-97.71 802.85,-83.81"/>
<polygon fill="#63b8ff" stroke="#63b8ff" points="805.52,-86.09 808.65,-75.97 799.89,-81.93 805.52,-86.09"/>
</a>
</g>
</g>
<!-- Node27&#45;&gt;Node22 -->
<g id="edge44_Node000027_Node000022" class="edge">
<title>Node27&#45;&gt;Node22</title>
<g id="a_edge44_Node000027_Node000022"><a xlink:title=" ">
<path fill="none" stroke="#63b8ff" d="M672.56,-165.58C680.1,-158.15 691.12,-147.29 700.37,-138.16"/>
<polygon fill="#63b8ff" stroke="#63b8ff" points="702.8,-140.69 707.46,-131.17 697.88,-135.7 702.8,-140.69"/>
</a>
</g>
</g>
<!-- Node27&#45;&gt;Node23 -->
<g id="edge45_Node000027_Node000023" class="edge">
<title>Node27&#45;&gt;Node23</title>
<g id="a_edge45_Node000027_Node000023"><a xlink:title=" ">
<path fill="none" stroke="#63b8ff" d="M663.16,-165.5C662.2,-148.25 660.08,-109.83 658.76,-86.06"/>
<polygon fill="#63b8ff" stroke="#63b8ff" points="662.28,-86.18 658.23,-76.39 655.29,-86.57 662.28,-86.18"/>
</a>
</g>
</g>
<!-- Node27&#45;&gt;Node25 -->
<g id="edge46_Node000027_Node000025" class="edge">
<title>Node27&#45;&gt;Node25</title>
<g id="a_edge46_Node000027_Node000025"><a xlink:title=" ">
<path fill="none" stroke="#63b8ff" d="M648.04,-165.34C634.03,-157.23 613.21,-145.18 596.85,-135.71"/>
<polygon fill="#63b8ff" stroke="#63b8ff" points="599.05,-132.94 588.64,-130.96 595.54,-139 599.05,-132.94"/>
</a>
</g>
</g>
<!-- Node28&#45;&gt;Node4 -->
<g id="edge49_Node000028_Node000004" class="edge">
<title>Node28&#45;&gt;Node4</title>
<g id="a_edge49_Node000028_Node000004"><a xlink:title=" ">
<path fill="none" stroke="#63b8ff" d="M435.73,-220.81C441.46,-212.1 449.86,-198.19 454.65,-185 459.79,-170.84 462.83,-154.08 464.56,-141.28"/>
<polygon fill="#63b8ff" stroke="#63b8ff" points="468.02,-141.89 465.72,-131.55 461.07,-141.07 468.02,-141.89"/>
</a>
</g>
</g>
<!-- Node28&#45;&gt;Node21 -->
<g id="edge53_Node000028_Node000021" class="edge">
<title>Node28&#45;&gt;Node21</title>
<g id="a_edge53_Node000028_Node000021"><a xlink:title=" ">
<path fill="none" stroke="#63b8ff" d="M488.64,-221.1C544.06,-212.94 629.58,-199.96 712.92,-185.43"/>
<polygon fill="#63b8ff" stroke="#63b8ff" points="713.39,-188.9 722.64,-183.72 712.18,-182 713.39,-188.9"/>
</a>
</g>
</g>
<!-- Node29 -->
<g id="Node000029" class="node">
<title>Node29</title>
<g id="a_Node000029"><a xlink:href="Point_8h.html" target="_top" xlink:title=" ">
<polygon fill="white" stroke="#666666" points="412.65,-185 366.65,-185 366.65,-165.75 412.65,-165.75 412.65,-185"/>
<text text-anchor="middle" x="389.65" y="-171.5" font-family="Helvetica,sans-Serif" font-size="10.00">Point.h</text>
</a>
</g>
</g>
<!-- Node28&#45;&gt;Node29 -->
<g id="edge50_Node000028_Node000029" class="edge">
<title>Node28&#45;&gt;Node29</title>
<g id="a_edge50_Node000028_Node000029"><a xlink:title=" ">
<path fill="none" stroke="#63b8ff" d="M423.04,-220.83C417.69,-213.71 409.97,-203.43 403.3,-194.55"/>
<polygon fill="#63b8ff" stroke="#63b8ff" points="406.11,-192.46 397.31,-186.57 400.51,-196.67 406.11,-192.46"/>
</a>
</g>
</g>
<!-- Node29&#45;&gt;Node4 -->
<g id="edge52_Node000029_Node000004" class="edge">
<title>Node29&#45;&gt;Node4</title>
<g id="a_edge52_Node000029_Node000004"><a xlink:title=" ">
<path fill="none" stroke="#63b8ff" d="M402.71,-165.34C414.1,-157.46 430.88,-145.86 444.39,-136.52"/>
<polygon fill="#63b8ff" stroke="#63b8ff" points="446.04,-139.63 452.28,-131.06 442.06,-133.87 446.04,-139.63"/>
</a>
</g>
</g>
<!-- Node29&#45;&gt;Node8 -->
<g id="edge51_Node000029_Node000008" class="edge">
<title>Node29&#45;&gt;Node8</title>
<g id="a_edge51_Node000029_Node000008"><a xlink:title=" ">
<path fill="none" stroke="#63b8ff" d="M394.06,-165.66C400.69,-152.92 414.04,-128.77 428.65,-110.5 454.39,-78.3 489.9,-45.99 511.79,-27.17"/>
<polygon fill="#63b8ff" stroke="#63b8ff" points="514.02,-29.87 519.38,-20.73 509.49,-24.53 514.02,-29.87"/>
</a>
</g>
</g>
</g>
</svg>
