<?xml version="1.0" encoding="UTF-8" standalone="no"?>
<!DOCTYPE svg PUBLIC "-//W3C//DTD SVG 1.1//EN"
 "http://www.w3.org/Graphics/SVG/1.1/DTD/svg11.dtd">
<!-- Generated by graphviz version 12.0.0 (20240704.0754)
 -->
<!-- Title: src/control/Humidistat.h Pages: 1 -->
<svg width="948pt" height="193pt"
 viewBox="0.00 0.00 947.62 193.00" xmlns="http://www.w3.org/2000/svg" xmlns:xlink="http://www.w3.org/1999/xlink">
<g id="graph0" class="graph" transform="scale(1 1) rotate(0) translate(4 189)">
<title>src/control/Humidistat.h</title>
<!-- Node1 -->
<g id="Node000001" class="node">
<title>Node1</title>
<g id="a_Node000001"><a xlink:title=" ">
<polygon fill="#999999" stroke="#666666" points="570.88,-185 451.38,-185 451.38,-165.75 570.88,-165.75 570.88,-185"/>
<text text-anchor="middle" x="511.12" y="-171.5" font-family="Helvetica,sans-Serif" font-size="10.00">src/control/Humidistat.h</text>
</a>
</g>
</g>
<!-- Node2 -->
<g id="Node000002" class="node">
<title>Node2</title>
<g id="a_Node000002"><a xlink:href="SetpointProfileRunner_8h.html" target="_top" xlink:title=" ">
<polygon fill="white" stroke="#666666" points="289,-129.75 155.25,-129.75 155.25,-110.5 289,-110.5 289,-129.75"/>
<text text-anchor="middle" x="222.12" y="-116.25" font-family="Helvetica,sans-Serif" font-size="10.00">src/SetpointProfileRunner.h</text>
</a>
</g>
</g>
<!-- Node1&#45;&gt;Node2 -->
<g id="edge1_Node000001_Node000002" class="edge">
<title>Node1&#45;&gt;Node2</title>
<g id="a_edge1_Node000001_Node000002"><a xlink:title=" ">
<path fill="none" stroke="#63b8ff" d="M450.78,-163.26C397.53,-153.44 320.87,-139.32 271.27,-130.18"/>
<polygon fill="#63b8ff" stroke="#63b8ff" points="449.82,-166.64 460.28,-165.01 451.08,-159.75 449.82,-166.64"/>
</a>
</g>
</g>
<!-- Node6 -->
<g id="Node000006" class="node">
<title>Node6</title>
<g id="a_Node000006"><a xlink:href="CascadeHumidistat_8h.html" target="_top" xlink:title=" ">
<polygon fill="white" stroke="#666666" points="505,-129.75 347.25,-129.75 347.25,-110.5 505,-110.5 505,-129.75"/>
<text text-anchor="middle" x="426.12" y="-116.25" font-family="Helvetica,sans-Serif" font-size="10.00">src/control/CascadeHumidistat.h</text>
</a>
</g>
</g>
<!-- Node1&#45;&gt;Node6 -->
<g id="edge5_Node000001_Node000006" class="edge">
<title>Node1&#45;&gt;Node6</title>
<g id="a_edge5_Node000001_Node000006"><a xlink:title=" ">
<path fill="none" stroke="#63b8ff" d="M487.07,-159.3C472.1,-149.92 453.34,-138.17 440.61,-130.2"/>
<polygon fill="#63b8ff" stroke="#63b8ff" points="485.09,-162.2 495.42,-164.54 488.81,-156.26 485.09,-162.2"/>
</a>
</g>
</g>
<!-- Node9 -->
<g id="Node000009" class="node">
<title>Node9</title>
<g id="a_Node000009"><a xlink:href="Humidistat_8cpp.html" target="_top" xlink:title=" ">
<polygon fill="white" stroke="#666666" points="817.12,-129.75 687.12,-129.75 687.12,-110.5 817.12,-110.5 817.12,-129.75"/>
<text text-anchor="middle" x="752.12" y="-116.25" font-family="Helvetica,sans-Serif" font-size="10.00">src/control/Humidistat.cpp</text>
</a>
</g>
</g>
<!-- Node1&#45;&gt;Node9 -->
<g id="edge10_Node000001_Node000009" class="edge">
<title>Node1&#45;&gt;Node9</title>
<g id="a_edge10_Node000001_Node000009"><a xlink:title=" ">
<path fill="none" stroke="#63b8ff" d="M563.41,-162.82C607.72,-153.03 670.39,-139.19 711.14,-130.18"/>
<polygon fill="#63b8ff" stroke="#63b8ff" points="562.77,-159.38 553.76,-164.95 564.28,-166.21 562.77,-159.38"/>
</a>
</g>
</g>
<!-- Node10 -->
<g id="Node000010" class="node">
<title>Node10</title>
<g id="a_Node000010"><a xlink:href="SingleHumidistat_8h.html" target="_top" xlink:title=" ">
<polygon fill="white" stroke="#666666" points="669.38,-129.75 522.88,-129.75 522.88,-110.5 669.38,-110.5 669.38,-129.75"/>
<text text-anchor="middle" x="596.12" y="-116.25" font-family="Helvetica,sans-Serif" font-size="10.00">src/control/SingleHumidistat.h</text>
</a>
</g>
</g>
<!-- Node1&#45;&gt;Node10 -->
<g id="edge11_Node000001_Node000010" class="edge">
<title>Node1&#45;&gt;Node10</title>
<g id="a_edge11_Node000001_Node000010"><a xlink:title=" ">
<path fill="none" stroke="#63b8ff" d="M535.18,-159.3C550.15,-149.92 568.91,-138.17 581.64,-130.2"/>
<polygon fill="#63b8ff" stroke="#63b8ff" points="533.44,-156.26 526.83,-164.54 537.16,-162.2 533.44,-156.26"/>
</a>
</g>
</g>
<!-- Node3 -->
<g id="Node000003" class="node">
<title>Node3</title>
<g id="a_Node000003"><a xlink:href="SetpointProfileRunner_8cpp.html" target="_top" xlink:title=" ">
<polygon fill="white" stroke="#666666" points="144.25,-74.5 0,-74.5 0,-55.25 144.25,-55.25 144.25,-74.5"/>
<text text-anchor="middle" x="72.12" y="-61" font-family="Helvetica,sans-Serif" font-size="10.00">src/SetpointProfileRunner.cpp</text>
</a>
</g>
</g>
<!-- Node2&#45;&gt;Node3 -->
<g id="edge2_Node000002_Node000003" class="edge">
<title>Node2&#45;&gt;Node3</title>
<g id="a_edge2_Node000002_Node000003"><a xlink:title=" ">
<path fill="none" stroke="#63b8ff" d="M186,-106.3C158.73,-96.62 121.98,-83.57 97.7,-74.95"/>
<polygon fill="#63b8ff" stroke="#63b8ff" points="184.66,-109.54 195.25,-109.59 187,-102.94 184.66,-109.54"/>
</a>
</g>
</g>
<!-- Node4 -->
<g id="Node000004" class="node">
<title>Node4</title>
<g id="a_Node000004"><a xlink:href="main_8cpp.html" target="_top" xlink:title=" ">
<polygon fill="white" stroke="#666666" points="414.88,-19.25 343.38,-19.25 343.38,0 414.88,0 414.88,-19.25"/>
<text text-anchor="middle" x="379.12" y="-5.75" font-family="Helvetica,sans-Serif" font-size="10.00">src/main.cpp</text>
</a>
</g>
</g>
<!-- Node2&#45;&gt;Node4 -->
<g id="edge3_Node000002_Node000004" class="edge">
<title>Node2&#45;&gt;Node4</title>
<g id="a_edge3_Node000002_Node000004"><a xlink:title=" ">
<path fill="none" stroke="#63b8ff" d="M204.1,-102.16C191.88,-88.59 179.84,-69.53 191.12,-55.25 209.69,-31.76 293.77,-19.33 342.97,-13.96"/>
<polygon fill="#63b8ff" stroke="#63b8ff" points="201.37,-104.37 210.86,-109.1 206.39,-99.49 201.37,-104.37"/>
</a>
</g>
</g>
<!-- Node5 -->
<g id="Node000005" class="node">
<title>Node5</title>
<g id="a_Node000005"><a xlink:href="GraphicalDisplayUI_8h.html" target="_top" xlink:title=" ">
<polygon fill="white" stroke="#666666" points="334,-74.5 200.25,-74.5 200.25,-55.25 334,-55.25 334,-74.5"/>
<text text-anchor="middle" x="267.12" y="-61" font-family="Helvetica,sans-Serif" font-size="10.00">src/ui/GraphicalDisplayUI.h</text>
</a>
</g>
</g>
<!-- Node2&#45;&gt;Node5 -->
<g id="edge4_Node000002_Node000005" class="edge">
<title>Node2&#45;&gt;Node5</title>
<g id="a_edge4_Node000002_Node000005"><a xlink:title=" ">
<path fill="none" stroke="#63b8ff" d="M236.8,-101.76C244.39,-92.78 253.33,-82.2 259.53,-74.86"/>
<polygon fill="#63b8ff" stroke="#63b8ff" points="234.31,-99.28 230.53,-109.18 239.66,-103.8 234.31,-99.28"/>
</a>
</g>
</g>
<!-- Node6&#45;&gt;Node5 -->
<g id="edge9_Node000006_Node000005" class="edge">
<title>Node6&#45;&gt;Node5</title>
<g id="a_edge9_Node000006_Node000005"><a xlink:title=" ">
<path fill="none" stroke="#63b8ff" d="M388.61,-106.56C359.62,-96.85 320.2,-83.65 294.23,-74.95"/>
<polygon fill="#63b8ff" stroke="#63b8ff" points="387.12,-109.75 397.72,-109.61 389.35,-103.12 387.12,-109.75"/>
</a>
</g>
</g>
<!-- Node7 -->
<g id="Node000007" class="node">
<title>Node7</title>
<g id="a_Node000007"><a xlink:href="SerialLogger_8h.html" target="_top" xlink:title=" ">
<polygon fill="white" stroke="#666666" points="633.5,-74.5 538.75,-74.5 538.75,-55.25 633.5,-55.25 633.5,-74.5"/>
<text text-anchor="middle" x="586.12" y="-61" font-family="Helvetica,sans-Serif" font-size="10.00">src/SerialLogger.h</text>
</a>
</g>
</g>
<!-- Node6&#45;&gt;Node7 -->
<g id="edge6_Node000006_Node000007" class="edge">
<title>Node6&#45;&gt;Node7</title>
<g id="a_edge6_Node000006_Node000007"><a xlink:title=" ">
<path fill="none" stroke="#63b8ff" d="M463.88,-106.56C493.05,-96.85 532.71,-83.65 558.85,-74.95"/>
<polygon fill="#63b8ff" stroke="#63b8ff" points="463.09,-103.14 454.7,-109.61 465.3,-109.78 463.09,-103.14"/>
</a>
</g>
</g>
<!-- Node8 -->
<g id="Node000008" class="node">
<title>Node8</title>
<g id="a_Node000008"><a xlink:href="CascadeHumidistat_8cpp.html" target="_top" xlink:title=" ">
<polygon fill="white" stroke="#666666" points="520.25,-74.5 352,-74.5 352,-55.25 520.25,-55.25 520.25,-74.5"/>
<text text-anchor="middle" x="436.12" y="-61" font-family="Helvetica,sans-Serif" font-size="10.00">src/control/CascadeHumidistat.cpp</text>
</a>
</g>
</g>
<!-- Node6&#45;&gt;Node8 -->
<g id="edge8_Node000006_Node000008" class="edge">
<title>Node6&#45;&gt;Node8</title>
<g id="a_edge8_Node000006_Node000008"><a xlink:title=" ">
<path fill="none" stroke="#63b8ff" d="M429.87,-99.17C431.44,-90.8 433.19,-81.5 434.44,-74.86"/>
<polygon fill="#63b8ff" stroke="#63b8ff" points="426.46,-98.37 428.06,-108.84 433.34,-99.66 426.46,-98.37"/>
</a>
</g>
</g>
<!-- Node7&#45;&gt;Node4 -->
<g id="edge7_Node000007_Node000004" class="edge">
<title>Node7&#45;&gt;Node4</title>
<g id="a_edge7_Node000007_Node000004"><a xlink:title=" ">
<path fill="none" stroke="#63b8ff" d="M540.24,-52.07C502.27,-42.3 449.12,-28.63 414.41,-19.7"/>
<polygon fill="#63b8ff" stroke="#63b8ff" points="538.99,-55.36 549.54,-54.46 540.73,-48.58 538.99,-55.36"/>
</a>
</g>
</g>
<!-- Node10&#45;&gt;Node5 -->
<g id="edge16_Node000010_Node000005" class="edge">
<title>Node10&#45;&gt;Node5</title>
<g id="a_edge16_Node000010_Node000005"><a xlink:title=" ">
<path fill="none" stroke="#63b8ff" d="M528.59,-108.19C468.02,-98.39 380.18,-84.17 323.35,-74.98"/>
<polygon fill="#63b8ff" stroke="#63b8ff" points="528.02,-111.65 538.45,-109.79 529.14,-104.74 528.02,-111.65"/>
</a>
</g>
</g>
<!-- Node10&#45;&gt;Node7 -->
<g id="edge12_Node000010_Node000007" class="edge">
<title>Node10&#45;&gt;Node7</title>
<g id="a_edge12_Node000010_Node000007"><a xlink:title=" ">
<path fill="none" stroke="#63b8ff" d="M592.38,-99.17C590.81,-90.8 589.06,-81.5 587.81,-74.86"/>
<polygon fill="#63b8ff" stroke="#63b8ff" points="588.91,-99.66 594.19,-108.84 595.79,-98.37 588.91,-99.66"/>
</a>
</g>
</g>
<!-- Node11 -->
<g id="Node000011" class="node">
<title>Node11</title>
<g id="a_Node000011"><a xlink:href="SingleHumidistat_8cpp.html" target="_top" xlink:title=" ">
<polygon fill="white" stroke="#666666" points="939.62,-74.5 782.62,-74.5 782.62,-55.25 939.62,-55.25 939.62,-74.5"/>
<text text-anchor="middle" x="861.12" y="-61" font-family="Helvetica,sans-Serif" font-size="10.00">src/control/SingleHumidistat.cpp</text>
</a>
</g>
</g>
<!-- Node10&#45;&gt;Node11 -->
<g id="edge13_Node000010_Node000011" class="edge">
<title>Node10&#45;&gt;Node11</title>
<g id="a_edge13_Node000010_Node000011"><a xlink:title=" ">
<path fill="none" stroke="#63b8ff" d="M652.38,-107.82C701.17,-98.02 770.87,-84.01 816.06,-74.93"/>
<polygon fill="#63b8ff" stroke="#63b8ff" points="651.98,-104.33 642.86,-109.73 653.36,-111.19 651.98,-104.33"/>
</a>
</g>
</g>
<!-- Node12 -->
<g id="Node000012" class="node">
<title>Node12</title>
<g id="a_Node000012"><a xlink:href="CharDisplayUI_8h.html" target="_top" xlink:title=" ">
<polygon fill="white" stroke="#666666" points="764.5,-74.5 651.75,-74.5 651.75,-55.25 764.5,-55.25 764.5,-74.5"/>
<text text-anchor="middle" x="708.12" y="-61" font-family="Helvetica,sans-Serif" font-size="10.00">src/ui/CharDisplayUI.h</text>
</a>
</g>
</g>
<!-- Node10&#45;&gt;Node12 -->
<g id="edge14_Node000010_Node000012" class="edge">
<title>Node10&#45;&gt;Node12</title>
<g id="a_edge14_Node000010_Node000012"><a xlink:title=" ">
<path fill="none" stroke="#63b8ff" d="M625.29,-105.26C645.4,-95.7 671.54,-83.27 689.03,-74.95"/>
<polygon fill="#63b8ff" stroke="#63b8ff" points="624.02,-101.99 616.49,-109.44 627.03,-108.31 624.02,-101.99"/>
</a>
</g>
</g>
<!-- Node13 -->
<g id="Node000013" class="node">
<title>Node13</title>
<g id="a_Node000013"><a xlink:href="CharDisplayUI_8cpp.html" target="_top" xlink:title=" ">
<polygon fill="white" stroke="#666666" points="769.75,-19.25 646.5,-19.25 646.5,0 769.75,0 769.75,-19.25"/>
<text text-anchor="middle" x="708.12" y="-5.75" font-family="Helvetica,sans-Serif" font-size="10.00">src/ui/CharDisplayUI.cpp</text>
</a>
</g>
</g>
<!-- Node12&#45;&gt;Node13 -->
<g id="edge15_Node000012_Node000013" class="edge">
<title>Node12&#45;&gt;Node13</title>
<g id="a_edge15_Node000012_Node000013"><a xlink:title=" ">
<path fill="none" stroke="#63b8ff" d="M708.12,-43.63C708.12,-35.34 708.12,-26.17 708.12,-19.61"/>
<polygon fill="#63b8ff" stroke="#63b8ff" points="704.63,-43.57 708.13,-53.57 711.63,-43.57 704.63,-43.57"/>
</a>
</g>
</g>
</g>
</svg>
