<?xml version="1.0" encoding="UTF-8" standalone="no"?>
<!DOCTYPE svg PUBLIC "-//W3C//DTD SVG 1.1//EN"
 "http://www.w3.org/Graphics/SVG/1.1/DTD/svg11.dtd">
<!-- Generated by graphviz version 12.0.0 (20240704.0754)
 -->
<!-- Title: src/control/Humidistat.cpp Pages: 1 -->
<svg width="244pt" height="248pt"
 viewBox="0.00 0.00 243.75 248.25" xmlns="http://www.w3.org/2000/svg" xmlns:xlink="http://www.w3.org/1999/xlink">
<g id="graph0" class="graph" transform="scale(1 1) rotate(0) translate(4 244.25)">
<title>src/control/Humidistat.cpp</title>
<!-- Node1 -->
<g id="Node000001" class="node">
<title>Node1</title>
<g id="a_Node000001"><a xlink:title=" ">
<polygon fill="#999999" stroke="#666666" points="170.12,-240.25 40.12,-240.25 40.12,-221 170.12,-221 170.12,-240.25"/>
<text text-anchor="middle" x="105.12" y="-226.75" font-family="Helvetica,sans-Serif" font-size="10.00">src/control/Humidistat.cpp</text>
</a>
</g>
</g>
<!-- Node2 -->
<g id="Node000002" class="node">
<title>Node2</title>
<g id="a_Node000002"><a xlink:href="Humidistat_8h.html" target="_top" xlink:title=" ">
<polygon fill="white" stroke="#666666" points="140.5,-185 69.75,-185 69.75,-165.75 140.5,-165.75 140.5,-185"/>
<text text-anchor="middle" x="105.12" y="-171.5" font-family="Helvetica,sans-Serif" font-size="10.00">Humidistat.h</text>
</a>
</g>
</g>
<!-- Node1&#45;&gt;Node2 -->
<g id="edge1_Node000001_Node000002" class="edge">
<title>Node1&#45;&gt;Node2</title>
<g id="a_edge1_Node000001_Node000002"><a xlink:title=" ">
<path fill="none" stroke="#63b8ff" d="M105.12,-220.83C105.12,-214.32 105.12,-205.17 105.12,-196.87"/>
<polygon fill="#63b8ff" stroke="#63b8ff" points="108.63,-196.87 105.13,-186.87 101.63,-196.87 108.63,-196.87"/>
</a>
</g>
</g>
<!-- Node3 -->
<g id="Node000003" class="node">
<title>Node3</title>
<g id="a_Node000003"><a xlink:href="aliases_8h.html" target="_top" xlink:title=" ">
<polygon fill="white" stroke="#666666" points="54.25,-129.75 0,-129.75 0,-110.5 54.25,-110.5 54.25,-129.75"/>
<text text-anchor="middle" x="27.12" y="-116.25" font-family="Helvetica,sans-Serif" font-size="10.00">aliases.h</text>
</a>
</g>
</g>
<!-- Node2&#45;&gt;Node3 -->
<g id="edge2_Node000002_Node000003" class="edge">
<title>Node2&#45;&gt;Node3</title>
<g id="a_edge2_Node000002_Node000003"><a xlink:title=" ">
<path fill="none" stroke="#63b8ff" d="M91.89,-165.34C80.35,-157.46 63.36,-145.86 49.68,-136.52"/>
<polygon fill="#63b8ff" stroke="#63b8ff" points="51.9,-133.8 41.67,-131.06 47.96,-139.58 51.9,-133.8"/>
</a>
</g>
</g>
<!-- Node4 -->
<g id="Node000004" class="node">
<title>Node4</title>
<g id="a_Node000004"><a xlink:href="Controller_8h.html" target="_top" xlink:title=" ">
<polygon fill="white" stroke="#666666" points="137.5,-129.75 72.75,-129.75 72.75,-110.5 137.5,-110.5 137.5,-129.75"/>
<text text-anchor="middle" x="105.12" y="-116.25" font-family="Helvetica,sans-Serif" font-size="10.00">Controller.h</text>
</a>
</g>
</g>
<!-- Node2&#45;&gt;Node4 -->
<g id="edge3_Node000002_Node000004" class="edge">
<title>Node2&#45;&gt;Node4</title>
<g id="a_edge3_Node000002_Node000004"><a xlink:title=" ">
<path fill="none" stroke="#63b8ff" d="M105.12,-165.58C105.12,-159.07 105.12,-149.92 105.12,-141.62"/>
<polygon fill="#63b8ff" stroke="#63b8ff" points="108.63,-141.62 105.13,-131.62 101.63,-141.62 108.63,-141.62"/>
</a>
</g>
</g>
<!-- Node7 -->
<g id="Node000007" class="node">
<title>Node7</title>
<g id="a_Node000007"><a xlink:href="EEPROMConfig_8h.html" target="_top" xlink:title=" ">
<polygon fill="white" stroke="#666666" points="235.75,-74.5 136.5,-74.5 136.5,-55.25 235.75,-55.25 235.75,-74.5"/>
<text text-anchor="middle" x="186.12" y="-61" font-family="Helvetica,sans-Serif" font-size="10.00">../EEPROMConfig.h</text>
</a>
</g>
</g>
<!-- Node2&#45;&gt;Node7 -->
<g id="edge8_Node000002_Node000007" class="edge">
<title>Node2&#45;&gt;Node7</title>
<g id="a_edge8_Node000002_Node000007"><a xlink:title=" ">
<path fill="none" stroke="#63b8ff" d="M114.12,-165.58C122.79,-156.87 136.05,-142.97 146.12,-129.75 157.16,-115.28 168.01,-97.68 175.62,-84.62"/>
<polygon fill="#63b8ff" stroke="#63b8ff" points="178.5,-86.62 180.43,-76.21 172.43,-83.15 178.5,-86.62"/>
</a>
</g>
</g>
<!-- Node5 -->
<g id="Node000005" class="node">
<title>Node5</title>
<g id="a_Node000005"><a xlink:title=" ">
<polygon fill="#e0e0e0" stroke="#999999" points="97.88,-19.25 50.38,-19.25 50.38,0 97.88,0 97.88,-19.25"/>
<text text-anchor="middle" x="74.12" y="-5.75" font-family="Helvetica,sans-Serif" font-size="10.00">stdint.h</text>
</a>
</g>
</g>
<!-- Node4&#45;&gt;Node5 -->
<g id="edge4_Node000004_Node000005" class="edge">
<title>Node4&#45;&gt;Node5</title>
<g id="a_edge4_Node000004_Node000005"><a xlink:title=" ">
<path fill="none" stroke="#63b8ff" d="M94.62,-110.08C85.91,-101.82 74.16,-88.77 69.12,-74.5 64.13,-60.35 65.79,-43.38 68.47,-30.49"/>
<polygon fill="#63b8ff" stroke="#63b8ff" points="71.8,-31.62 70.81,-21.07 65,-29.93 71.8,-31.62"/>
</a>
</g>
</g>
<!-- Node6 -->
<g id="Node000006" class="node">
<title>Node6</title>
<g id="a_Node000006"><a xlink:href="PID_8h.html" target="_top" xlink:title=" ">
<polygon fill="white" stroke="#666666" points="118.12,-74.5 78.12,-74.5 78.12,-55.25 118.12,-55.25 118.12,-74.5"/>
<text text-anchor="middle" x="98.12" y="-61" font-family="Helvetica,sans-Serif" font-size="10.00">PID.h</text>
</a>
</g>
</g>
<!-- Node4&#45;&gt;Node6 -->
<g id="edge5_Node000004_Node000006" class="edge">
<title>Node4&#45;&gt;Node6</title>
<g id="a_edge5_Node000004_Node000006"><a xlink:title=" ">
<path fill="none" stroke="#63b8ff" d="M103.97,-110.33C103.1,-103.74 101.88,-94.46 100.78,-86.07"/>
<polygon fill="#63b8ff" stroke="#63b8ff" points="104.28,-85.82 99.5,-76.36 97.34,-86.73 104.28,-85.82"/>
</a>
</g>
</g>
<!-- Node4&#45;&gt;Node7 -->
<g id="edge7_Node000004_Node000007" class="edge">
<title>Node4&#45;&gt;Node7</title>
<g id="a_edge7_Node000004_Node000007"><a xlink:title=" ">
<path fill="none" stroke="#63b8ff" d="M118.87,-110.09C130.85,-102.21 148.5,-90.61 162.71,-81.27"/>
<polygon fill="#63b8ff" stroke="#63b8ff" points="164.62,-84.2 171.05,-75.78 160.77,-78.35 164.62,-84.2"/>
</a>
</g>
</g>
<!-- Node6&#45;&gt;Node5 -->
<g id="edge6_Node000006_Node000005" class="edge">
<title>Node6&#45;&gt;Node5</title>
<g id="a_edge6_Node000006_Node000005"><a xlink:title=" ">
<path fill="none" stroke="#63b8ff" d="M94.16,-55.08C91.09,-48.26 86.71,-38.56 82.84,-29.95"/>
<polygon fill="#63b8ff" stroke="#63b8ff" points="86.1,-28.67 78.8,-20.99 79.71,-31.54 86.1,-28.67"/>
</a>
</g>
</g>
</g>
</svg>
