<?xml version="1.0" encoding="UTF-8" standalone="no"?>
<!DOCTYPE svg PUBLIC "-//W3C//DTD SVG 1.1//EN"
 "http://www.w3.org/Graphics/SVG/1.1/DTD/svg11.dtd">
<!-- Generated by graphviz version 12.0.0 (20240704.0754)
 -->
<!-- Title: ipow Pages: 1 -->
<svg width="502pt" height="179pt"
 viewBox="0.00 0.00 501.64 179.25" xmlns="http://www.w3.org/2000/svg" xmlns:xlink="http://www.w3.org/1999/xlink">
<g id="graph0" class="graph" transform="scale(1 1) rotate(0) translate(4 175.25)">
<title>ipow</title>
<!-- Node1 -->
<g id="Node000001" class="node">
<title>Node1</title>
<g id="a_Node000001"><a xlink:title="Constexpr function for computing integer power.">
<polygon fill="#999999" stroke="#666666" points="490.75,-95.25 454.5,-95.25 454.5,-76 490.75,-76 490.75,-95.25"/>
<text text-anchor="middle" x="472.62" y="-81.75" font-family="Helvetica,sans-Serif" font-size="10.00">ipow</text>
</a>
</g>
</g>
<!-- Node1&#45;&gt;Node1 -->
<g id="edge5_Node000001_Node000001" class="edge">
<title>Node1&#45;&gt;Node1</title>
<g id="a_edge5_Node000001_Node000001"><a xlink:title=" ">
<path fill="none" stroke="#63b8ff" d="M493.64,-106.65C491.01,-110.53 484,-113.25 472.62,-113.25 451.82,-113.25 445.64,-104.15 454.09,-95.54"/>
<polygon fill="#63b8ff" stroke="#63b8ff" points="497.08,-106.01 491.49,-97.02 490.25,-107.54 497.08,-106.01"/>
</a>
</g>
</g>
<!-- Node2 -->
<g id="Node000002" class="node">
<title>Node2</title>
<g id="a_Node000002"><a xlink:href="classConfigPar.html#aab5ed0b09b040eba98bc05d76e89c4ca" target="_top" xlink:title="Add delta to the variable.">
<polygon fill="white" stroke="#666666" points="398.62,-171.25 309.88,-171.25 309.88,-152 398.62,-152 398.62,-171.25"/>
<text text-anchor="middle" x="354.25" y="-157.75" font-family="Helvetica,sans-Serif" font-size="10.00">ConfigPar::adjust</text>
</a>
</g>
</g>
<!-- Node1&#45;&gt;Node2 -->
<g id="edge1_Node000001_Node000002" class="edge">
<title>Node1&#45;&gt;Node2</title>
<g id="a_edge1_Node000001_Node000002"><a xlink:title=" ">
<path fill="none" stroke="#63b8ff" d="M456.24,-104.14C446.38,-115.07 432.77,-128.5 418.5,-137.62 409.59,-143.32 399.13,-147.97 389.31,-151.62"/>
<polygon fill="#63b8ff" stroke="#63b8ff" points="458.67,-106.68 462.59,-96.84 453.39,-102.08 458.67,-106.68"/>
</a>
</g>
</g>
<!-- Node3 -->
<g id="Node000003" class="node">
<title>Node3</title>
<g id="a_Node000003"><a xlink:href="classGraphicalDisplayUI.html#a17cd12ba983e77b6f766bac994b09f49" target="_top" xlink:title="Handle input on the Config tab.">
<polygon fill="white" stroke="#666666" points="247.62,-150.88 148.38,-150.88 148.38,-120.38 247.62,-120.38 247.62,-150.88"/>
<text text-anchor="start" x="156.38" y="-137.38" font-family="Helvetica,sans-Serif" font-size="10.00">GraphicalDisplayUI</text>
<text text-anchor="middle" x="198" y="-126.12" font-family="Helvetica,sans-Serif" font-size="10.00">::handleInputConfig</text>
</a>
</g>
</g>
<!-- Node1&#45;&gt;Node3 -->
<g id="edge4_Node000001_Node000003" class="edge">
<title>Node1&#45;&gt;Node3</title>
<g id="a_edge4_Node000001_Node000003"><a xlink:title=" ">
<path fill="none" stroke="#63b8ff" d="M443.55,-96.86C435.56,-99.74 426.77,-102.58 418.5,-104.62 360.77,-118.87 292.77,-127.21 247.93,-131.59"/>
<polygon fill="#63b8ff" stroke="#63b8ff" points="444.64,-100.19 452.78,-93.4 442.18,-93.64 444.64,-100.19"/>
</a>
</g>
</g>
<!-- Node5 -->
<g id="Node000005" class="node">
<title>Node5</title>
<g id="a_Node000005"><a xlink:href="classFlowSensor.html#af13c74f7fd6fed9e163292e2b840ca8e" target="_top" xlink:title="Read the flow rate.">
<polygon fill="white" stroke="#666666" points="418.5,-95.25 290,-95.25 290,-76 418.5,-76 418.5,-95.25"/>
<text text-anchor="middle" x="354.25" y="-81.75" font-family="Helvetica,sans-Serif" font-size="10.00">FlowSensor::readFlowrate</text>
</a>
</g>
</g>
<!-- Node1&#45;&gt;Node5 -->
<g id="edge6_Node000001_Node000005" class="edge">
<title>Node1&#45;&gt;Node5</title>
<g id="a_edge6_Node000001_Node000005"><a xlink:title=" ">
<path fill="none" stroke="#63b8ff" d="M442.77,-85.62C435.43,-85.62 427.25,-85.62 418.92,-85.62"/>
<polygon fill="#63b8ff" stroke="#63b8ff" points="442.69,-89.13 452.69,-85.63 442.69,-82.13 442.69,-89.13"/>
</a>
</g>
</g>
<!-- Node6 -->
<g id="Node000006" class="node">
<title>Node6</title>
<g id="a_Node000006"><a xlink:href="classFlowController.html#a67e791323a0cd95c97266135ba2ecde2" target="_top" xlink:title=" ">
<polygon fill="white" stroke="#666666" points="254,-83.25 142,-83.25 142,-64 254,-64 254,-83.25"/>
<text text-anchor="middle" x="198" y="-69.75" font-family="Helvetica,sans-Serif" font-size="10.00">FlowController::update</text>
</a>
</g>
</g>
<!-- Node1&#45;&gt;Node6 -->
<g id="edge9_Node000001_Node000006" class="edge">
<title>Node1&#45;&gt;Node6</title>
<g id="a_edge9_Node000001_Node000006"><a xlink:title=" ">
<path fill="none" stroke="#63b8ff" d="M443.71,-73.62C435.72,-70.74 426.9,-68.08 418.5,-66.62 363.28,-57.05 299.1,-60.78 254.46,-65.69"/>
<polygon fill="#63b8ff" stroke="#63b8ff" points="442.33,-76.84 452.92,-77.19 444.86,-70.31 442.33,-76.84"/>
</a>
</g>
</g>
<!-- Node8 -->
<g id="Node000008" class="node">
<title>Node8</title>
<g id="a_Node000008"><a xlink:href="classSingleHumidistat.html#af667a97d9c89b5801dab0956f88acd70" target="_top" xlink:title=" ">
<polygon fill="white" stroke="#666666" points="416.25,-19.25 292.25,-19.25 292.25,0 416.25,0 416.25,-19.25"/>
<text text-anchor="middle" x="354.25" y="-5.75" font-family="Helvetica,sans-Serif" font-size="10.00">SingleHumidistat::update</text>
</a>
</g>
</g>
<!-- Node1&#45;&gt;Node8 -->
<g id="edge10_Node000001_Node000008" class="edge">
<title>Node1&#45;&gt;Node8</title>
<g id="a_edge10_Node000001_Node000008"><a xlink:title=" ">
<path fill="none" stroke="#63b8ff" d="M456.24,-67.11C446.38,-56.18 432.77,-42.75 418.5,-33.62 409.59,-27.93 399.13,-23.28 389.31,-19.63"/>
<polygon fill="#63b8ff" stroke="#63b8ff" points="453.39,-69.17 462.59,-74.41 458.67,-64.57 453.39,-69.17"/>
</a>
</g>
</g>
<!-- Node2&#45;&gt;Node3 -->
<g id="edge2_Node000002_Node000003" class="edge">
<title>Node2&#45;&gt;Node3</title>
<g id="a_edge2_Node000002_Node000003"><a xlink:title=" ">
<path fill="none" stroke="#63b8ff" d="M298.37,-152.37C281.96,-149.61 264.07,-146.59 248.05,-143.89"/>
<polygon fill="#63b8ff" stroke="#63b8ff" points="297.53,-155.78 307.97,-153.99 298.69,-148.88 297.53,-155.78"/>
</a>
</g>
</g>
<!-- Node4 -->
<g id="Node000004" class="node">
<title>Node4</title>
<g id="a_Node000004"><a xlink:href="classGraphicalDisplayUI.html#a3e340b5f072ed6a4251069f4a408e4b0" target="_top" xlink:title="Handle input.">
<polygon fill="white" stroke="#666666" points="102.62,-150.88 3.38,-150.88 3.38,-120.38 102.62,-120.38 102.62,-150.88"/>
<text text-anchor="start" x="11.38" y="-137.38" font-family="Helvetica,sans-Serif" font-size="10.00">GraphicalDisplayUI</text>
<text text-anchor="middle" x="53" y="-126.12" font-family="Helvetica,sans-Serif" font-size="10.00">::handleInput</text>
</a>
</g>
</g>
<!-- Node3&#45;&gt;Node4 -->
<g id="edge3_Node000003_Node000004" class="edge">
<title>Node3&#45;&gt;Node4</title>
<g id="a_edge3_Node000003_Node000004"><a xlink:title=" ">
<path fill="none" stroke="#63b8ff" d="M136.69,-135.62C125.48,-135.62 113.9,-135.62 103.08,-135.62"/>
<polygon fill="#63b8ff" stroke="#63b8ff" points="136.67,-139.13 146.67,-135.63 136.67,-132.13 136.67,-139.13"/>
</a>
</g>
</g>
<!-- Node5&#45;&gt;Node6 -->
<g id="edge7_Node000005_Node000006" class="edge">
<title>Node5&#45;&gt;Node6</title>
<g id="a_edge7_Node000005_Node000006"><a xlink:title=" ">
<path fill="none" stroke="#63b8ff" d="M278.2,-79.79C270.08,-79.15 261.93,-78.52 254.11,-77.91"/>
<polygon fill="#63b8ff" stroke="#63b8ff" points="277.87,-83.27 288.11,-80.56 278.41,-76.29 277.87,-83.27"/>
</a>
</g>
</g>
<!-- Node7 -->
<g id="Node000007" class="node">
<title>Node7</title>
<g id="a_Node000007"><a xlink:href="classCascadeHumidistat.html#a5a4f6ad4f30f5f033462af46d47cf959" target="_top" xlink:title=" ">
<polygon fill="white" stroke="#666666" points="106,-88.88 0,-88.88 0,-58.38 106,-58.38 106,-88.88"/>
<text text-anchor="start" x="8" y="-75.38" font-family="Helvetica,sans-Serif" font-size="10.00">CascadeHumidistat::</text>
<text text-anchor="middle" x="53" y="-64.12" font-family="Helvetica,sans-Serif" font-size="10.00">update</text>
</a>
</g>
</g>
<!-- Node6&#45;&gt;Node7 -->
<g id="edge8_Node000006_Node000007" class="edge">
<title>Node6&#45;&gt;Node7</title>
<g id="a_edge8_Node000006_Node000007"><a xlink:title=" ">
<path fill="none" stroke="#63b8ff" d="M130.39,-73.62C122.32,-73.62 114.15,-73.62 106.33,-73.62"/>
<polygon fill="#63b8ff" stroke="#63b8ff" points="130.2,-77.13 140.2,-73.63 130.2,-70.13 130.2,-77.13"/>
</a>
</g>
</g>
</g>
</svg>
