<?xml version="1.0" encoding="UTF-8" standalone="no"?>
<!DOCTYPE svg PUBLIC "-//W3C//DTD SVG 1.1//EN"
 "http://www.w3.org/Graphics/SVG/1.1/DTD/svg11.dtd">
<!-- Generated by graphviz version 12.0.0 (20240704.0754)
 -->
<!-- Title: src/imath.h Pages: 1 -->
<svg width="527pt" height="304pt"
 viewBox="0.00 0.00 527.00 303.50" xmlns="http://www.w3.org/2000/svg" xmlns:xlink="http://www.w3.org/1999/xlink">
<g id="graph0" class="graph" transform="scale(1 1) rotate(0) translate(4 299.5)">
<title>src/imath.h</title>
<!-- Node1 -->
<g id="Node000001" class="node">
<title>Node1</title>
<g id="a_Node000001"><a xlink:title=" ">
<polygon fill="#999999" stroke="#666666" points="262.5,-295.5 198.5,-295.5 198.5,-276.25 262.5,-276.25 262.5,-295.5"/>
<text text-anchor="middle" x="230.5" y="-282" font-family="Helvetica,sans-Serif" font-size="10.00">src/imath.h</text>
</a>
</g>
</g>
<!-- Node2 -->
<g id="Node000002" class="node">
<title>Node2</title>
<g id="a_Node000002"><a xlink:href="SingleHumidistat_8cpp.html" target="_top" xlink:title=" ">
<polygon fill="white" stroke="#666666" points="157,-240.25 0,-240.25 0,-221 157,-221 157,-240.25"/>
<text text-anchor="middle" x="78.5" y="-226.75" font-family="Helvetica,sans-Serif" font-size="10.00">src/control/SingleHumidistat.cpp</text>
</a>
</g>
</g>
<!-- Node1&#45;&gt;Node2 -->
<g id="edge1_Node000001_Node000002" class="edge">
<title>Node1&#45;&gt;Node2</title>
<g id="a_edge1_Node000001_Node000002"><a xlink:title=" ">
<path fill="none" stroke="#63b8ff" d="M193.9,-272.05C166.26,-262.37 129.02,-249.32 104.41,-240.7"/>
<polygon fill="#63b8ff" stroke="#63b8ff" points="192.69,-275.34 203.29,-275.34 195.01,-268.73 192.69,-275.34"/>
</a>
</g>
</g>
<!-- Node3 -->
<g id="Node000003" class="node">
<title>Node3</title>
<g id="a_Node000003"><a xlink:href="FlowSensor_8cpp.html" target="_top" xlink:title=" ">
<polygon fill="white" stroke="#666666" points="249.75,-185 115.25,-185 115.25,-165.75 249.75,-165.75 249.75,-185"/>
<text text-anchor="middle" x="182.5" y="-171.5" font-family="Helvetica,sans-Serif" font-size="10.00">src/sensor/FlowSensor.cpp</text>
</a>
</g>
</g>
<!-- Node1&#45;&gt;Node3 -->
<g id="edge2_Node000001_Node000003" class="edge">
<title>Node1&#45;&gt;Node3</title>
<g id="a_edge2_Node000001_Node000003"><a xlink:title=" ">
<path fill="none" stroke="#63b8ff" d="M218.6,-266.34C213.85,-258.48 208.56,-249.1 204.5,-240.25 195.8,-221.27 188.56,-197.8 184.96,-185.26"/>
<polygon fill="#63b8ff" stroke="#63b8ff" points="215.52,-268.01 223.78,-274.64 221.46,-264.3 215.52,-268.01"/>
</a>
</g>
</g>
<!-- Node4 -->
<g id="Node000004" class="node">
<title>Node4</title>
<g id="a_Node000004"><a xlink:href="FlowSensor_8h.html" target="_top" xlink:title=" ">
<polygon fill="white" stroke="#666666" points="337.5,-240.25 213.5,-240.25 213.5,-221 337.5,-221 337.5,-240.25"/>
<text text-anchor="middle" x="275.5" y="-226.75" font-family="Helvetica,sans-Serif" font-size="10.00">src/sensor/FlowSensor.h</text>
</a>
</g>
</g>
<!-- Node1&#45;&gt;Node4 -->
<g id="edge3_Node000001_Node000004" class="edge">
<title>Node1&#45;&gt;Node4</title>
<g id="a_edge3_Node000001_Node000004"><a xlink:title=" ">
<path fill="none" stroke="#63b8ff" d="M245.18,-267.51C252.76,-258.53 261.71,-247.95 267.91,-240.61"/>
<polygon fill="#63b8ff" stroke="#63b8ff" points="242.69,-265.03 238.91,-274.93 248.04,-269.55 242.69,-265.03"/>
</a>
</g>
</g>
<!-- Node12 -->
<g id="Node000012" class="node">
<title>Node12</title>
<g id="a_Node000012"><a xlink:href="ConfigPar_8cpp.html" target="_top" xlink:title=" ">
<polygon fill="white" stroke="#666666" points="459,-240.25 356,-240.25 356,-221 459,-221 459,-240.25"/>
<text text-anchor="middle" x="407.5" y="-226.75" font-family="Helvetica,sans-Serif" font-size="10.00">src/ui/ConfigPar.cpp</text>
</a>
</g>
</g>
<!-- Node1&#45;&gt;Node12 -->
<g id="edge13_Node000001_Node000012" class="edge">
<title>Node1&#45;&gt;Node12</title>
<g id="a_edge13_Node000001_Node000012"><a xlink:title=" ">
<path fill="none" stroke="#63b8ff" d="M271.42,-272.57C303.76,-262.84 348.16,-249.48 377.33,-240.7"/>
<polygon fill="#63b8ff" stroke="#63b8ff" points="270.54,-269.17 261.98,-275.41 272.56,-275.88 270.54,-269.17"/>
</a>
</g>
</g>
<!-- Node4&#45;&gt;Node3 -->
<g id="edge12_Node000004_Node000003" class="edge">
<title>Node4&#45;&gt;Node3</title>
<g id="a_edge12_Node000004_Node000003"><a xlink:title=" ">
<path fill="none" stroke="#63b8ff" d="M250.12,-215.09C233.59,-205.63 212.54,-193.58 198.35,-185.45"/>
<polygon fill="#63b8ff" stroke="#63b8ff" points="247.99,-217.91 258.41,-219.84 251.47,-211.83 247.99,-217.91"/>
</a>
</g>
</g>
<!-- Node5 -->
<g id="Node000005" class="node">
<title>Node5</title>
<g id="a_Node000005"><a xlink:href="CascadeHumidistat_8h.html" target="_top" xlink:title=" ">
<polygon fill="white" stroke="#666666" points="356.38,-129.75 198.62,-129.75 198.62,-110.5 356.38,-110.5 356.38,-129.75"/>
<text text-anchor="middle" x="277.5" y="-116.25" font-family="Helvetica,sans-Serif" font-size="10.00">src/control/CascadeHumidistat.h</text>
</a>
</g>
</g>
<!-- Node4&#45;&gt;Node5 -->
<g id="edge4_Node000004_Node000005" class="edge">
<title>Node4&#45;&gt;Node5</title>
<g id="a_edge4_Node000004_Node000005"><a xlink:title=" ">
<path fill="none" stroke="#63b8ff" d="M275.88,-209.28C276.31,-185.55 277.02,-147.39 277.33,-130.13"/>
<polygon fill="#63b8ff" stroke="#63b8ff" points="272.38,-209.17 275.69,-219.23 279.38,-209.3 272.38,-209.17"/>
</a>
</g>
</g>
<!-- Node10 -->
<g id="Node000010" class="node">
<title>Node10</title>
<g id="a_Node000010"><a xlink:href="FlowController_8h.html" target="_top" xlink:title=" ">
<polygon fill="white" stroke="#666666" points="439.75,-185 305.25,-185 305.25,-165.75 439.75,-165.75 439.75,-185"/>
<text text-anchor="middle" x="372.5" y="-171.5" font-family="Helvetica,sans-Serif" font-size="10.00">src/control/FlowController.h</text>
</a>
</g>
</g>
<!-- Node4&#45;&gt;Node10 -->
<g id="edge9_Node000004_Node000010" class="edge">
<title>Node4&#45;&gt;Node10</title>
<g id="a_edge9_Node000004_Node000010"><a xlink:title=" ">
<path fill="none" stroke="#63b8ff" d="M301.97,-215.09C319.21,-205.63 341.17,-193.58 355.96,-185.45"/>
<polygon fill="#63b8ff" stroke="#63b8ff" points="300.36,-211.98 293.28,-219.86 303.73,-218.12 300.36,-211.98"/>
</a>
</g>
</g>
<!-- Node6 -->
<g id="Node000006" class="node">
<title>Node6</title>
<g id="a_Node000006"><a xlink:href="SerialLogger_8h.html" target="_top" xlink:title=" ">
<polygon fill="white" stroke="#666666" points="174.88,-74.5 80.12,-74.5 80.12,-55.25 174.88,-55.25 174.88,-74.5"/>
<text text-anchor="middle" x="127.5" y="-61" font-family="Helvetica,sans-Serif" font-size="10.00">src/SerialLogger.h</text>
</a>
</g>
</g>
<!-- Node5&#45;&gt;Node6 -->
<g id="edge5_Node000005_Node000006" class="edge">
<title>Node5&#45;&gt;Node6</title>
<g id="a_edge5_Node000005_Node000006"><a xlink:title=" ">
<path fill="none" stroke="#63b8ff" d="M241.38,-106.3C214.11,-96.62 177.36,-83.57 153.07,-74.95"/>
<polygon fill="#63b8ff" stroke="#63b8ff" points="240.03,-109.54 250.63,-109.59 242.38,-102.94 240.03,-109.54"/>
</a>
</g>
</g>
<!-- Node8 -->
<g id="Node000008" class="node">
<title>Node8</title>
<g id="a_Node000008"><a xlink:href="CascadeHumidistat_8cpp.html" target="_top" xlink:title=" ">
<polygon fill="white" stroke="#666666" points="361.62,-74.5 193.38,-74.5 193.38,-55.25 361.62,-55.25 361.62,-74.5"/>
<text text-anchor="middle" x="277.5" y="-61" font-family="Helvetica,sans-Serif" font-size="10.00">src/control/CascadeHumidistat.cpp</text>
</a>
</g>
</g>
<!-- Node5&#45;&gt;Node8 -->
<g id="edge7_Node000005_Node000008" class="edge">
<title>Node5&#45;&gt;Node8</title>
<g id="a_edge7_Node000005_Node000008"><a xlink:title=" ">
<path fill="none" stroke="#63b8ff" d="M277.5,-98.88C277.5,-90.59 277.5,-81.42 277.5,-74.86"/>
<polygon fill="#63b8ff" stroke="#63b8ff" points="274,-98.82 277.5,-108.82 281,-98.82 274,-98.82"/>
</a>
</g>
</g>
<!-- Node9 -->
<g id="Node000009" class="node">
<title>Node9</title>
<g id="a_Node000009"><a xlink:href="GraphicalDisplayUI_8h.html" target="_top" xlink:title=" ">
<polygon fill="white" stroke="#666666" points="513.38,-74.5 379.62,-74.5 379.62,-55.25 513.38,-55.25 513.38,-74.5"/>
<text text-anchor="middle" x="446.5" y="-61" font-family="Helvetica,sans-Serif" font-size="10.00">src/ui/GraphicalDisplayUI.h</text>
</a>
</g>
</g>
<!-- Node5&#45;&gt;Node9 -->
<g id="edge8_Node000005_Node000009" class="edge">
<title>Node5&#45;&gt;Node9</title>
<g id="a_edge8_Node000005_Node000009"><a xlink:title=" ">
<path fill="none" stroke="#63b8ff" d="M316.97,-106.69C347.82,-96.97 389.96,-83.69 417.69,-74.95"/>
<polygon fill="#63b8ff" stroke="#63b8ff" points="316.1,-103.29 307.61,-109.64 318.2,-109.97 316.1,-103.29"/>
</a>
</g>
</g>
<!-- Node7 -->
<g id="Node000007" class="node">
<title>Node7</title>
<g id="a_Node000007"><a xlink:href="main_8cpp.html" target="_top" xlink:title=" ">
<polygon fill="white" stroke="#666666" points="163.25,-19.25 91.75,-19.25 91.75,0 163.25,0 163.25,-19.25"/>
<text text-anchor="middle" x="127.5" y="-5.75" font-family="Helvetica,sans-Serif" font-size="10.00">src/main.cpp</text>
</a>
</g>
</g>
<!-- Node6&#45;&gt;Node7 -->
<g id="edge6_Node000006_Node000007" class="edge">
<title>Node6&#45;&gt;Node7</title>
<g id="a_edge6_Node000006_Node000007"><a xlink:title=" ">
<path fill="none" stroke="#63b8ff" d="M127.5,-43.63C127.5,-35.34 127.5,-26.17 127.5,-19.61"/>
<polygon fill="#63b8ff" stroke="#63b8ff" points="124,-43.57 127.5,-53.57 131,-43.57 124,-43.57"/>
</a>
</g>
</g>
<!-- Node10&#45;&gt;Node5 -->
<g id="edge10_Node000010_Node000005" class="edge">
<title>Node10&#45;&gt;Node5</title>
<g id="a_edge10_Node000010_Node000005"><a xlink:title=" ">
<path fill="none" stroke="#63b8ff" d="M346.57,-159.84C329.69,-150.38 308.19,-138.33 293.69,-130.2"/>
<polygon fill="#63b8ff" stroke="#63b8ff" points="344.63,-162.77 355.06,-164.6 348.05,-156.66 344.63,-162.77"/>
</a>
</g>
</g>
<!-- Node11 -->
<g id="Node000011" class="node">
<title>Node11</title>
<g id="a_Node000011"><a xlink:href="FlowController_8cpp.html" target="_top" xlink:title=" ">
<polygon fill="white" stroke="#666666" points="519,-129.75 374,-129.75 374,-110.5 519,-110.5 519,-129.75"/>
<text text-anchor="middle" x="446.5" y="-116.25" font-family="Helvetica,sans-Serif" font-size="10.00">src/control/FlowController.cpp</text>
</a>
</g>
</g>
<!-- Node10&#45;&gt;Node11 -->
<g id="edge11_Node000010_Node000011" class="edge">
<title>Node10&#45;&gt;Node11</title>
<g id="a_edge11_Node000010_Node000011"><a xlink:title=" ">
<path fill="none" stroke="#63b8ff" d="M394.26,-158.72C407.25,-149.37 423.28,-137.83 434.13,-130.02"/>
<polygon fill="#63b8ff" stroke="#63b8ff" points="392.35,-155.78 386.28,-164.46 396.44,-161.46 392.35,-155.78"/>
</a>
</g>
</g>
</g>
</svg>
