<?xml version="1.0" encoding="UTF-8" standalone="no"?>
<!DOCTYPE svg PUBLIC "-//W3C//DTD SVG 1.1//EN"
 "http://www.w3.org/Graphics/SVG/1.1/DTD/svg11.dtd">
<!-- Generated by graphviz version 12.0.0 (20240704.0754)
 -->
<!-- Title: ilog10 Pages: 1 -->
<svg width="464pt" height="51pt"
 viewBox="0.00 0.00 463.50 50.88" xmlns="http://www.w3.org/2000/svg" xmlns:xlink="http://www.w3.org/1999/xlink">
<g id="graph0" class="graph" transform="scale(1 1) rotate(0) translate(4 46.88)">
<title>ilog10</title>
<!-- Node1 -->
<g id="Node000001" class="node">
<title>Node1</title>
<g id="a_Node000001"><a xlink:title="Constexpr integer base&#45;10 logarithm.">
<polygon fill="#999999" stroke="#666666" points="455.5,-24.88 414,-24.88 414,-5.63 455.5,-5.63 455.5,-24.88"/>
<text text-anchor="middle" x="434.75" y="-11.38" font-family="Helvetica,sans-Serif" font-size="10.00">ilog10</text>
</a>
</g>
</g>
<!-- Node1&#45;&gt;Node1 -->
<g id="edge1_Node000001_Node000001" class="edge">
<title>Node1&#45;&gt;Node1</title>
<g id="a_edge1_Node000001_Node000001"><a xlink:title=" ">
<path fill="none" stroke="#63b8ff" d="M454.36,-36.28C451.91,-40.15 445.37,-42.88 434.75,-42.88 415.33,-42.88 409.56,-33.77 417.45,-25.16"/>
<polygon fill="#63b8ff" stroke="#63b8ff" points="457.82,-35.72 452.36,-26.64 450.97,-37.15 457.82,-35.72"/>
</a>
</g>
</g>
<!-- Node2 -->
<g id="Node000002" class="node">
<title>Node2</title>
<g id="a_Node000002"><a xlink:href="classConfigPar.html#a099b55d3836247dc0ebbe2609d3809cd" target="_top" xlink:title="Get magnitude (number of digits before the decimal separator) of variable.">
<polygon fill="white" stroke="#666666" points="378,-24.88 270.5,-24.88 270.5,-5.63 378,-5.63 378,-24.88"/>
<text text-anchor="middle" x="324.25" y="-11.38" font-family="Helvetica,sans-Serif" font-size="10.00">ConfigPar::magnitude</text>
</a>
</g>
</g>
<!-- Node1&#45;&gt;Node2 -->
<g id="edge2_Node000001_Node000002" class="edge">
<title>Node1&#45;&gt;Node2</title>
<g id="a_edge2_Node000001_Node000002"><a xlink:title=" ">
<path fill="none" stroke="#63b8ff" d="M402.14,-15.25C394.64,-15.25 386.44,-15.25 378.28,-15.25"/>
<polygon fill="#63b8ff" stroke="#63b8ff" points="402.08,-18.75 412.08,-15.25 402.08,-11.75 402.08,-18.75"/>
</a>
</g>
</g>
<!-- Node3 -->
<g id="Node000003" class="node">
<title>Node3</title>
<g id="a_Node000003"><a xlink:href="classGraphicalDisplayUI.html#aa1797798b407f534ccaddf6304ce1a7d" target="_top" xlink:title="Draw the Config tab.">
<polygon fill="white" stroke="#666666" points="234.5,-30.5 135.25,-30.5 135.25,0 234.5,0 234.5,-30.5"/>
<text text-anchor="start" x="143.25" y="-17" font-family="Helvetica,sans-Serif" font-size="10.00">GraphicalDisplayUI</text>
<text text-anchor="middle" x="184.88" y="-5.75" font-family="Helvetica,sans-Serif" font-size="10.00">::drawConfig</text>
</a>
</g>
</g>
<!-- Node2&#45;&gt;Node3 -->
<g id="edge3_Node000002_Node000003" class="edge">
<title>Node2&#45;&gt;Node3</title>
<g id="a_edge3_Node000002_Node000003"><a xlink:title=" ">
<path fill="none" stroke="#63b8ff" d="M258.82,-15.25C250.74,-15.25 242.58,-15.25 234.8,-15.25"/>
<polygon fill="#63b8ff" stroke="#63b8ff" points="258.62,-18.75 268.62,-15.25 258.62,-11.75 258.62,-18.75"/>
</a>
</g>
</g>
<!-- Node4 -->
<g id="Node000004" class="node">
<title>Node4</title>
<g id="a_Node000004"><a xlink:href="classGraphicalDisplayUI.html#aa73a9c30736b609bcef2b75c7aed1970" target="_top" xlink:title="Draw main interface (main loop).">
<polygon fill="white" stroke="#666666" points="99.25,-30.5 0,-30.5 0,0 99.25,0 99.25,-30.5"/>
<text text-anchor="start" x="8" y="-17" font-family="Helvetica,sans-Serif" font-size="10.00">GraphicalDisplayUI</text>
<text text-anchor="middle" x="49.62" y="-5.75" font-family="Helvetica,sans-Serif" font-size="10.00">::draw</text>
</a>
</g>
</g>
<!-- Node3&#45;&gt;Node4 -->
<g id="edge4_Node000003_Node000004" class="edge">
<title>Node3&#45;&gt;Node4</title>
<g id="a_edge4_Node000003_Node000004"><a xlink:title=" ">
<path fill="none" stroke="#63b8ff" d="M123.69,-15.25C115.59,-15.25 107.36,-15.25 99.48,-15.25"/>
<polygon fill="#63b8ff" stroke="#63b8ff" points="123.5,-18.75 133.5,-15.25 123.5,-11.75 123.5,-18.75"/>
</a>
</g>
</g>
</g>
</svg>
