<?xml version="1.0" encoding="UTF-8" standalone="no"?>
<!DOCTYPE svg PUBLIC "-//W3C//DTD SVG 1.1//EN"
 "http://www.w3.org/Graphics/SVG/1.1/DTD/svg11.dtd">
<!-- Generated by graphviz version 12.0.0 (20240704.0754)
 -->
<!-- Title: Graphical Class Hierarchy Pages: 1 -->
<svg width="211pt" height="76pt"
 viewBox="0.00 0.00 211.00 75.88" xmlns="http://www.w3.org/2000/svg" xmlns:xlink="http://www.w3.org/1999/xlink">
<g id="graph0" class="graph" transform="scale(1 1) rotate(0) translate(4 71.88)">
<title>Graphical Class Hierarchy</title>
<!-- Node0 -->
<g id="Node000000" class="node">
<title>Node0</title>
<g id="a_Node000000"><a xlink:href="classControllerUI.html" target="_top" xlink:title="User interface (display and input) for humidistat. Hold references to ButtonReader for keypad input,...">
<polygon fill="white" stroke="#666666" points="67.75,-45.88 0,-45.88 0,-26.62 67.75,-26.62 67.75,-45.88"/>
<text text-anchor="middle" x="33.88" y="-32.38" font-family="Helvetica,sans-Serif" font-size="10.00">ControllerUI</text>
</a>
</g>
</g>
<!-- Node1 -->
<g id="Node000001" class="node">
<title>Node1</title>
<g id="a_Node000001"><a xlink:href="classCharDisplayUI.html" target="_top" xlink:title="TUI for 16x2 character LCD. Holds a reference to a LiquidCrystal instance for writing to display....">
<polygon fill="white" stroke="#666666" points="192.5,-67.88 114.25,-67.88 114.25,-48.62 192.5,-48.62 192.5,-67.88"/>
<text text-anchor="middle" x="153.38" y="-54.38" font-family="Helvetica,sans-Serif" font-size="10.00">CharDisplayUI</text>
</a>
</g>
</g>
<!-- Node0&#45;&gt;Node1 -->
<g id="edge5_Node000000_Node000001" class="edge">
<title>Node0&#45;&gt;Node1</title>
<g id="a_edge5_Node000000_Node000001"><a xlink:title=" ">
<path fill="none" stroke="#63b8ff" d="M79.31,-44.57C90.72,-46.71 102.89,-48.98 113.96,-51.06"/>
<polygon fill="#63b8ff" stroke="#63b8ff" points="80.19,-41.17 69.72,-42.77 78.9,-48.05 80.19,-41.17"/>
</a>
</g>
</g>
<!-- Node2 -->
<g id="Node000002" class="node">
<title>Node2</title>
<g id="a_Node000002"><a xlink:href="classGraphicalDisplayUI.html" target="_top" xlink:title="TUI for 128*64 px graphical display using U8g2. Holds references to a U8g2lib instance for writing to...">
<polygon fill="white" stroke="#666666" points="203,-30.5 103.75,-30.5 103.75,0 203,0 203,-30.5"/>
<text text-anchor="start" x="111.75" y="-17" font-family="Helvetica,sans-Serif" font-size="10.00">GraphicalDisplayUI</text>
<text text-anchor="middle" x="153.38" y="-5.75" font-family="Helvetica,sans-Serif" font-size="10.00">&lt; Humidistat_t &gt;</text>
</a>
</g>
</g>
<!-- Node0&#45;&gt;Node2 -->
<g id="edge6_Node000000_Node000002" class="edge">
<title>Node0&#45;&gt;Node2</title>
<g id="a_edge6_Node000000_Node000002"><a xlink:title=" ">
<path fill="none" stroke="#63b8ff" d="M79.45,-28.28C87.34,-26.87 95.59,-25.4 103.58,-23.97"/>
<polygon fill="#63b8ff" stroke="#63b8ff" points="78.95,-24.82 69.72,-30.02 80.18,-31.71 78.95,-24.82"/>
</a>
</g>
</g>
</g>
</svg>
