<?xml version="1.0" encoding="UTF-8" standalone="no"?>
<!DOCTYPE svg PUBLIC "-//W3C//DTD SVG 1.1//EN"
 "http://www.w3.org/Graphics/SVG/1.1/DTD/svg11.dtd">
<!-- Generated by graphviz version 12.0.0 (20240704.0754)
 -->
<!-- Title: Graphical Class Hierarchy Pages: 1 -->
<svg width="317pt" height="82pt"
 viewBox="0.00 0.00 317.00 82.25" xmlns="http://www.w3.org/2000/svg" xmlns:xlink="http://www.w3.org/1999/xlink">
<g id="graph0" class="graph" transform="scale(1 1) rotate(0) translate(4 78.25)">
<title>Graphical Class Hierarchy</title>
<!-- Node0 -->
<g id="Node000000" class="node">
<title>Node0</title>
<g id="a_Node000000"><a xlink:href="classController.html" target="_top" xlink:title="Base class for a controller. Owns a PID instance, and holds a reference to a ConfigStore instance.">
<polygon fill="white" stroke="#666666" points="57.25,-55.25 0,-55.25 0,-36 57.25,-36 57.25,-55.25"/>
<text text-anchor="middle" x="28.62" y="-41.75" font-family="Helvetica,sans-Serif" font-size="10.00">Controller</text>
</a>
</g>
</g>
<!-- Node1 -->
<g id="Node000001" class="node">
<title>Node1</title>
<g id="a_Node000001"><a xlink:href="classFlowController.html" target="_top" xlink:title="Controls flow. Holds a reference to a FlowSensor instance.">
<polygon fill="white" stroke="#666666" points="171.5,-74.25 93.25,-74.25 93.25,-55 171.5,-55 171.5,-74.25"/>
<text text-anchor="middle" x="132.38" y="-60.75" font-family="Helvetica,sans-Serif" font-size="10.00">FlowController</text>
</a>
</g>
</g>
<!-- Node0&#45;&gt;Node1 -->
<g id="edge1_Node000000_Node000001" class="edge">
<title>Node0&#45;&gt;Node1</title>
<g id="a_edge1_Node000000_Node000001"><a xlink:title=" ">
<path fill="none" stroke="#63b8ff" d="M68.94,-52.97C76.88,-54.45 85.21,-56 93.11,-57.48"/>
<polygon fill="#63b8ff" stroke="#63b8ff" points="69.66,-49.54 59.19,-51.14 68.37,-56.42 69.66,-49.54"/>
</a>
</g>
</g>
<!-- Node2 -->
<g id="Node000002" class="node">
<title>Node2</title>
<g id="a_Node000002"><a xlink:href="classHumidistat.html" target="_top" xlink:title="Base class for a humidistat. Holds a reference to a HumiditySensor instance.">
<polygon fill="white" stroke="#666666" points="164,-37.25 100.75,-37.25 100.75,-18 164,-18 164,-37.25"/>
<text text-anchor="middle" x="132.38" y="-23.75" font-family="Helvetica,sans-Serif" font-size="10.00">Humidistat</text>
</a>
</g>
</g>
<!-- Node0&#45;&gt;Node2 -->
<g id="edge2_Node000000_Node000002" class="edge">
<title>Node0&#45;&gt;Node2</title>
<g id="a_edge2_Node000000_Node000002"><a xlink:title=" ">
<path fill="none" stroke="#63b8ff" d="M68.75,-38.7C79.28,-36.84 90.53,-34.85 100.53,-33.08"/>
<polygon fill="#63b8ff" stroke="#63b8ff" points="68.43,-35.21 59.19,-40.4 69.65,-42.1 68.43,-35.21"/>
</a>
</g>
</g>
<!-- Node3 -->
<g id="Node000003" class="node">
<title>Node3</title>
<g id="a_Node000003"><a xlink:href="classCascadeHumidistat.html" target="_top" xlink:title="Control humidity using cascade PID: outer PID loop sets setpoints of two inner flow controllers,...">
<polygon fill="white" stroke="#666666" points="309,-56.25 207.5,-56.25 207.5,-37 309,-37 309,-56.25"/>
<text text-anchor="middle" x="258.25" y="-42.75" font-family="Helvetica,sans-Serif" font-size="10.00">CascadeHumidistat</text>
</a>
</g>
</g>
<!-- Node2&#45;&gt;Node3 -->
<g id="edge3_Node000002_Node000003" class="edge">
<title>Node2&#45;&gt;Node3</title>
<g id="a_edge3_Node000002_Node000003"><a xlink:title=" ">
<path fill="none" stroke="#63b8ff" d="M175.5,-34.09C185.77,-35.66 196.86,-37.36 207.45,-38.99"/>
<polygon fill="#63b8ff" stroke="#63b8ff" points="176.23,-30.66 165.81,-32.6 175.16,-37.58 176.23,-30.66"/>
</a>
</g>
</g>
<!-- Node4 -->
<g id="Node000004" class="node">
<title>Node4</title>
<g id="a_Node000004"><a xlink:href="classSingleHumidistat.html" target="_top" xlink:title="Control humidity using PID by driving two solenoid valves. Adjust the public setpoint variable and ca...">
<polygon fill="white" stroke="#666666" points="303.38,-19.25 213.12,-19.25 213.12,0 303.38,0 303.38,-19.25"/>
<text text-anchor="middle" x="258.25" y="-5.75" font-family="Helvetica,sans-Serif" font-size="10.00">SingleHumidistat</text>
</a>
</g>
</g>
<!-- Node2&#45;&gt;Node4 -->
<g id="edge4_Node000002_Node000004" class="edge">
<title>Node2&#45;&gt;Node4</title>
<g id="a_edge4_Node000002_Node000004"><a xlink:title=" ">
<path fill="none" stroke="#63b8ff" d="M175.41,-21.52C187.42,-19.77 200.54,-17.87 212.69,-16.1"/>
<polygon fill="#63b8ff" stroke="#63b8ff" points="175.2,-18.01 165.81,-22.91 176.21,-24.94 175.2,-18.01"/>
</a>
</g>
</g>
</g>
</svg>
