<?xml version="1.0" encoding="UTF-8" standalone="no"?>
<!DOCTYPE svg PUBLIC "-//W3C//DTD SVG 1.1//EN"
 "http://www.w3.org/Graphics/SVG/1.1/DTD/svg11.dtd">
<!-- Generated by graphviz version 12.0.0 (20240704.0754)
 -->
<!-- Title: src/input/Ks0256VoltLadder.cpp Pages: 1 -->
<svg width="163pt" height="138pt"
 viewBox="0.00 0.00 162.75 137.75" xmlns="http://www.w3.org/2000/svg" xmlns:xlink="http://www.w3.org/1999/xlink">
<g id="graph0" class="graph" transform="scale(1 1) rotate(0) translate(4 133.75)">
<title>src/input/Ks0256VoltLadder.cpp</title>
<!-- Node1 -->
<g id="Node000001" class="node">
<title>Node1</title>
<g id="a_Node000001"><a xlink:title=" ">
<polygon fill="#999999" stroke="#666666" points="154.75,-129.75 0,-129.75 0,-110.5 154.75,-110.5 154.75,-129.75"/>
<text text-anchor="middle" x="77.38" y="-116.25" font-family="Helvetica,sans-Serif" font-size="10.00">src/input/Ks0256VoltLadder.cpp</text>
</a>
</g>
</g>
<!-- Node2 -->
<g id="Node000002" class="node">
<title>Node2</title>
<g id="a_Node000002"><a xlink:href="Ks0256VoltLadder_8h.html" target="_top" xlink:title=" ">
<polygon fill="white" stroke="#666666" points="129.25,-74.5 25.5,-74.5 25.5,-55.25 129.25,-55.25 129.25,-74.5"/>
<text text-anchor="middle" x="77.38" y="-61" font-family="Helvetica,sans-Serif" font-size="10.00">Ks0256VoltLadder.h</text>
</a>
</g>
</g>
<!-- Node1&#45;&gt;Node2 -->
<g id="edge1_Node000001_Node000002" class="edge">
<title>Node1&#45;&gt;Node2</title>
<g id="a_edge1_Node000001_Node000002"><a xlink:title=" ">
<path fill="none" stroke="#63b8ff" d="M77.38,-110.33C77.38,-103.82 77.38,-94.67 77.38,-86.37"/>
<polygon fill="#63b8ff" stroke="#63b8ff" points="80.88,-86.37 77.38,-76.37 73.88,-86.37 80.88,-86.37"/>
</a>
</g>
</g>
<!-- Node3 -->
<g id="Node000003" class="node">
<title>Node3</title>
<g id="a_Node000003"><a xlink:title=" ">
<polygon fill="#e0e0e0" stroke="#999999" points="66.12,-19.25 18.62,-19.25 18.62,0 66.12,0 66.12,-19.25"/>
<text text-anchor="middle" x="42.38" y="-5.75" font-family="Helvetica,sans-Serif" font-size="10.00">stdint.h</text>
</a>
</g>
</g>
<!-- Node2&#45;&gt;Node3 -->
<g id="edge2_Node000002_Node000003" class="edge">
<title>Node2&#45;&gt;Node3</title>
<g id="a_edge2_Node000002_Node000003"><a xlink:title=" ">
<path fill="none" stroke="#63b8ff" d="M71.6,-55.08C66.96,-48.03 60.3,-37.9 54.51,-29.08"/>
<polygon fill="#63b8ff" stroke="#63b8ff" points="57.53,-27.31 49.11,-20.87 51.68,-31.15 57.53,-27.31"/>
</a>
</g>
</g>
<!-- Node4 -->
<g id="Node000004" class="node">
<title>Node4</title>
<g id="a_Node000004"><a xlink:href="Buttons_8h.html" target="_top" xlink:title=" ">
<polygon fill="white" stroke="#666666" points="141,-19.25 83.75,-19.25 83.75,0 141,0 141,-19.25"/>
<text text-anchor="middle" x="112.38" y="-5.75" font-family="Helvetica,sans-Serif" font-size="10.00">Buttons.h</text>
</a>
</g>
</g>
<!-- Node2&#45;&gt;Node4 -->
<g id="edge3_Node000002_Node000004" class="edge">
<title>Node2&#45;&gt;Node4</title>
<g id="a_edge3_Node000002_Node000004"><a xlink:title=" ">
<path fill="none" stroke="#63b8ff" d="M83.15,-55.08C87.79,-48.03 94.45,-37.9 100.24,-29.08"/>
<polygon fill="#63b8ff" stroke="#63b8ff" points="103.07,-31.15 105.64,-20.87 97.22,-27.31 103.07,-31.15"/>
</a>
</g>
</g>
</g>
</svg>
