<?xml version="1.0" encoding="UTF-8" standalone="no"?>
<!DOCTYPE svg PUBLIC "-//W3C//DTD SVG 1.1//EN"
 "http://www.w3.org/Graphics/SVG/1.1/DTD/svg11.dtd">
<!-- Generated by graphviz version 12.0.0 (20240704.0754)
 -->
<!-- Title: src/input/Ks0466VoltLadder.h Pages: 1 -->
<svg width="152pt" height="83pt"
 viewBox="0.00 0.00 152.25 82.50" xmlns="http://www.w3.org/2000/svg" xmlns:xlink="http://www.w3.org/1999/xlink">
<g id="graph0" class="graph" transform="scale(1 1) rotate(0) translate(4 78.5)">
<title>src/input/Ks0466VoltLadder.h</title>
<!-- Node1 -->
<g id="Node000001" class="node">
<title>Node1</title>
<g id="a_Node000001"><a xlink:title=" ">
<polygon fill="#999999" stroke="#666666" points="144.25,-74.5 0,-74.5 0,-55.25 144.25,-55.25 144.25,-74.5"/>
<text text-anchor="middle" x="72.12" y="-61" font-family="Helvetica,sans-Serif" font-size="10.00">src/input/Ks0466VoltLadder.h</text>
</a>
</g>
</g>
<!-- Node2 -->
<g id="Node000002" class="node">
<title>Node2</title>
<g id="a_Node000002"><a xlink:title=" ">
<polygon fill="#e0e0e0" stroke="#999999" points="60.88,-19.25 13.38,-19.25 13.38,0 60.88,0 60.88,-19.25"/>
<text text-anchor="middle" x="37.12" y="-5.75" font-family="Helvetica,sans-Serif" font-size="10.00">stdint.h</text>
</a>
</g>
</g>
<!-- Node1&#45;&gt;Node2 -->
<g id="edge1_Node000001_Node000002" class="edge">
<title>Node1&#45;&gt;Node2</title>
<g id="a_edge1_Node000001_Node000002"><a xlink:title=" ">
<path fill="none" stroke="#63b8ff" d="M66.35,-55.08C61.71,-48.03 55.05,-37.9 49.26,-29.08"/>
<polygon fill="#63b8ff" stroke="#63b8ff" points="52.28,-27.31 43.86,-20.87 46.43,-31.15 52.28,-27.31"/>
</a>
</g>
</g>
<!-- Node3 -->
<g id="Node000003" class="node">
<title>Node3</title>
<g id="a_Node000003"><a xlink:href="Buttons_8h.html" target="_top" xlink:title=" ">
<polygon fill="white" stroke="#666666" points="135.75,-19.25 78.5,-19.25 78.5,0 135.75,0 135.75,-19.25"/>
<text text-anchor="middle" x="107.12" y="-5.75" font-family="Helvetica,sans-Serif" font-size="10.00">Buttons.h</text>
</a>
</g>
</g>
<!-- Node1&#45;&gt;Node3 -->
<g id="edge2_Node000001_Node000003" class="edge">
<title>Node1&#45;&gt;Node3</title>
<g id="a_edge2_Node000001_Node000003"><a xlink:title=" ">
<path fill="none" stroke="#63b8ff" d="M77.9,-55.08C82.54,-48.03 89.2,-37.9 94.99,-29.08"/>
<polygon fill="#63b8ff" stroke="#63b8ff" points="97.82,-31.15 100.39,-20.87 91.97,-27.31 97.82,-31.15"/>
</a>
</g>
</g>
</g>
</svg>
