<?xml version="1.0" encoding="UTF-8" standalone="no"?>
<!DOCTYPE svg PUBLIC "-//W3C//DTD SVG 1.1//EN"
 "http://www.w3.org/Graphics/SVG/1.1/DTD/svg11.dtd">
<!-- Generated by graphviz version 12.0.0 (20240704.0754)
 -->
<!-- Title: src/main.cpp Pages: 1 -->
<svg width="1032pt" height="359pt"
 viewBox="0.00 0.00 1032.38 358.75" xmlns="http://www.w3.org/2000/svg" xmlns:xlink="http://www.w3.org/1999/xlink">
<g id="graph0" class="graph" transform="scale(1 1) rotate(0) translate(4 354.75)">
<title>src/main.cpp</title>
<!-- Node1 -->
<g id="Node000001" class="node">
<title>Node1</title>
<g id="a_Node000001"><a xlink:title=" ">
<polygon fill="#999999" stroke="#666666" points="374.12,-350.75 302.62,-350.75 302.62,-331.5 374.12,-331.5 374.12,-350.75"/>
<text text-anchor="middle" x="338.38" y="-337.25" font-family="Helvetica,sans-Serif" font-size="10.00">src/main.cpp</text>
</a>
</g>
</g>
<!-- Node2 -->
<g id="Node000002" class="node">
<title>Node2</title>
<g id="a_Node000002"><a xlink:title=" ">
<polygon fill="#e0e0e0" stroke="#999999" points="122.62,-295.5 66.12,-295.5 66.12,-276.25 122.62,-276.25 122.62,-295.5"/>
<text text-anchor="middle" x="94.38" y="-282" font-family="Helvetica,sans-Serif" font-size="10.00">Arduino.h</text>
</a>
</g>
</g>
<!-- Node1&#45;&gt;Node2 -->
<g id="edge1_Node000001_Node000002" class="edge">
<title>Node1&#45;&gt;Node2</title>
<g id="a_edge1_Node000001_Node000002"><a xlink:title=" ">
<path fill="none" stroke="#63b8ff" d="M302.37,-332.27C257.4,-322.45 180.71,-305.72 134.07,-295.54"/>
<polygon fill="#63b8ff" stroke="#63b8ff" points="134.9,-292.14 124.38,-293.42 133.4,-298.98 134.9,-292.14"/>
</a>
</g>
</g>
<!-- Node3 -->
<g id="Node000003" class="node">
<title>Node3</title>
<g id="a_Node000003"><a xlink:href="aliases_8h.html" target="_top" xlink:title=" ">
<polygon fill="white" stroke="#666666" points="458.5,-129.75 404.25,-129.75 404.25,-110.5 458.5,-110.5 458.5,-129.75"/>
<text text-anchor="middle" x="431.38" y="-116.25" font-family="Helvetica,sans-Serif" font-size="10.00">aliases.h</text>
</a>
</g>
</g>
<!-- Node1&#45;&gt;Node3 -->
<g id="edge2_Node000001_Node000003" class="edge">
<title>Node1&#45;&gt;Node3</title>
<g id="a_edge2_Node000001_Node000003"><a xlink:title=" ">
<path fill="none" stroke="#63b8ff" d="M338.37,-331.06C338.68,-310.6 341.14,-259.61 357.38,-221 370.97,-188.66 397.13,-157.13 414.42,-138.41"/>
<polygon fill="#63b8ff" stroke="#63b8ff" points="416.94,-140.84 421.28,-131.18 411.86,-136.03 416.94,-140.84"/>
</a>
</g>
</g>
<!-- Node4 -->
<g id="Node000004" class="node">
<title>Node4</title>
<g id="a_Node000004"><a xlink:href="EEPROMConfig_8h.html" target="_top" xlink:title=" ">
<polygon fill="white" stroke="#666666" points="532.25,-74.5 440.5,-74.5 440.5,-55.25 532.25,-55.25 532.25,-74.5"/>
<text text-anchor="middle" x="486.38" y="-61" font-family="Helvetica,sans-Serif" font-size="10.00">EEPROMConfig.h</text>
</a>
</g>
</g>
<!-- Node1&#45;&gt;Node4 -->
<g id="edge3_Node000001_Node000004" class="edge">
<title>Node1&#45;&gt;Node4</title>
<g id="a_edge3_Node000001_Node000004"><a xlink:title=" ">
<path fill="none" stroke="#63b8ff" d="M337.2,-331.22C333.26,-297.47 324.02,-175.96 384.38,-110.5 398.06,-95.66 417.55,-85.5 435.83,-78.68"/>
<polygon fill="#63b8ff" stroke="#63b8ff" points="436.95,-81.99 445.27,-75.43 434.67,-75.37 436.95,-81.99"/>
</a>
</g>
</g>
<!-- Node5 -->
<g id="Node000005" class="node">
<title>Node5</title>
<g id="a_Node000005"><a xlink:href="SerialLogger_8h.html" target="_top" xlink:title=" ">
<polygon fill="white" stroke="#666666" points="624.5,-295.5 546.25,-295.5 546.25,-276.25 624.5,-276.25 624.5,-295.5"/>
<text text-anchor="middle" x="585.38" y="-282" font-family="Helvetica,sans-Serif" font-size="10.00">SerialLogger.h</text>
</a>
</g>
</g>
<!-- Node1&#45;&gt;Node5 -->
<g id="edge4_Node000001_Node000005" class="edge">
<title>Node1&#45;&gt;Node5</title>
<g id="a_edge4_Node000001_Node000005"><a xlink:title=" ">
<path fill="none" stroke="#63b8ff" d="M374.56,-332.32C416.86,-323.21 487.14,-308.05 534.82,-297.77"/>
<polygon fill="#63b8ff" stroke="#63b8ff" points="535.31,-301.25 544.35,-295.72 533.83,-294.41 535.31,-301.25"/>
</a>
</g>
</g>
<!-- Node20 -->
<g id="Node000020" class="node">
<title>Node20</title>
<g id="a_Node000020"><a xlink:href="ThermistorReader_8h.html" target="_top" xlink:title=" ">
<polygon fill="white" stroke="#666666" points="883.88,-240.25 750.88,-240.25 750.88,-221 883.88,-221 883.88,-240.25"/>
<text text-anchor="middle" x="817.38" y="-226.75" font-family="Helvetica,sans-Serif" font-size="10.00">sensor/ThermistorReader.h</text>
</a>
</g>
</g>
<!-- Node1&#45;&gt;Node20 -->
<g id="edge42_Node000001_Node000020" class="edge">
<title>Node1&#45;&gt;Node20</title>
<g id="a_edge42_Node000001_Node000020"><a xlink:title=" ">
<path fill="none" stroke="#63b8ff" d="M374.21,-336.85C430.15,-331.27 541.35,-318.23 633.38,-295.5 687.67,-282.09 748.61,-259.35 784.95,-244.93"/>
<polygon fill="#63b8ff" stroke="#63b8ff" points="786.01,-248.27 793.99,-241.3 783.41,-241.77 786.01,-248.27"/>
</a>
</g>
</g>
<!-- Node21 -->
<g id="Node000021" class="node">
<title>Node21</title>
<g id="a_Node000021"><a xlink:href="ButtonReader_8h.html" target="_top" xlink:title=" ">
<polygon fill="white" stroke="#666666" points="106.75,-185 0,-185 0,-165.75 106.75,-165.75 106.75,-185"/>
<text text-anchor="middle" x="53.38" y="-171.5" font-family="Helvetica,sans-Serif" font-size="10.00">input/ButtonReader.h</text>
</a>
</g>
</g>
<!-- Node1&#45;&gt;Node21 -->
<g id="edge38_Node000001_Node000021" class="edge">
<title>Node1&#45;&gt;Node21</title>
<g id="a_edge38_Node000001_Node000021"><a xlink:title=" ">
<path fill="none" stroke="#63b8ff" d="M318.81,-331.04C300.4,-322.34 272.19,-308.65 248.38,-295.5 185.15,-260.6 113.25,-215.1 76.97,-191.72"/>
<polygon fill="#63b8ff" stroke="#63b8ff" points="78.88,-188.79 68.58,-186.3 75.08,-194.67 78.88,-188.79"/>
</a>
</g>
</g>
<!-- Node23 -->
<g id="Node000023" class="node">
<title>Node23</title>
<g id="a_Node000023"><a xlink:href="SetpointProfileRunner_8h.html" target="_top" xlink:title=" ">
<polygon fill="white" stroke="#666666" points="990,-295.5 872.75,-295.5 872.75,-276.25 990,-276.25 990,-295.5"/>
<text text-anchor="middle" x="931.38" y="-282" font-family="Helvetica,sans-Serif" font-size="10.00">SetpointProfileRunner.h</text>
</a>
</g>
</g>
<!-- Node1&#45;&gt;Node23 -->
<g id="edge43_Node000001_Node000023" class="edge">
<title>Node1&#45;&gt;Node23</title>
<g id="a_edge43_Node000001_Node000023"><a xlink:title=" ">
<path fill="none" stroke="#63b8ff" d="M374.58,-336.87C470.87,-328.23 734.6,-304.55 861.43,-293.16"/>
<polygon fill="#63b8ff" stroke="#63b8ff" points="861.38,-296.67 871.03,-292.29 860.75,-289.7 861.38,-296.67"/>
</a>
</g>
</g>
<!-- Node6 -->
<g id="Node000006" class="node">
<title>Node6</title>
<g id="a_Node000006"><a xlink:title=" ">
<polygon fill="#e0e0e0" stroke="#999999" points="689.12,-19.25 641.62,-19.25 641.62,0 689.12,0 689.12,-19.25"/>
<text text-anchor="middle" x="665.38" y="-5.75" font-family="Helvetica,sans-Serif" font-size="10.00">stdint.h</text>
</a>
</g>
</g>
<!-- Node5&#45;&gt;Node6 -->
<g id="edge5_Node000005_Node000006" class="edge">
<title>Node5&#45;&gt;Node6</title>
<g id="a_edge5_Node000005_Node000006"><a xlink:title=" ">
<path fill="none" stroke="#63b8ff" d="M602.04,-275.84C618.3,-266.97 643.69,-252.95 665.38,-240.25 675.5,-234.32 746.68,-192.87 755.38,-185 778.24,-164.3 787.53,-158.98 797.38,-129.75 808.44,-96.91 798.95,-79.68 774.38,-55.25 754.31,-35.3 724.1,-23.88 700.56,-17.6"/>
<polygon fill="#63b8ff" stroke="#63b8ff" points="701.64,-14.26 691.09,-15.27 699.97,-21.06 701.64,-14.26"/>
</a>
</g>
</g>
<!-- Node7 -->
<g id="Node000007" class="node">
<title>Node7</title>
<g id="a_Node000007"><a xlink:title=" ">
<polygon fill="#e0e0e0" stroke="#999999" points="882.38,-185 824.38,-185 824.38,-165.75 882.38,-165.75 882.38,-185"/>
<text text-anchor="middle" x="853.38" y="-171.5" font-family="Helvetica,sans-Serif" font-size="10.00">etl/span.h</text>
</a>
</g>
</g>
<!-- Node5&#45;&gt;Node7 -->
<g id="edge6_Node000005_Node000007" class="edge">
<title>Node5&#45;&gt;Node7</title>
<g id="a_edge6_Node000005_Node000007"><a xlink:title=" ">
<path fill="none" stroke="#63b8ff" d="M608.85,-275.89C631.77,-267.05 667.61,-253.05 698.38,-240.25 718.08,-232.05 722.69,-229.26 742.38,-221 768.26,-210.14 797.76,-198.3 819.83,-189.56"/>
<polygon fill="#63b8ff" stroke="#63b8ff" points="820.91,-192.89 828.93,-185.96 818.34,-186.38 820.91,-192.89"/>
</a>
</g>
</g>
<!-- Node8 -->
<g id="Node000008" class="node">
<title>Node8</title>
<g id="a_Node000008"><a xlink:href="asprintf_8h.html" target="_top" xlink:title=" ">
<polygon fill="white" stroke="#666666" points="234.25,-240.25 178.5,-240.25 178.5,-221 234.25,-221 234.25,-240.25"/>
<text text-anchor="middle" x="206.38" y="-226.75" font-family="Helvetica,sans-Serif" font-size="10.00">asprintf.h</text>
</a>
</g>
</g>
<!-- Node5&#45;&gt;Node8 -->
<g id="edge7_Node000005_Node000008" class="edge">
<title>Node5&#45;&gt;Node8</title>
<g id="a_edge7_Node000005_Node000008"><a xlink:title=" ">
<path fill="none" stroke="#63b8ff" d="M545.89,-279.33C473.15,-269.11 318.8,-247.42 245.98,-237.19"/>
<polygon fill="#63b8ff" stroke="#63b8ff" points="246.49,-233.73 236.1,-235.8 245.52,-240.66 246.49,-233.73"/>
</a>
</g>
</g>
<!-- Node11 -->
<g id="Node000011" class="node">
<title>Node11</title>
<g id="a_Node000011"><a xlink:href="SingleHumidistat_8h.html" target="_top" xlink:title=" ">
<polygon fill="white" stroke="#666666" points="496.38,-240.25 366.38,-240.25 366.38,-221 496.38,-221 496.38,-240.25"/>
<text text-anchor="middle" x="431.38" y="-226.75" font-family="Helvetica,sans-Serif" font-size="10.00">control/SingleHumidistat.h</text>
</a>
</g>
</g>
<!-- Node5&#45;&gt;Node11 -->
<g id="edge10_Node000005_Node000011" class="edge">
<title>Node5&#45;&gt;Node11</title>
<g id="a_edge10_Node000005_Node000011"><a xlink:title=" ">
<path fill="none" stroke="#63b8ff" d="M559.25,-275.84C534.25,-267.2 496.3,-254.07 468.23,-244.37"/>
<polygon fill="#63b8ff" stroke="#63b8ff" points="469.65,-241.16 459.06,-241.2 467.36,-247.77 469.65,-241.16"/>
</a>
</g>
</g>
<!-- Node16 -->
<g id="Node000016" class="node">
<title>Node16</title>
<g id="a_Node000016"><a xlink:href="CascadeHumidistat_8h.html" target="_top" xlink:title=" ">
<polygon fill="white" stroke="#666666" points="656,-240.25 514.75,-240.25 514.75,-221 656,-221 656,-240.25"/>
<text text-anchor="middle" x="585.38" y="-226.75" font-family="Helvetica,sans-Serif" font-size="10.00">control/CascadeHumidistat.h</text>
</a>
</g>
</g>
<!-- Node5&#45;&gt;Node16 -->
<g id="edge23_Node000005_Node000016" class="edge">
<title>Node5&#45;&gt;Node16</title>
<g id="a_edge23_Node000005_Node000016"><a xlink:title=" ">
<path fill="none" stroke="#63b8ff" d="M585.38,-276.08C585.38,-269.57 585.38,-260.42 585.38,-252.12"/>
<polygon fill="#63b8ff" stroke="#63b8ff" points="588.88,-252.12 585.38,-242.12 581.88,-252.12 588.88,-252.12"/>
</a>
</g>
</g>
<!-- Node5&#45;&gt;Node20 -->
<g id="edge36_Node000005_Node000020" class="edge">
<title>Node5&#45;&gt;Node20</title>
<g id="a_edge36_Node000005_Node000020"><a xlink:title=" ">
<path fill="none" stroke="#63b8ff" d="M624.99,-275.78C664.2,-266.78 724.36,-252.98 766.95,-243.2"/>
<polygon fill="#63b8ff" stroke="#63b8ff" points="767.48,-246.67 776.44,-241.02 765.92,-239.85 767.48,-246.67"/>
</a>
</g>
</g>
<!-- Node9 -->
<g id="Node000009" class="node">
<title>Node9</title>
<g id="a_Node000009"><a xlink:title=" ">
<polygon fill="#e0e0e0" stroke="#999999" points="171.75,-185 125,-185 125,-165.75 171.75,-165.75 171.75,-185"/>
<text text-anchor="middle" x="148.38" y="-171.5" font-family="Helvetica,sans-Serif" font-size="10.00">stdlib.h</text>
</a>
</g>
</g>
<!-- Node8&#45;&gt;Node9 -->
<g id="edge8_Node000008_Node000009" class="edge">
<title>Node8&#45;&gt;Node9</title>
<g id="a_edge8_Node000008_Node000009"><a xlink:title=" ">
<path fill="none" stroke="#63b8ff" d="M196.54,-220.59C188.32,-213.05 176.39,-202.1 166.46,-192.98"/>
<polygon fill="#63b8ff" stroke="#63b8ff" points="168.92,-190.48 159.18,-186.3 164.18,-195.64 168.92,-190.48"/>
</a>
</g>
</g>
<!-- Node10 -->
<g id="Node000010" class="node">
<title>Node10</title>
<g id="a_Node000010"><a xlink:title=" ">
<polygon fill="#e0e0e0" stroke="#999999" points="234.62,-185 190.12,-185 190.12,-165.75 234.62,-165.75 234.62,-185"/>
<text text-anchor="middle" x="212.38" y="-171.5" font-family="Helvetica,sans-Serif" font-size="10.00">stdio.h</text>
</a>
</g>
</g>
<!-- Node8&#45;&gt;Node10 -->
<g id="edge9_Node000008_Node000010" class="edge">
<title>Node8&#45;&gt;Node10</title>
<g id="a_edge9_Node000008_Node000010"><a xlink:title=" ">
<path fill="none" stroke="#63b8ff" d="M207.37,-220.83C208.11,-214.24 209.15,-204.96 210.1,-196.57"/>
<polygon fill="#63b8ff" stroke="#63b8ff" points="213.55,-197.19 211.19,-186.86 206.6,-196.41 213.55,-197.19"/>
</a>
</g>
</g>
<!-- Node11&#45;&gt;Node3 -->
<g id="edge13_Node000011_Node000003" class="edge">
<title>Node11&#45;&gt;Node3</title>
<g id="a_edge13_Node000011_Node000003"><a xlink:title=" ">
<path fill="none" stroke="#63b8ff" d="M431.38,-220.75C431.38,-203.5 431.38,-165.08 431.38,-141.31"/>
<polygon fill="#63b8ff" stroke="#63b8ff" points="434.88,-141.64 431.38,-131.64 427.88,-141.64 434.88,-141.64"/>
</a>
</g>
</g>
<!-- Node11&#45;&gt;Node4 -->
<g id="edge22_Node000011_Node000004" class="edge">
<title>Node11&#45;&gt;Node4</title>
<g id="a_edge22_Node000011_Node000004"><a xlink:title=" ">
<path fill="none" stroke="#63b8ff" d="M423.92,-220.6C407.7,-199.77 372.4,-147.35 395.38,-110.5 404.61,-95.68 420.37,-85.64 436.2,-78.91"/>
<polygon fill="#63b8ff" stroke="#63b8ff" points="437.04,-82.33 445.13,-75.48 434.54,-75.8 437.04,-82.33"/>
</a>
</g>
</g>
<!-- Node11&#45;&gt;Node6 -->
<g id="edge11_Node000011_Node000006" class="edge">
<title>Node11&#45;&gt;Node6</title>
<g id="a_edge11_Node000011_Node000006"><a xlink:title=" ">
<path fill="none" stroke="#63b8ff" d="M418.74,-220.59C408.58,-212.53 394.95,-199.74 388.38,-185 363.63,-129.52 378.87,-85.81 431.38,-55.25 494.47,-18.52 581.83,-11.23 629.97,-10.24"/>
<polygon fill="#63b8ff" stroke="#63b8ff" points="629.86,-13.74 639.82,-10.13 629.78,-6.74 629.86,-13.74"/>
</a>
</g>
</g>
<!-- Node12 -->
<g id="Node000012" class="node">
<title>Node12</title>
<g id="a_Node000012"><a xlink:title=" ">
<polygon fill="#e0e0e0" stroke="#999999" points="500.38,-185 442.38,-185 442.38,-165.75 500.38,-165.75 500.38,-185"/>
<text text-anchor="middle" x="471.38" y="-171.5" font-family="Helvetica,sans-Serif" font-size="10.00">etl/array.h</text>
</a>
</g>
</g>
<!-- Node11&#45;&gt;Node12 -->
<g id="edge12_Node000011_Node000012" class="edge">
<title>Node11&#45;&gt;Node12</title>
<g id="a_edge12_Node000011_Node000012"><a xlink:title=" ">
<path fill="none" stroke="#63b8ff" d="M437.98,-220.83C443.33,-213.71 451.05,-203.43 457.72,-194.55"/>
<polygon fill="#63b8ff" stroke="#63b8ff" points="460.51,-196.67 463.72,-186.57 454.91,-192.46 460.51,-196.67"/>
</a>
</g>
</g>
<!-- Node13 -->
<g id="Node000013" class="node">
<title>Node13</title>
<g id="a_Node000013"><a xlink:href="Humidistat_8h.html" target="_top" xlink:title=" ">
<polygon fill="white" stroke="#666666" points="626.75,-185 556,-185 556,-165.75 626.75,-165.75 626.75,-185"/>
<text text-anchor="middle" x="591.38" y="-171.5" font-family="Helvetica,sans-Serif" font-size="10.00">Humidistat.h</text>
</a>
</g>
</g>
<!-- Node11&#45;&gt;Node13 -->
<g id="edge14_Node000011_Node000013" class="edge">
<title>Node11&#45;&gt;Node13</title>
<g id="a_edge14_Node000011_Node000013"><a xlink:title=" ">
<path fill="none" stroke="#63b8ff" d="M458.52,-220.59C484.61,-211.91 524.27,-198.71 553.47,-188.99"/>
<polygon fill="#63b8ff" stroke="#63b8ff" points="554.28,-192.41 562.66,-185.93 552.07,-185.77 554.28,-192.41"/>
</a>
</g>
</g>
<!-- Node13&#45;&gt;Node3 -->
<g id="edge15_Node000013_Node000003" class="edge">
<title>Node13&#45;&gt;Node3</title>
<g id="a_edge15_Node000013_Node000003"><a xlink:title=" ">
<path fill="none" stroke="#63b8ff" d="M564.23,-165.34C538.14,-156.66 498.48,-143.46 469.28,-133.74"/>
<polygon fill="#63b8ff" stroke="#63b8ff" points="470.68,-130.52 460.09,-130.68 468.47,-137.16 470.68,-130.52"/>
</a>
</g>
</g>
<!-- Node13&#45;&gt;Node4 -->
<g id="edge21_Node000013_Node000004" class="edge">
<title>Node13&#45;&gt;Node4</title>
<g id="a_edge21_Node000013_Node000004"><a xlink:title=" ">
<path fill="none" stroke="#63b8ff" d="M564.85,-165.35C547.28,-158.16 524.87,-146.5 510.38,-129.75 499.57,-117.27 493.42,-99.45 490.06,-85.8"/>
<polygon fill="#63b8ff" stroke="#63b8ff" points="493.52,-85.25 488.01,-76.19 486.67,-86.7 493.52,-85.25"/>
</a>
</g>
</g>
<!-- Node14 -->
<g id="Node000014" class="node">
<title>Node14</title>
<g id="a_Node000014"><a xlink:href="Controller_8h.html" target="_top" xlink:title=" ">
<polygon fill="white" stroke="#666666" points="616.75,-129.75 552,-129.75 552,-110.5 616.75,-110.5 616.75,-129.75"/>
<text text-anchor="middle" x="584.38" y="-116.25" font-family="Helvetica,sans-Serif" font-size="10.00">Controller.h</text>
</a>
</g>
</g>
<!-- Node13&#45;&gt;Node14 -->
<g id="edge16_Node000013_Node000014" class="edge">
<title>Node13&#45;&gt;Node14</title>
<g id="a_edge16_Node000013_Node000014"><a xlink:title=" ">
<path fill="none" stroke="#63b8ff" d="M590.22,-165.58C589.35,-158.99 588.13,-149.71 587.03,-141.32"/>
<polygon fill="#63b8ff" stroke="#63b8ff" points="590.53,-141.07 585.75,-131.61 583.59,-141.98 590.53,-141.07"/>
</a>
</g>
</g>
<!-- Node14&#45;&gt;Node4 -->
<g id="edge20_Node000014_Node000004" class="edge">
<title>Node14&#45;&gt;Node4</title>
<g id="a_edge20_Node000014_Node000004"><a xlink:title=" ">
<path fill="none" stroke="#63b8ff" d="M567.75,-110.09C552.69,-101.91 530.23,-89.71 512.72,-80.19"/>
<polygon fill="#63b8ff" stroke="#63b8ff" points="514.87,-77.37 504.41,-75.68 511.53,-83.52 514.87,-77.37"/>
</a>
</g>
</g>
<!-- Node14&#45;&gt;Node6 -->
<g id="edge17_Node000014_Node000006" class="edge">
<title>Node14&#45;&gt;Node6</title>
<g id="a_edge17_Node000014_Node000006"><a xlink:title=" ">
<path fill="none" stroke="#63b8ff" d="M586.86,-110.19C590.78,-97.19 599.32,-72.7 612.38,-55.25 620.67,-44.15 632.23,-34.01 642.44,-26.2"/>
<polygon fill="#63b8ff" stroke="#63b8ff" points="644.42,-29.09 650.44,-20.38 640.3,-23.44 644.42,-29.09"/>
</a>
</g>
</g>
<!-- Node15 -->
<g id="Node000015" class="node">
<title>Node15</title>
<g id="a_Node000015"><a xlink:href="PID_8h.html" target="_top" xlink:title=" ">
<polygon fill="white" stroke="#666666" points="661.38,-74.5 621.38,-74.5 621.38,-55.25 661.38,-55.25 661.38,-74.5"/>
<text text-anchor="middle" x="641.38" y="-61" font-family="Helvetica,sans-Serif" font-size="10.00">PID.h</text>
</a>
</g>
</g>
<!-- Node14&#45;&gt;Node15 -->
<g id="edge18_Node000014_Node000015" class="edge">
<title>Node14&#45;&gt;Node15</title>
<g id="a_edge18_Node000014_Node000015"><a xlink:title=" ">
<path fill="none" stroke="#63b8ff" d="M594.04,-110.09C602.12,-102.55 613.84,-91.6 623.6,-82.48"/>
<polygon fill="#63b8ff" stroke="#63b8ff" points="625.82,-85.19 630.74,-75.81 621.05,-80.08 625.82,-85.19"/>
</a>
</g>
</g>
<!-- Node15&#45;&gt;Node6 -->
<g id="edge19_Node000015_Node000006" class="edge">
<title>Node15&#45;&gt;Node6</title>
<g id="a_edge19_Node000015_Node000006"><a xlink:title=" ">
<path fill="none" stroke="#63b8ff" d="M645.34,-55.08C648.41,-48.26 652.79,-38.56 656.66,-29.95"/>
<polygon fill="#63b8ff" stroke="#63b8ff" points="659.79,-31.54 660.7,-20.99 653.4,-28.67 659.79,-31.54"/>
</a>
</g>
</g>
<!-- Node16&#45;&gt;Node3 -->
<g id="edge26_Node000016_Node000003" class="edge">
<title>Node16&#45;&gt;Node3</title>
<g id="a_edge26_Node000016_Node000003"><a xlink:title=" ">
<path fill="none" stroke="#63b8ff" d="M575.98,-220.77C562.05,-207.87 534.82,-183.5 509.38,-165.75 493.37,-154.58 474.37,-143.67 459.14,-135.43"/>
<polygon fill="#63b8ff" stroke="#63b8ff" points="461.08,-132.5 450.61,-130.89 457.79,-138.68 461.08,-132.5"/>
</a>
</g>
</g>
<!-- Node16&#45;&gt;Node7 -->
<g id="edge24_Node000016_Node000007" class="edge">
<title>Node16&#45;&gt;Node7</title>
<g id="a_edge24_Node000016_Node000007"><a xlink:title=" ">
<path fill="none" stroke="#63b8ff" d="M631.14,-220.53C682.21,-210.38 764.07,-194.12 812.89,-184.42"/>
<polygon fill="#63b8ff" stroke="#63b8ff" points="813.35,-187.9 822.48,-182.51 811.99,-181.03 813.35,-187.9"/>
</a>
</g>
</g>
<!-- Node16&#45;&gt;Node12 -->
<g id="edge25_Node000016_Node000012" class="edge">
<title>Node16&#45;&gt;Node12</title>
<g id="a_edge25_Node000016_Node000012"><a xlink:title=" ">
<path fill="none" stroke="#63b8ff" d="M566.04,-220.59C548.27,-212.29 521.66,-199.86 501.17,-190.29"/>
<polygon fill="#63b8ff" stroke="#63b8ff" points="502.72,-187.15 492.18,-186.09 499.76,-193.5 502.72,-187.15"/>
</a>
</g>
</g>
<!-- Node16&#45;&gt;Node13 -->
<g id="edge27_Node000016_Node000013" class="edge">
<title>Node16&#45;&gt;Node13</title>
<g id="a_edge27_Node000016_Node000013"><a xlink:title=" ">
<path fill="none" stroke="#63b8ff" d="M586.37,-220.83C587.11,-214.24 588.15,-204.96 589.1,-196.57"/>
<polygon fill="#63b8ff" stroke="#63b8ff" points="592.55,-197.19 590.19,-186.86 585.6,-196.41 592.55,-197.19"/>
</a>
</g>
</g>
<!-- Node17 -->
<g id="Node000017" class="node">
<title>Node17</title>
<g id="a_Node000017"><a xlink:href="FlowSensor_8h.html" target="_top" xlink:title=" ">
<polygon fill="white" stroke="#666666" points="787.88,-129.75 672.88,-129.75 672.88,-110.5 787.88,-110.5 787.88,-129.75"/>
<text text-anchor="middle" x="730.38" y="-116.25" font-family="Helvetica,sans-Serif" font-size="10.00">../sensor/FlowSensor.h</text>
</a>
</g>
</g>
<!-- Node16&#45;&gt;Node17 -->
<g id="edge28_Node000016_Node000017" class="edge">
<title>Node16&#45;&gt;Node17</title>
<g id="a_edge28_Node000016_Node000017"><a xlink:title=" ">
<path fill="none" stroke="#63b8ff" d="M641.91,-220.52C680.77,-212.97 727.42,-200.91 739.38,-185 748.94,-172.27 745.1,-153.98 739.8,-140.23"/>
<polygon fill="#63b8ff" stroke="#63b8ff" points="743.12,-139.08 735.88,-131.35 736.72,-141.91 743.12,-139.08"/>
</a>
</g>
</g>
<!-- Node19 -->
<g id="Node000019" class="node">
<title>Node19</title>
<g id="a_Node000019"><a xlink:href="FlowController_8h.html" target="_top" xlink:title=" ">
<polygon fill="white" stroke="#666666" points="730.25,-185 644.5,-185 644.5,-165.75 730.25,-165.75 730.25,-185"/>
<text text-anchor="middle" x="687.38" y="-171.5" font-family="Helvetica,sans-Serif" font-size="10.00">FlowController.h</text>
</a>
</g>
</g>
<!-- Node16&#45;&gt;Node19 -->
<g id="edge31_Node000016_Node000019" class="edge">
<title>Node16&#45;&gt;Node19</title>
<g id="a_edge31_Node000016_Node000019"><a xlink:title=" ">
<path fill="none" stroke="#63b8ff" d="M602.68,-220.59C618.36,-212.41 641.73,-200.21 659.95,-190.69"/>
<polygon fill="#63b8ff" stroke="#63b8ff" points="661.4,-193.88 668.65,-186.15 658.16,-187.68 661.4,-193.88"/>
</a>
</g>
</g>
<!-- Node17&#45;&gt;Node6 -->
<g id="edge29_Node000017_Node000006" class="edge">
<title>Node17&#45;&gt;Node6</title>
<g id="a_edge29_Node000017_Node000006"><a xlink:title=" ">
<path fill="none" stroke="#63b8ff" d="M725.06,-110.25C714.49,-92.6 690.64,-52.8 676.5,-29.2"/>
<polygon fill="#63b8ff" stroke="#63b8ff" points="679.69,-27.7 671.55,-20.93 673.68,-31.3 679.69,-27.7"/>
</a>
</g>
</g>
<!-- Node18 -->
<g id="Node000018" class="node">
<title>Node18</title>
<g id="a_Node000018"><a xlink:href="imath_8h.html" target="_top" xlink:title=" ">
<polygon fill="white" stroke="#666666" points="765.12,-74.5 717.62,-74.5 717.62,-55.25 765.12,-55.25 765.12,-74.5"/>
<text text-anchor="middle" x="741.38" y="-61" font-family="Helvetica,sans-Serif" font-size="10.00">imath.h</text>
</a>
</g>
</g>
<!-- Node17&#45;&gt;Node18 -->
<g id="edge30_Node000017_Node000018" class="edge">
<title>Node17&#45;&gt;Node18</title>
<g id="a_edge30_Node000017_Node000018"><a xlink:title=" ">
<path fill="none" stroke="#63b8ff" d="M732.19,-110.33C733.55,-103.74 735.47,-94.46 737.2,-86.07"/>
<polygon fill="#63b8ff" stroke="#63b8ff" points="740.62,-86.84 739.21,-76.34 733.76,-85.43 740.62,-86.84"/>
</a>
</g>
</g>
<!-- Node19&#45;&gt;Node4 -->
<g id="edge35_Node000019_Node000004" class="edge">
<title>Node19&#45;&gt;Node4</title>
<g id="a_edge35_Node000019_Node000004"><a xlink:title=" ">
<path fill="none" stroke="#63b8ff" d="M644.13,-167.33C614.09,-160.97 574.09,-149.49 543.38,-129.75 524.86,-117.85 508.7,-98.35 498.36,-84.02"/>
<polygon fill="#63b8ff" stroke="#63b8ff" points="501.33,-82.16 492.77,-75.93 495.57,-86.14 501.33,-82.16"/>
</a>
</g>
</g>
<!-- Node19&#45;&gt;Node14 -->
<g id="edge32_Node000019_Node000014" class="edge">
<title>Node19&#45;&gt;Node14</title>
<g id="a_edge32_Node000019_Node000014"><a xlink:title=" ">
<path fill="none" stroke="#63b8ff" d="M669.9,-165.34C654.07,-157.16 630.47,-144.96 612.07,-135.44"/>
<polygon fill="#63b8ff" stroke="#63b8ff" points="613.77,-132.38 603.28,-130.9 610.55,-138.6 613.77,-132.38"/>
</a>
</g>
</g>
<!-- Node19&#45;&gt;Node15 -->
<g id="edge33_Node000019_Node000015" class="edge">
<title>Node19&#45;&gt;Node15</title>
<g id="a_edge33_Node000019_Node000015"><a xlink:title=" ">
<path fill="none" stroke="#63b8ff" d="M682.26,-165.31C677.35,-156.42 669.87,-142.38 664.38,-129.75 658.03,-115.17 651.98,-98.22 647.68,-85.45"/>
<polygon fill="#63b8ff" stroke="#63b8ff" points="651.07,-84.54 644.62,-76.13 644.42,-86.72 651.07,-84.54"/>
</a>
</g>
</g>
<!-- Node19&#45;&gt;Node17 -->
<g id="edge34_Node000019_Node000017" class="edge">
<title>Node19&#45;&gt;Node17</title>
<g id="a_edge34_Node000019_Node000017"><a xlink:title=" ">
<path fill="none" stroke="#63b8ff" d="M694.48,-165.58C700.29,-158.38 708.71,-147.96 715.93,-139.01"/>
<polygon fill="#63b8ff" stroke="#63b8ff" points="718.61,-141.27 722.17,-131.29 713.16,-136.87 718.61,-141.27"/>
</a>
</g>
</g>
<!-- Node20&#45;&gt;Node6 -->
<g id="edge37_Node000020_Node000006" class="edge">
<title>Node20&#45;&gt;Node6</title>
<g id="a_edge37_Node000020_Node000006"><a xlink:title=" ">
<path fill="none" stroke="#63b8ff" d="M845.41,-220.65C861.97,-213.74 881.56,-202.37 891.38,-185 918.13,-137.62 920.36,-125.85 830.38,-55.25 792.72,-25.71 737.03,-15.68 700.97,-12.3"/>
<polygon fill="#63b8ff" stroke="#63b8ff" points="701.3,-8.81 691.05,-11.51 700.74,-15.79 701.3,-8.81"/>
</a>
</g>
</g>
<!-- Node21&#45;&gt;Node3 -->
<g id="edge40_Node000021_Node000003" class="edge">
<title>Node21&#45;&gt;Node3</title>
<g id="a_edge40_Node000021_Node000003"><a xlink:title=" ">
<path fill="none" stroke="#63b8ff" d="M107.13,-166.8C184.4,-155.92 324.99,-136.11 392.78,-126.56"/>
<polygon fill="#63b8ff" stroke="#63b8ff" points="392.88,-130.08 402.29,-125.22 391.9,-123.15 392.88,-130.08"/>
</a>
</g>
</g>
<!-- Node21&#45;&gt;Node6 -->
<g id="edge39_Node000021_Node000006" class="edge">
<title>Node21&#45;&gt;Node6</title>
<g id="a_edge39_Node000021_Node000006"><a xlink:title=" ">
<path fill="none" stroke="#63b8ff" d="M53.4,-165.57C53.94,-151.81 57.05,-125.28 72.38,-110.5 152.95,-32.81 514.53,-15.2 629.89,-11.53"/>
<polygon fill="#63b8ff" stroke="#63b8ff" points="629.78,-15.03 639.68,-11.23 629.57,-8.03 629.78,-15.03"/>
</a>
</g>
</g>
<!-- Node22 -->
<g id="Node000022" class="node">
<title>Node22</title>
<g id="a_Node000022"><a xlink:href="Buttons_8h.html" target="_top" xlink:title=" ">
<polygon fill="white" stroke="#666666" points="139,-129.75 81.75,-129.75 81.75,-110.5 139,-110.5 139,-129.75"/>
<text text-anchor="middle" x="110.38" y="-116.25" font-family="Helvetica,sans-Serif" font-size="10.00">Buttons.h</text>
</a>
</g>
</g>
<!-- Node21&#45;&gt;Node22 -->
<g id="edge41_Node000021_Node000022" class="edge">
<title>Node21&#45;&gt;Node22</title>
<g id="a_edge41_Node000021_Node000022"><a xlink:title=" ">
<path fill="none" stroke="#63b8ff" d="M63.04,-165.34C71.12,-157.8 82.84,-146.85 92.6,-137.73"/>
<polygon fill="#63b8ff" stroke="#63b8ff" points="94.82,-140.44 99.74,-131.06 90.05,-135.33 94.82,-140.44"/>
</a>
</g>
</g>
<!-- Node23&#45;&gt;Node7 -->
<g id="edge44_Node000023_Node000007" class="edge">
<title>Node23&#45;&gt;Node7</title>
<g id="a_edge44_Node000023_Node000007"><a xlink:title=" ">
<path fill="none" stroke="#63b8ff" d="M933.08,-275.84C935.06,-262.71 936.84,-238.07 926.38,-221 918.02,-207.38 903.8,-197.32 890.11,-190.25"/>
<polygon fill="#63b8ff" stroke="#63b8ff" points="891.76,-187.15 881.23,-186.05 888.77,-193.48 891.76,-187.15"/>
</a>
</g>
</g>
<!-- Node23&#45;&gt;Node13 -->
<g id="edge48_Node000023_Node000013" class="edge">
<title>Node23&#45;&gt;Node13</title>
<g id="a_edge48_Node000023_Node000013"><a xlink:title=" ">
<path fill="none" stroke="#63b8ff" d="M928.89,-276.14C924.37,-261.98 913.37,-234.28 893.38,-221 799.95,-158.94 752.57,-201.3 638.17,-185.25"/>
<polygon fill="#63b8ff" stroke="#63b8ff" points="638.8,-181.81 628.38,-183.74 637.73,-188.72 638.8,-181.81"/>
</a>
</g>
</g>
<!-- Node24 -->
<g id="Node000024" class="node">
<title>Node24</title>
<g id="a_Node000024"><a xlink:href="Point_8h.html" target="_top" xlink:title=" ">
<polygon fill="white" stroke="#666666" points="1024.38,-240.25 978.38,-240.25 978.38,-221 1024.38,-221 1024.38,-240.25"/>
<text text-anchor="middle" x="1001.38" y="-226.75" font-family="Helvetica,sans-Serif" font-size="10.00">Point.h</text>
</a>
</g>
</g>
<!-- Node23&#45;&gt;Node24 -->
<g id="edge45_Node000023_Node000024" class="edge">
<title>Node23&#45;&gt;Node24</title>
<g id="a_edge45_Node000023_Node000024"><a xlink:title=" ">
<path fill="none" stroke="#63b8ff" d="M943.25,-275.84C953.47,-268.07 968.45,-256.67 980.64,-247.4"/>
<polygon fill="#63b8ff" stroke="#63b8ff" points="982.63,-250.28 988.47,-241.44 978.39,-244.71 982.63,-250.28"/>
</a>
</g>
</g>
<!-- Node24&#45;&gt;Node6 -->
<g id="edge46_Node000024_Node000006" class="edge">
<title>Node24&#45;&gt;Node6</title>
<g id="a_edge46_Node000024_Node000006"><a xlink:title=" ">
<path fill="none" stroke="#63b8ff" d="M997.03,-220.76C982.04,-191.23 929.23,-95.8 854.38,-55.25 805.21,-28.62 740.43,-17.76 700.89,-13.42"/>
<polygon fill="#63b8ff" stroke="#63b8ff" points="701.29,-9.94 690.99,-12.42 700.59,-16.91 701.29,-9.94"/>
</a>
</g>
</g>
<!-- Node24&#45;&gt;Node7 -->
<g id="edge47_Node000024_Node000007" class="edge">
<title>Node24&#45;&gt;Node7</title>
<g id="a_edge47_Node000024_Node000007"><a xlink:title=" ">
<path fill="none" stroke="#63b8ff" d="M977.92,-221.19C954.14,-212.63 917.01,-199.27 889.47,-189.36"/>
<polygon fill="#63b8ff" stroke="#63b8ff" points="890.72,-186.09 880.12,-186 888.35,-192.68 890.72,-186.09"/>
</a>
</g>
</g>
</g>
</svg>
