<?xml version="1.0" encoding="UTF-8" standalone="no"?>
<!DOCTYPE svg PUBLIC "-//W3C//DTD SVG 1.1//EN"
 "http://www.w3.org/Graphics/SVG/1.1/DTD/svg11.dtd">
<!-- Generated by graphviz version 12.0.0 (20240704.0754)
 -->
<!-- Title: loop Pages: 1 -->
<svg width="189pt" height="64pt"
 viewBox="0.00 0.00 189.25 64.25" xmlns="http://www.w3.org/2000/svg" xmlns:xlink="http://www.w3.org/1999/xlink">
<g id="graph0" class="graph" transform="scale(1 1) rotate(0) translate(4 60.25)">
<title>loop</title>
<!-- Node1 -->
<g id="Node000001" class="node">
<title>Node1</title>
<g id="a_Node000001"><a xlink:title=" ">
<polygon fill="#999999" stroke="#666666" points="34,-37.25 0,-37.25 0,-18 34,-18 34,-37.25"/>
<text text-anchor="middle" x="17" y="-23.75" font-family="Helvetica,sans-Serif" font-size="10.00">loop</text>
</a>
</g>
</g>
<!-- Node2 -->
<g id="Node000002" class="node">
<title>Node2</title>
<g id="a_Node000002"><a xlink:href="main_8cpp.html#ac663fd9e4235267a3acfb6529a11c50b" target="_top" xlink:title=" ">
<polygon fill="white" stroke="#666666" points="162.5,-56.25 88.75,-56.25 88.75,-37 162.5,-37 162.5,-56.25"/>
<text text-anchor="middle" x="125.62" y="-42.75" font-family="Helvetica,sans-Serif" font-size="10.00">buttonReader</text>
</a>
</g>
</g>
<!-- Node1&#45;&gt;Node2 -->
<g id="edge1_Node000001_Node000002" class="edge">
<title>Node1&#45;&gt;Node2</title>
<g id="a_edge1_Node000001_Node000002"><a xlink:title=" ">
<path fill="none" stroke="#63b8ff" d="M34.19,-30.51C45.73,-32.57 61.86,-35.44 77.31,-38.19"/>
<polygon fill="#63b8ff" stroke="#63b8ff" points="76.42,-41.59 86.88,-39.9 77.65,-34.7 76.42,-41.59"/>
</a>
</g>
</g>
<!-- Node3 -->
<g id="Node000003" class="node">
<title>Node3</title>
<g id="a_Node000003"><a xlink:href="classButtonReader.html#ab1b6d6805373ba677510075fa2aaf013" target="_top" xlink:title="Sample the button signal. Call this in the main loop.">
<polygon fill="white" stroke="#666666" points="181.25,-19.25 70,-19.25 70,0 181.25,0 181.25,-19.25"/>
<text text-anchor="middle" x="125.62" y="-5.75" font-family="Helvetica,sans-Serif" font-size="10.00">ButtonReader::sample</text>
</a>
</g>
</g>
<!-- Node1&#45;&gt;Node3 -->
<g id="edge2_Node000001_Node000003" class="edge">
<title>Node1&#45;&gt;Node3</title>
<g id="a_edge2_Node000001_Node000003"><a xlink:title=" ">
<path fill="none" stroke="#63b8ff" d="M34.19,-24.89C41.07,-23.73 49.58,-22.29 58.61,-20.77"/>
<polygon fill="#63b8ff" stroke="#63b8ff" points="59.03,-24.25 68.3,-19.13 57.86,-17.35 59.03,-24.25"/>
</a>
</g>
</g>
</g>
</svg>
