<?xml version="1.0" encoding="UTF-8" standalone="no"?>
<!DOCTYPE svg PUBLIC "-//W3C//DTD SVG 1.1//EN"
 "http://www.w3.org/Graphics/SVG/1.1/DTD/svg11.dtd">
<!-- Generated by graphviz version 12.0.0 (20240704.0754)
 -->
<!-- Title: src/control/PID.cpp Pages: 1 -->
<svg width="107pt" height="138pt"
 viewBox="0.00 0.00 107.25 137.75" xmlns="http://www.w3.org/2000/svg" xmlns:xlink="http://www.w3.org/1999/xlink">
<g id="graph0" class="graph" transform="scale(1 1) rotate(0) translate(4 133.75)">
<title>src/control/PID.cpp</title>
<!-- Node1 -->
<g id="Node000001" class="node">
<title>Node1</title>
<g id="a_Node000001"><a xlink:title=" ">
<polygon fill="#999999" stroke="#666666" points="99.25,-129.75 0,-129.75 0,-110.5 99.25,-110.5 99.25,-129.75"/>
<text text-anchor="middle" x="49.62" y="-116.25" font-family="Helvetica,sans-Serif" font-size="10.00">src/control/PID.cpp</text>
</a>
</g>
</g>
<!-- Node2 -->
<g id="Node000002" class="node">
<title>Node2</title>
<g id="a_Node000002"><a xlink:href="PID_8h.html" target="_top" xlink:title=" ">
<polygon fill="white" stroke="#666666" points="69.62,-74.5 29.62,-74.5 29.62,-55.25 69.62,-55.25 69.62,-74.5"/>
<text text-anchor="middle" x="49.62" y="-61" font-family="Helvetica,sans-Serif" font-size="10.00">PID.h</text>
</a>
</g>
</g>
<!-- Node1&#45;&gt;Node2 -->
<g id="edge1_Node000001_Node000002" class="edge">
<title>Node1&#45;&gt;Node2</title>
<g id="a_edge1_Node000001_Node000002"><a xlink:title=" ">
<path fill="none" stroke="#63b8ff" d="M49.62,-110.33C49.62,-103.82 49.62,-94.67 49.62,-86.37"/>
<polygon fill="#63b8ff" stroke="#63b8ff" points="53.13,-86.37 49.63,-76.37 46.13,-86.37 53.13,-86.37"/>
</a>
</g>
</g>
<!-- Node3 -->
<g id="Node000003" class="node">
<title>Node3</title>
<g id="a_Node000003"><a xlink:title=" ">
<polygon fill="#e0e0e0" stroke="#999999" points="73.38,-19.25 25.88,-19.25 25.88,0 73.38,0 73.38,-19.25"/>
<text text-anchor="middle" x="49.62" y="-5.75" font-family="Helvetica,sans-Serif" font-size="10.00">stdint.h</text>
</a>
</g>
</g>
<!-- Node2&#45;&gt;Node3 -->
<g id="edge2_Node000002_Node000003" class="edge">
<title>Node2&#45;&gt;Node3</title>
<g id="a_edge2_Node000002_Node000003"><a xlink:title=" ">
<path fill="none" stroke="#63b8ff" d="M49.62,-55.08C49.62,-48.57 49.62,-39.42 49.62,-31.12"/>
<polygon fill="#63b8ff" stroke="#63b8ff" points="53.13,-31.12 49.63,-21.12 46.13,-31.12 53.13,-31.12"/>
</a>
</g>
</g>
</g>
</svg>
