<?xml version="1.0" encoding="UTF-8" standalone="no"?>
<!DOCTYPE svg PUBLIC "-//W3C//DTD SVG 1.1//EN"
 "http://www.w3.org/Graphics/SVG/1.1/DTD/svg11.dtd">
<!-- Generated by graphviz version 12.0.0 (20240704.0754)
 -->
<!-- Title: src/control/PID.h Pages: 1 -->
<svg width="928pt" height="304pt"
 viewBox="0.00 0.00 928.06 303.50" xmlns="http://www.w3.org/2000/svg" xmlns:xlink="http://www.w3.org/1999/xlink">
<g id="graph0" class="graph" transform="scale(1 1) rotate(0) translate(4 299.5)">
<title>src/control/PID.h</title>
<!-- Node1 -->
<g id="Node000001" class="node">
<title>Node1</title>
<g id="a_Node000001"><a xlink:title=" ">
<polygon fill="#999999" stroke="#666666" points="446,-295.5 357.25,-295.5 357.25,-276.25 446,-276.25 446,-295.5"/>
<text text-anchor="middle" x="401.62" y="-282" font-family="Helvetica,sans-Serif" font-size="10.00">src/control/PID.h</text>
</a>
</g>
</g>
<!-- Node2 -->
<g id="Node000002" class="node">
<title>Node2</title>
<g id="a_Node000002"><a xlink:href="Controller_8h.html" target="_top" xlink:title=" ">
<polygon fill="white" stroke="#666666" points="373.38,-240.25 259.88,-240.25 259.88,-221 373.38,-221 373.38,-240.25"/>
<text text-anchor="middle" x="316.62" y="-226.75" font-family="Helvetica,sans-Serif" font-size="10.00">src/control/Controller.h</text>
</a>
</g>
</g>
<!-- Node1&#45;&gt;Node2 -->
<g id="edge1_Node000001_Node000002" class="edge">
<title>Node1&#45;&gt;Node2</title>
<g id="a_edge1_Node000001_Node000002"><a xlink:title=" ">
<path fill="none" stroke="#63b8ff" d="M377.57,-269.8C362.6,-260.42 343.84,-248.67 331.11,-240.7"/>
<polygon fill="#63b8ff" stroke="#63b8ff" points="375.59,-272.7 385.92,-275.04 379.31,-266.76 375.59,-272.7"/>
</a>
</g>
</g>
<!-- Node5 -->
<g id="Node000005" class="node">
<title>Node5</title>
<g id="a_Node000005"><a xlink:href="FlowController_8h.html" target="_top" xlink:title=" ">
<polygon fill="white" stroke="#666666" points="468.88,-185 334.38,-185 334.38,-165.75 468.88,-165.75 468.88,-185"/>
<text text-anchor="middle" x="401.62" y="-171.5" font-family="Helvetica,sans-Serif" font-size="10.00">src/control/FlowController.h</text>
</a>
</g>
</g>
<!-- Node1&#45;&gt;Node5 -->
<g id="edge24_Node000001_Node000005" class="edge">
<title>Node1&#45;&gt;Node5</title>
<g id="a_edge24_Node000001_Node000005"><a xlink:title=" ">
<path fill="none" stroke="#63b8ff" d="M401.62,-264.53C401.62,-240.8 401.62,-202.64 401.62,-185.38"/>
<polygon fill="#63b8ff" stroke="#63b8ff" points="398.13,-264.48 401.63,-274.48 405.13,-264.48 398.13,-264.48"/>
</a>
</g>
</g>
<!-- Node19 -->
<g id="Node000019" class="node">
<title>Node19</title>
<g id="a_Node000019"><a xlink:href="PID_8cpp.html" target="_top" xlink:title=" ">
<polygon fill="white" stroke="#666666" points="529.25,-240.25 430,-240.25 430,-221 529.25,-221 529.25,-240.25"/>
<text text-anchor="middle" x="479.62" y="-226.75" font-family="Helvetica,sans-Serif" font-size="10.00">src/control/PID.cpp</text>
</a>
</g>
</g>
<!-- Node1&#45;&gt;Node19 -->
<g id="edge25_Node000001_Node000019" class="edge">
<title>Node1&#45;&gt;Node19</title>
<g id="a_edge25_Node000001_Node000019"><a xlink:title=" ">
<path fill="none" stroke="#63b8ff" d="M424.1,-269.53C437.77,-260.2 454.77,-248.6 466.33,-240.7"/>
<polygon fill="#63b8ff" stroke="#63b8ff" points="422.39,-266.46 416.11,-274.99 426.34,-272.24 422.39,-266.46"/>
</a>
</g>
</g>
<!-- Node3 -->
<g id="Node000003" class="node">
<title>Node3</title>
<g id="a_Node000003"><a xlink:href="Controller_8cpp.html" target="_top" xlink:title=" ">
<polygon fill="white" stroke="#666666" points="316.62,-185 192.62,-185 192.62,-165.75 316.62,-165.75 316.62,-185"/>
<text text-anchor="middle" x="254.62" y="-171.5" font-family="Helvetica,sans-Serif" font-size="10.00">src/control/Controller.cpp</text>
</a>
</g>
</g>
<!-- Node2&#45;&gt;Node3 -->
<g id="edge2_Node000002_Node000003" class="edge">
<title>Node2&#45;&gt;Node3</title>
<g id="a_edge2_Node000002_Node000003"><a xlink:title=" ">
<path fill="none" stroke="#63b8ff" d="M297.43,-213.14C286.72,-203.94 273.81,-192.85 264.99,-185.27"/>
<polygon fill="#63b8ff" stroke="#63b8ff" points="295.09,-215.75 304.96,-219.61 299.65,-210.44 295.09,-215.75"/>
</a>
</g>
</g>
<!-- Node4 -->
<g id="Node000004" class="node">
<title>Node4</title>
<g id="a_Node000004"><a xlink:href="FlowController_8cpp.html" target="_top" xlink:title=" ">
<polygon fill="white" stroke="#666666" points="237.12,-129.75 92.12,-129.75 92.12,-110.5 237.12,-110.5 237.12,-129.75"/>
<text text-anchor="middle" x="164.62" y="-116.25" font-family="Helvetica,sans-Serif" font-size="10.00">src/control/FlowController.cpp</text>
</a>
</g>
</g>
<!-- Node2&#45;&gt;Node4 -->
<g id="edge3_Node000002_Node000004" class="edge">
<title>Node2&#45;&gt;Node4</title>
<g id="a_edge3_Node000002_Node000004"><a xlink:title=" ">
<path fill="none" stroke="#63b8ff" d="M248.49,-219.9C225.23,-213.46 200.79,-202.77 183.62,-185 168.83,-169.69 165.49,-143.39 164.78,-129.81"/>
<polygon fill="#63b8ff" stroke="#63b8ff" points="247.4,-223.23 257.95,-222.28 249.11,-216.44 247.4,-223.23"/>
</a>
</g>
</g>
<!-- Node2&#45;&gt;Node5 -->
<g id="edge4_Node000002_Node000005" class="edge">
<title>Node2&#45;&gt;Node5</title>
<g id="a_edge4_Node000002_Node000005"><a xlink:title=" ">
<path fill="none" stroke="#63b8ff" d="M340.68,-214.55C355.65,-205.17 374.41,-193.42 387.14,-185.45"/>
<polygon fill="#63b8ff" stroke="#63b8ff" points="338.94,-211.51 332.33,-219.79 342.66,-217.45 338.94,-211.51"/>
</a>
</g>
</g>
<!-- Node11 -->
<g id="Node000011" class="node">
<title>Node11</title>
<g id="a_Node000011"><a xlink:href="Humidistat_8h.html" target="_top" xlink:title=" ">
<polygon fill="white" stroke="#666666" points="606.38,-185 486.88,-185 486.88,-165.75 606.38,-165.75 606.38,-185"/>
<text text-anchor="middle" x="546.62" y="-171.5" font-family="Helvetica,sans-Serif" font-size="10.00">src/control/Humidistat.h</text>
</a>
</g>
</g>
<!-- Node2&#45;&gt;Node11 -->
<g id="edge11_Node000002_Node000011" class="edge">
<title>Node2&#45;&gt;Node11</title>
<g id="a_edge11_Node000002_Node000011"><a xlink:title=" ">
<path fill="none" stroke="#63b8ff" d="M367.06,-217.95C409.32,-208.16 468.78,-194.4 507.51,-185.43"/>
<polygon fill="#63b8ff" stroke="#63b8ff" points="366.33,-214.52 357.38,-220.19 367.91,-221.34 366.33,-214.52"/>
</a>
</g>
</g>
<!-- Node5&#45;&gt;Node4 -->
<g id="edge10_Node000005_Node000004" class="edge">
<title>Node5&#45;&gt;Node4</title>
<g id="a_edge10_Node000005_Node000004"><a xlink:title=" ">
<path fill="none" stroke="#63b8ff" d="M349.93,-162.76C306.37,-152.97 244.92,-139.17 204.93,-130.18"/>
<polygon fill="#63b8ff" stroke="#63b8ff" points="349.15,-166.17 359.68,-164.95 350.69,-159.34 349.15,-166.17"/>
</a>
</g>
</g>
<!-- Node6 -->
<g id="Node000006" class="node">
<title>Node6</title>
<g id="a_Node000006"><a xlink:href="CascadeHumidistat_8h.html" target="_top" xlink:title=" ">
<polygon fill="white" stroke="#666666" points="577.5,-129.75 419.75,-129.75 419.75,-110.5 577.5,-110.5 577.5,-129.75"/>
<text text-anchor="middle" x="498.62" y="-116.25" font-family="Helvetica,sans-Serif" font-size="10.00">src/control/CascadeHumidistat.h</text>
</a>
</g>
</g>
<!-- Node5&#45;&gt;Node6 -->
<g id="edge5_Node000005_Node000006" class="edge">
<title>Node5&#45;&gt;Node6</title>
<g id="a_edge5_Node000005_Node000006"><a xlink:title=" ">
<path fill="none" stroke="#63b8ff" d="M428.1,-159.84C445.34,-150.38 467.29,-138.33 482.09,-130.2"/>
<polygon fill="#63b8ff" stroke="#63b8ff" points="426.49,-156.73 419.41,-164.61 429.86,-162.87 426.49,-156.73"/>
</a>
</g>
</g>
<!-- Node7 -->
<g id="Node000007" class="node">
<title>Node7</title>
<g id="a_Node000007"><a xlink:href="SerialLogger_8h.html" target="_top" xlink:title=" ">
<polygon fill="white" stroke="#666666" points="406,-74.5 311.25,-74.5 311.25,-55.25 406,-55.25 406,-74.5"/>
<text text-anchor="middle" x="358.62" y="-61" font-family="Helvetica,sans-Serif" font-size="10.00">src/SerialLogger.h</text>
</a>
</g>
</g>
<!-- Node6&#45;&gt;Node7 -->
<g id="edge6_Node000006_Node000007" class="edge">
<title>Node6&#45;&gt;Node7</title>
<g id="a_edge6_Node000006_Node000007"><a xlink:title=" ">
<path fill="none" stroke="#63b8ff" d="M464.23,-106.04C438.85,-96.39 404.96,-83.5 382.49,-74.95"/>
<polygon fill="#63b8ff" stroke="#63b8ff" points="462.87,-109.27 473.46,-109.55 465.36,-102.73 462.87,-109.27"/>
</a>
</g>
</g>
<!-- Node9 -->
<g id="Node000009" class="node">
<title>Node9</title>
<g id="a_Node000009"><a xlink:href="CascadeHumidistat_8cpp.html" target="_top" xlink:title=" ">
<polygon fill="white" stroke="#666666" points="743.75,-74.5 575.5,-74.5 575.5,-55.25 743.75,-55.25 743.75,-74.5"/>
<text text-anchor="middle" x="659.62" y="-61" font-family="Helvetica,sans-Serif" font-size="10.00">src/control/CascadeHumidistat.cpp</text>
</a>
</g>
</g>
<!-- Node6&#45;&gt;Node9 -->
<g id="edge8_Node000006_Node000009" class="edge">
<title>Node6&#45;&gt;Node9</title>
<g id="a_edge8_Node000006_Node000009"><a xlink:title=" ">
<path fill="none" stroke="#63b8ff" d="M536.62,-106.56C565.96,-96.85 605.88,-83.65 632.18,-74.95"/>
<polygon fill="#63b8ff" stroke="#63b8ff" points="535.77,-103.15 527.37,-109.62 537.97,-109.8 535.77,-103.15"/>
</a>
</g>
</g>
<!-- Node10 -->
<g id="Node000010" class="node">
<title>Node10</title>
<g id="a_Node000010"><a xlink:href="GraphicalDisplayUI_8h.html" target="_top" xlink:title=" ">
<polygon fill="white" stroke="#666666" points="557.5,-74.5 423.75,-74.5 423.75,-55.25 557.5,-55.25 557.5,-74.5"/>
<text text-anchor="middle" x="490.62" y="-61" font-family="Helvetica,sans-Serif" font-size="10.00">src/ui/GraphicalDisplayUI.h</text>
</a>
</g>
</g>
<!-- Node6&#45;&gt;Node10 -->
<g id="edge9_Node000006_Node000010" class="edge">
<title>Node6&#45;&gt;Node10</title>
<g id="a_edge9_Node000006_Node000010"><a xlink:title=" ">
<path fill="none" stroke="#63b8ff" d="M495.63,-99.17C494.37,-90.8 492.97,-81.5 491.97,-74.86"/>
<polygon fill="#63b8ff" stroke="#63b8ff" points="492.13,-99.47 497.08,-108.84 499.05,-98.43 492.13,-99.47"/>
</a>
</g>
</g>
<!-- Node8 -->
<g id="Node000008" class="node">
<title>Node8</title>
<g id="a_Node000008"><a xlink:href="main_8cpp.html" target="_top" xlink:title=" ">
<polygon fill="white" stroke="#666666" points="681.38,-19.25 609.88,-19.25 609.88,0 681.38,0 681.38,-19.25"/>
<text text-anchor="middle" x="645.62" y="-5.75" font-family="Helvetica,sans-Serif" font-size="10.00">src/main.cpp</text>
</a>
</g>
</g>
<!-- Node7&#45;&gt;Node8 -->
<g id="edge7_Node000007_Node000008" class="edge">
<title>Node7&#45;&gt;Node8</title>
<g id="a_edge7_Node000007_Node000008"><a xlink:title=" ">
<path fill="none" stroke="#63b8ff" d="M417.49,-52.95C475.22,-42.24 561.4,-26.25 609.62,-17.31"/>
<polygon fill="#63b8ff" stroke="#63b8ff" points="417.02,-49.48 407.83,-54.75 418.3,-56.36 417.02,-49.48"/>
</a>
</g>
</g>
<!-- Node11&#45;&gt;Node6 -->
<g id="edge16_Node000011_Node000006" class="edge">
<title>Node11&#45;&gt;Node6</title>
<g id="a_edge16_Node000011_Node000006"><a xlink:title=" ">
<path fill="none" stroke="#63b8ff" d="M531.23,-157.29C523.08,-148.25 513.41,-137.52 506.72,-130.11"/>
<polygon fill="#63b8ff" stroke="#63b8ff" points="528.39,-159.37 537.69,-164.46 533.59,-154.69 528.39,-159.37"/>
</a>
</g>
</g>
<!-- Node12 -->
<g id="Node000012" class="node">
<title>Node12</title>
<g id="a_Node000012"><a xlink:href="SetpointProfileRunner_8h.html" target="_top" xlink:title=" ">
<polygon fill="white" stroke="#666666" points="892.5,-129.75 758.75,-129.75 758.75,-110.5 892.5,-110.5 892.5,-129.75"/>
<text text-anchor="middle" x="825.62" y="-116.25" font-family="Helvetica,sans-Serif" font-size="10.00">src/SetpointProfileRunner.h</text>
</a>
</g>
</g>
<!-- Node11&#45;&gt;Node12 -->
<g id="edge12_Node000011_Node000012" class="edge">
<title>Node11&#45;&gt;Node12</title>
<g id="a_edge12_Node000011_Node000012"><a xlink:title=" ">
<path fill="none" stroke="#63b8ff" d="M605.53,-163.13C656.91,-153.33 730.5,-139.28 778.18,-130.18"/>
<polygon fill="#63b8ff" stroke="#63b8ff" points="604.92,-159.68 595.76,-165 606.24,-166.56 604.92,-159.68"/>
</a>
</g>
</g>
<!-- Node14 -->
<g id="Node000014" class="node">
<title>Node14</title>
<g id="a_Node000014"><a xlink:href="Humidistat_8cpp.html" target="_top" xlink:title=" ">
<polygon fill="white" stroke="#666666" points="725.62,-129.75 595.62,-129.75 595.62,-110.5 725.62,-110.5 725.62,-129.75"/>
<text text-anchor="middle" x="660.62" y="-116.25" font-family="Helvetica,sans-Serif" font-size="10.00">src/control/Humidistat.cpp</text>
</a>
</g>
</g>
<!-- Node11&#45;&gt;Node14 -->
<g id="edge17_Node000011_Node000014" class="edge">
<title>Node11&#45;&gt;Node14</title>
<g id="a_edge17_Node000011_Node000014"><a xlink:title=" ">
<path fill="none" stroke="#63b8ff" d="M576.31,-160.51C596.78,-150.95 623.39,-138.52 641.19,-130.2"/>
<polygon fill="#63b8ff" stroke="#63b8ff" points="574.91,-157.3 567.33,-164.7 577.88,-163.64 574.91,-157.3"/>
</a>
</g>
</g>
<!-- Node15 -->
<g id="Node000015" class="node">
<title>Node15</title>
<g id="a_Node000015"><a xlink:href="SingleHumidistat_8h.html" target="_top" xlink:title=" ">
<polygon fill="white" stroke="#666666" points="401.88,-129.75 255.38,-129.75 255.38,-110.5 401.88,-110.5 401.88,-129.75"/>
<text text-anchor="middle" x="328.62" y="-116.25" font-family="Helvetica,sans-Serif" font-size="10.00">src/control/SingleHumidistat.h</text>
</a>
</g>
</g>
<!-- Node11&#45;&gt;Node15 -->
<g id="edge18_Node000011_Node000015" class="edge">
<title>Node11&#45;&gt;Node15</title>
<g id="a_edge18_Node000011_Node000015"><a xlink:title=" ">
<path fill="none" stroke="#63b8ff" d="M498.56,-162.63C458.56,-152.86 402.42,-139.15 365.79,-130.2"/>
<polygon fill="#63b8ff" stroke="#63b8ff" points="497.63,-166.01 508.17,-164.98 499.29,-159.21 497.63,-166.01"/>
</a>
</g>
</g>
<!-- Node12&#45;&gt;Node8 -->
<g id="edge14_Node000012_Node000008" class="edge">
<title>Node12&#45;&gt;Node8</title>
<g id="a_edge14_Node000012_Node000008"><a xlink:title=" ">
<path fill="none" stroke="#63b8ff" d="M868.91,-106.29C899.82,-94.94 932.94,-76.86 914.62,-55.25 885.16,-20.49 747.91,-12.78 681.63,-11.08"/>
<polygon fill="#63b8ff" stroke="#63b8ff" points="867.89,-102.94 859.59,-109.52 870.19,-109.55 867.89,-102.94"/>
</a>
</g>
</g>
<!-- Node12&#45;&gt;Node10 -->
<g id="edge15_Node000012_Node000010" class="edge">
<title>Node12&#45;&gt;Node10</title>
<g id="a_edge15_Node000012_Node000010"><a xlink:title=" ">
<path fill="none" stroke="#63b8ff" d="M757.24,-108.25C695.55,-98.45 605.86,-84.19 547.88,-74.98"/>
<polygon fill="#63b8ff" stroke="#63b8ff" points="756.5,-111.68 766.92,-109.79 757.6,-104.77 756.5,-111.68"/>
</a>
</g>
</g>
<!-- Node13 -->
<g id="Node000013" class="node">
<title>Node13</title>
<g id="a_Node000013"><a xlink:href="SetpointProfileRunner_8cpp.html" target="_top" xlink:title=" ">
<polygon fill="white" stroke="#666666" points="905.75,-74.5 761.5,-74.5 761.5,-55.25 905.75,-55.25 905.75,-74.5"/>
<text text-anchor="middle" x="833.62" y="-61" font-family="Helvetica,sans-Serif" font-size="10.00">src/SetpointProfileRunner.cpp</text>
</a>
</g>
</g>
<!-- Node12&#45;&gt;Node13 -->
<g id="edge13_Node000012_Node000013" class="edge">
<title>Node12&#45;&gt;Node13</title>
<g id="a_edge13_Node000012_Node000013"><a xlink:title=" ">
<path fill="none" stroke="#63b8ff" d="M828.62,-99.17C829.88,-90.8 831.28,-81.5 832.28,-74.86"/>
<polygon fill="#63b8ff" stroke="#63b8ff" points="825.2,-98.43 827.17,-108.84 832.12,-99.47 825.2,-98.43"/>
</a>
</g>
</g>
<!-- Node15&#45;&gt;Node7 -->
<g id="edge19_Node000015_Node000007" class="edge">
<title>Node15&#45;&gt;Node7</title>
<g id="a_edge19_Node000015_Node000007"><a xlink:title=" ">
<path fill="none" stroke="#63b8ff" d="M339.21,-100.33C344.09,-91.67 349.65,-81.81 353.56,-74.86"/>
<polygon fill="#63b8ff" stroke="#63b8ff" points="336.18,-98.58 334.32,-109.01 342.28,-102.02 336.18,-98.58"/>
</a>
</g>
</g>
<!-- Node15&#45;&gt;Node10 -->
<g id="edge23_Node000015_Node000010" class="edge">
<title>Node15&#45;&gt;Node10</title>
<g id="a_edge23_Node000015_Node000010"><a xlink:title=" ">
<path fill="none" stroke="#63b8ff" d="M366.85,-106.56C396.38,-96.85 436.55,-83.65 463.01,-74.95"/>
<polygon fill="#63b8ff" stroke="#63b8ff" points="365.95,-103.17 357.54,-109.62 368.14,-109.82 365.95,-103.17"/>
</a>
</g>
</g>
<!-- Node16 -->
<g id="Node000016" class="node">
<title>Node16</title>
<g id="a_Node000016"><a xlink:href="SingleHumidistat_8cpp.html" target="_top" xlink:title=" ">
<polygon fill="white" stroke="#666666" points="293.12,-74.5 136.12,-74.5 136.12,-55.25 293.12,-55.25 293.12,-74.5"/>
<text text-anchor="middle" x="214.62" y="-61" font-family="Helvetica,sans-Serif" font-size="10.00">src/control/SingleHumidistat.cpp</text>
</a>
</g>
</g>
<!-- Node15&#45;&gt;Node16 -->
<g id="edge20_Node000015_Node000016" class="edge">
<title>Node15&#45;&gt;Node16</title>
<g id="a_edge20_Node000015_Node000016"><a xlink:title=" ">
<path fill="none" stroke="#63b8ff" d="M298.94,-105.26C278.47,-95.7 251.86,-83.27 234.06,-74.95"/>
<polygon fill="#63b8ff" stroke="#63b8ff" points="297.37,-108.39 307.92,-109.45 300.34,-102.05 297.37,-108.39"/>
</a>
</g>
</g>
<!-- Node17 -->
<g id="Node000017" class="node">
<title>Node17</title>
<g id="a_Node000017"><a xlink:href="CharDisplayUI_8h.html" target="_top" xlink:title=" ">
<polygon fill="white" stroke="#666666" points="118,-74.5 5.25,-74.5 5.25,-55.25 118,-55.25 118,-74.5"/>
<text text-anchor="middle" x="61.62" y="-61" font-family="Helvetica,sans-Serif" font-size="10.00">src/ui/CharDisplayUI.h</text>
</a>
</g>
</g>
<!-- Node15&#45;&gt;Node17 -->
<g id="edge21_Node000015_Node000017" class="edge">
<title>Node15&#45;&gt;Node17</title>
<g id="a_edge21_Node000015_Node000017"><a xlink:title=" ">
<path fill="none" stroke="#63b8ff" d="M271.95,-107.82C222.79,-98.02 152.56,-84.01 107.03,-74.93"/>
<polygon fill="#63b8ff" stroke="#63b8ff" points="271.05,-111.21 281.55,-109.74 272.42,-104.35 271.05,-111.21"/>
</a>
</g>
</g>
<!-- Node18 -->
<g id="Node000018" class="node">
<title>Node18</title>
<g id="a_Node000018"><a xlink:href="CharDisplayUI_8cpp.html" target="_top" xlink:title=" ">
<polygon fill="white" stroke="#666666" points="123.25,-19.25 0,-19.25 0,0 123.25,0 123.25,-19.25"/>
<text text-anchor="middle" x="61.62" y="-5.75" font-family="Helvetica,sans-Serif" font-size="10.00">src/ui/CharDisplayUI.cpp</text>
</a>
</g>
</g>
<!-- Node17&#45;&gt;Node18 -->
<g id="edge22_Node000017_Node000018" class="edge">
<title>Node17&#45;&gt;Node18</title>
<g id="a_edge22_Node000017_Node000018"><a xlink:title=" ">
<path fill="none" stroke="#63b8ff" d="M61.62,-43.63C61.62,-35.34 61.62,-26.17 61.62,-19.61"/>
<polygon fill="#63b8ff" stroke="#63b8ff" points="58.13,-43.57 61.63,-53.57 65.13,-43.57 58.13,-43.57"/>
</a>
</g>
</g>
</g>
</svg>
