<?xml version="1.0" encoding="UTF-8" standalone="no"?>
<!DOCTYPE svg PUBLIC "-//W3C//DTD SVG 1.1//EN"
 "http://www.w3.org/Graphics/SVG/1.1/DTD/svg11.dtd">
<!-- Generated by graphviz version 12.0.0 (20240704.0754)
 -->
<!-- Title: src/Point.h Pages: 1 -->
<svg width="394pt" height="138pt"
 viewBox="0.00 0.00 394.00 137.75" xmlns="http://www.w3.org/2000/svg" xmlns:xlink="http://www.w3.org/1999/xlink">
<g id="graph0" class="graph" transform="scale(1 1) rotate(0) translate(4 133.75)">
<title>src/Point.h</title>
<!-- Node1 -->
<g id="Node000001" class="node">
<title>Node1</title>
<g id="a_Node000001"><a xlink:title=" ">
<polygon fill="#999999" stroke="#666666" points="288.38,-129.75 225.88,-129.75 225.88,-110.5 288.38,-110.5 288.38,-129.75"/>
<text text-anchor="middle" x="257.12" y="-116.25" font-family="Helvetica,sans-Serif" font-size="10.00">src/Point.h</text>
</a>
</g>
</g>
<!-- Node2 -->
<g id="Node000002" class="node">
<title>Node2</title>
<g id="a_Node000002"><a xlink:href="SetpointProfileRunner_8h.html" target="_top" xlink:title=" ">
<polygon fill="white" stroke="#666666" points="265,-74.5 131.25,-74.5 131.25,-55.25 265,-55.25 265,-74.5"/>
<text text-anchor="middle" x="198.12" y="-61" font-family="Helvetica,sans-Serif" font-size="10.00">src/SetpointProfileRunner.h</text>
</a>
</g>
</g>
<!-- Node1&#45;&gt;Node2 -->
<g id="edge1_Node000001_Node000002" class="edge">
<title>Node1&#45;&gt;Node2</title>
<g id="a_edge1_Node000001_Node000002"><a xlink:title=" ">
<path fill="none" stroke="#63b8ff" d="M238.86,-102.64C228.67,-93.44 216.38,-82.35 207.99,-74.77"/>
<polygon fill="#63b8ff" stroke="#63b8ff" points="236.22,-104.98 245.99,-109.08 240.91,-99.78 236.22,-104.98"/>
</a>
</g>
</g>
<!-- Node6 -->
<g id="Node000006" class="node">
<title>Node6</title>
<g id="a_Node000006"><a xlink:href="config_8h.html" target="_top" xlink:title=" ">
<polygon fill="white" stroke="#666666" points="348.88,-74.5 283.38,-74.5 283.38,-55.25 348.88,-55.25 348.88,-74.5"/>
<text text-anchor="middle" x="316.12" y="-61" font-family="Helvetica,sans-Serif" font-size="10.00">src/config.h</text>
</a>
</g>
</g>
<!-- Node1&#45;&gt;Node6 -->
<g id="edge5_Node000001_Node000006" class="edge">
<title>Node1&#45;&gt;Node6</title>
<g id="a_edge5_Node000001_Node000006"><a xlink:title=" ">
<path fill="none" stroke="#63b8ff" d="M275.39,-102.64C285.58,-93.44 297.87,-82.35 306.26,-74.77"/>
<polygon fill="#63b8ff" stroke="#63b8ff" points="273.34,-99.78 268.26,-109.08 278.03,-104.98 273.34,-99.78"/>
</a>
</g>
</g>
<!-- Node3 -->
<g id="Node000003" class="node">
<title>Node3</title>
<g id="a_Node000003"><a xlink:href="SetpointProfileRunner_8cpp.html" target="_top" xlink:title=" ">
<polygon fill="white" stroke="#666666" points="144.25,-19.25 0,-19.25 0,0 144.25,0 144.25,-19.25"/>
<text text-anchor="middle" x="72.12" y="-5.75" font-family="Helvetica,sans-Serif" font-size="10.00">src/SetpointProfileRunner.cpp</text>
</a>
</g>
</g>
<!-- Node2&#45;&gt;Node3 -->
<g id="edge2_Node000002_Node000003" class="edge">
<title>Node2&#45;&gt;Node3</title>
<g id="a_edge2_Node000002_Node000003"><a xlink:title=" ">
<path fill="none" stroke="#63b8ff" d="M166.24,-50.4C143.51,-40.79 113.55,-28.13 93.6,-19.7"/>
<polygon fill="#63b8ff" stroke="#63b8ff" points="164.78,-53.58 175.36,-54.25 167.51,-47.14 164.78,-53.58"/>
</a>
</g>
</g>
<!-- Node4 -->
<g id="Node000004" class="node">
<title>Node4</title>
<g id="a_Node000004"><a xlink:href="main_8cpp.html" target="_top" xlink:title=" ">
<polygon fill="white" stroke="#666666" points="233.88,-19.25 162.38,-19.25 162.38,0 233.88,0 233.88,-19.25"/>
<text text-anchor="middle" x="198.12" y="-5.75" font-family="Helvetica,sans-Serif" font-size="10.00">src/main.cpp</text>
</a>
</g>
</g>
<!-- Node2&#45;&gt;Node4 -->
<g id="edge3_Node000002_Node000004" class="edge">
<title>Node2&#45;&gt;Node4</title>
<g id="a_edge3_Node000002_Node000004"><a xlink:title=" ">
<path fill="none" stroke="#63b8ff" d="M198.12,-43.63C198.12,-35.34 198.12,-26.17 198.12,-19.61"/>
<polygon fill="#63b8ff" stroke="#63b8ff" points="194.63,-43.57 198.13,-53.57 201.63,-43.57 194.63,-43.57"/>
</a>
</g>
</g>
<!-- Node5 -->
<g id="Node000005" class="node">
<title>Node5</title>
<g id="a_Node000005"><a xlink:href="GraphicalDisplayUI_8h.html" target="_top" xlink:title=" ">
<polygon fill="white" stroke="#666666" points="386,-19.25 252.25,-19.25 252.25,0 386,0 386,-19.25"/>
<text text-anchor="middle" x="319.12" y="-5.75" font-family="Helvetica,sans-Serif" font-size="10.00">src/ui/GraphicalDisplayUI.h</text>
</a>
</g>
</g>
<!-- Node2&#45;&gt;Node5 -->
<g id="edge4_Node000002_Node000005" class="edge">
<title>Node2&#45;&gt;Node5</title>
<g id="a_edge4_Node000002_Node000005"><a xlink:title=" ">
<path fill="none" stroke="#63b8ff" d="M229.04,-50.27C250.84,-40.68 279.43,-28.09 298.5,-19.7"/>
<polygon fill="#63b8ff" stroke="#63b8ff" points="227.78,-47 220.04,-54.23 230.6,-53.41 227.78,-47"/>
</a>
</g>
</g>
</g>
</svg>
