<?xml version="1.0" encoding="UTF-8" standalone="no"?>
<!DOCTYPE svg PUBLIC "-//W3C//DTD SVG 1.1//EN"
 "http://www.w3.org/Graphics/SVG/1.1/DTD/svg11.dtd">
<!-- Generated by graphviz version 12.0.0 (20240704.0754)
 -->
<!-- Title: src/Point.h Pages: 1 -->
<svg width="132pt" height="83pt"
 viewBox="0.00 0.00 131.75 82.50" xmlns="http://www.w3.org/2000/svg" xmlns:xlink="http://www.w3.org/1999/xlink">
<g id="graph0" class="graph" transform="scale(1 1) rotate(0) translate(4 78.5)">
<title>src/Point.h</title>
<!-- Node1 -->
<g id="Node000001" class="node">
<title>Node1</title>
<g id="a_Node000001"><a xlink:title=" ">
<polygon fill="#999999" stroke="#666666" points="90,-74.5 27.5,-74.5 27.5,-55.25 90,-55.25 90,-74.5"/>
<text text-anchor="middle" x="58.75" y="-61" font-family="Helvetica,sans-Serif" font-size="10.00">src/Point.h</text>
</a>
</g>
</g>
<!-- Node2 -->
<g id="Node000002" class="node">
<title>Node2</title>
<g id="a_Node000002"><a xlink:title=" ">
<polygon fill="#e0e0e0" stroke="#999999" points="47.5,-19.25 0,-19.25 0,0 47.5,0 47.5,-19.25"/>
<text text-anchor="middle" x="23.75" y="-5.75" font-family="Helvetica,sans-Serif" font-size="10.00">stdint.h</text>
</a>
</g>
</g>
<!-- Node1&#45;&gt;Node2 -->
<g id="edge1_Node000001_Node000002" class="edge">
<title>Node1&#45;&gt;Node2</title>
<g id="a_edge1_Node000001_Node000002"><a xlink:title=" ">
<path fill="none" stroke="#63b8ff" d="M52.97,-55.08C48.34,-48.03 41.68,-37.9 35.88,-29.08"/>
<polygon fill="#63b8ff" stroke="#63b8ff" points="38.9,-27.31 30.49,-20.87 33.05,-31.15 38.9,-27.31"/>
</a>
</g>
</g>
<!-- Node3 -->
<g id="Node000003" class="node">
<title>Node3</title>
<g id="a_Node000003"><a xlink:title=" ">
<polygon fill="#e0e0e0" stroke="#999999" points="123.75,-19.25 65.75,-19.25 65.75,0 123.75,0 123.75,-19.25"/>
<text text-anchor="middle" x="94.75" y="-5.75" font-family="Helvetica,sans-Serif" font-size="10.00">etl/span.h</text>
</a>
</g>
</g>
<!-- Node1&#45;&gt;Node3 -->
<g id="edge2_Node000001_Node000003" class="edge">
<title>Node1&#45;&gt;Node3</title>
<g id="a_edge2_Node000001_Node000003"><a xlink:title=" ">
<path fill="none" stroke="#63b8ff" d="M64.69,-55.08C69.46,-48.03 76.31,-37.9 82.27,-29.08"/>
<polygon fill="#63b8ff" stroke="#63b8ff" points="85.13,-31.11 87.83,-20.86 79.33,-27.19 85.13,-31.11"/>
</a>
</g>
</g>
</g>
</svg>
