<?xml version="1.0" encoding="UTF-8" standalone="no"?>
<!DOCTYPE svg PUBLIC "-//W3C//DTD SVG 1.1//EN"
 "http://www.w3.org/Graphics/SVG/1.1/DTD/svg11.dtd">
<!-- Generated by graphviz version 12.0.0 (20240704.0754)
 -->
<!-- Title: src/SerialLogger.h Pages: 1 -->
<svg width="744pt" height="304pt"
 viewBox="0.00 0.00 744.38 303.50" xmlns="http://www.w3.org/2000/svg" xmlns:xlink="http://www.w3.org/1999/xlink">
<g id="graph0" class="graph" transform="scale(1 1) rotate(0) translate(4 299.5)">
<title>src/SerialLogger.h</title>
<!-- Node1 -->
<g id="Node000001" class="node">
<title>Node1</title>
<g id="a_Node000001"><a xlink:title=" ">
<polygon fill="#999999" stroke="#666666" points="525.38,-295.5 430.62,-295.5 430.62,-276.25 525.38,-276.25 525.38,-295.5"/>
<text text-anchor="middle" x="478" y="-282" font-family="Helvetica,sans-Serif" font-size="10.00">src/SerialLogger.h</text>
</a>
</g>
</g>
<!-- Node2 -->
<g id="Node000002" class="node">
<title>Node2</title>
<g id="a_Node000002"><a xlink:title=" ">
<polygon fill="#e0e0e0" stroke="#999999" points="317.75,-19.25 270.25,-19.25 270.25,0 317.75,0 317.75,-19.25"/>
<text text-anchor="middle" x="294" y="-5.75" font-family="Helvetica,sans-Serif" font-size="10.00">stdint.h</text>
</a>
</g>
</g>
<!-- Node1&#45;&gt;Node2 -->
<g id="edge1_Node000001_Node000002" class="edge">
<title>Node1&#45;&gt;Node2</title>
<g id="a_edge1_Node000001_Node000002"><a xlink:title=" ">
<path fill="none" stroke="#63b8ff" d="M501.31,-275.86C535.7,-260.86 596,-227.3 596,-176.38 596,-176.38 596,-176.38 596,-119.12 596,-62.97 408.74,-27.98 329.13,-15.64"/>
<polygon fill="#63b8ff" stroke="#63b8ff" points="330.11,-12.24 319.7,-14.21 329.06,-19.17 330.11,-12.24"/>
</a>
</g>
</g>
<!-- Node3 -->
<g id="Node000003" class="node">
<title>Node3</title>
<g id="a_Node000003"><a xlink:title=" ">
<polygon fill="#e0e0e0" stroke="#999999" points="469,-185 411,-185 411,-165.75 469,-165.75 469,-185"/>
<text text-anchor="middle" x="440" y="-171.5" font-family="Helvetica,sans-Serif" font-size="10.00">etl/span.h</text>
</a>
</g>
</g>
<!-- Node1&#45;&gt;Node3 -->
<g id="edge2_Node000001_Node000003" class="edge">
<title>Node1&#45;&gt;Node3</title>
<g id="a_edge2_Node000001_Node000003"><a xlink:title=" ">
<path fill="none" stroke="#63b8ff" d="M474.89,-276C468.82,-258.67 455.27,-219.98 446.96,-196.24"/>
<polygon fill="#63b8ff" stroke="#63b8ff" points="450.26,-195.09 443.65,-186.81 443.66,-197.4 450.26,-195.09"/>
</a>
</g>
</g>
<!-- Node4 -->
<g id="Node000004" class="node">
<title>Node4</title>
<g id="a_Node000004"><a xlink:href="asprintf_8h.html" target="_top" xlink:title=" ">
<polygon fill="white" stroke="#666666" points="679.88,-240.25 624.12,-240.25 624.12,-221 679.88,-221 679.88,-240.25"/>
<text text-anchor="middle" x="652" y="-226.75" font-family="Helvetica,sans-Serif" font-size="10.00">asprintf.h</text>
</a>
</g>
</g>
<!-- Node1&#45;&gt;Node4 -->
<g id="edge3_Node000001_Node000004" class="edge">
<title>Node1&#45;&gt;Node4</title>
<g id="a_edge3_Node000001_Node000004"><a xlink:title=" ">
<path fill="none" stroke="#63b8ff" d="M507.52,-275.84C536.57,-266.95 581.11,-253.32 613.05,-243.54"/>
<polygon fill="#63b8ff" stroke="#63b8ff" points="613.8,-246.98 622.34,-240.7 611.75,-240.28 613.8,-246.98"/>
</a>
</g>
</g>
<!-- Node7 -->
<g id="Node000007" class="node">
<title>Node7</title>
<g id="a_Node000007"><a xlink:href="SingleHumidistat_8h.html" target="_top" xlink:title=" ">
<polygon fill="white" stroke="#666666" points="130,-240.25 0,-240.25 0,-221 130,-221 130,-240.25"/>
<text text-anchor="middle" x="65" y="-226.75" font-family="Helvetica,sans-Serif" font-size="10.00">control/SingleHumidistat.h</text>
</a>
</g>
</g>
<!-- Node1&#45;&gt;Node7 -->
<g id="edge6_Node000001_Node000007" class="edge">
<title>Node1&#45;&gt;Node7</title>
<g id="a_edge6_Node000001_Node000007"><a xlink:title=" ">
<path fill="none" stroke="#63b8ff" d="M430.22,-278.71C359.47,-269.59 226.14,-252.4 141.64,-241.51"/>
<polygon fill="#63b8ff" stroke="#63b8ff" points="142.17,-238.05 131.81,-240.24 141.28,-244.99 142.17,-238.05"/>
</a>
</g>
</g>
<!-- Node14 -->
<g id="Node000014" class="node">
<title>Node14</title>
<g id="a_Node000014"><a xlink:href="CascadeHumidistat_8h.html" target="_top" xlink:title=" ">
<polygon fill="white" stroke="#666666" points="379.62,-240.25 238.38,-240.25 238.38,-221 379.62,-221 379.62,-240.25"/>
<text text-anchor="middle" x="309" y="-226.75" font-family="Helvetica,sans-Serif" font-size="10.00">control/CascadeHumidistat.h</text>
</a>
</g>
</g>
<!-- Node1&#45;&gt;Node14 -->
<g id="edge19_Node000001_Node000014" class="edge">
<title>Node1&#45;&gt;Node14</title>
<g id="a_edge19_Node000001_Node000014"><a xlink:title=" ">
<path fill="none" stroke="#63b8ff" d="M449.33,-275.84C421.65,-267.12 379.51,-253.84 348.63,-244.11"/>
<polygon fill="#63b8ff" stroke="#63b8ff" points="349.84,-240.82 339.25,-241.16 347.74,-247.5 349.84,-240.82"/>
</a>
</g>
</g>
<!-- Node18 -->
<g id="Node000018" class="node">
<title>Node18</title>
<g id="a_Node000018"><a xlink:href="ThermistorReader_8h.html" target="_top" xlink:title=" ">
<polygon fill="white" stroke="#666666" points="567.5,-129.75 434.5,-129.75 434.5,-110.5 567.5,-110.5 567.5,-129.75"/>
<text text-anchor="middle" x="501" y="-116.25" font-family="Helvetica,sans-Serif" font-size="10.00">sensor/ThermistorReader.h</text>
</a>
</g>
</g>
<!-- Node1&#45;&gt;Node18 -->
<g id="edge32_Node000001_Node000018" class="edge">
<title>Node1&#45;&gt;Node18</title>
<g id="a_edge32_Node000001_Node000018"><a xlink:title=" ">
<path fill="none" stroke="#63b8ff" d="M479.24,-276.07C482.79,-250.75 493.12,-177.25 498.16,-141.34"/>
<polygon fill="#63b8ff" stroke="#63b8ff" points="501.62,-141.86 499.55,-131.47 494.69,-140.89 501.62,-141.86"/>
</a>
</g>
</g>
<!-- Node5 -->
<g id="Node000005" class="node">
<title>Node5</title>
<g id="a_Node000005"><a xlink:title=" ">
<polygon fill="#e0e0e0" stroke="#999999" points="736.38,-185 689.62,-185 689.62,-165.75 736.38,-165.75 736.38,-185"/>
<text text-anchor="middle" x="713" y="-171.5" font-family="Helvetica,sans-Serif" font-size="10.00">stdlib.h</text>
</a>
</g>
</g>
<!-- Node4&#45;&gt;Node5 -->
<g id="edge4_Node000004_Node000005" class="edge">
<title>Node4&#45;&gt;Node5</title>
<g id="a_edge4_Node000004_Node000005"><a xlink:title=" ">
<path fill="none" stroke="#63b8ff" d="M662.35,-220.59C671.08,-212.97 683.79,-201.87 694.3,-192.7"/>
<polygon fill="#63b8ff" stroke="#63b8ff" points="696.43,-195.48 701.66,-186.27 691.83,-190.21 696.43,-195.48"/>
</a>
</g>
</g>
<!-- Node6 -->
<g id="Node000006" class="node">
<title>Node6</title>
<g id="a_Node000006"><a xlink:title=" ">
<polygon fill="#e0e0e0" stroke="#999999" points="671.25,-185 626.75,-185 626.75,-165.75 671.25,-165.75 671.25,-185"/>
<text text-anchor="middle" x="649" y="-171.5" font-family="Helvetica,sans-Serif" font-size="10.00">stdio.h</text>
</a>
</g>
</g>
<!-- Node4&#45;&gt;Node6 -->
<g id="edge5_Node000004_Node000006" class="edge">
<title>Node4&#45;&gt;Node6</title>
<g id="a_edge5_Node000004_Node000006"><a xlink:title=" ">
<path fill="none" stroke="#63b8ff" d="M651.5,-220.83C651.13,-214.24 650.61,-204.96 650.14,-196.57"/>
<polygon fill="#63b8ff" stroke="#63b8ff" points="653.65,-196.66 649.59,-186.87 646.66,-197.05 653.65,-196.66"/>
</a>
</g>
</g>
<!-- Node7&#45;&gt;Node2 -->
<g id="edge7_Node000007_Node000002" class="edge">
<title>Node7&#45;&gt;Node2</title>
<g id="a_edge7_Node000007_Node000002"><a xlink:title=" ">
<path fill="none" stroke="#63b8ff" d="M51.64,-220.72C40.86,-212.74 26.33,-200 19,-185 8.16,-162.81 14.34,-154.41 13,-129.75 12.54,-121.21 9.77,-118.42 13,-110.5 25.96,-78.7 36.79,-71.58 67,-55.25 128.76,-21.87 212,-13.27 258.6,-11.17"/>
<polygon fill="#63b8ff" stroke="#63b8ff" points="258.52,-14.68 268.39,-10.81 258.27,-7.68 258.52,-14.68"/>
</a>
</g>
</g>
<!-- Node8 -->
<g id="Node000008" class="node">
<title>Node8</title>
<g id="a_Node000008"><a xlink:title=" ">
<polygon fill="#e0e0e0" stroke="#999999" points="122,-185 64,-185 64,-165.75 122,-165.75 122,-185"/>
<text text-anchor="middle" x="93" y="-171.5" font-family="Helvetica,sans-Serif" font-size="10.00">etl/array.h</text>
</a>
</g>
</g>
<!-- Node7&#45;&gt;Node8 -->
<g id="edge8_Node000007_Node000008" class="edge">
<title>Node7&#45;&gt;Node8</title>
<g id="a_edge8_Node000007_Node000008"><a xlink:title=" ">
<path fill="none" stroke="#63b8ff" d="M69.62,-220.83C73.25,-213.94 78.43,-204.09 82.99,-195.41"/>
<polygon fill="#63b8ff" stroke="#63b8ff" points="86.02,-197.18 87.57,-186.7 79.82,-193.92 86.02,-197.18"/>
</a>
</g>
</g>
<!-- Node9 -->
<g id="Node000009" class="node">
<title>Node9</title>
<g id="a_Node000009"><a xlink:href="aliases_8h.html" target="_top" xlink:title=" ">
<polygon fill="white" stroke="#666666" points="87.12,-129.75 32.88,-129.75 32.88,-110.5 87.12,-110.5 87.12,-129.75"/>
<text text-anchor="middle" x="60" y="-116.25" font-family="Helvetica,sans-Serif" font-size="10.00">aliases.h</text>
</a>
</g>
</g>
<!-- Node7&#45;&gt;Node9 -->
<g id="edge9_Node000007_Node000009" class="edge">
<title>Node7&#45;&gt;Node9</title>
<g id="a_edge9_Node000007_Node000009"><a xlink:title=" ">
<path fill="none" stroke="#63b8ff" d="M62.43,-220.83C59.95,-211.9 56.4,-197.63 55,-185 53.38,-170.41 54.76,-153.88 56.48,-141.29"/>
<polygon fill="#63b8ff" stroke="#63b8ff" points="59.89,-142.16 57.98,-131.73 52.97,-141.07 59.89,-142.16"/>
</a>
</g>
</g>
<!-- Node10 -->
<g id="Node000010" class="node">
<title>Node10</title>
<g id="a_Node000010"><a xlink:href="Humidistat_8h.html" target="_top" xlink:title=" ">
<polygon fill="white" stroke="#666666" points="248.38,-185 177.62,-185 177.62,-165.75 248.38,-165.75 248.38,-185"/>
<text text-anchor="middle" x="213" y="-171.5" font-family="Helvetica,sans-Serif" font-size="10.00">Humidistat.h</text>
</a>
</g>
</g>
<!-- Node7&#45;&gt;Node10 -->
<g id="edge10_Node000007_Node000010" class="edge">
<title>Node7&#45;&gt;Node10</title>
<g id="a_edge10_Node000007_Node000010"><a xlink:title=" ">
<path fill="none" stroke="#63b8ff" d="M90.11,-220.59C114.03,-211.99 150.28,-198.94 177.22,-189.25"/>
<polygon fill="#63b8ff" stroke="#63b8ff" points="178.12,-192.64 186.35,-185.96 175.75,-186.06 178.12,-192.64"/>
</a>
</g>
</g>
<!-- Node13 -->
<g id="Node000013" class="node">
<title>Node13</title>
<g id="a_Node000013"><a xlink:href="EEPROMConfig_8h.html" target="_top" xlink:title=" ">
<polygon fill="white" stroke="#666666" points="175.62,-74.5 76.38,-74.5 76.38,-55.25 175.62,-55.25 175.62,-74.5"/>
<text text-anchor="middle" x="126" y="-61" font-family="Helvetica,sans-Serif" font-size="10.00">../EEPROMConfig.h</text>
</a>
</g>
</g>
<!-- Node7&#45;&gt;Node13 -->
<g id="edge18_Node000007_Node000013" class="edge">
<title>Node7&#45;&gt;Node13</title>
<g id="a_edge18_Node000007_Node000013"><a xlink:title=" ">
<path fill="none" stroke="#63b8ff" d="M56.8,-220.59C38.94,-199.75 -0.06,-147.29 24,-110.5 33.9,-95.36 50.19,-85.33 66.88,-78.69"/>
<polygon fill="#63b8ff" stroke="#63b8ff" points="67.6,-82.15 75.84,-75.49 65.25,-75.56 67.6,-82.15"/>
</a>
</g>
</g>
<!-- Node10&#45;&gt;Node9 -->
<g id="edge11_Node000010_Node000009" class="edge">
<title>Node10&#45;&gt;Node9</title>
<g id="a_edge11_Node000010_Node000009"><a xlink:title=" ">
<path fill="none" stroke="#63b8ff" d="M187.05,-165.34C162.21,-156.7 124.5,-143.57 96.62,-133.87"/>
<polygon fill="#63b8ff" stroke="#63b8ff" points="98.11,-130.68 87.51,-130.7 95.81,-137.29 98.11,-130.68"/>
</a>
</g>
</g>
<!-- Node11 -->
<g id="Node000011" class="node">
<title>Node11</title>
<g id="a_Node000011"><a xlink:href="Controller_8h.html" target="_top" xlink:title=" ">
<polygon fill="white" stroke="#666666" points="245.38,-129.75 180.62,-129.75 180.62,-110.5 245.38,-110.5 245.38,-129.75"/>
<text text-anchor="middle" x="213" y="-116.25" font-family="Helvetica,sans-Serif" font-size="10.00">Controller.h</text>
</a>
</g>
</g>
<!-- Node10&#45;&gt;Node11 -->
<g id="edge12_Node000010_Node000011" class="edge">
<title>Node10&#45;&gt;Node11</title>
<g id="a_edge12_Node000010_Node000011"><a xlink:title=" ">
<path fill="none" stroke="#63b8ff" d="M213,-165.58C213,-159.07 213,-149.92 213,-141.62"/>
<polygon fill="#63b8ff" stroke="#63b8ff" points="216.5,-141.62 213,-131.62 209.5,-141.62 216.5,-141.62"/>
</a>
</g>
</g>
<!-- Node10&#45;&gt;Node13 -->
<g id="edge17_Node000010_Node000013" class="edge">
<title>Node10&#45;&gt;Node13</title>
<g id="a_edge17_Node000010_Node000013"><a xlink:title=" ">
<path fill="none" stroke="#63b8ff" d="M187.58,-165.3C171.21,-158.14 150.85,-146.54 139,-129.75 130,-117 126.93,-99.44 126,-85.97"/>
<polygon fill="#63b8ff" stroke="#63b8ff" points="129.5,-85.98 125.7,-76.1 122.51,-86.2 129.5,-85.98"/>
</a>
</g>
</g>
<!-- Node11&#45;&gt;Node2 -->
<g id="edge13_Node000011_Node000002" class="edge">
<title>Node11&#45;&gt;Node2</title>
<g id="a_edge13_Node000011_Node000002"><a xlink:title=" ">
<path fill="none" stroke="#63b8ff" d="M215.49,-110.19C219.41,-97.19 227.95,-72.7 241,-55.25 249.3,-44.15 260.86,-34.01 271.07,-26.2"/>
<polygon fill="#63b8ff" stroke="#63b8ff" points="273.04,-29.09 279.06,-20.38 268.92,-23.44 273.04,-29.09"/>
</a>
</g>
</g>
<!-- Node12 -->
<g id="Node000012" class="node">
<title>Node12</title>
<g id="a_Node000012"><a xlink:href="PID_8h.html" target="_top" xlink:title=" ">
<polygon fill="white" stroke="#666666" points="290,-74.5 250,-74.5 250,-55.25 290,-55.25 290,-74.5"/>
<text text-anchor="middle" x="270" y="-61" font-family="Helvetica,sans-Serif" font-size="10.00">PID.h</text>
</a>
</g>
</g>
<!-- Node11&#45;&gt;Node12 -->
<g id="edge14_Node000011_Node000012" class="edge">
<title>Node11&#45;&gt;Node12</title>
<g id="a_edge14_Node000011_Node000012"><a xlink:title=" ">
<path fill="none" stroke="#63b8ff" d="M222.67,-110.09C230.74,-102.55 242.47,-91.6 252.22,-82.48"/>
<polygon fill="#63b8ff" stroke="#63b8ff" points="254.45,-85.19 259.37,-75.81 249.67,-80.08 254.45,-85.19"/>
</a>
</g>
</g>
<!-- Node11&#45;&gt;Node13 -->
<g id="edge16_Node000011_Node000013" class="edge">
<title>Node11&#45;&gt;Node13</title>
<g id="a_edge16_Node000011_Node000013"><a xlink:title=" ">
<path fill="none" stroke="#63b8ff" d="M198.24,-110.09C185.12,-102.06 165.68,-90.16 150.27,-80.73"/>
<polygon fill="#63b8ff" stroke="#63b8ff" points="152.48,-77.98 142.12,-75.74 148.82,-83.95 152.48,-77.98"/>
</a>
</g>
</g>
<!-- Node12&#45;&gt;Node2 -->
<g id="edge15_Node000012_Node000002" class="edge">
<title>Node12&#45;&gt;Node2</title>
<g id="a_edge15_Node000012_Node000002"><a xlink:title=" ">
<path fill="none" stroke="#63b8ff" d="M273.96,-55.08C277.04,-48.26 281.41,-38.56 285.29,-29.95"/>
<polygon fill="#63b8ff" stroke="#63b8ff" points="288.41,-31.54 289.33,-20.99 282.03,-28.67 288.41,-31.54"/>
</a>
</g>
</g>
<!-- Node14&#45;&gt;Node3 -->
<g id="edge20_Node000014_Node000003" class="edge">
<title>Node14&#45;&gt;Node3</title>
<g id="a_edge20_Node000014_Node000003"><a xlink:title=" ">
<path fill="none" stroke="#63b8ff" d="M331.22,-220.59C352.02,-212.14 383.35,-199.4 407.05,-189.77"/>
<polygon fill="#63b8ff" stroke="#63b8ff" points="408.32,-193.03 416.27,-186.02 405.68,-186.55 408.32,-193.03"/>
</a>
</g>
</g>
<!-- Node14&#45;&gt;Node8 -->
<g id="edge21_Node000014_Node000008" class="edge">
<title>Node14&#45;&gt;Node8</title>
<g id="a_edge21_Node000014_Node000008"><a xlink:title=" ">
<path fill="none" stroke="#63b8ff" d="M272.36,-220.59C233.8,-211.09 173.27,-196.16 133.36,-186.33"/>
<polygon fill="#63b8ff" stroke="#63b8ff" points="134.2,-182.93 123.66,-183.93 132.53,-189.72 134.2,-182.93"/>
</a>
</g>
</g>
<!-- Node14&#45;&gt;Node9 -->
<g id="edge22_Node000014_Node000009" class="edge">
<title>Node14&#45;&gt;Node9</title>
<g id="a_edge22_Node000014_Node000009"><a xlink:title=" ">
<path fill="none" stroke="#63b8ff" d="M273.1,-220.55C244.33,-212.72 203.25,-200.27 169,-185 137.84,-171.11 104.3,-150.52 82.78,-136.5"/>
<polygon fill="#63b8ff" stroke="#63b8ff" points="84.78,-133.62 74.51,-131.03 80.93,-139.46 84.78,-133.62"/>
</a>
</g>
</g>
<!-- Node14&#45;&gt;Node10 -->
<g id="edge23_Node000014_Node000010" class="edge">
<title>Node14&#45;&gt;Node10</title>
<g id="a_edge23_Node000014_Node000010"><a xlink:title=" ">
<path fill="none" stroke="#63b8ff" d="M292.71,-220.59C278.1,-212.48 256.37,-200.43 239.29,-190.96"/>
<polygon fill="#63b8ff" stroke="#63b8ff" points="241.13,-187.98 230.69,-186.19 237.74,-194.1 241.13,-187.98"/>
</a>
</g>
</g>
<!-- Node15 -->
<g id="Node000015" class="node">
<title>Node15</title>
<g id="a_Node000015"><a xlink:href="FlowSensor_8h.html" target="_top" xlink:title=" ">
<polygon fill="white" stroke="#666666" points="416.5,-129.75 301.5,-129.75 301.5,-110.5 416.5,-110.5 416.5,-129.75"/>
<text text-anchor="middle" x="359" y="-116.25" font-family="Helvetica,sans-Serif" font-size="10.00">../sensor/FlowSensor.h</text>
</a>
</g>
</g>
<!-- Node14&#45;&gt;Node15 -->
<g id="edge24_Node000014_Node000015" class="edge">
<title>Node14&#45;&gt;Node15</title>
<g id="a_edge24_Node000014_Node000015"><a xlink:title=" ">
<path fill="none" stroke="#63b8ff" d="M325.79,-220.57C338.07,-212.91 353.8,-200.67 361,-185 367.32,-171.25 366.34,-154.02 364.04,-140.92"/>
<polygon fill="#63b8ff" stroke="#63b8ff" points="367.5,-140.38 361.95,-131.35 360.66,-141.87 367.5,-140.38"/>
</a>
</g>
</g>
<!-- Node17 -->
<g id="Node000017" class="node">
<title>Node17</title>
<g id="a_Node000017"><a xlink:href="FlowController_8h.html" target="_top" xlink:title=" ">
<polygon fill="white" stroke="#666666" points="351.88,-185 266.12,-185 266.12,-165.75 351.88,-165.75 351.88,-185"/>
<text text-anchor="middle" x="309" y="-171.5" font-family="Helvetica,sans-Serif" font-size="10.00">FlowController.h</text>
</a>
</g>
</g>
<!-- Node14&#45;&gt;Node17 -->
<g id="edge27_Node000014_Node000017" class="edge">
<title>Node14&#45;&gt;Node17</title>
<g id="a_edge27_Node000014_Node000017"><a xlink:title=" ">
<path fill="none" stroke="#63b8ff" d="M309,-220.83C309,-214.32 309,-205.17 309,-196.87"/>
<polygon fill="#63b8ff" stroke="#63b8ff" points="312.5,-196.87 309,-186.87 305.5,-196.87 312.5,-196.87"/>
</a>
</g>
</g>
<!-- Node15&#45;&gt;Node2 -->
<g id="edge25_Node000015_Node000002" class="edge">
<title>Node15&#45;&gt;Node2</title>
<g id="a_edge25_Node000015_Node000002"><a xlink:title=" ">
<path fill="none" stroke="#63b8ff" d="M353.68,-110.25C343.11,-92.6 319.27,-52.8 305.13,-29.2"/>
<polygon fill="#63b8ff" stroke="#63b8ff" points="308.31,-27.7 300.17,-20.93 302.31,-31.3 308.31,-27.7"/>
</a>
</g>
</g>
<!-- Node16 -->
<g id="Node000016" class="node">
<title>Node16</title>
<g id="a_Node000016"><a xlink:href="imath_8h.html" target="_top" xlink:title=" ">
<polygon fill="white" stroke="#666666" points="393.75,-74.5 346.25,-74.5 346.25,-55.25 393.75,-55.25 393.75,-74.5"/>
<text text-anchor="middle" x="370" y="-61" font-family="Helvetica,sans-Serif" font-size="10.00">imath.h</text>
</a>
</g>
</g>
<!-- Node15&#45;&gt;Node16 -->
<g id="edge26_Node000015_Node000016" class="edge">
<title>Node15&#45;&gt;Node16</title>
<g id="a_edge26_Node000015_Node000016"><a xlink:title=" ">
<path fill="none" stroke="#63b8ff" d="M360.82,-110.33C362.18,-103.74 364.1,-94.46 365.83,-86.07"/>
<polygon fill="#63b8ff" stroke="#63b8ff" points="369.24,-86.84 367.84,-76.34 362.39,-85.43 369.24,-86.84"/>
</a>
</g>
</g>
<!-- Node17&#45;&gt;Node11 -->
<g id="edge28_Node000017_Node000011" class="edge">
<title>Node17&#45;&gt;Node11</title>
<g id="a_edge28_Node000017_Node000011"><a xlink:title=" ">
<path fill="none" stroke="#63b8ff" d="M292.71,-165.34C278.1,-157.23 256.37,-145.18 239.29,-135.71"/>
<polygon fill="#63b8ff" stroke="#63b8ff" points="241.13,-132.73 230.69,-130.94 237.74,-138.85 241.13,-132.73"/>
</a>
</g>
</g>
<!-- Node17&#45;&gt;Node12 -->
<g id="edge29_Node000017_Node000012" class="edge">
<title>Node17&#45;&gt;Node12</title>
<g id="a_edge29_Node000017_Node000012"><a xlink:title=" ">
<path fill="none" stroke="#63b8ff" d="M305.81,-165.5C299.55,-148.09 285.55,-109.12 277.02,-85.41"/>
<polygon fill="#63b8ff" stroke="#63b8ff" points="280.42,-84.53 273.75,-76.3 273.84,-86.9 280.42,-84.53"/>
</a>
</g>
</g>
<!-- Node17&#45;&gt;Node13 -->
<g id="edge31_Node000017_Node000013" class="edge">
<title>Node17&#45;&gt;Node13</title>
<g id="a_edge31_Node000017_Node000013"><a xlink:title=" ">
<path fill="none" stroke="#63b8ff" d="M265.65,-167.51C236.97,-161.32 199.68,-149.96 172,-129.75 155.98,-118.05 143.33,-99.07 135.39,-84.84"/>
<polygon fill="#63b8ff" stroke="#63b8ff" points="138.5,-83.24 130.75,-76.01 132.3,-86.49 138.5,-83.24"/>
</a>
</g>
</g>
<!-- Node17&#45;&gt;Node15 -->
<g id="edge30_Node000017_Node000015" class="edge">
<title>Node17&#45;&gt;Node15</title>
<g id="a_edge30_Node000017_Node000015"><a xlink:title=" ">
<path fill="none" stroke="#63b8ff" d="M317.26,-165.58C324.16,-158.23 334.22,-147.51 342.74,-138.44"/>
<polygon fill="#63b8ff" stroke="#63b8ff" points="345.23,-140.9 349.53,-131.21 340.13,-136.11 345.23,-140.9"/>
</a>
</g>
</g>
<!-- Node18&#45;&gt;Node2 -->
<g id="edge33_Node000018_Node000002" class="edge">
<title>Node18&#45;&gt;Node2</title>
<g id="a_edge33_Node000018_Node000002"><a xlink:title=" ">
<path fill="none" stroke="#63b8ff" d="M488.78,-110.07C470.67,-96.91 435.37,-72.23 403,-55.25 378.94,-42.63 350.5,-31.09 328.71,-22.91"/>
<polygon fill="#63b8ff" stroke="#63b8ff" points="329.98,-19.65 319.39,-19.47 327.56,-26.22 329.98,-19.65"/>
</a>
</g>
</g>
</g>
</svg>
