<?xml version="1.0" encoding="UTF-8" standalone="no"?>
<!DOCTYPE svg PUBLIC "-//W3C//DTD SVG 1.1//EN"
 "http://www.w3.org/Graphics/SVG/1.1/DTD/svg11.dtd">
<!-- Generated by graphviz version 12.0.0 (20240704.0754)
 -->
<!-- Title: src/SetpointProfileRunner.cpp Pages: 1 -->
<svg width="337pt" height="304pt"
 viewBox="0.00 0.00 336.62 303.50" xmlns="http://www.w3.org/2000/svg" xmlns:xlink="http://www.w3.org/1999/xlink">
<g id="graph0" class="graph" transform="scale(1 1) rotate(0) translate(4 299.5)">
<title>src/SetpointProfileRunner.cpp</title>
<!-- Node1 -->
<g id="Node000001" class="node">
<title>Node1</title>
<g id="a_Node000001"><a xlink:title=" ">
<polygon fill="#999999" stroke="#666666" points="156.12,-295.5 11.88,-295.5 11.88,-276.25 156.12,-276.25 156.12,-295.5"/>
<text text-anchor="middle" x="84" y="-282" font-family="Helvetica,sans-Serif" font-size="10.00">src/SetpointProfileRunner.cpp</text>
</a>
</g>
</g>
<!-- Node2 -->
<g id="Node000002" class="node">
<title>Node2</title>
<g id="a_Node000002"><a xlink:href="SetpointProfileRunner_8h.html" target="_top" xlink:title=" ">
<polygon fill="white" stroke="#666666" points="142.62,-240.25 25.38,-240.25 25.38,-221 142.62,-221 142.62,-240.25"/>
<text text-anchor="middle" x="84" y="-226.75" font-family="Helvetica,sans-Serif" font-size="10.00">SetpointProfileRunner.h</text>
</a>
</g>
</g>
<!-- Node1&#45;&gt;Node2 -->
<g id="edge1_Node000001_Node000002" class="edge">
<title>Node1&#45;&gt;Node2</title>
<g id="a_edge1_Node000001_Node000002"><a xlink:title=" ">
<path fill="none" stroke="#63b8ff" d="M84,-276.08C84,-269.57 84,-260.42 84,-252.12"/>
<polygon fill="#63b8ff" stroke="#63b8ff" points="87.5,-252.12 84,-242.12 80.5,-252.12 87.5,-252.12"/>
</a>
</g>
</g>
<!-- Node3 -->
<g id="Node000003" class="node">
<title>Node3</title>
<g id="a_Node000003"><a xlink:title=" ">
<polygon fill="#e0e0e0" stroke="#999999" points="58,-129.75 0,-129.75 0,-110.5 58,-110.5 58,-129.75"/>
<text text-anchor="middle" x="29" y="-116.25" font-family="Helvetica,sans-Serif" font-size="10.00">etl/span.h</text>
</a>
</g>
</g>
<!-- Node2&#45;&gt;Node3 -->
<g id="edge2_Node000002_Node000003" class="edge">
<title>Node2&#45;&gt;Node3</title>
<g id="a_edge2_Node000002_Node000003"><a xlink:title=" ">
<path fill="none" stroke="#63b8ff" d="M76.33,-220.54C69.29,-211.86 58.92,-198.16 52,-185 44.6,-170.93 38.62,-153.95 34.61,-141.04"/>
<polygon fill="#63b8ff" stroke="#63b8ff" points="38,-140.18 31.81,-131.58 31.29,-142.16 38,-140.18"/>
</a>
</g>
</g>
<!-- Node4 -->
<g id="Node000004" class="node">
<title>Node4</title>
<g id="a_Node000004"><a xlink:href="Point_8h.html" target="_top" xlink:title=" ">
<polygon fill="white" stroke="#666666" points="107,-185 61,-185 61,-165.75 107,-165.75 107,-185"/>
<text text-anchor="middle" x="84" y="-171.5" font-family="Helvetica,sans-Serif" font-size="10.00">Point.h</text>
</a>
</g>
</g>
<!-- Node2&#45;&gt;Node4 -->
<g id="edge3_Node000002_Node000004" class="edge">
<title>Node2&#45;&gt;Node4</title>
<g id="a_edge3_Node000002_Node000004"><a xlink:title=" ">
<path fill="none" stroke="#63b8ff" d="M84,-220.83C84,-214.32 84,-205.17 84,-196.87"/>
<polygon fill="#63b8ff" stroke="#63b8ff" points="87.5,-196.87 84,-186.87 80.5,-196.87 87.5,-196.87"/>
</a>
</g>
</g>
<!-- Node6 -->
<g id="Node000006" class="node">
<title>Node6</title>
<g id="a_Node000006"><a xlink:href="Humidistat_8h.html" target="_top" xlink:title=" ">
<polygon fill="white" stroke="#666666" points="249.5,-185 146.5,-185 146.5,-165.75 249.5,-165.75 249.5,-185"/>
<text text-anchor="middle" x="198" y="-171.5" font-family="Helvetica,sans-Serif" font-size="10.00">control/Humidistat.h</text>
</a>
</g>
</g>
<!-- Node2&#45;&gt;Node6 -->
<g id="edge6_Node000002_Node000006" class="edge">
<title>Node2&#45;&gt;Node6</title>
<g id="a_edge6_Node000002_Node000006"><a xlink:title=" ">
<path fill="none" stroke="#63b8ff" d="M103.34,-220.59C121.11,-212.29 147.72,-199.86 168.2,-190.29"/>
<polygon fill="#63b8ff" stroke="#63b8ff" points="169.62,-193.5 177.2,-186.09 166.65,-187.15 169.62,-193.5"/>
</a>
</g>
</g>
<!-- Node4&#45;&gt;Node3 -->
<g id="edge5_Node000004_Node000003" class="edge">
<title>Node4&#45;&gt;Node3</title>
<g id="a_edge5_Node000004_Node000003"><a xlink:title=" ">
<path fill="none" stroke="#63b8ff" d="M74.92,-165.58C67.16,-158.07 55.79,-147.06 46.3,-137.88"/>
<polygon fill="#63b8ff" stroke="#63b8ff" points="48.99,-135.6 39.37,-131.16 44.12,-140.63 48.99,-135.6"/>
</a>
</g>
</g>
<!-- Node5 -->
<g id="Node000005" class="node">
<title>Node5</title>
<g id="a_Node000005"><a xlink:title=" ">
<polygon fill="#e0e0e0" stroke="#999999" points="166.75,-19.25 119.25,-19.25 119.25,0 166.75,0 166.75,-19.25"/>
<text text-anchor="middle" x="143" y="-5.75" font-family="Helvetica,sans-Serif" font-size="10.00">stdint.h</text>
</a>
</g>
</g>
<!-- Node4&#45;&gt;Node5 -->
<g id="edge4_Node000004_Node000005" class="edge">
<title>Node4&#45;&gt;Node5</title>
<g id="a_edge4_Node000004_Node000005"><a xlink:title=" ">
<path fill="none" stroke="#63b8ff" d="M86.73,-165.65C90.62,-153.32 98.06,-130.08 105,-110.5 114.95,-82.42 127.37,-50.27 135.25,-30.2"/>
<polygon fill="#63b8ff" stroke="#63b8ff" points="138.43,-31.66 138.85,-21.07 131.92,-29.09 138.43,-31.66"/>
</a>
</g>
</g>
<!-- Node7 -->
<g id="Node000007" class="node">
<title>Node7</title>
<g id="a_Node000007"><a xlink:href="aliases_8h.html" target="_top" xlink:title=" ">
<polygon fill="white" stroke="#666666" points="168.12,-129.75 113.88,-129.75 113.88,-110.5 168.12,-110.5 168.12,-129.75"/>
<text text-anchor="middle" x="141" y="-116.25" font-family="Helvetica,sans-Serif" font-size="10.00">aliases.h</text>
</a>
</g>
</g>
<!-- Node6&#45;&gt;Node7 -->
<g id="edge7_Node000006_Node000007" class="edge">
<title>Node6&#45;&gt;Node7</title>
<g id="a_edge7_Node000006_Node000007"><a xlink:title=" ">
<path fill="none" stroke="#63b8ff" d="M188.33,-165.34C180.26,-157.8 168.53,-146.85 158.78,-137.73"/>
<polygon fill="#63b8ff" stroke="#63b8ff" points="161.33,-135.33 151.63,-131.06 156.55,-140.44 161.33,-135.33"/>
</a>
</g>
</g>
<!-- Node8 -->
<g id="Node000008" class="node">
<title>Node8</title>
<g id="a_Node000008"><a xlink:href="Controller_8h.html" target="_top" xlink:title=" ">
<polygon fill="white" stroke="#666666" points="251.38,-129.75 186.62,-129.75 186.62,-110.5 251.38,-110.5 251.38,-129.75"/>
<text text-anchor="middle" x="219" y="-116.25" font-family="Helvetica,sans-Serif" font-size="10.00">Controller.h</text>
</a>
</g>
</g>
<!-- Node6&#45;&gt;Node8 -->
<g id="edge8_Node000006_Node000008" class="edge">
<title>Node6&#45;&gt;Node8</title>
<g id="a_edge8_Node000006_Node000008"><a xlink:title=" ">
<path fill="none" stroke="#63b8ff" d="M201.47,-165.58C204.13,-158.84 207.9,-149.27 211.26,-140.74"/>
<polygon fill="#63b8ff" stroke="#63b8ff" points="214.49,-142.1 214.9,-131.52 207.98,-139.54 214.49,-142.1"/>
</a>
</g>
</g>
<!-- Node10 -->
<g id="Node000010" class="node">
<title>Node10</title>
<g id="a_Node000010"><a xlink:href="EEPROMConfig_8h.html" target="_top" xlink:title=" ">
<polygon fill="white" stroke="#666666" points="328.62,-74.5 229.38,-74.5 229.38,-55.25 328.62,-55.25 328.62,-74.5"/>
<text text-anchor="middle" x="279" y="-61" font-family="Helvetica,sans-Serif" font-size="10.00">../EEPROMConfig.h</text>
</a>
</g>
</g>
<!-- Node6&#45;&gt;Node10 -->
<g id="edge13_Node000006_Node000010" class="edge">
<title>Node6&#45;&gt;Node10</title>
<g id="a_edge13_Node000006_Node000010"><a xlink:title=" ">
<path fill="none" stroke="#63b8ff" d="M216.58,-165.32C230.45,-157.66 248.86,-145.42 260,-129.75 269.14,-116.89 273.94,-99.6 276.42,-86.25"/>
<polygon fill="#63b8ff" stroke="#63b8ff" points="279.87,-86.85 277.93,-76.43 272.95,-85.78 279.87,-86.85"/>
</a>
</g>
</g>
<!-- Node8&#45;&gt;Node5 -->
<g id="edge9_Node000008_Node000005" class="edge">
<title>Node8&#45;&gt;Node5</title>
<g id="a_edge9_Node000008_Node000005"><a xlink:title=" ">
<path fill="none" stroke="#63b8ff" d="M202.45,-110.05C189.65,-102.22 172.4,-89.77 162,-74.5 153.12,-61.46 148.31,-44.18 145.75,-30.88"/>
<polygon fill="#63b8ff" stroke="#63b8ff" points="149.22,-30.43 144.17,-21.11 142.31,-31.54 149.22,-30.43"/>
</a>
</g>
</g>
<!-- Node9 -->
<g id="Node000009" class="node">
<title>Node9</title>
<g id="a_Node000009"><a xlink:href="PID_8h.html" target="_top" xlink:title=" ">
<polygon fill="white" stroke="#666666" points="211,-74.5 171,-74.5 171,-55.25 211,-55.25 211,-74.5"/>
<text text-anchor="middle" x="191" y="-61" font-family="Helvetica,sans-Serif" font-size="10.00">PID.h</text>
</a>
</g>
</g>
<!-- Node8&#45;&gt;Node9 -->
<g id="edge10_Node000008_Node000009" class="edge">
<title>Node8&#45;&gt;Node9</title>
<g id="a_edge10_Node000008_Node000009"><a xlink:title=" ">
<path fill="none" stroke="#63b8ff" d="M214.38,-110.33C210.75,-103.44 205.57,-93.59 201.01,-84.91"/>
<polygon fill="#63b8ff" stroke="#63b8ff" points="204.18,-83.42 196.43,-76.2 197.98,-86.68 204.18,-83.42"/>
</a>
</g>
</g>
<!-- Node8&#45;&gt;Node10 -->
<g id="edge12_Node000008_Node000010" class="edge">
<title>Node8&#45;&gt;Node10</title>
<g id="a_edge12_Node000008_Node000010"><a xlink:title=" ">
<path fill="none" stroke="#63b8ff" d="M229.18,-110.09C237.76,-102.47 250.27,-91.37 260.6,-82.2"/>
<polygon fill="#63b8ff" stroke="#63b8ff" points="262.68,-85.04 267.84,-75.78 258.04,-79.8 262.68,-85.04"/>
</a>
</g>
</g>
<!-- Node9&#45;&gt;Node5 -->
<g id="edge11_Node000009_Node000005" class="edge">
<title>Node9&#45;&gt;Node5</title>
<g id="a_edge11_Node000009_Node000005"><a xlink:title=" ">
<path fill="none" stroke="#63b8ff" d="M183.07,-55.08C176.44,-47.73 166.78,-37.01 158.61,-27.94"/>
<polygon fill="#63b8ff" stroke="#63b8ff" points="161.41,-25.82 152.11,-20.73 156.21,-30.5 161.41,-25.82"/>
</a>
</g>
</g>
</g>
</svg>
