<?xml version="1.0" encoding="UTF-8" standalone="no"?>
<!DOCTYPE svg PUBLIC "-//W3C//DTD SVG 1.1//EN"
 "http://www.w3.org/Graphics/SVG/1.1/DTD/svg11.dtd">
<!-- Generated by graphviz version 12.0.0 (20240704.0754)
 -->
<!-- Title: src/sensor/SHTHumiditySensor.cpp Pages: 1 -->
<svg width="208pt" height="138pt"
 viewBox="0.00 0.00 208.25 137.75" xmlns="http://www.w3.org/2000/svg" xmlns:xlink="http://www.w3.org/1999/xlink">
<g id="graph0" class="graph" transform="scale(1 1) rotate(0) translate(4 133.75)">
<title>src/sensor/SHTHumiditySensor.cpp</title>
<!-- Node1 -->
<g id="Node000001" class="node">
<title>Node1</title>
<g id="a_Node000001"><a xlink:title=" ">
<polygon fill="#999999" stroke="#666666" points="172,-129.75 0,-129.75 0,-110.5 172,-110.5 172,-129.75"/>
<text text-anchor="middle" x="86" y="-116.25" font-family="Helvetica,sans-Serif" font-size="10.00">src/sensor/SHTHumiditySensor.cpp</text>
</a>
</g>
</g>
<!-- Node2 -->
<g id="Node000002" class="node">
<title>Node2</title>
<g id="a_Node000002"><a xlink:href="SHTHumiditySensor_8h.html" target="_top" xlink:title=" ">
<polygon fill="white" stroke="#666666" points="142.38,-74.5 29.62,-74.5 29.62,-55.25 142.38,-55.25 142.38,-74.5"/>
<text text-anchor="middle" x="86" y="-61" font-family="Helvetica,sans-Serif" font-size="10.00">SHTHumiditySensor.h</text>
</a>
</g>
</g>
<!-- Node1&#45;&gt;Node2 -->
<g id="edge1_Node000001_Node000002" class="edge">
<title>Node1&#45;&gt;Node2</title>
<g id="a_edge1_Node000001_Node000002"><a xlink:title=" ">
<path fill="none" stroke="#63b8ff" d="M86,-110.33C86,-103.82 86,-94.67 86,-86.37"/>
<polygon fill="#63b8ff" stroke="#63b8ff" points="89.5,-86.37 86,-76.37 82.5,-86.37 89.5,-86.37"/>
</a>
</g>
</g>
<!-- Node3 -->
<g id="Node000003" class="node">
<title>Node3</title>
<g id="a_Node000003"><a xlink:title=" ">
<polygon fill="#e0e0e0" stroke="#999999" points="46.62,-19.25 1.38,-19.25 1.38,0 46.62,0 46.62,-19.25"/>
<text text-anchor="middle" x="24" y="-5.75" font-family="Helvetica,sans-Serif" font-size="10.00">math.h</text>
</a>
</g>
</g>
<!-- Node2&#45;&gt;Node3 -->
<g id="edge2_Node000002_Node000003" class="edge">
<title>Node2&#45;&gt;Node3</title>
<g id="a_edge2_Node000002_Node000003"><a xlink:title=" ">
<path fill="none" stroke="#63b8ff" d="M75.48,-54.84C66.61,-47.22 53.69,-36.12 43.01,-26.95"/>
<polygon fill="#63b8ff" stroke="#63b8ff" points="45.38,-24.37 35.51,-20.51 40.82,-29.68 45.38,-24.37"/>
</a>
</g>
</g>
<!-- Node4 -->
<g id="Node000004" class="node">
<title>Node4</title>
<g id="a_Node000004"><a xlink:title=" ">
<polygon fill="#e0e0e0" stroke="#999999" points="107.5,-19.25 64.5,-19.25 64.5,0 107.5,0 107.5,-19.25"/>
<text text-anchor="middle" x="86" y="-5.75" font-family="Helvetica,sans-Serif" font-size="10.00">Wire.h</text>
</a>
</g>
</g>
<!-- Node2&#45;&gt;Node4 -->
<g id="edge3_Node000002_Node000004" class="edge">
<title>Node2&#45;&gt;Node4</title>
<g id="a_edge3_Node000002_Node000004"><a xlink:title=" ">
<path fill="none" stroke="#63b8ff" d="M86,-55.08C86,-48.57 86,-39.42 86,-31.12"/>
<polygon fill="#63b8ff" stroke="#63b8ff" points="89.5,-31.12 86,-21.12 82.5,-31.12 89.5,-31.12"/>
</a>
</g>
</g>
<!-- Node5 -->
<g id="Node000005" class="node">
<title>Node5</title>
<g id="a_Node000005"><a xlink:title=" ">
<polygon fill="#e0e0e0" stroke="#999999" points="200.25,-19.25 125.75,-19.25 125.75,0 200.25,0 200.25,-19.25"/>
<text text-anchor="middle" x="163" y="-5.75" font-family="Helvetica,sans-Serif" font-size="10.00">SHTSensor.h</text>
</a>
</g>
</g>
<!-- Node2&#45;&gt;Node5 -->
<g id="edge4_Node000002_Node000005" class="edge">
<title>Node2&#45;&gt;Node5</title>
<g id="a_edge4_Node000002_Node000005"><a xlink:title=" ">
<path fill="none" stroke="#63b8ff" d="M99.06,-54.84C110.46,-46.96 127.23,-35.36 140.74,-26.02"/>
<polygon fill="#63b8ff" stroke="#63b8ff" points="142.4,-29.13 148.63,-20.56 138.41,-23.37 142.4,-29.13"/>
</a>
</g>
</g>
</g>
</svg>
