<?xml version="1.0" encoding="UTF-8" standalone="no"?>
<!DOCTYPE svg PUBLIC "-//W3C//DTD SVG 1.1//EN"
 "http://www.w3.org/Graphics/SVG/1.1/DTD/svg11.dtd">
<!-- Generated by graphviz version 12.0.0 (20240704.0754)
 -->
<!-- Title: src/control/SingleHumidistat.cpp Pages: 1 -->
<svg width="300pt" height="304pt"
 viewBox="0.00 0.00 299.88 303.50" xmlns="http://www.w3.org/2000/svg" xmlns:xlink="http://www.w3.org/1999/xlink">
<g id="graph0" class="graph" transform="scale(1 1) rotate(0) translate(4 299.5)">
<title>src/control/SingleHumidistat.cpp</title>
<!-- Node1 -->
<g id="Node000001" class="node">
<title>Node1</title>
<g id="a_Node000001"><a xlink:title=" ">
<polygon fill="#999999" stroke="#666666" points="201.75,-295.5 44.75,-295.5 44.75,-276.25 201.75,-276.25 201.75,-295.5"/>
<text text-anchor="middle" x="123.25" y="-282" font-family="Helvetica,sans-Serif" font-size="10.00">src/control/SingleHumidistat.cpp</text>
</a>
</g>
</g>
<!-- Node2 -->
<g id="Node000002" class="node">
<title>Node2</title>
<g id="a_Node000002"><a xlink:title=" ">
<polygon fill="#e0e0e0" stroke="#999999" points="56.5,-240.25 0,-240.25 0,-221 56.5,-221 56.5,-240.25"/>
<text text-anchor="middle" x="28.25" y="-226.75" font-family="Helvetica,sans-Serif" font-size="10.00">Arduino.h</text>
</a>
</g>
</g>
<!-- Node1&#45;&gt;Node2 -->
<g id="edge1_Node000001_Node000002" class="edge">
<title>Node1&#45;&gt;Node2</title>
<g id="a_edge1_Node000001_Node000002"><a xlink:title=" ">
<path fill="none" stroke="#63b8ff" d="M107.13,-275.84C92.67,-267.73 71.17,-255.68 54.27,-246.21"/>
<polygon fill="#63b8ff" stroke="#63b8ff" points="56.2,-243.28 45.76,-241.44 52.78,-249.39 56.2,-243.28"/>
</a>
</g>
</g>
<!-- Node3 -->
<g id="Node000003" class="node">
<title>Node3</title>
<g id="a_Node000003"><a xlink:href="SingleHumidistat_8h.html" target="_top" xlink:title=" ">
<polygon fill="white" stroke="#666666" points="172.12,-240.25 74.38,-240.25 74.38,-221 172.12,-221 172.12,-240.25"/>
<text text-anchor="middle" x="123.25" y="-226.75" font-family="Helvetica,sans-Serif" font-size="10.00">SingleHumidistat.h</text>
</a>
</g>
</g>
<!-- Node1&#45;&gt;Node3 -->
<g id="edge2_Node000001_Node000003" class="edge">
<title>Node1&#45;&gt;Node3</title>
<g id="a_edge2_Node000001_Node000003"><a xlink:title=" ">
<path fill="none" stroke="#63b8ff" d="M123.25,-276.08C123.25,-269.57 123.25,-260.42 123.25,-252.12"/>
<polygon fill="#63b8ff" stroke="#63b8ff" points="126.75,-252.12 123.25,-242.12 119.75,-252.12 126.75,-252.12"/>
</a>
</g>
</g>
<!-- Node11 -->
<g id="Node000011" class="node">
<title>Node11</title>
<g id="a_Node000011"><a xlink:href="imath_8h.html" target="_top" xlink:title=" ">
<polygon fill="white" stroke="#666666" points="238,-240.25 190.5,-240.25 190.5,-221 238,-221 238,-240.25"/>
<text text-anchor="middle" x="214.25" y="-226.75" font-family="Helvetica,sans-Serif" font-size="10.00">imath.h</text>
</a>
</g>
</g>
<!-- Node1&#45;&gt;Node11 -->
<g id="edge15_Node000001_Node000011" class="edge">
<title>Node1&#45;&gt;Node11</title>
<g id="a_edge15_Node000001_Node000011"><a xlink:title=" ">
<path fill="none" stroke="#63b8ff" d="M138.69,-275.84C152.41,-267.81 172.75,-255.91 188.87,-246.48"/>
<polygon fill="#63b8ff" stroke="#63b8ff" points="190.57,-249.54 197.43,-241.47 187.03,-243.5 190.57,-249.54"/>
</a>
</g>
</g>
<!-- Node4 -->
<g id="Node000004" class="node">
<title>Node4</title>
<g id="a_Node000004"><a xlink:title=" ">
<polygon fill="#e0e0e0" stroke="#999999" points="130,-19.25 82.5,-19.25 82.5,0 130,0 130,-19.25"/>
<text text-anchor="middle" x="106.25" y="-5.75" font-family="Helvetica,sans-Serif" font-size="10.00">stdint.h</text>
</a>
</g>
</g>
<!-- Node3&#45;&gt;Node4 -->
<g id="edge3_Node000003_Node000004" class="edge">
<title>Node3&#45;&gt;Node4</title>
<g id="a_edge3_Node000003_Node000004"><a xlink:title=" ">
<path fill="none" stroke="#63b8ff" d="M80.24,-220.53C60.86,-214.05 39.78,-203.15 28.25,-185 -6.04,-131.01 55.61,-59.39 88.1,-27.36"/>
<polygon fill="#63b8ff" stroke="#63b8ff" points="90.5,-29.91 95.3,-20.47 85.65,-24.86 90.5,-29.91"/>
</a>
</g>
</g>
<!-- Node5 -->
<g id="Node000005" class="node">
<title>Node5</title>
<g id="a_Node000005"><a xlink:title=" ">
<polygon fill="#e0e0e0" stroke="#999999" points="95.25,-185 37.25,-185 37.25,-165.75 95.25,-165.75 95.25,-185"/>
<text text-anchor="middle" x="66.25" y="-171.5" font-family="Helvetica,sans-Serif" font-size="10.00">etl/array.h</text>
</a>
</g>
</g>
<!-- Node3&#45;&gt;Node5 -->
<g id="edge4_Node000003_Node000005" class="edge">
<title>Node3&#45;&gt;Node5</title>
<g id="a_edge4_Node000003_Node000005"><a xlink:title=" ">
<path fill="none" stroke="#63b8ff" d="M113.58,-220.59C105.51,-213.05 93.78,-202.1 84.03,-192.98"/>
<polygon fill="#63b8ff" stroke="#63b8ff" points="86.58,-190.58 76.88,-186.31 81.8,-195.69 86.58,-190.58"/>
</a>
</g>
</g>
<!-- Node6 -->
<g id="Node000006" class="node">
<title>Node6</title>
<g id="a_Node000006"><a xlink:href="aliases_8h.html" target="_top" xlink:title=" ">
<polygon fill="white" stroke="#666666" points="117.38,-129.75 63.12,-129.75 63.12,-110.5 117.38,-110.5 117.38,-129.75"/>
<text text-anchor="middle" x="90.25" y="-116.25" font-family="Helvetica,sans-Serif" font-size="10.00">aliases.h</text>
</a>
</g>
</g>
<!-- Node3&#45;&gt;Node6 -->
<g id="edge5_Node000003_Node000006" class="edge">
<title>Node3&#45;&gt;Node6</title>
<g id="a_edge5_Node000003_Node000006"><a xlink:title=" ">
<path fill="none" stroke="#63b8ff" d="M120.59,-220.52C116.95,-208.11 110.2,-185.22 104.25,-165.75 101.76,-157.6 98.96,-148.62 96.52,-140.88"/>
<polygon fill="#63b8ff" stroke="#63b8ff" points="99.89,-139.93 93.53,-131.45 93.21,-142.04 99.89,-139.93"/>
</a>
</g>
</g>
<!-- Node7 -->
<g id="Node000007" class="node">
<title>Node7</title>
<g id="a_Node000007"><a xlink:href="Humidistat_8h.html" target="_top" xlink:title=" ">
<polygon fill="white" stroke="#666666" points="221.62,-185 150.88,-185 150.88,-165.75 221.62,-165.75 221.62,-185"/>
<text text-anchor="middle" x="186.25" y="-171.5" font-family="Helvetica,sans-Serif" font-size="10.00">Humidistat.h</text>
</a>
</g>
</g>
<!-- Node3&#45;&gt;Node7 -->
<g id="edge6_Node000003_Node000007" class="edge">
<title>Node3&#45;&gt;Node7</title>
<g id="a_edge6_Node000003_Node000007"><a xlink:title=" ">
<path fill="none" stroke="#63b8ff" d="M133.94,-220.59C142.95,-212.97 156.08,-201.87 166.93,-192.7"/>
<polygon fill="#63b8ff" stroke="#63b8ff" points="169.19,-195.38 174.56,-186.25 164.67,-190.03 169.19,-195.38"/>
</a>
</g>
</g>
<!-- Node10 -->
<g id="Node000010" class="node">
<title>Node10</title>
<g id="a_Node000010"><a xlink:href="EEPROMConfig_8h.html" target="_top" xlink:title=" ">
<polygon fill="white" stroke="#666666" points="291.88,-74.5 192.62,-74.5 192.62,-55.25 291.88,-55.25 291.88,-74.5"/>
<text text-anchor="middle" x="242.25" y="-61" font-family="Helvetica,sans-Serif" font-size="10.00">../EEPROMConfig.h</text>
</a>
</g>
</g>
<!-- Node3&#45;&gt;Node10 -->
<g id="edge14_Node000003_Node000010" class="edge">
<title>Node3&#45;&gt;Node10</title>
<g id="a_edge14_Node000003_Node000010"><a xlink:title=" ">
<path fill="none" stroke="#63b8ff" d="M172.6,-220.76C193.67,-214.39 216.52,-203.51 230.25,-185 251.75,-156 249.6,-111.53 246,-85.92"/>
<polygon fill="#63b8ff" stroke="#63b8ff" points="249.48,-85.51 244.4,-76.21 242.57,-86.65 249.48,-85.51"/>
</a>
</g>
</g>
<!-- Node7&#45;&gt;Node6 -->
<g id="edge7_Node000007_Node000006" class="edge">
<title>Node7&#45;&gt;Node6</title>
<g id="a_edge7_Node000007_Node000006"><a xlink:title=" ">
<path fill="none" stroke="#63b8ff" d="M169.96,-165.34C155.35,-157.23 133.62,-145.18 116.54,-135.71"/>
<polygon fill="#63b8ff" stroke="#63b8ff" points="118.38,-132.73 107.94,-130.94 114.99,-138.85 118.38,-132.73"/>
</a>
</g>
</g>
<!-- Node8 -->
<g id="Node000008" class="node">
<title>Node8</title>
<g id="a_Node000008"><a xlink:href="Controller_8h.html" target="_top" xlink:title=" ">
<polygon fill="white" stroke="#666666" points="200.62,-129.75 135.88,-129.75 135.88,-110.5 200.62,-110.5 200.62,-129.75"/>
<text text-anchor="middle" x="168.25" y="-116.25" font-family="Helvetica,sans-Serif" font-size="10.00">Controller.h</text>
</a>
</g>
</g>
<!-- Node7&#45;&gt;Node8 -->
<g id="edge8_Node000007_Node000008" class="edge">
<title>Node7&#45;&gt;Node8</title>
<g id="a_edge8_Node000007_Node000008"><a xlink:title=" ">
<path fill="none" stroke="#63b8ff" d="M183.28,-165.58C181,-158.84 177.76,-149.27 174.88,-140.74"/>
<polygon fill="#63b8ff" stroke="#63b8ff" points="178.29,-139.9 171.77,-131.54 171.66,-142.14 178.29,-139.9"/>
</a>
</g>
</g>
<!-- Node7&#45;&gt;Node10 -->
<g id="edge13_Node000007_Node000010" class="edge">
<title>Node7&#45;&gt;Node10</title>
<g id="a_edge13_Node000007_Node000010"><a xlink:title=" ">
<path fill="none" stroke="#63b8ff" d="M190.83,-165.5C199.86,-148.01 220.11,-108.77 232.33,-85.09"/>
<polygon fill="#63b8ff" stroke="#63b8ff" points="235.43,-86.71 236.91,-76.22 229.21,-83.5 235.43,-86.71"/>
</a>
</g>
</g>
<!-- Node8&#45;&gt;Node4 -->
<g id="edge9_Node000008_Node000004" class="edge">
<title>Node8&#45;&gt;Node4</title>
<g id="a_edge9_Node000008_Node000004"><a xlink:title=" ">
<path fill="none" stroke="#63b8ff" d="M156.81,-110.01C147.1,-101.71 133.49,-88.63 125.25,-74.5 117.3,-60.87 112.43,-43.63 109.61,-30.5"/>
<polygon fill="#63b8ff" stroke="#63b8ff" points="113.09,-30.07 107.79,-20.9 106.22,-31.38 113.09,-30.07"/>
</a>
</g>
</g>
<!-- Node9 -->
<g id="Node000009" class="node">
<title>Node9</title>
<g id="a_Node000009"><a xlink:href="PID_8h.html" target="_top" xlink:title=" ">
<polygon fill="white" stroke="#666666" points="174.25,-74.5 134.25,-74.5 134.25,-55.25 174.25,-55.25 174.25,-74.5"/>
<text text-anchor="middle" x="154.25" y="-61" font-family="Helvetica,sans-Serif" font-size="10.00">PID.h</text>
</a>
</g>
</g>
<!-- Node8&#45;&gt;Node9 -->
<g id="edge10_Node000008_Node000009" class="edge">
<title>Node8&#45;&gt;Node9</title>
<g id="a_edge10_Node000008_Node000009"><a xlink:title=" ">
<path fill="none" stroke="#63b8ff" d="M165.94,-110.33C164.19,-103.67 161.71,-94.24 159.48,-85.78"/>
<polygon fill="#63b8ff" stroke="#63b8ff" points="162.92,-85.1 157,-76.32 156.15,-86.88 162.92,-85.1"/>
</a>
</g>
</g>
<!-- Node8&#45;&gt;Node10 -->
<g id="edge12_Node000008_Node000010" class="edge">
<title>Node8&#45;&gt;Node10</title>
<g id="a_edge12_Node000008_Node000010"><a xlink:title=" ">
<path fill="none" stroke="#63b8ff" d="M180.8,-110.09C191.71,-102.24 207.75,-90.7 220.71,-81.37"/>
<polygon fill="#63b8ff" stroke="#63b8ff" points="222.58,-84.34 228.65,-75.66 218.49,-78.66 222.58,-84.34"/>
</a>
</g>
</g>
<!-- Node9&#45;&gt;Node4 -->
<g id="edge11_Node000009_Node000004" class="edge">
<title>Node9&#45;&gt;Node4</title>
<g id="a_edge11_Node000009_Node000004"><a xlink:title=" ">
<path fill="none" stroke="#63b8ff" d="M146.32,-55.08C139.69,-47.73 130.03,-37.01 121.86,-27.94"/>
<polygon fill="#63b8ff" stroke="#63b8ff" points="124.66,-25.82 115.36,-20.73 119.46,-30.5 124.66,-25.82"/>
</a>
</g>
</g>
</g>
</svg>
