<?xml version="1.0" encoding="UTF-8" standalone="no"?>
<!DOCTYPE svg PUBLIC "-//W3C//DTD SVG 1.1//EN"
 "http://www.w3.org/Graphics/SVG/1.1/DTD/svg11.dtd">
<!-- Generated by graphviz version 12.0.0 (20240704.0754)
 -->
<!-- Title: src/control/SingleHumidistat.h Pages: 1 -->
<svg width="282pt" height="248pt"
 viewBox="0.00 0.00 282.04 248.25" xmlns="http://www.w3.org/2000/svg" xmlns:xlink="http://www.w3.org/1999/xlink">
<g id="graph0" class="graph" transform="scale(1 1) rotate(0) translate(4 244.25)">
<title>src/control/SingleHumidistat.h</title>
<!-- Node1 -->
<g id="Node000001" class="node">
<title>Node1</title>
<g id="a_Node000001"><a xlink:title=" ">
<polygon fill="#999999" stroke="#666666" points="178.67,-240.25 32.17,-240.25 32.17,-221 178.67,-221 178.67,-240.25"/>
<text text-anchor="middle" x="105.42" y="-226.75" font-family="Helvetica,sans-Serif" font-size="10.00">src/control/SingleHumidistat.h</text>
</a>
</g>
</g>
<!-- Node2 -->
<g id="Node000002" class="node">
<title>Node2</title>
<g id="a_Node000002"><a xlink:title=" ">
<polygon fill="#e0e0e0" stroke="#999999" points="112.17,-19.25 64.67,-19.25 64.67,0 112.17,0 112.17,-19.25"/>
<text text-anchor="middle" x="88.42" y="-5.75" font-family="Helvetica,sans-Serif" font-size="10.00">stdint.h</text>
</a>
</g>
</g>
<!-- Node1&#45;&gt;Node2 -->
<g id="edge1_Node000001_Node000002" class="edge">
<title>Node1&#45;&gt;Node2</title>
<g id="a_edge1_Node000001_Node000002"><a xlink:title=" ">
<path fill="none" stroke="#63b8ff" d="M62.41,-220.53C43.03,-214.05 21.94,-203.15 10.42,-185 -23.87,-131.01 37.78,-59.39 70.27,-27.36"/>
<polygon fill="#63b8ff" stroke="#63b8ff" points="72.66,-29.91 77.46,-20.47 67.82,-24.86 72.66,-29.91"/>
</a>
</g>
</g>
<!-- Node3 -->
<g id="Node000003" class="node">
<title>Node3</title>
<g id="a_Node000003"><a xlink:title=" ">
<polygon fill="#e0e0e0" stroke="#999999" points="77.42,-185 19.42,-185 19.42,-165.75 77.42,-165.75 77.42,-185"/>
<text text-anchor="middle" x="48.42" y="-171.5" font-family="Helvetica,sans-Serif" font-size="10.00">etl/array.h</text>
</a>
</g>
</g>
<!-- Node1&#45;&gt;Node3 -->
<g id="edge2_Node000001_Node000003" class="edge">
<title>Node1&#45;&gt;Node3</title>
<g id="a_edge2_Node000001_Node000003"><a xlink:title=" ">
<path fill="none" stroke="#63b8ff" d="M95.75,-220.59C87.67,-213.05 75.95,-202.1 66.19,-192.98"/>
<polygon fill="#63b8ff" stroke="#63b8ff" points="68.75,-190.58 59.05,-186.31 63.97,-195.69 68.75,-190.58"/>
</a>
</g>
</g>
<!-- Node4 -->
<g id="Node000004" class="node">
<title>Node4</title>
<g id="a_Node000004"><a xlink:href="aliases_8h.html" target="_top" xlink:title=" ">
<polygon fill="white" stroke="#666666" points="99.54,-129.75 45.29,-129.75 45.29,-110.5 99.54,-110.5 99.54,-129.75"/>
<text text-anchor="middle" x="72.42" y="-116.25" font-family="Helvetica,sans-Serif" font-size="10.00">aliases.h</text>
</a>
</g>
</g>
<!-- Node1&#45;&gt;Node4 -->
<g id="edge3_Node000001_Node000004" class="edge">
<title>Node1&#45;&gt;Node4</title>
<g id="a_edge3_Node000001_Node000004"><a xlink:title=" ">
<path fill="none" stroke="#63b8ff" d="M102.75,-220.52C99.12,-208.11 92.37,-185.22 86.42,-165.75 83.93,-157.6 81.12,-148.62 78.68,-140.88"/>
<polygon fill="#63b8ff" stroke="#63b8ff" points="82.05,-139.93 75.7,-131.45 75.38,-142.04 82.05,-139.93"/>
</a>
</g>
</g>
<!-- Node5 -->
<g id="Node000005" class="node">
<title>Node5</title>
<g id="a_Node000005"><a xlink:href="Humidistat_8h.html" target="_top" xlink:title=" ">
<polygon fill="white" stroke="#666666" points="203.79,-185 133.04,-185 133.04,-165.75 203.79,-165.75 203.79,-185"/>
<text text-anchor="middle" x="168.42" y="-171.5" font-family="Helvetica,sans-Serif" font-size="10.00">Humidistat.h</text>
</a>
</g>
</g>
<!-- Node1&#45;&gt;Node5 -->
<g id="edge4_Node000001_Node000005" class="edge">
<title>Node1&#45;&gt;Node5</title>
<g id="a_edge4_Node000001_Node000005"><a xlink:title=" ">
<path fill="none" stroke="#63b8ff" d="M116.1,-220.59C125.12,-212.97 138.25,-201.87 149.1,-192.7"/>
<polygon fill="#63b8ff" stroke="#63b8ff" points="151.35,-195.38 156.73,-186.25 146.83,-190.03 151.35,-195.38"/>
</a>
</g>
</g>
<!-- Node8 -->
<g id="Node000008" class="node">
<title>Node8</title>
<g id="a_Node000008"><a xlink:href="EEPROMConfig_8h.html" target="_top" xlink:title=" ">
<polygon fill="white" stroke="#666666" points="274.04,-74.5 174.79,-74.5 174.79,-55.25 274.04,-55.25 274.04,-74.5"/>
<text text-anchor="middle" x="224.42" y="-61" font-family="Helvetica,sans-Serif" font-size="10.00">../EEPROMConfig.h</text>
</a>
</g>
</g>
<!-- Node1&#45;&gt;Node8 -->
<g id="edge12_Node000001_Node000008" class="edge">
<title>Node1&#45;&gt;Node8</title>
<g id="a_edge12_Node000001_Node000008"><a xlink:title=" ">
<path fill="none" stroke="#63b8ff" d="M155.6,-220.51C176.43,-214.1 198.87,-203.27 212.42,-185 233.92,-156 231.77,-111.53 228.16,-85.92"/>
<polygon fill="#63b8ff" stroke="#63b8ff" points="231.64,-85.51 226.56,-76.21 224.74,-86.65 231.64,-85.51"/>
</a>
</g>
</g>
<!-- Node5&#45;&gt;Node4 -->
<g id="edge5_Node000005_Node000004" class="edge">
<title>Node5&#45;&gt;Node4</title>
<g id="a_edge5_Node000005_Node000004"><a xlink:title=" ">
<path fill="none" stroke="#63b8ff" d="M152.13,-165.34C137.51,-157.23 115.79,-145.18 98.71,-135.71"/>
<polygon fill="#63b8ff" stroke="#63b8ff" points="100.55,-132.73 90.11,-130.94 97.15,-138.85 100.55,-132.73"/>
</a>
</g>
</g>
<!-- Node6 -->
<g id="Node000006" class="node">
<title>Node6</title>
<g id="a_Node000006"><a xlink:href="Controller_8h.html" target="_top" xlink:title=" ">
<polygon fill="white" stroke="#666666" points="182.79,-129.75 118.04,-129.75 118.04,-110.5 182.79,-110.5 182.79,-129.75"/>
<text text-anchor="middle" x="150.42" y="-116.25" font-family="Helvetica,sans-Serif" font-size="10.00">Controller.h</text>
</a>
</g>
</g>
<!-- Node5&#45;&gt;Node6 -->
<g id="edge6_Node000005_Node000006" class="edge">
<title>Node5&#45;&gt;Node6</title>
<g id="a_edge6_Node000005_Node000006"><a xlink:title=" ">
<path fill="none" stroke="#63b8ff" d="M165.44,-165.58C163.17,-158.84 159.93,-149.27 157.05,-140.74"/>
<polygon fill="#63b8ff" stroke="#63b8ff" points="160.46,-139.9 153.94,-131.54 153.82,-142.14 160.46,-139.9"/>
</a>
</g>
</g>
<!-- Node5&#45;&gt;Node8 -->
<g id="edge11_Node000005_Node000008" class="edge">
<title>Node5&#45;&gt;Node8</title>
<g id="a_edge11_Node000005_Node000008"><a xlink:title=" ">
<path fill="none" stroke="#63b8ff" d="M173,-165.5C182.02,-148.01 202.28,-108.77 214.5,-85.09"/>
<polygon fill="#63b8ff" stroke="#63b8ff" points="217.6,-86.71 219.08,-76.22 211.38,-83.5 217.6,-86.71"/>
</a>
</g>
</g>
<!-- Node6&#45;&gt;Node2 -->
<g id="edge7_Node000006_Node000002" class="edge">
<title>Node6&#45;&gt;Node2</title>
<g id="a_edge7_Node000006_Node000002"><a xlink:title=" ">
<path fill="none" stroke="#63b8ff" d="M138.97,-110.01C129.27,-101.71 115.66,-88.63 107.42,-74.5 99.47,-60.87 94.59,-43.63 91.78,-30.5"/>
<polygon fill="#63b8ff" stroke="#63b8ff" points="95.26,-30.07 89.95,-20.9 88.38,-31.38 95.26,-30.07"/>
</a>
</g>
</g>
<!-- Node7 -->
<g id="Node000007" class="node">
<title>Node7</title>
<g id="a_Node000007"><a xlink:href="PID_8h.html" target="_top" xlink:title=" ">
<polygon fill="white" stroke="#666666" points="156.42,-74.5 116.42,-74.5 116.42,-55.25 156.42,-55.25 156.42,-74.5"/>
<text text-anchor="middle" x="136.42" y="-61" font-family="Helvetica,sans-Serif" font-size="10.00">PID.h</text>
</a>
</g>
</g>
<!-- Node6&#45;&gt;Node7 -->
<g id="edge8_Node000006_Node000007" class="edge">
<title>Node6&#45;&gt;Node7</title>
<g id="a_edge8_Node000006_Node000007"><a xlink:title=" ">
<path fill="none" stroke="#63b8ff" d="M148.1,-110.33C146.35,-103.67 143.87,-94.24 141.65,-85.78"/>
<polygon fill="#63b8ff" stroke="#63b8ff" points="145.09,-85.1 139.16,-76.32 138.32,-86.88 145.09,-85.1"/>
</a>
</g>
</g>
<!-- Node6&#45;&gt;Node8 -->
<g id="edge10_Node000006_Node000008" class="edge">
<title>Node6&#45;&gt;Node8</title>
<g id="a_edge10_Node000006_Node000008"><a xlink:title=" ">
<path fill="none" stroke="#63b8ff" d="M162.97,-110.09C173.88,-102.24 189.92,-90.7 202.88,-81.37"/>
<polygon fill="#63b8ff" stroke="#63b8ff" points="204.75,-84.34 210.82,-75.66 200.66,-78.66 204.75,-84.34"/>
</a>
</g>
</g>
<!-- Node7&#45;&gt;Node2 -->
<g id="edge9_Node000007_Node000002" class="edge">
<title>Node7&#45;&gt;Node2</title>
<g id="a_edge9_Node000007_Node000002"><a xlink:title=" ">
<path fill="none" stroke="#63b8ff" d="M128.49,-55.08C121.86,-47.73 112.2,-37.01 104.03,-27.94"/>
<polygon fill="#63b8ff" stroke="#63b8ff" points="106.82,-25.82 97.53,-20.73 101.62,-30.5 106.82,-25.82"/>
</a>
</g>
</g>
</g>
</svg>
