<?xml version="1.0" encoding="UTF-8" standalone="no"?>
<!DOCTYPE svg PUBLIC "-//W3C//DTD SVG 1.1//EN"
 "http://www.w3.org/Graphics/SVG/1.1/DTD/svg11.dtd">
<!-- Generated by graphviz version 12.0.0 (20240704.0754)
 -->
<!-- Title: src/sensor/ThermistorReader.h Pages: 1 -->
<svg width="595pt" height="193pt"
 viewBox="0.00 0.00 595.25 193.00" xmlns="http://www.w3.org/2000/svg" xmlns:xlink="http://www.w3.org/1999/xlink">
<g id="graph0" class="graph" transform="scale(1 1) rotate(0) translate(4 189)">
<title>src/sensor/ThermistorReader.h</title>
<!-- Node1 -->
<g id="Node000001" class="node">
<title>Node1</title>
<g id="a_Node000001"><a xlink:title=" ">
<polygon fill="#999999" stroke="#666666" points="251.12,-185 101.62,-185 101.62,-165.75 251.12,-165.75 251.12,-185"/>
<text text-anchor="middle" x="176.38" y="-171.5" font-family="Helvetica,sans-Serif" font-size="10.00">src/sensor/ThermistorReader.h</text>
</a>
</g>
</g>
<!-- Node2 -->
<g id="Node000002" class="node">
<title>Node2</title>
<g id="a_Node000002"><a xlink:href="SerialLogger_8h.html" target="_top" xlink:title=" ">
<polygon fill="white" stroke="#666666" points="94.75,-129.75 0,-129.75 0,-110.5 94.75,-110.5 94.75,-129.75"/>
<text text-anchor="middle" x="47.38" y="-116.25" font-family="Helvetica,sans-Serif" font-size="10.00">src/SerialLogger.h</text>
</a>
</g>
</g>
<!-- Node1&#45;&gt;Node2 -->
<g id="edge1_Node000001_Node000002" class="edge">
<title>Node1&#45;&gt;Node2</title>
<g id="a_edge1_Node000001_Node000002"><a xlink:title=" ">
<path fill="none" stroke="#63b8ff" d="M144.05,-161.03C120.74,-151.41 89.88,-138.67 69.37,-130.2"/>
<polygon fill="#63b8ff" stroke="#63b8ff" points="142.51,-164.18 153.09,-164.76 145.18,-157.71 142.51,-164.18"/>
</a>
</g>
</g>
<!-- Node3 -->
<g id="Node000003" class="node">
<title>Node3</title>
<g id="a_Node000003"><a xlink:href="main_8cpp.html" target="_top" xlink:title=" ">
<polygon fill="white" stroke="#666666" points="121.12,-74.5 49.62,-74.5 49.62,-55.25 121.12,-55.25 121.12,-74.5"/>
<text text-anchor="middle" x="85.38" y="-61" font-family="Helvetica,sans-Serif" font-size="10.00">src/main.cpp</text>
</a>
</g>
</g>
<!-- Node1&#45;&gt;Node3 -->
<g id="edge3_Node000001_Node000003" class="edge">
<title>Node1&#45;&gt;Node3</title>
<g id="a_edge3_Node000001_Node000003"><a xlink:title=" ">
<path fill="none" stroke="#63b8ff" d="M161.73,-156.91C142.11,-133.52 108.01,-92.86 92.92,-74.88"/>
<polygon fill="#63b8ff" stroke="#63b8ff" points="158.85,-158.92 167.96,-164.34 164.21,-154.43 158.85,-158.92"/>
</a>
</g>
</g>
<!-- Node4 -->
<g id="Node000004" class="node">
<title>Node4</title>
<g id="a_Node000004"><a xlink:href="ThermistorReader_8cpp.html" target="_top" xlink:title=" ">
<polygon fill="white" stroke="#666666" points="310.38,-129.75 150.38,-129.75 150.38,-110.5 310.38,-110.5 310.38,-129.75"/>
<text text-anchor="middle" x="230.38" y="-116.25" font-family="Helvetica,sans-Serif" font-size="10.00">src/sensor/ThermistorReader.cpp</text>
</a>
</g>
</g>
<!-- Node1&#45;&gt;Node4 -->
<g id="edge4_Node000001_Node000004" class="edge">
<title>Node1&#45;&gt;Node4</title>
<g id="a_edge4_Node000001_Node000004"><a xlink:title=" ">
<path fill="none" stroke="#63b8ff" d="M193.41,-157.57C202.64,-148.48 213.67,-137.6 221.26,-130.11"/>
<polygon fill="#63b8ff" stroke="#63b8ff" points="191.03,-155.01 186.37,-164.52 195.95,-159.99 191.03,-155.01"/>
</a>
</g>
</g>
<!-- Node5 -->
<g id="Node000005" class="node">
<title>Node5</title>
<g id="a_Node000005"><a xlink:href="ControllerUI_8h.html" target="_top" xlink:title=" ">
<polygon fill="white" stroke="#666666" points="430.5,-129.75 328.25,-129.75 328.25,-110.5 430.5,-110.5 430.5,-129.75"/>
<text text-anchor="middle" x="379.38" y="-116.25" font-family="Helvetica,sans-Serif" font-size="10.00">src/ui/ControllerUI.h</text>
</a>
</g>
</g>
<!-- Node1&#45;&gt;Node5 -->
<g id="edge5_Node000001_Node000005" class="edge">
<title>Node1&#45;&gt;Node5</title>
<g id="a_edge5_Node000001_Node000005"><a xlink:title=" ">
<path fill="none" stroke="#63b8ff" d="M221.85,-162.45C259.05,-152.69 310.88,-139.09 344.77,-130.2"/>
<polygon fill="#63b8ff" stroke="#63b8ff" points="221.06,-159.03 212.28,-164.96 222.84,-165.81 221.06,-159.03"/>
</a>
</g>
</g>
<!-- Node2&#45;&gt;Node3 -->
<g id="edge2_Node000002_Node000003" class="edge">
<title>Node2&#45;&gt;Node3</title>
<g id="a_edge2_Node000002_Node000003"><a xlink:title=" ">
<path fill="none" stroke="#63b8ff" d="M60.17,-101.19C66.49,-92.34 73.84,-82.04 78.96,-74.86"/>
<polygon fill="#63b8ff" stroke="#63b8ff" points="57.49,-98.93 54.53,-109.1 63.19,-102.99 57.49,-98.93"/>
</a>
</g>
</g>
<!-- Node6 -->
<g id="Node000006" class="node">
<title>Node6</title>
<g id="a_Node000006"><a xlink:href="CharDisplayUI_8h.html" target="_top" xlink:title=" ">
<polygon fill="white" stroke="#666666" points="304.75,-74.5 192,-74.5 192,-55.25 304.75,-55.25 304.75,-74.5"/>
<text text-anchor="middle" x="248.38" y="-61" font-family="Helvetica,sans-Serif" font-size="10.00">src/ui/CharDisplayUI.h</text>
</a>
</g>
</g>
<!-- Node5&#45;&gt;Node6 -->
<g id="edge6_Node000005_Node000006" class="edge">
<title>Node5&#45;&gt;Node6</title>
<g id="a_edge6_Node000005_Node000006"><a xlink:title=" ">
<path fill="none" stroke="#63b8ff" d="M346.55,-105.78C322.87,-96.16 291.54,-83.42 270.71,-74.95"/>
<polygon fill="#63b8ff" stroke="#63b8ff" points="345.17,-109 355.75,-109.52 347.8,-102.51 345.17,-109"/>
</a>
</g>
</g>
<!-- Node8 -->
<g id="Node000008" class="node">
<title>Node8</title>
<g id="a_Node000008"><a xlink:href="ControllerUI_8cpp.html" target="_top" xlink:title=" ">
<polygon fill="white" stroke="#666666" points="435.75,-74.5 323,-74.5 323,-55.25 435.75,-55.25 435.75,-74.5"/>
<text text-anchor="middle" x="379.38" y="-61" font-family="Helvetica,sans-Serif" font-size="10.00">src/ui/ControllerUI.cpp</text>
</a>
</g>
</g>
<!-- Node5&#45;&gt;Node8 -->
<g id="edge8_Node000005_Node000008" class="edge">
<title>Node5&#45;&gt;Node8</title>
<g id="a_edge8_Node000005_Node000008"><a xlink:title=" ">
<path fill="none" stroke="#63b8ff" d="M379.38,-98.88C379.38,-90.59 379.38,-81.42 379.38,-74.86"/>
<polygon fill="#63b8ff" stroke="#63b8ff" points="375.88,-98.82 379.38,-108.82 382.88,-98.82 375.88,-98.82"/>
</a>
</g>
</g>
<!-- Node9 -->
<g id="Node000009" class="node">
<title>Node9</title>
<g id="a_Node000009"><a xlink:href="GraphicalDisplayUI_8h.html" target="_top" xlink:title=" ">
<polygon fill="white" stroke="#666666" points="587.25,-74.5 453.5,-74.5 453.5,-55.25 587.25,-55.25 587.25,-74.5"/>
<text text-anchor="middle" x="520.38" y="-61" font-family="Helvetica,sans-Serif" font-size="10.00">src/ui/GraphicalDisplayUI.h</text>
</a>
</g>
</g>
<!-- Node5&#45;&gt;Node9 -->
<g id="edge9_Node000005_Node000009" class="edge">
<title>Node5&#45;&gt;Node9</title>
<g id="a_edge9_Node000005_Node000009"><a xlink:title=" ">
<path fill="none" stroke="#63b8ff" d="M414.01,-106.04C439.58,-96.39 473.71,-83.5 496.34,-74.95"/>
<polygon fill="#63b8ff" stroke="#63b8ff" points="412.83,-102.75 404.71,-109.56 415.3,-109.3 412.83,-102.75"/>
</a>
</g>
</g>
<!-- Node7 -->
<g id="Node000007" class="node">
<title>Node7</title>
<g id="a_Node000007"><a xlink:href="CharDisplayUI_8cpp.html" target="_top" xlink:title=" ">
<polygon fill="white" stroke="#666666" points="310,-19.25 186.75,-19.25 186.75,0 310,0 310,-19.25"/>
<text text-anchor="middle" x="248.38" y="-5.75" font-family="Helvetica,sans-Serif" font-size="10.00">src/ui/CharDisplayUI.cpp</text>
</a>
</g>
</g>
<!-- Node6&#45;&gt;Node7 -->
<g id="edge7_Node000006_Node000007" class="edge">
<title>Node6&#45;&gt;Node7</title>
<g id="a_edge7_Node000006_Node000007"><a xlink:title=" ">
<path fill="none" stroke="#63b8ff" d="M248.38,-43.63C248.38,-35.34 248.38,-26.17 248.38,-19.61"/>
<polygon fill="#63b8ff" stroke="#63b8ff" points="244.88,-43.57 248.38,-53.57 251.88,-43.57 244.88,-43.57"/>
</a>
</g>
</g>
</g>
</svg>
