<?xml version="1.0" encoding="UTF-8" standalone="no"?>
<!DOCTYPE svg PUBLIC "-//W3C//DTD SVG 1.1//EN"
 "http://www.w3.org/Graphics/SVG/1.1/DTD/svg11.dtd">
<!-- Generated by graphviz version 12.0.0 (20240704.0754)
 -->
<!-- Title: src/sensor/ThermistorReader.cpp Pages: 1 -->
<svg width="187pt" height="138pt"
 viewBox="0.00 0.00 187.38 137.75" xmlns="http://www.w3.org/2000/svg" xmlns:xlink="http://www.w3.org/1999/xlink">
<g id="graph0" class="graph" transform="scale(1 1) rotate(0) translate(4 133.75)">
<title>src/sensor/ThermistorReader.cpp</title>
<!-- Node1 -->
<g id="Node000001" class="node">
<title>Node1</title>
<g id="a_Node000001"><a xlink:title=" ">
<polygon fill="#999999" stroke="#666666" points="160,-129.75 0,-129.75 0,-110.5 160,-110.5 160,-129.75"/>
<text text-anchor="middle" x="80" y="-116.25" font-family="Helvetica,sans-Serif" font-size="10.00">src/sensor/ThermistorReader.cpp</text>
</a>
</g>
</g>
<!-- Node2 -->
<g id="Node000002" class="node">
<title>Node2</title>
<g id="a_Node000002"><a xlink:title=" ">
<polygon fill="#e0e0e0" stroke="#999999" points="60.25,-74.5 3.75,-74.5 3.75,-55.25 60.25,-55.25 60.25,-74.5"/>
<text text-anchor="middle" x="32" y="-61" font-family="Helvetica,sans-Serif" font-size="10.00">Arduino.h</text>
</a>
</g>
</g>
<!-- Node1&#45;&gt;Node2 -->
<g id="edge1_Node000001_Node000002" class="edge">
<title>Node1&#45;&gt;Node2</title>
<g id="a_edge1_Node000001_Node000002"><a xlink:title=" ">
<path fill="none" stroke="#63b8ff" d="M72.07,-110.33C65.44,-102.98 55.78,-92.26 47.61,-83.19"/>
<polygon fill="#63b8ff" stroke="#63b8ff" points="50.41,-81.07 41.11,-75.98 45.21,-85.75 50.41,-81.07"/>
</a>
</g>
</g>
<!-- Node3 -->
<g id="Node000003" class="node">
<title>Node3</title>
<g id="a_Node000003"><a xlink:href="ThermistorReader_8h.html" target="_top" xlink:title=" ">
<polygon fill="white" stroke="#666666" points="179.38,-74.5 78.62,-74.5 78.62,-55.25 179.38,-55.25 179.38,-74.5"/>
<text text-anchor="middle" x="129" y="-61" font-family="Helvetica,sans-Serif" font-size="10.00">ThermistorReader.h</text>
</a>
</g>
</g>
<!-- Node1&#45;&gt;Node3 -->
<g id="edge2_Node000001_Node000003" class="edge">
<title>Node1&#45;&gt;Node3</title>
<g id="a_edge2_Node000001_Node000003"><a xlink:title=" ">
<path fill="none" stroke="#63b8ff" d="M88.09,-110.33C94.86,-102.98 104.72,-92.26 113.06,-83.19"/>
<polygon fill="#63b8ff" stroke="#63b8ff" points="115.51,-85.7 119.71,-75.97 110.36,-80.96 115.51,-85.7"/>
</a>
</g>
</g>
<!-- Node4 -->
<g id="Node000004" class="node">
<title>Node4</title>
<g id="a_Node000004"><a xlink:title=" ">
<polygon fill="#e0e0e0" stroke="#999999" points="152.75,-19.25 105.25,-19.25 105.25,0 152.75,0 152.75,-19.25"/>
<text text-anchor="middle" x="129" y="-5.75" font-family="Helvetica,sans-Serif" font-size="10.00">stdint.h</text>
</a>
</g>
</g>
<!-- Node3&#45;&gt;Node4 -->
<g id="edge3_Node000003_Node000004" class="edge">
<title>Node3&#45;&gt;Node4</title>
<g id="a_edge3_Node000003_Node000004"><a xlink:title=" ">
<path fill="none" stroke="#63b8ff" d="M129,-55.08C129,-48.57 129,-39.42 129,-31.12"/>
<polygon fill="#63b8ff" stroke="#63b8ff" points="132.5,-31.12 129,-21.12 125.5,-31.12 132.5,-31.12"/>
</a>
</g>
</g>
</g>
</svg>
